<svg xmlns="http://www.w3.org/2000/svg" fill="none" viewBox="0 0 64 64"><path fill="#E3FCFD" d="M52 58.06a5.059 5.059 0 1 0 0-10.119 5.059 5.059 0 0 0 0 10.118zM19 2h12a4 4 0 0 1 4 4v10a9 9 0 0 1-9 9h-2a9 9 0 0 1-9-9V6a4 4 0 0 1 4-4z"/><path fill="#00E1F0" d="M43 42.426V35.9c0-1.602-1.332-2.9-2.974-2.9H9.293C7.65 33 6.32 34.298 6.32 35.9V62h24.27c8.082 0 8.25-5.609 8.25-9.735 0-6.794 1.28-9.839 4.161-9.839z"/><path fill="#003CBF" d="M58 60H46a2 2 0 1 0 0 4h12a2 2 0 1 0 0-4zM24 27h2c6.075 0 11-4.925 11-11V6a6 6 0 0 0-6-6H19a6 6 0 0 0-6 6v10c0 6.075 4.925 11 11 11zM17 6a2 2 0 0 1 2-2h12a2 2 0 0 1 2 2v10a7 7 0 0 1-7 7h-2a7 7 0 0 1-7-7V6z"/><path fill="#003CBF" d="M59 53a7 7 0 0 0-5.2-6.76A8 8 0 0 0 46 40v-2a7 7 0 0 0-4.61-6.57c.475-1.769.681-3.6.61-5.43a2 2 0 0 0-2-2h-2a2 2 0 1 0 0 4 13.01 13.01 0 0 1-.6 3H12.64a12.984 12.984 0 0 1-.64-3 2 2 0 1 0 0-4h-2a2 2 0 0 0-2 2c-.071 1.83.135 3.661.61 5.43A7 7 0 0 0 4 38v6a2 2 0 1 0 4 0v-6a3 3 0 0 1 2.09-2.84A17.06 17.06 0 0 0 22 43.72V54.5a9.417 9.417 0 0 0 1.77 5.5H8v-8a2 2 0 1 0-4 0v10a2 2 0 0 0 2 2h25.5a9.511 9.511 0 0 0 9.5-9.5V48a4 4 0 0 1 4-4h1a4 4 0 0 1 3.67 2.41 7 7 0 0 0-4.271 8.931A7 7 0 0 0 59 53zM14.77 35h20.46c-4.43 5.65-12.602 6.639-18.252 2.208A12.995 12.995 0 0 1 14.77 35zM37 48v6.5a5.5 5.5 0 1 1-11 0V44a17 17 0 0 0 13.91-8.79A2.999 2.999 0 0 1 42 38v2.59A8 8 0 0 0 37 48zm15 8a3 3 0 1 1 0-6 3 3 0 0 1 0 6z"/></svg>