<svg xmlns="http://www.w3.org/2000/svg" fill="none" viewBox="0 0 64 64"><path fill="#C8FBFF" d="M29.14 18.173h-1.014c-2.237 0-4.05-1.825-4.05-4.077V9H11.924v5.096c0 2.252-1.813 4.077-4.05 4.077H6.861a3.048 3.048 0 0 0-3.038 3.058v37.712a3.048 3.048 0 0 0 3.038 3.058h22.277a3.048 3.048 0 0 0 3.038-3.058V21.231c0-1.689-1.36-3.058-3.037-3.058z"/><path fill="#00E1F0" d="M42.69 51.174l8.485-8.485a4 4 0 0 1 5.657 5.657l-8.485 8.485a4 4 0 0 1-5.657-5.657zM10 3h16v6H10V3z"/><path fill="#003CBF" d="M29 16a3 3 0 0 1-3-3v-1h1a2 2 0 0 0 2-2V2a2 2 0 0 0-2-2H9a2 2 0 0 0-2 2v8a2 2 0 0 0 2 2h1v1a3 3 0 0 1-3 3 5 5 0 0 0-5 5v10a2 2 0 1 0 4 0v-3h24v24H6V39a2 2 0 1 0-4 0v20a5 5 0 0 0 5 5h22a5 5 0 0 0 5-5V21a5 5 0 0 0-5-5zM11 4h14v4H11V4zM6 24v-3c.1-.69.31-.9 1-1a7 7 0 0 0 7-7v-1h8v1a7 7 0 0 0 7 7 1 1 0 0 1 1 1v3H6zm23 36H7a1 1 0 0 1-1-1v-3h24v3a1 1 0 0 1-1 1z"/><path fill="#00E1F0" d="M18 33a2 2 0 0 0-2 2v3h-3a2 2 0 1 0 0 4h3v3a2 2 0 1 0 4 0v-3h3a2 2 0 1 0 0-4h-3v-3a2 2 0 0 0-2-2z"/><path fill="#003CBF" d="M45.76 60A5.996 5.996 0 0 0 50 58.24l8.49-8.48A6.004 6.004 0 0 0 50 41.27l-8.49 8.49A6 6 0 0 0 45.76 60zm7.07-15.9a2.002 2.002 0 0 1 2.83 2.83l-2.83 2.83L50 46.93l2.83-2.83zm-8.49 8.48l2.83-2.82L50 52.59l-2.83 2.82a2.002 2.002 0 0 1-2.83-2.83z"/><path fill="#003CBF" d="M52 60H40a2 2 0 1 0 0 4h12a2 2 0 1 0 0-4z"/></svg>