<svg xmlns="http://www.w3.org/2000/svg" fill="none" viewBox="0 0 64 64"><path fill="#E3FCFD" d="M41 27l-9-9-9 9H9v35h46V27H41z"/><path fill="#00E1F0" d="M23 41h18v21H23V41zM52 10H11L2 27h21l9-9 9 9h21L52 10z"/><path fill="#00E1F0" d="M41 2h8v17h-8V2z"/><path fill="#003CBF" d="M63.72 25.986l-9.999-17A1.999 1.999 0 0 0 51.998 8h-3V2a2 2 0 0 0-2-2H39a2 2 0 0 0-2 2v6H11.002a2 2 0 0 0-1.767 1.064l-8.999 17A2.014 2.014 0 0 0 2.004 29h4.999v31h-2a2 2 0 1 0 0 4h53.994a2 2 0 0 0 0-4h-2V29h5a2.013 2.013 0 0 0 1.723-3.014zM39 60H25V43h14v17zm13.998 0h-10V41a2 2 0 0 0-2-2H23.002a2 2 0 0 0-2 2v19h-9.999V29h7.171l-1.585 1.586a2 2 0 0 0 2.828 2.828L32 20.83l12.584 12.585a2 2 0 0 0 2.828-2.828L45.827 29h7.17v31zM41.827 25l-8.413-8.414a1.998 1.998 0 0 0-2.828 0L22.173 25H5.325l6.881-13H37v2a2 2 0 1 0 3.999 0V4h4v10a2 2 0 1 0 3.999 0v-2h1.856L58.5 25H41.827z"/><path fill="#003CBF" d="M16.002 15a2 2 0 1 0 0 4 2 2 0 0 0 0-4z"/></svg>