<svg xmlns="http://www.w3.org/2000/svg" fill="none" viewBox="0 0 64 64"><path fill="#00E1F0" d="M32 47c-4.412 0-8-3.588-8-8s3.588-8 8-8 8 3.588 8 8-3.588 8-8 8z"/><path fill="#0065FF" d="M2.981 22.004c-.86-2.396.068-5.012 2.252-6.364 19.593-12.109 40.835-11.449 55.44 1.72a2 2 0 1 1-2.08 3.344c-15.87-6.336-33.839-4.788-46.88 4.049-3.131 2.116-7.496.676-8.732-2.749z"/><path fill="#0065FF" d="M32.002 57.83c-10.433 0-20.861-5.18-31.222-15.536a2.67 2.67 0 0 1 0-3.773c20.717-20.717 41.723-20.717 62.44 0a2.67 2.67 0 0 1 0 3.773C52.863 52.65 42.435 57.83 32.002 57.83zM6.504 40.406c17.133 15.957 33.858 15.957 50.992 0-17.13-15.957-33.858-15.957-50.992 0z"/></svg>