<svg xmlns="http://www.w3.org/2000/svg" fill="none" viewBox="0 0 64 64"><g clip-path="url(#clip0_52_11451)"><path fill="#05BAD1" d="M35.118 23L54 4.05c1.035-1.035 2.112-1.513 3.078-1.697 2.59-.493 4.933 1.48 4.783 4.112-.064 1.114-.549 2.333-1.66 3.586L48.001 23H35.117z"/><path fill="#E3FCFD" d="M12 48.93c9.075 10.77 25.162 12.143 35.932 3.068A25.498 25.498 0 0 0 57 32.5V31h1a4 4 0 0 0 0-8H6a4 4 0 0 0 0 8v1.5A25.424 25.424 0 0 0 7.83 42"/><path fill="#003CBF" d="M58 21h-5.81l9.9-9.91a6.495 6.495 0 1 0-9.18-9.19L33.81 21H6a6 6 0 0 0-2 11.66 27.325 27.325 0 0 0 2 10.08 2 2 0 1 0 3.71-1.49A23.475 23.475 0 0 1 8 32.5V31a2 2 0 0 0-2-2 2 2 0 1 1 0-4h52a2 2 0 1 1 0 4h-1a2 2 0 0 0-2 2v1.5c-.002 12.98-10.525 23.498-23.504 23.496A23.5 23.5 0 0 1 13.53 47.64a2.002 2.002 0 0 0-3.06 2.58c9.784 11.616 27.133 13.101 38.75 3.317A27.498 27.498 0 0 0 59 32.92 6 6 0 0 0 58 21zM55.73 4.73a2.56 2.56 0 0 1 3.53 0c.475.466.742 1.104.74 1.77a2.519 2.519 0 0 1-.73 1.77L46.53 21h-7.06L55.73 4.73z"/><path fill="#003CBF" d="M11 62a2 2 0 0 0 2 2h36a2 2 0 1 0 0-4H13a2 2 0 0 0-2 2z"/><path fill="#05BAD1" d="M32 32a2 2 0 0 0-2 2v3h-3a2 2 0 1 0 0 4h3v3a2 2 0 1 0 4 0v-3h3a2 2 0 1 0 0-4h-3v-3a2 2 0 0 0-2-2z"/></g><defs><clipPath id="clip0_52_11451"><path fill="#fff" d="M0 0h64v64H0z"/></clipPath></defs></svg>