<svg xmlns="http://www.w3.org/2000/svg" fill="none" viewBox="0 0 64 64"><path fill="#E3FCFD" d="M7 19v-9h17v38.5a8.51 8.51 0 0 1-8.5 8.5A8.51 8.51 0 0 1 7 48.5V27"/><path fill="#E3FCFD" d="M23.6 2.6h-17a3 3 0 0 0-3 3v2a3 3 0 0 0 3 3h17a3 3 0 0 0 3-3v-2a3 3 0 0 0-3-3zM46 60.05l-2-2.14a3.32 3.32 0 0 1-.88-2.26V38h8v19.78A3 3 0 0 1 46 60.05z"/><path fill="#E3FCFD" d="M55.93 31.3a.83.83 0 0 1-.83-.83v-4.55a.81.81 0 0 1 .3-.63 13 13 0 1 0-16.6 0 .81.81 0 0 1 .3.63v4.55a.83.83 0 0 1-.83.83 4.12 4.12 0 0 0-4.15 3.61 4 4 0 0 0 4 4.39h18a4 4 0 0 0 4-4.39 4.12 4.12 0 0 0-4.19-3.61z"/><path fill="#00E1F0" d="M7 42.61v6.49a8.5 8.5 0 1 0 17 0v-18c-3.69.03-9.68 2.01-17 11.51z"/><path fill="#003CBF" d="M24 .48H7a5 5 0 0 0-5 5v2a5 5 0 0 0 3 4.58v7.42a2 2 0 1 0 4 0v-7h13v12.28a2 2 0 0 0 0 3.45v1.41c-5.83.73-10.19 4.58-13 8.06v-10.2a2 2 0 0 0-4 0V49a10.5 10.5 0 1 0 21 0V12.06a5 5 0 0 0 3-4.58v-2a5 5 0 0 0-5-5zM22 49a6.5 6.5 0 1 1-13 0v-4c.95-1.84 5.57-10 13-11.3V49zm3-41.5a1 1 0 0 1-1 1H7a1 1 0 0 1-1-1v-2a1 1 0 0 1 1-1h17a1 1 0 0 1 1 1v2z"/><path fill="#003CBF" d="M15 28.48a2 2 0 1 0 0-4 2 2 0 0 0 0 4zM16 20.48a2 2 0 1 0 0-4 2 2 0 0 0 0 4zM62 34.93a6.09 6.09 0 0 0-5-5.31v-2.95a15 15 0 0 0 4.84-13.39A15.13 15.13 0 0 0 48.7.6C40.05-.55 31.82 6.8 32 15.51a14.93 14.93 0 0 0 5 11.16v2.95a6.09 6.09 0 0 0-5 5.31 6 6 0 0 0 6 6.58h3v14.64a5.28 5.28 0 0 0 1.42 3.64l2 2.14A4.828 4.828 0 0 0 48 63.51a5.12 5.12 0 0 0 5-5.22V41.51h3a6 6 0 0 0 6-6.58zM49 58.29c-.11 1.25-1 1.52-1.66.91l-2-2.14a1.31 1.31 0 0 1-.34-.91V41.51h4v16.78zm8.48-21.44a1.999 1.999 0 0 1-1.48.66H38a2 2 0 0 1-2-2.2 2.12 2.12 0 0 1 2.16-1.8A2.83 2.83 0 0 0 41 30.68v-4.55A2.81 2.81 0 0 0 40 24a10.998 10.998 0 0 1 1.087-17.761A11 11 0 0 1 54 23.999a2.811 2.811 0 0 0-1 2.17v4.55a2.83 2.83 0 0 0 2.83 2.83A2.12 2.12 0 0 1 58 35.31a2.002 2.002 0 0 1-.52 1.54zM6 61.48a2 2 0 0 0 2 2h15.75a2 2 0 0 0 0-4H8a2 2 0 0 0-2 2z"/></svg>