<svg xmlns="http://www.w3.org/2000/svg" fill="none" viewBox="0 0 64 64"><g clip-path="url(#clip0_52_11474)"><path fill="#E3FCFD" d="M43.39 2.607l14.408 10.857a2.999 2.999 0 0 1 .59 4.201l-1.204 1.597a2.999 2.999 0 0 1-4.201.59L38.577 8.996a2.999 2.999 0 0 1-.59-4.2l1.204-1.598a2.998 2.998 0 0 1 4.2-.59z"/><path fill="#E3FCFD" d="M36.588 19.992l6.02-7.99L49 16.818l-6.02 7.99-6.392-4.816zM25.57 23l3.61-4.8a3 3 0 0 1 4.2-.59l12.78 9.63a3 3 0 0 1 .59 4.2L31.07 52.23a3 3 0 0 1-4.2.59l-12.78-9.63A3 3 0 0 1 13.5 39l7.13-9.47"/><path fill="#00E1F0" d="M15.582 38.189l-2.14 2.826 15.573 11.779 14.271-18.317-27.704 3.712z"/><path fill="#003CBF" d="M59 11.86L44.6 1a5 5 0 0 0-7 1l-1.2 1.6a5 5 0 0 0 1 7l2.41 1.82-3.63 4.78-1.6-1.2a5 5 0 0 0-7 1L24 21.77a2.002 2.002 0 1 0 3.2 2.41l3.61-4.79a1 1 0 0 1 1.4-.2L45 28.82a1 1 0 0 1 .2 1.4l-1.21 1.61-25.26 3.54 3.5-4.64A2.015 2.015 0 1 0 19 28.32l-7.1 9.46a5 5 0 0 0 1 7l4.79 3.61-8.47 11.23c-.087.119-.16.246-.22.38H5a2 2 0 1 0 0 4h16a2 2 0 1 0 0-4h-7l6.92-9.2 4.8 3.62a5 5 0 0 0 7-1l15.68-20.8a5 5 0 0 0-1-7l-1.6-1.2 3.62-4.79 2.41 1.82a5 5 0 0 0 7-1L60 18.87a5 5 0 0 0-.989-7.002L59 11.86zM29.47 51a1 1 0 0 1-1.4.2L15.3 41.59a1 1 0 0 1-.2-1.4l.23-.3 25.21-3.55L29.47 51zm13.1-29l-3.19-2.4L43 14.81l3.19 2.41L42.57 22zm14.23-5.54l-1.2 1.6a1 1 0 0 1-1.4.19L39.79 7.39a1 1 0 0 1-.2-1.4l1.2-1.59a1 1 0 0 1 1.4-.2L56.6 15.06a1 1 0 0 1 .2 1.4z"/></g><defs><clipPath id="clip0_52_11474"><path fill="#fff" d="M0 0h64v64H0z"/></clipPath></defs></svg>