<svg xmlns="http://www.w3.org/2000/svg" fill="none" viewBox="0 0 64 64"><g clip-path="url(#clip0_52_11512)"><path fill="#E3FCFD" d="M6.887 39.033C2.454 24.795 10.403 9.66 24.641 5.228 38.879.796 54.014 8.744 58.446 22.982c4.432 14.238-3.516 29.372-17.754 33.805a27 27 0 0 1-29.755-9.754"/><path fill="#00E1F0" d="M57.47 10c0 4.42-8 12-8 12s-8-7.58-8-12a8 8 0 0 1 16 0zM17.47 16.67c0 3.68-6.67 9.33-6.67 9.33s-6.67-5.65-6.67-9.33a6.67 6.67 0 1 1 13.34 0z"/><path fill="#003CBF" d="M61.67 31a28.825 28.825 0 0 0-4.25-15.07A11.868 11.868 0 0 0 59.67 10c.02-5.523-4.444-10.015-9.966-10.034A10.002 10.002 0 0 0 42 3.55a29.001 29.001 0 0 0-27.78 5.08 8.65 8.65 0 0 0-11.89 8c0 1.92 1.18 4 2.61 5.91A28.574 28.574 0 0 0 3.67 31c.008 2.914.457 5.81 1.33 8.59A2 2 0 0 0 6.87 41a2 2 0 0 0 1.91-2.59A25.013 25.013 0 0 1 7.67 31c.006-1.639.17-3.273.49-4.88a41.1 41.1 0 0 0 1.55 1.41c.361.304.818.47 1.29.47.473-.002.93-.172 1.29-.48 1.23-1 7.38-6.47 7.38-10.85a8.662 8.662 0 0 0-2.07-5.61 25.003 25.003 0 0 1 22.49-3.93 10.068 10.068 0 0 0-.42 2.87c0 5 7.18 12.09 8.62 13.45a2 2 0 0 0 2.75 0 51.187 51.187 0 0 0 3.78-4c6.321 12.275 1.495 27.35-10.78 33.672-10.877 5.601-24.21 2.508-31.51-7.312a2.002 2.002 0 0 0-3.22 2.38c9.491 12.901 27.643 15.666 40.545 6.175A29 29 0 0 0 61.67 31zM11 23.3c-2.21-2.12-4.67-5.07-4.67-6.63a4.67 4.67 0 0 1 9.34 0c0 1.55-2.46 4.51-4.67 6.63zm38.67-4.13c-2.84-3-6-7.07-6-9.17a6 6 0 1 1 12 0c0 2.1-3.17 6.21-6 9.17z"/><path fill="#003CBF" d="M20.67 32a2 2 0 1 0 0 4h2.2a9.914 9.914 0 0 0 1.46 3.51l-1.08 1.08a2 2 0 0 0 2.83 2.82l1.08-1.07a9.995 9.995 0 0 0 3.51 1.46V47a2 2 0 1 0 4 0v-3.2a10.086 10.086 0 0 0 3.51-1.46l1.07 1.07a2 2 0 0 0 2.83-2.82L41 39.51A9.918 9.918 0 0 0 42.47 36h.2a2 2 0 1 0 0-4h-.2A9.856 9.856 0 0 0 41 28.49l2.27-2.27a2 2 0 1 0-2.83-2.82l-2.26 2.26a10.086 10.086 0 0 0-3.51-1.46V21a2 2 0 1 0-4 0v3.2a9.995 9.995 0 0 0-3.51 1.46l-.08-.07a2 2 0 0 0-2.83 2.82l.08.08A9.844 9.844 0 0 0 22.87 32h-2.2zm12-1a2 2 0 0 0 2-2v-.65a6 6 0 0 1 3.41 8.23l-.46-.46A2.02 2.02 0 0 0 34.79 39l.46.46A6 6 0 0 1 26.67 34a6 6 0 0 1 4-5.65V29a2 2 0 0 0 2 2z"/><path fill="#00E1F0" d="M30.67 36a2 2 0 1 0 0-4 2 2 0 0 0 0 4z"/><path fill="#003CBF" d="M43.67 60h-22a2 2 0 1 0 0 4h22a2 2 0 1 0 0-4z"/></g><defs><clipPath id="clip0_52_11512"><path fill="#fff" d="M0 0h64v64H0z"/></clipPath></defs></svg>