<svg xmlns="http://www.w3.org/2000/svg" fill="none" viewBox="0 0 64 64"><path fill="#E3FCFD" d="M17 23l8-14 5-1 4 4-5 14h17l10 9 2 3v3l-4 2v2l-1 5-5 1h-3v3l-2 4H12s-9-1-9-12V31s2-11 14-8z"/><path fill="#00E1F0" d="M37 24.53a9.67 9.67 0 1 0 19.34 0c0-5.34-9.67-19.33-9.67-19.33S37 19.19 37 24.53z"/><path fill="#003CBF" d="M60 38.5a6 6 0 0 0-4.7-5.85 11.64 11.64 0 0 0 3-7.82c0-5.8-9-19-10-20.47a2 2 0 0 0-3.29 0c-1 1.46-9.7 14.2-10 20.14h-3.95l3.76-8.83a6.86 6.86 0 0 0-12.14-6.32L15.87 20.5c-4.06-.26-8.17.81-11 3.8A12.92 12.92 0 0 0 1 33.5v4a2 2 0 1 0 4 0v-4a9 9 0 0 1 2.64-6.37c2.36-2.6 6-2.75 9.27-2.65a2 2 0 0 0 1.8-.94l7.39-12.1a2.79 2.79 0 0 1 4.6-.23 2.83 2.83 0 0 1 .44 2.9l-4.95 11.61A2 2 0 0 0 28 28.5h7.6a11.72 11.72 0 0 0 2.3 4h-1.32a2 2 0 0 0 0 4H54a2 2 0 0 1 0 4H36.58a2 2 0 0 0 0 4H50a2 2 0 0 1 0 4H32.58a2 2 0 0 0 0 4H41a2 2 0 0 1 2 1.91 2.16 2.16 0 0 1-2.31 2.09H14a9 9 0 0 1-9-9v-2a2 2 0 0 0-4 0v2a13 13 0 0 0 13 13h39a2 2 0 0 0 0-4h-6.35a5.9 5.9 0 0 0 .35-2.28 5.998 5.998 0 0 0-.37-1.72H50a5.998 5.998 0 0 0 5.57-8.21A6 6 0 0 0 60 38.5zM46.66 9.09c3.47 5.35 7.67 12.79 7.67 15.74a7.67 7.67 0 0 1-15.33 0c0-2.95 4.2-10.39 7.66-15.74z"/></svg>