<svg xmlns="http://www.w3.org/2000/svg" fill="none" viewBox="0 0 64 64"><g clip-path="url(#clip0_52_11536)"><path fill="#E3FCFD" d="M27 9h8v8h-8V9zM2 37v-7a13 13 0 0 1 13-13h38a9 9 0 0 1 9 9v21a3 3 0 0 1-3 3H5a3 3 0 0 1-3-3v-2"/><path fill="#00E1F0" d="M13.07 16H21v15H3v-4.93A10.07 10.07 0 0 1 13.07 16z"/><path fill="#E3FCFD" d="M19 58a6 6 0 1 0 0-12 6 6 0 0 0 0 12zM47 58a6 6 0 1 0 0-12 6 6 0 0 0 0 12z"/><path fill="#003CBF" d="M53 14.24H37v-2a6 6 0 1 0-12 0v2H15a15 15 0 0 0-15 15v7a2 2 0 1 0 4 0v-3h17a2 2 0 0 0 2-2v-13h30a7 7 0 0 1 7 7v21a1 1 0 0 1-1 1h-5.59a8 8 0 0 0-14.82 0H25.41a8 8 0 0 0-14.82 0H5a1 1 0 0 1-1-1v-2a2 2 0 0 0-4 0v2a5 5 0 0 0 5 5h5.07a8 8 0 0 0 15.86 0h12.14a8 8 0 0 0 15.86 0H59a5 5 0 0 0 5-5v-21a11 11 0 0 0-11-11zm-34 15H4a11 11 0 0 1 11-11h4v11zm14-15h-4v-2a2 2 0 0 1 4 0v2zm-15 40a4 4 0 1 1 0-8 4 4 0 0 1 0 8zm28 0a4 4 0 1 1 0-8 4 4 0 0 1 0 8z"/><path fill="#00E1F0" d="M35 24.24a2 2 0 0 0-2 2v3h-3a2 2 0 0 0 0 4h3v3a2 2 0 0 0 4 0v-3h3a2 2 0 0 0 0-4h-3v-3a2 2 0 0 0-2-2z"/><path fill="#003CBF" d="M13 58.24a2 2 0 0 0 0 4h39a2 2 0 0 0 0-4H13zM21.81 5.88a2 2 0 1 0 2.83-2.83l-.71-.71a2.001 2.001 0 0 0-2.83 2.83l.71.71zM40.19 5.88l.71-.71a2.002 2.002 0 0 0-2.83-2.83l-.71.71a2.002 2.002 0 0 0 2.83 2.83z"/></g><defs><clipPath id="clip0_52_11536"><path fill="#fff" d="M0 0h64v64H0z"/></clipPath></defs></svg>