<svg xmlns="http://www.w3.org/2000/svg" fill="none" viewBox="0 0 64 64"><g clip-path="url(#clip0_52_11484)"><path fill="#E3FCFD" d="M6 30.244v-7.17c0-.816.31-1.598.86-2.174.551-.576 1.298-.9 2.077-.9h41.126c.779 0 1.526.324 2.077.9.55.576.86 1.358.86 2.173V62H8.937c-.779 0-1.526-.324-2.077-.9A3.147 3.147 0 0 1 6 58.927V38.439"/><path fill="#00E1F0" d="M29.8 29.46c7.18 0 13-5.913 13-13.206 0-7.294-5.82-13.206-13-13.206s-13 5.912-13 13.206c0 7.293 5.82 13.206 13 13.206z"/><path fill="#003CBF" d="M32.12 11.226l-3.53 3.596c-.21.182-.38.406-.5.658a2.058 2.058 0 0 0 .386 2.322 1.996 1.996 0 0 0 1.492.593c.275-.01.546-.079.794-.2.248-.123.468-.296.648-.508L35 14.1a2.037 2.037 0 0 0 .586-1.438A2.06 2.06 0 0 0 35 11.226a2 2 0 0 0-1.415-.596 1.975 1.975 0 0 0-1.415.596h-.05zM40 43.682c.53 0 1.04-.214 1.414-.595.375-.38.586-.898.586-1.436 0-.54-.21-1.056-.586-1.437A1.984 1.984 0 0 0 40 39.619H20c-.53 0-1.04.214-1.414.595A2.048 2.048 0 0 0 18 41.651c0 .538.21 1.055.586 1.436.375.381.884.595 1.414.595h20zM15 49.778c0 .538.21 1.055.586 1.436.375.381.884.595 1.414.595h26c.53 0 1.04-.214 1.414-.595.375-.38.586-.898.586-1.436 0-.54-.21-1.056-.586-1.437A1.984 1.984 0 0 0 43 47.746H17c-.53 0-1.04.214-1.414.595A2.048 2.048 0 0 0 15 49.778z"/><path fill="#003CBF" d="M58 59.937h-2V23.365a5.12 5.12 0 0 0-1.465-3.591A4.96 4.96 0 0 0 51 18.286h-6.15a15.446 15.446 0 0 0-1.056-8.134 15.244 15.244 0 0 0-3.506-5.103 14.963 14.963 0 0 0-5.223-3.253 14.784 14.784 0 0 0-11.967.815 15.05 15.05 0 0 0-4.75 3.932 15.327 15.327 0 0 0-2.804 5.532 15.473 15.473 0 0 0-.394 6.211H9a4.96 4.96 0 0 0-3.536 1.488A5.12 5.12 0 0 0 4 23.365v7.111c0 .54.21 1.056.586 1.437.375.381.884.595 1.414.595.53 0 1.04-.214 1.414-.595.375-.381.586-.898.586-1.437v-7.11c0-.27.105-.529.293-.719A.992.992 0 0 1 9 22.349h7.26a15.179 15.179 0 0 0 5.532 6.642A14.832 14.832 0 0 0 30 31.474c2.915 0 5.768-.863 8.208-2.483a15.179 15.179 0 0 0 5.532-6.642H51c.265 0 .52.107.707.298.188.19.293.449.293.718v36.572H9a.992.992 0 0 1-.707-.298A1.024 1.024 0 0 1 8 58.921V38.603c0-.538-.21-1.055-.586-1.436A1.984 1.984 0 0 0 6 36.572c-.53 0-1.04.214-1.414.595A2.048 2.048 0 0 0 4 38.603v20.318a5.12 5.12 0 0 0 1.464 3.591A4.961 4.961 0 0 0 9 64h49c.53 0 1.04-.214 1.414-.595.375-.381.586-.898.586-1.437s-.21-1.055-.586-1.436A1.984 1.984 0 0 0 58 59.937zM30 27.429c-2.176 0-4.302-.656-6.111-1.883a11.14 11.14 0 0 1-4.052-5.015 11.34 11.34 0 0 1-.626-6.457 11.23 11.23 0 0 1 3.01-5.721 10.948 10.948 0 0 1 5.633-3.059 10.84 10.84 0 0 1 6.355.636 11.04 11.04 0 0 1 4.937 4.116A11.3 11.3 0 0 1 41 16.254c0 2.964-1.159 5.806-3.222 7.902A10.913 10.913 0 0 1 30 27.429z"/></g><defs><clipPath id="clip0_52_11484"><path fill="#fff" d="M0 0h56v64H0z" transform="translate(4)"/></clipPath></defs></svg>