<svg xmlns="http://www.w3.org/2000/svg" fill="none" viewBox="0 0 64 64"><path fill="#E3FCFD" d="M2 21V5a3 3 0 0 1 3-3h28a3 3 0 0 1 3 3v57H2V29M36 25h13a3 3 0 0 1 3 3v34H36V25z"/><path fill="#00E1F0" d="M11 42h16v20H11V42z"/><path fill="#003CBF" d="M54 60V28a5 5 0 0 0-5-5H38V5a5 5 0 0 0-5-5H5a5 5 0 0 0-5 5v16a2 2 0 0 0 4 0V5a1 1 0 0 1 1-1h28a1 1 0 0 1 1 1v55h-5V41a2 2 0 0 0-2-2H11a2 2 0 0 0-2 2v19H4V29a2 2 0 0 0-4 0v33a2 2 0 0 0 2 2h52a2 2 0 0 0 0-4zm-29 0H13V43h12v17zm25 0H38V27h11a1 1 0 0 1 1 1v32z"/><path fill="#003CBF" d="M19 8a2 2 0 0 0-2 2v3h-3a2 2 0 0 0 0 4h3v3a2 2 0 0 0 4 0v-3h3a2 2 0 0 0 0-4h-3v-3a2 2 0 0 0-2-2zM44 31a2 2 0 0 0-2 2v5a2 2 0 0 0 4 0v-5a2 2 0 0 0-2-2zM44 44a2 2 0 0 0-2 2v5a2 2 0 0 0 4 0v-5a2 2 0 0 0-2-2zM8 32a2 2 0 0 0 2 2h5a2 2 0 0 0 0-4h-5a2 2 0 0 0-2 2zM21 32a2 2 0 0 0 2 2h5a2 2 0 0 0 0-4h-5a2 2 0 0 0-2 2z"/></svg>