<svg xmlns="http://www.w3.org/2000/svg" fill="none" viewBox="0 0 24 24"><path fill="#3754DB" d="M20.308 15.899a.684.684 0 0 1-.97 0l-.968-.968a.68.68 0 0 1 0-.967l1.938-1.937a.681.681 0 0 1 .967 0l.967.967a.684.684 0 0 1 0 .97L20.308 15.9zM10.037 5.627a.684.684 0 0 1-.97 0l-.968-.967a.68.68 0 0 1 0-.967l1.938-1.938a.68.68 0 0 1 .967 0l.967.968a.684.684 0 0 1 0 .97l-1.934 1.934z"/><path fill="#3754DB" d="M1.133 14.648c1.37 0 7.533.684 7.533.684s.684 6.162.684 7.533c0 1.37-1.368 1.37-2.054.684-.684-.684-2.738-4.109-2.738-4.109S1.133 17.386.449 16.702c-.684-.684-.684-2.054.684-2.054zm1.37-10.929c2.055-.026 17.118.658 17.118.658s.634 15.063.66 17.117c.027 2.055-1.893 2.741-2.644 0-.754-2.738-3.492-11.638-3.492-11.638S4.59 6.83 2.5 6.36c-2.735-.614-2.05-2.616.003-2.642z"/><path fill="#12A9C6" d="M18.254 1.639C19.62.269 23.046-.416 23.73.269c.687.683 0 4.108-1.367 5.478C20.992 7.115 9.35 18.073 9.35 18.073s-4.45 3.08-5.476 2.054c-1.028-1.029 2.054-5.479 2.054-5.479S16.884 3.006 18.254 1.638z"/><path fill="#3754DB" d="M9.35 14.648s.345.342-2.738 3.425c-3.08 3.08-3.425 2.738-3.425 2.738s-.342-.342 2.741-3.425c3.08-3.08 3.422-2.738 3.422-2.738zM19.62 2.322c1.137 0 2.054.92 2.054 2.055h.553c.079-.217.134-.442.134-.684 0-1.137-.92-2.054-2.054-2.054-.246 0-.47.055-.687.131v.552z"/></svg>