<svg xmlns="http://www.w3.org/2000/svg" fill="none" viewBox="0 0 24 24"><path fill="url(#paint0_linear_647_83423)" fill-rule="evenodd" d="M6 0a3 3 0 0 0-3 3v20.25a.75.75 0 0 0 1.11.658L12 19.604l7.89 4.304A.75.75 0 0 0 21 23.25V3a3 3 0 0 0-3-3H6zm6.239 6.149a.267.267 0 0 0-.478 0l-.952 1.93a.267.267 0 0 1-.201.145l-2.13.31a.267.267 0 0 0-.147.454l1.54 1.502c.063.061.092.15.077.236l-.363 2.12a.267.267 0 0 0 .386.282l1.905-1.002c.078-.04.17-.04.248 0l1.905 1.002a.266.266 0 0 0 .386-.281l-.363-2.121a.266.266 0 0 1 .076-.236l1.541-1.502a.267.267 0 0 0-.148-.455l-2.129-.309a.267.267 0 0 1-.2-.146l-.953-1.93z" clip-rule="evenodd"/><defs><linearGradient id="paint0_linear_647_83423" x1="21" x2="-2.04" y1="0" y2="17.28" gradientUnits="userSpaceOnUse"><stop stop-color="#3B80F4"/><stop offset="1" stop-color="#4C6FFF"/></linearGradient></defs></svg>