<svg xmlns="http://www.w3.org/2000/svg" fill="none" viewBox="0 0 19 19"><path fill="#4C6FFF" fill-rule="evenodd" d="M2.375 2.375A2.375 2.375 0 0 1 4.75 0h9.5a2.375 2.375 0 0 1 2.375 2.375v16.031a.594.594 0 0 1-.923.494L9.5 15.557 3.298 18.9a.594.594 0 0 1-.923-.494V2.375zM4.75 1.187c-.656 0-1.188.532-1.188 1.188v14.922l5.609-2.947c.2-.133.459-.133.658 0l5.608 2.947V2.375c0-.656-.531-1.188-1.187-1.188h-9.5z" clip-rule="evenodd"/><path fill="#4C6FFF" d="M9.31 4.868a.211.211 0 0 1 .38 0l.753 1.527c.03.063.09.106.159.116l1.686.245a.211.211 0 0 1 .117.36l-1.22 1.189a.211.211 0 0 0-.06.186l.287 1.68a.211.211 0 0 1-.306.222L9.598 9.6a.211.211 0 0 0-.196 0l-1.508.793a.211.211 0 0 1-.306-.223l.288-1.679a.211.211 0 0 0-.06-.186l-1.22-1.19a.211.211 0 0 1 .116-.36l1.686-.244a.211.211 0 0 0 .159-.116l.754-1.527z"/></svg>