<svg xmlns="http://www.w3.org/2000/svg" fill="none" viewBox="0 0 16 16"><path fill="#31AA70" d="M14.503 13.738l-2.291-2.24-.054-.082a.537.537 0 0 0-.758 0c-1.947 1.786-4.948 1.883-7.012.226C2.324 9.986 1.837 7.09 3.25 4.873c1.413-2.215 4.288-3.062 6.718-1.978 2.43 1.083 3.66 3.76 2.876 6.257a.52.52 0 0 0 .122.514.548.548 0 0 0 .516.155.535.535 0 0 0 .395-.36c.938-2.962-.479-6.15-3.333-7.5C7.689.61 4.254 1.5 2.459 4.057c-1.794 2.556-1.41 6.011.907 8.13 2.315 2.118 5.867 2.264 8.356.343l2.03 1.984c.209.204.548.204.757 0a.522.522 0 0 0 0-.747l-.006-.03z"/></svg>