<svg xmlns="http://www.w3.org/2000/svg" fill="none" viewBox="0 0 16 16"><path fill="#fff" d="M14.504 13.738l-2.292-2.24-.054-.082a.537.537 0 0 0-.758 0c-1.947 1.786-4.948 1.883-7.012.226C2.324 9.986 1.837 7.09 3.25 4.873 4.664 2.658 7.54 1.811 9.968 2.895c2.43 1.083 3.661 3.76 2.877 6.257a.52.52 0 0 0 .12.514.548.548 0 0 0 .517.155.535.535 0 0 0 .395-.36c.938-2.962-.479-6.15-3.333-7.5C7.69.61 4.254 1.5 2.459 4.057c-1.794 2.556-1.409 6.011.907 8.13 2.316 2.118 5.867 2.264 8.357.343l2.029 1.984c.21.204.548.204.758 0a.523.523 0 0 0 0-.747l-.006-.03z"/></svg>