<svg xmlns="http://www.w3.org/2000/svg" fill="none" viewBox="0 0 523 551"><path fill="#fff" d="M339.763 2.403L2.181 92.853 124.289 548.59l337.582-90.45L339.763 2.403z"/><path fill="#BCEBFF" d="M277.563 411.648l-3.163-11.813a8.74 8.74 0 0 0-10.703-6.178l-135.038 36.182a8.74 8.74 0 0 0-6.177 10.704l3.162 11.813 151.919-40.708z"/><path stroke="#3754DB" stroke-linecap="round" stroke-linejoin="round" stroke-miterlimit="10" stroke-width="4" d="M71.34 350.956L12.564 131.584M381.112 156.652l80.778 301.496-337.591 90.451-30.013-112.006M345.454 23.598l29.899 111.595"/><path stroke="#3754DB" stroke-linecap="round" stroke-linejoin="round" stroke-miterlimit="10" stroke-width="4" d="M175.868 507.646l-24.596 6.589c-4.657 1.249-9.454-1.521-10.704-6.178l-14.923-55.702M125.653 452.356l-3.163-11.813c-1.249-4.657 1.521-9.454 6.178-10.704l135.038-36.182c4.657-1.249 9.454 1.521 10.703 6.178l18.096 67.514c1.249 4.658-1.521 9.454-6.178 10.704l-96.217 25.784M125.653 452.356l43.12-11.551M147.506 466.405l118.157-31.665M151.123 479.905l118.157-31.656M154.74 493.404l50.643-13.56"/><path fill="#FF7DAC" d="M240.019 113.525l5.128-.446.595 6.824-5.129.446.838 9.585-8.431.734-.839-9.585-18.349 1.607-.795-5.251 15.998-30.922 8.554-.751 2.43 27.759zm-18.839 1.642l10.407-.908-1.433-16.41-.69 1.53-8.284 15.788zM281.373 109.505c.253 2.848.14 5.391-.323 7.619-.463 2.228-1.25 4.133-2.359 5.705a11.864 11.864 0 0 1-4.229 3.714c-1.713.9-3.688 1.45-5.907 1.651-2.202.192-4.229-.009-6.072-.603a11.921 11.921 0 0 1-4.823-2.927c-1.372-1.354-2.491-3.093-3.356-5.207-.865-2.115-1.424-4.596-1.677-7.445l-.926-10.555c-.254-2.848-.14-5.39.34-7.627.481-2.228 1.276-4.133 2.386-5.706a12.001 12.001 0 0 1 4.229-3.713c1.703-.9 3.661-1.45 5.862-1.643 2.22-.192 4.256.009 6.099.594a11.922 11.922 0 0 1 4.823 2.927c1.372 1.354 2.491 3.093 3.347 5.208.856 2.114 1.407 4.596 1.66 7.444l.926 10.564zm-20.079 3.835c.359 2.901 1.084 5.016 2.176 6.335s2.586 1.896 4.491 1.73c1.983-.175 3.381-1.066 4.212-2.691.83-1.616 1.1-4.019.821-7.191l-1.197-13.674c-.323-2.971-1.031-5.13-2.123-6.475-1.093-1.354-2.613-1.94-4.553-1.773-1.957.174-3.364 1.057-4.194 2.656-.838 1.599-1.118 3.975-.838 7.13l1.205 13.953zM314.558 106.997l5.129-.445.594 6.824-5.129.445.839 9.585-8.432.734-.838-9.585-18.349 1.608-.795-5.251 15.998-30.922 8.554-.752 2.429 27.759zm-18.829 1.652l10.406-.909-1.433-16.409-.69 1.529-8.283 15.789z"/><path fill="#FF7DAC" d="M324.003 144.315l-108.799 9.515c-11.141.979-20.997-7.296-21.975-18.436l-4.081-46.632c-.978-11.14 7.296-20.996 18.437-21.975l108.799-9.515c11.14-.979 20.996 7.296 21.975 18.436l4.08 46.632c.979 11.14-7.296 20.996-18.436 21.975zM208.406 76.119c-6.003.524-10.45 5.836-9.926 11.83l4.08 46.632c.525 6.003 5.837 10.45 11.831 9.926l108.799-9.515c6.003-.524 10.45-5.837 9.926-11.831l-4.08-46.632c-.524-6.002-5.837-10.45-11.831-9.925l-108.799 9.515z"/><path stroke="#3754DB" stroke-linecap="round" stroke-linejoin="round" stroke-miterlimit="10" stroke-width="4" d="M300.928 12.807l20.096-5.382M206.973 123.756a52.409 52.409 0 0 1-29.105 7.794L24.22 126.989a17.477 17.477 0 0 1-16.366-12.94l-5.68-21.198 285.394-76.47M339.774 2.4l5.68 21.198a17.46 17.46 0 0 1-7.698 19.388l-98.585 60.892"/><path fill="#3754DB" d="M63.87 386.886l45.514-258.141c2.516-14.26 16.112-23.775 30.363-21.259l361.4 63.723c14.26 2.516 23.775 16.112 21.259 30.363l-45.514 258.141c-2.517 14.259-16.112 23.774-30.363 21.258l-361.4-63.714c-14.26-2.516-23.775-16.112-21.259-30.371z"/><path fill="#fff" d="M210.774 225.303c6.824-1.084 11.333-4.465 19.485-3.024 11.228 1.984 21.101 11.639 18.602 25.828-3.906 22.159-15.99 26.737-19.546 43.478-3.565 16.741-2.464 20.892-4.29 31.237-1.826 10.345-8.222 24.142-14.128 23.102-5.907-1.04.026-50.267-12.084-52.399-12.111-2.132-23.487 46.134-29.402 45.086-5.907-1.04-7.2-16.2-5.374-26.545 1.826-10.345 4.273-13.875 6.65-30.817 2.376-16.951-7.41-25.374-3.504-47.541 2.499-14.181 15.081-19.887 26.308-17.903 11.228 1.983 12.827 10.188 25.829 12.477"/><path stroke="#fff" stroke-linecap="round" stroke-linejoin="round" stroke-miterlimit="10" stroke-width="4" d="M210.774 225.303c6.824-1.084 11.333-4.465 19.485-3.024 11.228 1.984 21.101 11.639 18.602 25.828-3.906 22.159-15.99 26.737-19.546 43.478-3.565 16.741-2.464 20.892-4.29 31.237-1.826 10.345-8.222 24.142-14.128 23.102-5.907-1.04.026-50.267-12.084-52.399-12.111-2.132-23.487 46.134-29.402 45.086-5.907-1.04-7.2-16.2-5.374-26.545 1.826-10.345 4.273-13.875 6.65-30.817 2.376-16.951-7.41-25.374-3.504-47.541 2.499-14.181 15.081-19.887 26.308-17.903 11.228 1.983 12.827 10.188 25.829 12.477"/><path fill="#fff" d="M391.841 255.727c5.845-.734 10.607-3.085 19.17-1.573 11.673 2.062 16.295 13.84 14.006 26.841-2.289 13.002-16.461 29.883-19.764 42.98-4.325 17.169-14.277 52.478-21.966 51.123-7.095-1.249 5.443-51.595-3.128-53.106-8.572-1.512-14.015 50.083-21.101 48.834-7.681-1.355-4.955-37.939-3.155-55.553 1.372-13.43-6.168-34.147-3.87-47.148 2.298-13.001 10.668-22.49 22.341-20.437 11.822 2.088 14.321 8.615 24.518 10.415"/><path stroke="#fff" stroke-linecap="round" stroke-linejoin="round" stroke-miterlimit="10" stroke-width="4" d="M391.841 255.727c5.845-.734 10.607-3.085 19.17-1.573 11.673 2.062 16.295 13.84 14.006 26.841-2.289 13.002-16.461 29.883-19.764 42.98-4.325 17.169-14.277 52.478-21.966 51.123-7.095-1.249 5.443-51.595-3.128-53.106-8.572-1.512-14.015 50.083-21.101 48.834-7.681-1.355-4.955-37.939-3.155-55.553 1.372-13.43-6.168-34.147-3.87-47.148 2.298-13.001 10.668-22.49 22.341-20.437 11.822 2.088 14.321 8.615 24.518 10.415M277.895 338.602c-1.188 9.567-2.586 18.515-7.313 17.685-7.313-1.294-9.017-28.703-6.003-54.077 2.517-21.171-5.749-27.593-11.446-28.598-10.127-1.782-17.055 2.622-17.055 2.622M348.154 295.116c-1.966-1.127-4.395-2.079-7.357-2.578-7.13-1.188-15.396 3.487-19.931 19.607-6.92 24.588-16.819 50.049-24.133 48.756-7.313-1.293.883-21.862 2.071-33.762 1.189-11.9-.856-19.729-5.959-20.629-5.102-.9-9.698 5.758-12.652 17.344a60.896 60.896 0 0 0-.41 1.756"/><path stroke="#fff" stroke-linecap="round" stroke-linejoin="round" stroke-width="4" d="M263.225 280.655a380.055 380.055 0 0 0-.707-4.316"/><path stroke="#fff" stroke-dasharray="9.2 9.2" stroke-linecap="round" stroke-linejoin="round" stroke-width="4" d="M261.268 268.405c-.891-6.299-1.363-12.276-.463-17.352 2.499-14.181 12.346-21.206 23.941-19.162 7.479 1.32 13.595 8.528 20.48 12.941"/><path stroke="#fff" stroke-linecap="round" stroke-linejoin="round" stroke-width="4" d="M308.748 246.763c1.345.603 2.726 1.057 4.159 1.31M299.617 240.681c1.389 0 2.848-.105 4.36-.253"/><path stroke="#fff" stroke-dasharray="10.91 10.91" stroke-linecap="round" stroke-linejoin="round" stroke-width="4" d="M313.431 239.23c4.246-.498 8.554-.777 12.538-.078 11.595 2.044 18.445 12.014 15.946 26.195-1.215 6.902-5.374 14.487-9.734 22.237"/><path stroke="#fff" stroke-linecap="round" stroke-linejoin="round" stroke-width="4" d="M329.848 291.743c-.707 1.276-1.415 2.551-2.097 3.827"/><path stroke="#fff" stroke-linecap="round" stroke-linejoin="round" stroke-miterlimit="10" stroke-width="4" d="M318.673 396.331l104.055 18.349M130.17 363.094l177.538 31.297M422.729 414.679l2.586-14.626M227.689 380.289l2.578-14.636M325.209 397.484l2.578-14.635M162.674 368.825l1.372-7.75M195.186 374.557l1.363-7.75M292.705 391.752l1.363-7.75M357.721 403.216l1.363-7.75M390.225 408.948l1.363-7.751M260.193 386.021l1.372-7.75M130.17 363.093l2.578-14.635M89.68 391.437l3.793-21.511M89.68 391.438l21.512 3.792M135.203 133.297l21.512 3.792M134.12 139.422l-2.718 15.387M451.081 455.169l3.792-21.521M451.081 455.169l-21.512-3.801M496.595 197.02l-21.512-3.792M496.595 197.02l-3.792 21.511M153.631 159.614l77.44 13.657M151.202 173.385l51.63 9.104"/></svg>