<svg width="64" height="64" viewBox="0 0 64 64" fill="none" xmlns="http://www.w3.org/2000/svg">
<path fill-rule="evenodd" clip-rule="evenodd" d="M32 60C47.464 60 60 47.464 60 32C60 16.536 47.464 4 32 4C16.536 4 4 16.536 4 32C4 47.464 16.536 60 32 60ZM32 64C49.6731 64 64 49.6731 64 32C64 14.3269 49.6731 0 32 0C14.3269 0 0 14.3269 0 32C0 49.6731 14.3269 64 32 64Z" fill="#4C6FFF"/>
<path fill-rule="evenodd" clip-rule="evenodd" d="M43.8785 19.8787C45.0501 18.7071 46.9496 18.7071 48.1212 19.8787C49.2784 21.0359 49.2926 22.9033 48.1637 24.0779L32.1949 44.0389C32.1719 44.0677 32.1473 44.0952 32.1212 44.1213C30.9496 45.2929 29.0501 45.2929 27.8785 44.1213L17.2927 33.5355C16.1212 32.364 16.1212 30.4645 17.2927 29.2929C18.4643 28.1213 20.3638 28.1213 21.5354 29.2929L29.9095 37.667L43.799 19.9684C43.8237 19.9369 43.8502 19.907 43.8785 19.8787Z" fill="#4C6FFF"/>
</svg>
