<svg xmlns="http://www.w3.org/2000/svg" fill="none" viewBox="0 0 120 120"><path fill="#98CCFF" d="M99.287 66.243a53.92 53.92 0 0 0-.38-7.5c-.104-.872-.267-1.808-1.008-2.45-.603-.52-1.489-.759-2.346-.934-3.456-.707-7.064-.726-10.628-.74l-56.466-.24c-1.688-.007-3.459.002-4.939.65-3.134 1.377-3.522 4.802-3.52 7.669l.009 29.154c.002 2.272.18 4.863 2.377 6.297 1.674 1.096 4.02 1.156 6.18 1.166l16.62.08c4.981.022 33.67-.192 43.4-.551 3.418-.127 6.976.49 9.442-1.415 2.106-1.625 2.062-4.29 1.908-6.633-.505-7.607-.922-15.45-.637-23.065l-.012-1.488z"/><path fill="#3754DB" d="M84.432 34.262a4.24 4.24 0 0 0-.236-1.63c-.065-.19-.165-.393-.628-.533-.373-.112-.926-.165-1.459-.202-2.15-.154-4.391-.158-6.61-.161l-35.116-.053c-1.049-.002-2.15 0-3.07.142-1.95.298-2.192 1.043-2.19 1.668l.006 6.337c.001.495.112 1.058 1.477 1.37 1.044.238 2.502.25 3.844.252l10.336.018c3.098.005 20.94-.042 26.991-.12 2.127-.028 4.338.107 5.873-.308 1.31-.353 1.282-.933 1.186-1.441-.314-1.655-.574-3.36-.397-5.016l-.007-.323z"/><path fill="#fff" d="M82.005 41.294c-1.288.093-2.777.037-4.228.056-6.052.077-23.893.125-26.99.12l-10.338-.018c-.834 0-1.713-.007-2.509-.067-.236 1.948-.249 3.933-.26 5.9l-.24 45.32c-.008 1.356.002 2.777.653 3.964 1.38 2.516 4.81 2.828 7.686 2.827 9.739-.002 19.48-.006 29.219-.007 2.277-.002 4.876-.146 6.311-1.908 1.098-1.345 1.16-3.228 1.17-4.962l.077-13.34c.025-3.997-.191-27.024-.55-34.833-.046-1.02.008-2.052 0-3.052z"/><path fill="#98CCFF" d="M69.582 99.396l.095-17.878c.003-.58 0-1.19-.28-1.7-.592-1.08-2.064-1.213-3.297-1.212-4.18 0-8.357.002-12.537.004-.976 0-2.092.061-2.707.817-.471.576-.498 1.385-.501 2.128l-.035 5.724c-.007 1.356.049 7.814.149 12.117h19.113z"/><path fill="#3754DB" d="M95.692 87.281l.052-17.878c.002-.58 0-1.19-.156-1.7-.331-1.078-1.157-1.212-1.848-1.212l-7.025.004c-.547 0-1.173.061-1.518.819-.263.577-.279 1.383-.28 2.126-.008 1.91-.013 3.817-.02 5.725-.004 1.357.028 7.815.084 12.116h10.71zM35.069 87.281c.017-5.96.036-11.918.054-17.878.002-.58-.002-1.19-.158-1.7-.331-1.078-1.157-1.212-1.848-1.212l-7.025.004c-.547 0-1.171.061-1.518.819-.263.577-.277 1.383-.28 2.126l-.018 5.725c-.006 1.357.026 7.815.082 12.116h10.71zM70.249 66.795c-.472-.006-.944.007-1.413.035-.163.01-.34.024-.461.094a.419.419 0 0 0-.176.221c-.133.326-.136.666-.14 1.003-.014 1.773-.03 3.545-.046 5.32 0 .157.002.324.123.464.26.296.905.331 1.445.331h5.49c.427 0 .914-.017 1.184-.224.207-.158.218-.379.22-.582l.015-1.566c.004-.47-.037-3.171-.103-4.088-.025-.323.09-.658-.267-.891-.306-.198-.808-.193-1.25-.179-1.432.048-2.908.086-4.343.06l-.278.002zM57.996 66.795c-.472-.006-.943.007-1.413.035-.163.01-.34.024-.461.094a.419.419 0 0 0-.176.221c-.133.326-.136.666-.14 1.003l-.044 5.32c-.002.157 0 .324.123.464.258.296.903.331 1.443.331h5.49c.427 0 .914-.017 1.184-.224.207-.158.218-.379.22-.582l.015-1.566c.004-.47-.036-3.171-.103-4.088-.025-.323.093-.658-.267-.891-.306-.198-.808-.193-1.248-.179-1.432.048-2.91.086-4.343.06l-.28.002zM45.743 66.795c-.472-.006-.944.007-1.413.035-.163.01-.34.024-.462.094a.419.419 0 0 0-.175.221c-.133.326-.137.666-.14 1.003l-.044 5.32c-.002.157 0 .324.123.464.258.296.903.331 1.443.331h5.489c.428 0 .915-.017 1.185-.224.207-.158.218-.379.22-.582l.015-1.566c.004-.47-.037-3.171-.103-4.088-.025-.323.09-.658-.267-.891-.307-.198-.808-.193-1.25-.179-1.432.048-2.908.086-4.343.06l-.278.002zM70.249 55.65c-.472-.005-.944.007-1.413.035-.163.01-.34.026-.461.096a.406.406 0 0 0-.176.221c-.133.325-.136.665-.14 1.001-.014 1.773-.03 3.545-.046 5.32 0 .159.002.326.123.464.26.296.905.333 1.445.333l5.49-.002c.427 0 .914-.017 1.184-.224.207-.158.218-.379.22-.582l.015-1.566c.004-.468-.037-3.171-.103-4.088-.025-.321.09-.658-.267-.889-.306-.198-.808-.195-1.25-.179-1.432.047-2.908.086-4.343.06h-.278zM57.996 55.65c-.472-.005-.943.007-1.413.035-.163.01-.34.026-.461.096a.406.406 0 0 0-.176.221c-.133.325-.136.665-.14 1.001l-.044 5.32c-.002.159 0 .326.123.464.258.296.903.333 1.443.333l5.49-.002c.427 0 .914-.017 1.184-.224.207-.158.218-.379.22-.582l.015-1.566c.004-.468-.036-3.171-.103-4.088-.025-.321.093-.658-.267-.889-.306-.198-.808-.195-1.248-.179-1.432.047-2.91.086-4.343.06h-.28zM45.743 55.65c-.472-.005-.944.007-1.413.035-.163.01-.34.026-.462.096a.406.406 0 0 0-.175.221c-.133.325-.137.665-.14 1.001l-.044 5.32c-.002.159 0 .326.123.464.258.296.903.333 1.443.333l5.489-.002c.428 0 .915-.017 1.185-.224.207-.158.218-.379.22-.582l.015-1.566c.004-.468-.037-3.171-.103-4.088-.025-.321.09-.658-.267-.889-.307-.198-.808-.195-1.25-.179-1.432.047-2.908.086-4.343.06h-.278zM70.249 44.504c-.472-.003-.944.007-1.413.037-.163.009-.34.025-.461.095a.412.412 0 0 0-.176.22c-.133.327-.136.665-.14 1.002-.014 1.772-.03 3.547-.046 5.319 0 .16.002.326.123.466.26.295.905.332 1.445.332 1.83 0 3.659 0 5.49-.002.427 0 .914-.016 1.184-.223.207-.157.218-.38.22-.582l.015-1.567c.004-.468-.037-3.172-.103-4.089-.025-.32.09-.657-.267-.889-.306-.198-.808-.194-1.25-.18-1.432.047-2.908.088-4.343.061h-.278zM57.996 44.504c-.472-.003-.943.007-1.413.037-.163.009-.34.025-.461.095a.412.412 0 0 0-.176.22c-.133.327-.136.665-.14 1.002l-.044 5.319c-.002.16 0 .326.123.466.258.295.903.332 1.443.332 1.83 0 3.659 0 5.49-.002.427 0 .914-.016 1.184-.223.207-.157.218-.38.22-.582l.015-1.567c.004-.468-.036-3.172-.103-4.089-.025-.32.093-.657-.267-.889-.306-.198-.808-.194-1.248-.18-1.432.047-2.91.088-4.343.061h-.28zM45.743 44.504c-.472-.003-.944.007-1.413.037-.163.009-.34.025-.462.095a.412.412 0 0 0-.175.22c-.133.327-.137.665-.14 1.002l-.044 5.319c-.002.16 0 .326.123.466.258.295.903.332 1.443.332 1.83 0 3.659 0 5.489-.002.428 0 .915-.016 1.185-.223.207-.157.218-.38.22-.582l.015-1.567c.004-.468-.037-3.172-.103-4.089-.025-.32.09-.657-.267-.889-.307-.198-.808-.194-1.25-.18-1.432.047-2.908.088-4.343.061h-.278z"/><path fill="#98CCFF" d="M69.48 30.284a8.643 8.643 0 0 0-.21-1.969c-.995-4.467-5.403-7.9-10.124-7.232a10.06 10.06 0 0 0-1.74.337 9.135 9.135 0 0 0-1.635.643c-.557.272-1.089.591-1.583.952-3.068 2.28-4.411 6.298-3.26 9.932.767 2.488 2.494 4.592 4.827 5.863.4.209.812.391 1.231.542 1.676.606 3.466.726 5.256.061.66-.21 1.3-.492 1.908-.834 2.437-1.371 4.384-3.71 5.117-6.382a8.701 8.701 0 0 0 .212-1.913z"/><path fill="#3754DB" d="M66.553 27.937h-3.478a.837.837 0 0 1-.838-.837v-2.85a.838.838 0 0 0-.838-.837h-3.412a.838.838 0 0 0-.838.837v2.112c-.074.45-.074 1.084-.286 1.296-1.27.845-4.446-.845-4.337 1.778-.002.377-.002.85-.002 1.229v.66c0 .463.375.837.838.837h2.949a.845.845 0 0 1 .843.836c.558 1.42-.713 4.799 1.725 4.422h2.52a.838.838 0 0 0 .838-.837v-2.656-.664c-.08-.325.131-.747.343-.957 1.694-.845 5.505.845 4.811-2.257v-.615-.661a.838.838 0 0 0-.838-.836zM39.555 76.723v17.308c0 .696 1.087.697 1.087 0V76.723c0-.698-1.087-.7-1.087 0zM42.171 84.553v10.163c0 .698 1.087.7 1.087 0V84.553c0-.698-1.087-.7-1.087 0zM68.873 40.178h12.94c.698 0 .7-1.084 0-1.084h-12.94c-.7 0-.702 1.084 0 1.084zM77.132 38.117h3.992c.7 0 .7-1.083 0-1.083h-3.992c-.7 0-.7 1.083 0 1.083z"/></svg>