<svg xmlns="http://www.w3.org/2000/svg" fill="none" viewBox="0 0 455 420"><g clip-path="url(#clip0_724_108285)"><g clip-path="url(#clip1_724_108285)"><path fill="url(#paint0_linear_724_108285)" fill-rule="evenodd" d="M193.224 374.006c-19.707 4.618-39.146 9.373-58.08 14.125-26.803 6.726-53.585 13.502-80.03 21.157-8.323 2.412-16.833 4.563-25.066 7.159-5.168 1.629-12.01 3.85-12.895 4.209-.46.197-.64.393-.698.458-.407.456-.253.79.069 1.011.13.096.46.33 1.225.222 51.258-7.11 102.147-22.303 152.848-32.634 87.927-17.907 179.421-31.675 268.39-40.402.776-.082 1.455-.55 1.469-1.051.037-.493-.602-.841-1.378-.759-89.12 8.742-180.765 22.526-268.859 40.478-47.252 9.627-94.657 23.489-142.373 31.062 1.064-.339 2.108-.675 3.06-.98 8.2-2.59 16.676-4.721 24.965-7.127 26.387-7.643 53.115-14.408 79.884-21.114 33.213-8.338 67.937-16.698 103.103-24.253a18558.9 18558.9 0 0 1 37.884-6.906c27.296-4.934 54.834-9.295 82.241-13.307 8.254-1.199 16.51-2.385 24.756-3.623 2.736-.406 9.795-1.415 10.765-1.629 1.203-.259 1.316-.927 1.317-1.035.019-.247-.086-.563-.732-.722-.071-.027-.478-.083-1.341.002-50.291 4.916-103.193 14.311-155.183 25.47-55.157 10.126-110.474 20.565-165.44 30.923-.787.152-1.354.665-1.268 1.147.088.482.797.75 1.586.611 39.8-7.504 79.802-15.047 119.781-22.492z" clip-rule="evenodd"/></g><path fill="url(#paint1_linear_724_108285)" fill-rule="evenodd" d="M424.902 195.244c-17.407-12.04-36.571-13.264-57.977-12.189-3.615.183-12.421.946-19.009 3.496-4.66 1.801-8.179 4.546-8.419 8.418-.212 3.384 1.985 6.023 5.439 7.982 7.5 4.256 20.987 5.365 25.129 5.359 18.655-.034 37.454-4.048 54.652-11.308a70.342 70.342 0 0 1 3.167 2.392c3.162 2.538 6.669 5.881 9.106 9.704 2.37 3.715 3.735 7.887 2.675 12.201-2.21 9.003-11.965 15.891-24.001 21.015a115.626 115.626 0 0 1-8.145 3.097c-1.614-1.106-3.451-2.123-5.463-3.053-15.61-7.22-41.581-9.451-49.429-9.062-3.494.174-9.928.405-14.612 2.42-3.349 1.44-5.818 3.777-6.006 7.485-.169 3.304 2 5.804 5.402 7.612 7.346 3.903 20.528 4.599 24.818 4.561 9.752-.08 28.352-2.694 45.069-8.26 3.189 2.305 5.303 4.997 5.7 8.168.555 4.41-2.647 8.455-7.549 12.074a50.565 50.565 0 0 1-4.854 3.14l-.486-.136c-13.124-3.631-29.751-3.798-37.079-3.226-3.306.256-9.263 1.137-13.497 3.464-3.019 1.663-5.164 4.058-5.152 7.377.013 3.409 2.589 5.284 6.055 6.178 4.73 1.214 11.106.608 13.472.367 6.665-.673 24.331-5.337 36.875-12.358 3.831 1.134 7.316 2.586 10.092 4.444 2.934 1.956 5.075 4.36 5.941 7.33 2.129 7.328-3.325 13.484-11.309 18.314-2.431 1.471-5.099 2.816-7.882 4.024-2.074-2.222-5.054-4.052-8.545-5.483-8.227-3.368-19.289-4.573-27.461-3.853-2.82.247-7.673.942-11.047 2.902-2.441 1.415-4.12 3.479-3.994 6.409.151 3.56 2.549 5.761 5.809 7.074 4.536 1.824 10.763 1.91 14.051 1.987 6.456.149 19.394-2.423 30.765-7.182.764.98 1.334 2.037 1.673 3.18 1.282 4.302-.78 9.664-7.891 16.305-3.445 3.214-7.217 6.061-11.451 8.134-6.101 2.992-12.44 4.568-19.093 5.718a.772.772 0 0 0-.628.893.77.77 0 0 0 .89.63c6.798-1.174 13.275-2.797 19.509-5.853 4.369-2.142 8.267-5.075 11.823-8.391 7.741-7.228 9.713-13.196 8.32-17.878-.357-1.196-.937-2.314-1.704-3.359 2.699-1.187 5.285-2.5 7.651-3.934 8.674-5.248 14.307-12.112 11.993-20.069-1.71-5.878-7.876-9.853-15.7-12.396a50.234 50.234 0 0 0 3.766-2.506c5.435-4.012 8.782-8.626 8.169-13.512-.41-3.254-2.41-6.107-5.501-8.567 2.475-.862 4.9-1.789 7.239-2.787 12.547-5.343 22.589-12.68 24.894-22.069.934-3.801.191-7.507-1.482-10.934-2.443-4.991-6.887-9.379-10.834-12.544a69.045 69.045 0 0 0-2.474-1.897 143.056 143.056 0 0 0 5.66-2.621c4.613-2.259 10.064-5.164 14.242-9.043 2.854-2.651 5.116-5.754 6.163-9.404 1.507-5.226-.16-9.676-3.241-13.344-2.98-3.551-7.3-6.361-11.232-8.425-17.21-9.036-37.492-11.54-55.814-4.014a.774.774 0 0 0-.419 1.007c.16.393.61.584 1.005.42 17.893-7.349 37.704-4.87 54.513 3.956 3.765 1.975 7.913 4.651 10.769 8.051 2.752 3.279 4.287 7.247 2.94 11.92-1.22 4.24-4.234 7.664-7.839 10.492-3.692 2.895-8.012 5.161-11.765 6.996a142.349 142.349 0 0 1-6.452 2.961zm-28.784 111.67c-1.907-1.889-4.563-3.44-7.62-4.692-8.012-3.282-18.785-4.447-26.744-3.745-2.656.235-7.235.853-10.409 2.698-1.926 1.118-3.328 2.698-3.229 5.009.126 2.911 2.178 4.63 4.847 5.705 4.36 1.752 10.35 1.802 13.512 1.876 6.231.142 18.627-2.315 29.643-6.851zm2.536-35.346c-12.763-3.306-28.475-3.442-35.507-2.895-3.149.244-8.838 1.06-12.874 3.282-2.493 1.369-4.363 3.272-4.351 6.014.009 2.673 2.178 3.986 4.896 4.685 4.542 1.168 10.665.559 12.936.33 6.314-.639 22.692-4.92 34.9-11.416zm7.01-25.545c-1.294-.804-2.724-1.555-4.252-2.262-15.382-7.115-40.977-9.306-48.708-8.922-3.368.166-9.568.358-14.082 2.299-2.782 1.193-4.918 3.062-5.075 6.144-.089 1.764.699 3.217 2.034 4.425 1.445 1.314 3.509 2.336 5.854 3.152 7.266 2.528 17.204 3.001 20.781 2.97 9.426-.077 27.212-2.552 43.448-7.806zm17.543-50.062c-16.895-11.317-35.492-12.405-56.205-11.364-3.522.18-12.11.912-18.532 3.394-2.074.803-3.919 1.783-5.269 3.004-1.251 1.134-2.068 2.469-2.166 4.07-.114 1.832.687 3.365 2.052 4.663 1.476 1.4 3.587 2.525 5.984 3.44 7.414 2.828 17.54 3.603 20.991 3.597 18.122-.034 36.385-3.866 53.145-10.804z" clip-rule="evenodd"/><path fill="#fff" fill-rule="evenodd" d="M292.297 167.2h54.494l24.309 67.811h-92.331l13.528-67.811z" clip-rule="evenodd"/><path fill="#000" fill-rule="evenodd" d="M310.94 27.945c9.217 1.688 15.093 32.758 13.487 42.105-.864 4.462-3.405 8.398-7.076 10.96a16.637 16.637 0 0 1-12.552 2.742c-4.373-.806-8.262-3.337-10.83-7.05a17.668 17.668 0 0 1-2.899-12.797c1.015-5.755 5.961-10.905 10.823-13.155 7.568-3.419 5.496-23.497 9.047-22.805zM356.388 69.79l-14.543-.605 5.115-17.223c0 .043 8.836 4.977 9.428 17.829z" clip-rule="evenodd"/><path fill="#fff" fill-rule="evenodd" d="M276.189 103.718c.254 1.125-3.255 5.625-8.117 10.299-4.524 4.371-8.582 7.14-9.977 7.27l19.193 21.031.043.043c4.946 5.323 13.021 5.713 18.094.823 5.073-4.89 5.158-13.156.211-18.478-7.694-8.309-19.447-20.988-19.447-20.988z" clip-rule="evenodd"/><path fill="#000" fill-rule="evenodd" d="M270.06 97.01c-.761-.779-4.777 1.904-9.132 6.058-4.354 4.155-7.229 8.222-6.51 9.001.718.779 4.861-1.947 9.174-6.145 4.312-4.197 7.187-8.135 6.468-8.914zM275.725 103.847h-.803l.38-1.038.761.822-.338.216z" clip-rule="evenodd"/><path fill="#000" fill-rule="evenodd" d="M269.636 97.443h-.761l.38-1.039.719.52-.338.519zM276.19 103.718c-.888-.952-5.665 2.207-10.696 7.054-5.031 4.846-8.371 9.52-7.483 10.515.888.995 5.665-2.207 10.696-7.053 5.031-4.847 8.371-9.564 7.483-10.516z" clip-rule="evenodd"/><path fill="#EFADA7" fill-rule="evenodd" d="M269.298 96.448l-8.244-12.203s-10.02-5.669-13.655-1.86c-2.833 2.985.465 15.578.465 15.578l8.075 11.078h.042c.01.065.04.125.084.173.635.692 4.101-1.645 7.737-5.15 3.636-3.505 6.045-6.88 5.496-7.616z" clip-rule="evenodd"/><path fill="#fff" fill-rule="evenodd" d="M253.487 111.247a4.922 4.922 0 0 1-3.799-.521 5.124 5.124 0 0 1-2.331-3.114 10.388 10.388 0 0 1-.127-.563c-.803-3.548-.507-16.747-2.833-25.618-.507-1.86-1.437-5.496-2.156-8.308a3.572 3.572 0 0 1-1.858-.808 3.698 3.698 0 0 1-1.143-1.702 10.334 10.334 0 0 1-1.142-.173 3.58 3.58 0 0 1-2.18 1.576 3.504 3.504 0 0 1-2.639-.408 3.7 3.7 0 0 1-1.65-2.134 3.797 3.797 0 0 1 .212-2.713 7.92 7.92 0 0 1-.718-.952 3.514 3.514 0 0 1-2.606-.468 3.66 3.66 0 0 1-1.58-2.171 3.788 3.788 0 0 1 .305-2.698 3.647 3.647 0 0 1 2.02-1.76c.036-.406.092-.81.169-1.211a3.67 3.67 0 0 1-1.526-2.213 3.741 3.741 0 0 1 .372-2.682 3.604 3.604 0 0 1 2.068-1.69 3.511 3.511 0 0 1 2.638.224c.306-.27.631-.516.972-.736a3.753 3.753 0 0 1 .478-2.657 3.605 3.605 0 0 1 2.12-1.608 3.526 3.526 0 0 1 2.623.305 3.662 3.662 0 0 1 1.712 2.056c.398.036.793.094 1.184.173a3.621 3.621 0 0 1 2.165-1.54 3.545 3.545 0 0 1 2.612.371 3.647 3.647 0 0 1 1.646 2.138 3.74 3.74 0 0 1-.251 2.71c.263.298.503.616.719.951a3.478 3.478 0 0 1 2.612.458 3.63 3.63 0 0 1 1.574 2.182 3.75 3.75 0 0 1-.312 2.714 3.61 3.61 0 0 1-2.056 1.743c-.036.392-.092.782-.169 1.169a3.677 3.677 0 0 1 1.547 2.228 3.75 3.75 0 0 1-.382 2.705 3.607 3.607 0 0 1-2.1 1.689 3.52 3.52 0 0 1-2.659-.261 7.736 7.736 0 0 1-.93.735 3.72 3.72 0 0 1-.179 2.113 3.627 3.627 0 0 1-1.3 1.652 685.24 685.24 0 0 1 2.156 8.265c2.325 8.872 9.005 20.166 10.062 23.671.075.166.132.341.169.52a5.21 5.21 0 0 1-.443 3.938 5.059 5.059 0 0 1-1.294 1.529 4.936 4.936 0 0 1-1.772.894zm-6.257-57.035c0-.043-.042-.043-.042-.087a8.864 8.864 0 0 0-2.692-2.477 8.646 8.646 0 0 0-3.439-1.158h-.084a8.381 8.381 0 0 0-3.255.26 8.923 8.923 0 0 0-5.185 3.845 9.295 9.295 0 0 0-1.326 6.41l17.164-4.716a9.878 9.878 0 0 0-1.141-2.077zm-1.987 12.722l.042-.043c.085-.086.212-.13.296-.216a.043.043 0 0 0 .03-.013.043.043 0 0 0 .012-.03 9.033 9.033 0 0 0 2.668-3.7 9.237 9.237 0 0 0 .545-4.566l-17.079 4.674a9.15 9.15 0 0 0 2.875 3.794 8.854 8.854 0 0 0 4.354 1.788h.127a8.11 8.11 0 0 0 3.213-.26 7.71 7.71 0 0 0 2.917-1.427z" clip-rule="evenodd"/><path fill="#EFADA7" fill-rule="evenodd" d="M266.298 92.596l-5.285 1.558c-5.58-.433-8.159-1.99-10.527-8.222-1.141-3.073-3.931-4.674-4.819-5.02-.085.346-1.607-.952-1.522-.65.465 2.208.634 2.77.93 4.025 2.959 1.601 5.369 5.799 5.876 7.746 0 0-1.437-.433-3.382-1.082a14.387 14.387 0 0 1 3.086 5.8l-2.578-.91a14.783 14.783 0 0 1 1.86 4.328s-1.353-.346-3.171-.866a15.463 15.463 0 0 1 3.171 6.102s-9.047-3.116-11.33-4.544c-3.298-2.034-3.129-4.847-2.283-6.404-.846-1.558-.254-3.16.549-4.241a3.675 3.675 0 0 1 .212-4.76c-1.226-5.063 2.452-7.227 7.018-6.275-1.353-2.207-.127-3.765-.127-3.765s4.566 2.986 14.796 4.457c5.243.822 9.174 8.612 7.526 12.723z" clip-rule="evenodd"/><path fill="#000" d="M249.851 105.622a.415.415 0 0 0 .423-.13.668.668 0 0 0 .169-.476 10.166 10.166 0 0 0-2.622-5.323.47.47 0 0 0-.676 0 .496.496 0 0 0 0 .693 9.014 9.014 0 0 1 2.198 4.024c-2.198-.692-8.37-2.683-9.977-3.548-2.41-1.255-3.213-3.246-3.171-4.544.043-.693.254-1.082.465-1.169a.49.49 0 0 0 .259-.27.505.505 0 0 0-.005-.379.486.486 0 0 0-.264-.264.474.474 0 0 0-.37.005c-.634.26-1.015 1.038-1.057 2.034-.042 1.6.888 3.981 3.72 5.452 1.987 1.125 10.527 3.765 10.908 3.895z"/><path fill="#000" d="M250.02 101.338a.415.415 0 0 0 .423-.13.67.67 0 0 0 .169-.476 10.08 10.08 0 0 0-2.875-5.583.473.473 0 0 0-.676 0 .495.495 0 0 0 0 .693 8.95 8.95 0 0 1 2.409 4.241c-2.198-.693-8.37-2.683-9.977-3.549-2.41-1.255-3.213-3.245-3.171-4.544.043-.692.254-1.081.465-1.168a.474.474 0 0 0 .259-.27.51.51 0 0 0-.112-.538.485.485 0 0 0-.343-.14.472.472 0 0 0-.184.04c-.634.259-1.015 1.038-1.057 2.033-.042 1.601.888 3.981 3.72 5.453 2.03 1.168 10.527 3.808 10.95 3.938z"/><path fill="#000" d="M250.316 97.097a.412.412 0 0 0 .423-.13.673.673 0 0 0 .169-.476 10.176 10.176 0 0 0-3.805-6.405.478.478 0 0 0-.534-.039.49.49 0 0 0-.24.49.491.491 0 0 0 .182.328 8.895 8.895 0 0 1 3.255 5.02c-2.198-.692-8.37-2.683-9.977-3.548-2.41-1.255-3.213-3.246-3.171-4.544.043-.693.254-1.082.465-1.169a.485.485 0 0 0 .258-.27.492.492 0 0 0-.004-.379.487.487 0 0 0-.45-.3.472.472 0 0 0-.184.04c-.634.26-1.015 1.04-1.057 2.035-.042 1.6.888 3.98 3.72 5.452 2.03 1.082 10.569 3.765 10.95 3.895z"/><path fill="#000" d="M250.739 92.293a.413.413 0 0 0 .423-.13.654.654 0 0 0 .169-.476c-.719-3.548-2.41-5.798-5.877-7.789a.517.517 0 0 0-.676.173.49.49 0 0 0 .169.65c2.959 1.687 4.481 3.504 5.2 6.317-2.198-.692-8.371-2.683-9.977-3.548-2.41-1.255-3.213-3.246-3.171-4.544.042-.692.254-1.082.465-1.168a.486.486 0 0 0 .258-.271.505.505 0 0 0-.004-.379.49.49 0 0 0-.265-.264.471.471 0 0 0-.369.005c-.634.26-1.015 1.038-1.057 2.034-.043 1.6.888 3.98 3.72 5.452 2.072 1.169 10.611 3.808 10.992 3.938z"/><path fill="#000" d="M258.053 93.462c.421.052.847.052 1.268 0a.48.48 0 0 0 .327-.19.498.498 0 0 0 .096-.373.522.522 0 0 0-.191-.327.502.502 0 0 0-.359-.106c-.253.044-5.792.606-7.863-6.144-.761-2.467-2.537-3.722-4.143-4.89-1.691-1.212-3.171-2.25-3.34-4.5a.502.502 0 0 0-.158-.346.48.48 0 0 0-.687.03.51.51 0 0 0-.128.359c.212 2.682 1.987 3.98 3.763 5.236 1.522 1.081 3.129 2.207 3.763 4.37 1.691 5.582 5.623 6.708 7.652 6.88z"/><path fill="#4C6FFF" fill-rule="evenodd" d="M238.056 52.005a7.47 7.47 0 0 1 4.431.155 7.64 7.64 0 0 1 3.599 2.648 7.926 7.926 0 0 1 1.556 4.248 7.96 7.96 0 0 1-1.012 4.418 7.713 7.713 0 0 1-3.24 3.097 7.481 7.481 0 0 1-4.375.733 7.56 7.56 0 0 1-4.035-1.879 7.845 7.845 0 0 1-2.335-3.856 7.953 7.953 0 0 1 .762-5.935 7.734 7.734 0 0 1 1.97-2.29 7.544 7.544 0 0 1 2.679-1.339z" clip-rule="evenodd"/><path fill="#05BAD1" fill-rule="evenodd" d="M232.646 61.569a7.986 7.986 0 0 1 .755-5.935 7.667 7.667 0 0 1 4.635-3.65 7.485 7.485 0 0 1 5.798.773 7.796 7.796 0 0 1 3.566 4.744l-14.754 4.068zM263.464 105.968c-4.227 4.111-8.286 6.794-9.047 6.058l5.538 5.885c.93.519 4.862-2.12 9.005-6.101 4.228-4.111 7.102-8.093 6.468-8.915l-5.326-5.842c.422.909-2.495 4.89-6.638 8.915z" clip-rule="evenodd"/><path fill="#fff" fill-rule="evenodd" d="M282.489 145.78c6.68 2.51 13.867-.952 16.107-7.66l17.122-51.928c2.241-6.751-1.395-14.237-8.032-16.704-6.638-2.467-13.867.952-16.107 7.66 0 .043-.043.086-.043.13l-17.037 51.668c0 .044-.042.087-.042.13-2.199 6.751 1.395 14.237 8.032 16.704z" clip-rule="evenodd"/><path fill="#4C6FFF" d="M293.228 122.628a.407.407 0 0 1-.308-.134c-7.395-8.001-16.691-18.175-16.784-18.266a.44.44 0 0 1 .001-.632.41.41 0 0 1 .483-.068.435.435 0 0 1 .133.112c.093.099 9.385 10.26 16.784 18.257a.43.43 0 0 1 .092.141.428.428 0 0 1 0 .333.436.436 0 0 1-.092.14.415.415 0 0 1-.309.117z"/><path fill="#EFADA7" fill-rule="evenodd" d="M351.526 332.896l24.605 32.672-10.823 17.872-20.419 15.06-.127-4.761 6.214-28.128-13.063-20.685 13.613-12.03z" clip-rule="evenodd"/><path fill="#000" fill-rule="evenodd" d="M349.498 403.908h-19.659s-.127-3.591 4.566-5.798a49.384 49.384 0 0 0 10.781-7.141s2.705 3.635 6.087.433c3.932-3.678 14.797-21.334 17.249-27.392 2.029-5.02 1.015-7.443 1.015-7.443a35.151 35.151 0 0 1 7.525 4.327c2.833 2.077 5.327 5.885 5.327 5.885l-26.93 34.403a7.504 7.504 0 0 1-2.675 2.063 7.324 7.324 0 0 1-3.286.663zM364.548 350.206l-18.221 8.092-1.48-2.38-.042-.13 14.754-12.247 4.989 6.665z" clip-rule="evenodd"/><path fill="#4C6FFF" fill-rule="evenodd" d="M363.49 343.585l-19.025 14.107-65.782-105.372a23.2 23.2 0 0 1-3.026-8.404 23.366 23.366 0 0 1 .363-8.949l23.675-98.924h30.523l-25.197 105.372 58.469 102.17z" clip-rule="evenodd"/><path fill="#2F2BC9" d="M354.866 350.163a.42.42 0 0 1-.368-.217l-56.439-100.395a19.106 19.106 0 0 1-2.034-13.246l13.994-67.94a.44.44 0 0 1 .186-.28.425.425 0 0 1 .598.129.446.446 0 0 1 .061.332l-13.993 67.94a18.197 18.197 0 0 0 1.94 12.632l56.439 100.395a.434.434 0 0 1 0 .434.422.422 0 0 1-.368.216h-.016z"/><path fill="#000" fill-rule="evenodd" d="M342.182 354.056l-10.865-17.396.804-43.706 4.058 2.856 17.883 31.287-11.88 26.959zM309.968 168.196h11.964l-3.213 16.314-8.751-16.314z" clip-rule="evenodd"/><path fill="#EFADA7" fill-rule="evenodd" d="M331.869 403.043l-39.402.908-2.071-3.678 20.25-19.992 8.033-31.201 15.895-14.021-3.213 44.053.508 23.931z" clip-rule="evenodd"/><path fill="#000" fill-rule="evenodd" d="M285.025 403.952s-.465-5.063 10.738-9.044c1.861 1.428 6.553 3.288 10.527 3.288 6.976 0 17.756-4.197 25.239-9.39a.495.495 0 0 0 .127-.087s.888 2.813.465 15.146c-16.572.044-47.096.087-47.096.087zM313.563 368.986l19.32-.389-1.31 9.174-18.94-5.063.93-3.722z" clip-rule="evenodd"/><path fill="#4C6FFF" fill-rule="evenodd" d="M318.931 135.956h34.075L333.77 371.712h-23.759l8.92-235.756z" clip-rule="evenodd"/><path fill="#2F2BC9" d="M324.257 372.232h-.034a.428.428 0 0 1-.389-.468l11.838-155.353a.425.425 0 0 1 .616-.351.421.421 0 0 1 .21.252.44.44 0 0 1 .019.169L324.68 371.834a.424.424 0 0 1-.423.398z"/><path fill="#fff" fill-rule="evenodd" d="M357.698 95.063l-3.213 35.874 4.439 31.72h4.82l-.338 31.806 8.371 40.504c-28.368 0-42.996-18.088-43.714-40.893l-3.509-119.74c.465-.345 8.117-8.957 8.117-8.957s17.883 3.202 23.294 4.544a13.253 13.253 0 0 1 7.074 4.63 13.79 13.79 0 0 1 2.946 8.05c.124 2.715-.617 5.398-2.112 7.646a12.294 12.294 0 0 1-6.175 4.816zM311.533 72.993l-13.74.217.127 4.846-2.832 9.131-2.368 7.616a16.86 16.86 0 0 0-.338 8.352l6.933 32.542-23.505 99.53 7.905-7.054c9.437-9.317 15.931-21.315 18.644-34.446l11.288-55.823-2.114-64.91z" clip-rule="evenodd"/><path fill="#4C6FFF" d="M299.442 136.822a.431.431 0 0 1-.423-.341l-7.06-33.235a17.424 17.424 0 0 1 .351-8.573l2.917-9.39a.43.43 0 0 1 .212-.227.414.414 0 0 1 .306-.02.425.425 0 0 1 .239.196.44.44 0 0 1 .046.31l-2.917 9.391a16.506 16.506 0 0 0-.325 8.131l7.06 33.235a.437.437 0 0 1-.174.448.424.424 0 0 1-.152.067l-.08.008z"/><path fill="#05BAD1" d="M326.372 136.432h-12.768l-2.452-60.324h15.347l-.127 60.324z"/><path fill="#fff" fill-rule="evenodd" d="M341.634 87.274l-.042.043 21.349 50.284h.043c1.509 3.215 4.199 5.688 7.483 6.881a12.005 12.005 0 0 0 9.638-.613 12.31 12.31 0 0 0 3.866-3.13 12.629 12.629 0 0 0 2.349-4.436 13.834 13.834 0 0 0-.296-8.785h.043l-20.8-48.856a13.615 13.615 0 0 0-3.116-5.093 13.21 13.21 0 0 0-4.959-3.216 12.003 12.003 0 0 0-9.639.613 12.322 12.322 0 0 0-3.866 3.13 12.655 12.655 0 0 0-2.349 4.436 13.714 13.714 0 0 0 .296 8.742z" clip-rule="evenodd"/><path fill="#000" fill-rule="evenodd" d="M349.751 160.839c.38-.995 5.327-.173 11.034 1.861 5.707 2.034 10.062 4.5 9.681 5.539-.38 1.038-5.327.173-11.034-1.861-5.707-2.034-10.062-4.544-9.681-5.539zM353.049 152.444c.465-1.212 6.172-.26 12.809 2.077 6.638 2.337 11.626 5.28 11.161 6.491-.465 1.212-6.172.26-12.809-2.077-6.638-2.337-11.626-5.279-11.161-6.491z" clip-rule="evenodd"/><path fill="#05BAD1" fill-rule="evenodd" d="M360.828 162.873c5.622 1.99 9.85 4.413 9.554 5.452l2.79-7.486c.043-1.039-4.143-3.419-9.596-5.366-5.623-1.991-10.443-2.813-10.908-1.861h-.042l-2.917 7.27c.676-.909 5.665.043 11.119 1.991z" clip-rule="evenodd"/><path fill="#EFADA7" fill-rule="evenodd" d="M360.235 163.565c-4.058-1.428-7.61-2.077-7.906-1.384-.31.749-.678 1.473-1.099 2.163 0 0-4.523.217-7.567 3.246-3.171 3.159-12.514 14.021-14.332 15.622.127 1.558 3.298 1.99 6.257-.39 8.709-6.923 5.115 1.082 5.115 1.082s-5.326 14.367-6.764 17.829c-1.945 4.674-.084 5.626 2.368 2.423.845-1.081 1.818-2.683 1.818-2.683s25.027-3.115 26.169-29.599c.761-.952 1.268-2.38 2.748-4.241l.126-.13c.212-.735-2.874-2.466-6.933-3.938z" clip-rule="evenodd"/><path fill="#000" d="M338.039 202.209a.46.46 0 0 1-.199-.048.443.443 0 0 1-.226-.425.44.44 0 0 1 .049-.163l9.089-17.699a.43.43 0 0 1 .25-.211.42.42 0 0 1 .529.287.446.446 0 0 1-.031.331l-9.089 17.699a.42.42 0 0 1-.372.229zM343.451 200.305a.429.429 0 0 1-.422-.422.452.452 0 0 1 .05-.214l7.314-13.934a.413.413 0 0 1 .557-.152.44.44 0 0 1 .187.559l-7.314 13.934a.42.42 0 0 1-.372.229zM348.778 198.401a.423.423 0 0 1-.407-.311.433.433 0 0 1 .035-.33l5.496-10.342a.41.41 0 0 1 .109-.129.408.408 0 0 1 .316-.089.428.428 0 0 1 .371.488.465.465 0 0 1-.052.163l-5.496 10.342a.419.419 0 0 1-.372.208z"/><path fill="#4C6FFF" d="M363.025 138.034h-.042a.412.412 0 0 1-.233-.071.43.43 0 0 1-.156-.189l-21.35-50.284a.446.446 0 0 1-.029-.242 14.215 14.215 0 0 1-.241-8.885.43.43 0 0 1 .205-.257.415.415 0 0 1 .323-.032.425.425 0 0 1 .251.21c.053.101.065.22.032.33a13.314 13.314 0 0 0 .284 8.504.44.44 0 0 1 .025.203l21.214 49.955c.045.041.08.091.104.147a.453.453 0 0 1 .004.344.43.43 0 0 1-.391.267z"/><path fill="#fff" fill-rule="evenodd" d="M353.005 152.53c.888-.736 6.51.476 12.936 2.769 5.961 2.121 10.316 4.501 11.077 5.712l9.132-23.584v-.043a12.874 12.874 0 0 0-.292-9.902 12.59 12.59 0 0 0-2.933-4.067 12.233 12.233 0 0 0-4.258-2.561 13.035 13.035 0 0 0-9.891.514c-3.11 1.467-5.548 4.103-6.809 7.361-5.284 14.108-8.962 23.801-8.962 23.801z" clip-rule="evenodd"/><path fill="#4C6FFF" d="M353.006 152.963a.43.43 0 0 1-.385-.258.443.443 0 0 1-.008-.33l10.273-26.96a.426.426 0 0 1 .226-.216.413.413 0 0 1 .309-.002.44.44 0 0 1 .252.529l-10.274 26.96a.422.422 0 0 1-.393.277z"/><path fill="#000" d="M300.161 109.04a.418.418 0 0 1-.299-.126.442.442 0 0 1-.124-.306V80.177a13.655 13.655 0 0 1 1.834-6.837 13.247 13.247 0 0 1 4.981-4.925.42.42 0 0 1 .325-.042c.11.031.203.105.259.206a.448.448 0 0 1-.161.597 12.385 12.385 0 0 0-4.659 4.607 12.766 12.766 0 0 0-1.716 6.394v28.431a.443.443 0 0 1-.13.312.418.418 0 0 1-.31.12zM340.704 83.076a.418.418 0 0 1-.299-.126.44.44 0 0 1-.124-.306v-2.467c0-3.328-1.292-6.52-3.591-8.874a12.117 12.117 0 0 0-8.669-3.675h-1.818a.418.418 0 0 1-.299-.127.44.44 0 0 1 0-.612.418.418 0 0 1 .299-.127h1.818c3.476 0 6.809 1.414 9.267 3.93 2.458 2.515 3.839 5.927 3.839 9.485v2.467a.44.44 0 0 1-.124.306.418.418 0 0 1-.299.126z"/><path fill="#000" d="M350.089 99.563a.418.418 0 0 1-.299-.126.44.44 0 0 1-.124-.306v-6.665a9.371 9.371 0 0 0-2.65-6.548 8.94 8.94 0 0 0-6.397-2.712c-2.399 0-4.7.975-6.397 2.712a9.371 9.371 0 0 0-2.65 6.548v6.665a.435.435 0 0 1-.124.306.418.418 0 0 1-.598 0 .438.438 0 0 1-.123-.306v-6.665a10.25 10.25 0 0 1 2.897-7.16 9.777 9.777 0 0 1 6.995-2.966 9.777 9.777 0 0 1 6.995 2.966 10.246 10.246 0 0 1 2.898 7.16v6.665a.446.446 0 0 1-.124.306.421.421 0 0 1-.299.126z"/><path fill="#4C6FFF" d="M336.307 125.701a5.522 5.522 0 0 1-3.945-1.675 5.785 5.785 0 0 1-1.635-4.037V99.303c0-.114.044-.224.123-.305a.418.418 0 0 1 .598 0c.08.08.124.19.124.306v20.685a4.905 4.905 0 0 0 1.388 3.425 4.684 4.684 0 0 0 3.347 1.421c.112 0 .22.046.299.127a.439.439 0 0 1 0 .612.419.419 0 0 1-.299.127zm8.667-.044a.418.418 0 0 1-.299-.126.436.436 0 0 1 .299-.739 4.68 4.68 0 0 0 3.346-1.421 4.914 4.914 0 0 0 1.389-3.426V99.26c0-.115.044-.225.123-.306a.42.42 0 0 1 .598 0c.08.081.124.192.124.306v20.685a5.782 5.782 0 0 1-1.636 4.038 5.518 5.518 0 0 1-3.944 1.674z"/><path fill="#000" fill-rule="evenodd" d="M300.541 103.847c.861 0 1.703.262 2.419.752a4.432 4.432 0 0 1 1.604 2 4.55 4.55 0 0 1 .248 2.575 4.487 4.487 0 0 1-1.192 2.282 4.32 4.32 0 0 1-2.23 1.22 4.26 4.26 0 0 1-2.515-.253 4.386 4.386 0 0 1-1.955-1.642 4.536 4.536 0 0 1-.733-2.476 4.53 4.53 0 0 1 .33-1.707 4.44 4.44 0 0 1 .944-1.446 4.322 4.322 0 0 1 1.413-.966 4.272 4.272 0 0 1 1.667-.339z" clip-rule="evenodd"/><path fill="#5348E9" fill-rule="evenodd" d="M300.542 106.054c.435 0 .86.132 1.222.38.361.247.643.598.809 1.009a2.296 2.296 0 0 1-.476 2.453 2.16 2.16 0 0 1-2.396.488 2.217 2.217 0 0 1-.987-.829 2.292 2.292 0 0 1-.37-1.25 2.275 2.275 0 0 1 .639-1.597 2.15 2.15 0 0 1 1.559-.654z" clip-rule="evenodd"/><path fill="#000" fill-rule="evenodd" d="M335.376 123.624h1.438c.28 0 .549.114.747.316a1.096 1.096 0 0 1 0 1.53 1.044 1.044 0 0 1-.747.317h-1.438c-.28 0-.549-.114-.747-.317a1.096 1.096 0 0 1 0-1.53c.198-.202.467-.316.747-.316zM344.255 123.624h1.437c.281 0 .55.114.748.316.198.203.309.478.309.765 0 .287-.111.562-.309.765a1.044 1.044 0 0 1-.748.317h-1.437c-.28 0-.549-.114-.747-.317a1.096 1.096 0 0 1 0-1.53c.198-.202.467-.316.747-.316zM320.369 56.376c-7.018 1.298-12.598 5.409-12.471 9.217.042 1.515 1.437 3.116 3.001 3.938 3.974-5.972 13.486-5.799 9.935.606 7.018-1.298 12.768-6.318 12.641-10.126-.127-3.809-6.088-4.934-13.106-3.635zM312.167 2.197c11.415-5.193 24.394-.865 28.959 9.65 4.566 10.516-1.014 23.282-12.429 28.474-11.414 5.193-25.535-3.029-30.101-13.544-4.566-10.516 2.114-19.387 13.571-24.58z" clip-rule="evenodd"/><path fill="#EFADA7" fill-rule="evenodd" d="M328.57 29.07c.55-.303 1.057-.605 1.522-.865h.127c.87.004 1.704.354 2.327.975a3.478 3.478 0 0 1 1.013 2.357c.014.43-.057.86-.207 1.262a3.25 3.25 0 0 1-.67 1.08 3.15 3.15 0 0 1-1.028.728 3.09 3.09 0 0 1-1.224.262 4.58 4.58 0 0 1-.803-.087l.254.953 2.367 32.541s-13.74-4.543-15.6 15.666c-2.494-14.497-5.496-12.247-5.623-16.098-.169-7.314-.38-16.315-.38-16.315s-7.399-1.817-9.724-15.535c-.93-5.452-1.353-15.881-1.353-15.881s5.708-1.601 6.13-5.02c1.861 6.188 9.174 2.9 14.628 6.015 4.608 2.64.254 6.448 8.244 7.962z" clip-rule="evenodd"/><path fill="#000" fill-rule="evenodd" d="M310.646 51.53s.042 2.51.126 5.971c13.444-.865 15.516-12.636 15.516-12.636a20.855 20.855 0 0 1-7.356 5.15c-3.044 1.212-8.286 1.515-8.286 1.515z" clip-rule="evenodd"/><path fill="#000" d="M328.527 32.402a.415.415 0 0 1-.367-.22.441.441 0 0 1 .16-.589l2.579-1.471a.416.416 0 0 1 .579.16c.056.1.071.218.042.33a.433.433 0 0 1-.198.263l-2.579 1.471a.416.416 0 0 1-.216.056zM308.984 38.781a2.205 2.205 0 0 1-1.374-.402c-.621-.494-.807-1.372-.549-2.597 1.044-5.17 1.725-8.823 1.733-8.862a.442.442 0 0 1 .181-.282.42.42 0 0 1 .322-.069.433.433 0 0 1 .276.185.451.451 0 0 1 .067.33c0 .035-.689 3.696-1.734 8.876-.186.865-.105 1.467.241 1.73.736.585 2.753-.09 3.848-.653a.413.413 0 0 1 .309-.006.435.435 0 0 1 .071.777c-.266.13-1.957.973-3.391.973zM317.451 29.33a.42.42 0 0 1-.199-.052l-2.747-1.514a.424.424 0 0 1-.227-.255.434.434 0 0 1 .291-.558.414.414 0 0 1 .333.05l2.748 1.515a.44.44 0 0 1 .06.721.417.417 0 0 1-.259.093zM305.15 29.33a.412.412 0 0 1-.207-.056l-2.664-1.515a.434.434 0 0 1-.198-.263.445.445 0 0 1 .042-.33.424.424 0 0 1 .257-.202.415.415 0 0 1 .322.043l2.663 1.514a.435.435 0 0 1 .051.719.419.419 0 0 1-.258.09h-.008zM310.319 41.447h-.105a.418.418 0 0 1-.299-.127.44.44 0 0 1 0-.612.418.418 0 0 1 .299-.127 6.923 6.923 0 0 0 4.227-1.54.418.418 0 0 1 .596.047.439.439 0 0 1-.046.61 7.804 7.804 0 0 1-4.672 1.749zM301.766 24.613a.428.428 0 0 1-.407-.318.431.431 0 0 1 .192-.487c2.016-1.212 5.145-1.298 5.276-1.298a.415.415 0 0 1 .302.117c.082.08.13.188.133.303a.436.436 0 0 1-.115.31.42.42 0 0 1-.295.135c-.029 0-3.044.1-4.87 1.195a.414.414 0 0 1-.216.043zM319.27 25.133a.417.417 0 0 1-.199-.052c-.029 0-2.883-1.545-7.271-1.42a.418.418 0 0 1-.299-.126.435.435 0 0 1-.124-.306c0-.115.044-.225.124-.306a.418.418 0 0 1 .299-.127c4.625-.134 7.572 1.454 7.694 1.523a.44.44 0 0 1 .06.721.417.417 0 0 1-.259.093h-.025z"/><path fill="#000" fill-rule="evenodd" d="M316.564 28.248c.292.011.57.132.781.34.21.207.339.487.36.785a1.12 1.12 0 0 1-.302.786 1.07 1.07 0 0 1-.754.34 1.172 1.172 0 0 1-.781-.34 1.228 1.228 0 0 1-.361-.786 1.066 1.066 0 0 1 .286-.802 1.024 1.024 0 0 1 .771-.323zM304.093 28.249c.292.01.57.131.781.339.211.207.339.487.361.786a1.09 1.09 0 0 1-.643 1.039 1.035 1.035 0 0 1-.414.086 1.176 1.176 0 0 1-.781-.34 1.228 1.228 0 0 1-.361-.785 1.054 1.054 0 0 1 .278-.81.993.993 0 0 1 .779-.316z" clip-rule="evenodd"/><path fill="#05BAD1" d="M314.916 75.806l-2.368-5.322s-3.931-2.12-4.439-3.635c-1.353-4.198 2.494-6.102 2.494-6.102l.17-.606s-3.298.692-4.947 5.15c-2.875 5.236-2.198 13.415-2.198 13.415s4.143-6.794 7.61-4.717a4.277 4.277 0 0 1 1.648 2.077h2.03v-.26zM331.402 56.982c-.042.26-.126-.043-.126.13 2.282.13 6.13 6.664-8.836 12.68-1.691.216-3.002 2.855-3.974 5.798v.52h3.044c1.648-2.77 5.369-4.069 10.907 2.422 3.128-2.769 6.215-6.967 6.849-11.078 0-.043-3.34-10.082-7.864-10.472z"/><path fill="#000" fill-rule="evenodd" d="M303.584 78.749l11.626-2.77s-1.226-4.284-2.579-5.842c-1.268-1.514-5.369 1.472-9.047 8.612zM332.417 78.49l-14.374-1.861c.127-.087.296-5.972 3.171-7.314 1.733-.822 8.582 4.328 11.203 9.174z" clip-rule="evenodd"/><path fill="#000" d="M316.649 83.725a.42.42 0 0 1-.277-.1.436.436 0 0 1-.146-.26c-.089-.531-.178-1.081-.271-1.648-.803-4.955-1.805-11.121-5.145-11.805a.574.574 0 0 1-.11-.039c-1.517-.8-3.179-2.488-3.23-4.327-.05-1.84 1.036-3.709 3.116-5.414a.428.428 0 0 1 .312-.092.415.415 0 0 1 .284.161.44.44 0 0 1-.067.606c-1.844 1.51-2.837 3.185-2.799 4.713.034 1.229 1.175 2.709 2.723 3.54 3.631.8 4.735 6.326 5.593 11.523 1.12-6.222 3.073-10.597 4.071-10.918h.051c7.06-1.298 12.408-6.279 12.294-9.689-.038-1.108-.626-1.973-1.759-2.57a.43.43 0 0 1-.209-.254.446.446 0 0 1 .027-.33.428.428 0 0 1 .248-.214.415.415 0 0 1 .323.028c1.404.744 2.169 1.89 2.215 3.314.14 4.237-6.024 9.26-12.945 10.56-.566.337-2.866 4.928-3.885 12.834a.433.433 0 0 1-.142.27.417.417 0 0 1-.281.107l.009.004z"/><path fill="#000" fill-rule="evenodd" d="M351.695 63.343a16.119 16.119 0 0 1-3.081 9.472 15.516 15.516 0 0 1-7.995 5.717c-.042 0-.084.043-.169.087-.507.173-.972.39-1.437.562a13.843 13.843 0 0 0-6.999 2.918 14.337 14.337 0 0 0-4.501 6.213c-21.687-17.44-3.466-34.749-1.902-36.523 2.156-2.424 4.228-8.265 4.397-12.81 2.198-3.937 7.313-9.952 7.313-9.952a26.21 26.21 0 0 0 1.391 11.582 25.692 25.692 0 0 0 6.262 9.752 15.64 15.64 0 0 1 4.929 5.64 16.034 16.034 0 0 1 1.792 7.342z" clip-rule="evenodd"/><path fill="#D2E6FF" fill-rule="evenodd" d="M276.486 183.861s-11.076-14.8-23.97-11.858c-8.878 5.366-3.636 11.858-3.636 11.858h27.606z" clip-rule="evenodd"/><path fill="#FFB9B2" fill-rule="evenodd" d="M241.312 158.113a26.017 26.017 0 0 1-2.579 4.673c-.38 2.424-2.113 16.401-11.879 18.046-4.904 2.51-13.317-2.207-8.625-6.665 9.343-2.206 14.248-10.515 15.008-13.371-.549-.952-.972-3.116-1.141-4.154a.495.495 0 0 1 .383-.583.476.476 0 0 1 .251.02c.973.26 1.649 1.774 1.649 1.774l2.283-3.159a1.255 1.255 0 0 1 1.226-.476c0-.043 4.27 1.818 3.424 3.895z" clip-rule="evenodd"/><path fill="#FFB9B2" fill-rule="evenodd" d="M262.956 163.349l-1.945 4.371a80.989 80.989 0 0 0-8.159-1.472c-14.247-1.731-15.008 7.617-14.332 12.68.212 1.428 5.623 11.381 12.261 8.005 5.961-3.029 4.439-11.9 4.439-11.9l6.891-.39a2.506 2.506 0 0 0 1.485-.6c.419-.359.713-.846.84-1.39l1.268-5.669a2.256 2.256 0 0 0-.111-1.351 2.191 2.191 0 0 0-.861-1.029l-1.776-1.255z" clip-rule="evenodd"/><path fill="#000" fill-rule="evenodd" d="M257.208 174.86l-1.987.13s.973 5.453-1.522 9.304c-1.184 1.948-3.297 3.159-5.157 3.159-4.482 0-8.202-6.231-8.202-12.03a12.184 12.184 0 0 1 2.832-8.049c2.156-1.125 5.285-1.644 9.639-1.125 2.706 1.688 4.27 4.847 4.397 8.611z" clip-rule="evenodd"/><path fill="#FFB9B2" fill-rule="evenodd" d="M216.03 171.398s3.213-2.943 6.299-4.544c10.02-5.15 21.434-4.284 27.945 4.63 13.613 18.694-19.109 35.009-39.824 5.15-18.222-26.267 5.622-5.193 5.58-5.236z" clip-rule="evenodd"/><path fill="#000" fill-rule="evenodd" d="M224.443 165.859a25.515 25.515 0 0 1 4.227-1.428c-2.874 12.938-17.629 12.549-17.629 12.549s11.668-1.385 13.402-11.121zm15.769 14.626a24.116 24.116 0 0 1-3.594-5.366c.043 2.769-.761 5.452-3.889 6.275-4.862 1.255-9.259-5.626-8.075-6.145l9.216-7.054a56.078 56.078 0 0 1-1.099-4.37 20.178 20.178 0 0 1 10.527 1.817c.211 2.726 1.48 19.949-3.086 14.843z" clip-rule="evenodd"/><path fill="#FFB9B2" fill-rule="evenodd" d="M211.042 177.023s11.668-1.384 13.402-11.121c.592-3.202.211-7.314-4.27-10.17-2.579-1.644-4.27-2.596-5.496-3.288a13.684 13.684 0 0 0-2.748-1.645l-.042-.043a13.67 13.67 0 0 0-6.038-1.206c-2.075.063-4.11.6-5.957 1.57a14.048 14.048 0 0 0-4.719 4.04 14.435 14.435 0 0 0-2.562 5.724 14.598 14.598 0 0 0 .091 6.296 14.423 14.423 0 0 0 2.728 5.643 13.99 13.99 0 0 0 4.834 3.894 13.682 13.682 0 0 0 6 1.388c1.184 0 4.777-1.082 4.777-1.082z" clip-rule="evenodd"/><path fill="#000" fill-rule="evenodd" d="M208.632 162.57a1.112 1.112 0 0 1 1.239-.253c.208.088.386.237.511.429a1.182 1.182 0 0 1 0 1.294c-.125.191-.303.34-.511.428a1.104 1.104 0 0 1-.657.066 1.127 1.127 0 0 1-.582-.319 1.219 1.219 0 0 1 0-1.645zM213.959 157.031a1.127 1.127 0 0 1 1.24-.254c.208.088.385.238.51.429a1.184 1.184 0 0 1 0 1.294 1.116 1.116 0 0 1-1.75.175 1.218 1.218 0 0 1-.317-.822c0-.305.113-.599.317-.822zM212.395 167.374s4.016-2.597 5.96-4.328c2.917 2.553-.845 9.304-5.96 4.328z" clip-rule="evenodd"/><path fill="#000" d="M216.073 163.998a.422.422 0 0 1-.423-.444.442.442 0 0 1 .064-.218c.38-.619.879-1.813.613-2.393-.038-.082-.157-.337-.727-.411a10.95 10.95 0 0 0-2.461.043.416.416 0 0 1-.318-.077.442.442 0 0 1 .183-.788c.889-.114 1.788-.13 2.68-.048.292.009.576.097.823.255.248.158.449.381.585.645.55 1.195-.537 3.03-.659 3.224a.426.426 0 0 1-.36.212zM210.365 155.992a.417.417 0 0 1-.415-.426c0-.114.044-.224.123-.305.089-.095 2.224-2.354 3.805-2.679a.432.432 0 0 1 .443.187.451.451 0 0 1-.118.612.432.432 0 0 1-.156.067c-1.107.225-2.811 1.83-3.382 2.427a.416.416 0 0 1-.3.117zM204.743 163.522a.334.334 0 0 1-.118 0 .423.423 0 0 1-.253-.207.443.443 0 0 1-.035-.329c.03-.1.736-2.519 3.243-4.994a.414.414 0 0 1 .531.053.44.44 0 0 1 .056.544 12.027 12.027 0 0 0-3.018 4.613.429.429 0 0 1-.406.32z"/><path fill="#FFB9B2" fill-rule="evenodd" d="M237.295 154.737c-.211 1.039-.972 5.02-1.606 6.275.126 2.466 1.141 16.487-8.075 20.122-4.312 3.462-13.486.563-9.766-4.76 8.751-4.068 11.922-13.242 12.091-16.184-.719-.823-1.564-2.857-1.945-3.809a.525.525 0 0 1 .265-.645.494.494 0 0 1 .243-.047c1.014.087 1.944 1.385 1.944 1.385l1.607-3.592c.094-.215.25-.395.446-.519.195-.123.423-.184.653-.173l1.268.043a.726.726 0 0 1 .478.187.75.75 0 0 1 .241.462l.338 2.856.55-1.514a.818.818 0 0 1 .743-.535.79.79 0 0 1 .314.059.328.328 0 0 1 .211.389z" clip-rule="evenodd"/><path fill="#FFB9B2" fill-rule="evenodd" d="M251.839 156.858l.422 4.76s-4.27 1.298-7.821 2.856c-13.232 5.712-9.385 14.194-6.341 18.262.888 1.168 13.909 7.66 14.881.13.53-4.106-.549-8.26-3.002-11.554l6.553-4.241a2.535 2.535 0 0 0 1.009-1.267 2.6 2.6 0 0 0 .048-1.633l-1.606-5.582a2.225 2.225 0 0 0-.743-1.127 2.14 2.14 0 0 0-1.244-.474l-2.156-.13z" clip-rule="evenodd"/><path fill="#fff" fill-rule="evenodd" d="M305.994 404.038h9.09L284.56 220.946h30.101v-11.511H159.549v11.511h30.566l-30.524 183.092h9.09l21.053-104.723h95.249l21.011 104.723zm-113.3-119.436l12.809-63.656h63.711l12.81 63.656h-89.33z" clip-rule="evenodd"/><path fill="#D2E6FF" fill-rule="evenodd" d="M192.06 184.12l6.045-8.525s9.597-5.452 21.561 8.741c11.964 14.194-27.606-.216-27.606-.216z" clip-rule="evenodd"/><path fill="#fff" fill-rule="evenodd" d="M184.999 183.904h97.828l-3.467 11.164h-90.894l-3.467-11.164z" clip-rule="evenodd"/><path fill="#fff" fill-rule="evenodd" d="M199.542 194.938h69.333l1.564 14.843h-72.461l1.564-14.843z" clip-rule="evenodd"/><path fill="#000" fill-rule="evenodd" d="M215.522 197.319h37.331v5.842h-37.331v-5.842z" clip-rule="evenodd"/><path fill="#fff" fill-rule="evenodd" d="M218.693 199.051h12.049v2.466h-12.049v-2.466z" clip-rule="evenodd"/><path fill="#000" fill-rule="evenodd" d="M257.716 196.496c.309 0 .612.094.869.27.257.176.458.426.576.719.118.292.149.614.089.925-.06.311-.209.596-.428.82a1.557 1.557 0 0 1-.801.438c-.303.062-.618.03-.904-.091a1.574 1.574 0 0 1-.702-.59 1.626 1.626 0 0 1-.263-.889 1.589 1.589 0 0 1 .449-1.142 1.535 1.535 0 0 1 1.115-.46zM257.716 200.954c.309 0 .611.094.869.27a1.6 1.6 0 0 1 .576.718c.118.293.149.615.089.926a1.62 1.62 0 0 1-.428.819 1.539 1.539 0 0 1-1.705.348 1.58 1.58 0 0 1-.702-.59 1.63 1.63 0 0 1 .193-2.023 1.558 1.558 0 0 1 1.108-.468zM26.8 403.778c2.692 0 5.273-1.094 7.175-3.042a10.509 10.509 0 0 0 2.972-7.343 10.405 10.405 0 0 0-1.31-5.107l2.029-2.077a6.523 6.523 0 0 0 2.072.39 6.183 6.183 0 0 0 4.395-1.844 6.475 6.475 0 0 0 1.861-4.474v-23.887h-3.678v-1.645c.003-.466.125-.924.355-1.326.23-.403.56-.736.956-.967l19.32-11.122H80.62v15.06h-3.382v23.887c.024.989.27 1.959.716 2.837a6.451 6.451 0 0 0 1.863 2.226v18.521h7.483v-18.521a6.327 6.327 0 0 0 1.908-2.232c.455-.887.7-1.872.713-2.875V356.35h-3.552v-15.059h17.418l19.321 11.121c.396.231.725.565.955.967.23.403.353.86.355 1.327v1.644h-3.678v23.887a6.505 6.505 0 0 0 1.868 4.467 6.205 6.205 0 0 0 4.389 1.851 5.516 5.516 0 0 0 2.072-.389l2.029 2.077a10.416 10.416 0 0 0-1.311 5.106c0 2.054.595 4.062 1.71 5.77a10.202 10.202 0 0 0 4.554 3.825 9.92 9.92 0 0 0 5.862.591 10.067 10.067 0 0 0 5.195-2.842 10.458 10.458 0 0 0 2.777-5.318 10.607 10.607 0 0 0-.577-6 10.34 10.34 0 0 0-3.737-4.661 9.982 9.982 0 0 0-5.637-1.75 9.757 9.757 0 0 0-5.327 1.557l-1.818-1.86a6.52 6.52 0 0 0 .507-2.424h.043V356.35h-3.509v-1.644a8.37 8.37 0 0 0-1.101-4.105 8.117 8.117 0 0 0-2.958-2.992l-19.912-11.511a2.83 2.83 0 0 0-1.311-.346h-10.02v-13.978h-8.116v-21.031h-5.75v21.031h-8.117v13.978H62.23a2.706 2.706 0 0 0-1.31.346l-19.955 11.597a8.058 8.058 0 0 0-2.968 2.986 8.3 8.3 0 0 0-1.091 4.111v1.645h-3.509v23.887h.042c.013.834.186 1.657.508 2.423l-1.818 1.861a9.867 9.867 0 0 0-5.327-1.558 9.948 9.948 0 0 0-4.08.588 10.107 10.107 0 0 0-3.514 2.199 10.399 10.399 0 0 0-2.37 3.448 10.601 10.601 0 0 0 0 8.258 10.389 10.389 0 0 0 2.37 3.448 10.11 10.11 0 0 0 3.515 2.2 9.93 9.93 0 0 0 4.079.587zM50.265 282.396h75.717v16.53H50.265v-16.53zM59.776 222.937H29.21c-3.509 0-5.538 2.899-4.608 6.491l6.088 22.503c.973 3.591 4.608 6.491 8.075 6.491H69.33c3.509 0 5.538-2.9 4.608-6.491l-6.088-22.503c-.93-3.548-4.566-6.491-8.075-6.491z" clip-rule="evenodd"/><path fill="#000" d="M35.89 290.964h16.953v-6.491H35.89a1.421 1.421 0 0 1-.865-.299 1.477 1.477 0 0 1-.516-.772 1.507 1.507 0 0 1 .04-.934c.112-.299.316-.552.58-.722l10.232-6.361a15.437 15.437 0 0 0 5.694-6.201 15.89 15.89 0 0 0 1.662-8.339l-.55-8.655-6.342.433.55 8.655a9.38 9.38 0 0 1-1.002 4.891 9.117 9.117 0 0 1-3.352 3.634l-10.231 6.361a7.838 7.838 0 0 0-2.733 2.896 8.063 8.063 0 0 0-.988 3.898 8.14 8.14 0 0 0 2.302 5.649 7.77 7.77 0 0 0 5.52 2.357z"/><path fill="#FFB9B2" fill-rule="evenodd" d="M159.844 187.928l-8.413 26.484-16.826-.866 12.387-35.181a8.608 8.608 0 0 1 5.158-3.808l-.084-.087c7.144-1.038 10.188-2.38 14.416-3.808 3.889-1.298 5.369.995 5.369.995a101.052 101.052 0 0 1-9.301 5.28c3.467 1.384 6.638 2.596 7.61 2.726 5.327-1.991 7.694-4.154 11.203-5.755 3.509-1.602 4.651.432 4.651.432s-2.495 1.904-6.088 4.284c2.325-.432 4.227-.908 6.426-1.211 3.847-.476 4.735 1.947 4.735 1.947l-31.243 8.568z" clip-rule="evenodd"/><path fill="#000" d="M150.713 181.048a.417.417 0 0 1-.354-.193.445.445 0 0 1 .003-.482c.08-.121 2.02-2.938 6.739-2.393a984.475 984.475 0 0 1 12.644 1.515.42.42 0 0 1 .285.163.44.44 0 0 1-.072.612.42.42 0 0 1-.314.09c-.072 0-7.246-.913-12.636-1.515-4.228-.484-5.919 2-5.945 2.021a.426.426 0 0 1-.153.136.423.423 0 0 1-.197.046zM172.063 185.159a.42.42 0 0 1-.338-.177.443.443 0 0 1 .088-.602l13.74-10.385a.41.41 0 0 1 .298-.05.425.425 0 0 1 .255.167.444.444 0 0 1-.054.575l-13.74 10.386a.385.385 0 0 1-.249.086z"/><path fill="#4C6FFF" fill-rule="evenodd" d="M130.083 235.79a12.417 12.417 0 0 1-9.711-.366 12.71 12.71 0 0 1-4.013-2.974 13.025 13.025 0 0 1-2.594-4.32l-18.813-51.928a13.275 13.275 0 0 1 .362-9.939 12.978 12.978 0 0 1 2.903-4.107 12.65 12.65 0 0 1 4.218-2.658 12.416 12.416 0 0 1 9.709.37 12.705 12.705 0 0 1 4.013 2.972 13.054 13.054 0 0 1 2.596 4.317c0 .044.043.087.043.13l18.686 51.669c0 .043.042.087.042.13.591 1.596.867 3.296.812 5.002a13.175 13.175 0 0 1-1.13 4.937 12.93 12.93 0 0 1-2.9 4.112 12.6 12.6 0 0 1-4.223 2.653z" clip-rule="evenodd"/><path fill="#4C6FFF" fill-rule="evenodd" d="M114.567 182a13.09 13.09 0 0 0 4.5-6.733 13.374 13.374 0 0 0-.272-8.153 12.938 12.938 0 0 0-3.744-5.447 12.512 12.512 0 0 0-5.895-2.818l-17.799-3.592.72 12.723h2.536a12.94 12.94 0 0 0 .296 8.178 13.055 13.055 0 0 0 2.605 4.335 12.734 12.734 0 0 0 4.032 2.979l-.169 43.447 11.499-1.731-.127-.13.423 2.683s1.564-13.848 3.129-26.224c.676-5.366 2.071-8.741-.761-16.877-.339-.822-.635-1.731-.973-2.64z" clip-rule="evenodd"/><path fill="#000" fill-rule="evenodd" d="M200.811 294.296s4.862 19.819-46.293 14.28c-51.154-5.539 35.428-34.749 46.293-14.28z" clip-rule="evenodd"/><path fill="#FFB9B2" fill-rule="evenodd" d="M204.7 398.672l-3.551 4.501-44.052-8.049.465-2.467.296-2.553-19.109-128.48 21.688-6.145 15.093 123.98 29.17 19.213z" clip-rule="evenodd"/><path fill="#000" fill-rule="evenodd" d="M144.837 302.128l4.185 28.041c3.002-9 10.569-19.343 17.249-27.262l-1.226-10.039-18.771 4.24s-.592 1.948-1.437 5.02z" clip-rule="evenodd"/><path fill="#4C6FFF" fill-rule="evenodd" d="M156.251 403.995s-.888-3.765-.592-7.054c.224-2.593.749-5.15 1.564-7.616a40.515 40.515 0 0 0 7.948 2.856c5.834 1.342 23.125 6.448 28.199 5.885 5.073-.562 5.876-3.159 5.876-3.159a85.892 85.892 0 0 1 12.049 3.246c5.242 1.774 7.314 5.799 7.314 5.799l-62.358.043z" clip-rule="evenodd"/><path fill="#FFB9B2" fill-rule="evenodd" d="M164.031 253.445l-32.215 145.617s-2.748-.26-5.242-6.708c-2.156-5.495-4.058-17.309-4.058-17.309s1.226-8.828 2.663-19.084c.211-1.558.676-4.76.676-4.76l7.695-71.402 30.481-26.354z" clip-rule="evenodd"/><path fill="#4C6FFF" fill-rule="evenodd" d="M125.981 402.869s1.48.996 2.833 1.082c.022.025.052.04.084.044l13.952-.044s-.127-4.543-5.877-5.409c-6.172-.952-6.933-2.596-8.751-7.443-1.945-5.15-1.86-23.195-2.199-29.21-.211-4.284.339-10.948.339-10.948a15.31 15.31 0 0 0-7.652-.779c-4.439.692-6.046 2.899-6.046 2.899l13.317 49.808z" clip-rule="evenodd"/><path fill="#000" fill-rule="evenodd" d="M129.787 314.201l-1.691 15.795c9.159-2.26 17.173-7.919 22.491-15.881l2.283-10.256c-4.566-.995-18.264 7.313-23.083 10.342z" clip-rule="evenodd"/><path fill="#4C6FFF" fill-rule="evenodd" d="M108.733 110.425a9.73 9.73 0 0 0-.082 5.133 9.57 9.57 0 0 0 2.534 4.431c6.468 6.707 5.496 13.112 5.496 13.112s-7.483 5.885-38.05 3.981a60.358 60.358 0 0 1-13.697-2.337 13.904 13.904 0 0 1-1.987-8.958 11.61 11.61 0 0 0-.254 8.266c-3.086-.996-5.03-1.861-5.03-1.861s-4.186-9.174 6.848-16.704c4.101-2.813 7.187-10.602 7.187-10.602h.085a20.044 20.044 0 0 1 6.376-7.608 19.428 19.428 0 0 1 9.167-3.526 19.288 19.288 0 0 1 9.693 1.427 19.752 19.752 0 0 1 7.824 6.029c.265-.053.534-.082.803-.087 4.862.26 7.991 4.457 7.779 9.001-1.648.13-3.213.26-4.692.303z" clip-rule="evenodd"/><path fill="#FFB9B2" fill-rule="evenodd" d="M108.437 124.445c2.368 11.684-9.554 17.05-9.554 17.05s.085 11.857.127 19.3c1.733 1.125 2.79 2.38 2.79 3.592 0 2.769-5.454 4.241-12.218 3.245-6.764-.995-12.218-4.024-12.218-6.794a1.77 1.77 0 0 1 .127-.649l1.691-34.532.212-.952a2.396 2.396 0 0 1-.804.086 3.22 3.22 0 0 1-2.302-.975 3.374 3.374 0 0 1-.953-2.357c0-.883.343-1.731.953-2.356a3.217 3.217 0 0 1 2.302-.976h.127c.507.26 1.015.52 1.564.866 7.906-1.515 3.594-5.972 8.117-8.612 10.908.087 20.631-.346 20.631-.346s-3.128 1.731-.592 14.41z" clip-rule="evenodd"/><path fill="#000" fill-rule="evenodd" d="M98.882 141.496s0 2.51.042 5.972c-13.486-.866-15.938-12.636-15.938-12.636a21.536 21.536 0 0 0 7.525 5.149c3.087 1.212 6.553 1.428 8.836 1.428-.15.052-.306.081-.465.087zM92.244 118.215c.218 0 .43.066.61.189.182.124.323.3.406.505a1.15 1.15 0 0 1-.239 1.226 1.084 1.084 0 0 1-1.69-.17 1.145 1.145 0 0 1-.186-.625 1.118 1.118 0 0 1 .312-.807 1.054 1.054 0 0 1 .788-.318zM104.717 118.214c.218 0 .43.066.611.19.181.123.322.299.405.505a1.145 1.145 0 0 1-.238 1.226 1.08 1.08 0 0 1-1.198.244 1.114 1.114 0 0 1-.494-.415 1.149 1.149 0 0 1-.185-.625 1.16 1.16 0 0 1 .328-.789c.205-.21.482-.33.771-.336z" clip-rule="evenodd"/><path fill="#000" d="M80.407 122.369a.424.424 0 0 1-.203-.052l-2.621-1.472a.428.428 0 0 1-.22-.426.44.44 0 0 1 .05-.162.426.426 0 0 1 .422-.234.419.419 0 0 1 .162.052l2.621 1.471a.44.44 0 0 1 .058.724.419.419 0 0 1-.26.09l-.01.009zM98.87 131.457a7.985 7.985 0 0 1-4.74-1.732.443.443 0 0 1-.055-.61.42.42 0 0 1 .596-.056 7.18 7.18 0 0 0 4.287 1.545c.112 0 .22.046.3.127a.438.438 0 0 1 0 .612.419.419 0 0 1-.3.127l-.089-.013zM106.914 114.579a.412.412 0 0 1-.211-.056c-1.869-1.099-4.883-1.199-4.917-1.199a.418.418 0 0 1-.299-.126.442.442 0 0 1 0-.612.415.415 0 0 1 .299-.127c.131 0 3.26.104 5.314 1.298a.432.432 0 0 1 .2.488.429.429 0 0 1-.152.233.414.414 0 0 1-.259.088l.025.013zM89.413 115.142a.43.43 0 0 1-.412-.326.431.431 0 0 1 .209-.488c.123-.065 3.031-1.657 7.657-1.523a.426.426 0 0 1 .41.446.432.432 0 0 1-.436.42c-4.38-.122-7.187 1.402-7.225 1.419a.424.424 0 0 1-.203.052zM98.514 127.959a12.426 12.426 0 0 1-1.59-.099.424.424 0 0 1-.283-.167.442.442 0 0 1 .078-.612.421.421 0 0 1 .315-.087c1.057.139 3.97.26 4.731-.887.317-.476.224-1.194-.279-2.129-3.163-4.401-2.364-7.01-2.33-7.123a.432.432 0 0 1 .212-.251.417.417 0 0 1 .568.193c.05.103.059.222.023.331 0 .043-.655 2.367 2.22 6.361a.415.415 0 0 1 .03.043c.685 1.26.769 2.29.253 3.064-.748 1.134-2.583 1.363-3.948 1.363zM91.356 119.296a.413.413 0 0 1-.26-.09.44.44 0 0 1 .058-.723l2.705-1.515a.427.427 0 0 1 .325-.042.443.443 0 0 1 .259.206.45.45 0 0 1-.035.486.445.445 0 0 1-.126.112l-2.706 1.514a.413.413 0 0 1-.22.052zM103.659 119.297a.423.423 0 0 1-.368-.221.445.445 0 0 1-.038-.328.434.434 0 0 1 .199-.261l2.621-1.514a.414.414 0 0 1 .322-.043c.109.03.201.103.257.203a.444.444 0 0 1-.156.593l-2.621 1.514a.42.42 0 0 1-.216.057z"/><path fill="#fff" fill-rule="evenodd" d="M158.28 305.979c-32.553 27.22-39.614 12.506-39.614 12.506l8.075-35.917H71.909a14.453 14.453 0 0 1-6.408-1.507 14.799 14.799 0 0 1-5.129-4.21 15.24 15.24 0 0 1-2.829-6.075 15.425 15.425 0 0 1 .034-6.729l22.956-99.357c2.24 1.342 5.454 2.424 9.047 2.943 6.384.909 11.626-.346 12.176-2.813l16.826 85.423c13.782.519 27.945 1.081 38.81 1.514a16.26 16.26 0 0 1 6.555 1.651 16.616 16.616 0 0 1 5.367 4.191c14.035 16.531 32.003 36.913 32.003 36.913-3.129-2.597-11.964-14.54-43.037 11.467z" clip-rule="evenodd"/><path fill="#4C6FFF" fill-rule="evenodd" d="M57.748 224.884s-3.551-34.749-4.904-44.399a13.239 13.239 0 0 1-2.427-5.869 13.368 13.368 0 0 1 .572-6.346 13.103 13.103 0 0 1 3.434-5.316 12.693 12.693 0 0 1 5.481-3.024c5.37-1.341 17.756-4.846 17.756-4.846l1.692 2.596a36.663 36.663 0 0 1 5.96 20.079v51.885c-12.513 1.385-27.564-4.76-27.564-4.76z" clip-rule="evenodd"/><path fill="#000" fill-rule="evenodd" d="M57.874 226.356l13.74-40.375c11.288 19.257 15.304 49.808-13.74 40.375zM142.807 213.892c1.141.693.042 4.804-2.452 9.218-2.494 4.414-5.454 7.443-6.595 6.751-1.142-.693-.042-4.804 2.452-9.218 2.494-4.414 5.453-7.443 6.595-6.751z" clip-rule="evenodd"/><path fill="#D2E6FF" fill-rule="evenodd" d="M136.212 220.644c2.368-4.198 5.158-7.14 6.426-6.794l-11.372-6.578-.042.044a9.053 9.053 0 0 0-4.017-.996 8.784 8.784 0 0 0-5.507 1.948 9.143 9.143 0 0 0-3.155 5.014 9.327 9.327 0 0 0 .547 5.938 9.033 9.033 0 0 0 4.015 4.323l10.4 6.059c-.719-1.082.38-4.89 2.705-8.958z" clip-rule="evenodd"/><path fill="#05BAD1" fill-rule="evenodd" d="M110.635 235.919l.38 17.742a13.79 13.79 0 0 0 3.638 9.351c2.335 2.527 5.526 4.043 8.918 4.237l22.111-.043-.254-23.844-34.793-7.443z" clip-rule="evenodd"/><path fill="#FFB9B2" fill-rule="evenodd" d="M164.791 249.853l24.563 31.634-15.431 12.549-24.943-32.109a7.659 7.659 0 0 1-.888-1.169l-.381-.476.043-.043a10.185 10.185 0 0 1-1.396-5.149 10.343 10.343 0 0 1 1.638-5.601 9.994 9.994 0 0 1 4.381-3.75 9.726 9.726 0 0 1 5.675-.658 9.851 9.851 0 0 1 5.09 2.652l.042.043a9.636 9.636 0 0 1 1.607 2.077z" clip-rule="evenodd"/><path fill="#D2E6FF" fill-rule="evenodd" d="M173.923 294.036l-14.12-18.175c.042-1.298 2.79-4.457 6.637-7.616 3.974-3.245 7.737-5.323 8.836-4.89l14.078 18.132-15.431 12.549z" clip-rule="evenodd"/><path fill="#05BAD1" fill-rule="evenodd" d="M185.423 276.423c-1.015-.519-4.82 1.515-8.878 4.717-4.312 3.419-7.272 6.924-6.595 7.833.042.043-.085-.043 0 0l5.623 7.4 21.857-23.368-12.007 3.418z" clip-rule="evenodd"/><path fill="#000" fill-rule="evenodd" d="M198.57 272.962c1.268 1.298-2.79 7.616-9.132 14.15-6.341 6.535-12.471 10.732-13.782 9.391-1.31-1.342 2.79-7.616 9.132-14.151 6.341-6.534 12.514-10.688 13.782-9.39zM145.302 243.189c2.537 0 4.566 5.409 4.566 12.074 0 6.664-2.029 12.073-4.566 12.073-2.536 0-4.566-5.409-4.566-12.073 0-6.665 2.03-12.074 4.566-12.074z" clip-rule="evenodd"/><path fill="#FFB9B2" fill-rule="evenodd" d="M156.294 265.259h-10.443v-.044h-.169c-2.114 0-3.847-4.543-3.847-10.126 0-5.582 1.733-10.169 3.847-10.169h10.569a9.817 9.817 0 0 1 7.031 2.963 10.286 10.286 0 0 1 2.925 7.185 10.288 10.288 0 0 1-2.895 7.197 9.822 9.822 0 0 1-7.018 2.994z" clip-rule="evenodd"/><path fill="#000" fill-rule="evenodd" d="M144.119 245.916c-1.311 1.644-2.241 5.149-2.241 9.174 0 5.582 1.733 10.126 3.847 10.126h.169v.043h5.496c3.002-16.054-5.327-18.997-7.271-19.343z" clip-rule="evenodd"/><path fill="#05BAD1" fill-rule="evenodd" d="M94.697 240.116v13.545a13.79 13.79 0 0 0 3.638 9.351c2.335 2.526 5.526 4.043 8.918 4.237l22.111-.043-.592-23.974-34.075-3.116z" clip-rule="evenodd"/><path fill="#000" fill-rule="evenodd" d="M128.814 243.189c2.536 0 4.566 5.409 4.566 12.074 0 6.664-2.03 12.073-4.566 12.073-2.537 0-4.566-5.409-4.566-12.073 0-6.665 2.029-12.074 4.566-12.074z" clip-rule="evenodd"/><path fill="#FFB9B2" fill-rule="evenodd" d="M139.933 265.259h-10.442v-.044h-.169c-2.114 0-3.847-4.543-3.847-10.126 0-5.582 1.733-10.169 3.847-10.169h10.569a9.718 9.718 0 0 1 3.803.766 9.908 9.908 0 0 1 3.228 2.197 10.18 10.18 0 0 1 2.161 3.295 10.393 10.393 0 0 1 .016 7.783 10.185 10.185 0 0 1-2.147 3.304 9.916 9.916 0 0 1-3.219 2.211 9.731 9.731 0 0 1-3.8.783z" clip-rule="evenodd"/><path fill="#FFB9B2" fill-rule="evenodd" d="M142.342 302.517l9.089 12.766-28.072-19.646 6.722-41.976a10.21 10.21 0 0 1 3.577-6.497 9.761 9.761 0 0 1 6.948-2.243 9.824 9.824 0 0 1 6.57 3.221 10.28 10.28 0 0 1 2.648 6.947 10.64 10.64 0 0 1-.465 3.116l-7.017 44.312z" clip-rule="evenodd"/><path fill="#D2E6FF" fill-rule="evenodd" d="M144.794 310.653l-21.435-15.016 2.495-15.405h.042c.888 1.211 4.524 3.029 9.005 4.457 4.65 1.471 8.751 2.034 10.062 1.428l-2.621 16.401.845 1.255 1.607 6.88z" clip-rule="evenodd"/><path fill="#000" fill-rule="evenodd" d="M151.347 315.76l-2.368-1.385-3.382-5.02s-22.575-7.443-24.605-8.352l-.549 2.077c-.592 1.774 5.538 6.448 13.782 10.516 8.371 4.111 15.811 6.058 16.657 4.327 0-.129.465-2.163.465-2.163z" clip-rule="evenodd"/><path fill="#05BAD1" fill-rule="evenodd" d="M150.164 313.293s-7.018-9.607-7.061-9.694c-.549 1.126-5.284-.389-10.738-3.202-5.158-2.683-8.666-5.539-8.666-6.837-.043.086-2.706 7.356-2.706 7.356-.592 1.775 5.496 6.448 13.74 10.516 8.37 4.111 15.811 6.058 16.657 4.327.253-.562-.212-1.428-1.226-2.466z" clip-rule="evenodd"/><path fill="#D2E6FF" fill-rule="evenodd" d="M136.171 215.451a9.271 9.271 0 0 0-2.622-6.447 8.845 8.845 0 0 0-6.299-2.684c-.54-.009-1.08.05-1.606.173h-4.735a14.472 14.472 0 0 0-2.748-.216h-6.934c-.919.006-1.838.078-2.748.216h-5.326a10.75 10.75 0 0 0-1.649-.173c-1.69 0-3.346.492-4.774 1.418a9.064 9.064 0 0 0-3.292 3.813 9.32 9.32 0 0 0-.787 5.024 9.242 9.242 0 0 0 1.962 4.675 19.292 19.292 0 0 0-.127 2.207v17.093c0 1.688 8.92 2.942 20.124 2.942 11.203 0 20.25-1.384 20.292-3.072h.127v-17.007a16.867 16.867 0 0 0-.254-2.942 9.655 9.655 0 0 0 1.396-5.02z" clip-rule="evenodd"/><path fill="#000" fill-rule="evenodd" d="M128.771 179.75c-1.353 0-5.919 1.557-5.919 1.557s-13.19 14.8-16.53 4.371c0 6.275-.253 8.568-.253 8.568s-9.174-4.457-4.904-14.669c.126-.303 0-.693.042-1.082a5.243 5.243 0 0 1-2.246-2.534 5.4 5.4 0 0 1-.259-3.411 5.297 5.297 0 0 1 1.837-2.858 5.09 5.09 0 0 1 3.162-1.107c.455.012.909.07 1.353.173-1.311-6.015 2.071-10.429 8.455-4.587 0 0-3.213 1.342-5.2 3.808 3.129-1.038 8.794-6.621 14.121-6.88 4.396-.217 6.975 2.596 7.102 6.144a6.098 6.098 0 0 1 3.944 2.231 6.38 6.38 0 0 1 1.392 4.387 6.342 6.342 0 0 1-1.913 4.176 6.06 6.06 0 0 1-4.184 1.713z" clip-rule="evenodd"/><path fill="#FFB9B2" fill-rule="evenodd" d="M122.895 201.56s-.042 1.991 0 6.404c1.564.952 2.494 2.078 2.494 3.116 0 2.337-4.608 3.592-10.315 2.77-5.707-.823-10.316-3.376-10.316-5.712 0-.996.846-1.775 2.241-2.294l-1.141-15.708.169-.822a3.698 3.698 0 0 1-.719.086 2.799 2.799 0 0 1-2.003-.849 2.935 2.935 0 0 1-.829-2.05c0-.769.298-1.507.829-2.05a2.8 2.8 0 0 1 2.003-.85h.085c.422.217.887.476 1.352.736 6.934-1.341 3.129-5.236 7.103-7.53 7.06.044 13.528-.129 16.403-.259.127 1.861 1.057 3.505 2.706 11.164 2.494 11.468-10.062 13.848-10.062 13.848z" clip-rule="evenodd"/><path fill="#000" fill-rule="evenodd" d="M117.865 183.428c.358.002.701.149.954.408a1.415 1.415 0 0 1 .007 1.961 1.339 1.339 0 0 1-.441.3 1.34 1.34 0 0 1-1.474-.308 1.405 1.405 0 0 1-.399-.976 1.366 1.366 0 0 1 .832-1.284 1.31 1.31 0 0 1 .521-.101zM126.785 183.428c.358.003.7.149.954.409.253.259.396.61.398.976a1.385 1.385 0 0 1-.391.984 1.31 1.31 0 0 1-.961.401 1.347 1.347 0 0 1-.955-.408 1.41 1.41 0 0 1-.398-.977c.009-.364.155-.711.407-.968.251-.258.59-.407.946-.417z" clip-rule="evenodd"/><path fill="#000" d="M130.081 180.572a.41.41 0 0 1-.245-.078c-1.086-.787-3.83-.934-4.781-.917a.417.417 0 0 1-.299-.127.438.438 0 0 1 0-.612.416.416 0 0 1 .299-.126c.152 0 3.745-.031 5.28 1.073a.428.428 0 0 1 .169.451.43.43 0 0 1-.423.336zM114.229 180.918a.414.414 0 0 1-.261-.09.441.441 0 0 1-.129-.516.424.424 0 0 1 .187-.207c.105-.061 2.634-1.433 6.722-1.351a.42.42 0 0 1 .299.127.438.438 0 0 1 .123.306.438.438 0 0 1-.123.306.42.42 0 0 1-.299.127c-3.848-.087-6.278 1.233-6.304 1.246a.406.406 0 0 1-.215.052zM123.149 191.087a.431.431 0 0 1-.425-.511.425.425 0 0 1 .176-.279.405.405 0 0 1 .152-.066c.566-.122 2.253-.658 2.536-1.485.043-.112.165-.432-.266-1.034a14.126 14.126 0 0 0-2.071-2.12.441.441 0 0 1-.085-.606.418.418 0 0 1 .592-.087c.822.674 1.57 1.439 2.228 2.281.223.247.377.551.447.879.069.329.052.671-.05.99-.524 1.42-2.904 1.969-3.175 2.03l-.059.008zM106.873 187.28a.418.418 0 0 1-.207-.057l-2.283-1.298a.415.415 0 0 1-.198-.263.441.441 0 0 1 .041-.33.418.418 0 0 1 .58-.16l2.282 1.298a.425.425 0 0 1 .181.209.434.434 0 0 1-.388.601h-.008z"/><path fill="#000" fill-rule="evenodd" d="M122.896 201.603c0 .346-.043 2.683 0 7.573-11.753-.779-14.839-11.814-14.839-11.814s5.115 5.237 14.839 4.241zM117.019 190.611s5.453 1.299 8.455 1.601c.296 4.544-8.329 6.838-8.455-1.601z" clip-rule="evenodd"/><path fill="#fff" fill-rule="evenodd" d="M117.231 192.429a8.274 8.274 0 0 1-.169-1.818s5.453 1.299 8.455 1.602c.007.246-.007.492-.042.735a6.807 6.807 0 0 1-3.805 1.082 6.937 6.937 0 0 1-4.439-1.601z" clip-rule="evenodd"/><path fill="#000" fill-rule="evenodd" d="M164.876 206.06a8.338 8.338 0 0 1 1.184 4.328c0 3.764-2.326 6.837-5.243 6.837h-4.354c-2.833-.087-5.116-3.116-5.116-6.837a7.963 7.963 0 0 1 1.184-4.328h-3.297a8.328 8.328 0 0 1 1.183 4.328c0 3.764-2.325 6.837-5.242 6.837h-4.354c-2.833-.087-5.116-3.116-5.116-6.837 0-3.722 2.283-6.751 5.116-6.838v-.043h4.312v.043h.042a4.271 4.271 0 0 1 2.706.996v-5.193h30.777v6.75l-13.782-.043z" clip-rule="evenodd"/><path fill="#fff" fill-rule="evenodd" d="M149.868 190.309h12.767l-5.58 7.832h-12.768l5.581-7.832z" clip-rule="evenodd"/><path fill="#000" fill-rule="evenodd" d="M172.654 217.225H168.3c-2.833-.087-5.116-3.116-5.116-6.837 0-3.722 2.283-6.751 5.116-6.838v-.043h4.312v.043h.042c2.875 0 5.243 3.073 5.243 6.838s-2.368 6.837-5.243 6.837zm-15.642 0h-4.355c-2.832-.087-5.115-3.116-5.115-6.837 0-3.722 2.283-6.751 5.115-6.838v-.043h4.313v.043h.042c2.875 0 5.242 3.073 5.242 6.838s-2.367 6.837-5.242 6.837z" clip-rule="evenodd"/><path fill="#05BAD1" fill-rule="evenodd" d="M178.108 205.93c-1.184-2.293-3.213-3.808-5.454-3.808-2.24 0-4.27 1.515-5.453 3.808h-4.693c-1.184-2.293-3.213-3.808-5.454-3.808-2.24 0-4.27 1.515-5.453 3.808l-.296.26h-14.374l-1.184-8.179h21.265l5.581-7.486h9.216v7.703h7.398v7.702h-1.099z" clip-rule="evenodd"/><path fill="#fff" fill-rule="evenodd" d="M138.96 199.656c.719 0 1.522 1.168 1.776 2.64.253 1.471-.127 2.639-.888 2.639s-1.522-1.168-1.776-2.639c-.254-1.472.169-2.64.888-2.64zM147.415 199.656c.719 0 1.522 1.168 1.776 2.64.253 1.471-.127 2.639-.888 2.639s-1.522-1.168-1.776-2.639c-.253-1.472.169-2.64.888-2.64zM157.012 207.402c1.269 0 2.283 1.341 2.283 2.986 0 1.644-1.014 2.986-2.283 2.986-1.268 0-2.283-1.342-2.283-2.986 0-1.645 1.015-2.986 2.283-2.986zM172.656 207.402c1.268 0 2.283 1.341 2.283 2.986 0 1.644-1.015 2.986-2.283 2.986s-2.283-1.342-2.283-2.986c0-1.645 1.015-2.986 2.283-2.986z" clip-rule="evenodd"/><path fill="#000" fill-rule="evenodd" d="M117.019 213.892c1.141.693.042 4.804-2.452 9.218-2.494 4.414-5.454 7.443-6.595 6.751-1.142-.693-.043-4.804 2.452-9.218 2.494-4.414 5.453-7.443 6.595-6.751z" clip-rule="evenodd"/><path fill="#FFB9B2" fill-rule="evenodd" d="M165.468 213.763l-2.875 2.12-1.565 7.746a5.73 5.73 0 0 1-1.682 3.036 5.515 5.515 0 0 1-3.095 1.465l-9.047 1.168-21.434 5.453c-.375.121-.756.222-1.142.302l-.126.044a6.751 6.751 0 0 1-.973.086 6.783 6.783 0 0 1-4.655-1.877 7.103 7.103 0 0 1-2.177-4.612 7.15 7.15 0 0 1 1.457-4.9 6.838 6.838 0 0 1 4.318-2.588l22.153-3.592c.677-1.385 2.621-5.106 5.116-7.356l2.198 4.067 11.711-4.024a1.965 1.965 0 0 1 1.401.082c.443.198.8.553 1.008 1a2.008 2.008 0 0 1-.591 2.38z" clip-rule="evenodd"/><path fill="#FFB9B2" fill-rule="evenodd" d="M130.379 228.13a7.135 7.135 0 0 1-2.001 4.975 6.81 6.81 0 0 1-4.848 2.079 6.834 6.834 0 0 1-3.213-.823v.044l-10.231-6.275a.351.351 0 0 1-.296-.087c-.888-.519-.042-3.678 1.86-7.053 1.902-3.376 4.143-5.626 5.031-5.193l.042-.043 10.527 6.447-.042.044a6.761 6.761 0 0 1 2.34 2.516 6.965 6.965 0 0 1 .831 3.369z" clip-rule="evenodd"/><path fill="#D2E6FF" fill-rule="evenodd" d="M110.423 220.644c-2.283 4.068-3.424 7.876-2.663 9.001l-10.358-6.015a9.046 9.046 0 0 1-4.042-4.317 9.334 9.334 0 0 1-.567-5.951 9.16 9.16 0 0 1 3.15-5.036 8.796 8.796 0 0 1 5.518-1.962 8.382 8.382 0 0 1 4.016.995v-.043l11.372 6.534c-1.268-.346-4.058 2.596-6.426 6.794z" clip-rule="evenodd"/><path fill="#4C6FFF" fill-rule="evenodd" d="M75.588 174.557h.084l-10.02 53.27h-.041c-.746 3.274-2.694 6.129-5.441 7.972a12.539 12.539 0 0 1-9.313 1.925c-3.23-.606-6.108-2.463-8.037-5.184a13.316 13.316 0 0 1-2.322-9.43h-.042l9.766-51.799a13.211 13.211 0 0 1 3.205-7.298 12.701 12.701 0 0 1 6.761-4.018 12.494 12.494 0 0 1 7.782.769 12.862 12.862 0 0 1 5.885 5.268 13.045 13.045 0 0 1 1.733 8.525z" clip-rule="evenodd"/><path fill="#FFB9B2" fill-rule="evenodd" d="M95.965 237.564s6.976-.086 7.525.519c2.325-.173 4.693 1.255 7.864 5.583 6.891 9.52 10.992 12.333 10.992 12.333s-2.664 3.418-8.244-1.169c6.426 13.502 11.71 12.42 11.71 12.42s-2.156 3.289-7.821 2.25c-.55 1.212-2.706 2.25-4.777 1.471-.677.909-1.607 1.125-2.748 1.125-.592 0-1.184 0-1.733-.043-1.057 1.472-3.383 1.255-4.947-.086-3.593-2.986-12.725-20.382-16.995-31.59 1.903-.346 9.174-2.813 9.174-2.813z" clip-rule="evenodd"/><path fill="#000" d="M110.619 272.71c-3.868 0-7.212-6.248-7.373-6.556a.446.446 0 0 1 .161-.597.42.42 0 0 1 .583.165c.043.078 4.165 7.789 7.974 5.751a.413.413 0 0 1 .323-.028.44.44 0 0 1 .066.798 3.622 3.622 0 0 1-1.734.467zM114.931 271.629c-3.868 0-7.213-6.249-7.373-6.556a.442.442 0 0 1 .319-.651.422.422 0 0 1 .425.218c.042.078 4.164 7.789 7.973 5.751a.43.43 0 0 1 .159-.047.435.435 0 0 1 .164.019.435.435 0 0 1 .066.799 3.63 3.63 0 0 1-1.733.467zM119.429 270.236c-3.868 0-7.212-6.249-7.373-6.557a.446.446 0 0 1 .161-.597.418.418 0 0 1 .324-.041.43.43 0 0 1 .259.206c.042.078 4.164 7.789 7.973 5.751a.416.416 0 0 1 .468.054.432.432 0 0 1 .149.295.458.458 0 0 1-.099.316.411.411 0 0 1-.129.105 3.645 3.645 0 0 1-1.733.468zM119.767 264.74a.425.425 0 0 1-.355-.199l-7.187-11.511a.442.442 0 0 1 .118-.584.415.415 0 0 1 .575.091c0 .026 1.788 2.449 3.505 3.431 2.93 1.697 5.166.173 5.259.108a.4.4 0 0 1 .153-.076.406.406 0 0 1 .33.051.439.439 0 0 1-.001.735c-.11.078-2.752 1.908-6.156-.065a7.556 7.556 0 0 1-.824-.554l4.938 7.906a.444.444 0 0 1-.127.598.413.413 0 0 1-.228.069z"/><path fill="#4C6FFF" fill-rule="evenodd" d="M72.079 233.193c-2.156 6.534-6.511 10.948-9.809 9.823a3.536 3.536 0 0 1-1.31-.822l-12.894-5.15a12.77 12.77 0 0 1-4.139-2.929 13.116 13.116 0 0 1-2.714-4.337 13.36 13.36 0 0 1 .243-10.096 13.094 13.094 0 0 1 2.918-4.195 12.738 12.738 0 0 1 4.275-2.718 12.511 12.511 0 0 1 9.859.388l.042-.043 11.076 6.102c.127.043.254.043.381.086 3.255 1.125 4.185 7.313 2.072 13.891z" clip-rule="evenodd"/><path fill="#fff" d="M70.05 219.735a.51.51 0 0 1-.135 0l-.127-.026a1.843 1.843 0 0 1-.254-.061l-.063-.03-10.92-6.028a.417.417 0 0 1-.19-.039 12.201 12.201 0 0 0-8.177-.796.416.416 0 0 1-.31-.058.434.434 0 0 1-.142-.582.425.425 0 0 1 .25-.2 13.031 13.031 0 0 1 8.569.766.409.409 0 0 1 .236.052l11.039 6.058h.097c.087.014.173.035.258.061a.426.426 0 0 1 .288.382.438.438 0 0 1-.022.167.424.424 0 0 1-.397.334z"/><path fill="#000" fill-rule="evenodd" d="M70.007 219.302c3.297 1.125 4.227 7.357 2.071 13.891s-6.51 10.948-9.808 9.823-4.228-7.357-2.072-13.891c2.157-6.534 6.511-10.948 9.809-9.823z" clip-rule="evenodd"/><path fill="#FFB9B2" fill-rule="evenodd" d="M108.732 245.353a12.203 12.203 0 0 1-1.316 9.05c-1.594 2.718-4.177 4.677-7.181 5.447-2.706.692-3.72-4.241-6.088-5.366l-3.594-2.683-27.522-10.602c-2.198-1.731-2.663-6.708-.972-11.9 1.902-5.842 5.834-9.737 8.751-8.742h.085L99.6 236.958c0 .043 7.61 2.077 9.132 8.395z" clip-rule="evenodd"/></g><defs><linearGradient id="paint0_linear_724_108285" x1="435.966" x2="442.489" y1="324.851" y2="373.532" gradientUnits="userSpaceOnUse"><stop stop-color="#05BAD1"/><stop offset=".281" stop-color="#4C6FFF"/></linearGradient><linearGradient id="paint1_linear_724_108285" x1="453" x2="276.802" y1="145" y2="252.676" gradientUnits="userSpaceOnUse"><stop stop-color="#D665FF"/><stop offset="1" stop-color="#4C6FFF"/></linearGradient><clipPath id="clip0_724_108285"><path fill="#fff" d="M0 0h455v420H0z"/></clipPath><clipPath id="clip1_724_108285"><path fill="#fff" d="M0 0h431v168H0z" transform="rotate(-10.902 1768.404 168.76)"/></clipPath></defs></svg>