<svg xmlns="http://www.w3.org/2000/svg" fill="none" viewBox="0 0 120 120"><path fill="#3754DB" d="M89.092 81.049s-.549-13.625-4.31-22.865c-3.196-7.855-5.827-9.43-6.542-9.723l.014-.144-7.829-2.675-5.856-3.626c-5.1 2.41-10.195 2.75-15.285.997l-4.601 3.346-5.388 2.12a3.234 3.234 0 0 0-1.425 1.097l-.017-.084a39.24 39.24 0 0 0-7.837 24.661l.317 11.124s4.178 8.64 7.804 9.138l-.936 5.376 9.486-.066-.002.07h16.388L81.91 100l-2.713-11.244c7.6-1.58 9.894-7.707 9.894-7.707zm-38.429-40.44c-.497-1.373-.819-3.638-.75-5.058 0 0 3.367-2.05 4.867-1.774 3.297.61 5.539 1.383 6.148 1.511.666-1.142 2.023-2.647 2.884-3.202a.214.214 0 0 1 .295.064.212.212 0 0 1-.064.294c-.74.478-2.218 2.866-2.978 4.176.162.518.778.883.516 2.17 1.016-1.255 1.196-1.662 1.204-1.68a.215.215 0 0 1 .278-.12.216.216 0 0 1 .12.278c-.035.088-.757 1.888-2.255 3.379-.352.755-.96 1.48-1.969 2.045-2.61 1.464-6.972 1.57-8.296-2.084z"/><path fill="#000" d="M84.624 78.812c-2.287-2.367-5.432-3.11-6.746-3.324.7-.575 3.54-2.747 5.976-2.268a.215.215 0 0 0 .251-.169.215.215 0 0 0-.169-.251c-2.995-.587-6.36 2.378-6.503 2.504a.213.213 0 0 0-.066.113l-.099-.01-1.389-.044a.216.216 0 0 0 .028-.13c-.008-.097-.986-9.726-.626-13.059a.213.213 0 1 0-.425-.046c-.364 3.378.586 12.751.627 13.148.003.028.01.053.022.077l-9.988-.312a.21.21 0 0 0-.22.207.215.215 0 0 0 .207.22l11.74.365c.042.003 4.29.395 7.071 3.276a.214.214 0 1 0 .309-.297zM69.08 61.402a.106.106 0 0 0-.108-.107h-2.017a.107.107 0 0 0-.108.106c0 .059.049.107.108.107h2.017c.06 0 .108-.048.108-.107zM64.107 32.15c-.064-.1-.183-.1-.295-.064-.926.301-2.394 3.08-3.06 4.222-.608-.128-2.494-.513-5.793-1.123-1.5-.277-5.045.366-5.045.366-.07 1.42.252 3.685.75 5.057 1.323 3.654 5.685 3.548 8.295 2.084 1.008-.566 1.617-1.29 1.97-2.045 1.497-1.49 2.219-3.291 2.254-3.38a.216.216 0 0 0-.12-.277.215.215 0 0 0-.278.12c-.007.018-.085.494-1.101 1.748.262-1.286-.13-1.712-.29-2.23.757-1.312 1.91-3.706 2.649-4.184a.212.212 0 0 0 .064-.294zm-8.894 35.017a.173.173 0 0 1-.232.06l-.137-.077-1.662 2.777 1.207.177 3.246-5.254a.359.359 0 0 0-.106-.485l-.416-.276a.357.357 0 0 0-.37-.013l.13.087c.077.051.1.155.05.235l-1.71 2.769zm15.2-21.528l-5.452-1.864-.323 1.896-1.897 11.136c-.556 3.26-.801 6.565-.732 9.872l.679 33.008h-10.34l.693-25.135-2.864-.39a.215.215 0 0 1 .058-.425l2.818.384.053-1.92-2.44-.417a.213.213 0 1 1 .072-.42l2.38.407.117-4.31a45.6 45.6 0 0 0-1.079-11.215l-1.743-7.82-.886-3.971-2.284.897a1.946 1.946 0 0 0-.647.208 5.33 5.33 0 0 0-.326.176l-1.41.553c-.439.075-.888.067-1.334-.018-1.397-.272-2.652-1.282-3.076-2.66-.452-1.476.037-3.152 1.092-4.252.713-.742 2.114-.983 2.35-2.1.208-.979-.855-2.074-1.034-3.028-.33-1.747 1.237-2.471 2.212-3.588.856-.984.724-2.31.864-3.52.09-.8.298-1.565.642-2.293 1.474-3.113 4.94-4.706 8.173-3.866 2.154-.965 4.59-1.275 6.837-.61 1.804.535 3.475 1.649 4.501 3.243.587.91.801 1.91 1.098 2.933.39 1.345 1.276 1.804 2.13 2.778 1.294 1.48.32 2.959.174 4.628-.155 1.767 1.955 2.907 1.542 4.7-.273 1.185-2.254 2.172-.876 3.404.53.473.96.661 1.064 1.446.112.845-.263 1.552-.805 2.153zM79.07 88.51c-4.859.468-9.52-.423-10.354-.593l-.908-3.94a.214.214 0 0 0-.417.096l.94 4.073a.21.21 0 0 0 .16.159c.043.01 3.476.767 7.668.767.955 0 1.95-.04 2.952-.135a.214.214 0 0 0 .191-.234.21.21 0 0 0-.232-.193zM67.395 61.967a.108.108 0 0 0-.107.106c0 .059.048.107.107.107h1.14a.108.108 0 0 0 .106-.107.108.108 0 0 0-.107-.106h-1.139zm.106-5.907v1.114h.927V56.06h-.927zm-29.19 22.561a.215.215 0 0 0-.008-.269c-1.546-1.81-5.342-2.545-5.502-2.576a.214.214 0 0 0-.08.42c.033.006 2.784.538 4.49 1.749-.84-.22-2.069-.383-3.19.072-.956.387-1.657 1.154-2.086 2.278a.212.212 0 0 0 .199.29.214.214 0 0 0 .2-.137c.385-1.008 1.006-1.693 1.845-2.034 1.73-.703 3.85.261 3.871.272.092.04.2.014.26-.065zm13.653 1.55l-8.567 3a.213.213 0 1 0 .143.403l8.565-3.001a.213.213 0 1 0-.141-.403zm-11.897 6.1a.213.213 0 0 0-.254.161l-1.633 7.406c-.013-.002-.025-.003-.038-.003-.156 0-.293-.065-.422-.2-.24-.25-.416-.697-.544-1.233.041.04.084.073.13.099 1.237.678 2.426-6.723 2.426-6.723l-3.263-.34s-.11 1.763-.037 3.535c0 1.32.108 4.05.98 4.957a1 1 0 0 0 .674.331l-.415 1.881a.213.213 0 0 0 .209.26.213.213 0 0 0 .209-.167l2.141-9.71a.215.215 0 0 0-.163-.254zm35.402-28.24a.214.214 0 0 0 .23-.195c.46-5.661 2.758-8.945 2.782-8.977a.216.216 0 0 0-.05-.298.215.215 0 0 0-.299.05c-.097.136-2.39 3.403-2.86 9.19-.008.118.08.221.197.23zM37.78 50.074a.215.215 0 0 0-.128.274c.018.047 1.727 4.754 2.654 11.468a.21.21 0 0 0 .21.183l.03-.001a.214.214 0 0 0 .184-.241c-.934-6.758-2.659-11.508-2.677-11.555a.213.213 0 0 0-.273-.128zm9.553 33.675l-3.369 1.331a.213.213 0 1 0 .158.397l3.368-1.332a.213.213 0 1 0-.157-.396zM41.51 66.53c.01.058.84 5.592 1.073 7.92a.214.214 0 0 1-.19.234l-.023.001a.215.215 0 0 1-.213-.192c-.23-2.316-1.06-7.842-1.068-7.898a.214.214 0 0 1 .179-.244.216.216 0 0 1 .242.18z"/><path fill="#5E7EEA" d="M69.081 61.401a.106.106 0 0 0-.107-.106h-2.018a.107.107 0 0 0-.107.106c0 .059.048.107.107.107h2.018c.06 0 .107-.048.107-.107zm-.44.672a.108.108 0 0 0-.107-.106h-1.139a.108.108 0 0 0-.107.106c0 .058.049.107.107.107h1.14a.108.108 0 0 0 .107-.107zm-1.713-1.998h2.075V58h-2.075v2.075zm4.056-3.458v9.337h-5.908l-2.601 8.321a.21.21 0 0 1-.203.149.243.243 0 0 1-.064-.01c-.015-.005-.027-.014-.04-.021a.21.21 0 0 1-.1-.246l.088-.283 2.79-8.921v-8.326H67.5v.557h.927v-.557h2.556zM45.59 54.21l2.116.758 4.195 14.808c.128-.01.258-.006.39.02l.062.008L48.2 55.145l3.658 1.308a.213.213 0 1 0 .144-.402l-6.073-2.175 2.783-8.625a.212.212 0 0 0-.137-.27.214.214 0 0 0-.269.14l-2.847 8.821a.212.212 0 0 0 .131.267zm24.296 29.316l-3.008-1.935-8.258-5.313a1.733 1.733 0 0 0-.81-.273l-7.892-.613-7.504-.582-8.974-.697c-.376-.03-.546.462-.23.67l3.956 2.62c.078.05.156.1.23.152l2.587 1.712.202-.08 2.623 1.798-.097.087.29.192.147-.047 1.259.865 1.82.098 5.737-2.009a.213.213 0 0 1 .273.13.215.215 0 0 1-.132.273l-4.76 1.668 3.257.176 2.216.207 9.536.892 5.035.47a.214.214 0 0 1 .419-.01l.01.05 1.836.172c.382.036.556-.466.232-.673zM54.81 67.13l.035.02.137.077c.081.045.184.019.232-.06l1.711-2.77a.173.173 0 0 0-.05-.235l-.13-.086-.073-.047a.173.173 0 0 0-.244.056l-1.681 2.805a.174.174 0 0 0 .063.24zm-3.87-20.796c.271-.072.589-1.123.9-2.588-1.16.272-1.912.572-2.301.752l.482 2.165c.271-.13.576-.24.918-.329zm16.92 9.293l-.136.433h.135v-.433zM64.72 45.189l.24-1.414c-.93-.151-1.81-.269-2.65-.361.639.846 1.537 1.406 2.41 1.775zm2.107-.338a.214.214 0 0 1 .113-.28.216.216 0 0 1 .28.114l3.422 8.09c.043.1.002.217-.092.27l-1.82 1.024c.024.048.03.104.014.159l-.574 1.832h-.098v-.711a.106.106 0 0 0-.096-.104l.285-.912-4.945 2.784a.212.212 0 0 1-.29-.08.212.212 0 0 1 .08-.292l7.067-3.978-3.346-7.916z"/><path fill="#FEB06A" d="M67.978 55.245c-.005 0-.008-.003-.012-.003a.107.107 0 0 0-.108.107v.711h.215v-.711a.106.106 0 0 0-.095-.104zm-15.75 25.041l.01.015a.215.215 0 0 1-.133.272l-8.565 3a.213.213 0 0 1-.143-.403l8.567-3a.202.202 0 0 1 .138.001l-.383-.439a.951.951 0 0 0-.765-.326c-2.19.092-6.249 1.315-7.953 1.857-.227.072-.41.133-.544.175l-.241.081.261-.237.234-.211 2.36-2.13a.944.944 0 0 0 .12-1.27.62.62 0 0 0-.727-.204l-4.48 1.8-1.711.687s-1.805 1.408-1.802 5.483c0 .601.038 1.26.13 1.981.089.715 1.894-.251 3.006-.92.088-.054.174-.106.253-.156a.21.21 0 0 1 .115-.07c.298-.187.49-.316.49-.316l1.325.495 1.137.427c.714.266 1.518.1 2.068-.428l2.324-2.237-3.197 1.264a.214.214 0 0 1-.278-.12.213.213 0 0 1 .12-.277l3.37-1.331c.11-.044.233.01.277.119.01.025.013.048.013.073l2.685-1.55 2.042-1.179a.474.474 0 0 0 .06-.779l-.182-.147zm13.1-3.883s-1.78-.382-3.135-.779c-.709-.207-1.3-.417-1.462-.579-.236-.235-1.235-1.859-1.965-3.068a3.334 3.334 0 0 0-2.364-1.574l-2.013-.299-1.207-.177-.014-.004-.815-.12-.061-.009a1.442 1.442 0 0 0-1.697 1.234l-.054.41a.21.21 0 0 1 .197-.074l5.798.992a.214.214 0 1 1-.035.425.153.153 0 0 1-.037-.005l-5.798-.992a.21.21 0 0 1-.173-.198l-.01-.003a1.196 1.196 0 0 0-1.394 1.033l-.002.016a1.194 1.194 0 0 0 .91 1.302l-.002-.013a.215.215 0 0 1 .24-.184l6.138.837a.214.214 0 0 1-.03.424l-.027-.001-6.139-.835a.21.21 0 0 1-.156-.113l-.159.554c-.077.269-.051.547.056.788l7.892.612c.288.022.568.117.81.274l8.258 5.313c-.364-1.461-.72-2.849-1.004-3.942l-.546-1.245zM51.66 54.023l-1.641-7.36c.272-.13.576-.24.918-.329.272-.072.59-1.123.901-2.588.077-.356.151-.736.227-1.135 1.904 1.522 4.905 1.197 6.894.081 1.008-.566 1.616-1.29 1.969-2.045.145-.146.282-.293.413-.443.046.692.128 1.308.26 1.78.154.551.401 1.023.709 1.43.639.846 1.537 1.406 2.41 1.775l-1.423 8.357c-1.506 1.158-3.53 1.975-6.249 1.975-2.082 0-3.931-.6-5.388-1.498zM65.35 35.34c-.424.784-1.103 1.305-1.77 1.434a1.533 1.533 0 0 1-.614.004c-.037.083-.076.163-.114.246-.004.009-.011.014-.014.023l-.026.062c-.254.54-.529 1.067-.824 1.572a10.92 10.92 0 0 1-.642.912c.244-1.29-.112-2.45-.28-2.966.19-.338.472-.797.731-1.226.753-1.249 1.695-2.673 2.24-3.035a.209.209 0 0 0 .09-.205c.276-.02.543.028.784.157.152.08.28.191.393.319.532.617.576 1.712.045 2.703zm-5.186-1.932a.216.216 0 0 1-.303.018c-1.047-.935-2.069-.498-2.113-.48a.215.215 0 0 1-.282-.106.213.213 0 0 1 .106-.283c.053-.023 1.312-.576 2.575.55.088.08.095.213.017.301zm-1.12 1.35a.466.466 0 1 1-.927-.098.466.466 0 0 1 .927.098zm-4.456-2.312a.214.214 0 0 1-.301.026c-1.084-.912-2.116-.423-2.127-.417a.214.214 0 1 1-.188-.384c.053-.025 1.295-.614 2.59.474.091.076.101.21.026.3zm-.774 1.75a.467.467 0 1 1-.929-.1.467.467 0 0 1 .929.1zm8.863-2.28c-1.676-.449-3.978-.808-4.423-3.534-.32-1.947-2.036-2.193-2.893-2.193-1.588 2.148-3.746 3.193-5.326 3.694-.176 1.684-.329 3.718-.11 5.737.644-.119 3.73-.629 5.063-.4l.028.005c.09-.248.193-.523.315-.833a.214.214 0 0 1 .398.158c-.097.243-.193.497-.282.75-.01-.002 4.738.939 5.321 1.052.247-.436.644-1.156 1.056-1.81.515-.824 1.093-1.669 1.575-2.176a.277.277 0 0 0 .02-.022 1.609 1.609 0 0 0-.742-.429z"/></svg>