<svg xmlns="http://www.w3.org/2000/svg" width="1230" height="693" xmlns:v="https://vecta.io/nano"><defs><clipPath id="A"><path d="M.887 0h1228.227v692H.887zm0 0"/></clipPath><clipPath id="B"><path d="M129.672 98h196.746v190.977H129.672zm0 0"/></clipPath><clipPath id="C"><path d="M143.594 128.172H324v160.805H143.594zm0 0"/></clipPath><clipPath id="D"><path d="M146 95.762h119V221H146zm0 0"/></clipPath></defs><g clip-path="url(#A)" fill="#fff"><path d="M.887 0h1228.227v699.492H.887zm0 0"/><path d="M.887 0h1228.227v692H.887zm0 0"/><path d="M.887 0h1228.227v692H.887zm0 0"/></g><path fill="#f1b37a" d="M220.246 117.5c-4.117.93-4.324 10.402 3.867 13.477l.535-10.582s-.285-3.828-4.402-2.895zm42.875 0c-4.121-.934-4.406 2.895-4.406 2.895l.535 10.582c8.195-3.074 7.988-12.547 3.871-13.477zm-17.227 5.426v10.543a2.75 2.75 0 0 1-2.742 2.754h-2.344a2.75 2.75 0 0 1-2.742-2.754v-10.543c0-1.52 1.227-2.75 2.742-2.75h2.344c1.516 0 2.742 1.23 2.742 2.75"/><g clip-path="url(#B)"><path fill="#f1b37a" d="M239.574 131.441a1.69 1.69 0 0 0 1.688 1.691h1.441a1.69 1.69 0 0 0 1.688-1.691v-6.484a1.69 1.69 0 0 0-1.687-1.691h-1.441a1.69 1.69 0 0 0-1.687 1.691zm23.797 34.313l-21.813 48.465-21.809-48.465s3.027-1.176 5.102-7.805l2.461-8.641c-4.375-5.902-5.434-15.547-5.434-27.367 0-19.969 8.934-23.898 19.953-23.898s19.953 3.93 19.953 23.898c0 12.176-1.129 22.039-5.844 27.887.605 2.281 1.402 5.16 2.328 8.121 2.074 6.629 5.102 7.805 5.102 7.805zm52.883 71.438L290.98 224.52l-1.645 64.457h37.078zm-136.16-6.695l19.824 6.367v11.969l-16.914 6.395-6.531 12.473c-1.891 4.953-6.031 9.348-14.719 9.605-20.359.609-18.797-22.762-18.797-22.762l-5.117-64.23s-3.125-5.203-4.422-8.488-3.359-10.992-3.359-10.992-1.055-3.84.313-5.238c.348-.355 1.23-.996 2.355-1.758-.109-1.348.016-2.965 1-3.969.652-.668 1.551-1.426 2.449-2.133-.078-1.684.09-3.332.867-4.125.887-.91 2.219-1.977 3.395-2.871 0-.012 0-.027-.004-.039-.453-5.527 2.324-5.879 3.359-5.484 1.027.398 3.43 15.277 3.43 15.277l2.316 7.66c.434-2.484.98-7.668.531-9.461-.777-3.09 1.949-4.875 1.949-4.875s8.93 13.469 3.66 29.258l9.859 31.754 14.555 15.668"/></g><g clip-path="url(#C)"><path fill="#3754db" d="M241.68 156.918c15.777 0 19.973-11.445 20.691-28.711l-20.391 1.285-20.984-1.293c.719 17.273 4.91 28.719 20.684 28.719zm57.402 86.047l2.73 46.012H181l2.48-41.754.094-1.574-8.926-1.465-9.109-29.355.996-4.082c5.766-23.687 14.559-28.926 19.504-31.129s33.711-13.863 33.711-13.863l21.809 28.461 21.738-28.367 33.48 13.77c4.945 2.203 13.734 7.441 19.504 31.129l7.379 29.895zm-147.859-88.52c0 2.063-1.664 3.734-3.719 3.734s-3.723-1.672-3.723-3.734 1.664-3.73 3.723-3.73 3.719 1.672 3.719 3.73"/></g><path fill="#5e7eea" d="M217.105 126.902a9.03 9.03 0 0 1 4.781-3.629l-.004-1.043c-2.297.664-4.266 2.102-5.605 4.117a10.06 10.06 0 0 0-1.469 7.637c1.625 7.902 4.91 19.527 11.301 30.023l.848-.516c-6.316-10.375-9.566-21.883-11.176-29.707a9.07 9.07 0 0 1 1.324-6.883zm70.785 85.645c0-.742-.602-1.348-1.344-1.348h-29.25c-.738 0-1.34.605-1.34 1.348v19.121c0 4.793 3.887 8.691 8.668 8.691h14.598c4.781 0 8.668-3.898 8.668-8.691zm.371 0v19.121c0 5-4.055 9.066-9.039 9.066h-14.598c-4.984 0-9.043-4.066-9.043-9.066v-19.121c0-.949.77-1.723 1.715-1.723h29.25c.945 0 1.715.773 1.715 1.723zm-139.293-59.91a2.75 2.75 0 0 0-1.828-1.062c-1.516-.203-2.918.875-3.125 2.406-.102.746.09 1.484.543 2.082a2.75 2.75 0 0 0 1.828 1.063c.121.016.246.023.367.023 1.367 0 2.566-1.023 2.758-2.43.102-.746-.09-1.484-.543-2.082zm4.02 2.613a6.32 6.32 0 0 1-7.129 5.395c-3.453-.484-5.859-3.687-5.379-7.148a6.32 6.32 0 0 1 7.129-5.395c3.453.484 5.859 3.688 5.379 7.148zm103.855 8.266l.848.52c6.398-10.508 9.688-22.141 11.316-30.051.547-2.66.027-5.371-1.473-7.637-1.367-2.062-3.391-3.512-5.754-4.152l-.004 1.027c2.02.609 3.746 1.895 4.93 3.676a9.08 9.08 0 0 1 1.324 6.887c-1.613 7.832-4.863 19.348-11.187 29.73zm-108.898-10.094a1.5 1.5 0 0 1 .293 1.125c-.109.824-.867 1.41-1.68 1.301a1.48 1.48 0 0 1-.98-.57c-.242-.32-.348-.719-.293-1.125.105-.762.75-1.312 1.488-1.312a1.69 1.69 0 0 1 .195.012 1.45 1.45 0 0 1 .977.57"/><g clip-path="url(#D)"><path fill="#15243a" d="M253.801 118.297s1.074-1.762-.922-2.836c-2.004-1.078-6.059-.648-7.352-.078s-1.391 2.699-1.391 2.699 8-1.898 9.664.215zm-6.957 2.676c0 .734.594 1.328 1.324 1.328s1.32-.594 1.32-1.328-.59-1.324-1.32-1.324-1.324.594-1.324 1.324zm15.387-.711l-.172.008c-.488-18.641-9.223-24.508-19.926-24.512l-.301.004c-.102 0-.199-.004-.301-.004-10.703.004-19.437 5.871-19.926 24.516-1.246.066-2.234 1.09-2.234 2.355s.992 2.293 2.238 2.355l.012.68s1.809-.844 1.809-6.016c0-5.18 1.355-10.293 4.328-13.277 2.57-2.578 5.531.734 14.074.734s11.504-3.312 14.07-.734c2.977 2.984 4.332 8.098 4.332 13.277 0 5.172 1.809 6.016 1.809 6.016.008-.219.008-.449.012-.676.059.008.113.012.176.012a2.37 2.37 0 0 0 2.363-2.371c0-1.309-1.059-2.367-2.363-2.367zm-23.793-4.879c-1.293-.57-5.352-1-7.352.078s-.926 2.836-.926 2.836c1.668-2.113 9.668-.215 9.668-.215s-.102-2.133-1.391-2.699zm3.469 63.586c-5.461-3.898-10.273-9.23-14.312-15.867l-2.121 1.301c4.281 7.035 9.418 12.68 15.266 16.789v4.934c0 .066-.098 6.777-3.965 13.922-5.156 9.531-14.246 15.316-27.02 17.199-14.309 2.109-25.164.438-34.172-5.27-11.398-7.223-19.402-20.781-24.477-41.445-.789-3.219-1.512-6.645-2.152-10.23-.766.289-1.598.434-2.457.398.66 3.652 1.391 7.145 2.195 10.43 5.234 21.32 13.594 35.371 25.563 42.953 6.871 4.355 14.977 6.512 24.59 6.512 3.547 0 7.301-.293 11.27-.879 16.988-2.508 25.094-11.488 28.902-18.582 4.121-7.684 4.207-14.695 4.211-15v-5.039c5.777-4.098 10.859-9.703 15.102-16.668l-2.121-1.301c-4.039 6.625-8.848 11.949-14.301 15.844zm-6.113-59.32c.73 0 1.324.594 1.324 1.324s-.594 1.328-1.324 1.328-1.32-.594-1.32-1.328.594-1.324 1.32-1.324"/></g></svg>