<svg xmlns="http://www.w3.org/2000/svg" fill="none" viewBox="0 0 500 635"><path fill="#05BAD1" stroke="#fff" stroke-dasharray="4 4" stroke-width="2" d="M57.748 114.68l1.65-3.707.914.407.825-1.854c.215-.482.453-.949.713-1.4l-.866-.499a15.96 15.96 0 0 1 1.965-2.706l.743.669a14.974 14.974 0 0 1 2.331-2.098l-.587-.809a15.97 15.97 0 0 1 2.897-1.672l.407.913a14.958 14.958 0 0 1 2.982-.97l-.208-.978c1.082-.23 2.196-.35 3.326-.349v1c.52 0 1.043.027 1.568.083l2.018.212.105-.995 4.035.424-.105.995 4.035.424.105-.995 4.035.425-.105.994 4.036.424.104-.994 4.035.424-.104.994 4.035.424.105-.994 4.035.424-.105.994 4.035.425.105-.995 4.035.424-.104.995 4.035.424.104-.995 4.035.424-.104.995 4.035.424.105-.994 4.035.424-.105.994 4.035.424.105-.994 4.035.424-.104.994 2.017.212c.526.056 1.044.138 1.552.246l.207-.978c1.106.234 2.171.583 3.182 1.033l-.407.913c.962.429 1.871.955 2.715 1.569l.588-.809a16.003 16.003 0 0 1 2.486 2.238l-.743.669a15.022 15.022 0 0 1 1.844 2.537l.866-.5c.553.958 1.011 1.98 1.359 3.055l-.951.309c.161.494.297 1.001.406 1.518l.422 1.984.978-.208.844 3.969-.978.208.843 3.968.979-.207.843 3.968-.978.208.844 3.969.978-.208.843 3.969-.978.208.844 3.968.978-.208.843 3.969-.978.208.844 3.969.978-.208.844 3.969-.979.208.844 3.968.978-.208.844 3.969-.978.208.843 3.969.978-.208.844 3.969-.978.208.843 3.968.979-.208.843 3.969-.978.208.422 1.984c.11.517.191 1.035.246 1.552l.994-.105c.119 1.124.117 2.245.001 3.345l-.995-.105a15.019 15.019 0 0 1-.652 3.067l.951.309a16.039 16.039 0 0 1-1.361 3.056l-.866-.5a14.948 14.948 0 0 1-1.843 2.538l.744.669a15.941 15.941 0 0 1-2.486 2.237l-.588-.809c-.42.306-.86.591-1.317.855l-1.757 1.015.5.866-3.514 2.029-.5-.866-3.514 2.028.5.866-3.514 2.029-.5-.866-3.514 2.029.5.866-3.513 2.028-.5-.866-3.514 2.029.5.866-3.514 2.029-.5-.866-3.514 2.028.5.866-3.514 2.029-.5-.866-3.513 2.029.5.866-3.514 2.029-.5-.866-3.514 2.028.5.866-3.514 2.029-.5-.866-3.514 2.029.5.866-3.514 2.028-.5-.866-1.756 1.015c-.458.264-.925.502-1.4.713l.407.914c-1.032.46-2.099.804-3.181 1.034l-.207-.978c-1.03.218-2.076.327-3.12.327v.999c-1.117 0-2.233-.117-3.326-.349l.208-.978c-1.02-.217-2.02-.54-2.983-.969l-.407.914a15.954 15.954 0 0 1-2.896-1.673l.588-.809c-.42-.305-.828-.635-1.22-.989l-1.508-1.357-.67.743-3.014-2.715.669-.743-3.016-2.715-.669.743-3.015-2.715.67-.743-3.016-2.715-.67.743-3.014-2.715.669-.743-3.016-2.715-.669.744-3.015-2.715.67-.744-3.016-2.714-.67.743-3.014-2.715.669-.743-3.015-2.715-.67.743-3.015-2.715.67-.743-3.016-2.715-.669.743-3.015-2.715.669-.743-3.015-2.715-.67.743-3.015-2.715.67-.743-1.508-1.357a15.146 15.146 0 0 1-1.111-1.111l-.743.669a15.914 15.914 0 0 1-1.967-2.705l.866-.5a14.995 14.995 0 0 1-1.274-2.865l-.951.309a16.045 16.045 0 0 1-.696-3.272l.995-.105a14.996 14.996 0 0 1-.001-3.136l-.995-.104c.116-1.1.346-2.197.696-3.272l.951.31c.16-.494.349-.984.564-1.467l.825-1.853-.914-.407 1.65-3.706.914.406 1.65-3.706-.913-.407 1.65-3.707.914.407 1.65-3.706-.914-.407 1.65-3.707.914.407 1.65-3.707-.913-.406 1.65-3.707.914.407 1.65-3.707-.913-.407 1.65-3.706.913.406 1.65-3.706-.913-.407 1.65-3.707.914.407 1.65-3.706-.913-.407 1.65-3.707.913.407 1.65-3.707-.913-.406z"/><path stroke="#57B7E5" stroke-miterlimit="10" stroke-width="2" d="M160.572 518.455l.286 97.731 50.927-97.731v98.04l51.218-98.04v98.04l51.218-98.04v97.123l51.212-97.123H160.572zM160.841 419.86h204.592l-51.212 98.595v-95.479l-51.218 95.479v-95.479l-51.218 95.479v-95.479l-51.213 95.479.269-98.595z"/><path stroke="#57B7E5" stroke-miterlimit="10" stroke-width="2" d="M160 618.763l206.286.098V419"/><path fill="#000" fill-rule="evenodd" d="M285.965 137.804c3.548 11.35-11.67 15.159-11.67 15.159s-16.538-10.285-35.938-21.38c-.471 0-.941.04-1.418.04a29.4 29.4 0 0 1-25.484-14.794l-1.379-.706a29.46 29.46 0 0 1-43.802-26.315 29.467 29.467 0 0 1 20.985-27.638c7.965-4.574 7.534-18.002 7.534-18.002s43.341 13.618 46.282 24.4c.372 1.371.686 2.966.993 4.697a29.404 29.404 0 0 1 24.079 25.268c.039 0-.033 0 0 0 .47 6.227 10.454 7.874 11.108 8.168 7.475 1.915 12.258 6.966 14.257 14.787 1.209 4.881-.823 11.441-5.547 16.316z" clip-rule="evenodd"/><path fill="#FFB9B2" fill-rule="evenodd" d="M299.89 618.912l-36.428-2.94h-16.114c-10.017 7.442-25.483 17.093-28.097 7.959-2.3-8.044.17-14.833 5.574-34.723.222-10.455.3-17.643.3-17.643l30.215-.326.346 20.007 44.204 27.666z" clip-rule="evenodd"/><path fill="#4C6FFF" fill-rule="evenodd" d="M225.131 632.399c-14.316-4.365-10.487-19.191-10.487-19.191s2.613 1.535 19.341-2.209c2.045-.464 3.992-.973 5.881-1.522l-18.002-9.671 2.503-9.801 27.705 14.904c9.03-4.168 13.833-8.318 13.833-8.318s8.69 6.972 23.124 11.52c9.625 3.026 19.25 1.307 19.25 1.307l2.888 24.98s-8.684-.058-32.324-.058c-18.113.032-49.726-.726-53.712-1.941z" clip-rule="evenodd"/><path fill="#000" fill-rule="evenodd" d="M250.066 607.393a3.429 3.429 0 0 1 2.426 5.856 3.434 3.434 0 0 1-3.739.743 3.43 3.43 0 0 1 1.313-6.599zM225.131 571.853v-.301l30.214-.327.19 11.141c-11.128-5.188-23.772-8.801-30.404-10.513z" clip-rule="evenodd"/><path fill="#4C6FFF" fill-rule="evenodd" d="M259.919 315.261v256.265h-35.284l-13.722-255.148a24.386 24.386 0 0 1 15.904-24.177 24.59 24.59 0 0 1 33.102 23.06z" clip-rule="evenodd"/><path fill="#2D29C1" d="M236.422 571.879a.657.657 0 0 1-.462-.191.657.657 0 0 1-.191-.462l-8.88-238.16c0-.173.069-.339.191-.462a.657.657 0 0 1 .924 0 .653.653 0 0 1 .192.462l8.88 238.179a.652.652 0 0 1-.654.654v-.02z"/><path fill="#FFB9B2" fill-rule="evenodd" d="M125.719 570.899s-.568 5.031-2.529 18.747c2.117 20.504 5.483 26.241 3.182 34.285-3.92 13.722-59.611-7.992-59.611-7.992l23.222-23.046 6.182-22.647 29.554.653z" clip-rule="evenodd"/><path fill="#4C6FFF" fill-rule="evenodd" d="M115.323 616.573c8.39.967 14.154-.333 14.154-.333.699 8.063-.458 16.63-9.312 17.159l-1.96.117H75.589l-1.13-.065c-22.563-1.235-18.1-18.492-18.1-18.492a98.56 98.56 0 0 0 17.028-7.958 54.028 54.028 0 0 0 10.611-9.057c13.422-1.856 23.733 6.691 23.733 6.691l15.682-12.454 2.509 9.363-15.277 12.232.209.654a7.396 7.396 0 0 0 4.469 2.143z" clip-rule="evenodd"/><path fill="#000" fill-rule="evenodd" d="M107.293 607.393a3.431 3.431 0 1 1 0 6.862 3.431 3.431 0 0 1 0-6.862zM125.719 570.899s-.339 2.993-1.385 10.592c-10.801-7.344-23.098-10.455-26.647-11.213l28.032.621z" clip-rule="evenodd"/><path fill="#4C6FFF" fill-rule="evenodd" d="M205.104 315.476l-72.569 255.397H95.29l57.553-264.035a27.948 27.948 0 0 1 16.431-19.8 27.94 27.94 0 0 1 25.65 2.027 23.522 23.522 0 0 1 10.18 26.411z" clip-rule="evenodd"/><path fill="#4C6FFF" fill-rule="evenodd" d="M156.802 152.375a14.224 14.224 0 0 1-2.391-19.426A52.652 52.652 0 0 1 179.3 114l21.876-7.952s9.802 7.841 19.603 8.494c9.801.654 12.526-9.801 12.526-9.801l15.133 4.783a34.492 34.492 0 0 1 24.876 29.404l17.381 49.464h-28.097v127.241c6.534.712 5.534 7.011 5.534 7.932 0 2.431-26.535 4.398-59.271 4.398-31.214 0-62.683-1.803-62.683-3.646l14.003-56.848h8.409l2.196-24.516 10.781-29.352-9.017-48.255-15.748-12.971z" clip-rule="evenodd"/><path fill="#2D29C1" d="M205.744 328.591c-32.854 0-56.233-1.889-59.866-3.718a.658.658 0 0 1-.288-.876.653.653 0 0 1 .876-.294c3.417 1.725 27.051 3.581 59.278 3.581 20.106 0 38.075-.719 49.294-1.96a.655.655 0 0 1 .591 1.062.662.662 0 0 1-.44.244c-11.259 1.242-29.293 1.961-49.445 1.961zm-.699-136.252h-6.854a.657.657 0 0 1-.463-.191.657.657 0 0 1 0-.925.657.657 0 0 1 .463-.191h6.847a8.495 8.495 0 0 0 8.495-8.494v-19.479c-.725.105-1.679.203-2.914.288-2.823.202-6.535.313-10.54.313-4.006 0-7.724-.111-10.546-.313-4.228-.301-5.541-.654-5.541-2.052a.65.65 0 0 1 .653-.654.652.652 0 0 1 .654.654.217.217 0 0 0 0 .072c.143.17 1.019.438 4.319.653 2.796.196 6.534.307 10.454.307 3.921 0 7.658-.111 10.455-.307a28.15 28.15 0 0 0 3.522-.405.64.64 0 0 1 .549.131.65.65 0 0 1 .242.509v20.256a9.82 9.82 0 0 1-2.859 6.946 9.807 9.807 0 0 1-6.936 2.882zm26.052-47.902c-.28 0-.552-.089-.778-.255L197.91 120.26c-2.118-1.653-4.222-4.607-3.784-7.939.418-3.189 2.614-5.731 6.574-7.554a.654.654 0 1 1 .549 1.189c-3.509 1.621-5.47 3.823-5.829 6.535-.359 2.711 1.457 5.312 3.267 6.737l32.41 23.902 12.689-24.732a6.586 6.586 0 0 0 1.098-3.575c0-5.495-6.358-8.39-11.69-9.84a.658.658 0 0 1-.457-.804.65.65 0 0 1 .797-.457c8.286 2.254 12.657 6.096 12.657 11.108a7.843 7.843 0 0 1-1.307 4.228l-12.657 24.679a1.304 1.304 0 0 1-.869.654 1.162 1.162 0 0 1-.261.046z"/><path fill="#FFB9B2" fill-rule="evenodd" d="M287.84 316.104c-.398 1.862-2.45 4.646-6.148 6.057-1.569 2.3-6.286 3.496-8.24 2.777-3.221 2.999-6.162 2.659-7.645 1.862-11.304 1.961-9.285-5.698-9.285-5.698l-.451-8.69c-2.731 1.679-4.574 1.045-4.574 1.045s2.614-5.796 3.862-20.53c.516-6.221 3.953-9.109 6.913-10.455l.124-55.541 23.007-.49v53.907c4.528 13.807 3.953 28.646 2.437 35.756z" clip-rule="evenodd"/><path fill="#000" d="M265.807 327.453a.68.68 0 0 1-.425-.15.653.653 0 0 1-.078-.921c2.339-2.79 3.705-7.123 3.744-11.879 0-.174.069-.34.191-.463a.657.657 0 0 1 .924 0 .654.654 0 0 1 .192.463c-.039 5.064-1.516 9.696-4.051 12.709a.657.657 0 0 1-.497.241zm8.135-1.842a.659.659 0 0 1-.632-.501.652.652 0 0 1 .077-.492c1.261-2.039 2.777-5.568 2.823-10.789a.652.652 0 1 1 1.306 0c-.045 5.528-1.666 9.286-3.018 11.468a.667.667 0 0 1-.556.314zm7.75-2.79a.667.667 0 0 1-.301-.072.686.686 0 0 1-.2-.159.661.661 0 0 1-.081-.723 22.092 22.092 0 0 0 2.294-10.004.687.687 0 0 1 .653-.654.652.652 0 0 1 .653.654 23.413 23.413 0 0 1-2.443 10.592.66.66 0 0 1-.575.366zm-21.021-4.999h-.091a.65.65 0 0 1-.562-.732c.476-4.199.694-8.424.653-12.65a.659.659 0 0 1-.274-.052 17.771 17.771 0 0 1-4.221 8.631.655.655 0 1 1-.961-.888 16.686 16.686 0 0 0 3.921-7.939 1.307 1.307 0 0 1 .509-.87c.277-.207.625-.296.967-.248.074.01.147.03.216.059a1.306 1.306 0 0 1 1.183 1.307c.038 4.285-.18 8.568-.654 12.827a.647.647 0 0 1-.237.406.647.647 0 0 1-.449.142v.007z"/><path fill="#4C6FFF" fill-rule="evenodd" d="M186.965 129.108a17.323 17.323 0 0 1-1.307 17.89l-31.286 43.91s.327 1.078-7.187-5.475c-7.515-6.554-19.302-12.448-19.302-12.448l-1.784-1.653 28.312-38.382a52.874 52.874 0 0 1 7.645-8.573 15.995 15.995 0 0 1 24.915 4.731h-.006z" clip-rule="evenodd"/><path fill="#000" fill-rule="evenodd" d="M141.344 179.127c7.579 5.227 13.643 10.892 13.035 11.761-.607.869-8.226-3.012-15.812-8.207-7.587-5.194-13.069-10.454-12.455-11.369.615-.915 7.613 2.613 15.232 7.815z" clip-rule="evenodd"/><path fill="#FFB9B2" fill-rule="evenodd" d="M194.46 271.018c.552-4.053.708-8.15.464-12.232-.32-6.75-7.188-12.304-12.683-15.683L149.4 195.26c0-.275.039-.549.039-.83a12.486 12.486 0 0 0-3.352-8.445 12.493 12.493 0 0 0-21.478 6.544 1.181 1.181 0 0 0-.045.222v.529a19.6 19.6 0 0 0 3.763 13.343l34.553 49.49c-.072 10.657-.052 19.354.908 24.791.327 1.888 3.006 5.293 6.672 6.841 2.215 2.385 5.881 2.614 7.462 2.568 4.005 2.483 7.345 1.921 10.363 2.477 6.417 1.176 6.809-5.711 6.809-5.711l.974-10.991s-.791-2.117-1.608-5.07z" clip-rule="evenodd"/><path fill="#FFB9B2" fill-rule="evenodd" d="M140.938 179.662c-2.614-1.777-4.92-3.267-6.894-4.391l-7.73 12.572a12.497 12.497 0 0 0 4.849 17.658 12.482 12.482 0 0 0 14.32-1.968 12.49 12.49 0 0 0 2.93-4.177l4.888-9.357c-1.418-1.783-5.946-5.939-12.363-10.337z" clip-rule="evenodd"/><path fill="#4C6FFF" fill-rule="evenodd" d="M161.782 267.423s2.255.771 15.068.771c12.814 0 19.472.654 19.472.098v32.188a10.849 10.849 0 0 1-10.729 10.847l-33.324.379 9.513-44.283z" clip-rule="evenodd"/><path fill="#5347E9" d="M185.972 311.647h-11.036a.652.652 0 0 1-.654-.654.653.653 0 0 1 .654-.653h11.036a9.711 9.711 0 0 0 9.697-9.697v-31.691h-5.227c-5.11 0-22.321-.065-29.359-.908a.654.654 0 0 1-.494-.968.648.648 0 0 1 .651-.326c6.966.83 24.111.895 29.202.895 2.345 0 4.378 0 5.88-.032a.652.652 0 0 1 .609.401c.034.08.051.166.051.252v32.351a11 11 0 0 1-3.218 7.798 11.018 11.018 0 0 1-7.792 3.232z"/><path fill="#000" fill-rule="evenodd" d="M222.164 21.195a27.679 27.679 0 1 1 0 55.357 27.679 27.679 0 0 1 0-55.358z" clip-rule="evenodd"/><path fill="#FFB9B2" fill-rule="evenodd" d="M241.237 81.904c-5.064 4.457-8.017 5.273-8.017 5.273s.091 10.455.17 20.518c3.469 1.104 5.613 2.614 5.613 4.326a2.332 2.332 0 0 1-.471 1.306l-9.867 19.603-26.3-18.459s-1.483-.941-1.686-2.006l2.046-49.17.32-1.457a4.867 4.867 0 0 1-1.242.163 5.005 5.005 0 1 1 0-10.004h.183a60.68 60.68 0 0 1 2.424 1.274c8.443-1.378 7.926-5.07 9.253-10.455 0 0 3.097-5.286 22.177-4.789 11.226.288 13.657 6.652 13.657 6.652s4.632 25.875-8.26 37.225z" clip-rule="evenodd"/><path fill="#000" fill-rule="evenodd" d="M233.22 87.353c0 .804.039 4.575.078 9.436-19.87-3.398-24.608-19.603-24.608-19.603a36.133 36.133 0 0 0 11.625 7.743c3.966 1.614 9.128 2.209 12.905 2.424z" clip-rule="evenodd"/><path fill="#000" d="M234.429 69.757c-.986.066-4.182-.287-6.142-2.136a.656.656 0 0 1 0-.928.653.653 0 0 1 .921 0c1.843 1.738 5.012 1.803 5.228 1.803a.652.652 0 0 1 .506 1.097.652.652 0 0 1-.454.21l-.059-.046zm-1.823-4.809a.655.655 0 0 1-.462-1.115.655.655 0 0 1 .462-.192 3.27 3.27 0 0 0 2.875-1.424c.922-1.503.758-4.248-.411-6.828a.652.652 0 0 1 .823-.884c.162.06.294.183.366.341 1.359 3.012 1.49 6.175.333 8.057-.791 1.307-2.117 1.96-3.921 2.045h-.065zm-28.038-6.972a.613.613 0 0 1-.314-.085l-4.051-2.221a.658.658 0 1 1 .653-1.144l4.045 2.222a.652.652 0 0 1 .089 1.092.652.652 0 0 1-.403.136h-.019zm35.33-4.672a.653.653 0 0 1-.542-.346.655.655 0 0 1 .248-.889l4.032-2.26a.657.657 0 0 1 .96.739.658.658 0 0 1-.307.397l-4.031 2.261a.656.656 0 0 1-.36.098zm-19.027 0a.656.656 0 0 1-.631-.495.652.652 0 0 1 .324-.733l4.194-2.261a.654.654 0 0 1 .615 1.15l-4.189 2.26a.65.65 0 0 1-.313.072v.007zm-1.464-7.482a.657.657 0 0 1-.689-.617.652.652 0 0 1 .617-.69l8.442-.967a.655.655 0 1 1 .151 1.3l-8.443.968-.078.006zm18.296 0a.656.656 0 0 1-.072-1.306l8.442-.968a.655.655 0 1 1 .15 1.3l-8.442.968-.078.006z"/><path fill="#000" d="M241.525 55.454a1.967 1.967 0 1 0 .001-3.933 1.967 1.967 0 0 0-.001 3.933zM222.452 55.983a1.967 1.967 0 1 0 0-3.934 1.967 1.967 0 0 0 0 3.934z"/><path fill="#88ADE6" d="M414.577 252.486h-94.093v125.928h94.093V252.486z"/><path fill="#000" d="M405.731 239.541h-70.256v40.434h70.256v-40.434z"/><path fill="#05BAD1" fill-rule="evenodd" d="M316.349 113.379h103.443v125.947H316.349V113.379z" clip-rule="evenodd"/><path fill="#FFB9B2" fill-rule="evenodd" d="M418.649 581.504l5.554 25.81s-17.97 8.168-29.404 4.901c-11.435-3.267-2.614-31.691-2.614-31.691l26.464.98z" clip-rule="evenodd"/><path fill="#000" fill-rule="evenodd" d="M421.399 587.457s-4.574 1.104-7.259 6.802a10.391 10.391 0 0 0-.425 7.246s-6.743 8.56-14.271 2.287c-9.318-7.762-11.108-7.534-11.108-7.534s-9.07 18.205-4.77 32.672c1.732 5.828 30.345 4.933 48.098 4.685 61.226-.85 67.225-4.614 67.225-4.614s-2.444-6.749-20.773-9.735c-7.044-1.157-56.717-31.809-56.717-31.809z" clip-rule="evenodd"/><path fill="#000" fill-rule="evenodd" d="M387.382 253.427c15.206-8.84 34.279 2.131 34.279 19.734v314.348h-30.809l-12.239-318.151a17.644 17.644 0 0 1 8.769-15.931z" clip-rule="evenodd"/><path fill="#fff" fill-rule="evenodd" d="M441.505 611.398a.653.653 0 0 1-.411-1.163 44.712 44.712 0 0 1 9.206-5.456l1.451.849a45.277 45.277 0 0 0-9.801 5.62.655.655 0 0 1-.445.15zm-6.122-3.581a.654.654 0 0 1-.406.151.658.658 0 0 1-.631-.833.655.655 0 0 1 .22-.331 44.684 44.684 0 0 1 9.599-5.619l1.437.849a46.186 46.186 0 0 0-10.219 5.783z" clip-rule="evenodd"/><path fill="#4C6FFF" fill-rule="evenodd" d="M383.037 628.224H500v6.207H383.037v-6.207z" clip-rule="evenodd"/><path fill="#FFB9B2" fill-rule="evenodd" d="M345.465 578.89l3.267 26.464s-14.048 7.187-25.483 3.92c-11.435-3.267-5.881-29.73-5.881-29.73l28.097-.654z" clip-rule="evenodd"/><path fill="#000" fill-rule="evenodd" d="M315.852 587.672s14.278-1.738 17.362 13.676a33.323 33.323 0 0 0 14.153-4.861s6.299 13.068 5.587 31.697c-25.601 0-72.766.059-72.766.059s-.071-4.887 19.714-15.349c12.422-8.971 15.95-25.222 15.95-25.222z" clip-rule="evenodd"/><path fill="#000" fill-rule="evenodd" d="M358.644 269.357l-12.232 318.139h-30.808V273.16c0-17.59 19.066-28.561 34.278-19.72a17.648 17.648 0 0 1 8.762 15.917z" clip-rule="evenodd"/><path fill="#fff" fill-rule="evenodd" d="M323.321 610.64a.655.655 0 0 1-.275 1.248.594.594 0 0 1-.274-.065c-9.298-4.326-16.721-2.738-19.256-1.961a34.783 34.783 0 0 0 1.744-1.803c3.666-.732 10.181-1.091 18.061 2.581zm2.666-3.979a.62.62 0 0 1-.281-.066c-7.56-3.522-13.879-3.13-17.342-2.437.359-.51.699-1.019 1.026-1.529 3.803-.562 9.801-.516 16.871 2.783a.655.655 0 0 1-.274 1.249z" clip-rule="evenodd"/><path fill="#4C6FFF" fill-rule="evenodd" d="M278.816 628.224h74.817v6.207h-74.817v-6.207z" clip-rule="evenodd"/><path fill="#88ADE6" fill-rule="evenodd" d="M313.336 111.882h-2.372a21.041 21.041 0 0 0 0 42.081 8.37 8.37 0 0 0 1.215-.092l2.131 40.989.058 62.252-7.612 1.843 7.665 51.117.078 74.921a28.61 28.61 0 0 0 28.607-28.606V111.882h-29.77zM421.928 111.889h-4.933l-24.327.477.653 244.027A28.609 28.609 0 0 0 421.928 385v-90.277l-.888-140.753h.888a21.041 21.041 0 0 0 0-42.081z" clip-rule="evenodd"/><path fill="#5347E9" d="M419.981 312.241h-4.299a12.331 12.331 0 0 1-12.317-12.291l.274-39.551a.653.653 0 0 1 .653-.654c.111 0 10.815-.209 15.029-.594a.666.666 0 0 1 .641.348.652.652 0 0 1-.523.952c-3.672.34-12.115.536-14.5.588l-.268 38.911a11.022 11.022 0 0 0 11.004 11.01h4.3a.653.653 0 0 1 0 1.307l.006-.026zm-100.026 0h-5.025a.657.657 0 0 1-.462-.191.657.657 0 0 1 0-.924.653.653 0 0 1 .462-.192h5.025a11.018 11.018 0 0 0 11.004-10.984v-38.911h-.654c-5.737 0-11.448-.242-15.682-.653a.656.656 0 0 1-.594-.706.64.64 0 0 1 .232-.446.649.649 0 0 1 .48-.149c4.188.386 9.86.608 15.564.621 1.118 0 1.921 0 1.921.771v39.473a12.327 12.327 0 0 1-12.271 12.291z"/><path fill="#5347E9" fill-rule="evenodd" d="M314.368 257.119c-4.822.294-7.736.921-7.736 1.561 0 .641 3.411 1.425 8.089 1.719l-.353-3.28z" clip-rule="evenodd"/><path fill="#000" fill-rule="evenodd" d="M367.988 91.646c11.958 0 22.144 1.699 22.144 3.796 0 2.098-10.186 3.797-22.144 3.797-11.958 0-22.341-1.444-22.341-3.542 0-2.097 10.39-4.051 22.341-4.051z" clip-rule="evenodd"/><path fill="#FFB9B2" fill-rule="evenodd" d="M387.414 52.572c-.489 0-.975-.068-1.444-.203v7.776h.065v51.17h-36.023v-32.22a13.075 13.075 0 0 1-7.841-11.965V30.67a13.068 13.068 0 0 1 13.068-13.07h17.643a13.07 13.07 0 0 1 13.068 13.07v11.467a5.23 5.23 0 0 1 1.444-.203 5.317 5.317 0 0 1 3.761 9.08 5.317 5.317 0 0 1-3.761 1.558h.02z" clip-rule="evenodd"/><path fill="#000" fill-rule="evenodd" d="M350.013 79.238a14.5 14.5 0 0 0 5.769 1.19h4.94l-10.709 10.27v-11.46zM387.029 41.895l-8.22 7.488V25.859c.028-.249.043-.5.045-.75a6.533 6.533 0 0 0-9.932-5.555l-.594.085c-12.938 7.508-17.61 8.717-17.61 8.717s0-.092-.059-.23a10.26 10.26 0 0 1-12.089-2.6 10.259 10.259 0 0 1 2.318-15.41 10.268 10.268 0 0 1 4.132-1.48 8.906 8.906 0 0 1 3.822-7.048 8.902 8.902 0 0 1 7.94-1.114c28.365 5.09 30.247 19.12 30.247 25.04 0 4.077.045 16.433 0 16.38z" clip-rule="evenodd"/><path fill="#F8F9FD" d="M350.143 14.405a3.47 3.47 0 0 1-.653-.052c-2.379-.425-5.038-3.34-5.646-5.47a.651.651 0 0 1 .242-.705.402.402 0 0 1 0-.085.652.652 0 0 1 .588-.712c2.451-.236 6.953.98 8.168 3.116a2.255 2.255 0 0 1-.196 2.562 3.04 3.04 0 0 1-2.503 1.346zm-4.979-5.744c.575 1.719 2.777 4.084 4.574 4.404a1.763 1.763 0 0 0 1.862-.777.95.95 0 0 0 .105-1.144c-.791-1.391-4.254-2.522-6.541-2.457v-.026z"/><path fill="#000" d="M366.55 47.266a2.144 2.144 0 1 0 0-4.288 2.144 2.144 0 0 0 0 4.288zM348.281 47.266a2.143 2.143 0 1 0 0-4.286 2.143 2.143 0 0 0 0 4.286z"/><path fill="#000" d="M357.441 61.105a.655.655 0 0 1-.462-1.116.655.655 0 0 1 .462-.191s3.679-.399 4.764-2.568a.655.655 0 0 1 1.09-.153.642.642 0 0 1 .154.486.658.658 0 0 1-.074.249c-1.379 2.764-5.352 3.267-5.803 3.267l-.131.026zm-4.325-4.777a.651.651 0 0 1-.654-.653v-3.711a3.645 3.645 0 0 1-2.358.862h-10.266a3.67 3.67 0 0 1-3.672-3.672v-10.54a.656.656 0 0 1 .653-.653h16.297a.655.655 0 0 1 .653.653v16.08l2.888-1.188a.654.654 0 1 1 .503 1.202l-3.789 1.568a.595.595 0 0 1-.255.052zm-15.643-17.06v9.886a2.364 2.364 0 0 0 2.365 2.365h10.266a2.358 2.358 0 0 0 2.358-2.306v-9.946h-14.989zm35.37 13.558h-10.266a3.67 3.67 0 0 1-3.672-3.672v-10.54a.652.652 0 0 1 .654-.653h16.302a.655.655 0 0 1 .654.653v10.54a3.671 3.671 0 0 1-3.672 3.672zm-12.605-13.559v9.887a2.364 2.364 0 0 0 2.366 2.365h10.265a2.37 2.37 0 0 0 2.365-2.365v-9.887h-14.996zm23.602 10.501a.656.656 0 0 1-.637-.79.657.657 0 0 1 .186-.334l3.078-2.94a.652.652 0 0 1 .924.023.653.653 0 0 1-.023.924l-3.084 2.94a.654.654 0 0 1-.47.177h.026zm-12.618-6.136a.656.656 0 0 1-.503-.235c-.091-.111-2.176-2.614-5.319-2.202a.66.66 0 0 1-.607-1.055.66.66 0 0 1 .437-.252c3.869-.49 6.391 2.542 6.495 2.673a.65.65 0 0 1 .071.724.655.655 0 0 1-.6.347h.026zm-27.28 0a.652.652 0 0 1-.503-1.071c.268-.32 2.724-3.137 6.488-2.666a.658.658 0 0 1-.163 1.307c-3.13-.399-5.228 2.097-5.319 2.202a.654.654 0 0 1-.542.228h.039z"/><path fill="#05BAD1" fill-rule="evenodd" d="M392.668 113.725s-14.238 4.208-27.013 4.208c-11.108 0-22.549-2.868-22.549-2.868l-.098-19.538c0-2.548 3.646-3.737 7.011-4.476v2.268c-2.614.653-4.156 1.398-4.156 2.234 0 2.091 9.691 3.79 21.648 3.79 11.958 0 21.642-1.699 21.642-3.79 0-.718-1.137-1.391-3.117-1.96v-2.287c2.927.758 6.632 1.96 6.632 4.254.072-.13 0 18.165 0 18.165z" clip-rule="evenodd"/><path fill="#000" d="M367.347 117.737c-15.453 0-24.908-3.79-24.908-5.881a.657.657 0 0 1 .611-.696.653.653 0 0 1 .696.611c.653 1.15 8.873 4.633 23.608 4.633 18.949 0 24.477-3.953 24.778-4.731a.652.652 0 0 1 .807-.454.654.654 0 0 1 .454.807c-.484 1.882-7.534 5.711-26.046 5.711zm.209-18.296c-10.409 0-21.641-1.45-21.641-3.79a.656.656 0 0 1 1.06-.595.66.66 0 0 1 .247.439c.81.81 7.553 2.613 20.354 2.613 13.173 0 19.028-1.908 19.694-2.613a.66.66 0 0 1 .467-.562.656.656 0 0 1 .84.699c-.033 2.189-9.252 3.855-21.021 3.855v-.046z"/><path fill="#88ADE6" fill-rule="evenodd" d="M315.251 112.85a19.604 19.604 0 0 0-23.026 10.52l-48.216 88.65c-.092.17-.19.34-.275.51l-.065.117a20.746 20.746 0 0 0 2.842 23.249 20.751 20.751 0 0 0 14.551 7.013 20.737 20.737 0 0 0 19.956-12.26l46.616-90.349a19.592 19.592 0 0 0 .235-16.624 19.604 19.604 0 0 0-12.618-10.826z" clip-rule="evenodd"/><path fill="#4C6FFF" fill-rule="evenodd" d="M335.37 230.277l-52.528-32.318-24.536-60.155 52.528 32.312 70.256-17.93 24.556 60.161-70.276 17.93z" clip-rule="evenodd"/><path fill="#4D5EF3" fill-rule="evenodd" d="M310.625 169.999l24.745 60.278-52.528-32.318-24.536-60.155 52.319 32.195z" clip-rule="evenodd"/><path fill="#000" fill-rule="evenodd" d="M301.189 201.938c1.62-.079 3.306 7.442 3.77 16.799.464 9.357-.451 17.401-2.071 17.479-1.621.079-3.326-7.841-3.79-17.191-.464-9.351.477-17.015 2.091-17.087zM289.408 201.644c1.647-.118 3.646 8.886 4.476 20.112.83 11.226-.771 20.504-2.411 20.622-1.64.117-4.273-9.39-5.103-20.616-.83-11.225 1.398-19.994 3.038-20.118z" clip-rule="evenodd"/><path fill="#88ADE6" fill-rule="evenodd" d="M286.677 221.678c0-3.614-.484-15.578 2.653-20.995l-26.333.765h-.895a20.738 20.738 0 0 0-14.908 5.943 20.76 20.76 0 0 0-6.207 14.8 20.742 20.742 0 0 0 6.207 14.799 20.757 20.757 0 0 0 14.908 5.944 21.528 21.528 0 0 0 3.267-.255h25.607c-1.306-1.797-4.299-11.226-4.299-21.001z" clip-rule="evenodd"/><path fill="#5347E9" d="M263.01 202.101h-.908a.653.653 0 1 1 0-1.307h.928l25.79-.379a.652.652 0 0 1 .654.654.653.653 0 0 1-.654.653l-25.81.379z"/><path fill="#FFB9B2" fill-rule="evenodd" d="M374.778 201.559s-3.633 5.005-7.312 9.546c-1.686 2.3-3.267 4.385-4.09 5.358-3.437 4.006-8.652 7.913-11.886 9.475-11.723 5.652-25.105 5.449-33.723 4.829l-29.143.117v-27.515l12.885-1.359c-.313-9.148-.542-11.631-.542-11.631s3.202-2.882 8.377 5.286c8.573 13.545 25.745 7.455 30.443 4.907 7.397-9.35 11.017-9.488 14.715-7.697 0 0-1.372 2.411-2.973 4.966 2.744-1.307 5.835-1.261 9.462-1.072a21.041 21.041 0 0 1-2.006 3.921c2.502-.817 6.468-1.471 8.18-1.15 0 0 .131.843-1.483 3.358 3.169-1.346 5.299-1.535 9.096-1.339z" clip-rule="evenodd"/><path fill="#05BAD1" fill-rule="evenodd" d="M298.988 215.503c-.039-5.371.777-10.926 2.169-13.572l-11.062.092c-.492-.003-.983.03-1.471.098-1.215 0-1.96 6.978-1.908 16.368.072 9.109 1.817 17.276 2.987 17.701l12.317-.104c-1.15-2.242-2.954-11.122-3.032-20.583z" clip-rule="evenodd"/><path fill="#000" d="M346.387 220.704a.652.652 0 0 1-.381-1.194.645.645 0 0 1 .237-.1c4.842-1.006 8.854-5.149 10.174-6.534l.229-.235c1.182-1.203 4.018-4.979 7.984-10.645.078-.244.228-.458.432-.614l.856-1.241a12.8 12.8 0 0 0-5.881 1.45 1.277 1.277 0 0 1-.301.098.636.636 0 0 1-.497-.087.657.657 0 0 1-.201-.899.655.655 0 0 1 .398-.288 14.49 14.49 0 0 1 7.756-1.568.656.656 0 0 1 .549.359.661.661 0 0 1-.046.654c-.399.581-.967 1.398-1.627 2.346a.671.671 0 0 1-.196.183.65.65 0 0 1-.105.241c-2.855 4.091-6.593 9.292-8.187 10.906l-.216.229c-1.385 1.476-5.619 5.815-10.847 6.926a.513.513 0 0 1-.13.013zm13.068-20.256l.17.621-.104-.654-.066.033zm-19.668 17.172a.662.662 0 0 1-.638-.352.662.662 0 0 1 .281-.884.645.645 0 0 1 .246-.071c5.391-.921 5.881-1.411 10.455-6.057l.353-.36c1.882-1.908 7.187-9.448 9.429-12.722-2.183-.425-5.175-.274-7.188.889a.656.656 0 0 1-.863-.196c-2.613 3.685-6.044 8.494-7.547 9.984-4.985 5.064-5.756 5.842-11.722 6.861a.649.649 0 0 1-.491-.11.664.664 0 0 1-.267-.426.652.652 0 0 1 .536-.751c5.554-.948 6.07-1.477 11.017-6.489 1.96-1.96 7.782-10.298 10.598-14.427a.659.659 0 0 1 .912-.173.657.657 0 0 1 .173.911c-.111.157-1.033 1.503-2.307 3.333a13.059 13.059 0 0 1 8.442-.438c.099.03.188.083.262.155a.656.656 0 0 1 .085.838c-2.353 3.417-8.037 11.579-10.115 13.683l-.347.353c-4.645 4.711-5.358 5.436-11.173 6.429l-.131.02zm-33.978-4.313a.655.655 0 0 1-.379-.124c-.091-.065-2.221-1.673-3.267-7.691-1.039-5.881-1.751-14.114-1.836-15.028a.657.657 0 0 1 .353-.643.656.656 0 0 1 .954.518c.078.915.791 9.09 1.816 14.918.954 5.397 2.758 6.861 2.777 6.874a.655.655 0 0 1 .125.908.653.653 0 0 1-.536.255l-.007.013zm60.612-9.749a.65.65 0 0 1-.64-.506.655.655 0 0 1 .352-.735 15.024 15.024 0 0 1 8.71-1.392.655.655 0 0 1 .582.725.657.657 0 0 1-.725.582 13.8 13.8 0 0 0-7.985 1.261.647.647 0 0 1-.288.052l-.006.013z"/><path fill="#000" d="M302.849 236.87c-.81 0-1.862-.706-2.927-5.574a78.169 78.169 0 0 1-1.477-12.245c0-.719-.83-17.597 2.712-17.773a.654.654 0 1 1 .065 1.307c-.778.392-1.96 6.214-1.47 16.401.516 10.382 2.3 16.224 3.156 16.577.173 0 .339.069.462.191a.657.657 0 0 1 0 .924.653.653 0 0 1-.462.192h-.059zM291.453 243.031c-2.724 0-5.077-12.264-5.737-21.223-.758-10.311 1.046-20.622 3.647-20.811a.639.639 0 0 1 .253.031.638.638 0 0 1 .38.327.656.656 0 0 1-.535.948c-1.092.464-3.268 8.495-2.438 19.42.85 11.507 3.352 19.439 4.457 20.008a.656.656 0 0 1 .673.634.657.657 0 0 1-.634.673l-.066-.007z"/><path fill="#88ADE6" fill-rule="evenodd" d="M461.225 293.691V157.642c0-21.687-14.924-45.74-39.297-45.74a21.038 21.038 0 0 0-20.952 20.386 21.044 21.044 0 0 0 19.646 21.649l-.105 27.032-.104 28.522.862 85.232c2.503 1.065 10.337 1.836 19.603 1.836 11.297 0 20.452-1.542 20.452-2.96.013-.117-.026.183-.105.092z" clip-rule="evenodd"/><path fill="#FFB9B2" fill-rule="evenodd" d="M427.117 302.231a46.161 46.161 0 0 1 5.822-5.169c2.522.15 5.318.229 8.259.229 3.169 0 6.168-.092 8.834-.262.397.698.74 1.426 1.026 2.176 6.162 16.336 5.541 34.632 3.724 43.165-.45 2.104-3.593 5.816-7.775 7.41-2.614 2.614-6.685 2.679-8.495 2.575-4.574 2.613-8.318 1.855-11.761 2.352-7.253 1.052-7.404-6.685-7.404-6.685l-.509-9.801c-3.084 1.895-5.143 1.183-5.143 1.183s2.967-6.534 4.365-23.203c.654-7.56 5.071-10.769 8.56-12.128.32-1.156.497-1.842.497-1.842z" clip-rule="evenodd"/><path fill="#05BAD1" fill-rule="evenodd" d="M440.466 296.853c4.636.03 9.27-.21 13.878-.719v11.069c.347.177.556.36.556.549 0 1.216-7.612 2.202-16.989 2.202-9.115 0-16.532-.928-16.989-2.097h-.105V294.88c2.261 1.15 10.187 1.973 19.649 1.973z" clip-rule="evenodd"/><path fill="#000" d="M436.945 310.961a101.16 101.16 0 0 1-12.193-.654c-4.489-.581-5.228-1.307-5.228-2.712v-.091a.652.652 0 0 1 .654-.653.652.652 0 0 1 .653.653v.104c0 .347 0 .87 4.084 1.399 7.99.862 16.05.862 24.039 0 4.333-.556 4.98-1.216 4.98-1.555a.652.652 0 1 1 1.306 0c0 1.503-1.659 2.274-6.116 2.855-4.043.463-8.11.681-12.179.654zm3.424-13.722c-8.077 0-21.629-.523-21.629-4.025a.65.65 0 0 1 .192-.462.65.65 0 0 1 .924 0 .653.653 0 0 1 .191.462c0 1.306 7.769 2.718 20.322 2.718 12.552 0 20.321-1.412 20.321-2.718a.653.653 0 1 1 1.307 0c0 3.469-13.546 4.005-21.628 4.005v.02zM429.724 355.119a.656.656 0 0 1-.651-.603.64.64 0 0 1 .154-.475 17.504 17.504 0 0 0 3.398-6.718c.602-2.217.909-4.504.915-6.802 0-.173.069-.339.191-.462a.657.657 0 0 1 .924 0 .653.653 0 0 1 .192.462 27.692 27.692 0 0 1-.961 7.142 18.81 18.81 0 0 1-3.665 7.188.652.652 0 0 1-.497.268zm9.226-2.085a.674.674 0 0 1-.531-.28.66.66 0 0 1-.018-.726c1.445-2.307 3.183-6.312 3.228-12.265a.653.653 0 0 1 1.307 0c-.046 6.26-1.895 10.494-3.43 12.951a.659.659 0 0 1-.556.32zm8.697-3.051a.649.649 0 0 1-.559-.318.666.666 0 0 1-.016-.643 24.814 24.814 0 0 0 2.692-11.487.653.653 0 0 1 1.307 0 26.202 26.202 0 0 1-2.842 12.088.656.656 0 0 1-.582.36zm-24.229-5.809h-.084a.65.65 0 0 1-.562-.732c.534-4.744.785-9.516.751-14.29a.652.652 0 0 1-.307-.066 20.07 20.07 0 0 1-5.018 10.004.653.653 0 1 1-.922-.928 18.942 18.942 0 0 0 4.679-9.285c.047-.343.228-.653.504-.862.275-.21.623-.302.966-.255.083.013.164.035.242.065a1.309 1.309 0 0 1 1.189 1.307c.034 4.833-.222 9.664-.765 14.467a.65.65 0 0 1-.673.575z"/><path fill="#5347E9" d="M419.394 293.848a.65.65 0 0 1-.462-.192.65.65 0 0 1-.192-.462V212.17a.652.652 0 0 1 .654-.654.653.653 0 0 1 .653.654v81.024a.653.653 0 0 1-.653.654zM420.262 201.226a.652.652 0 1 1 0-1.307 7.348 7.348 0 0 0 7.338-7.338v-31.233a.653.653 0 1 1 1.307 0v31.233a8.661 8.661 0 0 1-8.645 8.645zm-12.075 0a8.653 8.653 0 0 1-6.109-2.536 8.653 8.653 0 0 1-2.536-6.109v-31.233a.653.653 0 1 1 1.307 0v31.233a7.346 7.346 0 0 0 2.153 5.185 7.346 7.346 0 0 0 5.185 2.153.653.653 0 0 1 0 1.307z"/><path fill="#000" d="M428.234 161.831a.652.652 0 0 1-.654-.654v-9.317a12.805 12.805 0 0 0-11.702-12.703h-1.105a.65.65 0 0 1-.418 0h-.882a12.77 12.77 0 0 0-12.689 12.748v9.318a.652.652 0 0 1-.654.654.653.653 0 0 1-.653-.654v-9.363a14.073 14.073 0 0 1 13.996-14.055h.444c-.228-12.69-6.802-25.268-21.164-25.268a.652.652 0 0 1-.653-.654.652.652 0 0 1 .653-.653c15.27 0 22.216 13.251 22.471 26.601h.739a14.124 14.124 0 0 1 12.924 14.002v9.318a.648.648 0 0 1-.182.479.654.654 0 0 1-.471.201zm-112.023-5.228a.652.652 0 0 1-.653-.653v-14.617c0-15.427 11.807-28.372 27.443-30.103a.656.656 0 1 1 .144 1.307c-15.029 1.659-26.3 14.042-26.3 28.803v14.59a.654.654 0 0 1-.634.647v.026z"/><path fill="#1D1D1B" d="M316.153 162.811a4.333 4.333 0 1 0-.001-8.665 4.333 4.333 0 0 0 .001 8.665z"/></svg>