<svg xmlns="http://www.w3.org/2000/svg" fill="none" viewBox="0 0 601 462"><path fill="#05BAD1" d="M356.488 309.945V222.855c0-31.384 53.701-31.384 80.551-27.461 2.607-23.276 10.011-70.456 18.77-72.967 101.666-18.046 105.977 32.953 102.448 61.983-15.641 128.674-49.269 125.535-64.128 125.535H356.488z"/><path fill="#191353" d="M442.46 305.001h-14.404v131.433h14.404z"/><path fill="#2C249B" d="M442.46 436.434h-14.403l14.403-131.433v131.433zM442.274 436.434h-14.137c-3.927 3.976-14.136 7.157-25.917 8.747-12.566 1.696-22.776 1.59-22.776 15.109h113.879c0-13.519-6.283-13.519-24.347-15.109-14.45-1.272-23.823-6.362-26.702-8.747z"/><path fill="#FFB9B2" d="M231.908 420.855c14.854.9 15.979-25.206 15.979-25.206l38.704 7.486s-7.336 13.243-11.707 26.597c-2.383 7.279-4.659 21.474-7.883 25.663-7.187 8.445-51.708-16.803-35.093-34.54z"/><path fill="#EC8E65" d="M286.591 403.135s-7.336 13.244-11.708 26.597c-2.382 7.28-4.659 21.474-7.882 25.663-.797.059-1.619.083-2.46.074 8.327-8.821 5.852-22.236 7.652-25.737 1.8-3.501 12.828-23.634 5.401-23.055-5.941.463-22.789-2.958-30.47-4.726.647-3.618.763-6.302.763-6.302l38.704 7.486z"/><path fill="#0F2E9A" d="M188.984 420.993c8.016 1.313 27.17-1.263 44.497-.195 4.008 6.322.615 14.016 1.091 18.291.475 4.275.846 6.607 16.438 12.351 15.591 5.744 14.597 3.888 16.031 4.043 1.434.156-.215 5.138-1.2 4.775-.985-.362-69.03-24.083-75.698-26.727-6.668-2.643-7.611-13.239-1.159-12.538z"/><path fill="#FFB9B2" d="M392.053 72.758c2.02 12.634-3.999 16.635-7.261 17.056-4.04 29.564 23.781 32.322 38.197 30.006 4.103-10.002 11.048-31.017 5.997-35.06-5.05-4.043-11.153-13.897-13.574-18.32-3.788.738-13.763 3.033-23.359 6.318z"/><path fill="#EC8E65" d="M415.412 66.44c-3.788.738-13.763 3.033-23.359 6.318 1.543 9.651-1.605 14.264-4.632 16.093 12.063 4.823 23.687-12.93 27.991-22.41z"/><path fill="#FFB9B2" d="M315.178 433.908c14.404-4.051 7.879-27.136 7.879-27.136l36.078-7.248s-3.164 15.126-.949 28.677c1.234 7.555 2.215 22.059.633 27.101-3.806 9.214-57.969 2.182-43.641-21.394z"/><path fill="#EC8E65" d="M359.135 399.524s-3.163 15.126-.949 28.677c1.235 7.555 2.215 22.059.633 27.101-.3.726-.913 1.351-1.78 1.875 1.576-6.213 2.096-21.099 0-24.844-2.096-3.745-.9-22.056-2.926-21.831-1.62.18-20.407 4.276-29.598 6.302-.161-5.444-1.458-10.032-1.458-10.032l36.078-7.248z"/><path fill="#0F2E9A" d="M273.504 448.816c7.978-1.543 28.237-11.29 42.173-15.083 5.947 4.558 5.424 12.973 7.348 16.83 1.925 3.857 2.799 6.493 19.42 6.493 16.62 0 15.045-1.403 16.445-1.754 1.399-.35 1.574 4.909.525 4.909-1.05 0-73.314.176-80.487 0-7.173-.175-11.722-9.817-5.424-11.395z"/><path fill="#4C6FFF" d="M382.057 211.941l.974-.114 99.039 7.674c-56.416 11.367-166.479 35.994-169.005 43.572-3.157 9.472-15.788 109.39-13.577 139.701-28.103 1.894-58.974-4.105-68.131-12.63 11.552-36.119 14.504-159.798 57.212-166.222 31.092-4.678 71.661-9.426 93.488-11.981z"/><path stroke="#61948B" stroke-width="3" d="M232.521 386.196c13.115 9.228 45.028 15.844 61.052 11.703 2.251 0 2.926-80.57 12.378-138.634 0-3.961 102.476-29.317 153.714-41.5"/><path fill="#000" d="M313.065 263.072c-3.157 9.472-15.788 109.391-13.577 139.701-8.089.545-16.406.437-24.369-.198 5.38-42.969 14.578-113.604 20.255-144.662 5.677-31.057 49.512-29.707 127.832-42.974l58.864 4.562c-56.415 11.366-166.479 35.993-169.005 43.571z"/><path fill="#FFB9B2" d="M369.542 36.79c3.53 21.392 15.697 60.606 37.576 40.093 34.225-32.09-7.515-71.03-37.576-40.093z"/><path fill="#EC8E65" d="M373.2 52.889a140.345 140.345 0 0 1-3.658-16.099c27.211-28.004 63.992 1.248 45.336 30.847-3.826-7.757 1.125-11.148 2.701-16.324 1.575-5.176-3.826-9.677-5.852-6.752-2.025 2.926 2.701 10.353 0 10.353-9.002.675-9.227-12.828-14.403-9.452-10.803 7.922-20.584 8.252-24.124 7.427z"/><path fill="#4C6FFF" d="M469.978 306.271c47.225-14.132 33.538-60.985 21.016-82.645-6.103-1.683-26.635-5.047-61.739-5.047-110.171 9.463-125.523 20.819-129.942 45.423-4.42 24.604-17.994 135.639-17.994 151.726 17.655 4.902 64.917-11.356 81.375-11.356 2.526-20.693-.775-77.177-5.931-102.833 32.304 5.363 86.472 9.039 113.215 4.732z"/><path stroke="#61948B" stroke-width="3" d="M281.515 410.953c18.134 4.276 60.22-12.379 76.198-10.578 3.802.428-2.475-83.271-6.301-101.951-1.014-4.951 132.783 20.706 134.809-71.793"/><path fill="#4C6FFF" d="M338.809 277.044c4.321 12.784 13.769 21.657 17.954 24.495.297 1.479.588 3.061.872 4.732-6.275-6.066-18.826-20.404-18.826-29.227z"/><path fill="#D79B16" d="M490.722 223.706c-6.103-1.682-26.363-5.127-61.467-5.127-3.222.277-6.364.555-9.426.835 25.431 4.212 69.317 17.345 74.951 10.594-1.088-2.302-2.937-4.363-4.058-6.302z"/><path fill="#F9DB97" d="M275.554 177.95c6.724 3.707 14.397 4.25 17.569 3.75v14.999h-41.726c-5.857-14.999 14.64-23.996 24.157-18.749z"/><path fill="#87ACE8" d="M340.032 166.277c6.066-40.306 24.346-63.88 34.561-71.753 6.214 30.755 4.595 87.101 3.105 100.683-.279 2.547-5.32.615-90.527.615v-27.97c16.113-2.834 52.404 1.463 52.861-1.575z"/><path fill="#87ACE8" d="M374.493 94.646c2.517-2.778 8.161-4.322 10.678-4.849 1.049 9.577 9.452 24.69 20.37 22.937 9.563-1.535 21.765-16.108 23.291-28.113 6.795-.758 20.22 2.974 24.624 4.974 0 0 26.908 99.006 38.066 135.141-10.31 11.053-74.761-13.816-117.029-11.68 3.252-55.517-5.301-82.073 0-118.41z"/><path stroke="#fff" stroke-width="2" d="M374.493 213.055c42.267-2.136 106.718 22.734 117.029 11.681M382.245 90.547c1.877 9.359 7.877 28.152 23.296 25.582 17.664-2.945 23.741-19.295 26.216-31.59"/><path fill="#6D94D5" d="M377.069 161.591c0-3.061-2.703-36.084-4.055-52.213-1.59 28.213 3.747 53.474 1.811 97.224 1.123-1.35 2.244-4.289 2.244-6.302v-38.709zM440.31 135.259c-12.603-28.807 3.513-42.446 13.146-45.664 0 0 16.786 61.763 29.339 105.529H383.37c-.225-1.125-.675-3.691-.675-4.951 1.126-17.555 23.406-21.381 28.808-18.005 5.401 3.376 14.403 5.626 14.403 4.951 0-.675-2.025-6.301 0-8.102 4.276-3.376 29.257-2.25 27.55-5.626-1.707-3.376-2.569-4.726-13.146-28.132z"/><g filter="url(#filter0_d_0_14296)"><path fill="#FFB9B2" d="M413.56 174.167c7.998 4.366 17.125 5.005 20.898 4.416v17.666h-49.632c-6.966-17.666 17.414-28.262 28.734-22.082z"/></g><path fill="#FFC86B" d="M413.56 174.167c7.998 4.366 17.125 5.005 20.898 4.416v17.666h-5.176c-1.126-4.876-3.376-14.763-3.376-15.304 0-.675-6.462-.986-12.346-4.726-5.884-3.739-31.78-4.501-28.734 20.03-6.966-17.666 17.414-28.262 28.734-22.082z"/><path fill="#87ACE8" d="M511.328 190.987c-5.313-53.816-45.951-97.174-57.965-101.415-41.745 17.919 14.638 75.484 7.681 77.685-5.566 1.76-25.511 1.891-34.788 5.978.844 3.248 2.775 12.703 5.052 23.014 72.967 0 80.02 2.911 80.02-5.262z"/><path stroke="#fff" stroke-width="2" d="M431.307 171.584l5.176 24.67"/><path fill="#1A1454" d="M362.427 42.501c-3.902-17.299 9.346-21.406 17.097-21.192 2.236-5.75 10.881-12.095 16.564-11.619 13.433 1.127 17.82 11.094 19.294 15.512 17.676 8.83 9.005 26.338 5.394 31.01-.272.997-2.093 9.955-3.196 14.006-2.251-2.926-2.652-5.473-3.174-7.489-.653-2.52 2.434-4.023 4.385-11.189 1.952-7.166-4.96-10.052-7.905-7.842-2.944 2.21 2.582 11.413-.534 10.565-8.469-3.31-6.406-15.802-15.863-9.34C380.92 54.192 365 53.91 362.427 42.5z"/><path fill="#030215" d="M394.488 44.923c-13.569 9.27-29.489 8.988-32.062-2.422-1.439-6.377-.546-10.962 1.542-14.198-1.605 20.051 19.678 19.434 30.52 16.62z"/><path fill="#05BAD1" d="M358.164 309.903l-1.125-7.202c104.061 0 98.813-7.99 103.511-22.718 14.083-44.156 27.381-60.714 60.245-65.445 17.526-2.523 30.398-7.36 34.643-9.462-16.594 107.666-47.245 104.869-61.245 104.869-11.892 0-50.632-.042-136.029-.042z"/><path fill="#1C43AE" d="M334.433 190.848h66.616v5.675h-66.616v-5.675z"/><path fill="#08299A" d="M334.533 194.448h66.617v2.251h-66.617v-2.251z"/><path fill="#0F2E9A" d="M334.533 190.848h66.617v1.8h-66.617v-1.8z"/><path fill="#1C43AE" d="M229.803 123.25c-.595-3.084 1.769-5.947 4.91-5.947h93.814c2.396 0 4.456 1.7 4.909 4.053l13.353 69.22c.595 3.085-1.768 5.947-4.91 5.947h-93.814a5 5 0 0 1-4.909-4.053l-13.353-69.22z"/><path fill="#08299A" d="M244.794 196.523H346.68a1.037 1.037 0 0 0 0-2.075H244.794a1.037 1.037 0 1 0 0 2.075z"/><path fill="#0F2E9A" d="M347.361 192.648l-13.945-71.445a4.825 4.825 0 0 0-4.735-3.9l14.854 75.345h3.826z"/><ellipse cx="282.818" cy="154.055" fill="#0F2E9A" rx="3.826" ry="6.527" transform="rotate(-10.17 282.818 154.055)"/><path fill="#1C43AE" d="M420.955 196.25c-1.686-5.899-8.259-17.165-21.069-15.041-12.81 2.123-17.979 10.911-18.541 15.04l39.61.001z"/><path fill="#0F2E9A" d="M420.955 196.249c-1.685-5.898-8.259-17.164-21.069-15.041-3.4.564-6.262 1.597-8.642 2.888 7.578-2.1 23.14-2.61 24.76 12.153h4.951z"/><rect width="456.763" height="10.146" x="111.728" y="196.314" fill="#312E63" rx="5.073"/><path fill="#312E63" d="M164.213 201.447h12.409l-49.867 259.122h-3.324l40.782-259.122zM515.801 201.2h-12.409l49.866 259.122h3.325L515.801 201.2z"/><path fill="#FDF2D6" stroke="#AAB8FA" d="M111.566 4.919h121.852v103.59H111.566z"/><path stroke="#AAB8FA" d="M106.376.5h132.233v112.428H106.376z"/><path fill="#87ACE8" d="M149.369 74.478l-37.437 33.794h121.121l-46.246-47.875-27.528 29.1-9.91-15.02z"/><ellipse cx="141.781" cy="43.456" fill="#87ACE8" rx="15.14" ry="13.258"/><path fill="#0D8BC9" d="M180.93 174.32c-3.537-4.828-10.132-17.268-8.215-28.402 1.539-8.941 1.857-12.741 1.804-13.989a72.684 72.684 0 0 0-.093-.496c.045.037.08.19.093.496.708 3.82 1.961 11.631 1.961 15.977 0 5.681 6.161 15.337 7.873 26.414h-3.423z"/><path fill="#0D8BC9" d="M170.66 165.231c3.286 2.5 5.477 7.101 6.162 9.089h3.08c-.342-3.124-4.107-10.509-7.53-12.213-2.739-1.363-5.706-5.302-6.847-7.101.343 2.367 1.849 7.726 5.135 10.225z"/><path fill="#0379C3" d="M178.533 145.351c-1.643 7.498.685 22.627 2.054 29.254h3.422c2.396-9.373-.685-21.586-.685-26.982 0-4.317-2.282-11.266-3.423-14.201.229.852.275 4.43-1.368 11.929z"/><path fill="#0379C3" d="M171.002 159.267c4.93 4.317 7.988 11.834 8.9 15.053h3.081c.685-4.26-3.765-13.917-8.558-17.325-3.833-2.727-7.987-9.846-9.584-13.065 0 3.314 1.232 11.02 6.161 15.337z"/><path fill="#0379C3" d="M186.406 160.119c-3.834 4.09-4.107 10.414-3.765 13.065h1.368c.685-2.84 5.135-9.089 8.215-13.633 3.081-4.544 2.739-13.349 2.739-19.029 0 4.544-3.764 14.485-8.557 19.597z"/><path fill="#0D8BC9" d="M180.931 174.036c-1.255-4.26-2.807-14.144 1.027-19.597 4.756-6.766 7.825-17.449 7.536-20.385l-.007-.065.007.065c.68 6.237 1.008 13.883-2.403 22.657-2.738 7.044-3.423 14.485-3.423 17.325h-2.737z"/><path fill="#0D8BC9" d="M194.279 162.391c-3.56 2.727-6.96 8.521-8.215 11.077h-3.081c-.342-.852 5.135-10.509 8.558-13.349s6.846-10.225 8.215-14.201c.685 3.124-.285 12.497-5.477 16.473z"/><path fill="#4C6FFF" d="M195.649 172.331h-28.754l4.45 23.858h19.511l4.793-23.858z"/><path stroke="#D79B16" d="M167.452 175.319h23.404l-3.96 20.871m-19.025-18.62h20.151l-3.376 18.62"/><path stroke="#191353" d="M11.352 460.465H601"/><path fill="#2DC9ED" d="M31.833 269.392c-7.727-7.727-22.55-29.753-20.03-56.039 5.176 7.877 20.03 36.234 20.03 56.039zM47.362 303.375c0-16.204 2.385-50.232 11.928-56.714.45 10.353 6.752 30.383-11.928 56.714zM61.99 324.756c-1.35-11.178-.36-38.26 14.404-57.165 2.25 6.527 9.228 31.733-14.404 57.165zM69.192 343.436c1.65-9.978 9.633-34.659 28.358-53.564 0 8.327-6.077 47.937-28.358 53.564zM61.765 324.756c-10.127-7.652-35.829-22.461-57.614-20.48 9.677 9.002 21.83 22.056 57.614 20.48zM69.192 343.885c-7.427-5.551-29.752-15.169-59.64-9.227 15.98 7.877 37.135 20.029 59.64 9.227zM47.362 303.601C33.633 298.274 5.14 283.931 1 269.167c11.028 2.251 24.981 6.977 46.362 34.434zM103.176 300.224c-.075-7.351 1.755-23.541 9.677-29.482 1.35 6.752-1.35 23.181-9.677 29.482z"/><path fill="#2DC9ED" d="M102.5 300.9c1.426-4.351 7.112-13.279 18.455-14.179-3.826 8.327-8.102 12.153-18.455 14.179zM98.225 355.364v.225c4.951-13.053 2.7-27.682.45-33.534-6.662 13.684-3.076 27.907-.45 33.309zM99.124 355.364c2.851-2.551 13.054-6.752 31.058-3.151-4.501 3.151-17.779 9.453-31.057 3.151zM107.001 343.886c-.45-7.052.765-22.866 9.227-29.708.901 6.527-.225 15.079-9.227 29.708zM108.127 343.886c6.601-2.551 21.785-6.977 29.707-4.277-4.726 2.926-13.053 9.678-29.707 4.277zM120.73 329.257c3.376-5.551 13.278-17.329 25.881-20.03-4.051 5.401-13.953 17.779-25.881 20.03zM90.122 362.791c6.977-.826 23.226-1.126 32.408 4.276-4.501 2.025-24.08 5.626-32.408-4.276zM90.122 362.79c-3.901-2.55-10.533-12.513-5.852-31.958 3.827 7.652 9.002 19.805 5.852 31.958z"/><path stroke="#12AAE4" stroke-width="2" d="M70.543 376.069c6.376-10.803 19.94-37.134 23.18-56.039 3.061-11.523 7.877-18.455 9.903-20.48"/><path stroke="#12AAE4" stroke-width="2" d="M74.818 376.294c-.15-14.254-5.671-48.567-26.556-71.793-19.13-20.03-12.829-33.758-19.355-43.661"/><path stroke="#12AAE4" stroke-width="2" d="M73.693 371.568c7.352-2.401 24.532-11.478 34.434-28.582 7.562-11.703 17.254-17.78 21.155-19.355"/><path stroke="#12AAE4" d="M90.572 363.016c.225 0 22.506 5.176 31.958 4.051M99.575 355.139c.9.225 18.905.9 30.383-2.926M108.577 343.886c7.877-.6 24.756-2.296 29.257-4.276M121.18 329.032c3.451-2.7 13.278-10.397 24.981-19.58M107.227 343.661c1.725-7.802 5.896-24.576 8.777-29.257M98.223 354.914c-.525-9.152-1.17-28.492.45-32.633M90.123 362.566c-2.176-8.328-6.437-26.332-6.077-31.733M69.418 343.436c8.251-12.528 25.43-40.735 28.131-53.338M61.99 324.531c4.426-9.227 13.459-33.488 14.179-56.714M47.587 303.151c2.7-14.254 8.867-45.507 11.928-56.489M32.057 268.942c-7.502-15.004-22.01-47.082-20.03-55.364M46.911 302.926c-12.978-9.153-40.285-28.672-45.686-33.534M61.765 324.306c-13.653-4.276-44.29-14.268-57.614-20.03M69.192 343.661c-14.854-.375-47.577-2.701-59.64-9.002M103.625 299.324c2.326-8.102 7.427-25.071 9.228-28.132M102.726 300.45c5.176-3.976 16.024-12.243 18.004-13.504"/><path fill="#1C43AE" d="M109.477 371.343H41.539c-.548 12.115 6.631 51.763 33.133 51.763 26.501 0 33.516-35.794 34.805-51.763z"/><path stroke="#0F2E9A" d="M95.299 371.343c-1.125 12.688-8.552 40.493-29.257 50.203m25.206-50.203c-2.55 13.658-12.153 42.3-30.158 47.606"/><path fill="#0F2E9A" d="M74.818 423.106c26.39 0 33.375-35.794 34.659-51.763h-8.235c.539 11.197-3.992 37.225-26.424 51.763z"/><path stroke="#2F2C63" stroke-width="3" d="M118.929 460.465l-8.259-57.839m-79.963 57.839l8.259-57.839m1.157-8.102l.325-2.275a6 6 0 0 1 5.94-5.152h56.861a6 6 0 0 1 5.939 5.152l.325 2.275m-69.39 0h69.39m-69.39 0l-1.157 8.102m70.547-8.102l1.157 8.102m-71.704 0h71.704"/><defs><filter id="filter0_d_0_14296" width="58.863" height="31.856" x="379.595" y="172.393" color-interpolation-filters="sRGB" filterUnits="userSpaceOnUse"><feFlood flood-opacity="0" result="BackgroundImageFix"/><feColorMatrix in="SourceAlpha" result="hardAlpha" values="0 0 0 0 0 0 0 0 0 0 0 0 0 0 0 0 0 0 127 0"/><feOffset dy="4"/><feGaussianBlur stdDeviation="2"/><feComposite in2="hardAlpha" operator="out"/><feColorMatrix values="0 0 0 0 0 0 0 0 0 0 0 0 0 0 0 0 0 0 0.25 0"/><feBlend in2="BackgroundImageFix" result="effect1_dropShadow_0_14296"/><feBlend in="SourceGraphic" in2="effect1_dropShadow_0_14296" result="shape"/></filter></defs></svg>