<svg xmlns="http://www.w3.org/2000/svg" fill="none" viewBox="0 0 1000 800"><path fill="#EBF2FA" fill-rule="evenodd" d="M456.178.6c72.335 8.098 104.527 98.814 169.056 132.568 68.695 35.934 156.637 21.842 217.655 69.716 72.806 57.123 148.869 131.449 156.467 223.816 7.594 92.281-53.127 180.086-117.805 246.192-58.567 59.86-143.891 79.515-224.107 103.267-65.868 19.505-132.59 21.819-201.266 22.69-69.504.881-138.927 6.33-204.227-17.549-72.621-26.556-162.853-53.917-189.81-126.544-27.77-74.815 67.228-148.746 58.19-228.056C109.42 330.953-31.533 254.947 6.492 166.437c35.899-83.56 172.151-42.319 257.327-73.73C331.664 67.685 384.334-7.444 456.178.598z" clip-rule="evenodd"/></svg>