<svg xmlns="http://www.w3.org/2000/svg" fill="none" viewBox="0 0 500 635"><path fill="#4C6FFF" d="M106.5 480.963l34.8 20.092a16 16 0 0 1 8 13.856v40.184a16 16 0 0 1-8 13.856l-34.8 20.092a16 16 0 0 1-16 0l-34.8-20.092a16 16 0 0 1-8-13.856v-40.184a16 16 0 0 1 8-13.856l34.8-20.092a16 16 0 0 1 16 0z"/><path fill="#4C6FFF" fill-rule="evenodd" d="M108.5 461.679a20.003 20.003 0 0 0-20 0L40 489.681a20 20 0 0 0-10 17.32v56.003a20 20 0 0 0 10 17.321l48.5 28.001a19.998 19.998 0 0 0 20 0l48.5-28.001a20 20 0 0 0 10-17.321v-56.003a20 20 0 0 0-10-17.32l-48.5-28.002zm-20 15.82a19.998 19.998 0 0 1 20 0l34.8 20.092a19.999 19.999 0 0 1 10 17.32v40.184a19.999 19.999 0 0 1-10 17.32l-34.8 20.092a19.998 19.998 0 0 1-20 0l-34.8-20.092a19.999 19.999 0 0 1-10-17.32v-40.184a19.999 19.999 0 0 1 10-17.32l34.8-20.092z" clip-rule="evenodd"/><path fill="#05BAD1" stroke="#fff" stroke-dasharray="4 4" stroke-width="2" d="M38.39 186.24a14.943 14.943 0 0 1-1.11-1.11l-.743.669a15.919 15.919 0 0 1-1.964-2.705l.866-.5a15.008 15.008 0 0 1-1.274-2.865l-.95.309a16.043 16.043 0 0 1-.695-3.272l.994-.105a15.003 15.003 0 0 1 0-3.136l-.995-.104c.116-1.101.347-2.197.696-3.272l.95.309a15.1 15.1 0 0 1 .564-1.467l.825-1.855-.913-.407 1.65-3.71.914.407 1.65-3.711-.913-.406 1.65-3.711.913.407 1.651-3.711-.913-.406 1.65-3.711.913.407 1.651-3.71-.913-.407 1.65-3.71.913.406 1.65-3.71-.912-.407 1.65-3.71.913.406 1.65-3.71-.912-.406 1.65-3.711.913.407 1.65-3.711-.912-.406 1.65-3.711.913.407 1.65-3.711-.912-.406 1.65-3.71.913.406.826-1.855c.215-.483.453-.951.712-1.401l-.865-.5a15.937 15.937 0 0 1 1.965-2.708l.743.669a15.034 15.034 0 0 1 2.331-2.1l-.587-.809a15.985 15.985 0 0 1 2.897-1.674l.407.913a15.028 15.028 0 0 1 2.982-.971l-.208-.978a15.94 15.94 0 0 1 3.327-.35l-.001 1.001c.52 0 1.043.027 1.569.083l2.018.212.104-.995 4.036.425-.105.994 4.036.425.105-.995 4.035.425-.104.994 4.035.425.105-.995 4.036.425-.105.995 4.036.424.104-.995 4.036.425-.105.995 4.036.424.105-.995 4.035.425-.104.995 4.035.424.105-.995 4.036.425-.105.995 4.036.424.104-.994 4.036.424-.105.995 4.036.424.105-.994 4.035.424-.104.995 2.017.212c.526.056 1.043.138 1.551.246l.208-.979a15.97 15.97 0 0 1 3.179 1.033l-.407.914c.961.428 1.87.955 2.713 1.568l.588-.809a16.086 16.086 0 0 1 2.484 2.238l-.743.67a15.003 15.003 0 0 1 1.842 2.536l.866-.5c.552.957 1.01 1.98 1.358 3.055l-.95.309c.16.494.296 1.001.405 1.518l.422 1.986.978-.208.844 3.973-.978.209.844 3.973.978-.208.844 3.973-.978.208.844 3.974.977-.209.844 3.974-.978.208.844 3.973.978-.208.844 3.973-.978.209.844 3.973.978-.208.843 3.973-.977.208.843 3.974.978-.208.844 3.973-.978.208.844 3.974.978-.209.844 3.974-.978.208.844 3.973.977-.208.844 3.973-.978.209.422 1.986c.11.517.192 1.035.246 1.552l.994-.105c.119 1.125.117 2.246.001 3.346l-.994-.104a15.107 15.107 0 0 1-.653 3.069l.95.309a16.135 16.135 0 0 1-1.36 3.057l-.866-.5a15.011 15.011 0 0 1-1.843 2.539l.743.669a15.96 15.96 0 0 1-2.486 2.24l-.587-.81c-.42.306-.86.592-1.317.856l-1.757 1.015.499.867-3.513 2.03-.5-.866-3.514 2.03.5.867-3.514 2.03-.5-.866-3.514 2.031.5.866-3.514 2.03-.5-.866-3.514 2.031.5.866-3.514 2.031-.5-.867-3.514 2.031.5.866-3.514 2.031-.499-.866-3.514 2.03.499.866-3.514 2.031-.499-.866-3.514 2.03.499.866-3.514 2.031-.499-.866-3.514 2.03.5.867-3.514 2.03-.5-.866-1.757 1.015c-.458.265-.925.503-1.399.714l.406.914a15.898 15.898 0 0 1-3.18 1.035l-.207-.978c-1.03.219-2.076.327-3.118.327v1.001a16.092 16.092 0 0 1-3.327-.35l.208-.978c-1.02-.217-2.02-.54-2.981-.969l-.407.914a15.944 15.944 0 0 1-2.895-1.673l.588-.809c-.42-.306-.828-.636-1.22-.989l-1.508-1.359-.67.743-3.015-2.718.669-.744-3.016-2.718-.67.744-3.015-2.718.669-.744-3.016-2.718-.67.744-3.016-2.718.67-.744-3.016-2.718-.67.743-3.016-2.718.67-.743-3.017-2.718-.669.743-3.016-2.718.67-.743-3.017-2.718-.669.743-3.016-2.718.67-.743-3.017-2.719-.669.744-3.016-2.718.67-.744-3.017-2.718-.669.744-3.016-2.718.67-.744-1.509-1.359z"/><path stroke="#57B7E5" stroke-miterlimit="10" stroke-width="2" d="M160.572 518.92l.286 97.818 50.927-97.818v98.128l51.218-98.128v98.128l51.218-98.128v97.211l51.212-97.211H160.572zM160.841 420.236h204.592l-51.212 98.684v-95.565l-51.218 95.565v-95.565l-51.218 95.565v-95.565l-51.213 95.565.269-98.684z"/><path stroke="#57B7E5" stroke-miterlimit="10" stroke-width="2" d="M160 619.319l206.286.097v-200.04"/><path fill="#000" fill-rule="evenodd" d="M285.965 137.927c3.548 11.361-11.67 15.173-11.67 15.173s-16.538-10.294-35.938-21.399c-.471 0-.941.039-1.418.039a29.38 29.38 0 0 1-14.729-3.977 29.423 29.423 0 0 1-10.755-10.829l-1.379-.707a29.432 29.432 0 0 1-23.922 2.13 29.451 29.451 0 0 1-17.558-16.401 29.519 29.519 0 0 1 .473-24.034 29.477 29.477 0 0 1 18.19-15.696c7.965-4.578 7.534-18.018 7.534-18.018s43.341 13.63 46.282 24.42c.372 1.374.686 2.97.993 4.703a29.396 29.396 0 0 1 16.194 8.683 29.444 29.444 0 0 1 7.885 16.608c.039 0-.033 0 0 0 .47 6.232 10.454 7.88 11.108 8.175 7.475 1.916 12.258 6.971 14.257 14.8 1.209 4.885-.823 11.451-5.547 16.33z" clip-rule="evenodd"/><path fill="#FFB9B2" fill-rule="evenodd" d="M299.89 619.466l-36.429-2.943h-16.113c-10.017 7.45-25.484 17.109-28.097 7.966-2.3-8.051.17-14.846 5.573-34.754.222-10.464.301-17.658.301-17.658l30.214-.327.346 20.026 44.205 27.69z" clip-rule="evenodd"/><path fill="#4C6FFF" fill-rule="evenodd" d="M225.131 632.965c-14.316-4.369-10.487-19.208-10.487-19.208s2.613 1.537 19.341-2.211c2.045-.464 3.992-.974 5.881-1.523l-18.002-9.68 2.503-9.81 27.705 14.918c9.03-4.172 13.833-8.325 13.833-8.325s8.69 6.978 23.124 11.53c9.625 3.028 19.25 1.308 19.25 1.308l2.888 25.002s-8.684-.058-32.324-.058c-18.113.032-49.726-.726-53.712-1.943z" clip-rule="evenodd"/><path fill="#000" fill-rule="evenodd" d="M250.066 607.937a3.434 3.434 0 0 1 3.169 2.119 3.43 3.43 0 1 1-6.6 1.314 3.428 3.428 0 0 1 3.431-3.433zM225.131 572.365v-.301l30.215-.327.189 11.151c-11.128-5.193-23.771-8.809-30.404-10.523z" clip-rule="evenodd"/><path fill="#4C6FFF" fill-rule="evenodd" d="M259.919 315.543v256.495h-35.284l-13.722-255.377a24.42 24.42 0 0 1 3.978-14.715 24.385 24.385 0 0 1 11.926-9.483 24.565 24.565 0 0 1 22.569 2.894 24.611 24.611 0 0 1 10.533 20.186z" clip-rule="evenodd"/><path fill="#2D29C1" d="M236.423 572.391a.653.653 0 0 1-.654-.654l-8.88-238.373a.653.653 0 0 1 1.307 0l8.88 238.393a.655.655 0 0 1-.653.654v-.02z"/><path fill="#FFB9B2" fill-rule="evenodd" d="M125.719 571.411s-.568 5.036-2.529 18.763c2.117 20.523 5.483 26.265 3.182 34.316-3.92 13.734-59.611-7.998-59.611-7.998l23.222-23.067 6.182-22.668 29.554.654z" clip-rule="evenodd"/><path fill="#4C6FFF" fill-rule="evenodd" d="M115.323 617.126c8.39.968 14.154-.334 14.154-.334.699 8.071-.458 16.645-9.312 17.174l-1.96.118H75.589l-1.13-.065c-22.563-1.236-18.1-18.509-18.1-18.509a98.52 98.52 0 0 0 17.028-7.966 53.996 53.996 0 0 0 10.611-9.064c13.422-1.858 23.733 6.697 23.733 6.697l15.682-12.466 2.509 9.372-15.277 12.243.209.654a7.394 7.394 0 0 0 4.469 2.146z" clip-rule="evenodd"/><path fill="#000" fill-rule="evenodd" d="M107.293 607.937a3.424 3.424 0 0 1 3.169 2.12 3.43 3.43 0 1 1-6.6 1.314 3.437 3.437 0 0 1 3.431-3.434zM125.719 571.411s-.339 2.995-1.385 10.601c-10.801-7.351-23.098-10.464-26.647-11.222l28.032.621z" clip-rule="evenodd"/><path fill="#4C6FFF" fill-rule="evenodd" d="M205.104 315.759l-72.569 255.626H95.29l57.553-264.272a27.968 27.968 0 0 1 16.431-19.818 27.928 27.928 0 0 1 25.649 2.029 23.539 23.539 0 0 1 9.508 11.513 23.574 23.574 0 0 1 .673 14.922z" clip-rule="evenodd"/><path fill="#4C6FFF" fill-rule="evenodd" d="M156.803 152.512a14.246 14.246 0 0 1-2.392-19.443 52.668 52.668 0 0 1 24.889-18.967l21.877-7.959s9.801 7.848 19.602 8.502c9.802.654 12.527-9.81 12.527-9.81l15.133 4.787a34.494 34.494 0 0 1 16.924 10.917 34.546 34.546 0 0 1 7.952 18.514l17.381 49.508h-28.098v127.355c6.535.713 5.535 7.018 5.535 7.94 0 2.433-26.535 4.401-59.272 4.401-31.214 0-62.683-1.805-62.683-3.649l14.003-56.899h8.41l2.195-24.538 10.782-29.378-9.018-48.299-15.747-12.982z" clip-rule="evenodd"/><path fill="#2D29C1" d="M205.744 328.885c-32.854 0-56.233-1.89-59.866-3.721a.658.658 0 0 1-.288-.876.651.651 0 0 1 .876-.295c3.417 1.727 27.051 3.584 59.278 3.584 20.106 0 38.075-.719 49.294-1.962a.657.657 0 1 1 .151 1.308c-11.259 1.243-29.293 1.962-49.445 1.962zm-.699-136.374h-6.854a.653.653 0 1 1 0-1.308h6.847a8.489 8.489 0 0 0 6.007-2.49 8.505 8.505 0 0 0 2.488-6.012v-19.496c-.725.105-1.679.203-2.914.288-2.823.203-6.535.314-10.54.314-4.006 0-7.724-.111-10.546-.314-4.228-.301-5.541-.654-5.541-2.054a.652.652 0 1 1 1.307 0 .217.217 0 0 0 0 .072c.143.17 1.019.439 4.319.654 2.796.197 6.534.308 10.454.308 3.921 0 7.658-.111 10.455-.308a27.964 27.964 0 0 0 3.522-.405.64.64 0 0 1 .549.131.65.65 0 0 1 .242.51v20.274a9.832 9.832 0 0 1-2.859 6.952 9.813 9.813 0 0 1-6.936 2.884zm26.052-47.945a1.306 1.306 0 0 1-.778-.255l-32.409-23.943c-2.118-1.655-4.222-4.611-3.784-7.946.418-3.192 2.614-5.736 6.574-7.561a.654.654 0 1 1 .549 1.19c-3.509 1.622-5.47 3.826-5.829 6.541-.359 2.714 1.457 5.317 3.267 6.742l32.41 23.924 12.689-24.754a6.596 6.596 0 0 0 1.098-3.578c0-5.5-6.358-8.397-11.69-9.849a.679.679 0 0 1-.228-.114.651.651 0 0 1-.229-.69.65.65 0 0 1 .797-.458c8.286 2.256 12.657 6.102 12.657 11.118a7.848 7.848 0 0 1-1.307 4.231l-12.657 24.702a1.304 1.304 0 0 1-.869.654 1.108 1.108 0 0 1-.261.046z"/><path fill="#FFB9B2" fill-rule="evenodd" d="M287.84 316.387c-.399 1.863-2.45 4.65-6.149 6.062-1.568 2.302-6.286 3.499-8.239 2.78-3.222 3.002-6.162 2.662-7.645 1.864-11.305 1.962-9.286-5.703-9.286-5.703l-.45-8.699c-2.732 1.681-4.574 1.047-4.574 1.047s2.613-5.801 3.861-20.549c.516-6.226 3.954-9.117 6.914-10.464l.124-55.591 23.007-.49v53.955c4.528 13.819 3.953 28.672 2.437 35.788z" clip-rule="evenodd"/><path fill="#000" d="M265.807 327.746a.676.676 0 0 1-.425-.15.657.657 0 0 1-.23-.445.644.644 0 0 1 .151-.477c2.34-2.793 3.705-7.129 3.744-11.89a.652.652 0 0 1 .654-.654.653.653 0 0 1 .653.654c-.039 5.069-1.516 9.705-4.051 12.72a.653.653 0 0 1-.496.242zm8.135-1.844a.659.659 0 0 1-.632-.501.655.655 0 0 1 .076-.493c1.261-2.04 2.777-5.572 2.823-10.798a.657.657 0 0 1 .653-.654.653.653 0 0 1 .654.654c-.046 5.533-1.666 9.294-3.019 11.478a.653.653 0 0 1-.555.314zm7.749-2.792a.649.649 0 0 1-.624-.455.647.647 0 0 1 .043-.5 22.125 22.125 0 0 0 2.293-10.013.687.687 0 0 1 .654-.654c.173 0 .339.069.462.191a.657.657 0 0 1 .191.463 23.435 23.435 0 0 1-2.444 10.601.657.657 0 0 1-.575.367zm-21.02-5.004h-.092a.655.655 0 0 1-.562-.732c.476-4.203.695-8.432.654-12.662a.648.648 0 0 1-.275-.052 17.784 17.784 0 0 1-4.221 8.639.653.653 0 0 1-1.134-.419.654.654 0 0 1 .174-.47 16.694 16.694 0 0 0 3.92-7.946c.023-.172.08-.337.168-.486a1.307 1.307 0 0 1 1.309-.633.89.89 0 0 1 .215.059 1.307 1.307 0 0 1 1.183 1.308c.038 4.289-.18 8.576-.653 12.838a.656.656 0 0 1-.686.55v.006z"/><path fill="#4C6FFF" fill-rule="evenodd" d="M186.965 129.223a17.355 17.355 0 0 1-1.307 17.907l-31.286 43.949s.327 1.08-7.187-5.48c-7.515-6.56-19.302-12.459-19.302-12.459l-1.784-1.655 28.312-38.416a52.929 52.929 0 0 1 7.645-8.581 16.001 16.001 0 0 1 13.623-3.773 15.995 15.995 0 0 1 11.292 8.508h-.006z" clip-rule="evenodd"/><path fill="#000" fill-rule="evenodd" d="M141.343 179.287c7.579 5.232 13.643 10.903 13.035 11.772-.607.87-8.226-3.015-15.812-8.214-7.587-5.199-13.069-10.464-12.455-11.38.615-.915 7.613 2.616 15.232 7.822z" clip-rule="evenodd"/><path fill="#FFB9B2" fill-rule="evenodd" d="M194.459 271.261c.552-4.056.708-8.157.464-12.243-.32-6.756-7.188-12.315-12.683-15.696l-32.841-47.887c0-.275.039-.549.039-.831a12.508 12.508 0 0 0-3.352-8.453 12.491 12.491 0 0 0-8.187-3.944 12.48 12.48 0 0 0-8.692 2.651 12.508 12.508 0 0 0-4.599 7.843 1.208 1.208 0 0 0-.045.223v.529a19.63 19.63 0 0 0 3.763 13.355l34.553 49.535c-.072 10.667-.052 19.372.909 24.813.326 1.89 3.005 5.297 6.671 6.847 2.215 2.387 5.881 2.616 7.462 2.571 4.006 2.485 7.345 1.922 10.363 2.478 6.417 1.177 6.809-5.716 6.809-5.716l.974-11s-.791-2.119-1.608-5.075z" clip-rule="evenodd"/><path fill="#FFB9B2" fill-rule="evenodd" d="M140.938 179.823c-2.614-1.779-4.921-3.27-6.894-4.395l-7.73 12.583a12.507 12.507 0 0 0-1.426 9.896 12.504 12.504 0 0 0 6.275 7.778 12.484 12.484 0 0 0 14.32-1.97 12.516 12.516 0 0 0 2.93-4.18l4.887-9.365c-1.418-1.786-5.946-5.945-12.362-10.347z" clip-rule="evenodd"/><path fill="#4C6FFF" fill-rule="evenodd" d="M161.782 267.663s2.254.771 15.068.771c12.813 0 19.472.654 19.472.098v32.217c0 2.859-1.127 5.603-3.135 7.635a10.841 10.841 0 0 1-7.594 3.221l-33.325.38 9.514-44.322z" clip-rule="evenodd"/><path fill="#5347E9" d="M185.972 311.926h-11.037a.653.653 0 0 1 0-1.308h11.037a9.708 9.708 0 0 0 6.853-2.847 9.728 9.728 0 0 0 2.844-6.859v-31.719h-5.228c-5.11 0-22.321-.066-29.358-.909a.666.666 0 0 1-.438-.244.654.654 0 0 1-.137-.482.651.651 0 0 1 .732-.569c6.965.83 24.111.896 29.201.896 2.346 0 4.378 0 5.881-.033a.656.656 0 0 1 .66.654v32.38a11.021 11.021 0 0 1-11.01 11.04z"/><path fill="#000" fill-rule="evenodd" d="M222.165 21.213a27.659 27.659 0 0 1 15.377 4.67 27.698 27.698 0 0 1 10.195 12.432 27.726 27.726 0 0 1-6 30.192 27.654 27.654 0 0 1-30.164 6.005 27.68 27.68 0 0 1-12.422-10.203 27.717 27.717 0 0 1-4.665-15.392 27.716 27.716 0 0 1 8.107-19.59 27.667 27.667 0 0 1 19.572-8.114z" clip-rule="evenodd"/><path fill="#FFB9B2" fill-rule="evenodd" d="M241.238 81.977c-5.064 4.46-8.018 5.278-8.018 5.278s.092 10.464.17 20.536c3.47 1.105 5.613 2.616 5.613 4.33a2.34 2.34 0 0 1-.47 1.308l-9.867 19.62-26.3-18.476s-1.484-.942-1.686-2.008l2.045-49.214.32-1.458a4.851 4.851 0 0 1-1.241.163 4.998 4.998 0 0 1-3.656-1.4 5.011 5.011 0 0 1 3.656-8.612h.183c.758.379 1.568.797 2.424 1.275 8.442-1.38 7.926-5.075 9.252-10.464 0 0 3.098-5.291 22.177-4.794 11.226.288 13.657 6.658 13.657 6.658s4.633 25.898-8.259 37.258z" clip-rule="evenodd"/><path fill="#000" fill-rule="evenodd" d="M233.221 87.432c0 .804.039 4.578.078 9.444-19.87-3.401-24.608-19.62-24.608-19.62a36.134 36.134 0 0 0 11.625 7.75c3.966 1.615 9.128 2.21 12.905 2.426z" clip-rule="evenodd"/><path fill="#000" d="M234.43 69.82c-.987.065-4.182-.288-6.143-2.139a.658.658 0 0 1 0-.929.656.656 0 0 1 .922 0c1.842 1.74 5.012 1.806 5.227 1.806a.656.656 0 0 1 .052 1.307l-.058-.045zm-1.823-4.814a.651.651 0 0 1-.654-.654.653.653 0 0 1 .654-.654 3.264 3.264 0 0 0 2.875-1.425c.921-1.505.758-4.252-.412-6.835a.657.657 0 0 1 .323-.867.653.653 0 0 1 .866.324c1.359 3.015 1.49 6.18.333 8.064-.79 1.308-2.117 1.962-3.92 2.047h-.065zm-28.039-6.978a.612.612 0 0 1-.313-.085l-4.052-2.224a.66.66 0 0 1 .154-1.208.659.659 0 0 1 .5.064l4.044 2.223a.655.655 0 0 1-.313 1.23h-.02zm35.331-4.676a.652.652 0 0 1-.543-.347.655.655 0 0 1 .249-.89l4.031-2.262a.658.658 0 0 1 .96.74.655.655 0 0 1-.306.398l-4.032 2.263a.652.652 0 0 1-.359.098zm-19.028 0a.652.652 0 0 1-.594-.918.649.649 0 0 1 .287-.312l4.195-2.263a.653.653 0 0 1 .614 1.151l-4.188 2.263a.655.655 0 0 1-.314.072v.007zm-1.464-7.489a.653.653 0 0 1-.689-.618.657.657 0 0 1 .618-.69l8.442-.968a.648.648 0 0 1 .647.332.655.655 0 0 1-.497.97l-8.442.968-.079.006zm18.296 0a.653.653 0 0 1-.689-.618.652.652 0 0 1 .617-.69l8.443-.968a.648.648 0 0 1 .647.332.655.655 0 0 1-.497.97l-8.442.968-.079.006z"/><path fill="#000" d="M241.525 55.504a1.967 1.967 0 0 0 1.967-1.969 1.967 1.967 0 1 0-1.967 1.969zM222.452 56.033a1.968 1.968 0 1 0-.002-3.936 1.968 1.968 0 0 0 .002 3.936z"/><path fill="#88ADE6" d="M414.578 252.713h-94.093v126.041h94.093V252.713z"/><path fill="#000" d="M405.731 239.756h-70.256v40.47h70.256v-40.47z"/><path fill="#05BAD1" fill-rule="evenodd" d="M316.349 113.481h103.443v126.06H316.349v-126.06z" clip-rule="evenodd"/><path fill="#FFB9B2" fill-rule="evenodd" d="M418.649 582.025l5.554 25.833s-17.969 8.175-29.404 4.905c-11.435-3.27-2.614-31.719-2.614-31.719l26.464.981z" clip-rule="evenodd"/><path fill="#000" fill-rule="evenodd" d="M421.4 587.983s-4.574 1.105-7.26 6.808a10.416 10.416 0 0 0-.425 7.253s-6.743 8.568-14.27 2.289c-9.318-7.77-11.109-7.541-11.109-7.541s-9.069 18.221-4.769 32.701c1.731 5.834 30.344 4.938 48.098 4.689 61.226-.85 67.224-4.617 67.224-4.617s-2.444-6.756-20.772-9.745c-7.044-1.158-56.717-31.837-56.717-31.837z" clip-rule="evenodd"/><path fill="#000" fill-rule="evenodd" d="M387.383 253.654c15.205-8.849 34.278 2.132 34.278 19.751v314.63h-30.808l-12.239-318.436a17.664 17.664 0 0 1 8.769-15.945z" clip-rule="evenodd"/><path fill="#fff" fill-rule="evenodd" d="M441.506 611.945a.65.65 0 0 1-.619-.436.656.656 0 0 1 .207-.728 44.767 44.767 0 0 1 9.207-5.461l1.45.85a45.344 45.344 0 0 0-9.801 5.625.653.653 0 0 1-.444.15zm-6.123-3.584a.653.653 0 0 1-.405.151.658.658 0 0 1-.619-.436.656.656 0 0 1 .207-.728 44.691 44.691 0 0 1 9.599-5.625l1.438.85a46.234 46.234 0 0 0-10.22 5.788z" clip-rule="evenodd"/><path fill="#4C6FFF" fill-rule="evenodd" d="M383.038 628.787H500V635H383.038v-6.213z" clip-rule="evenodd"/><path fill="#FFB9B2" fill-rule="evenodd" d="M345.466 579.409l3.267 26.487s-14.049 7.194-25.484 3.924c-11.435-3.27-5.88-29.757-5.88-29.757l28.097-.654z" clip-rule="evenodd"/><path fill="#000" fill-rule="evenodd" d="M315.852 588.199s14.278-1.74 17.362 13.688a33.303 33.303 0 0 0 14.153-4.866s6.299 13.08 5.587 31.726c-25.601 0-72.766.059-72.766.059s-.071-4.892 19.714-15.363c12.422-8.979 15.95-25.244 15.95-25.244z" clip-rule="evenodd"/><path fill="#000" fill-rule="evenodd" d="M358.645 269.599l-12.232 318.423h-30.809V273.405c0-17.606 19.067-28.587 34.279-19.738a17.663 17.663 0 0 1 8.762 15.932z" clip-rule="evenodd"/><path fill="#fff" fill-rule="evenodd" d="M323.321 611.187a.655.655 0 0 1-.275 1.249.582.582 0 0 1-.274-.065c-9.298-4.33-16.721-2.741-19.256-1.962a35.225 35.225 0 0 0 1.744-1.805c3.666-.733 10.181-1.093 18.061 2.583zm2.666-3.983a.607.607 0 0 1-.281-.065c-7.56-3.525-13.879-3.133-17.342-2.44.359-.51.699-1.02 1.026-1.53 3.803-.563 9.801-.517 16.871 2.786a.655.655 0 0 1-.274 1.249z" clip-rule="evenodd"/><path fill="#4C6FFF" fill-rule="evenodd" d="M278.816 628.787h74.817V635h-74.817v-6.213z" clip-rule="evenodd"/><path fill="#88ADE6" fill-rule="evenodd" d="M313.336 111.983h-2.371a21.032 21.032 0 0 0-14.878 6.168 21.068 21.068 0 0 0 0 29.782 21.032 21.032 0 0 0 14.878 6.168 8.242 8.242 0 0 0 1.215-.092l2.13 41.026.059 62.308-7.613 1.844 7.665 51.163.079 74.989a28.593 28.593 0 0 0 20.228-8.387 28.646 28.646 0 0 0 8.378-20.246V111.983h-29.77zM421.929 111.99h-4.933l-24.327.477.653 244.246a28.643 28.643 0 0 0 8.379 20.246 28.593 28.593 0 0 0 20.228 8.387v-90.358l-.888-140.88h.888c5.58 0 10.932-2.219 14.878-6.168a21.069 21.069 0 0 0 6.162-14.891 21.067 21.067 0 0 0-6.162-14.891 21.03 21.03 0 0 0-14.878-6.168z" clip-rule="evenodd"/><path fill="#5347E9" d="M419.982 312.521h-4.3a12.327 12.327 0 0 1-8.696-3.605 12.345 12.345 0 0 1-3.621-8.697l.274-39.587a.654.654 0 0 1 .654-.654c.111 0 10.814-.209 15.029-.595a.66.66 0 0 1 .712.595.654.654 0 0 1-.595.706c-3.672.34-12.114.537-14.499.589l-.268 38.946a11.036 11.036 0 0 0 3.226 7.786 11.018 11.018 0 0 0 7.778 3.234h4.299a.652.652 0 0 1 .653.654.655.655 0 0 1-.653.654l.007-.026zm-100.026 0h-5.025a.652.652 0 0 1-.654-.654.654.654 0 0 1 .654-.654h5.025a11.013 11.013 0 0 0 7.77-3.223 11.027 11.027 0 0 0 3.233-7.771v-38.946h-.653c-5.737 0-11.448-.242-15.682-.654a.652.652 0 0 1-.523-.953.658.658 0 0 1 .64-.349c4.189.386 9.861.609 15.565.622 1.117 0 1.921 0 1.921.771v39.509a12.346 12.346 0 0 1-3.604 8.68 12.325 12.325 0 0 1-8.667 3.622z"/><path fill="#5347E9" fill-rule="evenodd" d="M314.369 257.35c-4.822.294-7.737.922-7.737 1.563 0 .641 3.411 1.425 8.09 1.72l-.353-3.283z" clip-rule="evenodd"/><path fill="#000" fill-rule="evenodd" d="M367.989 91.728c11.958 0 22.144 1.7 22.144 3.8 0 2.1-10.186 3.8-22.144 3.8-11.958 0-22.341-1.446-22.341-3.545 0-2.1 10.39-4.055 22.341-4.055z" clip-rule="evenodd"/><path fill="#FFB9B2" fill-rule="evenodd" d="M387.415 52.619c-.488 0-.974-.068-1.444-.203v7.783h.066v51.215h-36.024v-32.25a13.09 13.09 0 0 1-7.841-11.975V30.697c0-3.469 1.377-6.796 3.828-9.249a13.063 13.063 0 0 1 9.241-3.83h17.642c3.466 0 6.79 1.377 9.241 3.83a13.086 13.086 0 0 1 3.828 9.25v11.477a5.215 5.215 0 0 1 1.444-.203 5.319 5.319 0 0 1 5.319 5.324 5.319 5.319 0 0 1-5.319 5.324h.019z" clip-rule="evenodd"/><path fill="#000" fill-rule="evenodd" d="M350.014 79.309a14.49 14.49 0 0 0 5.769 1.19h4.94l-10.709 10.28V79.31zM387.03 41.932l-8.22 7.495V25.883c.028-.25.043-.501.045-.752a6.543 6.543 0 0 0-3.345-5.681 6.527 6.527 0 0 0-6.587.122l-.594.085c-12.938 7.514-17.61 8.724-17.61 8.724s0-.091-.059-.229a10.254 10.254 0 0 1-12.089-2.602 10.278 10.278 0 0 1 2.318-15.424 10.262 10.262 0 0 1 4.132-1.483 8.92 8.92 0 0 1 3.822-7.054 8.898 8.898 0 0 1 7.94-1.114c28.365 5.094 30.247 19.136 30.247 25.061 0 4.081.045 16.448 0 16.396z" clip-rule="evenodd"/><path fill="#F8F9FD" d="M350.144 14.417a3.481 3.481 0 0 1-.654-.052c-2.378-.425-5.038-3.342-5.645-5.474a.653.653 0 0 1 .242-.706.403.403 0 0 1 0-.085.652.652 0 0 1 .588-.713c2.45-.236 6.952.98 8.167 3.12a2.258 2.258 0 0 1-.196 2.563 3.034 3.034 0 0 1-2.502 1.347zm-4.979-5.748c.575 1.72 2.777 4.087 4.574 4.408a1.762 1.762 0 0 0 1.862-.779.958.958 0 0 0 .104-1.144c-.79-1.393-4.253-2.525-6.54-2.46V8.67z"/><path fill="#000" d="M366.551 47.308a2.145 2.145 0 1 0-.001-4.289 2.145 2.145 0 0 0 .001 4.29zM348.282 47.308c1.184 0 2.143-.96 2.143-2.145a2.144 2.144 0 1 0-4.286 0c0 1.185.959 2.145 2.143 2.145z"/><path fill="#000" d="M357.442 61.16a.654.654 0 0 1 0-1.308s3.679-.4 4.764-2.57a.654.654 0 1 1 1.17.581c-1.379 2.767-5.352 3.27-5.803 3.27l-.131.027zm-4.325-4.781a.65.65 0 0 1-.654-.654V52.01a3.643 3.643 0 0 1-2.358.863h-10.266a3.676 3.676 0 0 1-3.672-3.675v-10.55a.656.656 0 0 1 .653-.653h16.297a.654.654 0 0 1 .653.654v16.095l2.888-1.19a.652.652 0 0 1 .891.853.662.662 0 0 1-.388.35l-3.789 1.57a.595.595 0 0 1-.255.052zm-15.643-17.076v9.895a2.367 2.367 0 0 0 2.365 2.367h10.266a2.357 2.357 0 0 0 2.358-2.308v-9.954h-14.989zm35.37 13.57h-10.266a3.676 3.676 0 0 1-3.672-3.675v-10.55a.656.656 0 0 1 .654-.653h16.302a.65.65 0 0 1 .654.654v10.549a3.676 3.676 0 0 1-3.672 3.675zm-12.605-13.57v9.895a2.367 2.367 0 0 0 2.365 2.367h10.266a2.373 2.373 0 0 0 2.365-2.367v-9.895h-14.996zm23.602 10.51a.657.657 0 0 1-.637-.791.657.657 0 0 1 .186-.334l3.077-2.943a.655.655 0 1 1 .902.948l-3.084 2.943a.654.654 0 0 1-.47.177h.026zm-12.618-6.142a.653.653 0 0 1-.503-.235c-.092-.111-2.176-2.616-5.319-2.204a.66.66 0 0 1-.17-1.308c3.869-.49 6.391 2.544 6.495 2.675a.65.65 0 0 1 .121.225.658.658 0 0 1-.65.847h.026zm-27.28 0a.65.65 0 0 1-.652-.593.644.644 0 0 1 .149-.48c.267-.32 2.724-3.138 6.488-2.667a.658.658 0 0 1-.163 1.308c-3.13-.4-5.228 2.099-5.319 2.204a.652.652 0 0 1-.542.228h.039z"/><path fill="#05BAD1" fill-rule="evenodd" d="M392.669 113.827s-14.238 4.212-27.013 4.212c-11.108 0-22.549-2.871-22.549-2.871l-.098-19.555c0-2.55 3.646-3.741 7.011-4.48v2.27c-2.614.653-4.156 1.399-4.156 2.236 0 2.093 9.691 3.793 21.648 3.793 11.958 0 21.641-1.7 21.641-3.793 0-.72-1.136-1.393-3.116-1.962v-2.29c2.927.76 6.632 1.963 6.632 4.258.072-.13 0 18.182 0 18.182z" clip-rule="evenodd"/><path fill="#000" d="M367.349 117.843c-15.454 0-24.909-3.794-24.909-5.886a.654.654 0 0 1 .611-.697.66.66 0 0 1 .475.161c.13.115.21.277.221.451.654 1.151 8.874 4.636 23.608 4.636 18.95 0 24.478-3.956 24.778-4.735a.654.654 0 1 1 1.261.354c-.483 1.883-7.534 5.716-26.045 5.716zm.209-18.313c-10.409 0-21.641-1.451-21.641-3.793a.659.659 0 0 1 1.306-.157c.811.811 7.554 2.616 20.354 2.616 13.173 0 19.028-1.91 19.695-2.616a.661.661 0 0 1 .466-.562.661.661 0 0 1 .698.217.67.67 0 0 1 .142.483c-.032 2.19-9.252 3.858-21.02 3.858v-.046z"/><path fill="#88ADE6" fill-rule="evenodd" d="M315.252 112.952a19.58 19.58 0 0 0-13.439 1.045 19.612 19.612 0 0 0-9.588 9.484l-48.216 88.729c-.091.17-.189.34-.274.51l-.066.118a20.775 20.775 0 0 0 2.843 23.269 20.718 20.718 0 0 0 14.551 7.02 20.723 20.723 0 0 0 15.168-5.557 20.752 20.752 0 0 0 4.788-6.714l46.615-90.43a19.639 19.639 0 0 0 .236-16.639 19.617 19.617 0 0 0-12.618-10.835z" clip-rule="evenodd"/><path fill="#4C6FFF" fill-rule="evenodd" d="M335.37 230.483l-52.528-32.347-24.536-60.208 52.528 32.341 70.256-17.946 24.556 60.214-70.276 17.946z" clip-rule="evenodd"/><path fill="#4D5EF3" fill-rule="evenodd" d="M310.625 170.151l24.745 60.332-52.528-32.347-24.536-60.208 52.319 32.223z" clip-rule="evenodd"/><path fill="#000" fill-rule="evenodd" d="M301.19 202.119c1.62-.078 3.306 7.449 3.77 16.815.464 9.365-.451 17.416-2.071 17.495-1.621.078-3.326-7.849-3.79-17.207-.464-9.359.477-17.031 2.091-17.103zM289.409 201.824c1.646-.117 3.646 8.895 4.476 20.131.829 11.236-.771 20.523-2.412 20.64-1.64.118-4.273-9.398-5.103-20.634-.83-11.236 1.399-20.012 3.039-20.137z" clip-rule="evenodd"/><path fill="#88ADE6" fill-rule="evenodd" d="M286.677 221.877c0-3.617-.483-15.592 2.653-21.014l-26.333.765h-.895a20.732 20.732 0 0 0-14.907 5.949 20.763 20.763 0 0 0-6.207 14.813 20.763 20.763 0 0 0 13.063 19.288 20.713 20.713 0 0 0 8.051 1.473 21.4 21.4 0 0 0 3.267-.255h25.608c-1.307-1.798-4.3-11.235-4.3-21.019z" clip-rule="evenodd"/><path fill="#5347E9" d="M263.01 202.283h-.908a.653.653 0 0 1 0-1.308h.928l25.791-.38a.653.653 0 0 1 0 1.308l-25.811.38z"/><path fill="#FFB9B2" fill-rule="evenodd" d="M374.778 201.74s-3.633 5.01-7.312 9.555c-1.685 2.302-3.267 4.388-4.09 5.363-3.437 4.009-8.651 7.92-11.886 9.483-11.722 5.657-25.104 5.454-33.723 4.833l-29.142.118v-27.541l12.885-1.36c-.314-9.156-.542-11.641-.542-11.641s3.201-2.884 8.377 5.291c8.572 13.557 25.744 7.462 30.442 4.911 7.397-9.359 11.017-9.496 14.716-7.704 0 0-1.373 2.413-2.974 4.971 2.745-1.308 5.836-1.263 9.462-1.073a21.006 21.006 0 0 1-2.006 3.924c2.503-.817 6.469-1.472 8.181-1.151 0 0 .131.844-1.483 3.362 3.169-1.348 5.299-1.537 9.095-1.341z" clip-rule="evenodd"/><path fill="#05BAD1" fill-rule="evenodd" d="M298.988 215.696c-.039-5.376.778-10.935 2.17-13.584l-11.063.092c-.492-.003-.983.03-1.47.098-1.215 0-1.96 6.985-1.908 16.383.072 9.117 1.816 17.292 2.986 17.717l12.317-.105c-1.15-2.243-2.953-11.131-3.032-20.601z" clip-rule="evenodd"/><path fill="#000" d="M346.387 220.902a.655.655 0 0 1-.143-1.295c4.841-1.007 8.853-5.154 10.173-6.54l.229-.236c1.183-1.203 4.019-4.983 7.985-10.654.077-.244.228-.459.431-.614l.856-1.243a12.79 12.79 0 0 0-5.881 1.452 1.285 1.285 0 0 1-.3.098.659.659 0 0 1-.683-.267.654.654 0 0 1 .382-1.008 14.474 14.474 0 0 1 7.756-1.57.652.652 0 0 1 .614.693.651.651 0 0 1-.111.321c-.398.582-.967 1.399-1.627 2.348a.647.647 0 0 1-.196.183.652.652 0 0 1-.104.242c-2.856 4.094-6.593 9.3-8.188 10.915l-.215.229c-1.385 1.478-5.62 5.821-10.847 6.933a.525.525 0 0 1-.131.013zm13.069-20.275l.17.622-.105-.654-.065.032zm-19.668 17.188a.669.669 0 0 1-.479-.153.646.646 0 0 1-.23-.446.642.642 0 0 1 .152-.478.64.64 0 0 1 .446-.231c5.39-.922 5.88-1.413 10.454-6.063l.353-.36c1.882-1.909 7.188-9.457 9.429-12.733-2.182-.425-5.175-.275-7.188.889a.65.65 0 0 1-.862-.196c-2.614 3.689-6.044 8.502-7.547 9.993-4.986 5.069-5.757 5.847-11.722 6.867a.651.651 0 0 1-.667-.296.653.653 0 0 1 .444-.992c5.554-.948 6.071-1.478 11.017-6.494 1.96-1.962 7.782-10.307 10.599-14.441a.654.654 0 0 1 1.186.247.654.654 0 0 1-.102.492c-.111.157-1.032 1.504-2.306 3.336a13.052 13.052 0 0 1 8.442-.439.661.661 0 0 1 .425.413.65.65 0 0 1-.079.582c-2.352 3.42-8.037 11.589-10.115 13.695l-.346.353c-4.646 4.715-5.358 5.441-11.174 6.435l-.13.02zm-33.978-4.317a.653.653 0 0 1-.379-.124c-.092-.065-2.222-1.674-3.267-7.698-1.039-5.886-1.752-14.126-1.836-15.042a.649.649 0 0 1 .353-.643.651.651 0 0 1 .953.519c.079.916.791 9.097 1.817 14.931.954 5.402 2.757 6.867 2.777 6.88a.652.652 0 0 1-.113 1.101.657.657 0 0 1-.299.063l-.006.013zm60.611-9.758a.65.65 0 0 1-.639-.506.658.658 0 0 1 .352-.736 15.017 15.017 0 0 1 8.71-1.393.657.657 0 1 1-.144 1.308 13.785 13.785 0 0 0-7.985 1.262.642.642 0 0 1-.287.052l-.007.013z"/><path fill="#000" d="M302.85 237.083c-.81 0-1.862-.707-2.927-5.579a78.307 78.307 0 0 1-1.477-12.256c0-.72-.83-17.613 2.712-17.789a.654.654 0 1 1 .065 1.308c-.778.392-1.96 6.219-1.47 16.415.516 10.393 2.3 16.239 3.156 16.593.173 0 .339.069.462.191a.657.657 0 0 1 0 .925.653.653 0 0 1-.462.192h-.059zM291.454 243.249c-2.725 0-5.077-12.275-5.737-21.242-.758-10.32 1.045-20.64 3.646-20.83a.663.663 0 0 1 .476.157.647.647 0 0 1 .226.448.644.644 0 0 1-.031.254.638.638 0 0 1-.327.381.66.66 0 0 1-.246.068c-1.091.464-3.267 8.502-2.437 19.437.849 11.517 3.352 19.457 4.456 20.026a.655.655 0 0 1 .039 1.308l-.065-.007z"/><path fill="#88ADE6" fill-rule="evenodd" d="M461.226 293.955V157.784c0-21.707-14.924-45.781-39.297-45.781a21.032 21.032 0 0 0-14.595 5.965 21.072 21.072 0 0 0-.908 29.246 21.029 21.029 0 0 0 14.196 6.861l-.104 27.057-.105 28.547.862 85.309c2.503 1.066 10.338 1.838 19.603 1.838 11.298 0 20.452-1.544 20.452-2.963.013-.118-.026.183-.104.092z" clip-rule="evenodd"/><path fill="#FFB9B2" fill-rule="evenodd" d="M427.117 302.502a46.341 46.341 0 0 1 5.822-5.173c2.522.151 5.319.229 8.259.229 3.169 0 6.169-.092 8.835-.262.397.699.74 1.427 1.025 2.178 6.162 16.35 5.541 34.663 3.725 43.204-.451 2.106-3.594 5.821-7.776 7.416-2.613 2.616-6.684 2.682-8.494 2.577-4.574 2.616-8.318 1.858-11.762 2.355-7.253 1.053-7.403-6.691-7.403-6.691l-.51-9.81c-3.084 1.897-5.142 1.184-5.142 1.184s2.966-6.54 4.365-23.224c.653-7.567 5.07-10.778 8.559-12.138.321-1.158.497-1.845.497-1.845z" clip-rule="evenodd"/><path fill="#05BAD1" fill-rule="evenodd" d="M440.467 297.12c4.636.029 9.27-.211 13.878-.72v11.079c.347.177.556.36.556.55 0 1.216-7.613 2.204-16.989 2.204-9.115 0-16.532-.929-16.989-2.1h-.105v-12.988c2.261 1.151 10.187 1.975 19.649 1.975z" clip-rule="evenodd"/><path fill="#000" d="M436.945 311.24c-4.074.028-8.146-.19-12.193-.654-4.489-.582-5.228-1.308-5.228-2.714v-.092a.653.653 0 0 1 1.307 0v.105c0 .347 0 .87 4.084 1.4 7.99.863 16.05.863 24.039 0 4.333-.556 4.98-1.217 4.98-1.557a.65.65 0 0 1 .653-.654.653.653 0 0 1 .653.654c0 1.504-1.659 2.276-6.116 2.858-4.043.463-8.11.682-12.179.654zm3.424-13.734c-8.077 0-21.629-.523-21.629-4.029a.652.652 0 0 1 .654-.654.653.653 0 0 1 .653.654c0 1.308 7.769 2.721 20.322 2.721 12.552 0 20.321-1.413 20.321-2.721a.655.655 0 0 1 .653-.654.652.652 0 0 1 .654.654c0 3.473-13.546 4.009-21.628 4.009v.02zM429.724 355.437a.648.648 0 0 1-.582-.357.66.66 0 0 1 .086-.722 17.532 17.532 0 0 0 3.398-6.723c.601-2.22.909-4.509.914-6.808a.654.654 0 1 1 1.307 0 27.705 27.705 0 0 1-.96 7.148 18.829 18.829 0 0 1-3.666 7.194.657.657 0 0 1-.497.268zm9.227-2.086a.654.654 0 0 1-.346-.105.644.644 0 0 1-.295-.664.652.652 0 0 1 .092-.238c1.444-2.309 3.182-6.318 3.228-12.276a.655.655 0 0 1 .653-.654.652.652 0 0 1 .654.654c-.046 6.265-1.895 10.503-3.431 12.962a.643.643 0 0 1-.236.233.64.64 0 0 1-.319.088zm8.697-3.054a.656.656 0 0 1-.575-.962 24.867 24.867 0 0 0 2.692-11.497c0-.174.069-.34.191-.463a.657.657 0 0 1 .924 0 .654.654 0 0 1 .192.463 26.26 26.26 0 0 1-2.843 12.099.651.651 0 0 1-.581.36zm-24.229-5.814h-.085a.655.655 0 0 1-.562-.733c.534-4.748.785-9.525.751-14.303a.654.654 0 0 1-.307-.066 20.082 20.082 0 0 1-5.018 10.013.652.652 0 1 1-.921-.928 18.978 18.978 0 0 0 4.678-9.294 1.308 1.308 0 0 1 1.47-1.118c.083.013.164.035.242.065a1.305 1.305 0 0 1 1.189 1.308c.034 4.838-.221 9.673-.764 14.48a.657.657 0 0 1-.673.576z"/><path fill="#5347E9" d="M419.394 294.112a.653.653 0 0 1-.654-.654v-81.097a.654.654 0 1 1 1.307 0v81.097a.657.657 0 0 1-.653.654zM420.263 201.407a.653.653 0 0 1 0-1.309 7.345 7.345 0 0 0 5.185-2.154 7.358 7.358 0 0 0 2.153-5.19v-31.262a.653.653 0 0 1 1.307 0v31.262a8.662 8.662 0 0 1-8.645 8.653zm-12.075 0a8.659 8.659 0 0 1-6.109-2.539 8.67 8.67 0 0 1-2.536-6.114v-31.262a.653.653 0 0 1 1.307 0v31.262a7.349 7.349 0 0 0 7.338 7.344.654.654 0 1 1 0 1.309z"/><path fill="#000" d="M428.235 161.976a.652.652 0 0 1-.654-.654v-9.326a12.822 12.822 0 0 0-3.388-8.629 12.804 12.804 0 0 0-8.314-4.085h-1.105a.65.65 0 0 1-.418 0h-.882a12.761 12.761 0 0 0-8.971 3.764 12.787 12.787 0 0 0-3.719 8.996v9.326a.65.65 0 0 1-.653.654.653.653 0 0 1-.653-.654v-9.372a14.093 14.093 0 0 1 4.101-9.921 14.072 14.072 0 0 1 9.895-4.147h.444c-.228-12.701-6.802-25.29-21.164-25.29a.652.652 0 0 1-.653-.654.653.653 0 0 1 .653-.654c15.27 0 22.216 13.263 22.471 26.624h.739a14.124 14.124 0 0 1 9.178 4.498 14.147 14.147 0 0 1 3.746 9.518v9.326a.648.648 0 0 1-.182.479.654.654 0 0 1-.471.201zm-112.023-5.232a.653.653 0 0 1-.653-.654v-14.63c0-15.441 11.807-28.397 27.443-30.13a.656.656 0 0 1 .585 1.065.659.659 0 0 1-.441.243c-15.029 1.661-26.3 14.054-26.3 28.828v14.604a.65.65 0 0 1-.634.648v.026z"/><path fill="#1D1D1B" d="M316.153 162.957a4.334 4.334 0 0 0 4.333-4.336 4.334 4.334 0 0 0-4.333-4.336 4.334 4.334 0 0 0-4.332 4.336 4.334 4.334 0 0 0 4.332 4.336z"/></svg>