<svg xmlns="http://www.w3.org/2000/svg" fill="none" viewBox="0 0 426 326"><g clip-path="url(#clip0_28_1423)"><path fill="url(#paint0_linear_28_1423)" d="M-38.987 12.3c3.78 2.516 8.244 3.316 9.976 1.789l.002-.002.017-.014a13.032 13.032 0 0 1 .686-.524c.517-.369 1.312-.891 2.377-1.466 2.146-1.158 5.314-2.487 9.434-3.247 8.235-1.519 19.43-.7 33.992 7.36 15.156 8.388 24.475 19.21 35.56 32.398l.592.703c5.796 6.897 12.166 14.478 20.285 21.824 6.373 5.767 13.822 11.389 22.917 16.422 9.054 5.011 17.737 8.33 25.975 10.667 10.578 2.999 20.422 4.376 29.375 5.629l.91.127c17.061 2.39 31.18 4.539 46.337 12.927 15.157 8.388 24.475 19.211 35.561 32.398l.591.703c5.871 6.987 12.332 14.675 20.601 22.11 6.303 5.667 13.656 11.186 22.601 16.137 8.905 4.928 17.45 8.22 25.566 10.549 10.733 3.081 20.715 4.477 29.784 5.746l.91.128c17.061 2.39 31.18 4.538 46.337 12.927 14.674 8.121 22.002 17.634 25.75 25.879 1.865 4.104 2.733 7.69 3.127 10.265.196 1.28.271 2.289.299 2.964.013.337.015.589.013.749 0 .08-.002.136-.003.168l-.001.022v.008c-.123 2.387 3.139 5.717 7.292 7.443 4.157 1.729 7.633 1.195 7.764-1.192l-7.528-3.129c7.528 3.129 7.528 3.127 7.528 3.125v-.004l.001-.01.001-.028.003-.086c.002-.07.005-.165.006-.286.002-.24-.001-.579-.018-1.009a32.901 32.901 0 0 0-.362-3.617c-.466-3.044-1.499-7.367-3.799-12.426-4.582-10.08-14.641-23.905-36.199-35.836-20.68-11.445-39.424-14.067-55.351-16.296l-.909-.127c-17.062-2.39-31.18-4.539-46.337-12.927-15.157-8.388-24.475-19.211-35.562-32.398l-.59-.703c-10.347-12.312-22.523-26.801-43.202-38.246-20.68-11.445-39.424-14.068-55.351-16.296l-.909-.127c-17.062-2.39-31.181-4.54-46.337-12.928-15.157-8.388-24.475-19.21-35.562-32.398l-.59-.703C54.225 35.13 42.05 20.641 21.37 9.196-.3-2.797-16.75-3.562-27.102-1.652c-5.173.954-9.034 2.593-11.594 3.974a27.734 27.734 0 0 0-2.93 1.81 17.721 17.721 0 0 0-.983.753l-.063.054-.02.018-.008.007-.003.002c-.001.002-.003.003 6.847 4.561l-6.85-4.558c-1.73 1.532-.064 4.814 3.719 7.332z"/><path fill="url(#paint1_linear_28_1423)" d="M-45.474 43.837c-1.733 1.527-6.197.727-9.977-1.788-3.783-2.517-5.448-5.8-3.718-7.332l6.85 4.558c-6.85-4.558-6.849-4.56-6.848-4.56l.004-.003.007-.007.02-.018.064-.054a17.7 17.7 0 0 1 .982-.753 27.75 27.75 0 0 1 2.93-1.81c2.56-1.381 6.422-3.02 11.595-3.974 10.352-1.91 26.802-1.145 48.472 10.848C25.587 50.39 37.763 64.878 48.109 77.19l.59.703c11.087 13.188 20.405 24.01 35.562 32.399 15.157 8.388 29.276 10.536 46.337 12.927l.91.127c15.926 2.228 34.67 4.851 55.35 16.296s32.856 25.934 43.202 38.246l.591.703c11.086 13.187 20.404 24.01 35.561 32.398 15.157 8.388 29.276 10.537 46.337 12.927l.91.128c15.927 2.228 34.67 4.85 55.35 16.295 21.558 11.931 31.618 25.756 36.2 35.836 2.3 5.059 3.333 9.382 3.798 12.426.234 1.53.328 2.757.362 3.617a20.054 20.054 0 0 1 .013 1.295l-.004.086-.001.028-.001.01v.005c0 .001 0 .003-7.528-3.126l7.528 3.129c-.13 2.387-3.606 2.921-7.764 1.193-4.152-1.727-7.414-5.057-7.292-7.444v-.001l.001-.002v-.027a15.52 15.52 0 0 0-.01-.917 26.89 26.89 0 0 0-.299-2.964c-.393-2.575-1.261-6.161-3.126-10.265-3.748-8.245-11.077-17.758-25.751-25.879-15.157-8.388-29.275-10.537-46.337-12.927l-.909-.128c-9.069-1.268-19.051-2.665-29.784-5.745-8.117-2.33-16.662-5.622-25.567-10.55-8.944-4.95-16.298-10.47-22.6-16.137-8.27-7.435-14.73-15.123-20.602-22.11l-.591-.703c-11.086-13.187-20.404-24.009-35.561-32.398-15.157-8.388-29.275-10.536-46.337-12.927l-.91-.127c-8.953-1.253-18.797-2.63-29.374-5.629-8.238-2.336-16.921-5.656-25.976-10.667-9.094-5.033-16.544-10.655-22.917-16.422-8.118-7.346-14.489-14.927-20.285-21.824l-.59-.703C25.507 65.154 16.19 54.332 1.032 45.944c-14.562-8.06-25.757-8.879-33.991-7.36-4.12.76-7.288 2.09-9.434 3.247a22.531 22.531 0 0 0-2.378 1.467 12.994 12.994 0 0 0-.686.523l-.016.014-.002.002z"/><path fill="url(#paint2_linear_28_1423)" d="M-61.936 73.584c-1.732 1.529-6.198.73-9.979-1.787-3.782-2.517-5.447-5.8-3.718-7.332l6.85 4.558c-6.85-4.558-6.849-4.56-6.847-4.56l.003-.003.008-.007.02-.018.063-.053a17.639 17.639 0 0 1 .982-.753 27.739 27.739 0 0 1 2.931-1.811c2.56-1.381 6.421-3.02 11.594-3.974 10.353-1.91 26.802-1.145 48.472 10.848C9.123 80.137 21.3 94.627 31.645 106.938l.591.704c11.086 13.187 20.405 24.009 35.562 32.398 15.156 8.388 29.275 10.536 46.337 12.927l.909.127c15.927 2.228 34.67 4.851 55.35 16.296s32.856 25.934 43.202 38.246l.591.703c11.087 13.188 20.405 24.01 35.562 32.398 15.156 8.389 29.275 10.537 46.337 12.927l.909.128c15.927 2.228 34.671 4.85 55.351 16.295 21.557 11.931 31.617 25.756 36.199 35.836 2.3 5.06 3.333 9.383 3.798 12.426a32.95 32.95 0 0 1 .363 3.617c.017.43.02.769.018 1.01-.001.12-.004.215-.006.285l-.003.086-.002.028v.015c0 .002 0 .003-7.528-3.126l7.528 3.129c-.131 2.387-3.607 2.921-7.764 1.193-4.153-1.727-7.415-5.057-7.292-7.443V317.134l.001-.022.001-.058.002-.11c.002-.159 0-.412-.014-.749a26.801 26.801 0 0 0-.298-2.963c-.394-2.576-1.262-6.162-3.127-10.265-3.748-8.246-11.076-17.759-25.75-25.88-15.157-8.388-29.276-10.537-46.337-12.927l-.91-.127c-9.069-1.269-19.051-2.666-29.784-5.746-8.116-2.33-16.662-5.622-25.566-10.55-8.945-4.95-16.298-10.47-22.601-16.137-8.269-7.435-14.73-15.123-20.601-22.109l-.591-.703c-11.086-13.188-20.405-24.01-35.561-32.399-15.157-8.388-29.276-10.536-46.338-12.927l-.909-.127c-8.954-1.253-18.797-2.63-29.375-5.629-8.238-2.336-16.92-5.656-25.975-10.667-9.095-5.033-16.545-10.655-22.917-16.421-8.119-7.347-14.49-14.927-20.285-21.825l-.591-.703C9.045 94.902-.274 84.08-15.431 75.692c-14.561-8.059-25.757-8.879-33.99-7.36-4.121.76-7.289 2.09-9.435 3.247a22.548 22.548 0 0 0-2.377 1.467 12.912 12.912 0 0 0-.686.523l-.017.014z"/></g><defs><linearGradient id="paint0_linear_28_1423" x1="438.95" x2="313.791" y1="240.298" y2="391.915" gradientUnits="userSpaceOnUse"><stop stop-color="#57B7E5"/><stop offset=".667" stop-color="#4C6FFF"/><stop offset=".958" stop-color="#4C6FFF"/></linearGradient><linearGradient id="paint1_linear_28_1423" x1="438.95" x2="313.791" y1="240.298" y2="391.915" gradientUnits="userSpaceOnUse"><stop stop-color="#57B7E5"/><stop offset=".667" stop-color="#4C6FFF"/><stop offset=".958" stop-color="#4C6FFF"/></linearGradient><linearGradient id="paint2_linear_28_1423" x1="438.95" x2="313.791" y1="240.298" y2="391.915" gradientUnits="userSpaceOnUse"><stop stop-color="#57B7E5"/><stop offset=".667" stop-color="#4C6FFF"/><stop offset=".958" stop-color="#4C6FFF"/></linearGradient><clipPath id="clip0_28_1423"><path fill="#fff" d="M0 0h426v326H0z"/></clipPath></defs></svg>