<svg xmlns="http://www.w3.org/2000/svg" fill="none" viewBox="0 0 1600 1200"><path fill="#E26A64" fill-rule="evenodd" d="M1249 1035.8l-54.9-7.1h-24.7c-15.3 11.4-39 26.2-43 12.2-3.5-12.3.3-22.7 8.5-53.1.3-16 .5-27 .5-27l46.2-.5.5 30.6 66.9 44.9z" clip-rule="evenodd"/><path fill="#000" fill-rule="evenodd" d="M1135.4 968.5v-.5l46.5-.5.3 17.1c-17.1-7.9-36.7-13.5-46.8-16.1z" clip-rule="evenodd"/><path fill="#7A77FF" fill-rule="evenodd" d="M1136.8 1058.4c-.6-.1-1.2-.3-1.7-.4-22.9 0-15.7-32.6-15.7-32.6s4 2.4 29.6-3.4c3.1-.7 6.1-1.5 9-2.3l-27.7-14.8 4.1-14.9 42.3 22.7c13.8-6.4 21.2-12.7 21.2-12.7s13.6 8.3 35.1 16.2c13.7 5 36.8 4 36.8 4v15.9c0 22.4-33.6 22.2-60.3 22.2-34.4.1-72.7.1-72.7.1z" clip-rule="evenodd"/><path fill="#E26A64" fill-rule="evenodd" d="M983.3 959.7s-.9 7.7-3.9 28.7c3.2 31.4 8.4 40.2 4.9 52.5-6 21-91.2-12.2-91.2-12.2l35.5-35.3 9.5-34.7 45.2 1z" clip-rule="evenodd"/><path fill="#7A77FF" fill-rule="evenodd" d="M967.4 1031.3c7.216.95 14.535.78 21.7-.5 1.1 12.3-8.1 27.2-21.7 28.1-1 .1-2 .1-2.9.2 0 0-48.9-.1-67-.1-21.5 0-21-30.1-21-30.1s14.9-4.9 26.8-12.2c8.8-5.4 16.2-13.9 16.2-13.9 20.5-2.8 36.3 10.2 36.3 10.2l24.2-19.1 3.6 14.3-23.4 18.7.3 1a11.596 11.596 0 0 0 6.9 3.4z" clip-rule="evenodd"/><path fill="#000" fill-rule="evenodd" d="M983.3 959.7s-1.7 12.8-3.3 24.4c-19.7-8.2-39.5-16-44.8-18.1l48.1-6.3z" clip-rule="evenodd"/><path fill="#7A77FF" fill-rule="evenodd" d="M935.3 967.2l94.2-431.9 157.8-101.9v534.8h-54l-22.5-418-118.5 417h-57z" clip-rule="evenodd"/><path fill="#5347E9" d="M1151.1 960.9a1 1 0 0 1-.71-.293 1.03 1.03 0 0 1-.29-.707l-15.5-372a1 1 0 0 1 .26-.719 1.004 1.004 0 0 1 1.74.639l15.5 372c0 .265-.11.52-.29.707a1 1 0 0 1-.71.293v.08z"/><path fill="#000" fill-rule="evenodd" d="M1111.6 565.9l61.3 17.8c-8.1 3.9-36.3 16.7-59 25.5l-2.3-43.3z" clip-rule="evenodd"/><path fill="#E26A64" fill-rule="evenodd" d="M1279.1 439.1l-100.3-17.3v-38.5l9.5 1.6V371h26.8l1.7 18.8 62.4 10.7v38.6h-.1z" clip-rule="evenodd"/><path fill="#000" fill-rule="evenodd" d="M1007.7 360.2c11.7 8.3 20.4 16.2 19.5 17.6-.9 1.4-11.3-4.2-23-12.6-11.7-8.4-20.4-16.2-19.5-17.6.9-1.4 11.3 4.2 23 12.6z" clip-rule="evenodd"/><path fill="#7A77FF" fill-rule="evenodd" d="M1198.2 374.8l18.1-.5-7.1-75.7a52.883 52.883 0 0 0-12.21-28.295 52.891 52.891 0 0 0-25.89-16.705l-22.6-7.9s-4.8 16.6-19.8 15.6c-15-1-29.9-13.8-29.9-13.8l-33.6 12.9a81.073 81.073 0 0 0-38.1 29l-42.2 58c1.9-.5 11.7 4.9 22.7 12.7 11.7 8.3 20.4 16.2 19.5 17.6l27.8-38.7 13.8 73.8-23.5 81a49.694 49.694 0 0 1-7.5-.7l-17.6 87.3c.4.5-.1 1.2-.1 1.2 3.6 3.5 42.7 6.2 90.4 6.2 50.1 0 86.1-2.9 90.3-7.1-1.3-35.2-6.1-154.5-6.1-154.5l3.6-51.4z" clip-rule="evenodd"/><path fill="#E26A64" fill-rule="evenodd" d="M1040.1 493.8c9.5 1.6 37.6 1.4 49.1.3.2-3.4.2-7.4 0-12.1-.5-10.3-11-18.8-19.4-24l-50-73.4s1.4-1.9 4.8-6.8l.1-.1c.1-1.3-5.7-6.9-13.5-12.9s-14.6-10.2-15.9-9.7c0 .1-.1.2-.1.3-5.5 7.6-8 10.7-8 10.7a30.773 30.773 0 0 0-.1 36.2L1040 478c0 5.6 0 11 .1 15.8z" clip-rule="evenodd"/><path fill="#5347E9" d="M1110.8 589c-34.91 0-88.7-1.81-93.8-6.78a1.006 1.006 0 0 1-.3-.706.85.85 0 0 1 .07-.385c.05-.123.12-.234.21-.329s.2-.17.32-.222a1.008 1.008 0 0 1 1.1.202c3.51 3.43 45 6.22 92.4 6.22 19.65 0 52.79-1.12 64.12-2 5.8-.4 10.27-.89 13.87-1.29a1.004 1.004 0 0 1 .89 1.629.967.967 0 0 1-.67.371c-3.61.41-8.11.91-13.94 1.31-11.36.85-44.58 1.98-64.27 1.98zm-34.9-24.1H1059a1 1 0 0 1-.71-.293 1.03 1.03 0 0 1-.29-.707c0-.265.11-.52.29-.707a1 1 0 0 1 .71-.293h16.9a16.82 16.82 0 0 0 11.87-4.926c3.15-3.15 4.92-7.42 4.93-11.874v-51.29c-9.31 1.41-47.92 1.87-54.83-.57a1.003 1.003 0 0 1-.51-.518 1.007 1.007 0 0 1 .45-1.275c.22-.118.48-.149.72-.087 6.84 2.4 49 1.78 54.92.27a1.006 1.006 0 0 1 1.15.53c.06.137.1.287.1.44v52.5a18.86 18.86 0 0 1-5.51 13.288 18.843 18.843 0 0 1-13.29 5.512zm29.2-184.6h-10.5a1 1 0 0 1-.71-.293 1.03 1.03 0 0 1-.29-.707c0-.265.11-.52.29-.707a1 1 0 0 1 .71-.293h10.5c3.45 0 6.75-1.37 9.19-3.808a12.993 12.993 0 0 0 3.81-9.192v-29.84c-1.11.15-2.57.29-4.42.44-10.77.65-21.58.65-32.35 0-6.4-.47-8.53-1-8.53-3.1 0-.265.11-.52.29-.707a1 1 0 0 1 .71-.293 1 1 0 0 1 .71.293c.18.187.29.442.29.707.19.25 1.34.71 6.67 1.1 10.68.64 21.38.64 32.06 0 2.49-.19 4.31-.39 5.39-.58a.998.998 0 0 1 .82.21c.11.094.2.212.27.345.06.133.09.278.09.425v31a15.01 15.01 0 0 1-4.39 10.607 15.017 15.017 0 0 1-10.61 4.393zm40-73.4h-.2a2.288 2.288 0 0 1-1.05-.31.436.436 0 0 1-.14-.09l-49.5-36.5-.12-.09v-.06c-1.62-1.26-6.55-5.69-5.73-12.08.6-4.87 4-8.77 10.07-11.58.12-.056.26-.087.39-.09l49.6-1.5c.1-.019.2-.019.3 0 12.64 3.49 19.33 9.36 19.33 17 .01 2.283-.67 4.515-1.94 6.41l-19.34 37.79c-.14.33-.37.612-.66.808-.3.197-.65.298-1.01.292zm-.27-2h.1l19.38-37.9.06-.09a9.531 9.531 0 0 0 1.63-5.35c0-8.3-9.6-12.73-17.72-15l-49.28 1.53c-5.3 2.49-8.25 5.83-8.75 9.93-.69 5.41 3.67 9.24 5 10.29l.1.08v.05l49.48 36.46zM1195.4 426.2h-.07a1.043 1.043 0 0 1-.38-.102c-.12-.059-.22-.14-.31-.24a1.023 1.023 0 0 1-.24-.728l4.7-69.2a72.75 72.75 0 0 0-5.92-33.83l-13.69-31.1a1 1 0 0 1-.01-.76.975.975 0 0 1 .9-.635c.13-.004.26.019.39.066.12.048.23.119.33.21.09.09.17.199.22.319l13.68 31.1a74.772 74.772 0 0 1 6.09 34.77l-4.7 69.2c-.02.251-.13.487-.31.659-.19.172-.43.269-.68.271z"/><path fill="#000" d="M1092.9 349.3a1 1 0 0 1-.71-.293 1.03 1.03 0 0 1-.29-.707v-19.2c0-.265.11-.519.29-.707a1 1 0 0 1 .71-.293 1 1 0 0 1 .71.293c.18.188.29.442.29.707v19.2c0 .265-.11.52-.29.707a1 1 0 0 1-.71.293z"/><path fill="#000" fill-rule="evenodd" d="M1090.5 336.3v-12.6a3.3 3.3 0 0 1 .97-2.334 3.289 3.289 0 0 1 4.66 0 3.3 3.3 0 0 1 .97 2.334v12.6h-6.6zM1183.8 1058.7c3.72 0 7.35-1.1 10.44-3.17 3.1-2.06 5.51-5 6.93-8.44 1.42-3.43 1.79-7.21 1.07-10.86-.73-3.64-2.52-6.99-5.15-9.62a18.848 18.848 0 0 0-9.62-5.15c-3.65-.72-7.43-.35-10.86 1.07a18.692 18.692 0 0 0-8.44 6.93 18.745 18.745 0 0 0-3.17 10.44c0 2.47.48 4.92 1.43 7.2a18.7 18.7 0 0 0 4.07 6.1 18.7 18.7 0 0 0 6.1 4.07c2.28.95 4.73 1.43 7.2 1.43zm141 0c3.72 0 7.35-1.1 10.44-3.17 3.1-2.06 5.51-5 6.93-8.44 1.42-3.43 1.79-7.21 1.07-10.86-.73-3.64-2.52-6.99-5.15-9.62a18.848 18.848 0 0 0-9.62-5.15c-3.65-.72-7.43-.35-10.86 1.07a18.692 18.692 0 0 0-8.44 6.93 18.745 18.745 0 0 0-3.17 10.44c0 2.47.48 4.92 1.43 7.2a18.7 18.7 0 0 0 4.07 6.1 18.7 18.7 0 0 0 6.1 4.07c2.28.95 4.73 1.43 7.2 1.43z" clip-rule="evenodd"/><path fill="#7A77FF" fill-rule="evenodd" d="M1318.9 279.2h2c.53 0 1.04.211 1.41.586.38.375.59.884.59 1.414v12.7c0 .53-.21 1.039-.59 1.414-.37.375-.88.586-1.41.586h-2c-.53 0-1.04-.211-1.41-.586a1.984 1.984 0 0 1-.59-1.414v-12.7c0-.53.21-1.039.59-1.414.37-.375.88-.586 1.41-.586zM1234.6 338.9h2c.53 0 1.04.211 1.41.586.38.375.59.883.59 1.414v12.7c0 .53-.21 1.039-.59 1.414-.37.375-.88.586-1.41.586h-2c-.53 0-1.04-.211-1.41-.586a1.984 1.984 0 0 1-.59-1.414v-12.7c0-.531.21-1.039.59-1.414.37-.375.88-.586 1.41-.586zM1340.6 205.6l-43.9-.2v25l8 10h27l9.9-8.5-1-26.3zM1247.7 274.4h-26v15l9 8h8l9-9v-14z" clip-rule="evenodd"/><path fill="#7A77FF" d="M1320.2 175.2c1.15.018 2.26.471 3.09 1.268.84.797 1.34 1.88 1.41 3.032a2 2 0 0 0 2 1.9h14v49.9l-8.2 8.2h-25.6l-8.3-8.2v-49.9h15.2a2 2 0 0 0 2-1.9 4.42 4.42 0 0 1 4.4-4.3zm-84 57.1c1.14.011 2.23.449 3.07 1.226a4.568 4.568 0 0 1 1.43 2.974c.04.508.27.983.63 1.334.37.351.86.553 1.37.566h4.8v49.8l-8.2 8.2h-7.2l-8.3-8.2v-49.9h6a2 2 0 0 0 2-1.9c.07-1.115.57-2.16 1.39-2.922a4.383 4.383 0 0 1 3.01-1.178zm84-59.1a6.52 6.52 0 0 0-4.5 1.794 6.47 6.47 0 0 0-2 4.406h-17.2v52.7l9.4 9.4h27.3l9.4-9.4v-52.7h-16a6.369 6.369 0 0 0-1.95-4.394 6.4 6.4 0 0 0-4.45-1.806zm-84 57.1a6.613 6.613 0 0 0-4.43 1.792 6.633 6.633 0 0 0-2.07 4.308h-8v52.7l9.4 9.4h8.9l9.4-9.4v-52.7h-6.8a6.379 6.379 0 0 0-6.4-6.1z"/><path fill="#7A77FF" d="M1277.8 524.5a43.25 43.25 0 0 1-30.53-12.668 43.232 43.232 0 0 1-12.67-30.532V297.4c0-.265.11-.52.29-.707a1 1 0 0 1 .71-.293 1 1 0 0 1 .71.293c.18.187.29.442.29.707v183.9a41.19 41.19 0 0 0 12.07 29.133 41.179 41.179 0 0 0 29.13 12.067c10.93 0 21.41-4.341 29.13-12.067A41.19 41.19 0 0 0 1319 481.3V238.8c0-.265.11-.52.29-.707a1 1 0 0 1 .71-.293 1 1 0 0 1 .71.293c.18.187.29.442.29.707v242.5a43.232 43.232 0 0 1-12.67 30.532 43.25 43.25 0 0 1-30.53 12.668zm-42.2-293a1 1 0 0 1-.71-.293 1.03 1.03 0 0 1-.29-.707v-71.7c0-.265.11-.52.29-.707a1 1 0 0 1 .71-.293 1 1 0 0 1 .71.293c.18.187.29.442.29.707v71.7c0 .265-.11.52-.29.707a1 1 0 0 1-.71.293zm84.3-56.9a1 1 0 0 1-.71-.293 1.03 1.03 0 0 1-.29-.707v-14.7c0-.265.11-.52.29-.707a1 1 0 0 1 .71-.293 1 1 0 0 1 .71.293c.18.187.29.442.29.707v14.7c0 .265-.11.52-.29.707a1 1 0 0 1-.71.293z"/><path fill="#7A77FF" d="M1319.9 165.3a15.622 15.622 0 0 1-15.58-14.8h-52.94a15.6 15.6 0 0 1-4.98 10.654 15.606 15.606 0 0 1-21.78-.559 15.648 15.648 0 0 1-4.42-10.895v-.2c0-.265.11-.52.29-.707a1 1 0 0 1 .71-.293 1 1 0 0 1 .71.293c.18.187.29.442.29.707v.2a13.6 13.6 0 0 0 3.98 9.617 13.603 13.603 0 0 0 9.62 3.983c3.61 0 7.07-1.433 9.62-3.983a13.6 13.6 0 0 0 3.98-9.617v-.2c0-.265.11-.52.29-.707a1 1 0 0 1 .71-.293h54.9a1 1 0 0 1 .71.293c.18.187.29.442.29.707v.2a13.6 13.6 0 0 0 3.98 9.617 13.603 13.603 0 0 0 9.62 3.983c3.61 0 7.07-1.433 9.62-3.983a13.6 13.6 0 0 0 3.98-9.617v-.2c0-.265.11-.52.29-.707a1 1 0 0 1 .71-.293 1 1 0 0 1 .71.293c.18.187.29.442.29.707v.2a15.653 15.653 0 0 1-4.57 11.025 15.634 15.634 0 0 1-11.03 4.575z"/><path fill="#7A77FF" fill-rule="evenodd" d="M1270.4 161.6v815.6h15.2V161.3a14.339 14.339 0 0 0 4.68-5.153 14.328 14.328 0 0 0 1.72-6.747c0-3.766-1.5-7.378-4.16-10.041a14.186 14.186 0 0 0-10.04-4.159c-3.77 0-7.38 1.496-10.04 4.159a14.214 14.214 0 0 0-4.16 10.041 13.995 13.995 0 0 0 6.8 12.2z" clip-rule="evenodd"/><path fill="#7A77FF" fill-rule="evenodd" d="M1183.8 1051.6a11.711 11.711 0 0 0 11.7-11.7c.03-1.33-.21-2.66-.7-3.9l9.1-9.1c1.25.44 2.57.68 3.9.7 3.05 0 5.98-1.2 8.16-3.33 2.19-2.12 3.46-5.02 3.54-8.07v-20.6h117.6v20.6c.02 1.52.36 3.02 1 4.4l-8.6 8.6c-1.48-.65-3.08-.99-4.7-1-2.31 0-4.58.69-6.5 1.97a11.767 11.767 0 0 0-4.31 5.25c-.88 2.14-1.12 4.49-.67 6.76a11.72 11.72 0 0 0 3.21 5.99 11.72 11.72 0 0 0 5.99 3.21c2.27.45 4.62.21 6.76-.67 2.14-.89 3.96-2.39 5.25-4.31 1.28-1.92 1.97-4.19 1.97-6.5.03-1.33-.21-2.66-.7-3.9l9.1-9.1c1.25.44 2.57.68 3.9.7 3.05 0 5.98-1.2 8.16-3.33 2.19-2.12 3.46-5.02 3.54-8.07v-57.4h-23.4v13.4h-117.6v-13.5h-23.4v57.4c.02 1.52.36 3.02 1 4.4l-8.6 8.6c-1.48-.65-3.08-.99-4.7-1-3.12 0-6.1 1.24-8.31 3.44a11.754 11.754 0 0 0 0 16.62c2.21 2.2 5.19 3.44 8.31 3.44z" clip-rule="evenodd"/><path fill="#E26A64" fill-rule="evenodd" d="M1305.4 407.8c-1.1 22.4-1.3 26.6-5.8 30.8-3.8 3.7-6.8 5.2-9.7 5.9v1.1h-14c-12.6 0-12.8-11.3-12.8-11.3h8.4c-9.5-1.7-9.7-11-9.7-11h9.7c-9.5-1.7-9.7-11-9.7-11h9.1v-.5c-8.9-2-9.1-10.9-9.1-10.9h.1l-.2-.1s-.8-.9.2-4.9c1.4-5.6 8.3-6.7 8.3-6.7v7.3c.6.8 3.8 1.3 7.6 1.3 3.4 0 6.5-.5 7.4-1.1 0-5.4.1-15.7.1-20.4 15.9.2 20.7 19.9 20.1 31.5z" clip-rule="evenodd"/><path fill="#000" d="M1289.7 446.3h-14c-13.43 0-13.8-12.16-13.8-12.28 0-.265.11-.52.29-.707a1 1 0 0 1 .71-.293 1 1 0 0 1 .71.293c.18.187.29.442.29.707 0 .42.36 10.32 11.8 10.32h14a1 1 0 0 1 .71.293c.18.187.29.442.29.707 0 .265-.11.52-.29.707a1 1 0 0 1-.71.293v-.04z"/><path fill="#000" d="M1296.7 435.3h-22c-13.43 0-13.8-12.16-13.8-12.28 0-.265.11-.52.29-.707a1 1 0 0 1 .71-.293 1 1 0 0 1 .71.293c.18.187.29.442.29.707 0 .42.36 10.32 11.8 10.32h22a1 1 0 0 1 .71.293c.18.187.29.442.29.707 0 .265-.11.52-.29.707a1 1 0 0 1-.71.293v-.04z"/><path fill="#000" d="M1296.7 424.3h-22c-13.43 0-13.8-12.16-13.8-12.28 0-.265.11-.52.29-.707a1 1 0 0 1 .71-.293 1 1 0 0 1 .71.293c.18.187.29.442.29.707 0 .42.36 10.32 11.8 10.32h22a1 1 0 0 1 .71.293c.18.187.29.442.29.707 0 .265-.11.52-.29.707a1 1 0 0 1-.71.293v-.04zM1296.7 412.3h-22c-13.43 0-13.8-12.16-13.8-12.28 0-.265.11-.52.29-.707a1 1 0 0 1 .71-.293 1 1 0 0 1 .71.293c.18.187.29.442.29.707 0 .42.36 10.32 11.8 10.32h22a1 1 0 0 1 .71.293c.18.187.29.442.29.707 0 .265-.11.52-.29.707a1 1 0 0 1-.71.293v-.04z"/><path fill="#000" fill-rule="evenodd" d="M1187.2 207.1c-9.7 4.6-25.1 12.1-86.1 3.6-32.1-4.5-43.2-23.5-43.2-23.5l26-33a42.288 42.288 0 0 1 10.16-22.398 42.279 42.279 0 0 1 20.89-12.974A42.326 42.326 0 0 1 1159.5 134c1.13-.385 2.31-.587 3.5-.6 8.4 0 16.5 4.3 19.6 12.4a27.215 27.215 0 0 1 1 7.4s-3.5.2-8.6.3c5.1 8 12.4 20.6 14.4 30.2 2.9 13.7-2.2 23.4-2.2 23.4z" clip-rule="evenodd"/><path fill="#E26A64" fill-rule="evenodd" d="M1099.8 165.6h.3c1.2.6 2.4 1.2 3.7 2 12.1-2 12.2-7.1 13.8-14.5 9.6.7 21.2 1.1 33.6 1.1 7.2 0 12.9-.1 19.3-.4 1.8 13 9.1 65.6-22.6 67.4 0 0 .1 14.3.3 29.6 5.3 1.7 8.6 4 8.6 6.6a3.701 3.701 0 0 1-.7 2l-15.1 30-40.2-28.2a6.078 6.078 0 0 1-2.2-3l2.8-75.3.5-2.2c-.62.171-1.26.238-1.9.2-2.04 0-4-.811-5.44-2.255a7.68 7.68 0 0 1-2.26-5.445 7.32 7.32 0 0 1 .49-2.928c.37-.933.92-1.781 1.62-2.493a7.325 7.325 0 0 1 5.39-2.179z" clip-rule="evenodd"/><path fill="#000" fill-rule="evenodd" d="M1148 221.2c0 1.2-.1 10.2 0 17.6-31.9-5.7-30.9-31.7-30.9-31.7s9.9 14.1 30.9 14.1z" clip-rule="evenodd"/><path fill="#000" d="M1148.3 198.5h-.11c-8.5-.93-12.77-5.83-13-6a1.016 1.016 0 0 1-.24-.728 1.007 1.007 0 0 1 1.08-.919c.26.021.51.145.68.347a18.982 18.982 0 0 0 11.65 5.36c.13.007.26.04.38.097s.22.137.31.235c.09.098.16.212.2.336.04.124.06.256.06.387-.01.131-.05.26-.1.378-.06.119-.14.225-.24.313a.94.94 0 0 1-.33.199c-.13.043-.26.062-.39.055l.05-.06zM1153.67 191.31a26.005 26.005 0 0 1-7.7-1.37 1.032 1.032 0 0 1-.37-.182.907.907 0 0 1-.26-.315.927.927 0 0 1-.12-.395c-.01-.138.01-.277.05-.408a.996.996 0 0 1 .22-.352c.09-.101.21-.181.33-.236a1.013 1.013 0 0 1 .81.008c2.3.8 8.86 2.37 11.62 0 .27-.191.49-.454.62-.759a1.8 1.8 0 0 0 .14-.971c-.37-2.66-6.17-6.32-9.74-8a.992.992 0 0 1-.49-.522.989.989 0 0 1-.02-.718l4.1-11.4a1 1 0 0 1 1.83-.071c.11.235.13.504.05.751l-3.8 10.56c2.53 1.28 9.49 5.16 10 9.13.09.66 0 1.333-.25 1.95a3.856 3.856 0 0 1-1.18 1.57 8.904 8.904 0 0 1-5.84 1.73zM1169.8 163.2c-.08.01-.17.01-.25 0a40.275 40.275 0 0 0-11.66-.77 1 1 0 0 1-1.09-.91c-.01-.131 0-.264.04-.39s.1-.243.19-.345c.08-.101.19-.185.3-.246.12-.061.25-.098.38-.109 4.13-.329 8.29-.049 12.34.83.27.033.51.17.67.381.16.211.24.479.21.744a1.05 1.05 0 0 1-.39.67.989.989 0 0 1-.74.205v-.06z"/><path fill="#000" d="M1172.7 183.5h-7.2a8.567 8.567 0 0 1-5.87-2.304 8.574 8.574 0 0 1-2.72-5.696l-.06-.17a.86.86 0 0 1 0-.32v-4.7c0-1.22.48-2.39 1.35-3.253a4.592 4.592 0 0 1 3.25-1.347h18.9a1 1 0 0 1 .71.293c.18.187.29.442.29.707v8.6a8.63 8.63 0 0 1-2.68 5.835 8.59 8.59 0 0 1-5.97 2.355zm-13.9-8.66v.14c.03.088.04.178.05.27.09 1.69.82 3.281 2.05 4.445a6.598 6.598 0 0 0 4.55 1.805h7.2a6.598 6.598 0 0 0 4.55-1.805 6.597 6.597 0 0 0 2.05-4.445v-7.55h-17.9a2.576 2.576 0 0 0-1.85.753c-.24.242-.43.53-.56.847a2.63 2.63 0 0 0-.19 1l.05 4.54zM1142.4 183.5h-9.9a8.584 8.584 0 0 1-5.93-2.355 8.58 8.58 0 0 1-2.67-5.795v-8.65c0-.265.11-.52.29-.707a1 1 0 0 1 .71-.293h21.6c1.22 0 2.39.485 3.25 1.347a4.573 4.573 0 0 1 1.35 3.253v4.7c.01.106.01.214 0 .32l-.06.17a8.582 8.582 0 0 1-2.73 5.72 8.6 8.6 0 0 1-5.91 2.29zm-16.5-15.8v7.6c.1 1.682.84 3.262 2.06 4.416a6.603 6.603 0 0 0 4.54 1.784h9.9a6.598 6.598 0 0 0 4.55-1.805 6.597 6.597 0 0 0 2.05-4.445c-.01-.09-.01-.18 0-.27v-4.68c0-.343-.06-.683-.19-1a2.607 2.607 0 0 0-.56-.847 2.576 2.576 0 0 0-1.85-.753h-20.5zM1130.4 163.9a.987.987 0 0 1-.63-.196 1.013 1.013 0 0 1-.37-.544c-.03-.127-.04-.26-.03-.391a.99.99 0 0 1 .13-.372.87.87 0 0 1 .26-.295.94.94 0 0 1 .35-.172c.34-.09 8.45-2.24 15.07-1.52.26.03.5.163.67.369.16.206.24.469.21.731a.983.983 0 0 1-.37.666.992.992 0 0 1-.73.214c-6.24-.67-14.25 1.45-14.33 1.48-.08.018-.15.028-.23.03z"/><path fill="#000" d="M1161.2 174.2a.983.983 0 0 1-.58-.189.978.978 0 0 1-.37-.495.924.924 0 0 1 0-.614.963.963 0 0 1 .35-.502l5.1-3.8c.1-.079.22-.136.35-.169a1.008 1.008 0 0 1 1.05.369c.08.105.14.225.17.352a1.02 1.02 0 0 1-.11.757.977.977 0 0 1-.26.291l-5.1 3.8c-.17.13-.38.2-.6.2zM1134.7 173.6a.997.997 0 0 1-.84-.46 1.045 1.045 0 0 1-.14-.752c.06-.259.22-.484.44-.628l5-3.2a1.012 1.012 0 0 1 1.34.328 1.003 1.003 0 0 1-.26 1.352l-5 3.2a.997.997 0 0 1-.54.16z"/><path fill="#000" fill-rule="evenodd" d="M1135.4 171.6c.55 0 1.1.164 1.56.472.46.308.81.745 1.03 1.257.21.511.26 1.074.16 1.617a2.836 2.836 0 0 1-.77 1.434 2.792 2.792 0 0 1-3.05.607 2.833 2.833 0 0 1-1.26-1.031 2.782 2.782 0 0 1-.47-1.556c-.01-.37.06-.739.19-1.083.14-.344.35-.656.61-.918s.57-.468.92-.605c.34-.138.71-.204 1.08-.194zM1162.9 171.6c.55 0 1.1.164 1.56.472.46.308.81.745 1.03 1.257.21.511.26 1.074.16 1.617a2.836 2.836 0 0 1-.77 1.434 2.792 2.792 0 0 1-3.05.607 2.833 2.833 0 0 1-1.26-1.031 2.782 2.782 0 0 1-.47-1.556c0-.743.29-1.455.82-1.98.53-.525 1.24-.82 1.98-.82zM1138.7 137.3s-29.7 15.3-23.4 42.8c7 30.2-13.6 30.4-13.6 30.5 0 .1-23.3-2.1 9.3-60.4 5.7-12.5 27.7-12.9 27.7-12.9z" clip-rule="evenodd"/><path fill="#FFB9B2" fill-rule="evenodd" d="M509.2 1035l55.4-7.1h24.7c14.5 11.4 37.1 26.2 42.1 12.2 4.4-12.3 1.4-22.7-4.7-53.1.8-16 1.5-27 1.5-27l-46.2-.5-2.7 30.6-70.1 44.9z" clip-rule="evenodd"/><path fill="#000" fill-rule="evenodd" d="M580.5 975.2l46.6 1.9c-.2 3-.3 6.3-.5 9.9.4 1.7.7 3.4 1 5l-47.9-8.2.8-8.6z" clip-rule="evenodd"/><path fill="#7A77FF" fill-rule="evenodd" d="M619.8 1057.6c.6-.1 1.2-.3 1.7-.4 22.9 0 18.1-32.6 18.1-32.6s-4.2 2.4-29.4-3.4c-3.1-.7-6-1.5-8.8-2.3l28.7-14.8-3-14.9-43.9 22.7c-13.4-6.4-20.3-12.7-20.3-12.7s-57.5 29-86 44c3 22 43.5 14.4 70.2 14.4h72.7z" clip-rule="evenodd"/><path fill="#000" fill-rule="evenodd" d="M588 1014.8c1.028 0 2.034.3 2.889.88a5.186 5.186 0 0 1 2.211 5.33 5.232 5.232 0 0 1-1.423 2.67 5.243 5.243 0 0 1-2.663 1.42c-1.008.2-2.054.1-3.004-.3a5.204 5.204 0 0 1-2.334-1.91 5.214 5.214 0 0 1-.876-2.89c-.005-.68.126-1.36.385-2a5.24 5.24 0 0 1 1.126-1.69 5.237 5.237 0 0 1 1.693-1.13 5.244 5.244 0 0 1 1.996-.38z" clip-rule="evenodd"/><path fill="#FFB9B2" fill-rule="evenodd" d="M696.5 960.6s0 7.7.7 28.7c-6.7 31.4-12.8 40.2-10.6 52.5 3.7 21 92.6-12.2 92.6-12.2l-31.7-35.4-5.7-34.7-45.3 1.1z" clip-rule="evenodd"/><path fill="#7A77FF" fill-rule="evenodd" d="M704.7 1031.5c-13 1.5-21.6-.5-21.6-.5-2.4 12.3 5.1 27.2 18.6 28.1 1 .1 2 .1 2.9.2 0 0 48.9-.1 67-.1 21.5 0 24.3-30.1 24.3-30.1s-14.4-4.9-25.4-12.2c-8.3-5.4-14.7-13.9-14.7-13.9-20.2-2.8-37.4 10.2-37.4 10.2l-22.3-19-5.1 14.3 21.3 18.7-.4 1a13.07 13.07 0 0 1-7.2 3.3z" clip-rule="evenodd"/><path fill="#000" fill-rule="evenodd" d="M696.8 976.4l47.7-.2 2.5 15 .3 1.8-50.2-8.1c0-.1-.2-6.2-.3-8.5zM723.6 1016.5a5.316 5.316 0 0 1 5.3 5.2 5.4 5.4 0 0 1-5.3 5.3 5.272 5.272 0 0 1-3.698-1.57 5.356 5.356 0 0 1-1.122-1.72 5.242 5.242 0 0 1-.38-2.01c-.005-.68.126-1.36.385-2a5.24 5.24 0 0 1 1.126-1.69 5.237 5.237 0 0 1 1.693-1.13 5.244 5.244 0 0 1 1.996-.38z" clip-rule="evenodd"/><path fill="#7A77FF" fill-rule="evenodd" d="M746.4 980.2h-55.7l-23.2-449.5H648l-18.9 449.5h-55.7V458.8l169.9.6 3.1 520.8z" clip-rule="evenodd"/><path fill="#000100" fill-rule="evenodd" d="M625.8 529.9l21.1 28.7 1.2-27.9-22.3-.8z" clip-rule="evenodd"/><path fill="#5347E9" d="M607.8 981.4a.997.997 0 0 1-1-1l13.9-449.7a.997.997 0 0 1 1-1 .997.997 0 0 1 1 1l-13.9 449.7a.997.997 0 0 1-1 1z"/><path fill="#7A77FF" fill-rule="evenodd" d="M781.7 280.6a5.903 5.903 0 0 0-1.5-2.1c-14.3-31.6-37.1-34.3-53.1-34.3-25.3 0-107.8-.1-107.8-.1l-21.7.1a72.944 72.944 0 0 0-72.7 72.9l46.3 8.8.1 198.5c-.7.2-1.1.5-1.1.8 0 2.8 43 5 96.1 5 53.1 0 95.8-2.2 95.8-5 0-.2-.1-.2-.1-.5l.1-213.8c.1.1 58 73.4 19.6-30.3z" clip-rule="evenodd"/><path fill="#5347E9" d="M592.4 371.7h-10.5a15.001 15.001 0 0 1-15-15v-31a1.006 1.006 0 0 1 .36-.77.993.993 0 0 1 .82-.21c1.09.19 2.9.39 5.4.58 4.58.32 10.28.5 16 .5 5.92 0 15-.19 19.43-.5a1.004 1.004 0 0 1 .827 1.658 1.01 1.01 0 0 1-.687.342c-4.44.31-13.62.5-19.57.5-5.79 0-11.53-.18-16.17-.5-1.85-.15-3.32-.29-4.43-.44v29.84a13 13 0 0 0 13 13h10.5a.997.997 0 0 1 1 1 .997.997 0 0 1-1 1h.02zM666.4 532.2c-25.57 0-49.72-.53-68-1.49-29.09-1.53-29.09-3.25-29.09-4.51a.996.996 0 0 1 .796-.987 1.001 1.001 0 0 1 1.124.587c3.38 2.14 42 4.4 95.18 4.4 55 0 91.93-2.26 95.17-4.38a1 1 0 0 1 1.93.38c0 1.28 0 3-29.08 4.55-18.1.93-42.25 1.45-68.03 1.45zM641.5 313.2h-.18a1 1 0 0 1-.68-.47c-1.13-1.9-27.84-46.62-27.84-54.51 0-9.26 23.92-16 47.05-17.2 20.73-1.06 38.76 2.13 44.88 7.94a6.407 6.407 0 0 1 2.27 4.64c0 8-58.24 54.14-64.88 59.38a.998.998 0 0 1-.62.22zm26-70.4c-2.48 0-5.007.067-7.58.2-27 1.38-45.15 9-45.15 15.2 0 5.94 18.93 39 27 52.51C666.61 291.07 705 258.79 705 253.6a4.488 4.488 0 0 0-1.65-3.21c-4.92-4.68-19.1-7.59-35.82-7.59h-.03z"/><path fill="#FFB9B2" fill-rule="evenodd" d="M658.7 244.6c19.7-1 35.6 3 35.6 9s-49.9 45.3-49.9 45.3-21.4-35.8-21.4-41.7c0-5.9 16-11.6 35.7-12.6z" clip-rule="evenodd"/><path fill="#FEFEFE" fill-rule="evenodd" d="M692.3 257.1c-9.3 11.4-47.8 41.8-47.8 41.8s-19-31.8-21.2-40.4c2.7 5.7 17.5 9.4 35.3 8.5 15.6-.8 28.8-4.9 33.7-9.9zm2-3.8v.3a3.07 3.07 0 0 1-.5 1.3 3 3 0 0 0 .5-1.6z" clip-rule="evenodd"/><path fill="#FFB9B2" fill-rule="evenodd" d="M628.9 169H687v84.3s-23.4 2.7-40.6 2.7a69.702 69.702 0 0 1-17.5-2.7V169z" clip-rule="evenodd"/><path fill="#000" fill-rule="evenodd" d="M628.9 209.7a24.16 24.16 0 0 0 9.3 1.9h8l-17.3 16.6v-18.5z" clip-rule="evenodd"/><path fill="#FFB9B2" fill-rule="evenodd" d="M689.3 156.1a8.599 8.599 0 1 1-3.291 16.545 8.593 8.593 0 0 1-5.309-7.945 8.6 8.6 0 0 1 8.6-8.6z" clip-rule="evenodd"/><path fill="#FFB9B2" fill-rule="evenodd" d="M637.4 110.3h28.5a20.995 20.995 0 0 1 19.521 13.01A20.996 20.996 0 0 1 687 131.4v58.8a20.996 20.996 0 0 1-13.01 19.521 20.996 20.996 0 0 1-8.09 1.579h-28.5a20.996 20.996 0 0 1-19.521-13.01 20.996 20.996 0 0 1-1.579-8.09V117c0-11.6 9.4-6.7 21.1-6.7z" clip-rule="evenodd"/><path fill="#000" d="M684.5 169.1a1.004 1.004 0 0 1-.947-.666 1.002 1.002 0 0 1 .317-1.114l8-6.5a1.004 1.004 0 0 1 1.627.886 1 1 0 0 1-.367.674l-8 6.5a1.002 1.002 0 0 1-.63.22zM637.5 183.2a1 1 0 1 1-.1-2c.05 0 5.38-.6 6.91-3.57a1.005 1.005 0 0 1 1.35-.43 1.005 1.005 0 0 1 .43 1.35c-2 3.93-8.23 4.61-8.49 4.63l-.1.02zM635.7 172.9a.926.926 0 0 1-.53-.16.995.995 0 0 1-.47-.84v-27.7a.997.997 0 0 1 1-1 .997.997 0 0 1 1 1v26.12l9.57-4.52a.997.997 0 0 1 1.32 1.23c-.076.241-.24.445-.46.57l-11 5.2a.943.943 0 0 1-.43.1zM663 144a1.01 1.01 0 0 1-.78-.37s-3.13-3.77-7.71-3.24a1.006 1.006 0 1 1-.22-2c5.68-.65 9.33 3.77 9.49 4A1.002 1.002 0 0 1 663 144zM620.6 144a1 1 0 0 1-.63-.23.997.997 0 0 1-.15-1.4c.16-.19 3.81-4.62 9.5-4a1.004 1.004 0 0 1 .885 1.115 1.004 1.004 0 0 1-1.115.885c-4.57-.53-7.68 3.2-7.71 3.24a.997.997 0 0 1-.78.39z"/><path fill="#000" fill-rule="evenodd" d="M661.3 180.8a10.105 10.105 0 0 1-4.9 2.2c.12.862.187 1.73.2 2.6v6.9a15.001 15.001 0 0 1-15 15h-3.1a15.001 15.001 0 0 1-15-15v-6.9c.013-.87.08-1.738.2-2.6a8.639 8.639 0 0 1-4.8-2.2l9.5-6.5c.027 0 .052.011.071.029a.105.105 0 0 1 .029.071 14.997 14.997 0 0 1 9.9-3.8h3.1a15.05 15.05 0 0 1 10.6 4.4l9.2 5.8zm-18.2-4.5h-5.8a6.997 6.997 0 0 0-6.387 6.772 7.005 7.005 0 0 0 5.987 7.128v-1a3.3 3.3 0 0 1 6.6 0v1a7 7 0 0 0 6.5-6.9 6.542 6.542 0 0 0-.5-2.5 1.08 1.08 0 0 1-.3-.7 6.906 6.906 0 0 0-6.1-3.8zM674.8 134.2l12.6.2v36.4s-12.9-2-12.9-19.3c0-12.4.3-17.3.3-17.3zM627.8 153.1a2.198 2.198 0 0 1 2.033 1.358 2.204 2.204 0 0 1-.477 2.398 2.208 2.208 0 0 1-2.398.477 2.204 2.204 0 0 1-1.358-2.033 2.222 2.222 0 0 1 2.2-2.2zM655.9 153.1a2.198 2.198 0 0 1 2.033 1.358 2.204 2.204 0 0 1-.477 2.398 2.208 2.208 0 0 1-2.398.477 2.199 2.199 0 0 1-1.358-2.033 2.222 2.222 0 0 1 2.2-2.2z" clip-rule="evenodd"/><path fill="#000" fill-rule="evenodd" d="M700.3 115.9a8.47 8.47 0 0 0-.8-2.4 17.295 17.295 0 0 0-16-10.7 3.405 3.405 0 0 0-1 .1c.286-1.246.421-2.522.4-3.8a17.389 17.389 0 0 0-17.3-17.4 17 17 0 0 0-8.1 2s-9 3.1-22.4 12.1c-.8.6-1.7 1.1-2.5 1.7h-13a16.412 16.412 0 0 0-16.4 16.4 16.865 16.865 0 0 0 2.6 8.9c3 5.6 8.1 11.8 10.7 15.4v-24.1c-.2-.2 0-.6 0-.6v.6c0 11.8 10.3 21.3 23.1 21.3a23.793 23.793 0 0 0 14-4.4s2.6-2.1 2.9-2.5a20.472 20.472 0 0 0 6.2-14.4v-2.2a8.178 8.178 0 0 1 2.2-.2 10.498 10.498 0 0 1 9.9 7v15.5c0 14 12.6 22.2 12.6 22.2 5.2-10 11.8-19.8 13-32.5.326-1.274.494-2.584.5-3.9a15.055 15.055 0 0 0-.6-4.1z" clip-rule="evenodd"/><path fill="#7A77FF" fill-rule="evenodd" d="M599.5 303.7l-92.2 119.9h-.1a33.107 33.107 0 0 1-45.495 8.591A33.111 33.111 0 0 1 452.1 386.9l.1-.1a34.477 34.477 0 0 1 3.4-4.4l85.2-110.5 58.7 31.8z" clip-rule="evenodd"/><path fill="#000100" fill-rule="evenodd" d="M565.8 352.2l94.6 54.6-73.7 127.6-94.6-54.6 73.7-127.6z" clip-rule="evenodd"/><path fill="#7A77FF" fill-rule="evenodd" d="M558.5 453.8c-9 15.8-19.3 26.9-23.1 24.8a2.73 2.73 0 0 1-1.1-1.6l1.1 1.6-73.5-46.4v-.1a33.088 33.088 0 0 1-10.181-45.4A33.088 33.088 0 0 1 497 376l71.7 46c2.4 3.6-1.8 17.1-10.2 31.8z" clip-rule="evenodd"/><path fill="#000100" fill-rule="evenodd" d="M568 421.3c3.8 2.1-.5 16.7-9.5 32.5s-19.3 26.9-23.1 24.8c-3.8-2.1.5-16.7 9.5-32.5s19.4-27 23.1-24.8z" clip-rule="evenodd"/><path fill="#FFB9B2" fill-rule="evenodd" d="M638.5 457.4l-5.6-3.2-3.7 6.5s-11.8-6-15.7-8.3c15.7 1.6 17.4-9.6 17.4-9.6s-10.9 0-34.4-10.2c-10.7-4.6-16.8-4.1-21.2-.4-1.4-.4-7.4-4.5-9.3-5.9a1.466 1.466 0 0 0-.5-.6c-2.4-1.3-8.9 5.6-14.5 15.6s-8.3 19-6 20.4c20 17.5 55.9 41.2 66.1 42.3 4.5.5 9.2-2.4 9.8-7.1a37.949 37.949 0 0 0 3.5-2.5c2.2-1.7 3.8-3.5 4.2-6.5 4.9-1.4 8-6.7 7.8-10.1a11.912 11.912 0 0 0 5.8-5.7c5.3-9.8-3.7-14.7-3.7-14.7z" clip-rule="evenodd"/><path fill="#000" d="M618.9 497.26c-7 0-14.58-4.88-14.95-5.12a1.005 1.005 0 0 1 .345-1.823c.261-.054.532-.003.755.143.09.06 9.67 6.23 16.47 4.5a7.631 7.631 0 0 0 5-4 .998.998 0 0 1 1.696-.212.993.993 0 0 1 .064 1.152 9.608 9.608 0 0 1-6.27 5 12.387 12.387 0 0 1-3.11.36zM626.3 488.66c-7 0-14.58-4.88-14.95-5.12a1.002 1.002 0 0 1-.29-1.39 1.005 1.005 0 0 1 1.39-.29c.09.06 9.66 6.23 16.47 4.5a7.631 7.631 0 0 0 5-4 1 1 0 0 1 1.76.94 9.615 9.615 0 0 1-6.27 5 12.387 12.387 0 0 1-3.11.36zM633.6 479.16c-7 0-14.58-4.88-15-5.12a1.002 1.002 0 0 1-.29-1.39 1.005 1.005 0 0 1 1.39-.29c.09.06 9.67 6.24 16.47 4.5a7.631 7.631 0 0 0 5-4 1 1 0 0 1 1.76.94 9.615 9.615 0 0 1-6.27 5 12.42 12.42 0 0 1-3.06.36zM634.6 465.1a1 1 0 0 1-.47-.12L608 451a1.001 1.001 0 0 1 .149-1.797.998.998 0 0 1 .731.007c.06 0 6 2.68 10.28 2.22a13.004 13.004 0 0 0 10.48-7.59 1.002 1.002 0 0 1 1.31-.55 1.002 1.002 0 0 1 .55 1.31 14.995 14.995 0 0 1-12.13 8.82c-.878.085-1.762.085-2.64 0l18.31 9.82a.997.997 0 0 1 .495 1.123 1.004 1.004 0 0 1-.965.757l.03-.02z"/><path fill="#5F89FE" fill-rule="evenodd" d="M843.2 456.3a34.926 34.926 0 0 1-34.5-17.1l-89.9-129.6 55.2-42.2 90.2 130.1a34.946 34.946 0 0 1-3.443 51.389A34.947 34.947 0 0 1 843.2 456.3z" clip-rule="evenodd"/><path fill="#FFB9B2" fill-rule="evenodd" d="M664 495.2s-1.5-26.5 17.4-31.5c15.1-3.9 26.4-7.5 32.4-8.8 0 0-4.8 28.1-20.8 38.1-13.1 8.2-29 2.2-29 2.2z" clip-rule="evenodd"/><path fill="#000" fill-rule="evenodd" d="M708.3 442l2.8 2.4-67.6 77.4-2.8-2.4 67.6-77.4z" clip-rule="evenodd"/><path fill="#7A77FF" fill-rule="evenodd" d="M837.9 386.3a35.288 35.288 0 0 0-22 8.3l-84.8 53c4.7-2.4 15.4 9.6 24 26.6 6.8 13.6 10.5 26.1 9.3 31.8a5.125 5.125 0 0 1-1 2.1l-.9.8 92.5-56.7a35 35 0 0 0-17.1-65.9z" clip-rule="evenodd"/><path fill="#000" fill-rule="evenodd" d="M731 447.6c4.7-2.4 15.4 9.6 24 26.6s12.1 32.3 7.4 34.7c-4.7 2.4-15.8-9.1-24.4-26.2-8.6-17.1-11.7-32.7-7-35.1z" clip-rule="evenodd"/><path fill="#FFB9B2" fill-rule="evenodd" d="M747 467.9c-5.1-10.2-11.6-17.4-14.4-16a1.58 1.58 0 0 0-.7.7l-5.5 2.8s-5-4.7-16.3-.7c-10.9 3.9-19.8 14.3-22 17.1-6.2 5.3-14.5 12.5-22 18.7-9.8 8.3-18.1 13.6-16 23.4l17.5-9.8c1.4 2.3 4.4 4.2 8.1 4.7 1.501.188 3.022.12 4.5-.2 1.2 2.5 4.4 4.6 8.4 5.2 1.192.2 2.408.2 3.6 0 1.4 2.2 4.4 4 8 4.5 4 .5 7.7-.7 9.3-3 6.7-3.8 40.2-22.9 42.5-26.7 2-2.2-.1-11-5-20.7z" clip-rule="evenodd"/><path fill="#000" d="M676 509.8c-5.92 0-9.25-5.53-9.29-5.59a.998.998 0 0 1-.002-1.174 1.003 1.003 0 0 1 1.476-.161.994.994 0 0 1 .246.335c.15.25 3.71 6.1 10 4.25 6.29-1.85 26.15-14.26 26.35-14.39a.987.987 0 0 1 .366-.138.986.986 0 0 1 .746.173.998.998 0 0 1 .233 1.397 1.011 1.011 0 0 1-.285.268c-.83.52-20.49 12.79-26.85 14.61-.971.285-1.978.427-2.99.42z"/><path fill="#000" d="M649.9 514a1.001 1.001 0 0 1-.5-1.86l47.7-27.9a1.003 1.003 0 0 1 1.276.409.997.997 0 0 1-.276 1.311l-47.7 27.9a.893.893 0 0 1-.5.14zM688.93 515c-5.92 0-9.25-5.53-9.29-5.59a.998.998 0 0 1 .409-1.276 1 1 0 0 1 1.311.276c.15.25 3.71 6.1 10 4.25 6.09-1.74 22.76-12.67 22.93-12.78a1.005 1.005 0 0 1 1.1 1.68c-.7.45-17.1 11.2-23.47 13-.97.292-1.977.44-2.99.44zM663.7 493.2a1.006 1.006 0 0 1-.957-.703 1.005 1.005 0 0 1 .071-.764 1 1 0 0 1 .246-.303l35.8-29.6a.998.998 0 0 1 1.41.13 1.005 1.005 0 0 1-.13 1.41L664.34 493c-.184.138-.41.209-.64.2z"/><path fill="#FEFEFE" fill-rule="evenodd" d="M805.2 472.5h137.9v203.2H805.2V472.5z" clip-rule="evenodd"/><path fill="#7A77FF" fill-rule="evenodd" d="M950.7 985.2l14.3 29.2s-36.7 13.6-54.2 8.6-4-48.5-4-48.5l43.9 10.7z" clip-rule="evenodd"/><path fill="#000" fill-rule="evenodd" d="M951.5 985.1s-7 1.7-11.1 10.4a16.186 16.186 0 0 0-.7 11.1s-10.3 13.1-21.9 3.5c-14.3-11.9-17-11.5-17-11.5s-13.9 27.9-7.3 50c2.7 8.9 46.4 7.6 73.6 7.2 93.7-1.3 102.9-7.1 102.9-7.1s-3.7-10.3-31.8-14.9c-10.7-1.7-86.7-48.7-86.7-48.7z" clip-rule="evenodd"/><path fill="#000" fill-rule="evenodd" d="M892.8 1049.2h179v9.5h-179v-9.5z" clip-rule="evenodd"/><path fill="#FEFEFE" fill-rule="evenodd" d="M982.3 1021.8a.887.887 0 0 1-.453-.09.924.924 0 0 1-.347-.31 1.068 1.068 0 0 1-.215-.72c.019-.26.13-.5.315-.68a70.218 70.218 0 0 1 14.1-8.3c.7.4 1.5.9 2.2 1.3a68.304 68.304 0 0 0-15 8.6c-.182.11-.388.18-.6.2zm-9.4-5.5c-.182.11-.388.18-.6.2a.887.887 0 0 1-.453-.09.924.924 0 0 1-.347-.31 1.068 1.068 0 0 1-.215-.72c.019-.26.13-.5.315-.68a70.314 70.314 0 0 1 14.7-8.6c.7.4 1.5.9 2.2 1.3a71.49 71.49 0 0 0-15.6 8.9z" clip-rule="evenodd"/><path fill="#000" fill-rule="evenodd" d="M733.3 1049.2h114.5v9.5H733.3v-9.5z" clip-rule="evenodd"/><path fill="#7A77FF" fill-rule="evenodd" d="M835.3 972l5 40.5s-21.5 11-39 6-9-45.5-9-45.5l43-1z" clip-rule="evenodd"/><path fill="#000" fill-rule="evenodd" d="M790 987.1s21.9-2.7 26.6 20.9c7.879-.9 15.48-3.45 22.3-7.5 0 0 9 20.1 7.9 48.6-39.2 0-111.4.1-111.4.1s-.1-7.5 30.2-23.5c19-13.7 24.4-38.6 24.4-38.6z" clip-rule="evenodd"/><path fill="#FEFEFE" fill-rule="evenodd" d="M802.5 1020.6a.999.999 0 0 1 .5 1.3.937.937 0 0 1-.362.43.946.946 0 0 1-.538.17.626.626 0 0 1-.4-.1c-14.2-6.6-25.4-3.8-29.2-2.6.9-.9 2.1-2.3 2.9-3.2 5.5-1.1 15-1.6 27.1 4zm4-6.1a.626.626 0 0 1-.4-.1c-11.6-5.4-21.2-4.8-26.5-3.7.5-.8 1.1-1.6 1.6-2.3 5.8-.9 15-.8 25.8 4.3a.999.999 0 0 1 .5 1.3 1.22 1.22 0 0 1-1 .5z" clip-rule="evenodd"/><path fill="#000100" fill-rule="evenodd" d="M950.7 985.2h-47.2l-18-467.2h-30.9l-18 467.2h-47.2v-29.7c-29.4-37.7 0-129.1 0-218V443.4l161.1.6v311.5c0 84.7 32.2 177.2 0 203.5.2 16.6.2 26.2.2 26.2z" clip-rule="evenodd"/><path fill="#FDCB41" fill-rule="evenodd" d="M790.7 259.6H949v192.8H790.7V259.6z" clip-rule="evenodd"/><path fill="#87ACE8" fill-rule="evenodd" d="M1012.6 535.3c0 2.8-13.8 7-30.9 7-15.1 0-27.7-1.8-30.4-4.2v137.1a43.779 43.779 0 0 1-30.974-12.826A43.779 43.779 0 0 1 907.5 631.4V258.1l36 .1a69.163 69.163 0 0 1 48.75 20.362 69.187 69.187 0 0 1 20.15 48.838v207.4c.2.1.2.3.2.5zm-224.7 140l-.1-114.7-10.7-79.1 10.7-1.9-.1-95.3h-60.9v-57a69.217 69.217 0 0 1 68.9-69.2l36-.1v373.5a43.779 43.779 0 0 1-12.826 30.974A43.779 43.779 0 0 1 787.9 675.3z" clip-rule="evenodd"/><path fill="#FDCB41" fill-rule="evenodd" d="M906.3 260.7h-.2c-1.6 3.3-17.5 5.9-36.9 5.9s-35.3-2.6-36.9-5.9h-.2v-28.5h.1c0-3.6 16.6-6.5 37-6.5s37 2.9 37 6.5v28.5h.1z" clip-rule="evenodd"/><path fill="#000" fill-rule="evenodd" d="M869.8 226.3c18.3 0 33.1 2.6 33.1 5.8 0 3.2-14.8 5.8-33.1 5.8s-33.1-2.6-33.1-5.8c0-3.2 14.8-5.8 33.1-5.8z" clip-rule="evenodd"/><path fill="#000" d="M869.3 267.6c-13.14 0-38-1.57-38-7.5a1 1 0 1 1 2 0c0 1.92 12.36 5.5 36 5.5s36-3.58 36-5.5a1 1 0 1 1 2 0c0 5.9-24.86 7.5-38 7.5z"/><path fill="#5347E9" d="M950.2 538.3a.997.997 0 0 1-1-1v-135a.997.997 0 0 1 1-1 .997.997 0 0 1 1 1v135a.997.997 0 0 1-1 1z"/><path fill="#5F8AFF" fill-rule="evenodd" d="M788.1 483.2c-6.6.2-11.1-.3-11.1-1.3s4.1-2.2 10.7-3.3l.4 4.6z" clip-rule="evenodd"/><path fill="#5347E9" d="M948.3 563.2h-6.1a18.823 18.823 0 0 1-18.8-18.8v-58.7a.997.997 0 0 1 1-1c4.91 0 17.11-.26 24.28-2.65a.995.995 0 0 1 .925.15.993.993 0 0 1 .395.85l-.7 79.2a1.003 1.003 0 0 1-1 .95zm-22.9-76.5v57.7a16.822 16.822 0 0 0 16.8 16.8h5.11l.68-76.85c-6.99 1.97-17.41 2.31-22.59 2.35zm-129.6 76.4H788a.997.997 0 0 1-1-1 .997.997 0 0 1 1-1h7.8a16.822 16.822 0 0 0 16.8-16.8V485h-2.15c-7.81-.08-26.1-.26-32.88-1.89a.996.996 0 0 1-.831-.81 1.011 1.011 0 0 1 .185-.78.993.993 0 0 1 .699-.393c.137-.014.276.001.407.043 6.56 1.58 24.7 1.75 32.44 1.83h3.16a.997.997 0 0 1 1 1v60.3a18.817 18.817 0 0 1-18.83 18.8z"/><path fill="#000" d="M792.5 354.8a.997.997 0 0 1-1-1v-65.7a30.996 30.996 0 0 1 9.08-21.92 30.996 30.996 0 0 1 21.92-9.08h9.3a.997.997 0 0 1 1 1 .997.997 0 0 1-1 1h-9.3a28.998 28.998 0 0 0-29 29v65.7a.997.997 0 0 1-1 1zm148.7-60a.997.997 0 0 1-1-1v-5.7a28.993 28.993 0 0 0-8.494-20.506A28.996 28.996 0 0 0 911.2 259.1h-4.3a.997.997 0 0 1-1-1 1 1 0 0 1 1-1h4.3a30.996 30.996 0 0 1 21.92 9.08 30.996 30.996 0 0 1 9.08 21.92v5.7a.997.997 0 0 1-1 1z"/><path fill="#5347E9" d="M930.7 393.3a13.211 13.211 0 0 1-13.2-13.2v-47.9a.997.997 0 0 1 1-1 .997.997 0 0 1 1 1v47.9a11.21 11.21 0 0 0 11.2 11.2.997.997 0 0 1 1 1 .997.997 0 0 1-1 1zm20.5-.1a.997.997 0 0 1-1-1 .997.997 0 0 1 1-1 11.21 11.21 0 0 0 11.2-11.2v-47.8a.997.997 0 0 1 1-1 .997.997 0 0 1 1 1V380a13.211 13.211 0 0 1-13.2 13.2z"/><path fill="#000" d="M963.3 332.9a.997.997 0 0 1-1-1v-15.4a21.4 21.4 0 0 0-42.8 0v15.4a.997.997 0 0 1-1 1 .997.997 0 0 1-1-1v-15.4a23.396 23.396 0 0 1 6.854-16.546 23.396 23.396 0 0 1 33.092 0A23.396 23.396 0 0 1 964.3 316.5v15.4a.997.997 0 0 1-1 1z"/><path fill="#000" fill-rule="evenodd" d="M928.5 388.5h3.4a2.5 2.5 0 1 1 0 5h-3.4a2.47 2.47 0 0 1-1.774-.726A2.47 2.47 0 0 1 926 391c.01-.66.277-1.29.744-1.756a2.535 2.535 0 0 1 1.756-.744zM949.5 388.5h3.4a2.5 2.5 0 1 1 0 5h-3.4a2.47 2.47 0 0 1-1.774-.726A2.47 2.47 0 0 1 947 391c.01-.66.277-1.29.744-1.756a2.535 2.535 0 0 1 1.756-.744zM792.8 342.8a10.296 10.296 0 0 1 9.516 6.358 10.295 10.295 0 0 1-2.233 11.225 10.292 10.292 0 0 1-5.274 2.819 10.291 10.291 0 0 1-10.573-4.38 10.296 10.296 0 0 1-1.736-5.722 10.297 10.297 0 0 1 3.014-7.286 10.297 10.297 0 0 1 7.286-3.014z" clip-rule="evenodd"/><path fill="#5347E9" fill-rule="evenodd" d="M792.8 347.9a5.204 5.204 0 0 1 4.804 3.21 5.204 5.204 0 0 1-3.79 7.09 5.202 5.202 0 0 1-6.214-5.1 5.227 5.227 0 0 1 5.2-5.2z" clip-rule="evenodd"/><path fill="#FFB9B2" fill-rule="evenodd" d="M960.3 548.6s3.7-2.5 8.9-6.3c3.9.2 8.4 0 12.9 0 4.8 0 9.4-.3 13.4-.6.568.7 1.039 1.474 1.4 2.3 9.4 25 9.5 57.4 5.7 66.9-4.2 10.3-21.4 18-42.8 18-11.2 0-11.3-10.2-11.3-10.2l-.8-15c-4.7 2.9-7.9 1.8-7.9 1.8s4.5-10 6.7-35.5c1-11.6 7.8-16.5 13.1-18.6.4-1.7.7-2.8.7-2.8z" clip-rule="evenodd"/><path fill="#FDCB41" fill-rule="evenodd" d="M976.7 553c14.3 0 25.9 1.7 25.9 3.8 0 2.1-11.6 3.8-25.9 3.8-14.3 0-25.9-1.7-25.9-3.8 0-2.1 11.6-3.8 25.9-3.8z" clip-rule="evenodd"/><path fill="#FDCB41" fill-rule="evenodd" d="M976.7 541.6c-14 0-25.4-1.6-25.9-3.7h-.1v18.9h51.8v-17.5c-.8 2-12.1 2.3-25.8 2.3z" clip-rule="evenodd"/><path fill="#000" d="M983.7 625.9a.997.997 0 0 1-1-1 .997.997 0 0 1 1-1 7.577 7.577 0 0 0 5.92-2.51c4.73-5.16 3.79-16.49 3.78-16.6a1.005 1.005 0 0 1 2-.18c0 .5 1 12.31-4.3 18.13a9.617 9.617 0 0 1-7.4 3.16zM972.7 628.4a.997.997 0 0 1-1-1 .997.997 0 0 1 1-1 7.577 7.577 0 0 0 5.92-2.51c4.73-5.16 3.79-16.49 3.78-16.6a1.005 1.005 0 0 1 2-.18c0 .5 1 12.31-4.3 18.13a9.617 9.617 0 0 1-7.4 3.16zM960.8 630.4a.997.997 0 0 1-1-1 .997.997 0 0 1 1-1 7.577 7.577 0 0 0 5.92-2.51c4.73-5.16 3.79-16.49 3.78-16.6a1.002 1.002 0 1 1 2-.18c0 .5 1 12.31-4.3 18.13a9.617 9.617 0 0 1-7.4 3.16zM956.3 619.5a.997.997 0 0 1-1-1v-20.86c-.345.842-.77 1.649-1.27 2.41a15.374 15.374 0 0 1-13.53 6.45 1.012 1.012 0 0 1-.679-.362 1.012 1.012 0 0 1-.185-.347 1.014 1.014 0 0 1 .077-.767 1.002 1.002 0 0 1 .987-.524 13.294 13.294 0 0 0 11.68-5.57c2.41-3.62 2.92-10 2.92-10.1a1.001 1.001 0 0 1 2 .07v29.6a1 1 0 0 1-1 1zM979 542.52c-11.94 0-25.17-1.33-28.33-4.44a2.47 2.47 0 0 1-.83-1.78.997.997 0 0 1 1-1 .997.997 0 0 1 1 1c0 .06.06.18.23.35 2.12 2.08 13.24 4.14 29.65 3.85 19.36-.34 29.92-3.68 29.92-5.3 0-.265.11-.52.29-.707a1 1 0 0 1 .71-.293 1 1 0 0 1 .71.293c.18.187.29.442.29.707 0 5.33-20.85 7.11-31.88 7.3-.95.02-1.87.02-2.76.02z"/><path fill="#000" fill-rule="evenodd" d="M762.6 313.7H659.1l49.5 128.8h103.5l-49.5-128.8z" clip-rule="evenodd"/><path fill="#FFB9B2" fill-rule="evenodd" d="M704.4 368.8a23.465 23.465 0 0 1 7.7 0c.1 3.6-1 8-5 10.7l5-.5c0 4.1.2 9-6.6 12 4.4-.7 7.7-1 7.7-1 2 3.3-.9 11.1-12.9 14.6-6.4 7.1-2 10.3 1.2 18.7-7 1.9-23.4-.3-27.9-12.8-8.7-24.1-10.4-28.6-7.7-34.4 5.1-11 10.5-10 17.8-12.3 1.7-.6 5.4-1.5 9.5-2.4 8.1-2.3 18.3-4.6 18.3-4.6-1.1 5.2-2.1 8.6-7.1 12z" clip-rule="evenodd"/><path fill="#000" d="M679 377.2a1 1 0 0 1-.59-1.81 32.382 32.382 0 0 1 7.31-3.82 141.705 141.705 0 0 1 18.79-4.95c4.73-1.4 5.89-6.38 5.5-9.39a1.011 1.011 0 0 1 .87-1.13 1.007 1.007 0 0 1 1.13.87c.6 4.56-1.61 10-7 11.59-6.8 1.34-15.4 3.61-18.5 4.87a29.174 29.174 0 0 0-6.89 3.58c-.18.13-.398.197-.62.19zM679.6 388.9a.995.995 0 0 1-.589-.19.994.994 0 0 1-.365-1.119.996.996 0 0 1 .364-.501 32.139 32.139 0 0 1 7.31-3.82 141.551 141.551 0 0 1 18.79-4.95c4.73-1.4 5.89-6.38 5.5-9.39a1.011 1.011 0 0 1 .87-1.13 1.007 1.007 0 0 1 1.13.87c.6 4.56-1.61 10-7 11.59-6.8 1.34-15.41 3.61-18.5 4.87a29.174 29.174 0 0 0-6.89 3.58c-.18.13-.398.197-.62.19zM680.1 400.3a.995.995 0 0 1-.589-.19.994.994 0 0 1-.365-1.119.996.996 0 0 1 .364-.501 32.922 32.922 0 0 1 7.31-3.82 141.705 141.705 0 0 1 18.79-4.95c4.73-1.4 5.89-6.38 5.5-9.39a1.011 1.011 0 0 1 .87-1.13 1.011 1.011 0 0 1 1.13.87c.6 4.56-1.61 10-7 11.59-6.8 1.34-15.41 3.61-18.5 4.87a29.174 29.174 0 0 0-6.89 3.58c-.18.13-.398.197-.62.19z"/><path fill="#5346E9" fill-rule="evenodd" d="M726.5 319.7l-26 .2a7.904 7.904 0 0 1-6.9-5l-.7-1.8c-1-2.8.4-5.1 3.2-5.1h4.7a5.937 5.937 0 0 1 .6-4.6 5.24 5.24 0 0 1 4.5-2.2h.1a10.922 10.922 0 0 1 9.4 6.6l6.7-.1a7.904 7.904 0 0 1 6.9 5l.7 1.8c1 2.9-.4 5.2-3.2 5.2zM706 303.2a3.498 3.498 0 0 0-2.9 1.3 3.827 3.827 0 0 0-.2 3.5l10.4-.1c-1.5-2.6-4.6-4.7-7.3-4.7z" clip-rule="evenodd"/><path fill="#FFB9B2" fill-rule="evenodd" d="M840.1 166.6a7.756 7.756 0 0 0 2.2-.3v11.9h-.1v55.2c5.9 1.6 16.1 2.6 27.6 2.6s21.6-1 27.5-2.6v-26.2a20.071 20.071 0 0 0 12-18.3v-55.8a20.065 20.065 0 0 0-5.875-14.125A20.065 20.065 0 0 0 889.3 113.1h-27a20.065 20.065 0 0 0-14.125 5.875A20.065 20.065 0 0 0 842.3 133.1v17.5a7.828 7.828 0 0 0-2.2-.3 8.152 8.152 0 0 0-8.15 8.15 8.15 8.15 0 0 0 8.15 8.15z" clip-rule="evenodd"/><path fill="#F16465" fill-rule="evenodd" d="M902.9 130.6a14.544 14.544 0 0 1-6.6-1.5.993.993 0 0 1-.1.4s-7.2-1.8-27-13.3a2.763 2.763 0 0 0-.9-.1 10.183 10.183 0 0 0-5.2-1.5 9.997 9.997 0 0 0-10 10c-.021.37.013.74.1 1.1v36.2l-12.6-11.5v-25.3c-.013-.901.02-1.802.1-2.7a13.302 13.302 0 0 1-1.627-22.124A13.305 13.305 0 0 1 847.2 97.5c1.184.012 2.36.18 3.5.5-3.4-15.1 5.4-26.1 21.7-11.5 0 0-8.2 3.4-13.3 9.5 6.6-3.8 15.6-7 27.8-9.2a13.082 13.082 0 0 1 4.4-.7 13.6 13.6 0 0 1 13.6 13.2 15.71 15.71 0 0 1-2 31.3z" clip-rule="evenodd"/><path fill="#000" fill-rule="evenodd" d="M897.3 207.4a21.655 21.655 0 0 1-8.8 1.8h-7.6l16.4 15.7v-17.5z" clip-rule="evenodd"/><path fill="#000" d="M895.4 144.1a1.001 1.001 0 0 1-.42-1.91c6.47-3 14.09-.75 14.41-.65a1.004 1.004 0 0 1 .184 1.844 1.006 1.006 0 0 1-.764.076c-.07 0-7.22-2.15-13 .55a1 1 0 0 1-.41.09zM865.2 143.1a.996.996 0 0 1-.969-.779 1 1 0 0 1 .539-1.121c7.78-3.74 17.25-.58 17.65-.45a1.002 1.002 0 1 1-.64 1.9c-.09 0-9.11-3-16.15.35a.943.943 0 0 1-.43.1zM889.54 173.69a17.605 17.605 0 0 1-6-1.27 1.006 1.006 0 0 1-.708-.932.993.993 0 0 1 .661-.965 1.008 1.008 0 0 1 .807.057c1.48.61 5.77 1.88 7.87.49a2.27 2.27 0 0 0 1.13-1.77c.23-2.64-3.29-6.58-4.67-7.87a.996.996 0 0 1-.3-.87l2.1-14.4a1.009 1.009 0 1 1 2 .28l-2 13.9c1.33 1.32 5.22 5.54 4.91 9.13a4.225 4.225 0 0 1-2 3.26 6.62 6.62 0 0 1-3.8.96zM842.6 162.4a.993.993 0 0 1-.8-.4l-4.8-6.4a1.006 1.006 0 0 1-.19-.741 1.008 1.008 0 0 1 .742-.828 1 1 0 0 1 1.048.369l4.8 6.4a1.002 1.002 0 0 1-.2 1.4 1 1 0 0 1-.6.2zM885.52 183.2c-1.6 0-11-.4-13.19-9.77a.997.997 0 0 1 .757-1.126 1.003 1.003 0 0 1 1.183.666c2 8.55 11 8.24 11.38 8.23a1 1 0 1 1 .1 2h-.23z"/><path fill="#000" fill-rule="evenodd" d="M874.5 151a2.198 2.198 0 0 1 2.033 1.358 2.203 2.203 0 0 1-1.604 3 2.203 2.203 0 0 1-2.258-.936 2.198 2.198 0 0 1-.371-1.222 2.222 2.222 0 0 1 2.2-2.2zM900.7 151a2.198 2.198 0 0 1 2.033 1.358 2.203 2.203 0 0 1-1.604 3 2.203 2.203 0 0 1-2.258-.936 2.198 2.198 0 0 1-.371-1.222 2.222 2.222 0 0 1 2.2-2.2z" clip-rule="evenodd"/><path fill="#000001" fill-rule="evenodd" d="M183.2 1017.3c4.134 0 8.174 1.23 11.611 3.52a20.905 20.905 0 0 1 3.168 32.16 20.948 20.948 0 0 1-10.702 5.72c-4.054.8-8.256.39-12.075-1.19a20.877 20.877 0 0 1-9.38-7.7 20.915 20.915 0 0 1-1.934-19.61 20.907 20.907 0 0 1 19.312-12.9zM396.2 1017.3c4.134 0 8.174 1.23 11.611 3.52a20.905 20.905 0 0 1 3.168 32.16 20.948 20.948 0 0 1-10.702 5.72c-4.054.8-8.256.39-12.075-1.19a20.877 20.877 0 0 1-9.38-7.7 20.915 20.915 0 0 1-1.934-19.61 20.907 20.907 0 0 1 19.312-12.9zM261.2 1017.3c4.134 0 8.174 1.23 11.611 3.52a20.905 20.905 0 0 1 3.168 32.16 20.948 20.948 0 0 1-10.702 5.72c-4.054.8-8.256.39-12.075-1.19a20.877 20.877 0 0 1-9.38-7.7 20.915 20.915 0 0 1-1.934-19.61 20.907 20.907 0 0 1 19.312-12.9zM474.2 1017.3c4.134 0 8.174 1.23 11.611 3.52a20.905 20.905 0 0 1 3.168 32.16 20.948 20.948 0 0 1-10.702 5.72c-4.054.8-8.256.39-12.075-1.19a20.877 20.877 0 0 1-9.38-7.7 20.915 20.915 0 0 1-1.934-19.61 20.907 20.907 0 0 1 19.312-12.9z" clip-rule="evenodd"/><path fill="#87ACE8" fill-rule="evenodd" d="M183.2 1051.9a13.385 13.385 0 0 1-9.282-4.03 13.396 13.396 0 0 1-3.818-9.37c.005-1.47.276-2.93.8-4.3l-10.3-10.5c-1.414.49-2.904.73-4.4.7a13.473 13.473 0 0 1-12.3-8.7v-34.5l25.5-.1v30.7c.003 1.69-.372 3.37-1.1 4.9l9.7 9.9a12.887 12.887 0 0 1 5.2-1c3.502.08 6.833 1.52 9.282 4.03a13.396 13.396 0 0 1 3.818 9.37 12.856 12.856 0 0 1-8.094 11.99c-1.591.63-3.293.94-5.006.91zM396.2 1051.9a13.385 13.385 0 0 1-9.282-4.03 13.396 13.396 0 0 1-3.818-9.37c.005-1.47.276-2.93.8-4.3l-10.3-10.5c-1.414.49-2.904.73-4.4.7a13.473 13.473 0 0 1-12.3-8.7v-34.5l25.5-.1v30.7c.003 1.69-.372 3.37-1.1 4.9l9.7 9.9a12.887 12.887 0 0 1 5.2-1c3.502.08 6.833 1.52 9.282 4.03a13.396 13.396 0 0 1 3.818 9.37 12.856 12.856 0 0 1-8.094 11.99c-1.591.63-3.293.94-5.006.91zM145.8 718.6h293.5v9.2H145.8v-9.2zM145.8 840.6h293.5v9.2H145.8v-9.2zM145.8 957.6h293.5v9.2H145.8v-9.2z" clip-rule="evenodd"/><path fill="#87ACE8" d="M435.1 1011l-1.6-312.6a33.834 33.834 0 0 0-21.101-31.516A33.825 33.825 0 0 0 399.3 664.4l-132.2.1a35.997 35.997 0 0 0-35.9 35.8l-.6 324.6-9.3-18.7.6-305.7a45.58 45.58 0 0 1 45.3-45.2l132.2-.1a43.003 43.003 0 0 1 43.3 43l1.6 312.6-9.2.2z"/><path fill="#7A77FF" fill-rule="evenodd" d="M205.7 673.4h80.7v45.3h-80.7v-45.3z" clip-rule="evenodd"/><path fill="#7A77FF" d="M287.3 719.5H205a.997.997 0 0 1-1-1V613.4a1.335 1.335 0 0 1 0-.2c1.15-5.56 20.39-7.57 27.68-8.13V589.9a.997.997 0 0 1 1-1h26.7a.997.997 0 0 1 1 1v15.17c7.29.56 26.53 2.57 27.68 8.13.005.066.005.133 0 .2l.2 105.1a.994.994 0 0 1-.96 1zm-81.3-2h80.3l-.2-104c-.68-2.31-10.2-5.35-26.77-6.52a.998.998 0 0 1-.93-1V590.9h-24.7V606a.998.998 0 0 1-.93 1c-16.56 1.17-26.09 4.21-26.77 6.52V717.5z"/><path fill="#7A77FF" fill-rule="evenodd" d="M232.6 588.6h26.7v12.5h-26.7v-12.5z" clip-rule="evenodd"/><path fill="#fff" fill-rule="evenodd" d="M232.2 686.5a6.904 6.904 0 0 1 6.1 4.527 6.913 6.913 0 0 1-1.743 7.394 6.915 6.915 0 0 1-7.481 1.324 6.91 6.91 0 0 1-4.176-6.345 7.142 7.142 0 0 1 7.3-6.9zM243 679.8a3.398 3.398 0 0 1 3.335 4.063 3.4 3.4 0 0 1-6.735-.663 3.359 3.359 0 0 1 .987-2.413A3.359 3.359 0 0 1 243 679.8zM258 696.5c1.326 0 2.598.527 3.536 1.464a5.004 5.004 0 0 1 0 7.072 5.004 5.004 0 0 1-7.072 0 5.004 5.004 0 0 1 0-7.072A5.004 5.004 0 0 1 258 696.5z" clip-rule="evenodd"/><path fill="#87ACE8" d="M357.4 1011l-1.6-312.6a33.834 33.834 0 0 0-21.101-31.516A33.825 33.825 0 0 0 321.6 664.4l-132.2.1a35.997 35.997 0 0 0-35.9 35.8l-.6 324.6-9.3-18.7.6-305.7a45.58 45.58 0 0 1 45.3-45.2l132.2-.1a43.003 43.003 0 0 1 43.3 43l1.6 312.6-9.2.2z"/><path fill="#FDCB41" fill-rule="evenodd" d="M258.1 827.2a4.8 4.8 0 0 1-4.8-4.8v-47.2h9.6v47.2a4.8 4.8 0 0 1-4.8 4.8z" clip-rule="evenodd"/><path fill="#FCCC41" fill-rule="evenodd" d="M312.8 827.2a4.8 4.8 0 0 1-4.8-4.8v-14.6h9.6v14.6a4.8 4.8 0 0 1-4.8 4.8z" clip-rule="evenodd"/><path fill="#FFA1FF" fill-rule="evenodd" d="M294.6 827.2a4.8 4.8 0 0 1-4.8-4.8v-46.2h9.6v46.2a4.87 4.87 0 0 1-4.8 4.8z" clip-rule="evenodd"/><path fill="#7A77FF" fill-rule="evenodd" d="M276.4 827.2a4.8 4.8 0 0 1-4.8-4.8v-63.5h9.6v63.5a4.938 4.938 0 0 1-4.8 4.8zM331 827.2a4.8 4.8 0 0 1-4.8-4.8v-50.1h9.6v50.1a4.8 4.8 0 0 1-4.8 4.8z" clip-rule="evenodd"/><path fill="#7A77FF" d="M258.7 828.5a5.757 5.757 0 0 1-5.8-5.7l-.9-80.89a.99.99 0 0 1 .29-.71c.185-.188.436-.296.7-.3l9.5-.1a.997.997 0 0 1 1 1l.9 80.9a5.759 5.759 0 0 1-5.69 5.8zm-4.7-85.61l.89 79.9a3.75 3.75 0 1 0 7.5-.09l-.89-79.89-7.5.08zM276.9 828.3a5.757 5.757 0 0 1-5.8-5.7l-.9-80.89a.999.999 0 0 1 .28-.71 1.002 1.002 0 0 1 .71-.3l9.5-.1a.997.997 0 0 1 1 1l.9 80.9a5.759 5.759 0 0 1-5.69 5.8zm-4.69-85.61l.89 79.9a3.752 3.752 0 0 0 7.5-.09l-.89-79.89-7.5.08zM295.1 828.1a5.757 5.757 0 0 1-5.8-5.7l-.9-80.89a.987.987 0 0 1 .99-1.01l9.5-.1a.997.997 0 0 1 1 1l.9 80.9a5.76 5.76 0 0 1-5.69 5.8zm-4.69-85.61l.89 79.9a3.755 3.755 0 0 0 2.357 3.437 3.747 3.747 0 0 0 4.076-.862 3.738 3.738 0 0 0 1.067-2.665l-.89-79.89-7.5.08zM313.3 828a5.757 5.757 0 0 1-5.8-5.7l-.9-80.89a.99.99 0 0 1 .29-.71c.185-.188.436-.296.7-.3l9.5-.1a.997.997 0 0 1 1 1l.9 80.9a5.759 5.759 0 0 1-5.69 5.8zm-4.69-85.61l.89 79.9a3.75 3.75 0 1 0 7.5-.09l-.89-79.89-7.5.08zM331.6 827.8a5.757 5.757 0 0 1-5.8-5.7l-.9-80.89a.999.999 0 0 1 .28-.71 1.002 1.002 0 0 1 .71-.3l9.5-.1a.997.997 0 0 1 1 1l.9 80.9a5.759 5.759 0 0 1-5.69 5.8zm-4.69-85.61l.89 79.9a3.75 3.75 0 1 0 7.5-.09l-.89-79.89-7.5.08z"/><path fill="#7A77FF" d="M345.4 839.4H243.7a.997.997 0 0 1-1-1v-75.8a.997.997 0 0 1 1-1h101.7a.997.997 0 0 1 1 1v75.8a.997.997 0 0 1-1 1zm-100.7-2h99.7v-73.8h-99.7v73.8z"/><path fill="#7A77FF" fill-rule="evenodd" d="M236.1 830.8h116.1v10.6H236.1v-10.6z" clip-rule="evenodd"/><path fill="#87ACE8" fill-rule="evenodd" d="M260.9 1051.9a13.385 13.385 0 0 1-9.282-4.03 13.396 13.396 0 0 1-3.818-9.37c.005-1.47.276-2.93.8-4.3l-10.3-10.5c-1.414.49-2.904.73-4.4.7a13.473 13.473 0 0 1-12.3-8.7v-34.5l25.5-.1v30.7c.003 1.69-.372 3.37-1.1 4.9l9.7 9.9a12.887 12.887 0 0 1 5.2-1c3.502.08 6.833 1.52 9.282 4.03A13.396 13.396 0 0 1 274 1039a12.856 12.856 0 0 1-8.094 11.99c-1.591.63-3.293.94-5.006.91zM473.9 1051.9a13.385 13.385 0 0 1-9.282-4.03 13.396 13.396 0 0 1-3.818-9.37c.005-1.47.276-2.93.8-4.3l-10.3-10.5c-1.414.49-2.904.73-4.4.7a13.473 13.473 0 0 1-12.3-8.7v-34.5l25.5-.1v30.7c.003 1.69-.372 3.37-1.1 4.9l9.7 9.9a12.887 12.887 0 0 1 5.2-1c3.502.08 6.833 1.52 9.282 4.03A13.396 13.396 0 0 1 487 1039a12.856 12.856 0 0 1-8.094 11.99c-1.591.63-3.293.94-5.006.91z" clip-rule="evenodd"/><path fill="#FEFEFE" fill-rule="evenodd" d="M375.1 511.9H504l57.5 156.7H375.1V511.9z" clip-rule="evenodd"/><path fill="#87ACE8" fill-rule="evenodd" d="M351.9 462.4c15.8 5.8 32.8-2.2 38.1-17.7l40.5-120c5.3-15.6-3.3-32.9-19-38.6-15.7-5.7-32.8 2.2-38.1 17.7 0 .1-.1.2-.1.3L333 423.4c0 .1-.1.2-.1.3-5.3 15.6 3.3 32.9 19 38.7z" clip-rule="evenodd"/><path fill="#87ACE8" fill-rule="evenodd" d="M337 365.2c.6 2.6-7.7 13-19.2 23.8-10.7 10.1-20.3 17.1-23.7 17.4l45.5 48.1.1.1c11.7 12.3 30.8 13.2 42.8 1.9 12-11.3 12.2-30.4.5-42.7-18.2-19.4-46-48.6-46-48.6z" clip-rule="evenodd"/><path fill="#5347E9" d="M383 414.6a.989.989 0 0 1-.397-.08.985.985 0 0 1-.333-.23c-18-19-45.72-48.11-46-48.4a.998.998 0 0 1 .755-1.636 1 1 0 0 1 .685.256c.28.29 28 29.42 46 48.4a.997.997 0 0 1 0 1.42 1 1 0 0 1-.71.27z"/><path fill="#000" fill-rule="evenodd" d="M322.6 349.5c-1.8-1.8-11.5 4.5-21.7 14.2s-17.1 19-15.4 20.8c1.7 1.8 11.5-4.5 21.7-14.2s17.2-19 15.4-20.8zM337 365.1c-2.1-2.2-13.4 5.1-25.3 16.3-11.9 11.2-19.8 22-17.7 24.3 2.1 2.3 13.4-5.1 25.3-16.3 11.9-11.2 19.8-22 17.7-24.3z" clip-rule="evenodd"/><path fill="#FCCC41" fill-rule="evenodd" d="M306.8 370.3c-10 9.5-19.6 15.7-21.4 14l13 13.6.1-.1c2.2 1.2 11.5-4.9 21.3-14.1 10-9.5 16.8-18.6 15.2-20.6.1-.1.1-.1 0-.1l-12.6-13.5-.3.3c1.2 2.3-5.5 11.3-15.3 20.5z" clip-rule="evenodd"/><path fill="#FFB9B2" fill-rule="evenodd" d="M305.8 367.7a99.939 99.939 0 0 1-14.5 11.6c-3.7-4.3-6.8-7.7-8.7-9.9-6.1-1.3-64.1-30.9-71.8-35.3-7.7-4.4-5.9-9.8 8.4-4.8 10.6 3.7 24.2 7.5 24.2 7.5s-31.4-21.2-37.3-26c-3.6-2.8-2.9-5.4-1.4-6.5a4.557 4.557 0 0 1 2.8-.4s-1.6-1.5-3.2-3.2c-2.5-2.7.4-7 5.1-5 8.1 3.5 41.7 20.5 41.7 20.5s-16.1-12.6-28.3-22.1c-8.3-6.5-3.7-10.4 6.5-4.5 7.5 4.4 38.5 22.4 38.5 22.4s18.6 10.4 4.4-11.5c-7.2-11.1-4.9-17.5-1.2-14.4 3.7 3.1 27 33.4 32.9 41.6 5.9 8.2 4.8 15.3 4.8 15.3l10.3 9.8c-2.5 3.9-7.3 9.3-13.2 14.9z" clip-rule="evenodd"/><path fill="#000" d="M247.6 343.2a.997.997 0 0 1-1-1c0-.7.42-17.21 10.67-28.07a1.004 1.004 0 1 1 1.46 1.38c-9.71 10.28-10.13 26.56-10.13 26.73a1 1 0 0 1-1 .96zM286.2 346.3a.997.997 0 0 1-.64-.23c-15.18-12.52-8.06-30.86-8-31a1.006 1.006 0 0 1 1.628-.348 1.006 1.006 0 0 1 .232 1.088c-.28.7-6.64 17.18 7.41 28.76a1 1 0 0 1 .13 1.41 1.004 1.004 0 0 1-.76.32z"/><path fill="#000" d="M249.7 327.7a1.006 1.006 0 0 1-.5-.13l-35.5-20.2a1.005 1.005 0 0 1-.37-1.37 1.005 1.005 0 0 1 1.37-.37l35.5 20.2a1.002 1.002 0 0 1 .119 1.661 1 1 0 0 1-.609.209h-.01z"/><path fill="#FFB9B2" fill-rule="evenodd" d="M515.2 894.8l58.2 75.5-25.6 41.3-48.3 34.8-.3-11 14.7-65-30.9-47.8 32.2-27.8z" clip-rule="evenodd"/><path fill="#000" fill-rule="evenodd" d="M510.4 1058.9h-46.5s-.3-8.3 10.8-13.4a117.216 117.216 0 0 0 25.5-16.5s6.4 8.4 14.4 1c9.3-8.5 35-49.3 40.8-63.3 4.8-11.6 2.4-17.2 2.4-17.2a83.735 83.735 0 0 1 17.8 10c6.7 4.8 12.6 13.6 12.6 13.6l-63.7 79.5a18.015 18.015 0 0 1-6.34 4.74 18.024 18.024 0 0 1-7.76 1.56zM546 934.7l-43.1 18.7-3.5-5.5-.1-.3 34.9-28.3 11.8 15.4z" clip-rule="evenodd"/><path fill="#7A77FF" fill-rule="evenodd" d="M543.5 919.4l-45 32.6-155.7-243.5a52.79 52.79 0 0 1-6.3-40.1l56-228.6h72.2l-59.4 243.4 138.2 236.2z" clip-rule="evenodd"/><path fill="#5347E9" d="M526 932.9a.995.995 0 0 1-.87-.5l-131.8-229a43.271 43.271 0 0 1-4.81-30.61l33.1-157c.028-.131.081-.256.156-.367a1.017 1.017 0 0 1 1.054-.423 1.03 1.03 0 0 1 .646.441 1.035 1.035 0 0 1 .144.769l-33.1 157a41.207 41.207 0 0 0 4.59 29.19l131.8 229a1 1 0 0 1-.87 1.5H526z"/><path fill="#000" fill-rule="evenodd" d="M493.1 943.6l-25.7-40.2 1.9-101 9.6 6.6 42.3 72.3-28.1 62.3zM416.9 514.2h28.3l-7.6 37.7-20.7-37.7z" clip-rule="evenodd"/><path fill="#FFB9B2" fill-rule="evenodd" d="M468.7 1056.8l-93.2 2.1-4.9-8.5 47.9-46.2 19-72.1 38.4-30.4-8.4 99.7 1.2 55.4z" clip-rule="evenodd"/><path fill="#000" fill-rule="evenodd" d="M357.9 1058.9s-1.1-11.7 25.4-20.9c4.4 3.3 15.5 7.6 24.9 7.6 16.5 0 42-9.7 59.7-21.7.109-.05.21-.12.3-.2 0 0 2.1 6.5 1.1 35-39.2.1-111.4.2-111.4.2zM425.4 978.1l45.6-.9-3.1 21.2-44.8-11.7 2.3-8.6z" clip-rule="evenodd"/><path fill="#7A77FF" fill-rule="evenodd" d="M438.1 439.6h86.2l-51.2 544.8H417l21.1-544.8z" clip-rule="evenodd"/><path fill="#5347E9" d="M450.7 985.7h-.08a.994.994 0 0 1-.875-.691.986.986 0 0 1-.045-.389l28-359a1.02 1.02 0 0 1 .349-.684 1.007 1.007 0 0 1 1.605.455.99.99 0 0 1 .046.389l-28 359a.998.998 0 0 1-1 .92z"/><path fill="#87ACE8" fill-rule="evenodd" d="M529.7 345.2l-7.6 82.9 10.5 73.3H544l-.8 73.5 19.8 93.6c-67.1 0-101.7-41.8-103.4-94.5l-8.3-276.7c1.1-.8 19.2-20.7 19.2-20.7s42.3 7.4 55.1 10.5a31.407 31.407 0 0 1 23.7 29.3 28.9 28.9 0 0 1-19.6 28.8z" clip-rule="evenodd"/><path fill="#5346E9" fill-rule="evenodd" d="M532.9 503.7c6.9-.3 11.3-1.1 11.5-2 .2-.9-3-1.7-11.9-2.5l.4 4.5z" clip-rule="evenodd"/><path fill="#5347E9" d="M532.7 576.6h-.1l-13.4-1.31c-17-1.64-31.28-16.61-31.9-33.35 0-.21-.8-21.08-1.3-36.21a.997.997 0 0 1 1-1 .997.997 0 0 1 1 1c.49 15.12 1.29 36 1.3 36.19.58 15.79 14.08 29.89 30.1 31.44l13.4 1.31a1.013 1.013 0 0 1 .893.663 1 1 0 0 1-.993 1.337v-.07z"/><path fill="#5347E9" d="M488.5 506.5H487a.997.997 0 0 1-1-1 .997.997 0 0 1 1-1c25.62.06 53.27-1.22 55.21-3.41a.995.995 0 0 1 .676-.363 1.003 1.003 0 0 1 .734.223 1 1 0 0 1 .17 1.36c-2.95 3.83-41.25 4.19-55.29 4.19z"/><path fill="#87ACE8" fill-rule="evenodd" d="M336 669.1l56-231.4-3.9-143 32.5-.5 5 150-26.7 129a155.54 155.54 0 0 1-44.1 79.6L336 669.1z" clip-rule="evenodd"/><path fill="#5347E9" d="M392 441.7a1 1 0 0 1-1-.79l-16.7-76.8a39.359 39.359 0 0 1 .83-19.81l6.9-21.7c.096-.231.275-.418.501-.524a1 1 0 0 1 1.399 1.124l-6.9 21.7a37.285 37.285 0 0 0-.77 18.79l16.7 76.8a.99.99 0 0 1-.138.755.997.997 0 0 1-.632.435l-.19.02z"/><path fill="#000" fill-rule="evenodd" d="M441.5 255.7c-16.6 3-29.8 12.5-29.5 21.3.1 3.5 3.4 7.2 7.1 9.1 9.4-13.8 31.9-13.4 23.5 1.4 16.6-3 30.2-14.6 29.9-23.4-.3-8.8-14.4-11.3-31-8.4zM399.6 151.3a12.773 12.773 0 0 1 12.7 12.3 11.829 11.829 0 0 1-11.9 12.3 12.768 12.768 0 0 1-12.7-12.3 11.832 11.832 0 0 1 11.9-12.3z" clip-rule="evenodd"/><path fill="#000" fill-rule="evenodd" d="M436 135.1a43.743 43.743 0 0 0-42.4 31.8c-1.2 4.4 7.6 15 7.7 19.8.8 25.2 12.5 39.6 37.7 39.6a43.85 43.85 0 0 0 31.809-13.362A43.843 43.843 0 0 0 483.1 180.7a47.42 47.42 0 0 0-47.1-45.6z" clip-rule="evenodd"/><path fill="#000" fill-rule="evenodd" d="M446.8 106.3s-9.1 21.5 7.2 34.7c-35.4-5.1-33.8-32.8-7.2-34.7z" clip-rule="evenodd"/><path fill="#000" fill-rule="evenodd" d="M490.5 134.7c-6.4-60.1-75-18.7-28.3 29.9 21.2 5.8 57.6-20 28.3-29.9z" clip-rule="evenodd"/><path fill="#FFB9B2" fill-rule="evenodd" d="M460.9 192.7c1.3-.7 2.5-1.4 3.6-2h.3a7.941 7.941 0 0 1 7.9 7.7 7.46 7.46 0 0 1-2.074 5.412 7.435 7.435 0 0 1-2.432 1.683 7.44 7.44 0 0 1-2.894.605 11.116 11.116 0 0 1-1.9-.2l.6 2.2 5.6 75.2s-32.5-10.5-36.9 36.2c-5.9-33.5-13-28.3-13.3-37.2-.4-16.9-.9-37.7-.9-37.7s-24.1-2.1-25.2-34.1c-1.2-36.1-1.1-38.6-1.1-38.6s13.5-3.7 14.5-11.6c4.4 14.3 21.7 6.7 34.6 13.9 11 6.1.7 15 19.6 18.5z" clip-rule="evenodd"/><path fill="#000" fill-rule="evenodd" d="M432.5 190.7a2.808 2.808 0 0 1 2.7 2.6 2.559 2.559 0 0 1-2.5 2.6 2.808 2.808 0 0 1-2.7-2.6 2.495 2.495 0 0 1 .696-1.833 2.497 2.497 0 0 1 1.804-.767zM402.9 190.7a2.808 2.808 0 0 1 2.7 2.6 2.559 2.559 0 0 1-2.5 2.6 2.808 2.808 0 0 1-2.7-2.6 2.495 2.495 0 0 1 .696-1.833 2.497 2.497 0 0 1 1.804-.767z" clip-rule="evenodd"/><path fill="#000" d="M460.7 200.3a1 1 0 0 1-.49-1.87l6.1-3.4a.995.995 0 0 1 .762-.099 1.017 1.017 0 0 1 .608.469.995.995 0 0 1 .099.762 1.017 1.017 0 0 1-.469.608l-6.1 3.4a.999.999 0 0 1-.51.13zM417.73 221.3h-.25a.997.997 0 0 1-1-1 .997.997 0 0 1 1-1 16.998 16.998 0 0 0 10-3.56 1 1 0 0 1 1.3 1.52 18.72 18.72 0 0 1-11.05 4.04zM397.5 182.3a.998.998 0 0 1-.964-.736 1 1 0 0 1 .454-1.124c4.77-2.8 12.17-3 12.48-3a.994.994 0 0 1 .716.272.996.996 0 0 1-.276 1.64.996.996 0 0 1-.38.088c-.07 0-7.2.23-11.52 2.76a.998.998 0 0 1-.51.1zM438.9 183.6a1 1 0 0 1-.47-.12 37.86 37.86 0 0 0-17.2-3.28.997.997 0 0 1-1-1 .997.997 0 0 1 1-1c10.93-.32 17.91 3.36 18.2 3.52a.997.997 0 0 1 .495 1.122 1.003 1.003 0 0 1-.965.758h-.06zM414.57 215.14a5.297 5.297 0 0 1-3.25-.93c-1.47-1.14-1.91-3.17-1.3-6 2.47-11.95 4.08-20.39 4.1-20.48a.998.998 0 0 1 1.96.38c0 .08-1.63 8.54-4.1 20.51-.44 2.05-.25 3.4.57 4 2 1.52 7.36-.64 9.1-1.51a1.003 1.003 0 0 1 1.277.472.999.999 0 0 1-.377 1.308c-.55.3-4.55 2.25-7.98 2.25zM434.6 193.2a1 1 0 0 1-.47-.12l-6.5-3.5a.996.996 0 0 1-.352-1.319 1.003 1.003 0 0 1 1.292-.441l6.5 3.5a1 1 0 0 1-.47 1.88zM405.5 193.2a1 1 0 0 1-.49-.13l-6.3-3.5a1.005 1.005 0 0 1-.37-1.37 1.005 1.005 0 0 1 1.37-.37l6.3 3.5a1.002 1.002 0 0 1 .119 1.661 1 1 0 0 1-.609.209h-.02z"/><path fill="#000" fill-rule="evenodd" d="M418.5 244.5s.1 5.8.3 13.8c31.8-2 36.7-29.2 36.7-29.2a49.335 49.335 0 0 1-17.4 11.9c-7.2 2.8-15.4 3.3-20.8 3.3.392.11.794.177 1.2.2z" clip-rule="evenodd"/><path fill="#FCCC41" fill-rule="evenodd" d="M401.8 307.4s9.8-15.7 18-10.9a9.931 9.931 0 0 1 3.9 4.8h-3.1l4.9 142.8 30.2-.6-4.3-142.2h-7.3c3.9-6.4 11.5-9.4 24.7 5.5 7.4-6.4 15.9-16.1 17.4-25.6 0 0-7.9-23.2-18.6-24.1-.1.6-.3-.1-.3.3 5.4.3 14.5 15.4-20.9 29.3-4.2.5-7.5 7.3-9.8 14.6l-4.2 14.6-3.6-14.7-5.9-12.9s-9.3-4.9-10.5-8.4c-3.2-9.7 5.9-14.1 5.9-14.1l.4-1.4s-7.8 1.6-11.7 11.9c-6.8 12.2-5.2 31.1-5.2 31.1z" clip-rule="evenodd"/><path fill="#000" d="M432.7 319a.997.997 0 0 1-1-.83c-.22-1.23-.43-2.5-.65-3.8-1.9-11.46-4.27-25.71-12.17-27.29a1.311 1.311 0 0 1-.26-.09c-3.59-1.85-7.52-5.75-7.64-10-.11-4.5 2.27-8.82 6.88-12.51a.999.999 0 0 1 1.24 1.56c-4.1 3.28-6.22 7.05-6.12 10.9.08 2.83 2.78 6.25 6.44 8.17 8.59 1.85 11.2 14.62 13.23 26.63 2.65-14.38 7.27-24.49 9.63-25.23a.27.27 0 0 1 .12 0c16.71-3 29.35-14.51 29.08-22.39a6.408 6.408 0 0 0-3.57-5.95.998.998 0 0 1 .152-1.878.993.993 0 0 1 .788.118 8.318 8.318 0 0 1 4.63 7.65c.33 9.79-14.25 21.4-30.62 24.4-1.34.78-6.78 11.39-9.19 29.66a1.001 1.001 0 0 1-1 .87l.03.01z"/><path fill="#000" fill-rule="evenodd" d="M401.8 307.4l27.5-6.4s-1.3-8.6-4.4-12c-5.8-6.5-14.5 1.9-23.1 18.4zM468.8 306.8l-32.8-4.3c.3-.2 1.1-12.7 7.8-15.9 4.1-1.8 18.8 9 25 20.2z" clip-rule="evenodd"/><path fill="#87ACE8" fill-rule="evenodd" d="M495.8 335.4l-.1.1 86 93.1.1-.1a31.093 31.093 0 0 0 22 9.2 28.985 28.985 0 0 0 21.073-8.841A28.998 28.998 0 0 0 633 407.5a31.226 31.226 0 0 0-7.3-19l.1-.1-83.6-90.4a31.308 31.308 0 0 0-24.4-11.8 28.994 28.994 0 0 0-27.329 18.686A28.997 28.997 0 0 0 488.6 316.4a29.561 29.561 0 0 0 7.2 19z" clip-rule="evenodd"/><path fill="#5347E9" d="M581.7 429.7a.994.994 0 0 1-.71-.32l-86-93.1a.999.999 0 0 1-.26-.53 32.409 32.409 0 0 1-7.21-19.22.994.994 0 0 1 .272-.716.996.996 0 0 1 1.64.276.996.996 0 0 1 .088.38 30.366 30.366 0 0 0 7.07 18.39.995.995 0 0 1 .21.43l85.3 92.35c.161.049.308.135.43.25a1.007 1.007 0 0 1 .296.71.998.998 0 0 1-.296.71l-.1.1a1.01 1.01 0 0 1-.73.29zM563.6 378.1a.995.995 0 0 1-.999-.88.993.993 0 0 1 .209-.74c4.49-5.73 13.05-7.3 13.42-7.36a.995.995 0 0 1 .741.169.995.995 0 0 1 .244 1.389 1.003 1.003 0 0 1-.645.412c-.08 0-8.18 1.5-12.18 6.63a1 1 0 0 1-.79.38z"/><path fill="#000" fill-rule="evenodd" d="M522.1 377.1c2.5 0 4.9 11.6 5.4 25.9.5 14.3-1.2 25.9-3.7 25.9s-4.9-11.6-5.4-25.9c-.5-14.3 1.2-25.9 3.7-25.9zM543 377.3c3 0 5.9 13.4 6.4 30s-1.4 30-4.4 30c-3 0-5.9-13.4-6.4-30s1.4-30 4.4-30z" clip-rule="evenodd"/><path fill="#000" fill-rule="evenodd" d="M539.7 377.1h3.4l.1 3.5h-3.4l-.1-3.5z" clip-rule="evenodd"/><path fill="#FCCC41" fill-rule="evenodd" d="M527.2 403.1c.5 14-1.1 25.4-3.6 25.6l18.5-.1v-.1c2.3-.8 3.8-11.9 3.4-25.6-.5-14-2.8-25.4-5.3-25.6 0-.1 0-.1-.1-.1l-18.2-.2c2.5.9 4.8 12.5 5.3 26.1z" clip-rule="evenodd"/><path fill="#FFB9B2" fill-rule="evenodd" d="M525 400.9c-.4-11.5-2.2-20.9-4-20.9h-15.8c-.5-.1-2.9-.4-7.4-3.2l-25.6-33.6s-4.1 2.5-4.7 9.7c-.1 0-.3-.1-.4-.1v-.3h-17.6v.1a6.57 6.57 0 0 0-1.4-.1 12.391 12.391 0 0 0-8.827 3.49 12.392 12.392 0 0 0-3.773 8.71 10.46 10.46 0 0 0 .6 3.6 10.893 10.893 0 0 0-.6 3.6 12.61 12.61 0 0 0 .8 4.3 12.176 12.176 0 0 0-.8 4.3 12.61 12.61 0 0 0 .8 4.3 12.176 12.176 0 0 0-.8 4.3 12.404 12.404 0 0 0 7.839 11.333 12.41 12.41 0 0 0 4.761.867 4.998 4.998 0 0 0 1.9-.3h5.2v-7.3l7.7.6s3.2 7.1 4.4 9c7.3 12.4 16.6 17.1 26.5 18.2l.2.3h28.5c1.7-.2 2.8-9.4 2.5-20.9z" clip-rule="evenodd"/><path fill="#000" d="M463.2 395.5h-12.7a.997.997 0 0 1-1-1 .997.997 0 0 1 1-1h12.7a.997.997 0 0 1 1 1 .997.997 0 0 1-1 1zM435.8 371.09a1.003 1.003 0 0 1-1-.86 5.811 5.811 0 0 1 1.61-4.31c2.85-3.26 8.84-4.92 17.78-4.92h11.45c3.29 0 3.49 0 3.5 1 .01 1-1 1-1.53 1-.123 0-.244-.02-.36-.06h-13.06c-10.29 0-14.5 2.27-16.21 4.17a3.998 3.998 0 0 0-1.2 2.81 1 1 0 0 1-.87 1.1l-.11.07zM435.8 380.09a1.003 1.003 0 0 1-1-.86 5.811 5.811 0 0 1 1.61-4.31c2.85-3.26 8.84-4.92 17.78-4.92h11.45c3.29 0 3.49 0 3.5 1 .01 1-1 1-1.53 1-.123 0-.244-.02-.36-.06h-13.06c-10.29 0-14.5 2.27-16.21 4.17a3.998 3.998 0 0 0-1.2 2.81 1 1 0 0 1-.87 1.1l-.11.07zM435.8 390.09a1.003 1.003 0 0 1-1-.86 5.811 5.811 0 0 1 1.61-4.31c2.85-3.26 8.84-4.92 17.78-4.92h11.45c3.29 0 3.49 0 3.5 1 .01 1-1 1-1.53 1-.123 0-.244-.02-.36-.06h-13.06c-10.29 0-14.5 2.27-16.21 4.17a3.998 3.998 0 0 0-1.2 2.81 1 1 0 0 1-.87 1.1l-.11.07z"/><path fill="#87ACE8" fill-rule="evenodd" d="M542.8 377.3c2.3 1.3 4.5 14.8 5.1 30.8.5 15-.6 26.9-2.6 29.7h58.4v-.1h.1a28.985 28.985 0 0 0 21.073-8.841A28.998 28.998 0 0 0 633 407.5a31.442 31.442 0 0 0-31.2-30.2h-59z" clip-rule="evenodd"/><path fill="#5347E9" d="M601.5 381.2a.997.997 0 0 1-.37-.07c-.07 0-7.69-2.93-24.73-2.93-17.3 0-33.35-.1-33.51-.1a.997.997 0 0 1-1-1 1 1 0 0 1 1-1c.16 0 16.19.1 33.49.1 17.49 0 25.15 2.94 25.47 3.07a1 1 0 0 1-.37 1.93h.02z"/></svg>