<svg xmlns="http://www.w3.org/2000/svg" fill="none" viewBox="0 0 1221 1001"><path fill="#E26A64" fill-rule="evenodd" d="M1105.64 956.453l-54.88-7.098h-24.7c-15.29 11.396-38.983 26.191-42.982 12.196-3.499-12.296.3-22.692 8.497-53.081.3-15.994.5-26.99.5-26.99l46.185-.5.5 30.589 66.88 44.884z" clip-rule="evenodd"/><path fill="#000" fill-rule="evenodd" d="M992.075 889.177v-.5l46.485-.5.3 17.094c-17.09-7.897-36.69-13.495-46.785-16.094z" clip-rule="evenodd"/><path fill="#7A77FF" fill-rule="evenodd" d="M993.475 979.045c-.6-.1-1.2-.3-1.7-.4-22.892 0-15.695-32.588-15.695-32.588s3.999 2.399 29.59-3.399c3.1-.7 6.1-1.5 9-2.299l-27.693-14.795 4.098-14.895 42.285 22.692c13.8-6.397 21.19-12.695 21.19-12.695s13.6 8.297 35.09 16.194c13.7 4.998 36.79 3.998 36.79 3.998v15.895c0 22.392-33.59 22.192-60.28 22.192-34.39.1-72.675.1-72.675.1z" clip-rule="evenodd"/><path fill="#E26A64" fill-rule="evenodd" d="M840.025 880.38s-.9 7.698-3.899 28.69c3.199 31.389 8.397 40.185 4.899 52.481-5.999 20.992-91.171-12.196-91.171-12.196l35.489-35.287 9.497-34.687 45.185.999z" clip-rule="evenodd"/><path fill="#7A77FF" fill-rule="evenodd" d="M824.13 951.954c7.214.946 14.53.778 21.693-.5 1.1 12.296-8.097 27.191-21.693 28.09-1 .1-1.999.1-2.899.2 0 0-48.884-.1-66.978-.1-21.493 0-20.993-30.089-20.993-30.089s14.895-4.898 26.791-12.195c8.797-5.398 16.195-13.895 16.195-13.895 20.493-2.799 36.288 10.196 36.288 10.196l24.192-19.093 3.599 14.295-23.393 18.693.3 1a11.596 11.596 0 0 0 6.898 3.398z" clip-rule="evenodd"/><path fill="#000" fill-rule="evenodd" d="M840.025 880.38s-1.7 12.796-3.299 24.391c-19.694-8.197-39.487-15.994-44.785-18.093l48.084-6.298z" clip-rule="evenodd"/><path fill="#7A77FF" fill-rule="evenodd" d="M792.04 887.878l94.17-431.744 157.75-101.863v534.606h-53.984l-22.493-417.848-118.461 416.849H792.04z" clip-rule="evenodd"/><path fill="#5347E9" d="M1007.77 881.58c-.27 0-.52-.106-.71-.293a.986.986 0 0 1-.29-.707l-15.495-371.865a.998.998 0 0 1 .96-1.039.997.997 0 0 1 1.039.959L1008.77 880.5c0 .265-.11.52-.29.707-.19.187-.45.293-.71.293v.08z"/><path fill="#000" fill-rule="evenodd" d="M968.283 486.723l61.277 17.794c-8.09 3.898-36.285 16.694-58.978 25.491l-2.299-43.285z" clip-rule="evenodd"/><path fill="#E26A64" fill-rule="evenodd" d="M1135.73 359.97l-100.27-17.294V304.19l9.5 1.599v-13.895h26.79l1.7 18.793 62.38 10.697v38.586h-.1z" clip-rule="evenodd"/><path fill="#000" fill-rule="evenodd" d="M864.417 281.098c11.696 8.297 20.393 16.194 19.493 17.594-.899 1.399-11.296-4.199-22.992-12.596-11.696-8.397-20.393-16.194-19.494-17.593.9-1.4 11.297 4.198 22.993 12.595z" clip-rule="evenodd"/><path fill="#7A77FF" fill-rule="evenodd" d="M1054.85 295.693l18.1-.5-7.1-75.673a52.912 52.912 0 0 0-38.09-44.983l-22.59-7.897s-4.8 16.594-19.793 15.594c-14.995-1-29.89-13.795-29.89-13.795l-33.589 12.895a81.055 81.055 0 0 0-38.088 28.99l-42.186 57.979c1.9-.5 11.696 4.898 22.693 12.695 11.696 8.297 20.393 16.194 19.493 17.594l27.791-38.686 13.796 73.773-23.493 80.971a49.854 49.854 0 0 1-7.497-.7l-17.594 87.268c.4.5-.1 1.2-.1 1.2 3.599 3.498 42.686 6.197 90.37 6.197 50.087 0 86.067-2.899 90.267-7.097-1.3-35.187-6.09-154.444-6.09-154.444l3.59-51.381z" clip-rule="evenodd"/><path fill="#E26A64" fill-rule="evenodd" d="M896.806 414.649c9.497 1.6 37.588 1.4 49.084.3.2-3.398.2-7.397 0-12.095-.5-10.297-10.996-18.793-19.394-23.992l-49.983-73.373s1.399-1.899 4.798-6.797l.1-.1c.1-1.3-5.698-6.898-13.495-12.896-7.798-5.998-14.596-10.196-15.895-9.696 0 .1-.1.2-.1.3-5.498 7.597-7.998 10.696-7.998 10.696a30.756 30.756 0 0 0-.1 36.187l52.883 75.672c0 5.598 0 10.996.1 15.794z" clip-rule="evenodd"/><path fill="#5347E9" d="M967.483 509.815c-34.899 0-88.671-1.809-93.769-6.777a.997.997 0 0 1-.304-.706.993.993 0 0 1 .284-.714 1.009 1.009 0 0 1 1.091-.233c.122.049.234.121.328.213 3.509 3.429 44.986 6.218 92.37 6.218 19.644 0 52.777-1.12 64.097-1.999 5.8-.4 10.27-.89 13.87-1.29.26-.029.53.048.74.215.2.167.34.41.37.675a.992.992 0 0 1-.22.739.99.99 0 0 1-.67.37c-3.61.41-8.11.91-13.94 1.31-11.35.85-44.563 1.979-64.247 1.979zm-34.889-24.091H915.7a1 1 0 1 1 0-1.999h16.894a16.819 16.819 0 0 0 16.795-16.794v-51.272c-9.307 1.41-47.904 1.87-54.812-.569a1.003 1.003 0 0 1-.532-1.243.998.998 0 0 1 1.192-.637c6.837 2.399 48.984 1.78 54.902.27a.991.991 0 0 1 .859.18 1.004 1.004 0 0 1 .39.79v52.481a18.815 18.815 0 0 1-18.794 18.793zm29.191-184.533h-10.497a1 1 0 1 1 0-1.999h10.497a12.995 12.995 0 0 0 12.996-12.996v-29.829c-1.11.15-2.569.29-4.419.44a268.4 268.4 0 0 1-32.339 0c-6.398-.47-8.527-1-8.527-3.099 0-.265.105-.519.292-.707a1.002 1.002 0 0 1 1.414 0c.187.188.293.442.293.707.19.25 1.339.71 6.668 1.1 10.673.64 21.376.64 32.049 0 2.489-.19 4.309-.39 5.388-.58a1.004 1.004 0 0 1 .82.21.997.997 0 0 1 .36.77v30.988a14.995 14.995 0 0 1-14.995 14.995zm39.985-73.373h-.2a2.3 2.3 0 0 1-1.05-.31.453.453 0 0 1-.14-.09l-49.482-36.487-.12-.09v-.06c-1.619-1.26-6.547-5.688-5.728-12.076.6-4.868 3.999-8.766 10.067-11.575a.993.993 0 0 1 .39-.09l49.583-1.5c.1-.019.2-.019.3 0 12.64 3.489 19.32 9.357 19.32 16.994.01 2.282-.66 4.514-1.94 6.408l-19.33 37.776c-.13.33-.37.612-.66.808-.3.196-.65.298-1.01.292zm-.27-2h.1l19.38-37.886.06-.09a9.517 9.517 0 0 0 1.62-5.348c0-8.297-9.59-12.725-17.71-14.995l-49.263 1.53c-5.298 2.489-8.247 5.828-8.747 9.926-.69 5.408 3.669 9.237 4.998 10.287l.1.08v.05l49.462 36.446zM1052.05 347.074h-.07a.944.944 0 0 1-.37-.102.91.91 0 0 1-.31-.24 1.092 1.092 0 0 1-.2-.339 1.272 1.272 0 0 1-.05-.389l4.7-69.174a72.691 72.691 0 0 0-5.91-33.818l-13.69-31.089a.998.998 0 0 1-.01-.759.975.975 0 0 1 .52-.55.984.984 0 0 1 .38-.086c.13-.003.26.02.39.067.12.047.23.118.33.209.09.091.17.199.22.319l13.67 31.089a74.596 74.596 0 0 1 6.09 34.758l-4.7 69.174a.978.978 0 0 1-.31.659.987.987 0 0 1-.68.271z"/><path fill="#000" d="M949.589 270.202a.997.997 0 0 1-1-1v-19.193a1 1 0 0 1 2 0v19.193a1.002 1.002 0 0 1-1 1z"/><path fill="#000" fill-rule="evenodd" d="M947.19 257.207v-12.596a3.304 3.304 0 0 1 3.299-3.299 3.303 3.303 0 0 1 3.298 3.299v12.596h-6.597zM1040.46 979.344a18.781 18.781 0 0 0 17.36-11.601 18.773 18.773 0 0 0 1.07-10.858 18.74 18.74 0 0 0-5.14-9.623 18.797 18.797 0 0 0-20.48-4.074 18.81 18.81 0 0 0-8.44 6.922 18.827 18.827 0 0 0-3.16 10.441c-.01 2.469.48 4.914 1.42 7.195a18.806 18.806 0 0 0 4.07 6.1 18.835 18.835 0 0 0 6.1 4.073 18.81 18.81 0 0 0 7.2 1.425zm140.95 0c3.72 0 7.35-1.102 10.44-3.167 3.09-2.065 5.5-5 6.93-8.434a18.856 18.856 0 0 0 1.07-10.858 18.815 18.815 0 0 0-14.77-14.766 18.785 18.785 0 0 0-19.29 7.991 18.758 18.758 0 0 0-3.17 10.441c0 2.469.48 4.914 1.42 7.195a18.834 18.834 0 0 0 4.08 6.1 18.73 18.73 0 0 0 6.1 4.073c2.28.944 4.72 1.428 7.19 1.425z" clip-rule="evenodd"/><path fill="#7A77FF" fill-rule="evenodd" d="M1175.51 200.127h2c.53 0 1.04.211 1.42.586.37.375.58.883.58 1.414v12.695c0 .53-.21 1.039-.58 1.414-.38.375-.89.585-1.42.585h-2a2 2 0 0 1-1.41-.585 2.016 2.016 0 0 1-.58-1.414v-12.695c0-.531.21-1.039.58-1.414a2 2 0 0 1 1.41-.586zM1091.24 259.806h2c.53 0 1.04.21 1.42.585.37.375.58.884.58 1.414V274.5c0 .531-.21 1.039-.58 1.414-.38.375-.89.586-1.42.586h-2c-.53 0-1.04-.211-1.41-.586a1.982 1.982 0 0 1-.59-1.414v-12.695c0-.53.21-1.039.59-1.414.37-.375.88-.585 1.41-.585zM1197.21 126.554l-43.89-.2v24.991l8 9.997h26.99l9.9-8.497-1-26.291zM1104.34 195.329h-25.99v14.995l8.99 7.997h8l9-8.997v-13.995z" clip-rule="evenodd"/><path fill="#7A77FF" d="M1176.81 96.165c1.16.018 2.26.471 3.1 1.268.83.797 1.33 1.88 1.4 3.031a2 2 0 0 0 2 1.899h14v49.882l-8.2 8.197h-25.59l-8.3-8.197v-49.882h15.2c.51.001 1-.196 1.38-.55.37-.353.59-.837.62-1.349.03-1.148.5-2.238 1.32-3.04a4.45 4.45 0 0 1 3.07-1.259zm-83.97 57.08c1.14.011 2.23.448 3.07 1.225a4.567 4.567 0 0 1 1.43 2.973c.04.508.27.983.64 1.334.36.351.85.552 1.36.565h4.8v49.782l-8.2 8.197h-7.2l-8.29-8.197v-49.882h5.99c.52.001 1.01-.196 1.38-.549.38-.354.6-.837.62-1.35a4.408 4.408 0 0 1 1.39-2.921 4.387 4.387 0 0 1 3.01-1.177zm83.97-59.079a6.482 6.482 0 0 0-6.49 6.198h-17.2v52.681l9.4 9.396h27.29l9.4-9.396v-52.681h-16a6.398 6.398 0 0 0-6.4-6.198zm-83.97 57.079a6.613 6.613 0 0 0-4.43 1.792 6.628 6.628 0 0 0-2.07 4.306h-7.99v52.681l9.39 9.397h8.9l9.4-9.397v-52.681h-6.8a6.379 6.379 0 0 0-6.4-6.098z"/><path fill="#7A77FF" d="M1134.43 445.339a43.226 43.226 0 0 1-30.52-12.663 43.254 43.254 0 0 1-12.67-30.522V218.321c0-.265.11-.519.3-.707a.982.982 0 0 1 .7-.293c.27 0 .52.106.71.293.19.188.29.442.29.707v183.833a41.196 41.196 0 0 0 12.06 29.122 41.2 41.2 0 0 0 29.13 12.063c10.92 0 21.4-4.339 29.12-12.063a41.154 41.154 0 0 0 12.06-29.122V159.742c0-.265.11-.519.3-.707a.98.98 0 0 1 .7-.292c.27 0 .52.105.71.292.19.188.29.442.29.707v242.412a43.202 43.202 0 0 1-12.66 30.522 43.244 43.244 0 0 1-30.52 12.663zm-42.19-292.894a.978.978 0 0 1-.7-.293.996.996 0 0 1-.3-.707V79.771c0-.265.11-.519.3-.707a.98.98 0 0 1 .7-.292c.27 0 .52.105.71.292.19.188.29.442.29.707v71.674c0 .265-.1.52-.29.707a1 1 0 0 1-.71.293zm84.27-56.88a.98.98 0 0 1-.7-.292.996.996 0 0 1-.3-.707V79.871c0-.265.11-.52.3-.706a.98.98 0 0 1 .7-.293c.27 0 .52.105.71.293.19.187.29.441.29.706v14.695c0 .265-.1.52-.29.707-.19.187-.44.293-.71.293z"/><path fill="#7A77FF" d="M1176.51 86.269a15.617 15.617 0 0 1-15.57-14.795h-52.92a15.592 15.592 0 0 1-4.98 10.65 15.586 15.586 0 0 1-11 4.15 15.589 15.589 0 0 1-10.77-4.708 15.554 15.554 0 0 1-4.42-10.891v-.2c0-.265.1-.52.29-.707.19-.188.44-.293.71-.293.26 0 .52.105.7.293.19.187.3.442.3.707v.2a13.591 13.591 0 0 0 13.59 13.595 13.591 13.591 0 0 0 13.6-13.595v-.2c0-.265.1-.52.29-.707.19-.188.44-.293.71-.293h54.88c.26 0 .52.105.71.293.18.187.29.442.29.707v.2a13.591 13.591 0 0 0 13.59 13.595 13.591 13.591 0 0 0 13.6-13.595v-.2c0-.265.11-.52.29-.707.19-.188.44-.293.71-.293.26 0 .52.105.71.293.18.187.29.442.29.707v.2a15.645 15.645 0 0 1-4.57 11.02 15.637 15.637 0 0 1-11.03 4.574z"/><path fill="#7A77FF" fill-rule="evenodd" d="M1127.03 82.57v815.304h15.2V82.27a14.518 14.518 0 0 0 4.68-5.151c1.11-2.074 1.7-4.39 1.71-6.745 0-3.764-1.49-7.375-4.15-10.037a14.223 14.223 0 0 0-10.04-4.157c-3.77 0-7.38 1.495-10.04 4.157a14.206 14.206 0 0 0-4.16 10.037c-.03 2.45.58 4.866 1.77 7.007 1.2 2.14 2.93 3.93 5.03 5.19z" clip-rule="evenodd"/><path fill="#7A77FF" fill-rule="evenodd" d="M1040.46 972.247c3.1-.003 6.07-1.236 8.27-3.429a11.748 11.748 0 0 0 3.43-8.267c.02-1.333-.21-2.659-.7-3.898l9.09-9.097c1.26.443 2.57.679 3.9.7a11.723 11.723 0 0 0 11.7-11.396v-20.593h117.56v20.593c.02 1.52.36 3.018 1 4.398l-8.6 8.597a11.994 11.994 0 0 0-4.7-1c-2.31 0-4.57.686-6.5 1.972a11.665 11.665 0 0 0-4.3 5.248 11.67 11.67 0 0 0-.67 6.758 11.722 11.722 0 0 0 3.2 5.988 11.708 11.708 0 0 0 12.75 2.536 11.717 11.717 0 0 0 5.25-4.308 11.736 11.736 0 0 0 1.97-6.498 9.993 9.993 0 0 0-.7-3.898l9.1-9.097c1.25.443 2.57.679 3.89.7a11.748 11.748 0 0 0 8.17-3.325 11.712 11.712 0 0 0 3.53-8.071v-57.379h-23.39v13.395h-117.56v-13.495h-23.4v57.379c.03 1.52.37 3.018 1 4.398l-8.59 8.597a12.05 12.05 0 0 0-4.7-1c-3.12 0-6.1 1.238-8.31 3.441a11.757 11.757 0 0 0-3.44 8.305c0 3.115 1.24 6.103 3.44 8.306a11.763 11.763 0 0 0 8.31 3.44z" clip-rule="evenodd"/><path fill="#E26A64" fill-rule="evenodd" d="M1162.02 328.681c-1.1 22.392-1.3 26.59-5.8 30.789-3.8 3.698-6.8 5.198-9.7 5.897v1.1h-13.99c-12.6 0-12.8-11.296-12.8-11.296h8.4c-9.5-1.699-9.7-10.996-9.7-10.996h9.7c-9.5-1.699-9.7-10.996-9.7-10.996h9.1v-.5c-8.9-1.999-9.1-10.896-9.1-10.896h.1l-.2-.1s-.8-.899.2-4.898c1.4-5.598 8.3-6.698 8.3-6.698v7.298c.6.8 3.8 1.299 7.6 1.299 3.4 0 6.5-.499 7.4-1.099 0-5.398.1-15.695.1-20.393 15.89.2 20.69 19.893 20.09 31.489z" clip-rule="evenodd"/><path fill="#000" d="M1146.32 367.167h-13.99c-13.43 0-13.8-12.156-13.8-12.276 0-.265.11-.519.3-.707a.98.98 0 0 1 .7-.292c.27 0 .52.105.71.292.19.188.29.442.29.707 0 .42.36 10.316 11.8 10.316h13.99c.27 0 .52.106.71.293.19.188.29.442.29.707 0 .265-.1.52-.29.707-.19.187-.44.293-.71.293v-.04z"/><path fill="#000" d="M1153.32 356.171h-21.99c-13.43 0-13.8-12.156-13.8-12.276 0-.265.11-.519.3-.706a.978.978 0 0 1 .7-.293 1 1 0 0 1 .71.293c.19.187.29.441.29.706 0 .42.36 10.317 11.8 10.317h21.99c.27 0 .52.105.71.292.19.188.29.442.29.707 0 .265-.1.52-.29.707a1 1 0 0 1-.71.293v-.04z"/><path fill="#000" d="M1153.32 345.175h-21.99c-13.43 0-13.8-12.156-13.8-12.276 0-.265.11-.519.3-.707a.98.98 0 0 1 .7-.292c.27 0 .52.105.71.292.19.188.29.442.29.707 0 .42.36 10.317 11.8 10.317h21.99c.27 0 .52.105.71.292.19.188.29.442.29.707 0 .265-.1.52-.29.707a1 1 0 0 1-.71.293v-.04zM1153.32 333.179h-21.99c-13.43 0-13.8-12.155-13.8-12.275 0-.265.11-.52.3-.707a.978.978 0 0 1 .7-.293 1 1 0 0 1 .71.293c.19.187.29.442.29.707 0 .42.36 10.316 11.8 10.316h21.99a1 1 0 0 1 .71.293c.19.187.29.441.29.707 0 .265-.1.519-.29.706a1 1 0 0 1-.71.293v-.04z"/><path fill="#000" fill-rule="evenodd" d="M1043.86 128.054c-9.7 4.598-25.09 12.095-86.074 3.598-32.089-4.498-43.186-23.491-43.186-23.491l25.992-32.988a42.32 42.32 0 0 1 31.037-35.36 42.33 42.33 0 0 1 44.541 15.167c1.12-.384 2.31-.587 3.5-.6 8.39 0 16.49 4.299 19.59 12.396a27.198 27.198 0 0 1 1 7.397s-3.5.2-8.6.3c5.1 7.997 12.4 20.593 14.4 30.189 2.9 13.695-2.2 23.392-2.2 23.392z" clip-rule="evenodd"/><path fill="#E26A64" fill-rule="evenodd" d="M956.487 86.569h.3c1.199.6 2.399 1.2 3.698 1.999 12.096-2 12.196-7.097 13.796-14.495 9.597.7 21.193 1.1 33.589 1.1 7.2 0 12.9-.1 19.29-.4 1.8 12.995 9.1 65.576-22.59 67.376 0 0 .1 14.294.3 29.589 5.3 1.699 8.6 3.998 8.6 6.597a3.784 3.784 0 0 1-.7 2l-15.097 29.989-40.187-28.19a6.132 6.132 0 0 1-2.199-2.999l2.799-75.273.5-2.199a5.826 5.826 0 0 1-1.899.2 7.697 7.697 0 0 1-7.698-7.697 7.335 7.335 0 0 1 2.107-5.419 7.326 7.326 0 0 1 5.391-2.178z" clip-rule="evenodd"/><path fill="#000" fill-rule="evenodd" d="M1004.67 142.148c0 1.2-.1 10.197 0 17.594-31.889-5.698-30.889-31.689-30.889-31.689s9.897 14.095 30.889 14.095z" clip-rule="evenodd"/><path fill="#000" d="M1004.97 119.457h-.11c-8.497-.93-12.765-5.828-12.995-5.998a1.002 1.002 0 0 1 .11-1.409.996.996 0 0 1 1.409.109 18.986 18.986 0 0 0 11.646 5.359 1 1 0 0 1 .69.331c.09.098.16.212.2.336.04.124.06.256.05.387 0 .131-.04.26-.09.379-.06.118-.14.224-.24.312a.94.94 0 0 1-.33.199c-.13.043-.26.062-.39.055l.05-.06zM1010.34 112.269a25.972 25.972 0 0 1-7.7-1.369 1.032 1.032 0 0 1-.37-.182.907.907 0 0 1-.26-.315.943.943 0 0 1-.06-.802.85.85 0 0 1 .21-.352.941.941 0 0 1 .34-.236.995.995 0 0 1 .8.008c2.3.799 8.86 2.369 11.62 0 .27-.191.48-.454.62-.759a1.9 1.9 0 0 0 .14-.971c-.37-2.659-6.17-6.317-9.74-7.997a.99.99 0 0 1-.49-.522.988.988 0 0 1-.02-.717l4.1-11.396a.975.975 0 0 1 .52-.545c.23-.107.5-.117.75-.029.24.089.44.27.56.503.11.234.13.503.05.75l-3.8 10.557c2.53 1.28 9.49 5.158 10 9.126.08.661 0 1.332-.25 1.95a3.847 3.847 0 0 1-1.18 1.569 8.92 8.92 0 0 1-5.84 1.729zM1026.46 84.17c-.08.01-.16.01-.25 0a40.211 40.211 0 0 0-11.65-.77.99.99 0 0 1-.39-.04.978.978 0 0 1-.35-.188.987.987 0 0 1-.24-.305 1.028 1.028 0 0 1-.07-.766c.04-.127.1-.244.19-.345a.898.898 0 0 1 .3-.246c.12-.06.25-.098.38-.11 4.13-.328 8.28-.049 12.33.83.27.033.51.17.67.381a1 1 0 0 1 .21.744c-.04.265-.17.506-.38.67-.21.164-.48.238-.75.205v-.06z"/><path fill="#000" d="M1029.36 104.462h-7.2a8.607 8.607 0 0 1-5.87-2.303 8.603 8.603 0 0 1-2.71-5.694l-.06-.17a.86.86 0 0 1 0-.32v-4.698c0-1.22.48-2.39 1.34-3.252a4.63 4.63 0 0 1 3.26-1.346h18.89c.26 0 .52.105.71.293.18.187.29.441.29.706v8.597a8.626 8.626 0 0 1-2.68 5.833 8.59 8.59 0 0 1-5.97 2.354zm-13.89-8.657v.14c.02.088.04.179.05.27a6.55 6.55 0 0 0 2.05 4.444 6.555 6.555 0 0 0 4.54 1.804h7.2a6.597 6.597 0 0 0 4.55-1.804 6.594 6.594 0 0 0 2.05-4.444v-7.547h-17.89c-.35-.004-.69.06-1 .19-.32.129-.61.32-.85.562-.24.242-.43.53-.56.848-.13.317-.2.657-.19.999l.05 4.538zM999.072 104.462h-9.896a8.582 8.582 0 0 1-8.597-8.147v-8.647a1 1 0 0 1 .999-1h21.592c1.22 0 2.39.485 3.25 1.347a4.611 4.611 0 0 1 1.35 3.252v4.698c.01.106.01.214 0 .32l-.06.17a8.624 8.624 0 0 1-2.73 5.718 8.598 8.598 0 0 1-5.908 2.289zm-16.494-15.794v7.597a6.58 6.58 0 0 0 6.598 6.198h9.896a6.596 6.596 0 0 0 4.548-1.804 6.594 6.594 0 0 0 2.05-4.444c-.01-.09-.01-.18 0-.27v-4.678c0-.342-.06-.682-.19-1a2.607 2.607 0 0 0-.56-.847 2.59 2.59 0 0 0-1.85-.752h-20.492zM987.076 84.87a.998.998 0 0 1-.999-.74.993.993 0 0 1 .099-.763 1.01 1.01 0 0 1 .611-.467c.339-.09 8.447-2.24 15.063-1.52.26.03.5.163.67.37.16.205.24.468.21.73a.985.985 0 0 1-.37.666.992.992 0 0 1-.73.214c-6.237-.67-14.244 1.45-14.324 1.48a1.141 1.141 0 0 1-.23.03z"/><path fill="#000" d="M1017.87 95.166c-.21 0-.42-.066-.59-.19a.958.958 0 0 1-.36-.494.982.982 0 0 1 .35-1.116l5.09-3.798c.11-.08.23-.136.36-.169.12-.033.26-.04.39-.021.13.018.25.062.36.13.12.066.22.154.29.26.08.105.14.224.17.351.04.127.04.26.02.39a.827.827 0 0 1-.13.368.853.853 0 0 1-.26.29l-5.09 3.799c-.18.13-.39.2-.6.2zM991.375 94.566a.997.997 0 0 1-.84-.46 1.004 1.004 0 0 1 .3-1.38l4.999-3.198a.998.998 0 0 1 1.477 1.054 1 1 0 0 1-.398.625l-4.998 3.199a1 1 0 0 1-.54.16z"/><path fill="#000" fill-rule="evenodd" d="M992.075 92.567a2.8 2.8 0 1 1-2.799 2.799 2.726 2.726 0 0 1 2.799-2.8zM1019.57 92.566a2.791 2.791 0 0 1 2.58 1.728 2.815 2.815 0 0 1-.6 3.05c-.4.392-.9.659-1.44.767-.54.108-1.1.052-1.62-.16a2.803 2.803 0 0 1-.9-4.565 2.78 2.78 0 0 1 1.98-.82zM995.374 58.28s-29.69 15.293-23.392 42.784c6.997 30.189-13.596 30.388-13.596 30.488 0 .1-23.292-2.099 9.297-60.378 5.698-12.495 27.691-12.895 27.691-12.895z" clip-rule="evenodd"/><path fill="#FFB9B2" fill-rule="evenodd" d="M366.08 955.653l55.382-7.097h24.692c14.495 11.395 37.088 26.19 42.086 12.195 4.399-12.295 1.4-22.692-4.698-53.081.799-15.994 1.499-26.99 1.499-26.99l-46.185-.5-2.699 30.589-70.077 44.884z" clip-rule="evenodd"/><path fill="#000" fill-rule="evenodd" d="M437.357 895.875l46.585 1.899c-.2 2.999-.3 6.298-.5 9.896.4 1.7.699 3.399.999 4.999l-47.884-8.197.8-8.597z" clip-rule="evenodd"/><path fill="#7A77FF" fill-rule="evenodd" d="M476.644 978.245c.6-.1 1.2-.3 1.699-.4 22.893 0 18.094-32.588 18.094-32.588s-4.198 2.399-29.39-3.399c-3.099-.7-5.998-1.499-8.797-2.299l28.691-14.795-2.999-14.894-43.886 22.691c-13.396-6.397-20.293-12.695-20.293-12.695s-57.482 28.989-85.972 43.984c2.999 21.992 43.485 14.395 70.177 14.395h72.676z" clip-rule="evenodd"/><path fill="#000" fill-rule="evenodd" d="M444.854 935.46a5.2 5.2 0 0 1 5.098 6.213 5.193 5.193 0 0 1-4.084 4.084 5.194 5.194 0 0 1-6.212-5.099 5.168 5.168 0 0 1 1.511-3.687 5.158 5.158 0 0 1 3.687-1.511z" clip-rule="evenodd"/><path fill="#FFB9B2" fill-rule="evenodd" d="M553.319 881.28s0 7.697.7 28.69c-6.698 31.388-12.796 40.185-10.597 52.481 3.699 20.992 92.57-12.196 92.57-12.196l-31.69-35.387-5.698-34.688-45.285 1.1z" clip-rule="evenodd"/><path fill="#7A77FF" fill-rule="evenodd" d="M561.516 952.154c-12.996 1.5-21.593-.5-21.593-.5-2.399 12.296 5.099 27.191 18.594 28.09 1 .1 1.999.1 2.899.2 0 0 48.884-.1 66.978-.1 21.493 0 24.292-30.089 24.292-30.089s-14.395-4.898-25.391-12.195c-8.298-5.398-14.696-13.895-14.696-13.895-20.193-2.799-37.387 10.196-37.387 10.196l-22.293-18.993-5.098 14.295 21.293 18.693-.4.999a13.101 13.101 0 0 1-7.198 3.299z" clip-rule="evenodd"/><path fill="#000" fill-rule="evenodd" d="M553.619 897.074l47.684-.2 2.499 14.995.3 1.799-50.183-8.097c0-.1-.2-6.198-.3-8.497zM580.41 937.16a5.32 5.32 0 0 1 5.298 5.198 5.4 5.4 0 0 1-5.298 5.298 5.251 5.251 0 0 1-5.198-5.298 5.154 5.154 0 0 1 5.198-5.198z" clip-rule="evenodd"/><path fill="#7A77FF" fill-rule="evenodd" d="M603.202 900.873h-55.681l-23.193-449.337h-19.493l-18.894 449.337h-55.682V379.662l169.844.6 3.099 520.611z" clip-rule="evenodd"/><path fill="#000100" fill-rule="evenodd" d="M482.642 450.736l21.092 28.69 1.2-27.89-22.292-.8z" clip-rule="evenodd"/><path fill="#5347E9" d="M464.648 902.073a1.002 1.002 0 0 1-1-1l13.895-449.537a1 1 0 1 1 1.999 0l-13.895 449.537a1.002 1.002 0 0 1-.999 1z"/><path fill="#7A77FF" fill-rule="evenodd" d="M638.491 201.527a5.89 5.89 0 0 0-1.5-2.099c-14.295-31.589-37.087-34.288-53.082-34.288-25.292 0-107.765-.1-107.765-.1l-21.693.1a72.915 72.915 0 0 0-72.676 72.874l46.285 8.796.1 198.428c-.7.2-1.1.5-1.1.8 0 2.799 42.986 4.998 96.069 4.998 53.082 0 95.768-2.199 95.768-4.998 0-.2-.1-.2-.1-.5l.1-213.722c.1.1 57.981 73.373 19.594-30.289z" clip-rule="evenodd"/><path fill="#5347E9" d="M449.253 292.594h-10.497a14.995 14.995 0 0 1-14.995-14.995v-30.988a1.006 1.006 0 0 1 .36-.77.993.993 0 0 1 .82-.21c1.09.19 2.899.39 5.398.58 4.579.32 10.277.5 15.995.5 5.918 0 14.995-.19 19.423-.5a1.002 1.002 0 1 1 .14 1.999c-4.438.31-13.615.5-19.563.5-5.788 0-11.526-.18-16.165-.5-1.849-.15-3.319-.29-4.428-.44v29.829a12.998 12.998 0 0 0 12.995 12.996h10.497a1 1 0 1 1 0 1.999h.02zM523.229 453.036c-25.562 0-49.704-.53-67.978-1.49-29.081-1.529-29.081-3.249-29.081-4.508a.998.998 0 0 1 1.92-.4c3.379 2.139 41.986 4.398 95.149 4.398 54.982 0 91.9-2.259 95.138-4.378a1 1 0 0 1 1.93.38c0 1.279 0 2.999-29.071 4.548-18.094.93-42.236 1.45-68.007 1.45zM498.337 234.115h-.18a.996.996 0 0 1-.68-.47c-1.13-1.899-27.831-46.603-27.831-54.49 0-9.257 23.912-15.994 47.035-17.194 20.723-1.059 38.747 2.129 44.865 7.937a6.4 6.4 0 0 1 2.269 4.639c0 7.997-58.221 54.12-64.858 59.358a1 1 0 0 1-.62.22zm25.991-70.374c-2.479 0-5.005.066-7.577.2-26.991 1.379-45.135 8.996-45.135 15.194 0 5.938 18.923 38.986 26.991 52.491 24.832-19.633 63.209-51.901 63.209-57.089a4.492 4.492 0 0 0-1.649-3.209c-4.919-4.678-19.094-7.587-35.809-7.587h-.03z"/><path fill="#FFB9B2" fill-rule="evenodd" d="M515.531 165.54c19.694-1 35.588 2.999 35.588 8.997 0 5.998-49.883 45.283-49.883 45.283s-21.393-35.787-21.393-41.685c0-5.897 15.995-11.595 35.688-12.595z" clip-rule="evenodd"/><path fill="#FEFEFE" fill-rule="evenodd" d="M549.12 178.035c-9.297 11.396-47.784 41.785-47.784 41.785s-18.994-31.788-21.193-40.385c2.699 5.698 17.494 9.397 35.288 8.497 15.595-.8 28.791-4.898 33.689-9.897zm2-3.798v.3c-.065.465-.236.91-.5 1.299a3.006 3.006 0 0 0 .5-1.599z" clip-rule="evenodd"/><path fill="#FFB9B2" fill-rule="evenodd" d="M485.741 89.968h58.081v84.269s-23.392 2.699-40.587 2.699a69.655 69.655 0 0 1-17.494-2.699v-84.27z" clip-rule="evenodd"/><path fill="#000" fill-rule="evenodd" d="M485.741 130.653a24.144 24.144 0 0 0 9.297 1.899h7.997l-17.294 16.594v-18.493z" clip-rule="evenodd"/><path fill="#FFB9B2" fill-rule="evenodd" d="M546.121 77.072a8.597 8.597 0 1 1 0 17.194 8.597 8.597 0 0 1 0-17.194z" clip-rule="evenodd"/><path fill="#FFB9B2" fill-rule="evenodd" d="M494.238 31.289h28.491a20.99 20.99 0 0 1 19.514 13.005 20.984 20.984 0 0 1 1.579 8.087v58.779a20.981 20.981 0 0 1-6.149 14.944 20.98 20.98 0 0 1-14.944 6.148h-28.491a20.98 20.98 0 0 1-14.944-6.148 20.981 20.981 0 0 1-6.149-14.944V37.987c0-11.596 9.397-6.698 21.093-6.698z" clip-rule="evenodd"/><path fill="#000" d="M541.323 90.067a1 1 0 0 1-.63-1.779l7.997-6.498a1.002 1.002 0 0 1 1.26 1.56l-7.998 6.498a.996.996 0 0 1-.629.22zM494.338 104.162a.999.999 0 0 1-.792-1.671.999.999 0 0 1 .692-.328c.05 0 5.378-.6 6.908-3.569a1 1 0 1 1 1.779.92c-1.999 3.929-8.227 4.608-8.487 4.628l-.1.02zM492.539 93.866a.92.92 0 0 1-.53-.16.996.996 0 0 1-.47-.84v-27.69a.998.998 0 0 1 1-1 1.001 1.001 0 0 1 .999 1v26.11l9.567-4.517a1 1 0 0 1 .86 1.799l-10.996 5.198a.944.944 0 0 1-.43.1zM519.829 64.977a.998.998 0 0 1-.779-.37s-3.129-3.769-7.707-3.24a1.008 1.008 0 0 1-1.11-.889 1.006 1.006 0 0 1 .89-1.11c5.678-.65 9.326 3.77 9.486 4a1.003 1.003 0 0 1 .108 1.045 1 1 0 0 1-.888.564zM477.444 64.977a.999.999 0 0 1-.63-.23.997.997 0 0 1-.15-1.4c.16-.19 3.809-4.618 9.496-3.998a1.006 1.006 0 1 1-.229 1.999c-4.569-.53-7.678 3.199-7.708 3.239a.998.998 0 0 1-.779.39z"/><path fill="#000" fill-rule="evenodd" d="M518.13 101.763a10.088 10.088 0 0 1-4.898 2.199c.12.862.187 1.73.2 2.599v6.898a14.995 14.995 0 0 1-14.995 14.994h-3.099a14.994 14.994 0 0 1-14.995-14.994v-6.898c.013-.869.08-1.737.2-2.599a8.635 8.635 0 0 1-4.799-2.199l9.497-6.498a.099.099 0 0 1 .1.1 14.994 14.994 0 0 1 9.897-3.798h3.099a15.044 15.044 0 0 1 10.596 4.398l9.197 5.798zm-18.194-4.498h-5.798a6.996 6.996 0 0 0-.4 13.895v-1c0-.875.348-1.714.967-2.332a3.295 3.295 0 0 1 4.665 0c.619.618.966 1.457.966 2.332v1a6.997 6.997 0 0 0 6.498-6.898 6.537 6.537 0 0 0-.5-2.499 1.085 1.085 0 0 1-.3-.7 6.894 6.894 0 0 0-6.098-3.798zM531.626 55.18l12.595.2v36.387s-12.895-2-12.895-19.293c0-12.396.3-17.294.3-17.294zM484.641 74.073a2.2 2.2 0 1 1-2.199 2.2 2.22 2.22 0 0 1 2.199-2.2zM512.732 74.073a2.2 2.2 0 1 1-2.199 2.2 2.215 2.215 0 0 1 2.199-2.2z" clip-rule="evenodd"/><path fill="#000" fill-rule="evenodd" d="M557.118 36.887a8.474 8.474 0 0 0-.8-2.4 17.293 17.293 0 0 0-15.995-10.695 3.402 3.402 0 0 0-1 .1c.287-1.246.421-2.521.4-3.8A17.382 17.382 0 0 0 522.429 2.7a16.994 16.994 0 0 0-8.097 2s-8.998 3.098-22.393 12.095c-.8.6-1.7 1.1-2.499 1.7h-12.996a16.406 16.406 0 0 0-16.395 16.394c.018 3.15.919 6.232 2.6 8.896 2.999 5.598 8.097 11.796 10.696 15.395V35.087c-.2-.2 0-.6 0-.6v.6c0 11.796 10.297 21.293 23.092 21.293a23.783 23.783 0 0 0 13.996-4.399s2.599-2.099 2.899-2.499a20.445 20.445 0 0 0 6.198-14.395v-2.199a8.195 8.195 0 0 1 2.199-.2 10.499 10.499 0 0 1 9.897 6.998V55.18c0 13.995 12.596 22.192 12.596 22.192 5.198-9.996 11.796-19.793 12.996-32.488.326-1.274.494-2.584.499-3.899a15.081 15.081 0 0 0-.599-4.098z" clip-rule="evenodd"/><path fill="#7A77FF" fill-rule="evenodd" d="M456.351 224.619l-92.17 119.856h-.1a33.1 33.1 0 0 1-55.082-36.687l.1-.1a34.541 34.541 0 0 1 3.399-4.398l85.172-110.46 58.681 31.789z" clip-rule="evenodd"/><path fill="#000100" fill-rule="evenodd" d="M422.662 273.101l94.569 54.58-73.676 127.554-94.569-54.58 73.676-127.554z" clip-rule="evenodd"/><path fill="#7A77FF" fill-rule="evenodd" d="M415.364 374.664c-8.997 15.794-19.294 26.89-23.092 24.791a2.725 2.725 0 0 1-1.1-1.6l1.1 1.6-73.476-46.383v-.1a33.077 33.077 0 0 1 10.258-60.031 33.08 33.08 0 0 1 24.83 3.951l71.677 45.983c2.399 3.599-1.8 17.094-10.197 31.789z" clip-rule="evenodd"/><path fill="#000100" fill-rule="evenodd" d="M424.861 342.176c3.799 2.099-.5 16.694-9.497 32.488s-19.294 26.89-23.092 24.791c-3.799-2.099.499-16.694 9.496-32.488 8.998-15.794 19.394-26.99 23.093-24.791z" clip-rule="evenodd"/><path fill="#FFB9B2" fill-rule="evenodd" d="M495.338 378.263l-5.598-3.199-3.699 6.497s-11.796-5.997-15.695-8.297c15.695 1.6 17.394-9.596 17.394-9.596s-10.896 0-34.388-10.196c-10.697-4.599-16.795-4.099-21.193-.4-1.4-.4-7.398-4.499-9.297-5.898a1.48 1.48 0 0 0-.5-.6c-2.399-1.299-8.897 5.598-14.496 15.594-5.598 9.997-8.297 18.994-5.998 20.393 19.994 17.494 55.882 41.185 66.079 42.285 4.498.5 9.197-2.399 9.797-7.098 1.212-.766 2.38-1.6 3.498-2.499 2.2-1.699 3.799-3.499 4.199-6.497 4.898-1.4 7.997-6.698 7.798-10.097a11.908 11.908 0 0 0 5.798-5.698c5.298-9.796-3.699-14.694-3.699-14.694z" clip-rule="evenodd"/><path fill="#000" d="M475.744 418.108c-6.998 0-14.575-4.878-14.945-5.118a1.005 1.005 0 0 1-.29-1.389 1.002 1.002 0 0 1 1.39-.29c.09.06 9.666 6.227 16.464 4.498a7.625 7.625 0 0 0 4.998-3.998.988.988 0 0 1 .589-.537 1.01 1.01 0 0 1 .794.064.994.994 0 0 1 .495.624.998.998 0 0 1-.119.788 9.599 9.599 0 0 1-6.267 4.998 12.385 12.385 0 0 1-3.109.36zM483.141 409.511c-6.997 0-14.575-4.878-14.944-5.118a1.002 1.002 0 0 1-.29-1.389 1.002 1.002 0 0 1 1.389-.29c.09.06 9.657 6.228 16.464 4.498a7.625 7.625 0 0 0 4.998-3.998 1.002 1.002 0 0 1 1.319-.352 1 1 0 0 1 .441 1.291 9.59 9.59 0 0 1-2.588 3.184 9.594 9.594 0 0 1-3.68 1.814 12.38 12.38 0 0 1-3.109.36zM490.439 400.015c-6.998 0-14.575-4.878-14.995-5.118a1.006 1.006 0 0 1 .345-1.823c.261-.054.532-.003.755.143.09.06 9.666 6.238 16.464 4.499a7.625 7.625 0 0 0 4.998-3.999 1 1 0 0 1 1.759.94 9.606 9.606 0 0 1-6.267 4.998 12.466 12.466 0 0 1-3.059.36zM491.438 385.96a1.004 1.004 0 0 1-.47-.12l-26.12-13.975a1.001 1.001 0 0 1 .148-1.796.998.998 0 0 1 .731.007c.06 0 5.998 2.679 10.277 2.219a13 13 0 0 0 10.476-7.587 1.002 1.002 0 0 1 1.309-.55 1.002 1.002 0 0 1 .55 1.309 14.984 14.984 0 0 1-4.882 6.033 14.983 14.983 0 0 1-7.243 2.784c-.878.085-1.762.085-2.639 0l18.303 9.817a1.002 1.002 0 0 1 .495 1.122 1 1 0 0 1-.965.757l.03-.02z"/><path fill="#5F89FE" fill-rule="evenodd" d="M699.971 377.163a34.913 34.913 0 0 1-34.489-17.094l-89.871-129.553 55.182-42.184 90.171 130.053a34.933 34.933 0 0 1-20.993 58.778z" clip-rule="evenodd"/><path fill="#FFB9B2" fill-rule="evenodd" d="M520.829 416.049s-1.499-26.49 17.395-31.489c15.095-3.898 26.391-7.497 32.389-8.796 0 0-4.798 28.089-20.793 38.086-13.096 8.197-28.991 2.199-28.991 2.199z" clip-rule="evenodd"/><path fill="#000" fill-rule="evenodd" d="M565.115 362.868l2.799 2.4-67.578 77.371-2.799-2.399 67.578-77.372z" clip-rule="evenodd"/><path fill="#7A77FF" fill-rule="evenodd" d="M694.672 307.189a35.274 35.274 0 0 0-21.992 8.297l-84.773 52.98c4.699-2.399 15.395 9.597 23.993 26.591 6.797 13.595 10.496 26.09 9.297 31.788a5.115 5.115 0 0 1-1 2.099l-.9.8 92.47-56.679a34.996 34.996 0 0 0 15.61-16.814 34.992 34.992 0 0 0-10.888-41.959 34.985 34.985 0 0 0-21.817-7.103z" clip-rule="evenodd"/><path fill="#000" fill-rule="evenodd" d="M587.808 368.466c4.698-2.399 15.395 9.597 23.992 26.591 8.597 16.993 12.096 32.288 7.397 34.687-4.698 2.399-15.795-9.097-24.392-26.191-8.597-17.093-11.696-32.688-6.997-35.087z" clip-rule="evenodd"/><path fill="#FFB9B2" fill-rule="evenodd" d="M603.802 388.759c-5.098-10.196-11.596-17.394-14.395-15.994a1.58 1.58 0 0 0-.7.7l-5.498 2.799s-4.998-4.699-16.295-.7c-10.896 3.898-19.793 14.295-21.992 17.094-6.198 5.298-14.496 12.495-21.993 18.693-9.797 8.297-18.094 13.595-15.995 23.391l17.494-9.796c1.4 2.299 4.399 4.198 8.098 4.698 1.5.188 3.021.12 4.498-.2 1.2 2.499 4.399 4.599 8.397 5.198 1.192.2 2.408.2 3.599 0 1.4 2.2 4.399 3.999 7.998 4.499 3.998.5 7.697-.7 9.297-2.999 6.697-3.799 40.186-22.892 42.486-26.69 1.999-2.2-.1-10.996-4.999-20.693z" clip-rule="evenodd"/><path fill="#000" d="M532.825 430.644c-5.918 0-9.246-5.528-9.286-5.588a1.006 1.006 0 0 1-.17-.794 1 1 0 0 1 1.889-.206c.15.25 3.709 6.098 9.997 4.248 6.288-1.849 26.141-14.254 26.341-14.384a.987.987 0 0 1 .366-.138.986.986 0 0 1 .746.173.998.998 0 0 1 .233 1.397 1.007 1.007 0 0 1-.285.267c-.83.52-20.484 12.785-26.842 14.605a10.35 10.35 0 0 1-2.989.42z"/><path fill="#000" d="M506.734 434.842a1.001 1.001 0 0 1-.916-1.376c.083-.202.229-.372.416-.483l47.685-27.89a.995.995 0 0 1 1.275.408.998.998 0 0 1-.276 1.311l-47.684 27.89a.893.893 0 0 1-.5.14zM545.751 435.842c-5.918 0-9.247-5.528-9.287-5.588a1.003 1.003 0 0 1 .409-1.276 1 1 0 0 1 1.311.276c.15.25 3.709 6.098 9.996 4.249 6.088-1.74 22.753-12.666 22.923-12.776a1.005 1.005 0 0 1 1.1 1.68c-.7.449-17.095 11.196-23.463 12.995-.969.292-1.976.44-2.989.44zM520.53 414.05a1.006 1.006 0 0 1-.957-.703 1.005 1.005 0 0 1 .071-.763.993.993 0 0 1 .246-.304l35.788-29.589a1 1 0 1 1 1.28 1.54l-35.789 29.619a1 1 0 0 1-.639.2z"/><path fill="#FEFEFE" fill-rule="evenodd" d="M661.983 393.357h137.855v203.127H661.983V393.357z" clip-rule="evenodd"/><path fill="#7A77FF" fill-rule="evenodd" d="M807.435 905.871l14.296 29.19s-36.688 13.595-54.182 8.596c-17.495-4.998-3.999-48.482-3.999-48.482l43.885 10.696z" clip-rule="evenodd"/><path fill="#000" fill-rule="evenodd" d="M808.235 905.771s-6.997 1.699-11.096 10.396a16.188 16.188 0 0 0-.7 11.096s-10.297 13.095-21.893 3.499c-14.295-11.896-16.994-11.496-16.994-11.496s-13.896 27.89-7.298 49.982c2.699 8.897 46.385 7.597 73.576 7.197 93.669-1.299 102.866-7.097 102.866-7.097s-3.698-10.296-31.789-14.895c-10.697-1.699-86.672-48.682-86.672-48.682z" clip-rule="evenodd"/><path fill="#000" fill-rule="evenodd" d="M749.554 969.848h178.942v9.496H749.554v-9.496z" clip-rule="evenodd"/><path fill="#FEFEFE" fill-rule="evenodd" d="M839.025 942.458a.91.91 0 0 1-.8-.4 1.061 1.061 0 0 1 .1-1.4 70.404 70.404 0 0 1 14.095-8.297c.7.4 1.499.9 2.199 1.3a68.069 68.069 0 0 0-14.994 8.597 1.428 1.428 0 0 1-.6.2zm-9.397-5.498a1.419 1.419 0 0 1-.6.2.908.908 0 0 1-.799-.4 1.057 1.057 0 0 1 .1-1.4 70.128 70.128 0 0 1 14.694-8.597c.7.4 1.5.9 2.199 1.3a71.217 71.217 0 0 0-15.594 8.897z" clip-rule="evenodd"/><path fill="#000" fill-rule="evenodd" d="M590.107 969.848h114.462v9.496H590.107v-9.496z" clip-rule="evenodd"/><path fill="#7A77FF" fill-rule="evenodd" d="M692.073 892.676l4.999 40.485s-21.493 10.996-38.988 5.998c-17.494-4.998-8.997-45.483-8.997-45.483l42.986-1z" clip-rule="evenodd"/><path fill="#000" fill-rule="evenodd" d="M646.788 907.77s21.893-2.699 26.591 20.893a56.142 56.142 0 0 0 22.293-7.498s8.997 20.093 7.898 48.583c-39.188 0-111.364.1-111.364.1s-.1-7.498 30.19-23.492c18.994-13.695 24.392-38.586 24.392-38.586z" clip-rule="evenodd"/><path fill="#FEFEFE" fill-rule="evenodd" d="M659.284 941.258c.236.109.42.306.513.549a.996.996 0 0 1-.013.751.996.996 0 0 1-.9.6.604.604 0 0 1-.4-.1c-14.195-6.598-25.391-3.799-29.19-2.599.9-.9 2.099-2.3 2.899-3.199 5.498-1.1 14.995-1.6 27.091 3.998zm3.999-6.098a.602.602 0 0 1-.4-.099c-11.596-5.398-21.193-4.799-26.491-3.699.499-.8 1.099-1.6 1.599-2.299 5.798-.9 14.995-.8 25.792 4.298a.997.997 0 0 1 .499 1.3 1.224 1.224 0 0 1-.999.499z" clip-rule="evenodd"/><path fill="#000100" fill-rule="evenodd" d="M807.435 905.871h-47.184l-17.994-467.03h-30.89l-17.994 467.03h-47.185v-29.689c-29.39-37.686 0-129.053 0-217.921V364.268l161.048.6v311.386c0 84.67 32.189 177.136 0 203.427.199 16.594.199 26.19.199 26.19z" clip-rule="evenodd"/><path fill="#FDCB41" fill-rule="evenodd" d="M647.488 180.534h158.248v192.73H647.488v-192.73z" clip-rule="evenodd"/><path fill="#87ACE8" fill-rule="evenodd" d="M869.315 456.135c0 2.799-13.795 6.997-30.89 6.997-15.095 0-27.691-1.799-30.39-4.198v137.05A43.777 43.777 0 0 1 764.25 552.2V179.035l35.988.1a69.14 69.14 0 0 1 68.877 69.175v207.325c.2.1.2.3.2.5zM644.689 596.084l-.1-114.659-10.697-79.071 10.697-1.899-.1-95.266h-60.88V248.21a69.193 69.193 0 0 1 68.877-69.175l35.988-.1V552.3a43.76 43.76 0 0 1-12.821 30.963 43.777 43.777 0 0 1-30.964 12.821z" clip-rule="evenodd"/><path fill="#FDCB41" fill-rule="evenodd" d="M763.05 181.634h-.2c-1.599 3.299-17.494 5.898-36.888 5.898-19.393 0-35.288-2.599-36.888-5.898h-.2v-28.489h.1c0-3.599 16.595-6.498 36.988-6.498 20.394 0 36.988 2.899 36.988 6.498v28.489h.1z" clip-rule="evenodd"/><path fill="#000" fill-rule="evenodd" d="M726.562 147.247c18.294 0 33.089 2.599 33.089 5.797 0 3.199-14.795 5.798-33.089 5.798-18.294 0-33.089-2.599-33.089-5.798 0-3.198 14.795-5.797 33.089-5.797z" clip-rule="evenodd"/><path fill="#000" d="M726.062 188.532c-13.136 0-37.987-1.57-37.987-7.498 0-.265.105-.519.292-.707a1.002 1.002 0 0 1 1.414 0 1 1 0 0 1 .293.707c0 1.92 12.356 5.498 35.988 5.498 23.632 0 35.988-3.578 35.988-5.498a1.002 1.002 0 0 1 1.707-.707c.187.188.293.442.293.707 0 5.898-24.852 7.498-37.988 7.498z"/><path fill="#5347E9" d="M806.936 459.133a.999.999 0 0 1-1-.999V323.183a.997.997 0 0 1 1-1 .997.997 0 0 1 .999 1v134.951a1 1 0 0 1-.999.999z"/><path fill="#5F8AFF" fill-rule="evenodd" d="M644.888 404.053c-6.597.2-11.096-.299-11.096-1.299s4.099-2.199 10.697-3.299l.399 4.598z" clip-rule="evenodd"/><path fill="#5347E9" d="M805.036 484.024h-6.098a18.812 18.812 0 0 1-18.794-18.793v-58.678a1 1 0 0 1 1-1c4.909 0 17.105-.26 24.272-2.649a.995.995 0 0 1 .925.15.993.993 0 0 1 .395.85l-.7 79.171a1.003 1.003 0 0 1-1 .949zm-22.892-76.472v57.679a16.812 16.812 0 0 0 16.794 16.794h5.109l.679-76.822c-6.987 1.969-17.404 2.309-22.582 2.349zm-129.558 76.372h-7.797a1 1 0 1 1 0-1.999h7.797a16.815 16.815 0 0 0 16.795-16.794v-59.278h-2.15c-7.807-.08-26.091-.26-32.869-1.889a1.02 1.02 0 0 1-.676-.43 1.01 1.01 0 0 1-.143-.789 1 1 0 0 1 1.279-.721c6.558 1.58 24.692 1.75 32.429 1.83h3.159a.999.999 0 0 1 1 .999v60.278a18.812 18.812 0 0 1-18.824 18.793z"/><path fill="#000" d="M649.287 275.7a.997.997 0 0 1-.999-1v-65.676a30.988 30.988 0 0 1 30.99-30.989h9.296a1 1 0 0 1 0 2h-9.296a28.99 28.99 0 0 0-28.991 28.989V274.7a.997.997 0 0 1-1 1zm148.652-59.978a1.002 1.002 0 0 1-1-1v-5.698a28.987 28.987 0 0 0-28.991-28.989h-4.298a1.002 1.002 0 0 1-.707-1.707c.187-.187.442-.293.707-.293h4.298a30.991 30.991 0 0 1 30.99 30.989v5.698a1 1 0 0 1-.999 1z"/><path fill="#5347E9" d="M787.442 314.186a13.208 13.208 0 0 1-13.196-13.195v-47.883a1.002 1.002 0 0 1 1.707-.707c.187.188.293.442.293.707v47.883a11.205 11.205 0 0 0 11.196 11.196 1 1 0 1 1 0 1.999zm20.493-.1a1 1 0 1 1 0-1.999 11.207 11.207 0 0 0 11.197-11.196v-47.783c0-.265.105-.519.292-.707a1.002 1.002 0 0 1 1.414 0 1 1 0 0 1 .293.707v47.783a13.205 13.205 0 0 1-13.196 13.195z"/><path fill="#000" d="M820.031 253.808a1 1 0 0 1-.999-1v-15.394a21.392 21.392 0 1 0-42.786 0v15.394a1.002 1.002 0 0 1-1.707.707 1.002 1.002 0 0 1-.293-.707v-15.394a23.393 23.393 0 0 1 46.785 0v15.394a.997.997 0 0 1-1 1z"/><path fill="#000" fill-rule="evenodd" d="M785.243 309.388h3.398a2.5 2.5 0 1 1 0 4.998h-3.398a2.47 2.47 0 0 1-1.773-.726 2.476 2.476 0 0 1-.726-1.773 2.54 2.54 0 0 1 2.499-2.499zM806.236 309.388h3.399a2.5 2.5 0 0 1 0 4.998h-3.399a2.47 2.47 0 0 1-1.773-.726 2.476 2.476 0 0 1-.726-1.773 2.54 2.54 0 0 1 2.499-2.499zM649.587 263.704a10.298 10.298 0 0 1 10.098 12.305A10.296 10.296 0 0 1 639.291 274a10.286 10.286 0 0 1 10.296-10.296z" clip-rule="evenodd"/><path fill="#5347E9" fill-rule="evenodd" d="M649.587 268.802a5.203 5.203 0 0 1 4.803 3.209 5.2 5.2 0 0 1-9.125 4.878 5.2 5.2 0 0 1-.876-2.888 5.228 5.228 0 0 1 5.198-5.199z" clip-rule="evenodd"/><path fill="#FFB9B2" fill-rule="evenodd" d="M817.032 469.43s3.699-2.499 8.897-6.298c3.899.2 8.398 0 12.896 0 4.798 0 9.397-.3 13.396-.6a9.973 9.973 0 0 1 1.399 2.299c9.397 24.991 9.497 57.38 5.698 66.876-4.198 10.296-21.393 17.994-42.786 17.994-11.196 0-11.296-10.197-11.296-10.197l-.8-14.994c-4.698 2.899-7.897 1.799-7.897 1.799s4.498-9.996 6.698-35.487c.999-11.596 7.797-16.494 13.095-18.593.4-1.7.7-2.799.7-2.799z" clip-rule="evenodd"/><path fill="#FDCB41" fill-rule="evenodd" d="M833.427 473.828c14.295 0 25.891 1.699 25.891 3.799 0 2.099-11.596 3.798-25.891 3.798-14.295 0-25.892-1.699-25.892-3.798 0-2.1 11.597-3.799 25.892-3.799z" clip-rule="evenodd"/><path fill="#FDCB41" fill-rule="evenodd" d="M833.427 462.432c-13.996 0-25.392-1.599-25.892-3.699h-.1v18.893h51.783v-17.493c-.799 1.999-12.096 2.299-25.791 2.299z" clip-rule="evenodd"/><path fill="#000" d="M840.425 546.701a.999.999 0 1 1 0-1.999 7.573 7.573 0 0 0 5.917-2.509c4.729-5.158 3.789-16.484 3.779-16.594a1.005 1.005 0 0 1 1.999-.18c0 .5 1 12.306-4.298 18.123a9.607 9.607 0 0 1-7.397 3.159zM829.428 549.201a1.003 1.003 0 0 1-1-1 1.003 1.003 0 0 1 1-1 7.57 7.57 0 0 0 5.918-2.509c4.728-5.158 3.789-16.484 3.779-16.594a1 1 0 0 1 .909-1.089 1 1 0 0 1 1.09.909c0 .5.999 12.306-4.299 18.124a9.62 9.62 0 0 1-7.397 3.159zM817.532 551.2a1 1 0 1 1 0-1.999 7.585 7.585 0 0 0 5.918-2.509c4.728-5.159 3.789-16.485 3.779-16.594a1.008 1.008 0 0 1 .229-.734 1.012 1.012 0 0 1 .68-.356.99.99 0 0 1 .733.229.994.994 0 0 1 .357.681c0 .499 1 12.305-4.299 18.123a9.607 9.607 0 0 1-7.397 3.159zM813.033 540.304a1 1 0 0 1-1-1v-20.852a14.055 14.055 0 0 1-1.269 2.409 15.361 15.361 0 0 1-13.525 6.448.99.99 0 0 1-.679-.363.996.996 0 0 1-.221-.737 1.012 1.012 0 0 1 .362-.679 1 1 0 0 1 .738-.221 13.293 13.293 0 0 0 11.675-5.568c2.41-3.618 2.919-9.996 2.919-10.096a1 1 0 0 1 1.707-.637c.187.188.293.442.293.707v29.589a1.002 1.002 0 0 1-1 1zM835.726 463.352c-11.936 0-25.162-1.33-28.321-4.438a2.459 2.459 0 0 1-.829-1.78 1 1 0 1 1 1.999 0c0 .06.06.18.23.35 2.119 2.079 13.236 4.139 29.64 3.849 19.354-.34 29.911-3.679 29.911-5.298a.999.999 0 1 1 1.999 0c0 5.328-20.843 7.107-31.87 7.297-.949.02-1.869.02-2.759.02z"/><path fill="#000" fill-rule="evenodd" d="M619.397 234.615H515.931l49.484 128.753h103.466l-49.484-128.753z" clip-rule="evenodd"/><path fill="#FFB9B2" fill-rule="evenodd" d="M561.216 289.695a23.453 23.453 0 0 1 7.698 0c.1 3.599-1 7.997-4.999 10.696l4.999-.5c0 4.099.2 8.997-6.598 11.996 4.398-.7 7.697-1 7.697-1 2 3.299-.899 11.096-12.896 14.595-6.397 7.097-1.999 10.296 1.2 18.693-6.998 1.899-23.392-.3-27.891-12.795-8.697-24.092-10.396-28.59-7.697-34.388 5.098-10.996 10.496-9.996 17.794-12.295 1.699-.6 5.398-1.5 9.497-2.399 8.097-2.3 18.294-4.599 18.294-4.599-1.1 5.198-2.099 8.597-7.098 11.996z" clip-rule="evenodd"/><path fill="#000" d="M535.824 298.092a1 1 0 0 1-.589-1.809 32.378 32.378 0 0 1 7.307-3.819 141.46 141.46 0 0 1 18.784-4.948c4.729-1.4 5.888-6.378 5.498-9.387a1.011 1.011 0 0 1 .87-1.129 1.008 1.008 0 0 1 1.13.869c.599 4.559-1.61 9.997-6.998 11.586-6.798 1.34-15.395 3.609-18.494 4.868a29.157 29.157 0 0 0-6.888 3.579c-.18.13-.398.197-.62.19zM536.424 309.788a1.004 1.004 0 0 1-.954-.69.998.998 0 0 1 .365-1.12 32.09 32.09 0 0 1 7.307-3.818 141.617 141.617 0 0 1 18.784-4.949c4.728-1.399 5.888-6.377 5.498-9.386a1.011 1.011 0 0 1 .87-1.13 1.011 1.011 0 0 1 1.13.87c.599 4.558-1.61 9.996-6.998 11.586-6.798 1.339-15.405 3.608-18.494 4.868a29.12 29.12 0 0 0-6.888 3.579c-.18.13-.398.197-.62.19zM536.924 321.183a.996.996 0 0 1-.954-.69 1.004 1.004 0 0 1 .364-1.119 32.969 32.969 0 0 1 7.308-3.819 141.613 141.613 0 0 1 18.784-4.948c4.728-1.399 5.888-6.378 5.498-9.387a1.008 1.008 0 0 1 1.999-.259c.6 4.558-1.609 9.996-6.997 11.585-6.798 1.34-15.405 3.609-18.494 4.869a29.154 29.154 0 0 0-6.888 3.578.993.993 0 0 1-.62.19z"/><path fill="#5346E9" fill-rule="evenodd" d="M583.309 240.613l-25.992.2a7.897 7.897 0 0 1-6.897-4.999l-.7-1.799c-1-2.799.4-5.098 3.199-5.098h4.698a5.95 5.95 0 0 1 .6-4.598 5.24 5.24 0 0 1 4.499-2.2h.1a10.921 10.921 0 0 1 9.397 6.598l6.697-.1a7.9 7.9 0 0 1 6.898 4.998l.7 1.8c1 2.899-.4 5.198-3.199 5.198zm-20.493-16.494a3.478 3.478 0 0 0-2.899 1.299 3.81 3.81 0 0 0-.2 3.499l10.396-.1c-1.499-2.599-4.598-4.698-7.297-4.698z" clip-rule="evenodd"/><path fill="#FFB9B2" fill-rule="evenodd" d="M696.872 87.568a7.797 7.797 0 0 0 2.199-.3v11.896h-.1v55.18c5.898 1.599 16.095 2.599 27.591 2.599 11.496 0 21.593-1 27.491-2.599v-26.191a20.067 20.067 0 0 0 8.711-7.367 20.071 20.071 0 0 0 3.285-10.926V54.08a20.053 20.053 0 0 0-19.993-19.992h-26.992a20.055 20.055 0 0 0-19.993 19.992v17.494a7.8 7.8 0 0 0-2.199-.3 8.147 8.147 0 1 0 0 16.294z" clip-rule="evenodd"/><path fill="#F16465" fill-rule="evenodd" d="M759.651 51.581a14.548 14.548 0 0 1-6.598-1.499.992.992 0 0 1-.1.4s-7.197-1.8-26.991-13.295a2.768 2.768 0 0 0-.9-.1 10.185 10.185 0 0 0-5.198-1.5 9.998 9.998 0 0 0-9.997 9.997c-.021.37.013.74.1 1.1V82.87l-12.595-11.496v-25.29c-.014-.901.02-1.802.1-2.7a13.292 13.292 0 0 1-1.627-22.116 13.298 13.298 0 0 1 8.124-2.775c1.184.012 2.36.18 3.499.5-3.399-15.094 5.399-26.09 21.693-11.496 0 0-8.197 3.4-13.296 9.497 6.598-3.799 15.595-6.997 27.791-9.197a13.083 13.083 0 0 1 4.399-.7 13.598 13.598 0 0 1 13.596 13.196 15.707 15.707 0 0 1 13.736 16.586 15.702 15.702 0 0 1-15.736 14.702z" clip-rule="evenodd"/><path fill="#000" fill-rule="evenodd" d="M754.052 128.354a21.639 21.639 0 0 1-8.796 1.799h-7.598l16.394 15.694v-17.493z" clip-rule="evenodd"/><path fill="#000" d="M752.154 65.076a1 1 0 0 1-.42-1.909c6.467-2.999 14.085-.75 14.405-.65a1 1 0 0 1 .669 1.25 1 1 0 0 1-1.249.67c-.07 0-7.218-2.15-12.996.55a.995.995 0 0 1-.409.09zM721.963 64.077a1 1 0 0 1-.429-1.9c7.777-3.738 17.243-.58 17.643-.45a1.002 1.002 0 1 1-.64 1.9c-.089 0-9.106-2.999-16.144.35a.936.936 0 0 1-.43.1zM746.295 94.656a17.608 17.608 0 0 1-5.998-1.27 1.006 1.006 0 0 1-.612-.529 1.001 1.001 0 0 1 .213-1.15 1.003 1.003 0 0 1 1.159-.16c1.48.61 5.768 1.88 7.867.49a2.272 2.272 0 0 0 1.13-1.77c.23-2.639-3.289-6.577-4.668-7.867a.997.997 0 0 1-.3-.87l2.099-14.394a1.005 1.005 0 0 1 1.14-.86 1.004 1.004 0 0 1 .665.392 1.002 1.002 0 0 1 .194.748l-1.999 13.895c1.329 1.32 5.218 5.538 4.908 9.126a4.234 4.234 0 0 1-1.999 3.26 6.618 6.618 0 0 1-3.799.959zM699.371 83.37a.994.994 0 0 1-.8-.4l-4.798-6.398a1.003 1.003 0 0 1-.061-1.109 1.005 1.005 0 0 1 1.002-.48.998.998 0 0 1 .658.39l4.798 6.397a.998.998 0 0 1-.799 1.6zM742.276 104.162c-1.599 0-10.996-.4-13.185-9.766a1.004 1.004 0 0 1 1.479-1.024.998.998 0 0 1 .46.564c2 8.547 10.996 8.237 11.376 8.227a1 1 0 1 1 .1 1.999h-.23z"/><path fill="#000" fill-rule="evenodd" d="M731.26 71.974a2.2 2.2 0 1 1-2.199 2.2 2.22 2.22 0 0 1 2.199-2.2zM757.452 71.974a2.2 2.2 0 1 1-2.199 2.2 2.215 2.215 0 0 1 2.199-2.2z" clip-rule="evenodd"/><path fill="#000001" fill-rule="evenodd" d="M40.186 937.959a20.9 20.9 0 0 1 19.303 12.898 20.89 20.89 0 0 1-27.298 27.297 20.89 20.89 0 0 1-12.898-19.302 20.882 20.882 0 0 1 20.893-20.893zM253.117 937.959a20.899 20.899 0 0 1 19.303 12.898 20.895 20.895 0 0 1-4.529 22.768 20.892 20.892 0 0 1-35.667-14.773 20.879 20.879 0 0 1 12.896-19.305 20.901 20.901 0 0 1 7.997-1.588zM118.161 937.959a20.899 20.899 0 0 1 19.303 12.898 20.887 20.887 0 0 1-4.529 22.768 20.892 20.892 0 0 1-35.667-14.773 20.882 20.882 0 0 1 20.893-20.893zM331.092 937.959a20.898 20.898 0 0 1 19.302 12.898 20.893 20.893 0 1 1-38.608-.002 20.896 20.896 0 0 1 11.309-11.308 20.897 20.897 0 0 1 7.997-1.588z" clip-rule="evenodd"/><path fill="#87ACE8" fill-rule="evenodd" d="M40.187 972.547a13.397 13.397 0 0 1-13.096-13.395c.005-1.47.276-2.926.8-4.299l-10.297-10.496a12.681 12.681 0 0 1-4.398.7A13.474 13.474 0 0 1 .9 936.36v-34.488l25.491-.1v30.689a11.358 11.358 0 0 1-1.1 4.899l9.698 9.896a13 13 0 0 1 5.198-1 13.395 13.395 0 0 1 13.096 13.395 12.846 12.846 0 0 1-13.096 12.896zM253.117 972.547a13.397 13.397 0 0 1-13.095-13.395c.004-1.47.275-2.926.799-4.299l-10.296-10.496a12.686 12.686 0 0 1-4.399.7 13.472 13.472 0 0 1-12.296-8.697v-34.488l25.492-.1v30.689a11.372 11.372 0 0 1-1.1 4.899l9.697 9.896a13 13 0 0 1 5.198-1 13.393 13.393 0 0 1 13.096 13.395 12.848 12.848 0 0 1-13.096 12.896zM2.8 639.368h293.403v9.196H2.799v-9.196zM2.8 761.323h293.403v9.197H2.799v-9.197zM2.8 878.281h293.403v9.197H2.799v-9.197z" clip-rule="evenodd"/><path fill="#87ACE8" d="M292.004 931.662l-1.599-312.487a33.82 33.82 0 0 0-34.189-33.987l-132.156.1a35.987 35.987 0 0 0-35.889 35.787l-.6 324.482-9.296-18.693.6-305.589a45.563 45.563 0 0 1 45.285-45.184l132.156-.1a42.99 42.99 0 0 1 39.985 26.465 42.987 42.987 0 0 1 3.301 16.519l1.599 312.487-9.197.2z"/><path fill="#7A77FF" fill-rule="evenodd" d="M62.68 594.184h80.673v45.284H62.68v-45.284z" clip-rule="evenodd"/><path fill="#7A77FF" d="M144.253 640.267H61.98a1 1 0 0 1-1-.999V534.206a1.237 1.237 0 0 1 0-.2c1.15-5.558 20.384-7.567 27.671-8.127v-15.165a.997.997 0 0 1 1-.999h26.691a1 1 0 0 1 1 .999v15.165c7.287.56 26.521 2.569 27.671 8.127.005.067.005.133 0 .2l.2 105.062a1.014 1.014 0 0 1-.29.71.999.999 0 0 1-.67.289zm-81.273-1.999h80.273l-.2-103.962c-.679-2.309-10.196-5.348-26.761-6.518a1.003 1.003 0 0 1-.93-.999v-15.075H90.671v15.095a1 1 0 0 1-.93.999c-16.555 1.17-26.082 4.209-26.761 6.518v103.942z"/><path fill="#7A77FF" fill-rule="evenodd" d="M89.57 509.415h26.691v12.495h-26.69v-12.495z" clip-rule="evenodd"/><path fill="#fff" fill-rule="evenodd" d="M89.17 607.279a6.904 6.904 0 0 1 6.333 8.482 6.906 6.906 0 0 1-12.492 2.213 6.91 6.91 0 0 1-1.138-3.797 7.137 7.137 0 0 1 7.298-6.898zM99.967 600.582a3.395 3.395 0 0 1 3.14 2.098 3.394 3.394 0 0 1-.736 3.704 3.402 3.402 0 0 1-5.23-.515 3.4 3.4 0 0 1-.573-1.888 3.373 3.373 0 0 1 2.094-3.148c.414-.17.858-.255 1.305-.251zM114.962 617.276a4.998 4.998 0 1 1 .002 9.995 4.998 4.998 0 0 1-.002-9.995z" clip-rule="evenodd"/><path fill="#87ACE8" d="M214.33 931.662l-1.6-312.487a33.805 33.805 0 0 0-21.093-31.504 33.826 33.826 0 0 0-13.095-2.483l-132.157.1a35.987 35.987 0 0 0-35.888 35.787l-.6 324.482L.6 926.864l.6-305.589a45.563 45.563 0 0 1 45.285-45.184l132.157-.1a42.976 42.976 0 0 1 39.985 26.465 42.967 42.967 0 0 1 3.3 16.519l1.6 312.487-9.197.2z"/><path fill="#FDCB41" fill-rule="evenodd" d="M115.062 747.929a4.8 4.8 0 0 1-4.798-4.799v-47.183h9.597v47.183a4.798 4.798 0 0 1-4.799 4.799z" clip-rule="evenodd"/><path fill="#FCCC41" fill-rule="evenodd" d="M169.744 747.929a4.8 4.8 0 0 1-4.798-4.799v-14.594h9.597v14.594a4.798 4.798 0 0 1-4.799 4.799z" clip-rule="evenodd"/><path fill="#FFA1FF" fill-rule="evenodd" d="M151.55 747.928a4.799 4.799 0 0 1-4.798-4.798v-46.183h9.597v46.183a4.869 4.869 0 0 1-4.799 4.798z" clip-rule="evenodd"/><path fill="#7A77FF" fill-rule="evenodd" d="M133.356 747.928a4.799 4.799 0 0 1-4.798-4.798v-63.477h9.597v63.477a4.942 4.942 0 0 1-4.799 4.798zM187.938 747.928a4.795 4.795 0 0 1-4.798-4.798v-50.082h9.597v50.082a4.798 4.798 0 0 1-4.799 4.798z" clip-rule="evenodd"/><path fill="#7A77FF" d="M115.662 749.228a5.76 5.76 0 0 1-5.798-5.698l-.9-80.861a1.014 1.014 0 0 1 .29-.71.998.998 0 0 1 .7-.299l9.497-.1c.265 0 .519.105.707.292.187.188.292.442.292.707l.9 80.871a5.758 5.758 0 0 1-5.688 5.798zm-4.698-85.579l.889 79.871a3.75 3.75 0 0 0 7.498-.09l-.89-79.861-7.497.08zM133.856 749.028a5.756 5.756 0 0 1-5.798-5.698l-.899-80.86a.987.987 0 0 1 .989-1.01l9.497-.1a1 1 0 0 1 .999 1l.9 80.87a5.76 5.76 0 0 1-5.688 5.798zm-4.688-85.579l.889 79.871a3.747 3.747 0 0 0 2.356 3.436 3.747 3.747 0 0 0 4.874-2.088c.183-.457.274-.946.268-1.438l-.89-79.861-7.497.08zM152.05 748.828a5.756 5.756 0 0 1-5.798-5.698l-.899-80.861a.987.987 0 0 1 .989-1.009l9.497-.1a1 1 0 0 1 .999 1l.9 80.87a5.76 5.76 0 0 1-5.688 5.798zm-4.688-85.579l.889 79.871a3.747 3.747 0 0 0 2.356 3.436 3.747 3.747 0 0 0 4.874-2.088c.183-.457.274-.946.268-1.438l-.89-79.861-7.497.08zM170.244 748.728a5.756 5.756 0 0 1-5.798-5.698l-.899-80.861a.986.986 0 0 1 .289-.709 1 1 0 0 1 .7-.3l9.497-.1a1 1 0 0 1 .999.999l.9 80.871a5.76 5.76 0 0 1-5.688 5.798zm-4.688-85.579l.89 79.871a3.748 3.748 0 1 0 7.497-.09l-.89-79.861-7.497.08zM188.538 748.528a5.756 5.756 0 0 1-5.798-5.698l-.899-80.86a.987.987 0 0 1 .989-1.01l9.497-.1a1 1 0 0 1 .999 1l.9 80.87a5.76 5.76 0 0 1-5.688 5.798zm-4.688-85.579l.89 79.871a3.748 3.748 0 1 0 7.497-.09l-.89-79.861-7.497.08z"/><path fill="#7A77FF" d="M202.334 760.124H100.667a.998.998 0 0 1-1-1v-75.772a1 1 0 0 1 1-1h101.667a1.003 1.003 0 0 1 1 1v75.772a1.002 1.002 0 0 1-1 1zm-100.667-1.999h99.667v-73.774h-99.667v73.774z"/><path fill="#7A77FF" fill-rule="evenodd" d="M93.07 751.527h116.062v10.596H93.07v-10.596z" clip-rule="evenodd"/><path fill="#87ACE8" fill-rule="evenodd" d="M117.862 972.547a13.395 13.395 0 0 1-13.096-13.395 12.17 12.17 0 0 1 .8-4.299l-10.297-10.496a12.682 12.682 0 0 1-4.399.7 13.474 13.474 0 0 1-12.296-8.697v-34.488l25.492-.1v30.689a11.343 11.343 0 0 1-1.1 4.899l9.697 9.896a13.005 13.005 0 0 1 5.199-1 13.4 13.4 0 0 1 13.095 13.395 12.848 12.848 0 0 1-8.091 11.986 12.847 12.847 0 0 1-5.004.91zM330.792 972.547a13.397 13.397 0 0 1-13.096-13.395 12.17 12.17 0 0 1 .8-4.299l-10.297-10.496a12.676 12.676 0 0 1-4.398.7 13.475 13.475 0 0 1-12.296-8.697v-34.488l25.491-.1v30.689a11.356 11.356 0 0 1-1.099 4.899l9.696 9.896a13.005 13.005 0 0 1 5.199-1 13.397 13.397 0 0 1 13.095 13.395 12.848 12.848 0 0 1-8.091 11.986 12.847 12.847 0 0 1-5.004.91z" clip-rule="evenodd"/><path fill="#FEFEFE" fill-rule="evenodd" d="M232.024 432.743h128.858l57.481 156.643H232.024V432.743z" clip-rule="evenodd"/><path fill="#87ACE8" fill-rule="evenodd" d="M208.832 383.261c15.795 5.798 32.789-2.199 38.087-17.694l40.487-119.956c5.298-15.594-3.299-32.888-18.994-38.586s-32.789 2.199-38.087 17.694c0 .1-.1.2-.1.3l-40.287 119.256c0 .1-.1.2-.1.3-5.298 15.594 3.299 32.888 18.994 38.686z" clip-rule="evenodd"/><path fill="#87ACE8" fill-rule="evenodd" d="M193.937 286.096c.599 2.599-7.698 12.995-19.194 23.792-10.697 10.096-20.293 17.093-23.692 17.393l45.485 48.083.1.1c11.696 12.295 30.79 13.195 42.786 1.899 11.996-11.296 12.196-30.389.5-42.684-18.195-19.393-45.985-48.583-45.985-48.583z" clip-rule="evenodd"/><path fill="#5347E9" d="M239.922 335.478a.998.998 0 0 1-.73-.31 30088.07 30088.07 0 0 0-45.985-48.382.998.998 0 0 1 .755-1.636.998.998 0 0 1 .684.257c.28.289 27.991 29.409 45.985 48.382a.997.997 0 0 1 0 1.419.998.998 0 0 1-.709.27z"/><path fill="#000" fill-rule="evenodd" d="M179.541 270.402c-1.799-1.799-11.496 4.498-21.693 14.195-10.196 9.696-17.094 18.993-15.395 20.792 1.7 1.8 11.497-4.498 21.693-14.195 10.197-9.696 17.195-18.993 15.395-20.792zM193.937 285.996c-2.1-2.199-13.396 5.098-25.292 16.294-11.896 11.196-19.794 21.992-17.694 24.292 2.099 2.299 13.395-5.099 25.291-16.294 11.897-11.196 19.794-21.992 17.695-24.292z" clip-rule="evenodd"/><path fill="#FCCC41" fill-rule="evenodd" d="M163.746 291.195c-9.996 9.496-19.593 15.694-21.392 13.994l12.995 13.596.1-.1c2.2 1.199 11.496-4.899 21.293-14.095 9.997-9.497 16.795-18.594 15.195-20.593.1-.1.1-.1 0-.1l-12.596-13.495-.299.3c1.199 2.299-5.499 11.296-15.296 20.493z" clip-rule="evenodd"/><path fill="#FFB9B2" fill-rule="evenodd" d="M162.747 288.595a99.924 99.924 0 0 1-14.495 11.596c-3.699-4.298-6.798-7.697-8.698-9.896-6.098-1.3-64.079-30.889-71.776-35.287-7.698-4.399-5.898-9.797 8.397-4.799 10.597 3.699 24.192 7.498 24.192 7.498s-31.39-21.193-37.288-25.991c-3.598-2.799-2.898-5.398-1.399-6.498a4.546 4.546 0 0 1 2.8-.399s-1.6-1.5-3.2-3.199c-2.5-2.699.4-6.998 5.098-4.998 8.098 3.498 41.687 20.492 41.687 20.492s-16.095-12.595-28.291-22.092c-8.297-6.498-3.699-10.396 6.498-4.498 7.497 4.398 38.487 22.392 38.487 22.392s18.594 10.396 4.399-11.496c-7.198-11.096-4.899-17.494-1.2-14.395s26.991 33.388 32.889 41.585c5.899 8.197 4.799 15.294 4.799 15.294l10.297 9.797c-2.5 3.898-7.298 9.296-13.196 14.894z" clip-rule="evenodd"/><path fill="#000" d="M104.566 264.104a.997.997 0 0 1-1-.999c0-.7.42-17.204 10.666-28.06a1.015 1.015 0 0 1 .702-.314.996.996 0 0 1 .718.274 1 1 0 0 1 .04 1.419c-9.707 10.277-10.126 26.551-10.126 26.721a1 1 0 0 1-1 .959zM143.153 267.203a.997.997 0 0 1-.64-.23c-15.174-12.515-8.057-30.849-7.997-30.989a1.012 1.012 0 0 1 .534-.549 1.002 1.002 0 0 1 1.325 1.289c-.28.7-6.637 17.174 7.408 28.75a1 1 0 0 1 .13 1.409 1.008 1.008 0 0 1-.76.32z"/><path fill="#000" d="M106.665 248.61a1.008 1.008 0 0 1-.5-.13l-35.488-20.193a1.001 1.001 0 0 1-.37-1.369 1.005 1.005 0 0 1 1.37-.37l35.488 20.193a.996.996 0 0 1 .119 1.66 1 1 0 0 1-.609.209h-.01z"/><path fill="#FFB9B2" fill-rule="evenodd" d="M372.078 815.504l58.181 75.472-25.591 41.285-48.285 34.788-.3-10.996 14.696-64.977-30.89-47.782 32.189-27.79z" clip-rule="evenodd"/><path fill="#000" fill-rule="evenodd" d="M367.28 979.544h-46.485s-.3-8.297 10.797-13.395a116.972 116.972 0 0 0 25.491-16.494s6.398 8.397 14.395 1c9.297-8.497 34.989-49.282 40.787-63.277 4.799-11.596 2.399-17.194 2.399-17.194a83.72 83.72 0 0 1 17.794 9.996c6.698 4.799 12.596 13.595 12.596 13.595l-63.679 79.472a18 18 0 0 1-14.095 6.297zM402.868 855.389l-43.086 18.694-3.499-5.498-.1-.3 34.889-28.29 11.796 15.394z" clip-rule="evenodd"/><path fill="#7A77FF" fill-rule="evenodd" d="M400.369 840.095l-44.985 32.588-155.649-243.412a52.772 52.772 0 0 1-6.298-40.085l55.981-228.517h72.177l-59.381 243.312 138.155 236.114z" clip-rule="evenodd"/><path fill="#5347E9" d="M382.875 853.59a.993.993 0 0 1-.87-.5L250.248 624.173a43.25 43.25 0 0 1-4.808-30.599l33.089-156.943a1.024 1.024 0 0 1 .811-.794 1.025 1.025 0 0 1 1.192.816c.025.132.024.267-.004.398l-33.089 156.943a41.197 41.197 0 0 0 4.589 29.18L383.784 852.09a.993.993 0 0 1-.001 1.002.996.996 0 0 1-.868.498h-.04z"/><path fill="#000" fill-rule="evenodd" d="M349.985 864.286l-25.691-40.185 1.899-100.964 9.597 6.598 42.286 72.274-28.091 62.277zM273.81 435.042h28.291l-7.597 37.687-20.694-37.687z" clip-rule="evenodd"/><path fill="#FFB9B2" fill-rule="evenodd" d="M325.593 977.445l-93.169 2.099-4.898-8.497 47.884-46.183 18.994-72.074 38.387-30.389-8.397 99.664 1.199 55.38z" clip-rule="evenodd"/><path fill="#000" fill-rule="evenodd" d="M214.83 979.544s-1.1-11.695 25.391-20.892c4.399 3.299 15.495 7.597 24.892 7.597 16.495 0 41.986-9.696 59.681-21.692.109-.052.21-.119.3-.2 0 0 2.099 6.498 1.099 34.987-39.187.1-111.363.2-111.363.2zM282.308 898.774l45.585-.9-3.099 21.192-44.786-11.695 2.3-8.597z" clip-rule="evenodd"/><path fill="#7A77FF" fill-rule="evenodd" d="M295.003 360.469h86.172l-51.183 544.602H273.91l21.093-544.602z" clip-rule="evenodd"/><path fill="#5347E9" d="M307.599 906.371h-.08a1 1 0 0 1-.919-1.08l27.991-358.869a.99.99 0 0 1 .349-.684 1.01 1.01 0 0 1 .73-.236 1 1 0 0 1 .92 1.08l-27.991 358.869a.998.998 0 0 1-1 .92z"/><path fill="#87ACE8" fill-rule="evenodd" d="M386.573 266.103l-7.597 82.87 10.496 73.274h11.397l-.8 73.473 19.794 93.566c-67.078 0-101.667-41.785-103.367-94.466l-8.297-276.599c1.1-.8 19.194-20.693 19.194-20.693s42.286 7.398 55.082 10.497a31.4 31.4 0 0 1 23.692 29.289 28.889 28.889 0 0 1-19.594 28.789z" clip-rule="evenodd"/><path fill="#5346E9" fill-rule="evenodd" d="M389.772 424.546c6.898-.3 11.296-1.1 11.496-1.999.2-.9-2.999-1.7-11.895-2.499l.399 4.498z" clip-rule="evenodd"/><path fill="#5347E9" d="M389.572 497.42h-.1l-13.395-1.31c-16.995-1.639-31.27-16.604-31.89-33.338 0-.21-.799-21.072-1.299-36.197a1 1 0 1 1 1.999 0c.49 15.115 1.29 35.987 1.3 36.177.58 15.784 14.075 29.879 30.09 31.429l13.395 1.309a1.01 1.01 0 0 1 .693.328 1.007 1.007 0 0 1 .162 1.101 1.009 1.009 0 0 1-.955.571v-.07z"/><path fill="#5347E9" d="M345.387 427.345h-1.5a.997.997 0 0 1-.706-1.707.998.998 0 0 1 .706-.292c25.612.06 53.253-1.22 55.192-3.409a1.007 1.007 0 0 1 .676-.363 1.003 1.003 0 0 1 .734.223.995.995 0 0 1 .354.646.996.996 0 0 1-.184.713c-2.949 3.829-41.237 4.189-55.272 4.189z"/><path fill="#87ACE8" fill-rule="evenodd" d="M192.937 589.886l55.982-231.316-3.899-142.948 32.489-.5 4.999 149.946-26.692 128.953a155.486 155.486 0 0 1-44.085 79.571l-18.794 16.294z" clip-rule="evenodd"/><path fill="#5347E9" d="M248.918 362.568a1.002 1.002 0 0 1-1-.789l-16.694-76.772a39.354 39.354 0 0 1 .83-19.803l6.898-21.692a.998.998 0 0 1 1.789-.117c.125.217.164.472.11.717l-6.898 21.692a37.268 37.268 0 0 0-.769 18.783l16.694 76.772a1.009 1.009 0 0 1-.138.755 1.01 1.01 0 0 1-.632.434l-.19.02z"/><path fill="#000" fill-rule="evenodd" d="M298.402 176.636c-16.594 2.999-29.79 12.496-29.49 21.292.1 3.499 3.399 7.198 7.098 9.097 9.397-13.795 31.889-13.395 23.492 1.4 16.595-2.999 30.19-14.595 29.89-23.392-.3-8.797-14.395-11.296-30.99-8.397zM256.516 72.274a12.765 12.765 0 0 1 12.695 12.295 11.821 11.821 0 0 1-7.237 11.373c-1.475.62-3.059.934-4.659.923a12.766 12.766 0 0 1-12.695-12.296 11.821 11.821 0 0 1 3.317-8.693 11.83 11.83 0 0 1 8.579-3.602z" clip-rule="evenodd"/><path fill="#000" fill-rule="evenodd" d="M292.904 56.08a43.728 43.728 0 0 0-42.386 31.788c-1.2 4.399 7.598 14.995 7.698 19.793.799 25.191 12.495 39.586 37.687 39.586a43.834 43.834 0 0 0 41.246-28.211 43.824 43.824 0 0 0 2.84-17.373 47.401 47.401 0 0 0-47.085-45.583z" clip-rule="evenodd"/><path fill="#000" fill-rule="evenodd" d="M303.7 27.29s-9.097 21.492 7.197 34.688C275.51 56.879 277.11 29.19 303.7 27.29z" clip-rule="evenodd"/><path fill="#000" fill-rule="evenodd" d="M347.386 55.68c-6.398-60.078-74.975-18.693-28.29 29.889 21.193 5.798 57.581-19.993 28.29-29.89z" clip-rule="evenodd"/><path fill="#FFB9B2" fill-rule="evenodd" d="M317.796 113.659c1.3-.7 2.499-1.4 3.599-1.999h.3a7.937 7.937 0 0 1 7.897 7.697 7.436 7.436 0 0 1-2.073 5.41 7.446 7.446 0 0 1-5.324 2.287 11.116 11.116 0 0 1-1.9-.2l.6 2.199 5.598 75.173s-32.489-10.496-36.888 36.187c-5.898-33.488-12.995-28.29-13.295-37.187-.4-16.893-.9-37.686-.9-37.686s-24.092-2.099-25.192-34.087c-1.199-36.087-1.099-38.587-1.099-38.587s13.495-3.698 14.495-11.595c4.398 14.295 21.693 6.697 34.588 13.895 10.997 6.097.7 14.994 19.594 18.493z" clip-rule="evenodd"/><path fill="#000" fill-rule="evenodd" d="M289.405 111.66a2.81 2.81 0 0 1 2.699 2.599 2.558 2.558 0 0 1-2.499 2.599 2.805 2.805 0 0 1-2.699-2.599 2.495 2.495 0 0 1 .696-1.832 2.493 2.493 0 0 1 1.803-.767zM259.815 111.66a2.81 2.81 0 0 1 2.699 2.599 2.558 2.558 0 0 1-2.499 2.599 2.805 2.805 0 0 1-2.699-2.599 2.478 2.478 0 0 1 .161-.987 2.486 2.486 0 0 1 1.358-1.413c.31-.132.643-.2.98-.199z" clip-rule="evenodd"/><path fill="#000" d="M317.596 121.256a.996.996 0 0 1-.964-.746.997.997 0 0 1 .474-1.123l6.098-3.399a.995.995 0 0 1 .761-.099 1.013 1.013 0 0 1 .608.469.996.996 0 0 1-.075 1.112 1.01 1.01 0 0 1-.294.258l-6.098 3.398a.999.999 0 0 1-.51.13zM274.64 142.249h-.25a1.002 1.002 0 0 1-.707-1.707c.188-.187.442-.293.707-.293a17 17 0 0 0 9.997-3.558.995.995 0 0 1 1.409.11.998.998 0 0 1-.11 1.409 18.715 18.715 0 0 1-11.046 4.039zM254.417 103.263a.998.998 0 0 1-.927-1.374c.082-.203.229-.374.417-.486 4.768-2.799 12.166-2.999 12.475-2.999a1 1 0 1 1 .06 2c-.07 0-7.197.23-11.515 2.759a1.01 1.01 0 0 1-.51.1zM295.803 104.562a.998.998 0 0 1-.47-.12 37.863 37.863 0 0 0-17.194-3.279 1 1 0 1 1 0-1.999c10.926-.32 17.903 3.359 18.193 3.519a.996.996 0 0 1 .143 1.666 1 1 0 0 1-.612.213h-.06zM271.481 136.091a5.302 5.302 0 0 1-3.249-.93c-1.469-1.14-1.909-3.169-1.299-5.998 2.469-11.946 4.078-20.383 4.098-20.473a1.002 1.002 0 0 1 1.17-.789 1 1 0 0 1 .789 1.169c0 .08-1.629 8.537-4.098 20.503-.44 2.049-.25 3.399.57 3.998 1.999 1.52 7.357-.639 9.096-1.509a1.003 1.003 0 0 1 1.277.472.999.999 0 0 1-.377 1.307c-.55.3-4.548 2.25-7.977 2.25zM291.504 114.159a.997.997 0 0 1-.469-.12l-6.498-3.499a1 1 0 0 1 .94-1.759l6.497 3.498a1.002 1.002 0 0 1 .143 1.666 1.01 1.01 0 0 1-.613.214zM262.414 114.159a1.014 1.014 0 0 1-.49-.13l-6.298-3.499a1.004 1.004 0 0 1 1-1.739l6.298 3.498a1.002 1.002 0 0 1 .119 1.66 1.005 1.005 0 0 1-.609.21h-.02z"/><path fill="#000" fill-rule="evenodd" d="M275.41 165.44s.1 5.798.3 13.795c31.789-1.999 36.688-29.189 36.688-29.189a49.325 49.325 0 0 1-17.395 11.895c-7.197 2.799-15.394 3.299-20.793 3.299.392.11.794.177 1.2.2z" clip-rule="evenodd"/><path fill="#FCCC41" fill-rule="evenodd" d="M258.715 228.317s9.797-15.694 17.994-10.896a9.923 9.923 0 0 1 3.899 4.798h-3.099l4.899 142.748 30.19-.599-4.299-142.149h-7.298c3.899-6.397 11.497-9.396 24.692 5.498 7.398-6.397 15.895-16.094 17.395-25.59 0 0-7.898-23.192-18.594-24.092-.1.6-.3-.1-.3.3 5.398.3 14.495 15.395-20.893 29.29-4.199.499-7.498 7.297-9.797 14.594l-4.199 14.595-3.599-14.695-5.898-12.895s-9.297-4.898-10.496-8.397c-3.199-9.696 5.898-14.095 5.898-14.095l.4-1.399s-7.798 1.599-11.696 11.895c-6.798 12.196-5.199 31.089-5.199 31.089z" clip-rule="evenodd"/><path fill="#000" d="M289.605 239.913a1.002 1.002 0 0 1-.999-.83c-.22-1.229-.43-2.499-.65-3.798-1.9-11.456-4.269-25.701-12.166-27.281a1.311 1.311 0 0 1-.26-.09c-3.589-1.849-7.518-5.747-7.638-9.996-.11-4.498 2.27-8.817 6.878-12.505a.999.999 0 0 1 1.24 1.559c-4.099 3.279-6.218 7.048-6.118 10.896.08 2.829 2.779 6.248 6.438 8.167 8.587 1.849 11.196 14.615 13.225 26.62 2.649-14.374 7.268-24.481 9.627-25.22a.27.27 0 0 1 .12 0c16.705-2.999 29.34-14.505 29.071-22.382a6.41 6.41 0 0 0-3.569-5.948.988.988 0 0 1-.537-.589 1.007 1.007 0 0 1 .064-.794 1.008 1.008 0 0 1 1.031-.518c.135.021.265.069.381.142a8.319 8.319 0 0 1 4.629 7.647c.33 9.786-14.245 21.392-30.61 24.391-1.34.78-6.778 11.386-9.187 29.649a1 1 0 0 1-1 .87l.03.01z"/><path fill="#000" fill-rule="evenodd" d="M258.715 228.317l27.49-6.397s-1.299-8.597-4.398-11.996c-5.798-6.498-14.495 1.899-23.092 18.393zM325.693 227.717l-32.789-4.298c.3-.2 1.1-12.696 7.798-15.894 4.098-1.8 18.793 8.996 24.991 20.192z" clip-rule="evenodd"/><path fill="#87ACE8" fill-rule="evenodd" d="M352.685 256.307l-.1.1 85.971 93.066.1-.1a31.086 31.086 0 0 0 21.993 9.197 28.991 28.991 0 0 0 29.191-30.189 31.225 31.225 0 0 0-7.298-18.993l.1-.1-83.573-90.367a31.294 31.294 0 0 0-24.392-11.796 28.982 28.982 0 0 0-21.066 8.838 28.991 28.991 0 0 0-8.124 21.351 29.543 29.543 0 0 0 7.198 18.993z" clip-rule="evenodd"/><path fill="#5347E9" d="M438.556 350.573a.998.998 0 0 1-.709-.32l-85.972-93.066a.999.999 0 0 1-.26-.53 32.395 32.395 0 0 1-7.208-19.213.994.994 0 0 1 .272-.716 1.008 1.008 0 0 1 .698-.314.994.994 0 0 1 .716.272 1.008 1.008 0 0 1 .314.698 30.344 30.344 0 0 0 7.067 18.383.995.995 0 0 1 .21.43l85.272 92.317c.161.049.308.134.43.249a1.001 1.001 0 0 1 0 1.42l-.1.1a.992.992 0 0 1-.73.29zM420.462 298.992a1 1 0 0 1-.789-1.62c4.488-5.728 13.045-7.297 13.415-7.357a1 1 0 0 1 .34 1.969c-.08 0-8.177 1.5-12.176 6.628a1 1 0 0 1-.79.38z"/><path fill="#000" fill-rule="evenodd" d="M378.976 297.992c2.499 0 4.898 11.595 5.398 25.89s-1.2 25.891-3.699 25.891c-2.499 0-4.898-11.596-5.398-25.891-.5-14.295 1.2-25.89 3.699-25.89zM399.869 298.192c2.999 0 5.898 13.395 6.398 29.989.499 16.594-1.4 29.989-4.399 29.989s-5.898-13.395-6.397-29.989c-.5-16.594 1.399-29.989 4.398-29.989z" clip-rule="evenodd"/><path fill="#000" fill-rule="evenodd" d="M396.57 297.992h3.399l.1 3.498h-3.399l-.1-3.498z" clip-rule="evenodd"/><path fill="#FCCC41" fill-rule="evenodd" d="M384.074 323.983c.5 13.995-1.1 25.39-3.599 25.59l18.494-.1v-.1c2.299-.799 3.798-11.895 3.398-25.59-.499-13.995-2.799-25.391-5.298-25.591 0-.1 0-.1-.1-.1l-18.193-.2c2.499.9 4.798 12.496 5.298 26.091z" clip-rule="evenodd"/><path fill="#FFB9B2" fill-rule="evenodd" d="M381.875 321.783c-.4-11.496-2.199-20.892-3.999-20.892h-15.795c-.499-.1-2.899-.4-7.397-3.199l-25.592-33.588s-4.098 2.499-4.698 9.697c-.1 0-.3-.1-.4-.1v-.3H306.4v.1a6.57 6.57 0 0 0-1.4-.1 12.396 12.396 0 0 0-12.596 12.195 10.474 10.474 0 0 0 .6 3.599 10.883 10.883 0 0 0-.6 3.599c.014 1.468.285 2.923.8 4.298a12.17 12.17 0 0 0-.8 4.299c.014 1.468.285 2.923.8 4.298a12.17 12.17 0 0 0-.8 4.299A12.398 12.398 0 0 0 305 322.183a4.998 4.998 0 0 0 1.9-.3h5.198v-7.297l7.697.6s3.199 7.097 4.399 8.996c7.298 12.396 16.594 17.094 26.491 18.194l.2.3h28.491c1.699-.2 2.799-9.397 2.499-20.893z" clip-rule="evenodd"/><path fill="#000" d="M320.095 316.385h-12.696a.995.995 0 0 1-.706-.293.995.995 0 0 1 0-1.413.995.995 0 0 1 .706-.293h12.696a1 1 0 1 1 0 1.999zM292.704 291.984a.994.994 0 0 1-.999-.859 5.82 5.82 0 0 1 1.609-4.309c2.849-3.259 8.837-4.918 17.774-4.918h11.446c3.289 0 3.489 0 3.499 1 .01.999-.999.999-1.529.999a1.075 1.075 0 0 1-.36-.06h-13.056c-10.286 0-14.495 2.269-16.204 4.169a3.996 3.996 0 0 0-1.2 2.809 1.001 1.001 0 0 1-.87 1.099l-.11.07zM292.704 300.981a1 1 0 0 1-.999-.86 5.823 5.823 0 0 1 1.609-4.308c2.849-3.259 8.837-4.918 17.774-4.918h11.446c3.289 0 3.489 0 3.499.999.01 1-.999 1-1.529 1-.123 0-.244-.02-.36-.06h-13.056c-10.286 0-14.495 2.269-16.204 4.168a3.997 3.997 0 0 0-1.2 2.809 1 1 0 0 1-.87 1.1l-.11.07zM292.704 310.977a.994.994 0 0 1-.999-.859 5.82 5.82 0 0 1 1.609-4.309c2.849-3.259 8.837-4.918 17.774-4.918h11.446c3.289 0 3.489 0 3.499 1 .01.999-.999.999-1.529.999a1.075 1.075 0 0 1-.36-.06h-13.056c-10.286 0-14.495 2.269-16.204 4.169a3.994 3.994 0 0 0-1.2 2.809.998.998 0 0 1-.87 1.099l-.11.07z"/><path fill="#87ACE8" fill-rule="evenodd" d="M399.669 298.192c2.299 1.299 4.499 14.794 5.099 30.788.499 14.995-.6 26.891-2.6 29.69h58.381v-.1h.1a29.009 29.009 0 0 0 21.067-8.838 28.993 28.993 0 0 0 8.124-21.351 31.432 31.432 0 0 0-31.19-30.189h-58.981z" clip-rule="evenodd"/><path fill="#5347E9" d="M458.35 302.09a.977.977 0 0 1-.37-.07c-.07 0-7.687-2.929-24.722-2.929-17.294 0-33.339-.1-33.499-.1a1.002 1.002 0 0 1-1-.999 1.002 1.002 0 0 1 1-1c.16 0 16.185.1 33.479.1 17.484 0 25.142 2.939 25.462 3.069a1.002 1.002 0 0 1 .268 1.701.995.995 0 0 1-.638.228h.02z"/></svg>