<svg xmlns="http://www.w3.org/2000/svg" fill="none" viewBox="0 0 833 818"><path fill="#FFB9B2" fill-rule="evenodd" d="M755.817 797.599l-37.538-5.922h-16.888c-10.461 9.509-26.666 21.855-29.401 10.176-2.393-10.26.205-18.935 5.812-44.294.205-13.346.341-22.522.341-22.522l31.59-.417.341 25.525 45.743 37.454z" clip-rule="evenodd"/><path fill="#000" fill-rule="evenodd" d="M678.144 741.46v-.417l31.794-.417.205 14.264c-11.692-6.59-25.094-11.261-31.999-13.43z" clip-rule="evenodd"/><path fill="#31AA70" fill-rule="evenodd" d="M679.101 816.451c-.411-.083-.821-.25-1.163-.333-15.658 0-10.735-27.194-10.735-27.194s2.735 2.002 20.239-2.836c2.12-.584 4.171-1.251 6.154-1.919l-18.94-12.345 2.804-12.43 28.922 18.936c9.436-5.339 14.496-10.594 14.496-10.594s9.299 6.924 23.999 13.514c9.368 4.17 25.162 3.336 25.162 3.336v13.264c0 18.685-22.974 18.518-41.23 18.518-23.521.083-49.708.083-49.708.083z" clip-rule="evenodd"/><path fill="#FFB9B2" fill-rule="evenodd" d="M574.145 734.119s-.615 6.423-2.667 23.941c2.188 26.193 5.744 33.533 3.351 43.794-4.103 17.517-62.358-10.177-62.358-10.177l24.273-29.446 6.495-28.946 30.906.834z" clip-rule="evenodd"/><path fill="#31AA70" fill-rule="evenodd" d="M563.273 793.845a39.91 39.91 0 0 0 14.837-.417c.752 10.261-5.538 22.69-14.837 23.44-.684.084-1.368.084-1.983.167 0 0-33.436-.083-45.811-.083-14.701 0-14.359-25.109-14.359-25.109s10.188-4.087 18.324-10.176c6.017-4.505 11.077-11.595 11.077-11.595 14.017-2.336 24.82 8.508 24.82 8.508l16.547-15.932 2.461 11.928-15.999 15.599.205.834c1.262 1.573 2.926 2.573 4.718 2.836z" clip-rule="evenodd"/><path fill="#000" fill-rule="evenodd" d="M574.145 734.119s-1.162 10.677-2.256 20.354c-13.47-6.841-27.008-13.347-30.632-15.099l32.888-5.255z" clip-rule="evenodd"/><path fill="#31AA70" fill-rule="evenodd" d="M541.325 740.375l64.409-360.276 107.896-85.002V741.21h-36.922l-15.385-348.682-81.024 347.847h-38.974z" clip-rule="evenodd"/><path fill="#5347E9" d="M688.878 735.12a.628.628 0 0 1-.483-.244.934.934 0 0 1-.201-.59l-10.598-310.31a.953.953 0 0 1 .181-.6.643.643 0 0 1 .476-.268.62.62 0 0 1 .491.221c.134.15.212.359.22.58l10.598 310.31a.937.937 0 0 1-.2.59.632.632 0 0 1-.484.244v.067z"/><path fill="#000" fill-rule="evenodd" d="M661.87 405.624l41.914 14.848c-5.538 3.253-24.82 13.931-40.341 21.271l-1.573-36.119z" clip-rule="evenodd"/><path fill="#FFB9B2" fill-rule="evenodd" d="M776.398 299.852l-68.58-14.431v-32.115l6.496 1.335v-11.595h18.324l1.163 15.682 42.666 8.926v32.198h-.069z" clip-rule="evenodd"/><path fill="#000" fill-rule="evenodd" d="M590.829 234.036c7.999 6.924 13.948 13.514 13.333 14.682-.616 1.167-7.727-3.504-15.727-10.511-7.999-7.007-13.948-13.513-13.333-14.681.616-1.168 7.727 3.503 15.727 10.51z" clip-rule="evenodd"/><path fill="#31AA70" fill-rule="evenodd" d="M721.083 246.215l12.376-.417-4.855-63.146c-.801-8.704-3.706-16.919-8.345-23.603-4.639-6.684-10.802-11.535-17.706-13.935l-15.452-6.59s-3.282 13.847-13.539 13.013c-10.256-.834-20.444-11.511-20.444-11.511l-22.974 10.76c-10.481 4.681-19.561 13.112-26.051 24.191l-28.854 48.382c1.299-.417 8 4.087 15.521 10.594 8 6.923 13.949 13.513 13.333 14.681l19.009-32.282 9.435 61.561-16.068 67.568a28.01 28.01 0 0 1-5.128-.584l-12.034 72.823c.274.417-.068 1.001-.068 1.001 2.461 2.919 29.196 5.172 61.811 5.172 34.256 0 58.871-2.419 61.742-5.923-.888-29.363-4.17-128.879-4.17-128.879l2.461-42.876z" clip-rule="evenodd"/><path fill="#FFB9B2" fill-rule="evenodd" d="M612.982 345.481c6.495 1.335 25.709 1.168 33.572.251.136-2.836.136-6.173 0-10.094-.342-8.592-7.521-15.682-13.265-20.02l-34.188-61.227s.958-1.585 3.282-5.673l.069-.083c.068-1.085-3.898-5.756-9.231-10.761-5.333-5.005-9.983-8.508-10.871-8.091 0 .083-.069.166-.069.25-3.76 6.34-5.47 8.925-5.47 8.925-2.626 4.379-4.047 9.66-4.059 15.085-.012 5.426 1.385 10.716 3.991 15.112l36.17 63.147c0 4.671 0 9.175.069 13.179z" clip-rule="evenodd"/><path fill="#5347E9" d="M661.323 424.893c-23.869 0-60.648-1.509-64.136-5.655a.863.863 0 0 1-.151-.269.983.983 0 0 1-.056-.32.988.988 0 0 1 .048-.321.863.863 0 0 1 .146-.275.7.7 0 0 1 .22-.185.571.571 0 0 1 .526-.009.68.68 0 0 1 .225.178c2.4 2.861 30.768 5.188 63.178 5.188 13.436 0 36.095-.934 43.842-1.668 3.966-.334 7.022-.743 9.484-1.076a.602.602 0 0 1 .505.179.899.899 0 0 1 .254.563.976.976 0 0 1-.147.617.667.667 0 0 1-.462.309c-2.468.342-5.545.759-9.531 1.093-7.768.709-30.482 1.651-43.945 1.651zM637.46 404.79h-11.555a.632.632 0 0 1-.484-.244.939.939 0 0 1-.2-.59c0-.221.072-.434.2-.59a.629.629 0 0 1 .484-.244h11.555c3.046-.005 5.965-1.483 8.119-4.11 2.153-2.627 3.365-6.189 3.368-9.904v-42.785c-6.365 1.176-32.765 1.56-37.49-.475a.782.782 0 0 1-.347-.432 1.007 1.007 0 0 1-.016-.605.803.803 0 0 1 .322-.459.581.581 0 0 1 .493-.073c4.676 2.002 33.503 1.485 37.551.226a.557.557 0 0 1 .308-.008c.102.026.198.08.28.158.083.078.15.177.196.292a.983.983 0 0 1 .071.367v43.794c-.004 4.157-1.359 8.144-3.769 11.084-2.41 2.94-5.678 4.594-9.086 4.598zm19.966-153.987h-7.18a.626.626 0 0 1-.483-.245.934.934 0 0 1-.2-.589c0-.222.072-.434.2-.59a.626.626 0 0 1 .483-.245h7.18c2.357 0 4.618-1.142 6.285-3.176 1.667-2.033 2.604-4.792 2.604-7.668v-24.891c-.759.125-1.758.242-3.023.367a150.65 150.65 0 0 1-22.119 0c-4.376-.392-5.832-.834-5.832-2.586 0-.221.072-.434.2-.59a.628.628 0 0 1 .483-.244c.182 0 .356.088.484.244s.2.369.2.59c.13.208.916.592 4.561.917 7.3.534 14.62.534 21.921 0 1.702-.158 2.947-.325 3.685-.483a.561.561 0 0 1 .296.011.65.65 0 0 1 .265.164.838.838 0 0 1 .182.287c.042.111.064.233.064.355v25.859c0 3.319-1.081 6.501-3.004 8.848-1.923 2.347-4.532 3.665-7.252 3.665zm27.35-61.228h-.137a1.365 1.365 0 0 1-.718-.259.285.285 0 0 1-.096-.075l-33.845-30.447-.082-.075v-.05c-1.108-1.051-4.479-4.746-3.918-10.077.41-4.062 2.735-7.315 6.885-9.659a.572.572 0 0 1 .267-.075l33.914-1.252a.444.444 0 0 1 .205 0c8.643 2.912 13.217 7.808 13.217 14.181.006 1.904-.456 3.767-1.327 5.347l-13.223 31.523a1.456 1.456 0 0 1-.455.675 1.063 1.063 0 0 1-.687.243zm-.185-1.668h.069l13.251-31.615.041-.075c.728-1.319 1.116-2.873 1.114-4.463 0-6.924-6.564-10.619-12.116-12.513l-33.695 1.277c-3.624 2.077-5.641 4.863-5.983 8.283-.472 4.513 2.509 7.708 3.419 8.583l.068.067v.042l33.832 30.414zM719.169 289.091h-.048a.584.584 0 0 1-.258-.085.718.718 0 0 1-.212-.2.881.881 0 0 1-.132-.284 1.005 1.005 0 0 1-.034-.324l3.214-57.724c.516-9.666-.872-19.342-4.048-28.22l-9.36-25.942a1.004 1.004 0 0 1-.01-.634.783.783 0 0 1 .358-.459.581.581 0 0 1 .261-.072.59.59 0 0 1 .263.056c.084.04.16.099.225.175a.863.863 0 0 1 .154.266l9.354 25.943c3.265 9.124 4.692 19.069 4.164 29.004l-3.214 57.724a.916.916 0 0 1-.214.55.624.624 0 0 1-.463.226z"/><path fill="#000" d="M649.084 224.944a.626.626 0 0 1-.483-.245.929.929 0 0 1-.201-.589v-16.016a.93.93 0 0 1 .201-.59.626.626 0 0 1 .483-.245.63.63 0 0 1 .484.245c.128.156.2.368.2.59v16.016a.934.934 0 0 1-.2.589.63.63 0 0 1-.484.245z"/><path fill="#000" fill-rule="evenodd" d="M647.443 214.1v-10.511c0-.73.238-1.43.661-1.946.423-.516.997-.807 1.596-.807.598 0 1.172.291 1.595.807.423.516.661 1.216.661 1.946V214.1h-4.513zM711.237 816.702c2.543 0 5.028-.92 7.142-2.643 2.114-1.724 3.761-4.173 4.734-7.038.973-2.866 1.228-6.019.732-9.061s-1.72-5.837-3.518-8.03c-1.798-2.193-4.088-3.687-6.582-4.292-2.493-.605-5.078-.294-7.427.893-2.349 1.187-4.356 3.197-5.769 5.776-1.412 2.579-2.166 5.611-2.166 8.712-.002 2.06.329 4.101.975 6.004.645 1.904 1.592 3.634 2.786 5.09 1.194 1.457 2.612 2.612 4.172 3.399a10.856 10.856 0 0 0 4.921 1.19zm96.409 0c2.542 0 5.028-.92 7.142-2.643 2.113-1.724 3.761-4.173 4.734-7.038.973-2.866 1.227-6.019.731-9.061-.496-3.042-1.72-5.837-3.517-8.03-1.798-2.193-4.089-3.687-6.582-4.292-2.494-.605-5.078-.294-7.427.893-2.349 1.187-4.357 3.197-5.769 5.776-1.413 2.579-2.166 5.611-2.166 8.712-.002 2.06.329 4.101.974 6.004.646 1.904 1.592 3.634 2.786 5.09 1.194 1.457 2.612 2.612 4.173 3.399a10.853 10.853 0 0 0 4.921 1.19z" clip-rule="evenodd"/><path fill="#31AA70" fill-rule="evenodd" d="M803.612 166.469h1.367c.363 0 .711.176.967.489s.401.737.401 1.18v10.594c0 .442-.145.866-.401 1.179-.256.313-.604.489-.967.489h-1.367c-.363 0-.711-.176-.967-.489a1.867 1.867 0 0 1-.401-1.179v-10.594c0-.443.144-.867.401-1.18.256-.313.604-.489.967-.489zM745.971 216.269h1.368c.362 0 .71.175.966.488.257.313.401.737.401 1.18v10.594c0 .442-.144.867-.401 1.18-.256.312-.604.488-.966.488h-1.368c-.363 0-.71-.176-.967-.488a1.875 1.875 0 0 1-.4-1.18v-10.594c0-.443.144-.867.4-1.18.257-.313.604-.488.967-.488zM818.449 105.074l-30.016-.166v20.854l5.47 8.341h18.461l6.769-7.09-.684-21.939zM754.929 162.465h-17.778v12.512l6.154 6.674h5.47l6.154-7.508v-11.678z" clip-rule="evenodd"/><path fill="#31AA70" d="M804.501 79.715c.789.015 1.544.393 2.114 1.058.571.665.914 1.568.963 2.53.017.427.169.83.424 1.125.254.295.592.46.943.46h9.573v41.624l-5.607 6.84h-17.504l-5.675-6.84V84.887h10.393c.351 0 .689-.164.943-.459a1.84 1.84 0 0 0 .424-1.126c.022-.957.347-1.867.909-2.537.562-.67 1.315-1.046 2.1-1.05zm-57.435 47.631c.779.01 1.526.375 2.096 1.023.569.648.919 1.533.981 2.481.027.423.181.82.434 1.113.252.292.585.461.933.472h3.282v41.541l-5.607 6.84h-4.923l-5.675-6.84v-41.625h4.103c.351.001.689-.164.943-.459a1.84 1.84 0 0 0 .424-1.126c.051-.93.39-1.801.949-2.437.559-.635 1.296-.987 2.06-.983zm57.435-49.299c-1.145-.004-2.246.532-3.074 1.496-.828.964-1.319 2.28-1.371 3.676h-11.76v43.96l6.427 7.842h18.667l6.427-7.842v-43.96h-10.94c-.037-1.386-.515-2.7-1.331-3.665-.817-.965-1.908-1.506-3.045-1.507zm-57.435 47.631c-1.127.021-2.208.554-3.03 1.495-.822.941-1.326 2.222-1.415 3.593h-5.47v43.961l6.428 7.841h6.085l6.427-7.841v-43.961h-4.649c-.05-1.373-.533-2.67-1.349-3.619-.815-.948-1.9-1.475-3.027-1.469z"/><path fill="#31AA70" d="M775.509 371.09c-7.831-.011-15.339-3.811-20.877-10.567-5.537-6.755-8.652-15.915-8.661-25.469V181.651c0-.221.072-.434.2-.59a.628.628 0 0 1 .483-.244c.182 0 .356.088.484.244s.2.369.2.59v153.403c0 9.115 2.968 17.857 8.251 24.302 5.283 6.445 12.448 10.066 19.92 10.066 7.471 0 14.636-3.621 19.919-10.066 5.283-6.445 8.251-15.187 8.251-24.302V132.769c0-.222.072-.434.2-.59a.629.629 0 0 1 .484-.244c.181 0 .355.087.483.244a.93.93 0 0 1 .201.59v202.285c-.009 9.554-3.124 18.714-8.662 25.469-5.537 6.756-13.045 10.556-20.876 10.567zm-28.855-244.411a.628.628 0 0 1-.483-.244.937.937 0 0 1-.2-.59v-59.81c0-.22.072-.433.2-.59a.627.627 0 0 1 .483-.244c.182 0 .356.088.484.245.128.156.2.368.2.59v59.809a.937.937 0 0 1-.2.59.629.629 0 0 1-.484.244zm57.641-47.464a.628.628 0 0 1-.484-.244.936.936 0 0 1-.2-.59V66.12c0-.221.072-.434.2-.59a.628.628 0 0 1 .484-.244c.181 0 .355.088.483.244s.2.369.2.59V78.38a.936.936 0 0 1-.2.59.627.627 0 0 1-.483.244z"/><path fill="#31AA70" d="M804.296 71.457c-2.733-.004-5.362-1.286-7.343-3.583-1.982-2.296-3.166-5.432-3.31-8.763h-36.198c-.141 3.391-1.362 6.58-3.403 8.888-2.042 2.307-4.741 3.55-7.523 3.463-2.782-.088-5.426-1.498-7.367-3.93-1.942-2.431-3.028-5.693-3.026-9.088v-.167c0-.221.072-.433.2-.59a.63.63 0 0 1 .484-.244c.181 0 .355.088.483.244.128.157.2.369.2.59v.167c0 3.009.98 5.894 2.724 8.022 1.744 2.128 4.109 3.323 6.576 3.323 2.466 0 4.831-1.195 6.575-3.323 1.744-2.127 2.724-5.013 2.724-8.022v-.167c0-.221.072-.433.2-.59a.627.627 0 0 1 .483-.244h37.538a.63.63 0 0 1 .484.244c.128.157.2.369.2.59v.167c0 3.009.98 5.894 2.723 8.022 1.744 2.128 4.11 3.323 6.576 3.323 2.466 0 4.831-1.195 6.575-3.323 1.744-2.127 2.724-5.013 2.724-8.022v-.167c0-.221.072-.433.2-.59a.628.628 0 0 1 .484-.244c.181 0 .355.088.483.244.128.157.2.369.2.59v.167c-.003 3.45-1.128 6.757-3.128 9.197-1.999 2.44-4.71 3.812-7.538 3.816z"/><path fill="#31AA70" fill-rule="evenodd" d="M770.449 68.371v680.347h10.393V68.121c1.339-1.092 2.438-2.568 3.201-4.299a14.164 14.164 0 0 0 1.175-5.628c0-3.141-1.023-6.154-2.844-8.375-1.82-2.222-4.29-3.47-6.865-3.47s-5.045 1.248-6.866 3.47c-1.82 2.221-2.843 5.234-2.843 8.375-.023 2.045.394 4.06 1.21 5.847.816 1.786 2.002 3.279 3.439 4.33z" clip-rule="evenodd"/><path fill="#31AA70" fill-rule="evenodd" d="M711.236 810.779c2.121-.002 4.155-1.031 5.655-2.861 1.5-1.83 2.343-4.311 2.345-6.899a9.984 9.984 0 0 0-.479-3.253l6.223-7.591c.857.37 1.757.567 2.666.584 2.086-.003 4.088-.999 5.582-2.774 1.494-1.776 2.361-4.192 2.418-6.735v-17.184h80.409v17.184c.016 1.268.249 2.518.684 3.67l-5.88 7.174a6.958 6.958 0 0 0-3.214-.834c-1.582 0-3.129.572-4.445 1.644-1.315 1.073-2.34 2.597-2.946 4.38a11.77 11.77 0 0 0-.455 5.639c.309 1.894 1.07 3.633 2.189 4.997 1.119 1.365 2.544 2.295 4.096 2.672 1.552.376 3.161.183 4.622-.556 1.462-.739 2.712-1.989 3.591-3.594.879-1.605 1.348-3.492 1.348-5.423a9.984 9.984 0 0 0-.479-3.253l6.222-7.591c.857.37 1.758.567 2.667.584 2.086-.003 4.088-.999 5.582-2.774 1.493-1.776 2.361-4.192 2.418-6.735v-47.882h-16v11.178h-80.409v-11.261h-16v47.881c.016 1.268.249 2.519.684 3.671l-5.88 7.173a6.976 6.976 0 0 0-3.214-.834c-2.131 0-4.174 1.033-5.681 2.871-1.506 1.838-2.353 4.331-2.353 6.931 0 2.599.847 5.092 2.353 6.93 1.507 1.838 3.55 2.871 5.681 2.871z" clip-rule="evenodd"/><path fill="#FFB9B2" fill-rule="evenodd" d="M794.381 273.743c-.752 18.685-.889 22.188-3.966 25.692-2.598 3.086-4.649 4.338-6.632 4.922v.917h-9.573c-8.615 0-8.752-9.426-8.752-9.426h5.744c-6.496-1.418-6.632-9.176-6.632-9.176h6.632c-6.496-1.418-6.632-9.176-6.632-9.176h6.222v-.417c-6.086-1.668-6.222-9.092-6.222-9.092h.068l-.137-.084s-.547-.75.137-4.087c.957-4.671 5.675-5.589 5.675-5.589v6.089c.41.668 2.598 1.085 5.197 1.085 2.324 0 4.444-.417 5.059-.918 0-4.504.069-13.096.069-17.017 10.871.167 14.153 16.6 13.743 26.277z" clip-rule="evenodd"/><path fill="#000" d="M783.647 305.858h-9.573c-9.182 0-9.435-10.143-9.435-10.243 0-.221.072-.433.2-.59a.628.628 0 0 1 .483-.244c.182 0 .356.088.484.244.128.157.2.369.2.59 0 .35.246 8.609 8.068 8.609h9.573c.181 0 .355.087.483.244a.93.93 0 0 1 .201.59.934.934 0 0 1-.201.59.628.628 0 0 1-.483.244v-.034z"/><path fill="#000" d="M788.432 296.683H773.39c-9.183 0-9.436-10.144-9.436-10.244 0-.221.072-.433.2-.59a.632.632 0 0 1 .484-.244c.181 0 .355.088.483.244a.934.934 0 0 1 .201.59c0 .351.246 8.609 8.068 8.609h15.042c.182 0 .356.088.484.244.128.157.2.369.2.59a.939.939 0 0 1-.2.59.629.629 0 0 1-.484.244v-.033z"/><path fill="#000" d="M788.432 287.506H773.39c-9.183 0-9.436-10.143-9.436-10.243 0-.221.072-.433.2-.59a.632.632 0 0 1 .484-.244c.181 0 .355.088.483.244a.934.934 0 0 1 .201.59c0 .35.246 8.609 8.068 8.609h15.042c.182 0 .356.087.484.244.128.156.2.368.2.59a.939.939 0 0 1-.2.59.629.629 0 0 1-.484.244v-.034zM788.432 277.497H773.39c-9.183 0-9.436-10.144-9.436-10.244 0-.221.072-.433.2-.59a.632.632 0 0 1 .484-.244c.181 0 .355.088.483.244a.934.934 0 0 1 .201.59c0 .35.246 8.609 8.068 8.609h15.042c.182 0 .356.088.484.244s.2.369.2.59a.939.939 0 0 1-.2.59.629.629 0 0 1-.484.244v-.033z"/><path fill="#000" fill-rule="evenodd" d="M713.561 106.325c-6.632 3.837-17.162 10.094-58.871 3.003-21.948-3.753-29.538-19.603-29.538-19.603l17.778-27.527c.748-6.929 3.165-13.431 6.944-18.683 3.779-5.253 8.75-9.02 14.284-10.824 5.535-1.804 11.383-1.564 16.806.689 5.423 2.253 10.176 6.418 13.657 11.968a6.43 6.43 0 0 1 2.393-.5c5.744 0 11.282 3.586 13.402 10.343.458 2.01.688 4.087.684 6.173 0 0-2.393.167-5.881.25 3.488 6.673 8.479 17.184 9.846 25.192 1.983 11.428-1.504 19.519-1.504 19.519z" clip-rule="evenodd"/><path fill="#FFB9B2" fill-rule="evenodd" d="M653.801 71.707h.206c.82.5 1.641 1.001 2.529 1.669 8.274-1.669 8.342-5.923 9.436-12.096 6.564.584 14.496.918 22.974.918 4.923 0 8.821-.084 13.197-.334 1.23 10.844 6.222 54.721-15.453 56.223 0 0 .068 11.928.205 24.691 3.624 1.418 5.88 3.337 5.88 5.506a3.563 3.563 0 0 1-.478 1.668l-10.325 25.025-27.487-23.523c-.702-.624-1.227-1.499-1.504-2.503l1.914-62.813.342-1.835a3.307 3.307 0 0 1-1.299.167c-1.396 0-2.735-.677-3.723-1.881-.987-1.205-1.542-2.839-1.542-4.542a7.34 7.34 0 0 1 .338-2.443 6.377 6.377 0 0 1 1.103-2.079 5.082 5.082 0 0 1 1.69-1.374 4.223 4.223 0 0 1 1.997-.444z" clip-rule="evenodd"/><path fill="#000" fill-rule="evenodd" d="M686.759 118.087c0 1.001-.068 8.508 0 14.681-21.811-4.755-21.128-26.443-21.128-26.443s6.769 11.762 21.128 11.762z" clip-rule="evenodd"/><path fill="#000" d="M686.964 99.151h-.075c-5.812-.775-8.732-4.863-8.889-5.005a.96.96 0 0 1-.162-.607.906.906 0 0 1 .237-.569.609.609 0 0 1 .498-.198.65.65 0 0 1 .466.29c2.151 2.572 4.966 4.152 7.966 4.471.09.006.178.034.259.081a.718.718 0 0 1 .214.196c.06.082.106.177.135.28a1 1 0 0 1-.028.639.845.845 0 0 1-.161.26.672.672 0 0 1-.23.166.57.57 0 0 1-.264.046l.034-.05zM690.635 93.154a14.941 14.941 0 0 1-5.265-1.143.652.652 0 0 1-.252-.152.832.832 0 0 1-.181-.263 1.011 1.011 0 0 1-.042-.67.873.873 0 0 1 .146-.293.705.705 0 0 1 .23-.197.58.58 0 0 1 .551.007c1.572.667 6.058 1.977 7.945 0 .187-.16.334-.379.425-.633.092-.255.125-.535.095-.81-.253-2.22-4.219-5.272-6.66-6.674a.79.79 0 0 1-.338-.435 1.011 1.011 0 0 1-.011-.6l2.803-9.508a.79.79 0 0 1 .355-.455.571.571 0 0 1 .514-.024.753.753 0 0 1 .383.42c.077.195.09.42.034.626l-2.598 8.809c1.73 1.067 6.488 4.304 6.837 7.615.061.551.002 1.112-.169 1.627-.172.515-.45.966-.809 1.31-1.15 1.038-2.564 1.549-3.993 1.443zM701.664 69.706a.597.597 0 0 1-.171 0 22.703 22.703 0 0 0-7.972-.643.567.567 0 0 1-.267-.034.667.667 0 0 1-.236-.156.837.837 0 0 1-.168-.255 1.003 1.003 0 0 1 .081-.927.733.733 0 0 1 .209-.205.596.596 0 0 1 .258-.091 23.861 23.861 0 0 1 8.437.692.676.676 0 0 1 .459.318c.112.176.162.4.139.62a.894.894 0 0 1-.26.56.604.604 0 0 1-.509.17v-.05z"/><path fill="#000" d="M703.647 86.638h-4.923c-1.49.005-2.926-.682-4.017-1.922-1.09-1.239-1.754-2.937-1.856-4.751l-.041-.142a1.084 1.084 0 0 1 0-.267v-3.92c0-1.018.331-1.994.921-2.714.59-.72 1.39-1.123 2.224-1.123h12.923c.181 0 .355.087.483.244a.931.931 0 0 1 .201.59v7.174c-.073 1.85-.729 3.594-1.831 4.867-1.103 1.273-2.566 1.977-4.084 1.964zm-9.504-7.224v.117c.018.073.029.15.034.225.06 1.41.562 2.738 1.402 3.708.84.97 1.954 1.51 3.111 1.506h4.923c1.157.004 2.271-.535 3.111-1.506.84-.97 1.342-2.298 1.402-3.708v-6.298h-12.24a1.483 1.483 0 0 0-.683.159 1.78 1.78 0 0 0-.58.47 2.253 2.253 0 0 0-.385.706 2.565 2.565 0 0 0-.129.834l.034 3.787zM682.93 86.64h-6.769c-1.509.004-2.96-.7-4.055-1.965-1.095-1.266-1.748-2.997-1.826-4.834v-7.216c0-.221.072-.433.201-.59a.627.627 0 0 1 .483-.244h14.769c.834 0 1.634.404 2.224 1.124.59.72.921 1.695.921 2.713v3.92c.01.09.01.18 0 .268l-.041.141c-.101 1.823-.769 3.53-1.867 4.772-1.098 1.242-2.543 1.925-4.04 1.91zm-11.282-13.18v6.339c.066 1.403.571 2.721 1.411 3.684.839.962 1.95 1.494 3.102 1.488h6.769c1.157.004 2.271-.535 3.111-1.506.84-.97 1.342-2.298 1.401-3.708a1.412 1.412 0 0 1 0-.225v-3.904a2.565 2.565 0 0 0-.129-.834 2.251 2.251 0 0 0-.385-.707 1.78 1.78 0 0 0-.58-.47 1.48 1.48 0 0 0-.683-.158h-14.017zM674.724 70.29a.603.603 0 0 1-.43-.164.858.858 0 0 1-.253-.454.978.978 0 0 1 .067-.636.817.817 0 0 1 .177-.246.646.646 0 0 1 .241-.144c.233-.075 5.778-1.868 10.304-1.268.18.025.343.136.456.308a.967.967 0 0 1 .146.61.896.896 0 0 1-.252.556.602.602 0 0 1-.5.178c-4.267-.56-9.744 1.21-9.798 1.234a.669.669 0 0 1-.158.025z"/><path fill="#000" d="M695.784 78.882a.607.607 0 0 1-.4-.158.842.842 0 0 1-.248-.413 1 1 0 0 1-.004-.512.844.844 0 0 1 .242-.419l3.487-3.17a.642.642 0 0 1 .241-.14.562.562 0 0 1 .266-.018.608.608 0 0 1 .252.108c.077.056.145.13.198.217a.915.915 0 0 1 .116.294 1.012 1.012 0 0 1-.074.631.802.802 0 0 1-.178.243l-3.487 3.17a.61.61 0 0 1-.411.166zM677.665 78.38a.586.586 0 0 1-.327-.102.749.749 0 0 1-.247-.28.99.99 0 0 1-.093-.628.853.853 0 0 1 .298-.524l3.418-2.67a.579.579 0 0 1 .502-.085c.17.05.318.18.412.36.095.179.13.396.097.606a.872.872 0 0 1-.272.521l-3.419 2.67a.597.597 0 0 1-.369.133z"/><path fill="#000" fill-rule="evenodd" d="M678.144 76.713c.378 0 .748.137 1.063.393.315.257.56.622.705 1.048.145.427.183.897.109 1.35a2.52 2.52 0 0 1-.524 1.196c-.267.326-.608.549-.98.639-.371.09-.756.044-1.106-.133a2.05 2.05 0 0 1-.859-.86 2.708 2.708 0 0 1-.323-1.298 2.74 2.74 0 0 1 .133-.903c.093-.287.234-.548.413-.766.179-.219.393-.39.628-.505.236-.115.487-.17.741-.161zM696.947 76.713c.378 0 .748.137 1.063.393.315.257.561.622.705 1.049.145.426.183.896.109 1.349a2.52 2.52 0 0 1-.524 1.196c-.267.326-.608.549-.98.64-.371.09-.756.043-1.106-.134a2.05 2.05 0 0 1-.859-.86 2.719 2.719 0 0 1-.323-1.298c0-.62.202-1.213.561-1.651.359-.438.846-.684 1.354-.684zM680.4 48.1s-20.307 12.763-16 35.703c4.787 25.191-9.299 25.358-9.299 25.442 0 .083-15.931-1.752 6.359-50.384 3.898-10.427 18.94-10.76 18.94-10.76z" clip-rule="evenodd"/><path fill="#FFB9B2" fill-rule="evenodd" d="M249.979 796.932l37.88-5.923h16.889c9.914 9.51 25.367 21.855 28.786 10.177 3.008-10.26.957-18.936-3.214-44.294.547-13.347 1.026-22.523 1.026-22.523l-31.59-.417-1.846 25.526-47.931 37.454z" clip-rule="evenodd"/><path fill="#000" fill-rule="evenodd" d="M298.731 747.049l31.862 1.585c-.136 2.502-.205 5.255-.342 8.258.274 1.418.479 2.836.684 4.171l-32.751-6.84.547-7.174z" clip-rule="evenodd"/><path fill="#31AA70" fill-rule="evenodd" d="M325.601 815.784c.411-.083.821-.25 1.163-.333 15.658 0 12.376-27.194 12.376-27.194s-2.872 2.002-20.103-2.836c-2.119-.584-4.102-1.252-6.017-1.919l19.624-12.346-2.051-12.429-30.017 18.936c-9.162-5.339-13.88-10.594-13.88-10.594s-39.316 24.191-58.802 36.703c2.051 18.352 29.743 12.012 47.999 12.012h49.708z" clip-rule="evenodd"/><path fill="#000" fill-rule="evenodd" d="M303.858 780.082c.704 0 1.391.254 1.976.731.584.476 1.04 1.154 1.309 1.947a5.22 5.22 0 0 1 .202 2.506c-.137.841-.475 1.614-.973 2.221-.497.606-1.13 1.019-1.82 1.187a2.967 2.967 0 0 1-2.054-.247c-.65-.328-1.205-.884-1.596-1.598a5.036 5.036 0 0 1-.599-2.409 5.15 5.15 0 0 1 .263-1.666 4.467 4.467 0 0 1 .77-1.412 3.571 3.571 0 0 1 1.157-.939 2.979 2.979 0 0 1 1.365-.321z" clip-rule="evenodd"/><path fill="#FFB9B2" fill-rule="evenodd" d="M378.046 734.87s0 6.423.478 23.94c-4.581 26.193-8.752 33.534-7.248 43.794 2.53 17.518 63.316-10.177 63.316-10.177l-21.675-29.529-3.898-28.946-30.973.918z" clip-rule="evenodd"/><path fill="#31AA70" fill-rule="evenodd" d="M383.652 794.012c-8.888 1.252-14.769-.417-14.769-.417-1.641 10.261 3.488 22.69 12.718 23.44.684.084 1.368.084 1.983.167 0 0 33.435-.083 45.811-.083 14.701 0 16.615-25.109 16.615-25.109s-9.846-4.087-17.367-10.176c-5.675-4.505-10.051-11.595-10.051-11.595-13.812-2.336-25.572 8.508-25.572 8.508l-15.248-15.849-3.487 11.929 14.564 15.598-.274.835c-1.369 1.514-3.088 2.476-4.923 2.752z" clip-rule="evenodd"/><path fill="#000" fill-rule="evenodd" d="M378.25 748.05l32.615-.167 1.709 12.512.205 1.502-34.324-6.757c0-.083-.137-5.172-.205-7.09zM396.575 781.5c.948.004 1.858.46 2.535 1.27s1.068 1.911 1.089 3.067c-.017 1.166-.405 2.278-1.081 3.103-.676.825-1.587 1.297-2.543 1.319a3.056 3.056 0 0 1-1.371-.35 3.644 3.644 0 0 1-1.157-.963 4.558 4.558 0 0 1-.767-1.429 5.233 5.233 0 0 1-.26-1.68 5.15 5.15 0 0 1 .263-1.665 4.467 4.467 0 0 1 .77-1.412 3.571 3.571 0 0 1 1.157-.939 2.966 2.966 0 0 1 1.365-.321z" clip-rule="evenodd"/><path fill="#31AA70" fill-rule="evenodd" d="M412.165 751.22H374.08l-15.863-374.958h-13.333L331.961 751.22h-38.085V316.285l116.169.501 2.12 434.434z" clip-rule="evenodd"/><path fill="#000100" fill-rule="evenodd" d="M329.704 375.594l14.427 23.941.821-23.274-15.248-.667z" clip-rule="evenodd"/><path fill="#5347E9" d="M317.396 752.221a.627.627 0 0 1-.484-.245.935.935 0 0 1-.2-.59l9.504-375.124c0-.222.072-.434.2-.59a.628.628 0 0 1 .484-.245c.181 0 .355.088.483.245a.93.93 0 0 1 .201.59l-9.505 375.124a.935.935 0 0 1-.2.59.626.626 0 0 1-.483.245z"/><path fill="#31AA70" fill-rule="evenodd" d="M436.301 167.636a5.025 5.025 0 0 0-1.026-1.751c-9.777-26.36-25.367-28.612-36.307-28.612-17.299 0-73.708-.084-73.708-.084l-14.838.084c-13.193.053-25.832 6.482-35.149 17.879-9.317 11.398-14.552 26.835-14.559 42.932l31.657 7.34.069 165.582c-.479.167-.752.417-.752.668 0 2.335 29.401 4.17 65.708 4.17s65.503-1.835 65.503-4.17c0-.167-.068-.167-.068-.417l.068-178.345c.069.083 39.658 61.228 13.402-25.276z" clip-rule="evenodd"/><path fill="#5347E9" d="M306.867 243.629h-7.179c-2.72 0-5.329-1.318-7.252-3.665-1.924-2.346-3.004-5.529-3.004-8.847v-25.86a.962.962 0 0 1 .064-.354.843.843 0 0 1 .182-.288.658.658 0 0 1 .264-.164.562.562 0 0 1 .296-.011c.746.158 1.983.325 3.693.484 3.131.267 7.029.417 10.94.417 4.047 0 10.256-.159 13.285-.417a.607.607 0 0 1 .497.203.909.909 0 0 1 .235.572.964.964 0 0 1-.167.607.647.647 0 0 1-.469.286c-3.036.259-9.313.417-13.381.417-3.959 0-7.884-.15-11.057-.417-1.264-.125-2.27-.242-3.029-.367v24.892c0 2.876.937 5.634 2.604 7.668 1.667 2.033 3.928 3.176 6.285 3.176h7.18c.181 0 .355.088.483.244s.2.369.2.59a.939.939 0 0 1-.2.59.628.628 0 0 1-.483.244h.013zM357.464 377.513c-17.483 0-33.996-.442-46.495-1.243-19.89-1.276-19.89-2.711-19.89-3.762a.95.95 0 0 1 .152-.53.677.677 0 0 1 .392-.293.574.574 0 0 1 .456.077.79.79 0 0 1 .313.412c2.311 1.786 28.717 3.671 65.079 3.671 37.607 0 62.857-1.885 65.073-3.654a.811.811 0 0 1 .308-.426.578.578 0 0 1 .46-.086.676.676 0 0 1 .399.293.96.96 0 0 1 .152.536c0 1.068 0 2.503-19.883 3.796-12.376.775-28.888 1.209-46.516 1.209zM340.44 194.83h-.123a.625.625 0 0 1-.267-.134.8.8 0 0 1-.198-.258c-.773-1.585-19.036-38.888-19.036-45.47 0-7.724 16.356-13.347 32.171-14.348 14.174-.884 26.502 1.777 30.687 6.624a5.331 5.331 0 0 1 1.109 1.736c.268.666.418 1.393.443 2.134 0 6.673-39.822 45.162-44.362 49.533a.61.61 0 0 1-.424.183zm17.778-58.725c-1.696 0-3.424.056-5.183.167-18.462 1.151-30.872 7.507-30.872 12.679 0 4.955 12.944 32.533 18.462 43.802 16.984-16.383 43.233-43.31 43.233-47.639a4.38 4.38 0 0 0-.334-1.483 3.695 3.695 0 0 0-.794-1.195c-3.364-3.903-13.06-6.331-24.492-6.331h-.02z"/><path fill="#FFB9B2" fill-rule="evenodd" d="M352.199 137.607c13.47-.834 24.341 2.502 24.341 7.507s-34.119 37.788-34.119 37.788-14.632-29.863-14.632-34.785c0-4.921 10.94-9.676 24.41-10.51z" clip-rule="evenodd"/><path fill="#FEFEFE" fill-rule="evenodd" d="M375.174 148.034c-6.359 9.509-32.683 34.868-32.683 34.868s-12.992-26.526-14.496-33.7c1.846 4.754 11.966 7.841 24.137 7.09 10.666-.667 19.692-4.087 23.042-8.258zm1.367-3.17v.25c-.044.389-.161.76-.341 1.085a2.9 2.9 0 0 0 .341-1.335z" clip-rule="evenodd"/><path fill="#FFB9B2" fill-rule="evenodd" d="M331.824 74.543h39.726v70.321s-16 2.252-27.76 2.252a39.812 39.812 0 0 1-11.966-2.252v-70.32z" clip-rule="evenodd"/><path fill="#000" fill-rule="evenodd" d="M331.824 108.494c2.013 1.036 4.174 1.575 6.359 1.585h5.47l-11.829 13.847v-15.432z" clip-rule="evenodd"/><path fill="#FFB9B2" fill-rule="evenodd" d="M373.122 63.782c1.163 0 2.3.421 3.267 1.21.967.788 1.721 1.908 2.166 3.219a8.65 8.65 0 0 1 .335 4.145c-.227 1.392-.787 2.67-1.61 3.673-.822 1.003-1.87 1.687-3.01 1.963a4.905 4.905 0 0 1-3.398-.408c-1.074-.543-1.993-1.462-2.639-2.642-.646-1.18-.991-2.567-.991-3.986 0-1.902.62-3.727 1.722-5.072 1.103-1.346 2.599-2.102 4.158-2.102z" clip-rule="evenodd"/><path fill="#FFB9B2" fill-rule="evenodd" d="M337.636 25.578h19.487c1.897-.01 3.777.437 5.532 1.318 1.754.88 3.348 2.176 4.69 3.813 1.341 1.637 2.404 3.581 3.126 5.722a20.945 20.945 0 0 1 1.079 6.748v49.05a20.946 20.946 0 0 1-1.079 6.748c-.722 2.14-1.785 4.085-3.126 5.722-1.342 1.636-2.936 2.932-4.69 3.813-1.755.88-3.635 1.328-5.532 1.317h-19.487c-1.897.011-3.777-.437-5.531-1.317-1.755-.881-3.349-2.177-4.69-3.813-1.342-1.637-2.404-3.582-3.126-5.722a20.92 20.92 0 0 1-1.08-6.749v-61.06c0-9.677 6.427-5.59 14.427-5.59z" clip-rule="evenodd"/><path fill="#000" d="M369.84 74.627a.602.602 0 0 1-.396-.152.834.834 0 0 1-.251-.404 1.011 1.011 0 0 1-.014-.506.871.871 0 0 1 .23-.423l5.47-5.422a.604.604 0 0 1 .503-.18.663.663 0 0 1 .461.305.966.966 0 0 1 .149.614.906.906 0 0 1-.251.563l-5.47 5.422a.611.611 0 0 1-.431.183zM337.705 86.389a.615.615 0 0 1-.493-.215.917.917 0 0 1-.225-.578.952.952 0 0 1 .176-.602.644.644 0 0 1 .474-.274c.034 0 3.678-.5 4.724-2.977a.744.744 0 0 1 .401-.413.574.574 0 0 1 .522.054.812.812 0 0 1 .339.489c.055.21.039.44-.044.637-1.368 3.278-5.628 3.845-5.806 3.862l-.068.017zM336.474 77.797a.554.554 0 0 1-.363-.133.79.79 0 0 1-.234-.3.984.984 0 0 1-.087-.401V53.857c0-.222.072-.434.2-.59a.63.63 0 0 1 .484-.245c.181 0 .355.088.483.245a.937.937 0 0 1 .201.59v21.788l6.543-3.77a.57.57 0 0 1 .501 0 .761.761 0 0 1 .366.416c.074.19.087.408.035.61a.82.82 0 0 1-.314.475l-7.521 4.338a.549.549 0 0 1-.294.083zM355.139 53.69a.58.58 0 0 1-.295-.08.724.724 0 0 1-.238-.229s-2.14-3.145-5.272-2.703a.604.604 0 0 1-.505-.18.904.904 0 0 1-.254-.562.974.974 0 0 1 .147-.617.67.67 0 0 1 .462-.31c3.884-.541 6.379 3.146 6.489 3.338a.988.988 0 0 1 .073.873.8.8 0 0 1-.248.34.602.602 0 0 1-.359.13zM326.149 53.69a.614.614 0 0 1-.431-.192.896.896 0 0 1-.248-.559.972.972 0 0 1 .145-.61c.11-.158 2.606-3.853 6.496-3.336a.667.667 0 0 1 .46.312.971.971 0 0 1 .145.618.9.9 0 0 1-.256.562.603.603 0 0 1-.506.176c-3.125-.442-5.251 2.67-5.272 2.703a.738.738 0 0 1-.236.237.584.584 0 0 1-.297.088z"/><path fill="#000" fill-rule="evenodd" d="M353.978 84.386c-.96.97-2.118 1.604-3.35 1.836.082.719.128 1.443.137 2.169v5.755c0 3.319-1.081 6.501-3.004 8.848-1.924 2.346-4.532 3.665-7.253 3.665h-2.119c-2.72 0-5.329-1.319-7.252-3.665-1.924-2.347-3.004-5.53-3.004-8.848v-5.755c.008-.726.054-1.45.136-2.17-1.224-.178-2.371-.82-3.282-1.835l6.496-5.422c.018 0 .035.01.048.025.013.015.02.037.02.059 1.865-2.027 4.272-3.154 6.769-3.17h2.12c2.719.007 5.324 1.327 7.248 3.67l6.29 4.838zm-12.444-3.753h-3.966c-1.169.125-2.259.769-3.064 1.81-.805 1.042-1.269 2.408-1.303 3.839-.033 1.43.365 2.827 1.12 3.923.754 1.096 1.813 1.816 2.974 2.023v-.834c0-.73.238-1.43.661-1.947.423-.516.997-.806 1.595-.806.599 0 1.173.29 1.596.806.423.516.661 1.216.661 1.947v.834c1.197-.105 2.319-.755 3.142-1.82.823-1.067 1.288-2.472 1.302-3.936a6.518 6.518 0 0 0-.342-2.085 1.01 1.01 0 0 1-.205-.584c-.389-.945-.985-1.74-1.721-2.3-.735-.56-1.583-.86-2.45-.87zM363.208 45.515l8.615.166v30.364s-8.82-1.668-8.82-16.1c0-10.343.205-14.43.205-14.43zM331.072 61.28c.297 0 .588.108.835.31.248.201.441.488.554.823.114.335.144.704.086 1.06a1.982 1.982 0 0 1-.412.94c-.21.257-.478.431-.77.502-.292.07-.594.035-.869-.104a1.611 1.611 0 0 1-.675-.676 2.137 2.137 0 0 1-.254-1.02c.004-.485.164-.95.445-1.293.281-.343.662-.538 1.06-.542zM350.285 61.28c.298 0 .589.108.836.31a1.8 1.8 0 0 1 .554.823c.114.335.144.704.086 1.06a1.992 1.992 0 0 1-.412.94c-.21.257-.478.431-.77.502-.292.07-.594.035-.869-.104a1.611 1.611 0 0 1-.675-.676 2.125 2.125 0 0 1-.254-1.02c.004-.485.163-.95.445-1.293.281-.343.662-.538 1.059-.542z" clip-rule="evenodd"/><path fill="#000" fill-rule="evenodd" d="M380.644 30.25a8.155 8.155 0 0 0-.547-2.003c-.894-2.642-2.411-4.901-4.358-6.49-1.948-1.59-4.239-2.437-6.582-2.435-.23-.014-.46.014-.684.083a15.99 15.99 0 0 0 .274-3.17c.002-3.835-1.242-7.516-3.459-10.236-2.216-2.72-5.226-4.258-8.37-4.278-1.931-.014-3.835.56-5.538 1.668 0 0-6.154 2.586-15.316 10.094-.547.5-1.163.917-1.71 1.417h-8.889c-2.973.003-5.824 1.445-7.927 4.01-2.102 2.565-3.284 6.043-3.286 9.67.012 2.63.628 5.202 1.778 7.425 2.051 4.671 5.538 9.843 7.316 12.846V28.748c-.137-.167 0-.5 0-.5v.5c0 9.843 7.042 17.767 15.794 17.767 3.429.038 6.779-1.246 9.573-3.67 0 0 1.778-1.752 1.983-2.085 1.319-1.564 2.373-3.43 3.1-5.491a20.338 20.338 0 0 0 1.139-6.521v-1.835a4.634 4.634 0 0 1 1.504-.167c1.485 0 2.933.561 4.146 1.607 1.212 1.046 2.129 2.524 2.623 4.232v12.93c0 11.678 8.616 18.518 8.616 18.518 3.555-8.342 8.068-16.517 8.888-27.11a16.08 16.08 0 0 0 .342-3.254 15.164 15.164 0 0 0-.41-3.42z" clip-rule="evenodd"/><path fill="#31AA70" fill-rule="evenodd" d="M311.721 186.906l-63.042 100.017h-.068c-3.389 5.916-8.542 9.979-14.356 11.319-5.814 1.339-11.827-.151-16.751-4.153-4.924-4.001-8.369-10.196-9.596-17.257-1.228-7.061-.141-14.428 3.028-20.523l.069-.084a28.874 28.874 0 0 1 2.325-3.67l58.255-92.175 40.136 26.526z" clip-rule="evenodd"/><path fill="#000100" fill-rule="evenodd" d="M288.679 227.363l64.683 45.546-50.392 106.439-64.683-45.545 50.392-106.44z" clip-rule="evenodd"/><path fill="#31AA70" fill-rule="evenodd" d="M283.688 312.114c-6.154 13.18-13.196 22.44-15.795 20.688-.376-.318-.644-.793-.752-1.335l.752 1.335-50.255-38.706v-.083c-5.013-3.924-8.555-10.101-9.858-17.191-1.303-7.09-.263-14.521 2.896-20.681 3.159-6.159 8.182-10.551 13.978-12.222 5.796-1.671 11.899-.486 16.983 3.297l49.025 38.372c1.641 3.003-1.23 14.264-6.974 26.526z" clip-rule="evenodd"/><path fill="#000100" fill-rule="evenodd" d="M290.184 285.004c2.598 1.752-.342 13.931-6.495 27.11-6.154 13.18-13.197 22.439-15.795 20.688-2.598-1.752.342-13.931 6.496-27.111 6.153-13.18 13.264-22.522 15.794-20.687z" clip-rule="evenodd"/><path fill="#FFB9B2" fill-rule="evenodd" d="M338.389 315.117l-3.829-2.669-2.53 5.422s-8.069-5.005-10.735-6.923c10.735 1.334 11.897-8.008 11.897-8.008s-7.453 0-23.521-8.509c-7.316-3.837-11.487-3.42-14.495-.334-.958-.333-5.06-3.753-6.359-4.921a1.205 1.205 0 0 0-.342-.501c-1.641-1.084-6.086 4.672-9.915 13.013-3.829 8.342-5.675 15.85-4.102 17.017 13.675 14.598 38.222 34.368 45.196 35.286 3.077.417 6.29-2.002 6.701-5.923a26.89 26.89 0 0 0 2.393-2.085c1.504-1.419 2.598-2.92 2.871-5.423 3.351-1.167 5.47-5.588 5.334-8.425 1.738-.968 3.142-2.651 3.965-4.754 3.624-8.175-2.529-12.263-2.529-12.263z" clip-rule="evenodd"/><path fill="#000" d="M324.987 348.367c-4.787 0-9.969-4.071-10.222-4.271a.854.854 0 0 1-.296-.529.985.985 0 0 1 .097-.63.7.7 0 0 1 .434-.361.585.585 0 0 1 .517.119c.061.05 6.612 5.197 11.261 3.754a4.918 4.918 0 0 0 2.01-1.21 6.305 6.305 0 0 0 1.409-2.127.85.85 0 0 1 .163-.275.669.669 0 0 1 .24-.173.569.569 0 0 1 .543.054.748.748 0 0 1 .213.217.9.9 0 0 1 .125.304c.024.11.03.226.016.339a.95.95 0 0 1-.097.318 7.911 7.911 0 0 1-1.77 2.657c-.74.72-1.598 1.236-2.517 1.514-.696.209-1.41.31-2.126.3zM330.046 341.193c-4.786 0-9.969-4.07-10.222-4.271a.859.859 0 0 1-.296-.529.992.992 0 0 1 .098-.63.7.7 0 0 1 .434-.361.583.583 0 0 1 .516.119c.062.05 6.605 5.197 11.262 3.754a4.924 4.924 0 0 0 2.01-1.21 6.288 6.288 0 0 0 1.408-2.127.71.71 0 0 1 .404-.363.571.571 0 0 1 .498.07.808.808 0 0 1 .325.466c.056.2.048.418-.023.611-.427 1.031-1.03 1.937-1.77 2.657s-1.599 1.236-2.517 1.514c-.696.209-1.41.31-2.127.3zM335.037 333.269c-4.786 0-9.969-4.071-10.256-4.271a.861.861 0 0 1-.296-.53.993.993 0 0 1 .098-.63.7.7 0 0 1 .434-.361.589.589 0 0 1 .516.119c.062.05 6.612 5.205 11.262 3.754a4.907 4.907 0 0 0 2.01-1.21 6.278 6.278 0 0 0 1.408-2.127.71.71 0 0 1 .404-.363.575.575 0 0 1 .498.07c.153.1.269.266.325.466.056.2.048.419-.023.611a7.916 7.916 0 0 1-1.77 2.658c-.74.719-1.599 1.236-2.517 1.513a7.047 7.047 0 0 1-2.093.301zM335.721 321.541a.582.582 0 0 1-.321-.101l-17.867-11.661a.831.831 0 0 1-.309-.48 1.01 1.01 0 0 1 .041-.608.76.76 0 0 1 .37-.411.57.57 0 0 1 .5.006c.041 0 4.102 2.235 7.029 1.852 1.543-.201 3.017-.89 4.274-2.001 1.257-1.111 2.254-2.604 2.892-4.331a.779.779 0 0 1 .37-.455.572.572 0 0 1 .525-.004.782.782 0 0 1 .374.452c.07.205.071.435.002.641-.731 2.007-1.883 3.743-3.339 5.034-1.456 1.292-3.164 2.093-4.955 2.324-.6.07-1.204.07-1.805 0l12.52 8.191a.803.803 0 0 1 .301.397c.061.17.074.36.037.539a.857.857 0 0 1-.241.454.608.608 0 0 1-.419.178l.021-.016z"/><path fill="#5F89FE" fill-rule="evenodd" d="M478.352 314.2c-4.646.705-9.358-.271-13.552-2.808-4.194-2.536-7.685-6.52-10.038-11.457l-61.469-108.108 37.743-35.201 61.674 108.525c3.055 3.909 5.16 8.777 6.079 14.06.92 5.284.618 10.775-.871 15.861-1.489 5.087-4.107 9.569-7.562 12.946-3.455 3.377-7.611 5.517-12.004 6.182z" clip-rule="evenodd"/><path fill="#FFB9B2" fill-rule="evenodd" d="M355.824 346.649s-1.026-22.106 11.897-26.277c10.325-3.253 18.051-6.256 22.154-7.34 0 0-3.282 23.44-14.222 31.781-8.957 6.841-19.829 1.836-19.829 1.836z" clip-rule="evenodd"/><path fill="#000" fill-rule="evenodd" d="M386.114 302.271l1.915 2.002-46.222 64.565-1.914-2.002 46.221-64.565z" clip-rule="evenodd"/><path fill="#31AA70" fill-rule="evenodd" d="M474.728 255.808c-5.516.142-10.825 2.586-15.043 6.924l-57.982 44.211c3.214-2.002 10.53 8.008 16.41 22.188 4.65 11.345 7.18 21.772 6.359 26.527a4.741 4.741 0 0 1-.684 1.752l-.615.667 63.247-47.297c4.75-3.08 8.511-8.023 10.677-14.031 2.165-6.008 2.607-12.731 1.256-19.083-1.351-6.353-4.417-11.965-8.704-15.931-4.286-3.965-9.543-6.053-14.921-5.927z" clip-rule="evenodd"/><path fill="#000" fill-rule="evenodd" d="M401.635 306.943c3.214-2.002 10.53 8.008 16.41 22.189 5.88 14.18 8.274 26.943 5.06 28.945-3.214 2.002-10.803-7.591-16.684-21.855-5.88-14.264-7.999-27.277-4.786-29.279z" clip-rule="evenodd"/><path fill="#FFB9B2" fill-rule="evenodd" d="M412.575 323.876c-3.487-8.509-7.931-14.515-9.846-13.347a1.224 1.224 0 0 0-.478.584l-3.761 2.335s-3.419-3.92-11.145-.583c-7.453 3.253-13.538 11.928-15.043 14.264-4.239 4.421-9.914 10.427-15.042 15.599-6.701 6.923-12.376 11.344-10.94 19.519l11.965-8.175c.958 1.919 3.009 3.504 5.539 3.921 1.026.157 2.066.1 3.077-.167.82 2.086 3.008 3.837 5.743 4.338a6.112 6.112 0 0 0 2.462 0c.957 1.835 3.008 3.336 5.47 3.754 2.735.417 5.265-.584 6.359-2.503 4.581-3.17 27.486-19.102 29.059-22.272 1.367-1.835-.068-9.176-3.419-17.267z" clip-rule="evenodd"/><path fill="#000" d="M364.029 358.827c-4.048 0-6.325-4.613-6.352-4.663a.915.915 0 0 1-.116-.316 1.005 1.005 0 0 1 .115-.663.736.736 0 0 1 .21-.232.58.58 0 0 1 .552-.074.674.674 0 0 1 .247.172.87.87 0 0 1 .168.279c.102.209 2.536 5.089 6.837 3.545 4.301-1.543 17.88-11.895 18.017-12.003a.614.614 0 0 1 .25-.116.562.562 0 0 1 .267.011c.088.024.17.07.244.134a.795.795 0 0 1 .183.238 1.012 1.012 0 0 1 .086.63.968.968 0 0 1-.11.298.782.782 0 0 1-.195.223c-.568.434-14.01 10.669-18.359 12.187a5.891 5.891 0 0 1-2.044.35z"/><path fill="#000" d="M346.182 362.331a.608.608 0 0 1-.412-.175.863.863 0 0 1-.242-.443 1.018 1.018 0 0 1 .027-.531.814.814 0 0 1 .285-.403l32.615-23.273a.57.57 0 0 1 .49-.034.727.727 0 0 1 .382.375.993.993 0 0 1 .078.591.87.87 0 0 1-.267.503l-32.614 23.273a.538.538 0 0 1-.342.117zM372.869 363.165c-4.048 0-6.325-4.613-6.352-4.663a1 1 0 0 1-.028-.598.822.822 0 0 1 .307-.467.584.584 0 0 1 .485-.095.694.694 0 0 1 .412.326c.102.208 2.536 5.088 6.837 3.545 4.164-1.451 15.562-10.569 15.679-10.661a.589.589 0 0 1 .516-.119.703.703 0 0 1 .434.361c.1.186.135.413.098.63a.861.861 0 0 1-.296.53c-.479.375-11.692 9.342-16.048 10.844a5.907 5.907 0 0 1-2.044.367zM355.619 344.98a.573.573 0 0 1-.291-.078.722.722 0 0 1-.236-.222.904.904 0 0 1-.128-.286.992.992 0 0 1 .049-.637.81.81 0 0 1 .168-.253l24.478-24.692a.61.61 0 0 1 .501-.189c.089.01.176.042.256.093.079.051.15.121.207.205a.904.904 0 0 1 .128.286 1.018 1.018 0 0 1-.048.637.813.813 0 0 1-.169.253l-24.478 24.717a.601.601 0 0 1-.437.166z"/><path fill="#FEFEFE" fill-rule="evenodd" d="M452.369 327.713h94.289v169.503h-94.289V327.713z" clip-rule="evenodd"/><path fill="#31AA70" fill-rule="evenodd" d="M551.855 755.39l9.778 24.358s-25.094 11.345-37.059 7.174c-11.966-4.171-2.735-40.457-2.735-40.457l30.016 8.925z" clip-rule="evenodd"/><path fill="#000" fill-rule="evenodd" d="M552.402 755.307s-4.787 1.418-7.59 8.675c-1.051 2.921-1.22 6.201-.479 9.259 0 0-7.042 10.928-14.974 2.92-9.778-9.927-11.624-9.593-11.624-9.593s-9.504 23.273-4.991 41.709c1.846 7.424 31.726 6.339 50.324 6.006 64.067-1.085 70.358-5.923 70.358-5.923s-2.53-8.592-21.743-12.429c-7.316-1.418-59.281-40.624-59.281-40.624z" clip-rule="evenodd"/><path fill="#000" fill-rule="evenodd" d="M512.266 808.777h122.391v7.925H512.266v-7.925z" clip-rule="evenodd"/><path fill="#FEFEFE" fill-rule="evenodd" d="M573.461 785.921a.52.52 0 0 1-.309-.079.679.679 0 0 1-.238-.254 1.027 1.027 0 0 1-.147-.6.982.982 0 0 1 .215-.568c2.983-2.757 6.218-5.081 9.641-6.924.479.334 1.026.751 1.504 1.085-3.654 1.85-7.101 4.26-10.256 7.173a.849.849 0 0 1-.41.167zm-6.427-4.588a.853.853 0 0 1-.41.167.53.53 0 0 1-.31-.079.665.665 0 0 1-.237-.255 1.014 1.014 0 0 1-.147-.599.975.975 0 0 1 .215-.568c3.099-2.881 6.474-5.29 10.051-7.174.479.333 1.026.751 1.504 1.084-3.798 1.916-7.382 4.411-10.666 7.424z" clip-rule="evenodd"/><path fill="#000" fill-rule="evenodd" d="M403.207 808.777h78.289v7.925h-78.289v-7.925z" clip-rule="evenodd"/><path fill="#31AA70" fill-rule="evenodd" d="M472.95 744.379l3.419 33.784s-14.701 9.176-26.666 5.005c-11.966-4.171-6.154-37.954-6.154-37.954l29.401-.835z" clip-rule="evenodd"/><path fill="#000" fill-rule="evenodd" d="M441.976 756.975s14.974-2.252 18.188 17.435c5.388-.749 10.584-2.881 15.248-6.257 0 0 6.153 16.767 5.401 40.541-26.803 0-76.169.083-76.169.083s-.069-6.256 20.649-19.603c12.991-11.428 16.683-32.199 16.683-32.199z" clip-rule="evenodd"/><path fill="#FEFEFE" fill-rule="evenodd" d="M450.523 784.92a.784.784 0 0 1 .351.457c.064.203.061.428-.009.627a.814.814 0 0 1-.247.361.608.608 0 0 1-.368.14.356.356 0 0 1-.274-.084c-9.709-5.505-17.367-3.17-19.965-2.169.615-.75 1.436-1.918 1.983-2.669 3.76-.917 10.256-1.334 18.529 3.337zm2.735-5.089a.353.353 0 0 1-.273-.083c-7.932-4.504-14.496-4.004-18.12-3.086.342-.668.753-1.335 1.094-1.919 3.966-.751 10.257-.667 17.641 3.587a.787.787 0 0 1 .351.458 1 1 0 0 1-.009.626.9.9 0 0 1-.301.309.709.709 0 0 1-.383.108z" clip-rule="evenodd"/><path fill="#31AA70" fill-rule="evenodd" d="M551.855 755.39h-32.273l-12.308-389.722h-21.127L473.839 755.39h-32.273v-24.774c-20.102-31.448 0-107.691 0-181.849V303.439l110.152.5v259.843c0 70.654 22.017 147.815 0 169.753.137 13.847.137 21.855.137 21.855z" clip-rule="evenodd"/><path fill="#05BAD1" fill-rule="evenodd" d="M442.455 150.119h108.238v160.828H442.455V150.119z" clip-rule="evenodd"/><path fill="#43e898" fill-rule="evenodd" d="M594.179 380.099c0 2.335-9.436 5.839-21.128 5.839-10.325 0-18.94-1.502-20.786-3.504v114.365c-3.933.001-7.828-.943-11.462-2.779-3.634-1.836-6.936-4.527-9.717-7.92-2.781-3.393-4.987-7.421-6.492-11.855-1.504-4.433-2.279-9.184-2.278-13.983V148.868l24.615.083c12.516.058 24.502 6.166 33.333 16.986s13.785 25.47 13.778 40.739v173.006c.137.083.137.25.137.417zM440.54 496.882l-.069-95.679-7.316-65.982 7.316-1.585-.068-79.496h-41.64v-47.548c.003-15.265 4.961-29.907 13.789-40.724 8.829-10.817 20.809-16.93 33.321-17l24.615-.084v311.562c.001 4.798-.773 9.55-2.278 13.983-1.504 4.433-3.71 8.461-6.492 11.854-2.781 3.393-6.082 6.084-9.716 7.92-3.634 1.836-7.529 2.78-11.462 2.779z" clip-rule="evenodd"/><path fill="#05BAD1" fill-rule="evenodd" d="M521.496 151.037h-.137c-1.094 2.752-11.965 4.921-25.23 4.921s-24.137-2.169-25.231-4.921h-.136v-23.774h.068c0-3.003 11.35-5.422 25.299-5.422 13.948 0 25.299 2.419 25.299 5.422v23.774h.068z" clip-rule="evenodd"/><path fill="#000" fill-rule="evenodd" d="M496.539 122.341c12.513 0 22.632 2.169 22.632 4.839 0 2.669-10.119 4.838-22.632 4.838-12.512 0-22.632-2.169-22.632-4.838 0-2.67 10.12-4.839 22.632-4.839z" clip-rule="evenodd"/><path fill="#000" d="M496.197 156.792c-8.984 0-25.982-1.309-25.982-6.256 0-.221.072-.433.2-.59a.629.629 0 0 1 .484-.244c.181 0 .355.088.483.244.128.157.2.369.2.59 0 1.602 8.451 4.588 24.615 4.588 16.164 0 24.615-2.986 24.615-4.588 0-.221.072-.433.201-.59a.628.628 0 0 1 .483-.244c.181 0 .355.088.484.244.128.157.2.369.2.59 0 4.922-16.998 6.256-25.983 6.256z"/><path fill="#5347E9" d="M551.513 382.601a.632.632 0 0 1-.484-.244.939.939 0 0 1-.2-.59V269.154c0-.221.072-.433.2-.589a.63.63 0 0 1 .484-.245c.181 0 .355.088.483.245a.929.929 0 0 1 .201.589v112.613a.934.934 0 0 1-.201.59.628.628 0 0 1-.483.244z"/><path fill="#5F8AFF" fill-rule="evenodd" d="M440.677 336.638c-4.513.167-7.59-.25-7.59-1.084 0-.834 2.803-1.835 7.316-2.753l.274 3.837z" clip-rule="evenodd"/><path fill="#5347E9" d="M550.214 403.373h-4.171c-3.408-.005-6.676-1.659-9.086-4.599-2.409-2.94-3.765-6.926-3.768-11.084v-48.965c0-.222.072-.434.2-.59a.626.626 0 0 1 .483-.245c3.357 0 11.699-.216 16.602-2.21a.57.57 0 0 1 .329-.034c.11.022.214.077.303.159s.161.19.208.314a.99.99 0 0 1 .062.395l-.478 66.066a.925.925 0 0 1-.212.563.626.626 0 0 1-.472.23zm-15.658-63.814v48.131c.004 3.716 1.215 7.278 3.368 9.905 2.154 2.627 5.074 4.105 8.119 4.109h3.494l.465-64.106c-4.78 1.644-11.904 1.927-15.446 1.961zm-88.614 63.73h-5.333a.63.63 0 0 1-.484-.244.939.939 0 0 1-.2-.59c0-.221.072-.433.2-.59a.63.63 0 0 1 .484-.244h5.333c3.045-.005 5.965-1.482 8.119-4.11 2.153-2.627 3.364-6.189 3.368-9.904v-49.466h-1.47c-5.34-.067-17.846-.217-22.482-1.577a.63.63 0 0 1-.262-.12.769.769 0 0 1-.2-.239.936.936 0 0 1-.106-.316 1.033 1.033 0 0 1 .008-.342.924.924 0 0 1 .119-.309.747.747 0 0 1 .211-.225.569.569 0 0 1 .545-.067c4.485 1.318 16.888 1.46 22.181 1.526h2.16c.182 0 .356.088.484.245.128.156.2.368.2.59v50.3c-.004 4.162-1.362 8.152-3.776 11.093-2.415 2.941-5.687 4.591-9.099 4.589z"/><path fill="#000" d="M443.686 229.531a.626.626 0 0 1-.484-.244.937.937 0 0 1-.2-.59v-54.804c0-6.859 2.233-13.436 6.208-18.286 3.975-4.849 9.367-7.574 14.988-7.574h6.359a.63.63 0 0 1 .484.245c.128.156.2.368.2.589a.935.935 0 0 1-.2.59.63.63 0 0 1-.484.245h-6.359c-5.259 0-10.302 2.548-14.021 7.085-3.718 4.537-5.808 10.69-5.808 17.106v54.804a.937.937 0 0 1-.2.59.625.625 0 0 1-.483.244zm101.673-50.05a.625.625 0 0 1-.483-.244.937.937 0 0 1-.201-.59v-4.754c0-3.177-.512-6.323-1.509-9.258-.996-2.935-2.457-5.602-4.298-7.848-1.841-2.246-4.027-4.028-6.433-5.244-2.406-1.216-4.984-1.841-7.588-1.841h-2.94a.627.627 0 0 1-.484-.245.935.935 0 0 1-.2-.59c0-.221.072-.433.2-.589a.627.627 0 0 1 .484-.245h2.94c5.621 0 11.013 2.725 14.988 7.574 3.975 4.85 6.208 11.427 6.208 18.286v4.754a.937.937 0 0 1-.2.59.627.627 0 0 1-.484.244z"/><path fill="#5347E9" d="M538.181 261.648c-2.393-.003-4.688-1.163-6.38-3.228-1.692-2.064-2.644-4.864-2.646-7.783V210.68c0-.221.072-.433.201-.59a.628.628 0 0 1 .483-.244c.181 0 .355.088.483.244a.934.934 0 0 1 .201.59v39.957c.002 2.477.809 4.852 2.245 6.603 1.436 1.752 3.382 2.737 5.413 2.739.181 0 .355.088.483.245a.934.934 0 0 1 .201.589.935.935 0 0 1-.201.59.626.626 0 0 1-.483.245zm14.017-.084a.629.629 0 0 1-.484-.244.939.939 0 0 1-.2-.59c0-.221.072-.433.2-.59a.629.629 0 0 1 .484-.244c2.03-.002 3.977-.987 5.413-2.739 1.435-1.752 2.243-4.127 2.245-6.604V210.68c0-.221.072-.433.2-.59a.628.628 0 0 1 .483-.244c.182 0 .356.088.484.244.128.157.2.369.2.59v39.873c-.002 2.92-.953 5.719-2.645 7.784-1.693 2.064-3.987 3.225-6.38 3.227z"/><path fill="#000" d="M560.471 211.263a.628.628 0 0 1-.483-.244.931.931 0 0 1-.201-.59v-12.846c0-4.734-1.541-9.275-4.285-12.623-2.744-3.347-6.466-5.228-10.347-5.228-3.881 0-7.602 1.881-10.347 5.228-2.744 3.348-4.285 7.889-4.285 12.623v12.846a.931.931 0 0 1-.201.59.628.628 0 0 1-.483.244.628.628 0 0 1-.483-.244.931.931 0 0 1-.201-.59v-12.846c0-5.177 1.686-10.142 4.686-13.802 3.001-3.661 7.071-5.718 11.314-5.718s8.313 2.057 11.314 5.718c3 3.66 4.686 8.625 4.686 13.802v12.846a.937.937 0 0 1-.2.59.632.632 0 0 1-.484.244z"/><path fill="#000" fill-rule="evenodd" d="M536.675 257.643H539c.453 0 .888.22 1.209.611.32.391.5.922.5 1.475s-.18 1.083-.5 1.474c-.321.391-.756.611-1.209.611h-2.325a1.433 1.433 0 0 1-.656-.154 1.731 1.731 0 0 1-.557-.452 2.164 2.164 0 0 1-.37-.679 2.472 2.472 0 0 1-.126-.8c.007-.551.189-1.076.508-1.465.319-.39.75-.612 1.201-.621zM551.035 257.643h2.324c.454 0 .889.22 1.209.611.321.391.501.922.501 1.475s-.18 1.083-.501 1.474c-.32.391-.755.611-1.209.611h-2.324a1.44 1.44 0 0 1-.657-.154 1.717 1.717 0 0 1-.556-.452 2.144 2.144 0 0 1-.37-.679 2.446 2.446 0 0 1-.127-.8c.007-.551.19-1.076.509-1.465.319-.39.749-.612 1.201-.621zM443.89 219.522c1.393 0 2.755.504 3.913 1.448s2.061 2.286 2.594 3.856c.533 1.57.672 3.297.401 4.964-.272 1.666-.943 3.197-1.928 4.399s-2.24 2.02-3.606 2.351c-1.366.332-2.782.162-4.069-.489-1.287-.65-2.387-1.751-3.16-3.164-.774-1.413-1.187-3.074-1.187-4.773-.001-1.129.18-2.247.534-3.29a8.912 8.912 0 0 1 1.526-2.788 7.144 7.144 0 0 1 2.286-1.863 5.957 5.957 0 0 1 2.696-.651z" clip-rule="evenodd"/><path fill="#5347E9" fill-rule="evenodd" d="M443.89 223.776c.704 0 1.391.255 1.976.731.584.477 1.04 1.154 1.309 1.947.269.792.34 1.665.203 2.506-.138.841-.476 1.614-.973 2.221-.498.607-1.131 1.02-1.821 1.187a2.962 2.962 0 0 1-2.054-.247c-.65-.328-1.205-.884-1.596-1.597a5.051 5.051 0 0 1-.599-2.41c.005-1.149.382-2.248 1.047-3.06.666-.812 1.567-1.271 2.508-1.278z" clip-rule="evenodd"/><path fill="#FFB9B2" fill-rule="evenodd" d="M558.418 391.193s2.53-2.086 6.086-5.255c2.666.166 5.743 0 8.82 0 3.282 0 6.427-.251 9.162-.501.389.584.711 1.229.958 1.919 6.427 20.854 6.495 47.881 3.897 55.805-2.872 8.592-14.632 15.015-29.265 15.015-7.658 0-7.726-8.508-7.726-8.508l-.547-12.513c-3.214 2.42-5.402 1.502-5.402 1.502s3.077-8.342 4.582-29.613c.683-9.676 5.333-13.764 8.957-15.515.273-1.419.478-2.336.478-2.336z" clip-rule="evenodd"/><path fill="#05BAD1" fill-rule="evenodd" d="M569.633 394.864c9.778 0 17.709 1.418 17.709 3.17 0 1.751-7.931 3.17-17.709 3.17-9.778 0-17.709-1.419-17.709-3.17 0-1.752 7.931-3.17 17.709-3.17z" clip-rule="evenodd"/><path fill="#05BAD1" fill-rule="evenodd" d="M569.633 385.354c-9.573 0-17.367-1.335-17.709-3.087h-.069v15.766h35.419v-14.598c-.547 1.669-8.274 1.919-17.641 1.919z" clip-rule="evenodd"/><path fill="#000" d="M574.419 455.674a.625.625 0 0 1-.483-.244.931.931 0 0 1-.201-.59c0-.221.072-.433.201-.59a.628.628 0 0 1 .483-.244 4.374 4.374 0 0 0 2.215-.497 5.343 5.343 0 0 0 1.833-1.597c3.234-4.304 2.591-13.755 2.585-13.847a.968.968 0 0 1 .156-.612.66.66 0 0 1 .466-.297.607.607 0 0 1 .501.191c.14.143.228.347.244.568 0 .417.684 10.269-2.94 15.123-.638.859-1.42 1.54-2.293 1.995a5.554 5.554 0 0 1-2.767.641zM566.897 457.76a.629.629 0 0 1-.484-.244.939.939 0 0 1-.2-.59c0-.221.072-.434.2-.59a.629.629 0 0 1 .484-.244 4.377 4.377 0 0 0 2.215-.498 5.327 5.327 0 0 0 1.832-1.596c3.235-4.304 2.592-13.755 2.585-13.847a.967.967 0 0 1 .157-.612.654.654 0 0 1 .465-.297.606.606 0 0 1 .502.191c.14.142.227.346.244.568 0 .417.683 10.268-2.941 15.123-.637.859-1.419 1.539-2.293 1.994a5.56 5.56 0 0 1-2.766.642zM558.76 459.428a.632.632 0 0 1-.484-.244.939.939 0 0 1-.2-.59c0-.221.072-.433.2-.59a.632.632 0 0 1 .484-.244 4.387 4.387 0 0 0 2.215-.497 5.352 5.352 0 0 0 1.833-1.597c3.234-4.304 2.591-13.755 2.584-13.847-.008-.11.002-.22.029-.325a.9.9 0 0 1 .128-.287.74.74 0 0 1 .209-.205.58.58 0 0 1 .523-.058.656.656 0 0 1 .235.157c.069.07.126.157.168.254a.977.977 0 0 1 .076.314c0 .417.684 10.268-2.94 15.123-.638.859-1.42 1.54-2.293 1.995a5.564 5.564 0 0 1-2.767.641zM555.684 450.336a.626.626 0 0 1-.483-.245.929.929 0 0 1-.201-.589v-17.401a12.746 12.746 0 0 1-.868 2.01c-1.037 1.786-2.432 3.218-4.052 4.159-1.619.942-3.409 1.363-5.199 1.222a.605.605 0 0 1-.257-.095.735.735 0 0 1-.208-.208.907.907 0 0 1-.126-.289 1.017 1.017 0 0 1 .053-.64.816.816 0 0 1 .17-.253.648.648 0 0 1 .237-.153.571.571 0 0 1 .268-.031c1.545.119 3.09-.245 4.487-1.058 1.398-.813 2.602-2.048 3.499-3.588 1.648-3.02 1.996-8.342 1.996-8.425a.918.918 0 0 1 .217-.553.624.624 0 0 1 .467-.223c.181 0 .355.088.484.244.128.157.2.369.2.59v24.692a.934.934 0 0 1-.2.589.63.63 0 0 1-.484.245zM571.205 386.122c-8.164 0-17.21-1.11-19.371-3.704a2.08 2.08 0 0 1-.41-.671 2.443 2.443 0 0 1-.157-.814c0-.221.072-.433.2-.59a.628.628 0 0 1 .483-.244c.182 0 .356.088.484.244.128.157.2.369.2.59 0 .05.041.15.157.292 1.45 1.735 9.053 3.453 20.274 3.212 13.237-.284 20.457-3.07 20.457-4.422 0-.221.072-.433.201-.589a.626.626 0 0 1 .483-.245.63.63 0 0 1 .484.245c.128.156.2.368.2.589 0 4.447-14.256 5.931-21.798 6.09-.65.017-1.279.017-1.887.017z"/><path fill="#000" fill-rule="evenodd" d="M423.242 195.247h-70.768l33.845 107.441h70.768l-33.845-107.441z" clip-rule="evenodd"/><path fill="#FFB9B2" fill-rule="evenodd" d="M383.447 241.21a13.22 13.22 0 0 1 5.265 0c.068 3.003-.684 6.673-3.419 8.926l3.419-.417c0 3.42.137 7.507-4.513 10.01a73.158 73.158 0 0 1 5.265-.835c1.367 2.753-.615 9.26-8.82 12.179-4.376 5.923-1.368 8.592.82 15.599-4.786 1.585-16-.25-19.077-10.677-5.948-20.104-7.111-23.857-5.264-28.695 3.487-9.176 7.179-8.342 12.17-10.261 1.163-.5 3.693-1.251 6.496-2.002 5.538-1.918 12.513-3.837 12.513-3.837-.753 4.338-1.436 7.174-4.855 10.01z" clip-rule="evenodd"/><path fill="#000" d="M366.081 248.217a.603.603 0 0 1-.403-.158.845.845 0 0 1-.25-.418 1.003 1.003 0 0 1 0-.516.851.851 0 0 1 .249-.418 21.08 21.08 0 0 1 4.999-3.186 83.14 83.14 0 0 1 12.847-4.13c3.234-1.167 4.027-5.322 3.761-7.832a.982.982 0 0 1 .137-.622.676.676 0 0 1 .458-.321.601.601 0 0 1 .509.168.89.89 0 0 1 .263.558c.411 3.804-1.101 8.341-4.786 9.668-4.649 1.118-10.53 3.011-12.649 4.062a18.965 18.965 0 0 0-4.711 2.986.602.602 0 0 1-.424.159zM366.49 257.977a.608.608 0 0 1-.403-.158.853.853 0 0 1-.25-.418 1.025 1.025 0 0 1 0-.516.841.841 0 0 1 .25-.418 20.914 20.914 0 0 1 4.998-3.187 83.28 83.28 0 0 1 12.847-4.129c3.235-1.168 4.028-5.322 3.761-7.833a.98.98 0 0 1 .137-.621.678.678 0 0 1 .458-.321.6.6 0 0 1 .509.167.9.9 0 0 1 .264.559c.41 3.803-1.101 8.341-4.787 9.668-4.649 1.117-10.536 3.011-12.649 4.062a18.965 18.965 0 0 0-4.711 2.986.602.602 0 0 1-.424.159zM366.832 267.487a.604.604 0 0 1-.403-.159.838.838 0 0 1-.25-.417 1.007 1.007 0 0 1 0-.517.844.844 0 0 1 .249-.417 21.455 21.455 0 0 1 4.999-3.187 83.136 83.136 0 0 1 12.847-4.129c3.234-1.168 4.027-5.322 3.761-7.833a.979.979 0 0 1 .137-.621.672.672 0 0 1 .458-.321.6.6 0 0 1 .509.167c.145.136.24.337.263.558.411 3.804-1.101 8.342-4.786 9.668-4.649 1.118-10.537 3.012-12.649 4.063a18.937 18.937 0 0 0-4.711 2.986.602.602 0 0 1-.424.159z"/><path fill="#5346E9" fill-rule="evenodd" d="M398.558 200.253l-17.778.167c-1.031-.073-2.023-.504-2.859-1.243-.837-.739-1.481-1.756-1.859-2.928l-.478-1.502c-.684-2.335.273-4.254 2.188-4.254h3.213a5.996 5.996 0 0 1-.114-1.969c.07-.66.249-1.295.524-1.868a3.884 3.884 0 0 1 1.347-1.395 3.045 3.045 0 0 1 1.73-.44h.069c1.384.098 2.719.666 3.855 1.638 1.135.973 2.026 2.312 2.572 3.867l4.581-.083c1.031.072 2.023.503 2.859 1.243.837.739 1.482 1.755 1.859 2.928l.479 1.501c.683 2.419-.274 4.338-2.188 4.338zm-14.017-13.764a2.01 2.01 0 0 0-1.099.251 2.505 2.505 0 0 0-.884.833 3.702 3.702 0 0 0-.359 1.44 3.803 3.803 0 0 0 .222 1.48l7.111-.083c-1.026-2.169-3.145-3.921-4.991-3.921z" clip-rule="evenodd"/><path fill="#FFB9B2" fill-rule="evenodd" d="M476.233 72.541a4.442 4.442 0 0 0 1.504-.25v9.926h-.068v46.046c4.034 1.335 11.008 2.169 18.871 2.169 7.863 0 14.769-.834 18.803-2.169v-21.855c2.432-1.303 4.502-3.438 5.958-6.148 1.456-2.71 2.237-5.877 2.247-9.117V44.596c-.011-4.42-1.455-8.656-4.017-11.782-2.562-3.126-6.034-4.888-9.658-4.9h-18.461c-3.624.012-7.096 1.774-9.658 4.9-2.562 3.126-4.006 7.362-4.017 11.782v14.598a4.44 4.44 0 0 0-1.504-.25c-1.478 0-2.896.716-3.941 1.991-1.045 1.275-1.632 3.005-1.632 4.808s.587 3.532 1.632 4.807c1.045 1.275 2.463 1.991 3.941 1.991z" clip-rule="evenodd"/><path fill="#141414" fill-rule="evenodd" d="M519.172 42.512c-1.564.021-3.11-.407-4.513-1.251a.985.985 0 0 1-.069.333s-4.923-1.501-18.461-11.094a1.57 1.57 0 0 0-.615-.084c-1.071-.8-2.3-1.232-3.556-1.25-1.813 0-3.552.878-4.834 2.442-1.283 1.565-2.003 3.686-2.003 5.899-.015.308.008.617.068.917v30.197l-8.615-9.593V37.924c-.009-.752.014-1.504.068-2.252-1.754-1.2-3.132-3.076-3.919-5.334a13.373 13.373 0 0 1-.431-7.145c.508-2.374 1.647-4.476 3.238-5.976s3.546-2.315 5.557-2.316c.809.01 1.614.15 2.393.417-2.325-12.596 3.692-21.772 14.837-9.593 0 0-5.607 2.836-9.094 7.925 4.513-3.17 10.667-5.84 19.009-7.675a7.485 7.485 0 0 1 3.008-.584c2.42 0 4.744 1.148 6.481 3.204 1.736 2.056 2.747 4.857 2.818 7.807 2.717.412 5.202 2.074 6.949 4.646 1.746 2.573 2.621 5.862 2.446 9.195-.174 3.333-1.385 6.46-3.386 8.74-2 2.28-4.639 3.542-7.376 3.529z" clip-rule="evenodd"/><path fill="#000" fill-rule="evenodd" d="M515.342 106.576c-1.897 1.008-3.947 1.519-6.017 1.501h-5.196l11.213 13.097v-14.598z" clip-rule="evenodd"/><path fill="#000" d="M514.043 53.773a.61.61 0 0 1-.431-.183.88.88 0 0 1-.241-.472 1.006 1.006 0 0 1 .057-.553.766.766 0 0 1 .328-.386c4.424-2.502 9.634-.625 9.853-.542.174.064.32.21.406.406.086.195.104.424.052.637a.82.82 0 0 1-.333.495.576.576 0 0 1-.522.064c-.048 0-4.937-1.794-8.889.459a.579.579 0 0 1-.28.075zM493.395 52.939a.614.614 0 0 1-.425-.184.877.877 0 0 1-.238-.466 1.003 1.003 0 0 1 .051-.546.772.772 0 0 1 .318-.39c5.319-3.12 11.794-.483 12.068-.375a.75.75 0 0 1 .395.421c.081.199.094.429.036.639a.81.81 0 0 1-.345.482.575.575 0 0 1-.524.043c-.061 0-6.229-2.502-11.042.292a.552.552 0 0 1-.294.084zM510.037 78.456a10.208 10.208 0 0 1-4.102-1.06.66.66 0 0 1-.248-.166.845.845 0 0 1-.171-.275.997.997 0 0 1-.014-.675.853.853 0 0 1 .16-.284.683.683 0 0 1 .24-.182.572.572 0 0 1 .552.048c1.012.509 3.946 1.568 5.382.409.216-.152.4-.366.534-.623.135-.257.216-.55.238-.854.157-2.202-2.249-5.489-3.193-6.565a.881.881 0 0 1-.175-.332 1.002 1.002 0 0 1-.03-.394l1.436-12.011a.955.955 0 0 1 .088-.31.803.803 0 0 1 .18-.246.648.648 0 0 1 .242-.143.57.57 0 0 1 .269-.019c.09.015.176.052.255.108.078.056.146.13.201.22a1.004 1.004 0 0 1 .132.624l-1.367 11.594c.909 1.101 3.569 4.621 3.357 7.616a4.099 4.099 0 0 1-.417 1.559c-.238.472-.563.87-.95 1.16-.78.581-1.686.86-2.599.801zM477.941 69.038a.58.58 0 0 1-.305-.088.741.741 0 0 1-.242-.245l-3.282-5.339a.914.914 0 0 1-.115-.294 1.042 1.042 0 0 1-.015-.325.962.962 0 0 1 .089-.306.804.804 0 0 1 .178-.243.644.644 0 0 1 .241-.14.562.562 0 0 1 .266-.018.613.613 0 0 1 .252.108c.077.055.144.13.198.217l3.282 5.339c.109.177.156.4.13.618a.88.88 0 0 1-.266.55.61.61 0 0 1-.411.166zM507.288 86.389c-1.094 0-7.522-.334-9.019-8.15a.98.98 0 0 1 .108-.594.7.7 0 0 1 .41-.346.577.577 0 0 1 .493.085c.15.103.263.272.315.471 1.368 7.132 7.522 6.874 7.781 6.865a.616.616 0 0 1 .494.215.916.916 0 0 1 .224.578.952.952 0 0 1-.176.602.644.644 0 0 1-.473.274h-.157z"/><path fill="#000" fill-rule="evenodd" d="M499.752 59.528c.298 0 .589.108.836.31.247.201.44.488.554.823.114.336.144.705.086 1.06a1.992 1.992 0 0 1-.412.94c-.21.257-.478.432-.77.502-.292.071-.594.035-.869-.104a1.611 1.611 0 0 1-.675-.676 2.125 2.125 0 0 1-.254-1.02c.004-.485.163-.95.445-1.292.281-.343.661-.538 1.059-.543zM517.667 59.528c.298 0 .589.108.836.31.247.201.44.488.554.823.114.336.144.705.086 1.06a1.992 1.992 0 0 1-.412.94c-.21.257-.478.432-.77.502-.292.071-.594.035-.869-.104a1.611 1.611 0 0 1-.675-.676 2.125 2.125 0 0 1-.254-1.02c.004-.485.163-.95.445-1.292.281-.343.661-.538 1.059-.543z" clip-rule="evenodd"/><path fill="#000001" fill-rule="evenodd" d="M27.076 782.167c2.827 0 5.59 1.023 7.94 2.938 2.35 1.916 4.181 4.639 5.263 7.824 1.082 3.186 1.365 6.692.813 10.073-.551 3.382-1.912 6.489-3.91 8.927-2 2.438-4.546 4.099-7.318 4.771-2.772.673-5.645.328-8.256-.992-2.611-1.319-4.843-3.554-6.414-6.421-1.57-2.867-2.408-6.238-2.408-9.686 0-2.29.368-4.557 1.086-6.673.718-2.116 1.77-4.038 3.098-5.657 1.327-1.619 2.903-2.903 4.637-3.779a12.082 12.082 0 0 1 5.47-1.325zM172.716 782.167c2.827 0 5.589 1.023 7.939 2.938 2.351 1.916 4.182 4.639 5.264 7.824 1.081 3.186 1.364 6.692.813 10.073-.551 3.382-1.912 6.489-3.911 8.927-1.999 2.438-4.545 4.099-7.317 4.771-2.772.673-5.645.328-8.257-.992-2.611-1.319-4.843-3.554-6.413-6.421-1.57-2.867-2.408-6.238-2.408-9.686a20.793 20.793 0 0 1 1.086-6.673c.718-2.116 1.77-4.038 3.097-5.657 1.328-1.619 2.903-2.903 4.637-3.779 1.735-.876 3.593-1.326 5.47-1.325zM80.409 782.167c2.826 0 5.589 1.023 7.939 2.938 2.35 1.916 4.181 4.639 5.263 7.824 1.082 3.186 1.365 6.692.813 10.073-.551 3.382-1.912 6.489-3.91 8.927-2 2.438-4.545 4.099-7.318 4.771-2.772.673-5.645.328-8.256-.992-2.611-1.319-4.843-3.554-6.413-6.421-1.57-2.867-2.409-6.238-2.409-9.686 0-2.29.368-4.557 1.086-6.673.718-2.116 1.77-4.038 3.098-5.657 1.327-1.619 2.903-2.903 4.637-3.779a12.082 12.082 0 0 1 5.47-1.325zM226.048 782.167c2.827 0 5.589 1.023 7.94 2.938 2.35 1.916 4.181 4.639 5.263 7.824 1.081 3.186 1.364 6.692.813 10.073-.551 3.382-1.912 6.489-3.911 8.927-1.998 2.438-4.545 4.099-7.317 4.771-2.772.673-5.645.328-8.256-.992-2.612-1.319-4.844-3.554-6.414-6.421-1.57-2.867-2.408-6.238-2.408-9.686a20.793 20.793 0 0 1 1.086-6.673c.718-2.116 1.77-4.038 3.097-5.657 1.328-1.619 2.903-2.903 4.637-3.779 1.735-.876 3.593-1.326 5.47-1.325z" clip-rule="evenodd"/><path fill="#43e898" fill-rule="evenodd" d="M27.076 811.029c-2.394-.065-4.672-1.272-6.346-3.361-1.674-2.089-2.611-4.895-2.61-7.816.003-1.227.188-2.442.546-3.587l-7.042-8.759a7.28 7.28 0 0 1-3.009.584c-1.835-.051-3.615-.769-5.113-2.062-1.499-1.293-2.647-3.102-3.297-5.195v-28.779l17.436-.084v25.609a11.248 11.248 0 0 1-.752 4.088l6.632 8.258a7.5 7.5 0 0 1 3.555-.834c2.395.065 4.673 1.272 6.347 3.361 1.674 2.089 2.611 4.895 2.61 7.817a12.796 12.796 0 0 1-.674 4.163 11.102 11.102 0 0 1-1.947 3.518c-.834 1.003-1.825 1.791-2.913 2.32a7.399 7.399 0 0 1-3.422.759zM172.715 811.029c-2.394-.065-4.672-1.272-6.346-3.361-1.675-2.089-2.612-4.895-2.611-7.816.003-1.227.189-2.442.547-3.587l-7.043-8.759a7.277 7.277 0 0 1-3.008.584c-1.835-.051-3.615-.769-5.114-2.062-1.498-1.293-2.646-3.102-3.296-5.195v-28.779l17.435-.084v25.609a11.225 11.225 0 0 1-.752 4.088l6.633 8.258a7.499 7.499 0 0 1 3.555-.834c2.394.065 4.672 1.272 6.347 3.361 1.674 2.089 2.611 4.895 2.61 7.817a12.767 12.767 0 0 1-.675 4.163 11.107 11.107 0 0 1-1.946 3.518c-.835 1.003-1.825 1.791-2.913 2.32a7.4 7.4 0 0 1-3.423.759zM1.504 533.001h200.68v7.675H1.504v-7.675zM1.504 634.77h200.68v7.674H1.504v-7.674zM1.504 732.367h200.68v7.675H1.504v-7.675z" clip-rule="evenodd"/><path fill="#43e898" d="M199.313 776.912l-1.094-260.76a33.725 33.725 0 0 0-1.751-10.915c-1.172-3.461-2.896-6.602-5.072-9.242-2.176-2.639-4.762-4.724-7.605-6.133-2.843-1.409-5.888-2.113-8.957-2.072l-90.391.083c-6.493.022-12.716 3.173-17.313 8.766-4.598 5.594-7.198 13.176-7.234 21.098l-.41 270.77-6.359-15.599.41-255.005c.068-9.988 3.356-19.543 9.152-26.598 5.796-7.056 13.634-11.045 21.822-11.106l90.392-.083c3.878-.033 7.723.87 11.314 2.658 3.591 1.788 6.856 4.425 9.608 7.759 2.752 3.334 4.936 7.299 6.427 11.667 1.49 4.369 2.257 9.053 2.257 13.785l1.094 260.76-6.29.167z"/><path fill="#31AA70" fill-rule="evenodd" d="M42.46 495.297h55.18v37.788H42.46v-37.788z" clip-rule="evenodd"/><path fill="#31AA70" d="M98.255 533.752H41.982a.626.626 0 0 1-.483-.244.936.936 0 0 1-.2-.59v-87.671a1.258 1.258 0 0 1 0-.167c.786-4.637 13.941-6.314 18.926-6.781v-12.655c0-.221.072-.433.2-.589a.627.627 0 0 1 .484-.245h18.256c.181 0 .355.088.483.245.129.156.2.368.2.589v12.655c4.985.467 18.14 2.144 18.927 6.781.003.056.003.112 0 .167l.136 87.671c.001.11-.016.219-.05.32a.868.868 0 0 1-.148.273.63.63 0 0 1-.458.241zm-55.589-1.668h54.905l-.136-86.753c-.465-1.927-6.975-4.463-18.304-5.439a.644.644 0 0 1-.453-.264.944.944 0 0 1-.183-.57v-12.579H61.606v12.595a.944.944 0 0 1-.183.571.647.647 0 0 1-.453.264c-11.323.976-17.839 3.511-18.304 5.438v86.737z"/><path fill="#31AA70" fill-rule="evenodd" d="M60.853 424.56H79.11v10.427H60.853V424.56z" clip-rule="evenodd"/><path fill="#fff" fill-rule="evenodd" d="M60.58 506.225c.922.064 1.808.455 2.55 1.126.74.671 1.304 1.593 1.621 2.65a6.973 6.973 0 0 1 .161 3.302c-.212 1.096-.682 2.092-1.353 2.866-.67.773-1.513 1.29-2.422 1.487a3.954 3.954 0 0 1-2.693-.382c-.847-.446-1.57-1.184-2.077-2.125a6.707 6.707 0 0 1-.778-3.168c.043-1.568.591-3.052 1.526-4.13.934-1.078 2.18-1.662 3.465-1.626zM67.966 500.636c.46 0 .909.166 1.291.478.382.312.68.755.856 1.273.176.518.222 1.088.133 1.638a3.074 3.074 0 0 1-.637 1.453c-.325.396-.739.666-1.19.776a1.94 1.94 0 0 1-1.343-.162c-.425-.214-.788-.578-1.043-1.044a3.3 3.3 0 0 1-.392-1.576 3.357 3.357 0 0 1 .171-1.089c.116-.346.287-.66.504-.924.216-.264.473-.473.757-.614.283-.141.586-.212.893-.209zM78.222 514.567c.906 0 1.776.439 2.417 1.221.641.782 1.001 1.843 1.001 2.95 0 1.106-.36 2.167-1.001 2.949-.641.782-1.51 1.221-2.417 1.221-.907 0-1.777-.439-2.418-1.221-.641-.782-1.001-1.843-1.001-2.949 0-1.107.36-2.168 1.001-2.95.641-.782 1.51-1.221 2.418-1.221z" clip-rule="evenodd"/><path fill="#43e898" d="M146.186 776.912l-1.094-260.76a33.725 33.725 0 0 0-1.751-10.915c-1.172-3.461-2.896-6.602-5.072-9.242-2.176-2.639-4.761-4.724-7.605-6.133-2.843-1.409-5.888-2.113-8.956-2.072l-90.392.083c-6.493.022-12.716 3.173-17.313 8.766-4.598 5.594-7.198 13.176-7.234 21.098l-.41 270.77L0 772.908l.41-255.005c.068-9.988 3.356-19.543 9.152-26.598 5.796-7.056 13.635-11.045 21.822-11.106l90.392-.083c3.878-.033 7.723.87 11.314 2.658 3.591 1.788 6.857 4.425 9.608 7.759 2.752 3.334 4.936 7.299 6.427 11.667 1.49 4.369 2.257 9.053 2.257 13.785l1.094 260.76-6.29.167z"/><path fill="#05BAD1" fill-rule="evenodd" d="M78.289 623.592c-.87 0-1.705-.422-2.32-1.173-.616-.75-.962-1.769-.962-2.831v-39.373h6.564v39.373c0 1.062-.346 2.081-.962 2.831-.615.751-1.45 1.173-2.32 1.173zM115.691 623.592c-.87 0-1.705-.422-2.321-1.173-.615-.751-.961-1.769-.961-2.831v-12.179h6.564v12.179c0 1.062-.346 2.08-.961 2.831-.616.751-1.45 1.173-2.321 1.173zM103.246 623.592c-.871 0-1.705-.422-2.321-1.173-.615-.751-.961-1.769-.961-2.831v-38.539h6.564v38.539c-.012 1.057-.362 2.067-.975 2.814-.613.748-1.441 1.175-2.307 1.19z" clip-rule="evenodd"/><path fill="#31AA70" fill-rule="evenodd" d="M90.802 623.592c-.87 0-1.706-.422-2.321-1.173-.616-.751-.962-1.769-.962-2.831v-52.97h6.565v52.97c-.025 1.053-.378 2.054-.988 2.799-.61.744-1.432 1.176-2.294 1.205zM128.135 623.592c-.87 0-1.705-.422-2.32-1.173-.616-.751-.961-1.769-.961-2.831v-41.792h6.563v41.792c0 1.062-.345 2.08-.961 2.831-.615.751-1.45 1.173-2.321 1.173z" clip-rule="evenodd"/><path fill="#31AA70" d="M78.7 624.677c-1.042.009-2.044-.487-2.788-1.378-.743-.891-1.167-2.106-1.178-3.377l-.615-67.476c0-.11.017-.218.05-.32a.865.865 0 0 1 .148-.272.632.632 0 0 1 .48-.25l6.495-.084c.181 0 .355.088.483.245.128.156.2.368.2.589l.616 67.485c.007 1.27-.398 2.491-1.127 3.398-.73.907-1.723 1.424-2.764 1.44zm-3.213-71.413l.608 66.65c.008.829.286 1.621.773 2.201.487.579 1.142.899 1.822.889.68-.01 1.329-.349 1.804-.943.475-.593.737-1.393.73-2.222l-.61-66.642-5.127.067zM91.145 624.51c-1.042.009-2.045-.487-2.788-1.378-.744-.891-1.167-2.106-1.178-3.377l-.615-67.476a.942.942 0 0 1 .191-.592.695.695 0 0 1 .222-.185.572.572 0 0 1 .263-.065l6.496-.084a.63.63 0 0 1 .484.244c.128.157.2.369.2.59l.615 67.484c.008 1.271-.398 2.492-1.127 3.399s-1.722 1.424-2.763 1.44zm-3.207-71.413l.608 66.65c.004.41.075.816.207 1.194.133.377.325.719.566 1.006.241.287.526.514.839.666.312.153.647.229.983.224.337-.005.67-.091.98-.252.309-.162.59-.397.824-.691.236-.294.421-.641.546-1.023.125-.381.188-.789.184-1.2l-.609-66.641-5.128.067zM103.588 624.343c-1.042.009-2.045-.487-2.788-1.378-.743-.891-1.167-2.106-1.178-3.377l-.615-67.476a.942.942 0 0 1 .191-.592.692.692 0 0 1 .223-.184.573.573 0 0 1 .263-.066l6.495-.084c.182 0 .356.088.484.245.128.156.2.368.2.59l.616 67.484c.007 1.27-.398 2.492-1.127 3.398-.729.907-1.723 1.424-2.764 1.44zm-3.207-71.413l.609 66.65c.004.411.074.816.207 1.194.132.378.325.72.566 1.007.241.287.525.513.838.666.313.152.647.228.984.223.336-.005.669-.09.979-.252a2.63 2.63 0 0 0 .825-.69c.235-.294.42-.642.546-1.023.125-.382.187-.79.183-1.2l-.609-66.642-5.128.067zM116.032 624.259c-1.042.009-2.044-.486-2.788-1.377-.743-.892-1.167-2.106-1.177-3.377l-.616-67.476c0-.11.017-.219.051-.32a.859.859 0 0 1 .147-.272.632.632 0 0 1 .479-.251l6.496-.083c.181 0 .355.088.483.244.128.157.2.369.2.59l.616 67.484c.007 1.27-.398 2.492-1.127 3.399-.729.906-1.723 1.424-2.764 1.439zm-3.206-71.413l.608 66.65c.008.83.286 1.622.773 2.201.486.58 1.142.9 1.822.89.68-.01 1.329-.349 1.804-.943.475-.594.737-1.393.729-2.223l-.608-66.641-5.128.066zM128.545 624.093c-1.042.009-2.045-.487-2.788-1.378-.743-.891-1.167-2.106-1.178-3.377l-.615-67.476a.944.944 0 0 1 .191-.592.695.695 0 0 1 .223-.184.57.57 0 0 1 .263-.066l6.496-.084c.181 0 .355.088.483.245.128.156.2.368.2.59l.616 67.484c.007 1.27-.398 2.492-1.127 3.398-.729.907-1.723 1.424-2.764 1.44zm-3.207-71.413l.609 66.65c.008.829.286 1.621.773 2.201.486.579 1.142.899 1.822.889.68-.01 1.329-.349 1.804-.942.475-.594.737-1.394.729-2.223l-.609-66.642-5.128.067z"/><path fill="#31AA70" d="M137.981 633.769H68.444a.63.63 0 0 1-.484-.244.938.938 0 0 1-.2-.59v-63.23c0-.221.072-.433.2-.59a.63.63 0 0 1 .484-.244h69.537c.181 0 .355.088.483.244a.934.934 0 0 1 .201.59v63.23a.934.934 0 0 1-.201.59.628.628 0 0 1-.483.244zm-68.854-1.668h68.17v-61.562h-68.17v61.562z"/><path fill="#31AA70" fill-rule="evenodd" d="M63.247 626.595h79.383v8.842H63.247v-8.842z" clip-rule="evenodd"/><path fill="#43e898" fill-rule="evenodd" d="M80.203 811.029c-2.394-.065-4.672-1.272-6.346-3.361-1.674-2.089-2.611-4.895-2.61-7.816.003-1.227.188-2.442.546-3.587l-7.042-8.759a7.281 7.281 0 0 1-3.009.584c-1.835-.051-3.615-.769-5.113-2.062-1.499-1.293-2.647-3.102-3.297-5.195v-28.779l17.436-.084v25.609a11.25 11.25 0 0 1-.752 4.088l6.632 8.258a7.501 7.501 0 0 1 3.555-.834c2.395.065 4.673 1.272 6.347 3.361 1.674 2.089 2.611 4.895 2.61 7.817a12.794 12.794 0 0 1-.674 4.163 11.1 11.1 0 0 1-1.947 3.518c-.834 1.003-1.825 1.791-2.913 2.32a7.398 7.398 0 0 1-3.423.759zM225.843 811.029c-2.394-.065-4.672-1.272-6.346-3.361-1.675-2.089-2.612-4.895-2.611-7.816.003-1.227.189-2.442.547-3.587l-7.043-8.759a7.277 7.277 0 0 1-3.008.584c-1.835-.051-3.616-.769-5.114-2.062-1.498-1.293-2.646-3.102-3.296-5.195v-28.779l17.435-.084v25.609a11.225 11.225 0 0 1-.752 4.088l6.633 8.258a7.499 7.499 0 0 1 3.555-.834c2.394.065 4.672 1.272 6.347 3.361 1.674 2.089 2.611 4.895 2.61 7.817a12.767 12.767 0 0 1-.675 4.163 11.107 11.107 0 0 1-1.946 3.518c-.835 1.003-1.825 1.791-2.913 2.32a7.4 7.4 0 0 1-3.423.759z" clip-rule="evenodd"/><path fill="#FEFEFE" fill-rule="evenodd" d="M158.288 360.579h88.135l39.316 130.714H158.288V360.579z" clip-rule="evenodd"/><path fill="#43e898" fill-rule="evenodd" d="M142.426 319.288c10.803 4.839 22.427-1.835 26.05-14.764l27.692-100.1c3.624-13.013-2.256-27.444-12.991-32.199-10.735-4.755-22.427 1.835-26.051 14.765 0 .083-.068.166-.068.25l-27.555 99.516c0 .083-.069.167-.069.25-3.624 13.013 2.257 27.444 12.992 32.282z" clip-rule="evenodd"/><path fill="#43e898" fill-rule="evenodd" d="M132.237 238.207c.41 2.169-5.265 10.844-13.128 19.853-7.316 8.425-13.88 14.265-16.205 14.515l31.111 40.123.068.084c8 10.26 21.06 11.011 29.265 1.585 8.205-9.427 8.342-25.359.342-35.619-12.445-16.183-31.453-40.541-31.453-40.541z" clip-rule="evenodd"/><path fill="#5347E9" d="M163.69 279.415a.577.577 0 0 1-.271-.066.705.705 0 0 1-.228-.192 23433.571 23433.571 0 0 0-31.453-40.374.965.965 0 0 1-.155-.58.917.917 0 0 1 .21-.553.622.622 0 0 1 .462-.232.619.619 0 0 1 .468.214c.191.242 19.145 24.541 31.452 40.373.065.078.115.17.15.272a.991.991 0 0 1 0 .641.856.856 0 0 1-.15.272.618.618 0 0 1-.485.225z"/><path fill="#000" fill-rule="evenodd" d="M122.392 225.111c-1.231-1.502-7.863 3.753-14.838 11.845-6.974 8.091-11.692 15.849-10.53 17.35 1.163 1.502 7.864-3.753 14.838-11.845 6.974-8.091 11.761-15.849 10.53-17.35zM132.237 238.124c-1.436-1.836-9.162 4.254-17.299 13.596-8.137 9.343-13.538 18.352-12.102 20.271 1.436 1.918 9.162-4.255 17.298-13.597 8.137-9.343 13.539-18.352 12.103-20.27z" clip-rule="evenodd"/><path fill="#05BAD1" fill-rule="evenodd" d="M111.588 242.461c-6.837 7.925-13.401 13.097-14.632 11.679l8.889 11.344.068-.083c1.504 1.001 7.863-4.087 14.564-11.762 6.838-7.924 11.487-15.515 10.393-17.184.068-.083.068-.083 0-.083l-8.615-11.261-.205.25c.82 1.919-3.761 9.426-10.462 17.1z" clip-rule="evenodd"/><path fill="#FFB9B2" fill-rule="evenodd" d="M110.904 240.293a72.828 72.828 0 0 1-9.915 9.676c-2.53-3.587-4.649-6.423-5.948-8.258-4.171-1.085-43.828-25.776-49.093-29.446-5.265-3.671-4.035-8.175 5.743-4.004 7.248 3.086 16.547 6.256 16.547 6.256s-21.47-17.685-25.504-21.689c-2.462-2.335-1.983-4.504-.957-5.422a2.618 2.618 0 0 1 1.914-.333s-1.094-1.252-2.188-2.67c-1.71-2.252.274-5.839 3.487-4.17 5.539 2.919 28.513 17.1 28.513 17.1s-11.009-10.511-19.35-18.435c-5.675-5.422-2.53-8.675 4.444-3.754 5.128 3.67 26.324 18.685 26.324 18.685s12.718 8.676 3.009-9.592c-4.923-9.26-3.35-14.598-.82-12.012 2.53 2.585 18.461 27.861 22.495 34.701 4.034 6.84 3.282 12.763 3.282 12.763l7.042 8.174c-1.709 3.254-4.991 7.758-9.025 12.43z" clip-rule="evenodd"/><path fill="#000" d="M71.11 219.855a.63.63 0 0 1-.483-.244.938.938 0 0 1-.2-.59c0-.584.287-14.356 7.295-23.415a.706.706 0 0 1 .219-.189.569.569 0 0 1 .525-.018.687.687 0 0 1 .227.173.87.87 0 0 1 .155.267 1.002 1.002 0 0 1 .015.641.882.882 0 0 1-.142.277c-6.64 8.575-6.927 22.155-6.927 22.297a.928.928 0 0 1-.21.569.626.626 0 0 1-.474.232zM97.502 222.441a.613.613 0 0 1-.437-.192c-10.38-10.443-5.511-25.742-5.47-25.859a.863.863 0 0 1 .145-.273.69.69 0 0 1 .22-.185.58.58 0 0 1 .524-.009.7.7 0 0 1 .224.177.873.873 0 0 1 .151.268.996.996 0 0 1 .008.639c-.192.584-4.54 14.331 5.066 23.991.07.07.127.156.169.253a1.008 1.008 0 0 1 .048.637.896.896 0 0 1-.128.286.7.7 0 0 1-.236.202.579.579 0 0 1-.284.065z"/><path fill="#000" d="M72.547 206.926a.59.59 0 0 1-.342-.108l-24.273-16.851a.833.833 0 0 1-.32-.507 1 1 0 0 1 .067-.635.724.724 0 0 1 .416-.392.581.581 0 0 1 .52.083l24.274 16.85a.805.805 0 0 1 .293.401c.058.17.07.358.031.536a.861.861 0 0 1-.243.448.61.61 0 0 1-.416.175h-.007z"/><path fill="#FFB9B2" fill-rule="evenodd" d="M254.081 679.982l39.794 62.98-17.504 34.451-33.025 29.029-.205-9.176 10.051-54.221-21.128-39.873 22.017-23.19z" clip-rule="evenodd"/><path fill="#000" fill-rule="evenodd" d="M250.8 816.869h-31.795s-.205-6.924 7.385-11.178c6.277-3.644 12.139-8.271 17.436-13.764 0 0 4.376 7.007 9.846.834 6.358-7.09 23.931-41.124 27.897-52.802 3.282-9.677 1.641-14.348 1.641-14.348 4.32 2.164 8.408 4.966 12.17 8.342 4.581 4.004 8.616 11.344 8.616 11.344l-43.555 66.316c-1.187 1.694-2.668 3.045-4.335 3.954-1.668.909-3.48 1.353-5.306 1.302zM275.141 713.265l-29.47 15.599-2.393-4.588-.068-.25 23.863-23.607 8.068 12.846z" clip-rule="evenodd"/><path fill="#31AA70" fill-rule="evenodd" d="M273.432 700.502l-30.769 27.194-106.46-203.119c-2.491-4.954-4.154-10.459-4.893-16.2a53.477 53.477 0 0 1 .586-17.25l38.29-190.691h49.367l-40.615 203.036 94.494 197.03z" clip-rule="evenodd"/><path fill="#5347E9" d="M261.466 711.763a.584.584 0 0 1-.343-.111.77.77 0 0 1-.251-.306l-90.119-191.024c-3.642-7.724-4.813-16.819-3.289-25.534l22.633-130.964a.944.944 0 0 1 .107-.306.787.787 0 0 1 .194-.232.617.617 0 0 1 .253-.124.573.573 0 0 1 .273.003c.09.023.175.068.251.131a.81.81 0 0 1 .19.237.953.953 0 0 1 .102.309c.017.11.016.223-.003.333l-22.632 130.964c-1.457 8.31-.339 16.985 3.138 24.349l90.119 191.024c.06.127.091.271.091.418a.983.983 0 0 1-.092.418.774.774 0 0 1-.251.305.59.59 0 0 1-.343.11h-.028z"/><path fill="#000" fill-rule="evenodd" d="M238.971 720.689l-17.573-33.534 1.3-84.251 6.564 5.506 28.922 60.31-19.213 51.969zM186.869 362.498h19.35l-5.196 31.448-14.154-31.448z" clip-rule="evenodd"/><path fill="#FFB9B2" fill-rule="evenodd" d="M222.288 815.117l-63.726 1.752-3.35-7.091 32.752-38.538 12.991-60.144 26.256-25.358-5.744 83.166.821 46.213z" clip-rule="evenodd"/><path fill="#000" fill-rule="evenodd" d="M146.528 816.868s-.752-9.759 17.367-17.434c3.009 2.753 10.598 6.34 17.025 6.34 11.282 0 28.718-8.091 40.82-18.101a.879.879 0 0 0 .205-.167s1.436 5.422.753 29.196c-26.803.083-76.17.166-76.17.166zM192.681 749.468l31.179-.751-2.12 17.684-30.632-9.759 1.573-7.174z" clip-rule="evenodd"/><path fill="#31AA70" fill-rule="evenodd" d="M201.365 300.269h58.939l-35.008 454.454h-38.358l14.427-454.454z" clip-rule="evenodd"/><path fill="#5347E9" d="M209.98 755.807h-.055a.589.589 0 0 1-.258-.088.735.735 0 0 1-.21-.203.883.883 0 0 1-.13-.285 1.013 1.013 0 0 1-.031-.325l19.145-299.466a.98.98 0 0 1 .073-.314.838.838 0 0 1 .166-.256.672.672 0 0 1 .234-.159.566.566 0 0 1 .523.051c.08.05.152.119.21.202a.9.9 0 0 1 .131.286c.027.104.038.214.031.324L210.664 755.04a.915.915 0 0 1-.219.547.621.621 0 0 1-.465.22z"/><path fill="#43e898" fill-rule="evenodd" d="M263.996 221.524l-5.197 69.152 7.18 61.144h7.794l-.547 61.312 13.539 78.078c-45.88 0-69.538-34.869-70.7-78.829l-5.675-230.814c.752-.667 13.128-17.267 13.128-17.267s28.922 6.173 37.674 8.758c4.505 1.388 8.519 4.52 11.441 8.927 2.922 4.407 4.593 9.85 4.764 15.515.212 5.237-.982 10.416-3.4 14.752-2.418 4.335-5.93 7.59-10.001 9.272z" clip-rule="evenodd"/><path fill="#5346E9" fill-rule="evenodd" d="M266.184 353.739c4.718-.25 7.726-.917 7.863-1.668.137-.751-2.051-1.418-8.137-2.085l.274 3.753z" clip-rule="evenodd"/><path fill="#5347E9" d="M266.047 414.55h-.068l-9.162-1.093c-11.624-1.368-21.388-13.855-21.812-27.819 0-.175-.547-17.585-.889-30.205 0-.222.072-.434.2-.59a.63.63 0 0 1 .484-.245c.181 0 .355.088.483.245a.93.93 0 0 1 .201.59c.335 12.612.882 30.03.889 30.188.396 13.172 9.627 24.933 20.58 26.226l9.163 1.093a.583.583 0 0 1 .259.079.705.705 0 0 1 .214.195c.06.081.107.176.137.279a1.001 1.001 0 0 1-.026.639.838.838 0 0 1-.159.261.681.681 0 0 1-.229.168.567.567 0 0 1-.265.047v-.058z"/><path fill="#5347E9" d="M235.826 356.075H234.8a.632.632 0 0 1-.484-.244.939.939 0 0 1-.2-.59c0-.222.072-.434.2-.59a.629.629 0 0 1 .484-.244c17.518.05 36.423-1.018 37.75-2.845a.742.742 0 0 1 .206-.208.575.575 0 0 1 .522-.063.673.673 0 0 1 .236.154.897.897 0 0 1 .242.539.973.973 0 0 1-.126.596c-2.017 3.195-28.205 3.495-37.804 3.495z"/><path fill="#43e898" fill-rule="evenodd" d="M131.553 491.71l38.29-193.026-2.667-119.286 22.222-.417 3.419 125.125-18.256 107.607c-4.401 25.306-14.902 48.429-30.154 66.4l-12.854 13.597z" clip-rule="evenodd"/><path fill="#5347E9" d="M169.843 302.021a.61.61 0 0 1-.439-.179.882.882 0 0 1-.245-.48l-11.418-64.064a39.805 39.805 0 0 1 .567-16.525l4.718-18.101a.783.783 0 0 1 .343-.437.575.575 0 0 1 .495-.04.728.728 0 0 1 .386.379 1 1 0 0 1 .075.598l-4.718 18.102a37.72 37.72 0 0 0-.526 15.674l11.418 64.064c.019.107.021.218.005.326a.939.939 0 0 1-.099.303.773.773 0 0 1-.186.234.628.628 0 0 1-.246.129l-.13.017z"/><path fill="#000" fill-rule="evenodd" d="M203.689 146.866c-11.351 2.502-20.376 10.427-20.171 17.768.068 2.919 2.325 6.006 4.855 7.591 6.427-11.512 21.811-11.178 16.068 1.167 11.35-2.502 20.649-12.178 20.444-19.519-.205-7.341-9.846-9.426-21.196-7.007zM175.039 59.78c2.253.012 4.415 1.087 6.033 3 1.618 1.912 2.568 4.513 2.651 7.26a11.832 11.832 0 0 1-.525 3.91 10.343 10.343 0 0 1-1.744 3.343c-.76.96-1.673 1.72-2.681 2.237a6.846 6.846 0 0 1-3.187.77c-2.252-.014-4.414-1.089-6.032-3-1.618-1.913-2.568-4.514-2.651-7.26a11.832 11.832 0 0 1 .525-3.911c.39-1.247.983-2.384 1.744-3.344.76-.959 1.673-1.72 2.681-2.236a6.846 6.846 0 0 1 3.186-.77z" clip-rule="evenodd"/><path fill="#000" fill-rule="evenodd" d="M199.928 46.265c-6.546-.058-12.927 2.505-18.164 7.296-5.236 4.792-9.04 11.548-10.827 19.23-.82 3.671 5.197 12.513 5.265 16.517.547 21.021 8.547 33.033 25.777 33.033 4.055.033 8.073-.937 11.812-2.853 3.738-1.916 7.119-4.737 9.938-8.293 2.819-3.556 5.017-7.773 6.461-12.395 1.445-4.622 2.106-9.554 1.943-14.497-.32-10.18-3.848-19.816-9.847-26.902-5.999-7.086-14.008-11.075-22.358-11.136z" clip-rule="evenodd"/><path fill="#000" fill-rule="evenodd" d="M207.314 22.241s-6.222 17.935 4.923 28.946c-24.205-4.254-23.111-27.36-4.923-28.946z" clip-rule="evenodd"/><path fill="#000" fill-rule="evenodd" d="M237.193 45.932c-4.376-50.134-51.281-15.6-19.35 24.941 14.496 4.838 39.384-16.683 19.35-24.941z" clip-rule="evenodd"/><path fill="#FFB9B2" fill-rule="evenodd" d="M216.953 94.314c.889-.584 1.71-1.168 2.462-1.669h.205c1.407.008 2.757.682 3.765 1.88 1.007 1.199 1.594 2.827 1.637 4.543a7.445 7.445 0 0 1-.335 2.433 6.51 6.51 0 0 1-1.084 2.082 5.194 5.194 0 0 1-1.662 1.404 4.314 4.314 0 0 1-1.979.504 6.214 6.214 0 0 1-1.299-.167l.41 1.836 3.829 62.729s-22.222-8.759-25.23 30.197c-4.034-27.945-8.889-23.607-9.094-31.031-.274-14.098-.615-31.448-.615-31.448s-16.479-1.752-17.231-28.445c-.82-30.114-.752-32.2-.752-32.2s9.231-3.086 9.914-9.675c3.009 11.928 14.838 5.588 23.658 11.594 7.521 5.089.479 12.513 13.401 15.433z" clip-rule="evenodd"/><path fill="#000" fill-rule="evenodd" d="M197.536 92.645c.472.021.922.254 1.263.654.34.4.548.94.583 1.515.007.564-.168 1.108-.488 1.514-.321.406-.759.642-1.221.655-.473-.021-.922-.254-1.263-.654-.341-.4-.548-.94-.583-1.515-.01-.28.028-.56.11-.823.081-.263.206-.503.365-.706.16-.202.352-.363.564-.473.212-.11.44-.167.67-.167zM177.296 92.645c.472.021.922.254 1.262.654.341.4.549.94.584 1.515.007.564-.168 1.108-.489 1.514-.32.406-.759.642-1.221.655-.472-.021-.922-.254-1.262-.654-.341-.4-.549-.94-.584-1.515a2.53 2.53 0 0 1 .11-.823c.082-.263.207-.503.366-.706.16-.202.351-.363.563-.473.212-.11.44-.167.671-.167z" clip-rule="evenodd"/><path fill="#000" d="M216.816 100.653a.61.61 0 0 1-.416-.175.862.862 0 0 1-.243-.448 1.005 1.005 0 0 1 .032-.536.798.798 0 0 1 .292-.401l4.171-2.836a.609.609 0 0 1 .254-.105.568.568 0 0 1 .267.022.645.645 0 0 1 .24.146c.071.067.131.15.176.246a.976.976 0 0 1 .068.635.934.934 0 0 1-.119.293.751.751 0 0 1-.202.214l-4.171 2.836a.589.589 0 0 1-.349.109zM187.437 118.171h-.171a.63.63 0 0 1-.484-.244.939.939 0 0 1-.2-.59c0-.221.072-.434.2-.59a.627.627 0 0 1 .484-.244c2.48-.075 4.876-1.115 6.837-2.97a.61.61 0 0 1 .498-.198.65.65 0 0 1 .466.29.952.952 0 0 1 .162.607.908.908 0 0 1-.237.569c-2.156 2.085-4.805 3.266-7.555 3.37zM173.604 85.638a.609.609 0 0 1-.414-.171.865.865 0 0 1-.245-.443 1.015 1.015 0 0 1 .026-.533.809.809 0 0 1 .285-.405c3.261-2.335 8.321-2.502 8.533-2.502a.573.573 0 0 1 .263.054.677.677 0 0 1 .226.172.846.846 0 0 1 .155.266.99.99 0 0 1 .016.639.874.874 0 0 1-.142.275.697.697 0 0 1-.217.19.582.582 0 0 1-.26.072c-.048 0-4.923.192-7.877 2.302a.58.58 0 0 1-.349.084zM201.911 86.722a.588.588 0 0 1-.321-.1c-3.691-2.02-7.719-2.957-11.761-2.736a.627.627 0 0 1-.483-.244.936.936 0 0 1-.2-.59c0-.221.072-.433.2-.59a.627.627 0 0 1 .483-.244c7.474-.267 12.246 2.803 12.444 2.936a.79.79 0 0 1 .301.398c.062.17.075.359.038.539a.873.873 0 0 1-.241.454.612.612 0 0 1-.419.177h-.041zM185.276 113.032c-.791.045-1.571-.228-2.223-.775-1.005-.951-1.306-2.645-.889-5.006 1.689-9.968 2.79-17.008 2.804-17.083a.863.863 0 0 1 .288-.531.587.587 0 0 1 .512-.128.693.693 0 0 1 .435.352.988.988 0 0 1 .105.624c0 .067-1.115 7.124-2.803 17.108-.301 1.711-.171 2.837.389 3.337 1.368 1.268 5.033-.534 6.222-1.259a.57.57 0 0 1 .5-.013.747.747 0 0 1 .373.406c.078.188.095.405.047.608a.826.826 0 0 1-.304.483c-.376.251-3.111 1.877-5.456 1.877zM198.972 94.73a.589.589 0 0 1-.322-.1l-4.444-2.92a.837.837 0 0 1-.298-.491 1.001 1.001 0 0 1 .057-.608.745.745 0 0 1 .382-.397.573.573 0 0 1 .502.029l4.444 2.92a.796.796 0 0 1 .301.397c.061.17.074.359.038.539a.867.867 0 0 1-.242.453.61.61 0 0 1-.418.178zM179.075 94.73a.59.59 0 0 1-.335-.108l-4.308-2.92a.831.831 0 0 1-.32-.507.994.994 0 0 1 .067-.635.723.723 0 0 1 .416-.391.58.58 0 0 1 .521.082l4.307 2.92c.132.09.235.231.293.4.059.17.07.359.032.537a.865.865 0 0 1-.243.448.61.61 0 0 1-.417.174h-.013z"/><path fill="#000" fill-rule="evenodd" d="M187.963 137.523s.068 4.838.205 11.511c21.743-1.668 25.094-24.357 25.094-24.357-3.333 4.316-7.392 7.702-11.897 9.926-4.923 2.336-10.53 2.753-14.222 2.753.267.092.542.148.82.167z" clip-rule="evenodd"/><path fill="#05BAD1" fill-rule="evenodd" d="M176.545 189.992s6.7-13.097 12.307-9.093c1.216.955 2.15 2.358 2.667 4.004h-2.12l3.351 119.12 20.649-.501-2.94-118.619h-4.992c2.667-5.338 7.863-7.841 16.889 4.588 5.06-5.338 10.872-13.43 11.897-21.354 0 0-5.401-19.353-12.718-20.104-.068.501-.205-.083-.205.251 3.693.25 9.915 12.846-14.29 24.441-2.872.417-5.128 6.089-6.701 12.178l-2.872 12.179-2.461-12.262-4.034-10.761s-6.359-4.087-7.18-7.007c-2.188-8.091 4.035-11.761 4.035-11.761l.273-1.168s-5.333 1.334-8 9.926c-4.649 10.177-3.555 25.943-3.555 25.943z" clip-rule="evenodd"/><path fill="#000" d="M197.673 199.668a.613.613 0 0 1-.447-.192.892.892 0 0 1-.237-.5c-.15-1.026-.294-2.085-.444-3.17-1.299-9.559-2.92-21.446-8.322-22.764a.855.855 0 0 1-.177-.075c-2.455-1.543-5.142-4.797-5.224-8.342-.075-3.754 1.552-7.357 4.704-10.435a.59.59 0 0 1 .485-.13.677.677 0 0 1 .429.305.971.971 0 0 1-.066 1.126c-2.803 2.736-4.253 5.881-4.185 9.092.055 2.361 1.901 5.214 4.404 6.816 5.873 1.543 7.658 12.195 9.046 22.213 1.812-11.995 4.971-20.428 6.584-21.046a.163.163 0 0 1 .082 0c11.426-2.502 20.068-12.103 19.884-18.677a6.287 6.287 0 0 0-.623-2.919c-.433-.88-1.064-1.59-1.818-2.044a.711.711 0 0 1-.226-.199.89.89 0 0 1-.141-.292 1.003 1.003 0 0 1 .044-.663.816.816 0 0 1 .178-.261.647.647 0 0 1 .249-.152.567.567 0 0 1 .277-.019.605.605 0 0 1 .261.118c.971.586 1.785 1.497 2.346 2.628a8.135 8.135 0 0 1 .82 3.753c.226 8.167-9.743 17.852-20.936 20.354-.916.651-4.636 9.501-6.284 24.741a.9.9 0 0 1-.229.521.615.615 0 0 1-.455.205l.021.008z"/><path fill="#000" fill-rule="evenodd" d="M176.544 189.992l18.803-5.338s-.889-7.174-3.008-10.01c-3.966-5.422-9.915 1.585-15.795 15.348zM222.356 189.492l-22.427-3.587c.205-.167.752-10.594 5.333-13.263 2.803-1.502 12.854 7.507 17.094 16.85z" clip-rule="evenodd"/><path fill="#43e898" fill-rule="evenodd" d="M240.817 213.349l-.068.083 58.802 77.661.068-.083c1.97 2.424 4.313 4.349 6.895 5.666 2.581 1.317 5.35 2 8.148 2.008 2.686.026 5.348-.615 7.825-1.883 2.477-1.268 4.717-3.136 6.584-5.492s3.322-5.15 4.277-8.212a29.035 29.035 0 0 0 1.28-9.605c-.167-5.815-1.924-11.394-4.992-15.849l.069-.083-57.162-75.409c-1.999-3.061-4.536-5.534-7.423-7.238-2.888-1.704-6.053-2.594-9.261-2.605-2.685-.025-5.348.615-7.825 1.883-2.476 1.268-4.716 3.136-6.583 5.492s-3.323 5.15-4.278 8.212a29.06 29.06 0 0 0-1.279 9.605c.054 5.826 1.798 11.441 4.923 15.849z" clip-rule="evenodd"/><path fill="#5347E9" d="M299.551 292.011a.59.59 0 0 1-.265-.074.705.705 0 0 1-.22-.193l-58.803-77.661a.925.925 0 0 1-.178-.442c-3.023-4.552-4.753-10.178-4.929-16.033a.985.985 0 0 1 .044-.321.889.889 0 0 1 .141-.276.709.709 0 0 1 .218-.189.579.579 0 0 1 .523-.019.677.677 0 0 1 .226.172.857.857 0 0 1 .155.266.99.99 0 0 1 .06.317c.169 5.627 1.87 11.025 4.834 15.34.071.104.12.227.144.359l58.324 77.035a.752.752 0 0 1 .443.48.991.991 0 0 1 0 .642.839.839 0 0 1-.149.271l-.069.084a.69.69 0 0 1-.229.183.571.571 0 0 1-.27.059zM287.175 248.968a.61.61 0 0 1-.424-.176.794.794 0 0 1-.175-.247.992.992 0 0 1 .059-.929c3.07-4.779 8.923-6.089 9.176-6.139a.587.587 0 0 1 .507.141.869.869 0 0 1 .279.535c.016.107.014.218-.005.325a.93.93 0 0 1-.107.298.774.774 0 0 1-.193.226.614.614 0 0 1-.249.118c-.054 0-5.593 1.251-8.328 5.531a.724.724 0 0 1-.24.234.588.588 0 0 1-.3.083z"/><path fill="#000" fill-rule="evenodd" d="M258.799 248.133c1.709 0 3.35 9.676 3.692 21.605.342 11.929-.821 21.605-2.53 21.605-1.709 0-3.35-9.676-3.692-21.605-.342-11.929.82-21.605 2.53-21.605zM273.09 248.3c2.052 0 4.034 11.178 4.376 25.025.342 13.848-.957 25.025-3.008 25.025s-4.034-11.177-4.376-25.025c-.342-13.847.957-25.025 3.008-25.025z" clip-rule="evenodd"/><path fill="#000" fill-rule="evenodd" d="M270.834 248.133h2.325l.068 2.92h-2.325l-.068-2.92z" clip-rule="evenodd"/><path fill="#05BAD1" fill-rule="evenodd" d="M262.287 269.822c.342 11.679-.752 21.188-2.462 21.355l12.65-.084v-.083c1.572-.667 2.598-9.927 2.325-21.355-.342-11.678-1.915-21.187-3.624-21.354 0-.084 0-.084-.069-.084l-12.444-.167c1.709.751 3.282 10.428 3.624 21.772z" clip-rule="evenodd"/><path fill="#FFB9B2" fill-rule="evenodd" d="M260.782 267.987c-.274-9.593-1.504-17.434-2.735-17.434h-10.803c-.342-.083-1.983-.334-5.06-2.669l-17.504-28.028s-2.803 2.085-3.214 8.091c-.068 0-.205-.083-.273-.083v-.251h-12.034v.084a3.765 3.765 0 0 0-.957-.084 7.142 7.142 0 0 0-3.256.724c-1.035.499-1.98 1.243-2.78 2.188-.8.945-1.44 2.073-1.882 3.319a12.307 12.307 0 0 0-.698 3.946 10.494 10.494 0 0 0 .411 3.003 10.873 10.873 0 0 0-.411 3.003c.01 1.226.195 2.44.547 3.587a12.19 12.19 0 0 0-.547 3.587c.01 1.225.195 2.439.547 3.587a12.185 12.185 0 0 0-.547 3.587c.018 1.358.255 2.699.698 3.946a10.635 10.635 0 0 0 1.882 3.319c.8.946 1.745 1.689 2.78 2.189a7.154 7.154 0 0 0 3.256.723c.442.02.883-.065 1.299-.251h3.555v-6.089l5.265.501s2.188 5.922 3.009 7.507c4.991 10.344 11.35 14.264 18.119 15.182l.137.25h19.487c1.162-.167 1.914-7.841 1.709-17.434z" clip-rule="evenodd"/><path fill="#000" d="M218.527 263.483h-8.684a.63.63 0 0 1-.484-.245.934.934 0 0 1-.2-.589c0-.222.072-.434.2-.59a.63.63 0 0 1 .484-.245h8.684c.181 0 .355.088.483.245.128.156.2.368.2.59a.934.934 0 0 1-.2.589.626.626 0 0 1-.483.245zM199.792 243.12a.616.616 0 0 1-.453-.201.903.903 0 0 1-.231-.516 5.853 5.853 0 0 1 .247-1.936c.189-.618.48-1.183.854-1.659 1.949-2.72 6.044-4.104 12.157-4.104h7.829c2.25 0 2.386 0 2.393.834.007.834-.684.834-1.046.834a.636.636 0 0 1-.246-.05h-8.93c-7.036 0-9.914 1.893-11.083 3.478-.517.618-.812 1.461-.821 2.344a.974.974 0 0 1-.143.608.67.67 0 0 1-.452.31l-.075.058zM199.792 250.628a.617.617 0 0 1-.453-.202.9.9 0 0 1-.231-.515 5.85 5.85 0 0 1 .247-1.936c.189-.619.48-1.183.854-1.66 1.949-2.719 6.044-4.104 12.157-4.104h7.829c2.25 0 2.386 0 2.393.834.007.834-.684.834-1.046.834a.602.602 0 0 1-.246-.05h-8.93c-7.036 0-9.914 1.894-11.083 3.479-.517.618-.812 1.461-.821 2.344a.97.97 0 0 1-.143.607.671.671 0 0 1-.452.311l-.075.058zM199.792 258.97a.617.617 0 0 1-.453-.202.9.9 0 0 1-.231-.516 5.853 5.853 0 0 1 .247-1.936c.189-.618.48-1.183.854-1.659 1.949-2.719 6.044-4.104 12.157-4.104h7.829c2.25 0 2.386 0 2.393.834.007.834-.684.834-1.046.834a.619.619 0 0 1-.246-.05h-8.93c-7.036 0-9.914 1.894-11.083 3.479-.517.618-.812 1.461-.821 2.344a.973.973 0 0 1-.143.607.667.667 0 0 1-.452.31l-.075.059z"/><path fill="#43e898" fill-rule="evenodd" d="M272.953 248.3c1.573 1.085 3.077 12.346 3.487 25.693.342 12.512-.41 22.439-1.778 24.775h39.932v-.084h.068c2.686.026 5.348-.615 7.825-1.883 2.477-1.268 4.717-3.136 6.584-5.492s3.322-5.15 4.277-8.212a29.034 29.034 0 0 0 1.279-9.605c-.218-6.74-2.556-13.119-6.529-17.81-3.973-4.692-9.275-7.335-14.804-7.382h-40.341z" clip-rule="evenodd"/><path fill="#5347E9" d="M313.089 251.554a.582.582 0 0 1-.253-.059c-.048 0-5.258-2.444-16.909-2.444-11.829 0-22.803-.083-22.912-.083a.628.628 0 0 1-.484-.245.935.935 0 0 1-.2-.59c0-.221.072-.433.2-.589a.628.628 0 0 1 .484-.245c.109 0 11.07.084 22.899.084 11.958 0 17.196 2.452 17.415 2.561a.746.746 0 0 1 .348.374 1 1 0 0 1 .072.558.886.886 0 0 1-.237.487.614.614 0 0 1-.436.191h.013z"/></svg>