<svg xmlns="http://www.w3.org/2000/svg" fill="none" viewBox="0 0 235 250"><path fill="#4C6FFF" d="M131.223 36.122l59.693 33.044c8.492 4.701 13.723 13.388 13.723 22.79v66.088c0 9.402-5.231 18.089-13.723 22.79l-59.693 33.044c-8.492 4.701-18.954 4.701-27.446 0l-59.693-33.044c-8.492-4.701-13.723-13.388-13.723-22.79V91.956c0-9.402 5.231-18.089 13.723-22.79l59.693-33.044c8.492-4.7 18.954-4.7 27.446 0z"/><path fill="#4C6FFF" fill-rule="evenodd" d="M134.653 4.407c-10.614-5.876-23.692-5.876-34.306 0L17.153 50.46C6.54 56.336 0 67.195 0 78.947v92.106c0 11.752 6.539 22.611 17.153 28.487l83.194 46.053c10.614 5.876 23.692 5.876 34.306 0l83.194-46.053C228.461 193.664 235 182.805 235 171.053V78.947c0-11.752-6.539-22.611-17.153-28.487L134.653 4.407zm-34.306 26.018c10.614-5.876 23.692-5.876 34.306 0l59.694 33.044c10.614 5.876 17.153 16.735 17.153 28.487v66.088c0 11.752-6.539 22.611-17.153 28.487l-59.694 33.044c-10.614 5.876-23.692 5.876-34.306 0l-59.694-33.044C30.04 180.655 23.5 169.796 23.5 158.044V91.956c0-11.752 6.539-22.611 17.153-28.487l59.694-33.044z" clip-rule="evenodd"/></svg>