<svg xmlns="http://www.w3.org/2000/svg" fill="none" viewBox="0 0 179 100"><mask id="a" style="mask-type:alpha" width="179" height="100" x="0" y="0" maskUnits="userSpaceOnUse"><path fill="#C4C4C4" d="M0 0h179v92a8 8 0 0 1-8 8H0V0z"/></mask><g mask="url(#a)"><path fill="url(#paint0_linear_737_70212)" d="M179.125.224l-.125 100L0 100C.07 44.771 80.266.1 179.125.224z"/></g><path fill="#fff" d="M53.63 47.455H41.668V62h3.04V49.955h5.88V62h3.04V47.455zm7.8 14.758c3.309 0 5.369-2.266 5.369-5.625 0-3.38-2.06-5.64-5.37-5.64s-5.369 2.26-5.369 5.64c0 3.36 2.06 5.625 5.37 5.625zm.014-2.344c-1.528 0-2.309-1.399-2.309-3.302 0-1.904.782-3.31 2.309-3.31 1.498 0 2.28 1.406 2.28 3.31 0 1.903-.782 3.302-2.28 3.302zm6.47 5.327h2.954V62h6.67v3.196h2.883v-5.597h-1.69v-8.508h-8.367l-.284 3.565c-.17 2.145-.376 4.34-1.328 4.943h-.838v5.597zm3.85-5.597c.645-1.015.894-2.613 1.057-4.943l.114-1.236h2.94v6.18h-4.112zm10.42 6.492h3.026v-5.838h.092c.419.909 1.335 1.925 3.096 1.925 2.486 0 4.425-1.968 4.425-5.618 0-3.75-2.024-5.611-4.417-5.611-1.826 0-2.7 1.087-3.104 1.974h-.135v-1.832h-2.983v15zm2.962-9.545c0-1.947.823-3.19 2.294-3.19 1.498 0 2.294 1.3 2.294 3.19 0 1.903-.81 3.224-2.294 3.224-1.456 0-2.294-1.279-2.294-3.225zm14.623 5.667c3.31 0 5.369-2.266 5.369-5.625 0-3.38-2.059-5.64-5.369-5.64-3.31 0-5.37 2.26-5.37 5.64 0 3.36 2.06 5.625 5.37 5.625zm.014-2.344c-1.527 0-2.308-1.399-2.308-3.302 0-1.904.781-3.31 2.308-3.31 1.499 0 2.28 1.406 2.28 3.31 0 1.903-.781 3.302-2.28 3.302zm16.392-12.784c-.532.377-1.385.37-2.549.37-.277 0-.568-.008-.881 0-3.97.035-6.044 2.52-6.044 7.776v.895c0 3.964 2.045 6.087 5.348 6.087 3.295 0 5.334-2.123 5.334-5.455 0-3.196-1.868-5.106-4.652-5.106-1.754 0-2.933.76-3.587 2.095h-.106c.255-2.677 1.278-3.778 3.806-3.807 2.238-.035 3.324-.113 4.255-.88l-.924-1.975zm-4.112 12.784c-1.427 0-2.287-1.15-2.287-3.011.014-1.86.867-2.912 2.273-2.912 1.399 0 2.259 1.051 2.259 2.912 0 1.868-.86 3.011-2.245 3.011zm10.219-8.778h-2.891V62h2.891v-4.283h3.728V62h2.87V51.09h-2.87v4.248h-3.728v-4.247zm13.917 11.122c2.698 0 4.517-1.314 4.943-3.338l-2.799-.185c-.305.831-1.086 1.265-2.095 1.265-1.513 0-2.471-1.002-2.471-2.628v-.007h7.429v-.831c0-3.708-2.245-5.54-5.128-5.54-3.21 0-5.291 2.28-5.291 5.646 0 3.459 2.052 5.618 5.412 5.618zm-2.422-6.768c.064-1.243 1.008-2.238 2.35-2.238 1.314 0 2.223.938 2.231 2.238h-4.581zm14.375 6.768c2.698 0 4.517-1.314 4.943-3.338l-2.798-.185c-.306.831-1.087 1.265-2.096 1.265-1.512 0-2.471-1.002-2.471-2.628v-.007h7.429v-.831c0-3.708-2.245-5.54-5.128-5.54-3.21 0-5.291 2.28-5.291 5.646 0 3.459 2.052 5.618 5.412 5.618zm-2.422-6.768c.064-1.243 1.008-2.238 2.351-2.238 1.314 0 2.223.938 2.23 2.238h-4.581z"/><defs><linearGradient id="paint0_linear_737_70212" x1="64" x2="116.709" y1="31.5" y2="132.676" gradientUnits="userSpaceOnUse"><stop stop-color="#5594FF"/><stop offset="1" stop-color="#3058FF"/></linearGradient></defs></svg>