<svg xmlns="http://www.w3.org/2000/svg" fill="none" viewBox="0 0 525 594"><path fill="#3754DB" d="M115.917 561.437V438.949c-1.475 5.262-4.397 8.654-9.816 7.133-10.571-2.958-5.41-17.456-.221-27.668-18.074-6.838-32.166-8.94-32.166-8.94s-7.447 12.148-13.825 30.387c11.152 2.581 25.576 7.945 21.05 17.954-4.313 9.539-16.073 1.549-24.7-6.258a159.095 159.095 0 0 0-3.3 14.654c-20.801-5.023-37.271-4.746-37.271-4.746s-.516 30.94 12.792 61.567h-.009c-6.977 5.576-7.972 16.156-1.613 22.94l27.908 29.769-34.055-10.589c-8.793-2.738-17.714 3.834-17.714 13.041 0 7.539 6.11 13.659 13.659 13.659H146.34c-16.802.009-30.424-13.613-30.424-30.415zM522.939 541.419s-13.991-13.327-35.696-24.405l-.009-.01c2.415-9.465 3.825-18.875 4.544-27.705-11.973 4.876-27.291 8.738-28.166-2.857-.922-12.166 16.175-12.286 28.802-10.746.267-21.466-2.894-36.977-2.894-36.977s-15.512-3.162-36.977-2.894c1.539 12.626 1.419 29.723-10.747 28.801-11.594-.884-7.733-16.193-2.857-28.165-9.226.755-19.069 2.239-28.959 4.857l.056 7.318c8.442 8.166 15.29 18.064 7.041 23.834-2.525 1.76-4.875 2.046-7.041 1.262l-.046 1.457.055 81.963c.442.074.912.193 1.392.35 10 3.198 7.53 17.364 3.686 28.691 9.42 2.194 20.212.885 31.982-6.986 43.069-6.562 75.834-37.788 75.834-37.788z"/><path stroke="#13252F" stroke-linecap="round" stroke-linejoin="round" stroke-width="4" d="M481.871 533.649c-4.184 10.498-9.917 20.701-17.686 29.899-5.318-11.134-18.461-34.977-29.318-24.654-10.996 10.451 13.594 24.424 24.553 29.898M485.141 524.433c-8.663-10.47-22.202-23.502-29.373-13.263-4.94 7.06 1.761 12.784 10.691 16.968"/><path stroke="#13252F" stroke-linecap="round" stroke-linejoin="round" stroke-width="4" d="M492.414 475.705c-12.627-1.54-29.724-1.42-28.802 10.746.885 11.595 16.193 7.733 28.166 2.857-.903 11.143-2.894 23.189-6.645 35.134M438.939 436.46c-4.876 11.973-8.737 27.291 2.857 28.166 6.618.507 9.668-4.322 10.83-10.857M410.027 518.212l33.982-33.973M73.688 409.152s-7.448 12.147-13.825 30.387c11.152 2.581 25.576 7.945 21.05 17.954-4.313 9.539-16.073 1.548-24.7-6.258M115.917 499.723l-17.751-38.065M16.314 474.138c-.765-7.982-.682-12.986-.682-12.986s58.894-.996 94.617 34.719a93.081 93.081 0 0 1 5.714 6.267M89.797 580.276c-13.714-5.142-27.806-12.884-39.437-24.516-12.784-12.783-20.857-28.525-25.963-43.484M85.482 531.004l30.434 30.434M44.893 490.405l27.806 27.806"/><path fill="#3754DB" d="M379.603 591.539h-233.29c-16.802 0-30.424-13.622-30.424-30.424V74.257c0-16.801 13.622-30.424 30.424-30.424h233.281c16.802 0 30.424 13.623 30.424 30.424v486.849c.009 16.811-13.613 30.433-30.415 30.433z"/><path fill="#fff" d="M379.603 581.391h-233.29c-11.207 0-20.286-9.078-20.286-20.286V94.543c0-11.207 9.079-20.286 20.286-20.286h233.281c11.208 0 20.286 9.079 20.286 20.286v466.562c.009 11.208-9.078 20.286-20.277 20.286z"/><path fill="#05BAD1" d="M294.553 405.75l-30.876 19.927-30.553-17.576-4.47 5.391 32.231 167.899h5.603l33.235-171.005-5.17-4.636z"/><path fill="#4C6FFF" d="M270.895 453.778l7.732-15.106-14.949-12.995-13.355 14.58 8.562 13.521-13.299 47.89 15.299 79.723h5.604l15.493-79.723-11.087-47.89z"/><path fill="#13252F" d="M312.672 254.986s13.576 19.299 6.94 55.585c-2.286.442-4.396 1.465-6.194 2.94.609-30.857-12.82-40.415-12.82-40.415a44.783 44.783 0 0 1-4.59 3.208c-35.124 21.483-73.963-6.406-73.963-6.406s-13.226 17.198-11.014 44.046a17.162 17.162 0 0 0-6.719-1.355s-2.396-15.76-2.396-32.838c0-17.079 5.253-41.254 34.378-49.309 29.217-8.083 45.244 11.779 73.41-6.682 0 0 7.254 15.521 2.968 31.226z"/><path stroke="#13252F" stroke-linecap="round" stroke-linejoin="round" stroke-width="4" d="M213.869 43.833H329.04M163.806 591.539h-17.493c-16.802 0-30.424-13.622-30.424-30.424v-376.24M410.027 379.539v181.566c0 16.802-13.622 30.424-30.424 30.424H218.912M410.027 133.06v155.198M126.027 290.635v-105.76M126.029 561.106V398.46"/><path stroke="#13252F" stroke-linecap="round" stroke-linejoin="round" stroke-width="4" d="M341.087 581.391H146.313c-11.207 0-20.286-9.078-20.286-20.286M399.889 379.539v181.566M399.889 214.083v74.175M255.668 393.281c2.516.47 5.18.719 8.009.719 45.761 0 48.433-54.479 48.433-54.479M215.234 343.207s5.733 35.3 30.922 47.042"/><path stroke="#13252F" stroke-linecap="round" stroke-linejoin="round" stroke-width="4" d="M215.235 343.207a17.22 17.22 0 0 1-10.931 3.898c-9.53 0-17.263-7.723-17.263-17.262 0-9.539 7.724-17.263 17.263-17.263 2.387 0 4.654.479 6.719 1.355M313.411 313.511c2.451-2 5.456-3.179 8.719-3.179 8.212 0 14.875 7.511 14.875 16.783 0 9.272-6.663 16.783-14.875 16.783-3.862 0-7.374-1.659-10.019-4.378"/><path stroke="#13252F" stroke-linecap="round" stroke-linejoin="round" stroke-width="4" d="M204.312 312.589s-2.396-15.76-2.396-32.838c0-17.079 5.253-41.254 34.378-49.309 29.217-8.083 45.244 11.779 73.41-6.682 0 0 16.037 34.35-13.705 52.544-35.124 21.483-73.963-6.406-73.963-6.406s-13.226 17.198-11.014 44.046M312.672 254.986s13.576 19.299 6.94 55.585M300.59 273.096s13.438 9.558 12.82 40.415M208.82 323.207c-5.576-5.097-16.599-1.106-13.152 10.746M315.42 323.41c3.511-5.788 14.977-4.378 13.428 6.433"/><path fill="#13252F" d="M239.465 325.907a4.875 4.875 0 1 0 .002-9.75 4.875 4.875 0 0 0-.002 9.75z"/><path stroke="#13252F" stroke-linecap="round" stroke-linejoin="round" stroke-width="4" d="M284.359 337.557c9.127 0 16.526-7.399 16.526-16.525 0-9.127-7.399-16.526-16.526-16.526-9.126 0-16.525 7.399-16.525 16.526 0 9.126 7.399 16.525 16.525 16.525zM239.465 337.557c9.127 0 16.525-7.399 16.525-16.525 0-9.127-7.398-16.526-16.525-16.526-9.127 0-16.526 7.399-16.526 16.526 0 9.126 7.399 16.525 16.526 16.525z" clip-rule="evenodd"/><path stroke="#13252F" stroke-linecap="round" stroke-linejoin="round" stroke-width="4" d="M255.668 317.769a8.778 8.778 0 0 1 6.249-2.59c2.442 0 4.645.986 6.239 2.59M262.498 332.285s-9.032 18.526-4.406 24.903c2.544 3.512 7.982 2.747 7.982 2.747M276.756 371.069a18.464 18.464 0 0 1-9.466 5.751c-3.815.949-7.64.636-11.06-.664M251.816 418.857l11.861 6.82-19.668 21.484-15.355-33.668 4.47-5.392 9.364 5.392"/><path stroke="#13252F" stroke-linecap="round" stroke-linejoin="round" stroke-width="4" d="M272.625 433.456l14.922 12.977 12.175-36.047-5.171-4.636-30.875 19.927"/><path stroke="#13252F" stroke-linecap="round" stroke-linejoin="round" stroke-width="4" d="M250.322 440.258l8.562 13.52h12.01l7.732-15.106M245.586 501.667l15.299 79.724M188.652 450.746l40-37.253M210.746 462.931l-14.369-7.927M237.059 548.7l-36.286-64.35M289.021 465.456l-13.253 68.193M319.455 460.939l19.724-13.779-39.456-36.774M271.725 581.364l55.06-99.493-13.014-16.959M249.215 488.581l-3.631 13.087M258.885 453.778l-6.489 23.364M270.893 453.778l11.087 47.89M240.692 387.142l-4.645 22.645M287.548 387.566c-.147.102 4.848 19.586 4.848 19.586M222.931 418.857c-32.691 10.534-63.898 20.461-80.931 43.207-2.958 3.945-5.825 9.245-8.387 15.309M317.051 417.76c29.262 10.027 57.557 26.304 71.355 44.617 4.719 6.268 8.488 17.88 11.474 31.687M265.537 512.304c1.622 6.497 2.498 13.438 2.498 20.663v11.088c0 8.442-6.839 15.281-15.281 15.281v0M185.078 559.327v0c-8.442 0-15.281-6.839-15.281-15.281v-11.088c0-7.152.857-14.046 2.451-20.488"/><path fill="#13252F" d="M190.536 553.871h4.369a5.455 5.455 0 0 1 5.456 5.456 5.455 5.455 0 0 1-5.456 5.456h-4.369a5.455 5.455 0 0 1-5.456-5.456 5.455 5.455 0 0 1 5.456-5.456zM242.931 553.871h4.368a5.456 5.456 0 1 1 0 10.912h-4.368a5.455 5.455 0 0 1-5.456-5.456 5.455 5.455 0 0 1 5.456-5.456z"/><path stroke="#13252F" stroke-linecap="round" stroke-linejoin="round" stroke-width="4" d="M218.996 431.198v16.534M324.562 478.967v-21.594M324.562 537.078v-51.18"/><path fill="#13252F" d="M284.36 325.907a4.875 4.875 0 1 0 0-9.751 4.876 4.876 0 1 0 0 9.751z"/><path stroke="#13252F" stroke-linecap="round" stroke-linejoin="round" stroke-width="4" d="M247.742 59.299h30.433"/><path fill="#13252F" d="M231.52 64.174a4.876 4.876 0 1 0 0-9.751 4.876 4.876 0 0 0 0 9.751z"/><path fill="#05BAD1" d="M269.032 506.037c-7.668-24.655-25.06-41.236-45.133-43.613l.055-9.715a4.96 4.96 0 0 0-4.931-4.986h-.027a4.96 4.96 0 0 0-4.959 4.931l-.055 9.76c-20.102 2.351-37.512 18.94-45.189 43.613a4.952 4.952 0 0 0 3.262 6.203 4.955 4.955 0 0 0 6.203-3.263c6.977-22.442 22.931-36.94 40.645-36.94 17.715 0 33.669 14.498 40.646 36.94a4.965 4.965 0 0 0 4.737 3.484c.488 0 .986-.073 1.475-.221a4.924 4.924 0 0 0 3.271-6.193z"/><path stroke="#13252F" stroke-linecap="round" stroke-linejoin="round" stroke-width="4" d="M218.913 472.046c17.714 0 33.668 14.497 40.645 36.94a4.965 4.965 0 0 0 4.737 3.484c.489 0 .986-.074 1.475-.221a4.962 4.962 0 0 0 3.262-6.212c-7.668-24.655-25.06-41.236-45.133-43.613l.055-9.715a4.96 4.96 0 0 0-4.931-4.986h-.027a4.96 4.96 0 0 0-4.959 4.931l-.055 9.76c-20.102 2.351-37.512 18.94-45.189 43.613a4.952 4.952 0 0 0 3.262 6.203 4.955 4.955 0 0 0 6.203-3.263 72.405 72.405 0 0 1 2.71-7.318"/><path fill="#05BAD1" d="M324.562 553.603c9.127 0 16.526-7.399 16.526-16.525 0-9.127-7.399-16.526-16.526-16.526-9.126 0-16.525 7.399-16.525 16.526 0 9.126 7.399 16.525 16.525 16.525z"/><path stroke="#13252F" stroke-linecap="round" stroke-linejoin="round" stroke-width="4" d="M341.088 537.078c0 9.124-7.401 16.525-16.526 16.525-9.124 0-16.525-7.401-16.525-16.525 0-9.125 7.401-16.526 16.525-16.526 3.014 0 5.835.802 8.268 2.212"/><path stroke="#13252F" stroke-linecap="round" stroke-linejoin="round" stroke-width="4" d="M316.544 539.105a8.139 8.139 0 0 1-.249-2.027 8.266 8.266 0 0 1 8.267-8.267 8.265 8.265 0 0 1 8.267 8.267 8.265 8.265 0 0 1-11.741 7.502M54.719 575.437L26.81 545.668c-6.36-6.784-5.364-17.364 1.613-22.94M69.53 591.539H16.608c-7.539 0-13.659-6.111-13.659-13.659v0M500.304 524.433c14.092 8.848 22.645 16.986 22.645 16.986s-32.774 31.226-75.844 37.806M126.027 103.732v-9.189c0-11.207 9.079-20.286 20.286-20.286h167.945M198.103 43.833h-15.355M205.417 591.539h-12.7"/><path fill="#fff" d="M466.827 379.54H337.002l22.313-22.313v-54.774c0-7.844 6.36-14.203 14.203-14.203h93.309c7.843 0 14.203 6.359 14.203 14.203v62.885c0 7.843-6.36 14.202-14.203 14.202z"/><path stroke="#13252F" stroke-linecap="round" stroke-linejoin="round" stroke-width="4" d="M359.315 346.149v-43.696c0-7.844 6.36-14.203 14.203-14.203h93.309c7.843 0 14.203 6.359 14.203 14.203v62.885c0 7.843-6.36 14.202-14.203 14.202H337.002l22.313-22.313"/><path fill="#13252F" d="M390.753 340.73a6.83 6.83 0 1 0 0-13.66 6.83 6.83 0 0 0 0 13.66zM420.171 340.73a6.83 6.83 0 1 0 0-13.66 6.83 6.83 0 0 0 0 13.66zM449.583 340.73a6.83 6.83 0 1 0 .001-13.659 6.83 6.83 0 0 0-.001 13.659z"/><path fill="#fff" d="M278.174 184.875H55.031c-5.604 0-10.138-4.543-10.138-10.138V113.88c0-5.604 4.543-10.138 10.138-10.138h223.143c5.603 0 10.138 4.543 10.138 10.138v60.857c0 5.595-4.535 10.138-10.138 10.138z"/><path stroke="#13252F" stroke-linecap="round" stroke-linejoin="round" stroke-width="4" d="M44.893 113.871c0-5.604 4.543-10.139 10.138-10.139h223.143c5.603 0 10.138 4.544 10.138 10.139v60.857c0 5.604-4.544 10.138-10.138 10.138M247.741 184.875H55.031c-5.604 0-10.138-4.544-10.138-10.138v-51.834"/><path stroke="#13252F" stroke-linecap="round" stroke-linejoin="round" stroke-width="4" d="M271.38 125.622a13.146 13.146 0 0 1 1.715 6.507c0 7.281-5.908 13.189-13.189 13.189s-13.189-5.908-13.189-13.189 5.908-13.189 13.189-13.189c1.788 0 3.493.359 5.05 1.005"/><path stroke="#13252F" stroke-linecap="round" stroke-linejoin="round" stroke-width="4" d="M259.916 126.046v6.083l3.226 3.226M111.832 128.074h111.567M111.832 144.304h111.567M111.832 160.534h50.71"/><path fill="url(#paint0_linear_42_4079)" fill-rule="evenodd" d="M62.127 134.792c0-8.405 6.811-15.216 15.217-15.216 8.405 0 15.216 6.82 15.216 15.216 0 13.309-15.216 34.231-15.216 34.231s-15.217-20.922-15.217-34.231zm8.12.01a7.1 7.1 0 0 0 7.097 7.097 7.094 7.094 0 0 0 7.096-7.097 7.1 7.1 0 0 0-7.096-7.097 7.1 7.1 0 0 0-7.097 7.097z" clip-rule="evenodd"/><path stroke="#13252F" stroke-linecap="round" stroke-linejoin="round" stroke-width="4" d="M84.08 158.451c-3.492 6.111-6.736 10.581-6.736 10.581s-15.217-20.922-15.217-34.23c0-8.406 6.811-15.217 15.217-15.217 2.1 0 4.1.424 5.926 1.198"/><path fill="#3754DB" d="M389.902 148.055c36.378-21.659 60.857-62.129 60.857-108.479 0-4.23-.203-8.405-.608-12.525 0 0-31.668-3.466-60.249-25.051-28.581 21.585-60.249 25.05-60.249 25.05-.396 4.12-.608 8.296-.608 12.526 0 46.35 24.479 86.82 60.857 108.479z"/><path stroke="#13252F" stroke-linecap="round" stroke-linejoin="round" stroke-width="4" d="M405.736 12.148c-5.235-2.83-10.59-6.185-15.834-10.148-28.581 21.585-60.249 25.05-60.249 25.05-.396 4.12-.608 8.296-.608 12.526 0 46.36 24.479 86.83 60.857 108.479v0c12.507-7.447 23.604-17.106 32.783-28.479"/><path fill="#fff" d="M383.727 97.917l-24.092-24.092 10.322-10.332 13.77 13.77 30.986-30.987 10.323 10.332-41.309 41.309z"/><path stroke="#13252F" stroke-linecap="round" stroke-linejoin="round" stroke-width="4" d="M425.035 56.608l-41.309 41.31-19.613-19.614"/><defs><linearGradient id="paint0_linear_42_4079" x1="92.56" x2="48.416" y1="119.576" y2="146.745" gradientUnits="userSpaceOnUse"><stop stop-color="#D665FF"/><stop offset="1" stop-color="#4C6FFF"/></linearGradient></defs></svg>