<svg xmlns="http://www.w3.org/2000/svg" fill="none" viewBox="0 0 520 30"><path fill="#05BAD1" fill-rule="evenodd" d="M220.85 2.853c-24.43.978-48.573 2.18-72.116 3.495-33.329 1.86-66.644 3.783-99.758 6.829-10.424.962-21.01 1.57-31.368 2.773-6.502.754-15.124 1.828-16.256 2.052-.592.128-.85.32-.933.385-.587.449-.48.881-.149 1.218.133.144.47.497 1.403.545 62.422 3.286 126.252-3.126 188.75-3.8 108.383-1.153 220.051 3.431 327.573 13.434.939.08 1.851-.32 1.981-.914.157-.577-.521-1.138-1.459-1.218-107.705-10.019-219.556-14.62-328.147-13.45-58.245.626-117.64 6.253-175.967 4.329 1.34-.16 2.654-.32 3.853-.465 10.317-1.202 20.858-1.795 31.24-2.757 33.044-3.046 66.292-4.97 99.576-6.813C190.371 6.188 233.469 4.2 276.905 3.27c15.539.144 31.026.289 46.513.465 33.503.385 67.163 1.507 100.587 3.014 10.064.465 20.128.946 30.192 1.362 3.337.145 11.941.561 13.141.53 1.486-.033 1.772-.802 1.798-.93.079-.289.026-.69-.704-1.026-.078-.048-.547-.209-1.59-.305C406.067.705 341.174-.24 276.957 1.122 209.222.53 141.225.272 73.661 0c-.967 0-1.757.481-1.765 1.074-.005.593.774 1.074 1.742 1.09 48.922.193 98.091.385 147.212.69z" clip-rule="evenodd"/></svg>