<svg xmlns="http://www.w3.org/2000/svg" fill="none" viewBox="0 0 24 24"><path fill="#4C6FFF" d="M20.202 18.556C19.136 16.838 16.793 15 12 15s-7.136 1.838-8.202 3.556A10.48 10.48 0 0 0 12 22.5a10.48 10.48 0 0 0 8.202-3.944z"/><path fill="#4C6FFF" fill-rule="evenodd" d="M12 13.5a4.5 4.5 0 1 0 0-9 4.5 4.5 0 0 0 0 9z" clip-rule="evenodd"/><path fill="#4C6FFF" fill-rule="evenodd" d="M12 1.5C6.201 1.5 1.5 6.201 1.5 12S6.201 22.5 12 22.5 22.5 17.799 22.5 12 17.799 1.5 12 1.5zM0 12C0 5.373 5.373 0 12 0s12 5.373 12 12-5.373 12-12 12S0 18.627 0 12z" clip-rule="evenodd"/></svg>