<svg xmlns="http://www.w3.org/2000/svg" fill="none" viewBox="0 0 24 24"><g clip-path="url(#clip0_652_84591)"><path fill="#E3FCFD" d="M9 17.625h6v4.125H9v-4.125zM.75 6V3.375A1.125 1.125 0 0 1 1.875 2.25h20.25a1.125 1.125 0 0 1 1.125 1.125V16.5a1.125 1.125 0 0 1-1.125 1.125H1.875A1.125 1.125 0 0 1 .75 16.5V9"/><path fill="#4C6FFF" d="M1.125 14.625h21.75v3H1.125v-3z"/><path fill="#4C6FFF" d="M22.125 1.5H1.875A1.875 1.875 0 0 0 0 3.375V6a.75.75 0 1 0 1.5 0V3.375A.375.375 0 0 1 1.875 3h20.25a.375.375 0 0 1 .375.375v10.5h-21V9A.75.75 0 0 0 0 9v7.5a1.875 1.875 0 0 0 1.875 1.875H8.25v3.375a.75.75 0 0 0 .75.75h8.25a.75.75 0 1 0 0-1.5h-1.5v-2.625h6.375A1.875 1.875 0 0 0 24 16.5V3.375A1.875 1.875 0 0 0 22.125 1.5zM14.25 21h-4.5v-2.625h4.5V21zm7.875-4.125H1.875A.375.375 0 0 1 1.5 16.5v-1.125h21V16.5a.375.375 0 0 1-.375.375zM20.25 22.5a.75.75 0 1 0 0-1.5.75.75 0 0 0 0 1.5z"/><path fill="#4C6FFF" d="M12 5.625a.75.75 0 0 0-.75.75V7.5h-1.125a.75.75 0 0 0 0 1.5h1.125v1.125a.75.75 0 1 0 1.5 0V9h1.125a.75.75 0 1 0 0-1.5H12.75V6.375a.75.75 0 0 0-.75-.75z"/></g><defs><clipPath id="clip0_652_84591"><path fill="#fff" d="M0 0h24v24H0z"/></clipPath></defs></svg>