<svg xmlns="http://www.w3.org/2000/svg" fill="none" viewBox="0 0 24 24"><g clip-path="url(#clip0_652_84608)"><path fill="#05BAD1" d="M10 12.999A2 2 0 1 0 10 9a2 2 0 0 0 0 3.999zM14 14c-1.103 0-2 .896-2 1.999a1 1 0 1 0 2.001 0 1 1 0 0 0-.002-2z"/><path fill="#4C6FFF" d="M23 16c-.188 0-.365-.041-.532-.104.329-.184.63-.419.873-.722l.438-.547a1 1 0 1 0-1.561-1.25l-.44.549c-.181.228-.438.39-.745.351a.93.93 0 0 1-.735-.375.976.976 0 0 0-.381-.294c.048-.363.081-.73.081-1.107 0-1.131-.227-2.21-.629-3.196a3.356 3.356 0 0 0 1.579-1.52l.073-.033a.72.72 0 0 1 .618.01.723.723 0 0 1 .39.48 1.001 1.001 0 0 0 1.941-.484 2.719 2.719 0 0 0-2.686-2.063 3.41 3.41 0 0 0-.426-1.208 1 1 0 0 0-1.716 1.027c.217.361.259.795.118 1.192a1.396 1.396 0 0 1-.833.846l-.01.004.018.049a8.504 8.504 0 0 0-5.979-3.549 4.458 4.458 0 0 0-.253-1.142l.103-.124a2.193 2.193 0 0 1 1.692-.792A.997.997 0 0 0 15 1a1 1 0 0 0-1-1c-1.12 0-2.164.46-2.948 1.242A4.417 4.417 0 0 0 8.672.086L8.14.01a1 1 0 1 0-.283 1.98l.531.075A2.473 2.473 0 0 1 10.46 4.07 8.458 8.458 0 0 0 6.195 5.87a2.852 2.852 0 0 0-3.471-1.83 1 1 0 1 0 .55 1.923.847.847 0 0 1 1.04.568l.226.758c.023.076.064.142.103.21a8.434 8.434 0 0 0-1.562 3.886A1.436 1.436 0 0 1 2 10.002 1 1 0 1 0 0 10a3.447 3.447 0 0 0 2.764 3.373l.29.058a8.48 8.48 0 0 0 2.467 5.103l-.22.736c-.15.503-.636.817-1.158.742a1.001 1.001 0 0 0-.283 1.98 3.03 3.03 0 0 0 1.889-.336v.02a.574.574 0 0 1-.277.476 1.001 1.001 0 0 0 1.059 1.697 2.582 2.582 0 0 0 .621-3.839c.02-.056.046-.107.064-.164l.005-.013A8.441 8.441 0 0 0 11.501 21a8.46 8.46 0 0 0 1.441-.132l.21.419c.102.204.228.388.363.562a.983.983 0 0 1-.514.151.999.999 0 1 0 0 2c.854 0 1.652-.378 2.206-.988.309.091.63.142.956.142.395 0 .796-.07 1.188-.216.515-.195.778-.771.585-1.287a1.001 1.001 0 0 0-1.289-.585 1.369 1.369 0 0 1-1.708-.672l-.052-.1a8.541 8.541 0 0 0 4.473-4.57c.152.108.31.204.479.281A3.534 3.534 0 0 0 22.999 18a1 1 0 1 0 0-2zm-11.5 3a6.507 6.507 0 0 1-6.499-6.499A6.508 6.508 0 0 1 11.501 6C15.085 6 18 8.916 18 12.5a6.509 6.509 0 0 1-6.5 6.5z"/></g><defs><clipPath id="clip0_652_84608"><path fill="#fff" d="M0 0h24v24H0z"/></clipPath></defs></svg>