<svg xmlns="http://www.w3.org/2000/svg" fill="none" viewBox="0 0 24 24"><path fill="#4C6FFF" d="M18.933 14.679c-.295-.114-.505-.408-.547-.756-.516-4.498-1.39-8.142-2.75-11.45A3.929 3.929 0 0 0 12.002 0c-1.595 0-3.056.993-3.63 2.458-1.364 3.323-2.24 6.966-2.755 11.456-.043.357-.253.651-.541.762-2.279.868-3.513 3.261-2.934 5.678a4.708 4.708 0 0 0 3.484 3.505 4.8 4.8 0 0 0 3.968-.789c.655.585 1.509.93 2.408.93a3.62 3.62 0 0 0 2.4-.924 4.774 4.774 0 0 0 2.821.922c.38 0 .765-.045 1.144-.136a4.708 4.708 0 0 0 3.491-3.5c.58-2.425-.652-4.816-2.924-5.683zm.979 5.226a2.733 2.733 0 0 1-2.005 2.011 2.75 2.75 0 0 1-2.293-.444A1.607 1.607 0 0 1 16.751 21h.25a.999.999 0 0 0 1-1A1 1 0 0 0 17 18.998h-.25a3.62 3.62 0 0 0-3.119 1.793l-.239.407c-.286.494-.82.8-1.391.8a1.616 1.616 0 0 1-1.393-.8l-.237-.408A3.625 3.625 0 0 0 7.251 19h-.25a1.001 1.001 0 0 0 0 2.001h.25c.431 0 .839.174 1.137.471-.649.47-1.467.642-2.3.442-.97-.224-1.772-1.032-1.999-2.015-.388-1.628.561-2.918 1.709-3.354.978-.383 1.671-1.296 1.806-2.393.493-4.311 1.326-7.785 2.623-10.947a1.917 1.917 0 0 1 1.775-1.203c.778 0 1.491.485 1.78 1.218 1.292 3.147 2.124 6.621 2.62 10.941.133 1.088.826 2.001 1.811 2.387 1.139.433 2.088 1.723 1.698 3.358z"/></svg>