<svg xmlns="http://www.w3.org/2000/svg" fill="none" viewBox="0 0 24 24"><g clip-path="url(#clip0_652_84610)"><path fill="#4C6FFF" d="M2.772 24.012c-.56 0-1.11-.179-1.584-.524A2.936 2.936 0 0 1 0 21.114v-4.818c0-4.286 2.372-8.214 6.042-10.01a2.678 2.678 0 0 1 2.607.137c.846.528 1.352 1.458 1.352 2.485v9.366c0 2.118-1.295 3.96-3.22 4.581L3.6 23.88a2.69 2.69 0 0 1-.828.132zm4.45-16a.667.667 0 0 0-.301.073C3.931 9.545 2 12.769 2 16.297v4.818c0 .314.133.59.364.758.111.08.332.198.621.105l3.182-1.025C7.245 20.605 8 19.504 8 18.276V8.91c0-.333-.154-.629-.41-.79a.693.693 0 0 0-.367-.109zM21.228 24.012c-.276 0-.555-.044-.827-.132l-3.181-1.024c-1.926-.622-3.219-2.462-3.219-4.582V8.91c0-1.028.506-1.958 1.351-2.486a2.682 2.682 0 0 1 2.607-.136C21.63 8.082 24 12.01 24 16.296v4.818c0 .945-.444 1.833-1.188 2.374a2.68 2.68 0 0 1-1.584.524zm-4.45-16c-.161 0-.29.06-.368.109-.256.16-.41.455-.41.789v9.366c0 1.229.755 2.33 1.834 2.677l3.181 1.025a.682.682 0 0 0 .621-.105.923.923 0 0 0 .364-.758v-4.817c0-3.528-1.931-6.75-4.921-8.213a.667.667 0 0 0-.302-.073z"/><path fill="#05BAD1" d="M19.92 16.617l-1.5-3.5a.977.977 0 0 0-.287-.379L13 8.538V1.055a1 1 0 1 0-2.001 0v7.483l-5.133 4.2a1.019 1.019 0 0 0-.287.38l-1.5 3.5a1 1 0 1 0 1.838.787L7.32 14.13 12 10.304l4.678 3.826 1.404 3.275a.998.998 0 1 0 1.836-.788z"/></g><defs><clipPath id="clip0_652_84610"><path fill="#fff" d="M0 0h24v24H0z"/></clipPath></defs></svg>