<svg xmlns="http://www.w3.org/2000/svg" fill="none" viewBox="0 0 24 24"><g clip-path="url(#clip0_652_84612)"><path fill="#05BAD1" d="M19.81 8.25l-.16-.18a12 12 0 0 1-5.58 3.69h-.01c-.041.4-.06.8-.06 1.2v3.05c2.569-.66 6-1.871 6-7.26 0-.18-.07-.36-.19-.5zM4.77 15.36L3.44 17.4c-.11.17-.26.31-.431.41.13.13.3.19.48.19h.29c1.92 0 4-.21 5.959-.63l.26-.09V12.4c-1.939.25-4.168 1.32-5.228 2.96z"/><path fill="#4C6FFF" d="M2.33 19A2.323 2.323 0 0 1 0 16.69v-5.299C0 5.109 5.168 0 11.52 0h9.351C22.596 0 24 1.395 24 3.11c0 .685-.227 1.344-.655 1.906l-2.62 3.322a5.928 5.928 0 0 1-.334.403c-1.558 1.843-3.648 3.225-6.021 3.972l-.6-1.908a11.011 11.011 0 0 0 5.117-3.383 4.63 4.63 0 0 0 .256-.308l2.62-3.323c.15-.199.236-.438.236-.681 0-.612-.507-1.11-1.13-1.11H11.52c-5.248 0-9.519 4.212-9.519 9.39v5.299c0 .227.275.395.495.262a.322.322 0 0 0 .107-.097l1.33-2.041c1.235-1.909 3.263-3.16 5.562-3.428l.232 1.986c-1.705.2-3.205 1.12-4.117 2.53l-1.33 2.044c-.191.293-.455.544-.761.726-.357.214-.77.33-1.19.33z"/><path fill="#4C6FFF" d="M10 24a1 1 0 0 1-1-1V12.5a3.867 3.867 0 0 0-2.385-3.578 1 1 0 1 1 .77-1.846 5.859 5.859 0 0 1 3.614 5.422v10.5A1 1 0 0 1 10.002 24zM14 24c-.553 0-1.001-.448-1.001-1V12.96c0-2.94 1.011-5.824 2.848-8.12l.371-.464a1 1 0 0 1 1.563 1.25l-.37.463A11.04 11.04 0 0 0 15 12.96v10.041a.999.999 0 0 1-1 1z"/></g><defs><clipPath id="clip0_652_84612"><path fill="#fff" d="M0 0h24v24H0z"/></clipPath></defs></svg>