<svg xmlns="http://www.w3.org/2000/svg" fill="none" viewBox="0 0 24 24"><g clip-path="url(#clip0_652_84717)"><path fill="#05BAD1" d="M20.313 18.75c1.603 0 2.902-1.175 2.902-2.625s-1.3-2.625-2.902-2.625c-1.603 0-2.902 1.175-2.902 2.625s1.3 2.625 2.902 2.625z"/><path fill="#4C6FFF" d="M24.044 16.125c0-.764-.288-1.506-.815-2.104a3.8 3.8 0 0 0-2.087-1.185v-2.149c0-.944-.415-1.85-1.154-2.519-.738-.668-1.74-1.043-2.784-1.043-1.045 0-2.046.375-2.785 1.043-.739.669-1.154 1.575-1.154 2.52v9.374a2.33 2.33 0 0 1-.79 1.723 2.85 2.85 0 0 1-1.904.715H9.327a2.85 2.85 0 0 1-1.904-.715 2.33 2.33 0 0 1-.79-1.723V15h.829c.544 0 1.083-.097 1.586-.286.503-.188.96-.464 1.345-.812a3.75 3.75 0 0 0 .899-1.217c.208-.455.315-.943.315-1.435V1.875A1.79 1.79 0 0 0 11 .549 2.189 2.189 0 0 0 9.535 0H8.29c-.22 0-.43.079-.586.22a.716.716 0 0 0-.243.53c0 .199.087.39.243.53.155.141.366.22.586.22h1.244c.11 0 .215.04.293.11.077.07.121.166.121.265V10.5H1.66V7.875a.716.716 0 0 0-.244-.53.876.876 0 0 0-.586-.22c-.22 0-.43.079-.586.22a.716.716 0 0 0-.243.53v3.375c0 .995.437 1.948 1.214 2.652C1.992 14.605 3.046 15 4.145 15h.83v5.063c0 1.043.459 2.043 1.274 2.781S8.17 23.998 9.323 24h1.244c1.154-.001 2.261-.416 3.078-1.154.817-.738 1.276-1.74 1.279-2.784v-9.375c0-.546.24-1.071.667-1.458a2.408 2.408 0 0 1 1.613-.604c.604 0 1.184.217 1.612.604.427.387.668.912.668 1.459v2.148a3.857 3.857 0 0 0-1.809.904 3.3 3.3 0 0 0-1 1.636 3.07 3.07 0 0 0 .116 1.866c.232.6.647 1.128 1.196 1.524a3.95 3.95 0 0 0 1.909.715 4.078 4.078 0 0 0 2.037-.314 3.632 3.632 0 0 0 1.54-1.246c.373-.538.571-1.16.57-1.796zM1.807 12h8.005c-.171.44-.49.82-.91 1.088a2.672 2.672 0 0 1-1.44.412H4.145a2.67 2.67 0 0 1-1.431-.415A2.288 2.288 0 0 1 1.807 12zm18.506 6c-.41 0-.811-.11-1.152-.316a1.93 1.93 0 0 1-.763-.841 1.71 1.71 0 0 1-.118-1.084c.08-.364.277-.698.567-.96.29-.262.66-.44 1.061-.513a2.277 2.277 0 0 1 1.198.107c.379.142.702.382.93.69.228.309.35.671.35 1.042 0 .246-.054.49-.158.718a1.876 1.876 0 0 1-.45.608 2.101 2.101 0 0 1-.672.406 2.264 2.264 0 0 1-.793.143zM.83 5.625c.219 0 .43-.079.585-.22a.716.716 0 0 0 .243-.53v-3c0-.1.044-.195.122-.265a.438.438 0 0 1 .293-.11h1.243c.22 0 .431-.079.587-.22a.716.716 0 0 0 .242-.53.716.716 0 0 0-.242-.53.876.876 0 0 0-.587-.22H2.073C1.523 0 .996.198.607.55A1.79 1.79 0 0 0 0 1.874v3c0 .199.087.39.243.53.155.141.366.22.586.22z"/><path fill="#4C6FFF" d="M16.582 20.25c0 .199.087.39.243.53.155.141.366.22.586.22h4.975c.22 0 .43-.079.586-.22a.716.716 0 0 0 .243-.53.716.716 0 0 0-.243-.53.875.875 0 0 0-.586-.22H17.41c-.22 0-.43.079-.586.22a.716.716 0 0 0-.243.53z"/></g><defs><clipPath id="clip0_652_84717"><path fill="#fff" d="M0 0h24v24H0z"/></clipPath></defs></svg>