<svg xmlns="http://www.w3.org/2000/svg" fill="none" viewBox="0 0 24 24"><g clip-path="url(#clip0_652_84614)"><path fill="#05BAD1" d="M7.498 11a1 1 0 0 1-.123-1.992l.264-.033A.984.984 0 0 0 8.5 8a1 1 0 1 1 2 0 2.987 2.987 0 0 1-2.612 2.959l-.264.033a.867.867 0 0 1-.125.007zM12 22c-.552 0-1-.448-1-1v-8a1.001 1.001 0 0 1 2.001 0v8c0 .552-.448 1-1 1z"/><path fill="#4C6FFF" d="M2.018 24a1 1 0 0 1-.987-.843l-.836-5.232a15.382 15.382 0 0 1 .195-5.877c.25-1.102.38-2.232.38-3.358l.069-1.175a4.017 4.017 0 0 1 2.817-3.582l2.833-.871a2.004 2.004 0 0 0 1.367-1.49l.17-.784a.999.999 0 1 1 1.954.425l-.171.782a4.004 4.004 0 0 1-2.733 2.976l-2.834.872a2.011 2.011 0 0 0-1.408 1.79l-.068 1.115a16.867 16.867 0 0 1-.427 3.743 13.415 13.415 0 0 0-.17 5.116l.836 5.234a.998.998 0 0 1-.83 1.144.811.811 0 0 1-.157.015zM21.982 24a1 1 0 0 1-.988-1.157l.835-5.233a13.385 13.385 0 0 0-.17-5.117 17.096 17.096 0 0 1-.428-3.802l-.067-1.053a2.008 2.008 0 0 0-1.408-1.791l-2.834-.872a4.004 4.004 0 0 1-2.732-2.977l-.17-.783A1 1 0 1 1 15.975.79l.169.783a2.004 2.004 0 0 0 1.367 1.49l2.833.871a4.02 4.02 0 0 1 2.817 3.582l.067 1.113c.002 1.188.131 2.318.381 3.419.443 1.94.509 3.916.195 5.877l-.835 5.233a.998.998 0 0 1-.987.842z"/><path fill="#05BAD1" d="M16.502 11c-.041 0-.083-.004-.125-.008l-.264-.033a2.987 2.987 0 0 1-2.613-2.96 1 1 0 1 1 2.001 0c0 .496.37.914.861.976l.263.033A1 1 0 1 1 16.502 11z"/><path fill="#4C6FFF" d="M6.002 24a.998.998 0 0 1-.962-1.275l.278-.969a8.55 8.55 0 0 0 .039-4.542A10.552 10.552 0 0 1 5 14.501v-1.502a1 1 0 0 1 2 .002v1.501c0 .741.096 1.48.288 2.197a10.54 10.54 0 0 1-.05 5.607l-.279.97a.999.999 0 0 1-.958.724zM17.999 24a.999.999 0 0 1-.96-.726l-.278-.969a10.54 10.54 0 0 1-.05-5.607A8.501 8.501 0 0 0 17 14.499v-1.502a1 1 0 0 1 2 .004v1.501c0 .916-.12 1.829-.356 2.713a8.55 8.55 0 0 0 .04 4.543l.276.969A1 1 0 0 1 18 24z"/></g><defs><clipPath id="clip0_652_84614"><path fill="#fff" d="M0 0h24v24H0z"/></clipPath></defs></svg>