<svg xmlns="http://www.w3.org/2000/svg" fill="none" viewBox="0 0 24 24"><g clip-path="url(#clip0_652_84615)"><path fill="#05BAD1" d="M5.002 6.567c-.506.906-.83 2.06-.938 3.239 2.636.931 5.472 2.535 7.873 4.67.6-3.13 2.736-5.529 6.5-7.302l.725-.34c-.045-.09-.082-.188-.13-.274l.63-2.39a2.156 2.156 0 0 0-1.328-2.572 2.169 2.169 0 0 0-1.749.098 2.166 2.166 0 0 0-1.101 1.364l-.09.336a8.69 8.69 0 0 0-1.383-.399V1.751A1.75 1.75 0 0 0 12.262 0h-.5c-.964 0-1.75.784-1.75 1.75v1.247c-.49.099-.944.23-1.383.399l-.09-.334a2.162 2.162 0 0 0-2.85-1.463 2.155 2.155 0 0 0-1.325 2.574l.638 2.394z"/><path fill="#4C6FFF" d="M19.288 8.985c-3.699 1.742-5.405 3.917-5.527 7.055l-.011.26c1.195 1.361 2.188 2.88 2.872 4.53l.044-.088 3.026-7.954c.392-1.167.412-2.655.12-4.047l-.524.244zM15.028 22.229C13.365 17.435 8.44 13.704 4.14 11.973c.052.294.112.582.202.85l3.01 7.931C8.149 22.725 9.977 24 12.013 24a4.881 4.881 0 0 0 3.207-1.22l-.19-.551z"/></g><defs><clipPath id="clip0_652_84615"><path fill="#fff" d="M0 0h24v24H0z"/></clipPath></defs></svg>