<svg xmlns="http://www.w3.org/2000/svg" fill="none" viewBox="0 0 24 24"><g clip-path="url(#clip0_652_84616)"><path fill="#4C6FFF" d="M23.201 10.761a3.572 3.572 0 0 0-2.994 1.623c-.234-.114-.465-.237-.712-.32l-.63-.21a12.44 12.44 0 0 0-2.36-3.29 7.64 7.64 0 0 1-2.259-5.444v-.98A2.147 2.147 0 0 0 12.1 0h-.155C10.762 0 9.8.96 9.8 2.14v.982a7.64 7.64 0 0 1-2.259 5.443 12.464 12.464 0 0 0-3.11 5.165 4.27 4.27 0 0 0-1.17.295 3.499 3.499 0 0 0-1.748-1.994l-.426-.213a.753.753 0 0 0-1.008.337.748.748 0 0 0 .336 1.005l.426.213c.606.301.99.877 1.08 1.533a4.329 4.329 0 0 0-.863 1.16.75.75 0 0 0 1.344.672 2.77 2.77 0 0 1 1.623-1.388l-.693 3.112c-.087.392-.05.788.078 1.155a4.476 4.476 0 0 0-3.397 3.486.75.75 0 0 0 .74.897.752.752 0 0 0 .736-.603 2.976 2.976 0 0 1 1.866-2.202c.364.625.567 1.328.567 2.055a.75.75 0 0 0 1.503 0 5.56 5.56 0 0 0-.479-2.24 2.118 2.118 0 0 0 1.258-.091c.06.042.12.085.191.11l1.082.36a1.964 1.964 0 0 1 1.347 1.864.75.75 0 0 0 1.503 0c0-.564-.137-1.104-.384-1.582a2.704 2.704 0 0 0 1.363-2.331.75.75 0 0 0-1.503 0c0 .527-.354.998-.86 1.145a3.485 3.485 0 0 0-.99-.52l-.563-.188c.075-.169.136-.346.163-.535l.254-1.697a13.948 13.948 0 0 1 2.997-6.762c.3-.37.747-.583 1.225-.585h.005c.477 0 .922.212 1.225.58a13.917 13.917 0 0 1 2.832 5.854h-.403a2.783 2.783 0 0 1-2.5-1.542.754.754 0 0 0-1.009-.336.749.749 0 0 0-.336 1.007 4.276 4.276 0 0 0 3.845 2.371h.657l.154 1.096c.024.165.072.32.13.47a3.62 3.62 0 0 0-2.908 3.552.75.75 0 0 0 1.503 0c0-1.049.753-1.935 1.79-2.108l.522-.087c.118-.019.22-.07.312-.136.154.06.318.098.484.12a3.894 3.894 0 0 0-.691 2.211.75.75 0 0 0 1.503 0c0-.921.513-1.749 1.336-2.16l.015-.008a1.35 1.35 0 0 1 1.157 1.778l-.051.15a.75.75 0 0 0 .714.99.754.754 0 0 0 .712-.51l.053-.153a2.835 2.835 0 0 0-.396-2.581 2.829 2.829 0 0 0-2.042-1.157c.122-.363.156-.752.07-1.136l-.84-3.777a12.21 12.21 0 0 0-.245-.927 4.562 4.562 0 0 1 2.017 2 .753.753 0 0 0 1.008.334.748.748 0 0 0 .336-1.006 6.043 6.043 0 0 0-1.497-1.892c.383-.57 1.023-.936 1.806-.936.416 0 .705-.335.705-.75 0-.414-.387-.748-.8-.748z"/></g><defs><clipPath id="clip0_652_84616"><path fill="#fff" d="M0 0h24v24H0z"/></clipPath></defs></svg>