<svg xmlns="http://www.w3.org/2000/svg" fill="none" viewBox="0 0 24 24"><g clip-path="url(#clip0_652_84617)"><path fill="#E3FCFD" d="M2.25 5.25v-1.5a1.125 1.125 0 0 1 1.125-1.125h18.75A1.125 1.125 0 0 1 23.25 3.75v12a1.125 1.125 0 0 1-1.125 1.125H3.375A1.125 1.125 0 0 1 2.25 15.75v-7.5"/><path fill="#05BAD1" d="M9.75 17.25h6V21h-6v-3.75z"/><path fill="#4C6FFF" d="M22.125 2.063H3.375A1.875 1.875 0 0 0 1.5 3.937v1.5a.75.75 0 0 0 1.5 0v-1.5a.375.375 0 0 1 .375-.374h18.75a.375.375 0 0 1 .375.374v12a.375.375 0 0 1-.375.376H3.375A.375.375 0 0 1 3 15.938v-4.876h2.91l1.669 3.334a.75.75 0 0 0 1.365-.049l2.681-6.57 1.174 2.824a.75.75 0 0 0 .701.461h3.375a.75.75 0 1 0 0-1.5h-2.876l-1.68-4.038a.75.75 0 0 0-1.384.003l-2.753 6.72-1.125-2.272a.75.75 0 0 0-.682-.412H3V8.437a.75.75 0 0 0-1.5 0v1.126H.75a.75.75 0 0 0 0 1.5h.75v4.874a1.875 1.875 0 0 0 1.875 1.876H9v3.375a.75.75 0 0 0 .75.75h8.625a.75.75 0 1 0 0-1.5H16.5v-2.625h5.625A1.875 1.875 0 0 0 24 15.938v-12a1.875 1.875 0 0 0-1.875-1.876zM15 20.438h-4.5v-2.625H15v2.625z"/><path fill="#05BAD1" d="M21.375 21.938a.75.75 0 1 0 0-1.5.75.75 0 0 0 0 1.5z"/></g><defs><clipPath id="clip0_652_84617"><path fill="#fff" d="M0 0h24v24H0z"/></clipPath></defs></svg>