<svg xmlns="http://www.w3.org/2000/svg" fill="none" viewBox="0 0 24 24"><g clip-path="url(#clip0_652_84592)"><path fill="#4C6FFF" d="M7 7H1a1 1 0 1 1 0-2.001h6A1.001 1.001 0 0 1 7 7zM23 7h-6a1.001 1.001 0 0 1 0-2.001h6A1 1 0 1 1 23 7z"/><path fill="#05BAD1" d="M10.97 17C9.35 17 8.02 15.64 8 13.967 7.95 9.382 10.596 3.976 14.744.195a.75.75 0 0 1 1.183.874c-1.88 3.984-2.713 8.904-2.073 12.245a3.175 3.175 0 0 1-.655 2.63 2.883 2.883 0 0 1-2.23 1.055z"/><path fill="#4C6FFF" d="M23.59 10.95l-1.879-1.371A3.534 3.534 0 0 0 19.787 9c-1.371 0-2.586.775-3.365 1.427A2.85 2.85 0 0 0 15.4 12.62v1.674a4.132 4.132 0 0 1-1.258 2.966 4.456 4.456 0 0 1-2.909 1.237c-1.178.055-2.303-.387-3.172-1.226a4.502 4.502 0 0 1-1.38-3.247l.016-2.088A2.75 2.75 0 0 0 5.245 9.48c-.93-.511-2.06-.474-3.002.132L.41 10.95a1 1 0 0 0-.41.807v10.242C0 23.103.897 24 2 24h19.999A2.002 2.002 0 0 0 24 22V11.758c0-.32-.153-.62-.41-.808zM3 14a1 1 0 1 1 0 2 1 1 0 0 1 0-2zm.25 7a1 1 0 1 1 0-2.001 1 1 0 1 1 0 2.001zM8 22a1.001 1.001 0 1 1 0-2.002A1.001 1.001 0 0 1 8 22zm9-1a1.001 1.001 0 1 1 0-2.002A1.001 1.001 0 0 1 17 21zm3-6a1.001 1.001 0 1 1 0-2.002A1.001 1.001 0 0 1 20 15zm2 4a1 1 0 1 1 0-2 1 1 0 0 1 0 2z"/></g><defs><clipPath id="clip0_652_84592"><path fill="#fff" d="M0 0h24v24H0z"/></clipPath></defs></svg>