<svg xmlns="http://www.w3.org/2000/svg" fill="none" viewBox="0 0 24 24"><path fill="#4C6FFF" d="M13.425 0C8.421 0 4.35 4.095 4.35 9.133c0 .497-.14.982-.403 1.402l-2.219 3.547a1.478 1.478 0 0 0 1.246 2.265H4.35v2.348a2.432 2.432 0 0 0 2.426 2.434c.27 0 .525-.042.71-.111l1.616-.494V23c0 .552.448 1 1 1h8.55c.552 0 1.001-.448 1.001-1v-4.808a6.65 6.65 0 0 1 1.202-3.82 9.113 9.113 0 0 0 1.648-5.243C22.5 4.095 18.429 0 13.425 0zm-2.73 18.37a1.007 1.007 0 0 0-.886-.152l-2.909.889c-.015.005-.111.018-.126.023a.425.425 0 0 1-.425-.435v-2.058l3.908-2.231c1.047-.6 2.259-.539 3.24.166.982.707 1.428 1.837 1.193 3.021L13.81 22H11.1v-2.826a.996.996 0 0 0-.405-.802zm8.517-5.142a8.64 8.64 0 0 0-1.561 4.966V22h-1.802l.801-4.015a4.942 4.942 0 0 0-1.986-5.035 4.947 4.947 0 0 0-5.4-.28l-3.318 1.895a.972.972 0 0 0-.595-.217H3.92l1.722-2.753c.463-.74.708-1.591.708-2.466 0-3.931 3.174-7.131 7.074-7.131 3.901 0 7.075 3.198 7.075 7.131a7.127 7.127 0 0 1-1.288 4.1z"/></svg>