<svg xmlns="http://www.w3.org/2000/svg" fill="none" viewBox="0 0 24 24"><g fill="#4C6FFF" clip-path="url(#clip0_652_84594)"><path d="M12 21C8.24 21 4.482 19.578.751 16.731a1.902 1.902 0 0 1-.74-1.289 1.87 1.87 0 0 1 .407-1.411c7.566-9.375 15.596-9.375 23.16 0 .323.4.468.901.407 1.412-.062.513-.323.97-.738 1.287C19.516 19.576 15.757 21 11.999 21zm-9.952-5.799c6.696 5.066 13.208 5.066 19.904 0-3.36-4.134-6.708-6.23-9.951-6.23-3.243 0-6.594 2.095-9.953 6.23z"/><path d="M12 17.5c-1.931 0-3.5-1.57-3.5-3.499A3.505 3.505 0 0 1 12 10.5c1.93 0 3.499 1.57 3.499 3.5a3.505 3.505 0 0 1-3.5 3.5zM12 5.53c-.553 0-1.001-.448-1.001-1V4A1 1 0 1 1 13 4v.53c0 .552-.448 1-1 1zM5.162 7.33a.999.999 0 0 1-.818-.422l-.41-.58a.999.999 0 1 1 1.634-1.154l.41.58a.999.999 0 0 1-.816 1.577zM18.838 7.33a1.001 1.001 0 0 1-.816-1.576l.41-.58a1 1 0 0 1 1.633 1.153l-.41.58a.997.997 0 0 1-.817.423zM1.348 11.21a.997.997 0 0 1-.513-.143l-.35-.21a1 1 0 1 1 1.028-1.715l.35.21a1 1 0 0 1-.515 1.857zM22.65 11.21a.999.999 0 0 1-.515-1.857l.35-.21a1 1 0 1 1 1.028 1.714l-.35.21a.987.987 0 0 1-.512.143z"/></g><defs><clipPath id="clip0_652_84594"><path fill="#fff" d="M0 0h24v24H0z"/></clipPath></defs></svg>