<svg xmlns="http://www.w3.org/2000/svg" fill="none" viewBox="0 0 24 24"><g clip-path="url(#clip0_652_84595)"><path fill="#05BAD1" d="M9.803 15.85c-.13 0-.261-.023-.387-.072-2.009-.777-3.234-2.573-3.122-4.578.111-2.005 1.53-3.678 3.612-4.26l1.248-.349c.693-.194 1.25-.658 1.527-1.275a2.061 2.061 0 0 0-.1-1.897c-.26-.45-.075-1.008.412-1.247.49-.241 1.094-.07 1.353.378a3.774 3.774 0 0 1 .183 3.471c-.508 1.129-1.525 1.98-2.793 2.334l-1.248.349c-1.537.43-2.142 1.62-2.196 2.59-.054.97.417 2.211 1.9 2.784.51.197.748.737.535 1.207-.162.352-.533.565-.924.565z"/><path fill="#4C6FFF" d="M22.98 14.208c-.182-2.542-2.23-4.555-4.977-4.9-2.11-.262-4.676 1.194-5.598 3.182a6.27 6.27 0 0 0-.443 1.247c-2.503-.112-3.282 1.357-3.922 2.55-.13.242-.26.486-.407.718-.02.03-.052.048-.099.053a.17.17 0 0 1-.145-.049 11.68 11.68 0 0 1-1.547-2.019c-.56-.989-1.537-1.492-2.679-1.376-.315.032-1.275.128-1.806.878-.47.663-.477 1.598-.02 2.944 1.312 3.87 6.031 6.751 10.822 6.751.337 0 .675-.014 1.01-.044 5.572-.481 10.157-5.126 9.81-9.935zm-5.481 1.682c-.828 0-1.5-.62-1.5-1.382 0-.764.672-1.383 1.5-1.383s1.5.62 1.5 1.383-.672 1.382-1.5 1.382z"/></g><defs><clipPath id="clip0_652_84595"><path fill="#fff" d="M0 0h24v24H0z"/></clipPath></defs></svg>