<svg xmlns="http://www.w3.org/2000/svg" fill="none" viewBox="0 0 24 24"><g clip-path="url(#clip0_652_84596)"><path fill="#05BAD1" d="M16.578 17.184a1 1 0 0 0-1.394.238c-.26.368-.652.578-1.072.578-.492 0-.698.04-1.112-.227V17a1.001 1.001 0 0 0-2 0v.773c-.415.268-.619.227-1.112.227a1.31 1.31 0 0 1-1.073-.578 1 1 0 0 0-1.632 1.155A3.332 3.332 0 0 0 9.888 20c.427 0 .697.017 1.111-.072V23A1.001 1.001 0 0 0 13 23v-3.073c.413.089.683.073 1.112.073a3.328 3.328 0 0 0 2.704-1.422.999.999 0 0 0-.238-1.394z"/><path fill="#4C6FFF" d="M5.743 24c-.37 0-.726-.207-.9-.563l-.771-1.58a10.546 10.546 0 0 1-.035-9.223l.8-1.67A8.602 8.602 0 0 0 3.605 1.65 1 1 0 0 1 5.123.35 10.609 10.609 0 0 1 6.64 11.827l-.8 1.671a8.556 8.556 0 0 0 .029 7.482l.77 1.581A1 1 0 0 1 5.744 24zM18.256 24a.999.999 0 0 1-.897-1.437l.77-1.581a8.561 8.561 0 0 0 .03-7.482l-.8-1.671A10.612 10.612 0 0 1 18.875.35a.999.999 0 1 1 1.518 1.302 8.609 8.609 0 0 0-1.231 9.312l.8 1.67a10.551 10.551 0 0 1-.035 9.223l-.771 1.58c-.173.355-.53.562-.9.562z"/></g><defs><clipPath id="clip0_652_84596"><path fill="#fff" d="M0 0h24v24H0z"/></clipPath></defs></svg>