<svg xmlns="http://www.w3.org/2000/svg" fill="none" viewBox="0 0 24 24"><path fill="#4C6FFF" d="M14.848 16c-.888 0-1.657-.593-1.828-1.414l-.624-4.483c-.018-.075-.177-.204-.398-.204-.22 0-.379.129-.404.253l-.608 4.385c-.179.868-.948 1.464-1.838 1.464-.949 0-1.745-.67-1.852-1.556l-.242-2.997c-.009-.055-.099-.55-.694-3.29A15.995 15.995 0 0 1 6 4.792 2.795 2.795 0 0 1 8.793 2c.516 0 1.022.14 1.466.405a3.38 3.38 0 0 0 3.482 0 2.86 2.86 0 0 1 1.468-.407 2.795 2.795 0 0 1 2.793 2.792c0 1.13-.122 2.263-.363 3.367-.486 2.228-.678 3.176-.698 3.32l-.237 2.938-.003.029c-.105.888-.902 1.557-1.853 1.557zm1.109-1.645h.01-.01z"/><path fill="#4C6FFF" d="M23 11h-.9a9.353 9.353 0 0 1-5.716-1.961 1 1 0 1 1 1.229-1.58A7.346 7.346 0 0 0 22.1 9h.9a.999.999 0 1 1-.002 2zM1.881 11h-.88a.999.999 0 1 1 0-2h.882a7.274 7.274 0 0 0 4.19-1.322l.354-.247a.999.999 0 1 1 1.146 1.638l-.354.247A9.265 9.265 0 0 1 1.881 11zM9.105 21.482c-.986-1.794-1.314-3.938-.974-6.37l1.98.277c-.282 2.024-.037 3.701.747 5.13l-1.753.963zM14.895 21.482l-1.753-.963c.784-1.428 1.029-3.107.747-5.13l1.98-.276c.339 2.431.012 4.575-.974 6.369z"/><path fill="#00E1F0" d="M4.5 15a.995.995 0 0 1-.707-.293l-.5-.5a1.001 1.001 0 0 1 1.415-1.414l.5.5A1.001 1.001 0 0 1 4.498 15zM1.999 19a1.001 1.001 0 0 1-.707-1.707l.5-.5a1.001 1.001 0 0 1 1.415 1.415l-.5.5a1 1 0 0 1-.708.292zM19 19a1.001 1.001 0 0 1-.706-1.707l.499-.5a1.001 1.001 0 0 1 1.415 1.415l-.5.5A1.003 1.003 0 0 1 19 19zM22.5 15a.995.995 0 0 1-.707-.293l-.5-.5a1.001 1.001 0 0 1 1.415-1.414l.5.5A1.001 1.001 0 0 1 22.5 15z"/><path fill="#4C6FFF" d="M23 22H1a1 1 0 1 1 0-2h22.001a1 1 0 0 1-.002 2z"/></svg>