<svg xmlns="http://www.w3.org/2000/svg" fill="none" viewBox="0 0 24 24"><g clip-path="url(#clip0_652_84598)"><path fill="#4C6FFF" d="M23.315.813l-.087-.09a2.359 2.359 0 0 0-3.105-.25l-1.815 1.364a7.309 7.309 0 0 1-5.013 1.45C7.959 2.823 3.096 6.54 1.968 11.921l-1.915 9.15a2.45 2.45 0 0 0 .633 2.21c.465.48 1.078.722 1.693.722.569 0 1.137-.207 1.593-.624l.687-.63c1.51-1.384 3.531-2.09 5.537-1.927l.567.045c5.3.41 10.137-3.294 11.257-8.642l1.928-9.204a2.447 2.447 0 0 0-.633-2.21zm-3.252 11c-.913 4.366-4.851 7.4-9.141 7.058l-.567-.045a9.37 9.37 0 0 0-7.047 2.448l-.687.63a.347.347 0 0 1-.497-.015.455.455 0 0 1-.112-.408l1.915-9.15c.869-4.149 4.445-7.083 8.482-7.083.236 0 .476.01.716.032a9.29 9.29 0 0 0 6.386-1.842l1.817-1.364a.346.346 0 0 1 .468.04l.087.09c.1.104.142.26.112.407l-1.932 9.203z"/><path fill="#05BAD1" d="M17.853 6.42a1.001 1.001 0 0 0-1.201.746l-1.011 4.306c-.423 1.8-2.273 3.057-4.304 2.904a1 1 0 0 0-.141 1.995c.153.01.305.017.456.017 2.819 0 5.325-1.853 5.937-4.458L18.6 7.623a1.004 1.004 0 0 0-.747-1.203zM13.492 8.357a1.001 1.001 0 0 0-.921-1.074c-3.027-.23-5.77 1.672-6.417 4.426l-1.002 4.266a1 1 0 0 0 1.947.458L8.1 12.167c.423-1.803 2.274-3.051 4.317-2.89a.997.997 0 0 0 1.074-.92z"/></g><defs><clipPath id="clip0_652_84598"><path fill="#fff" d="M0 0h24v24H0z"/></clipPath></defs></svg>