<svg xmlns="http://www.w3.org/2000/svg" fill="none" viewBox="0 0 24 24"><g clip-path="url(#clip0_652_84716)"><path fill="#E3FCFD" d="M16.272.978l5.402 4.07c.497.375.596 1.08.222 1.576l-.452.6a1.125 1.125 0 0 1-1.575.22l-5.402-4.07a1.125 1.125 0 0 1-.222-1.576l.452-.599a1.124 1.124 0 0 1 1.575-.221z"/><path fill="#E3FCFD" d="M13.72 7.497L15.979 4.5l2.397 1.806-2.257 2.996-2.397-1.806zM9.589 8.625l1.354-1.8a1.125 1.125 0 0 1 1.575-.221l4.792 3.61c.496.375.595 1.08.221 1.576l-5.88 7.796a1.125 1.125 0 0 1-1.575.221l-4.792-3.61a1.125 1.125 0 0 1-.221-1.572l2.673-3.551"/><path fill="#00E1F0" d="M5.843 14.32l-.803 1.06 5.84 4.418 5.352-6.87-10.39 1.393z"/><path fill="#4C6FFF" d="M22.125 4.447l-5.4-4.072A1.875 1.875 0 0 0 14.1.75l-.45.6a1.875 1.875 0 0 0 .375 2.625l.904.682-1.361 1.793-.6-.45a1.875 1.875 0 0 0-2.626.375L9 8.164a.75.75 0 1 0 1.2.903l1.354-1.796c.124-.166.359-.199.525-.075l4.796 3.611c.166.124.2.36.075.525l-.454.604-9.472 1.328 1.312-1.74a.755.755 0 1 0-1.211-.904l-2.662 3.547a1.875 1.875 0 0 0 .375 2.625l1.796 1.354-3.177 4.211a.78.78 0 0 0-.082.143h-1.5a.75.75 0 1 0 0 1.5h6a.75.75 0 1 0 0-1.5H5.25l2.595-3.45 1.8 1.357a1.875 1.875 0 0 0 2.625-.375l5.88-7.8a1.875 1.875 0 0 0-.375-2.625l-.6-.45 1.357-1.796.904.683a1.875 1.875 0 0 0 2.625-.375l.439-.593a1.875 1.875 0 0 0-.37-2.626c-.002 0-.003-.002-.005-.003zM11.051 19.125a.375.375 0 0 1-.525.075l-4.788-3.604a.375.375 0 0 1-.076-.525l.087-.112 9.454-1.332-4.152 5.498zM15.964 8.25l-1.197-.9 1.358-1.796 1.196.903-1.357 1.793zM21.3 6.172l-.45.6a.375.375 0 0 1-.525.072L14.921 2.77a.375.375 0 0 1-.075-.525l.45-.596c.124-.166.36-.2.525-.075l5.404 4.072c.166.124.2.36.075.525z"/><path fill="#00E1F0" d="M10.875 24a.75.75 0 1 0 0-1.5.75.75 0 0 0 0 1.5z"/></g><defs><clipPath id="clip0_652_84716"><path fill="#fff" d="M0 0h24v24H0z"/></clipPath></defs></svg>