<svg xmlns="http://www.w3.org/2000/svg" fill="none" viewBox="0 0 500 200"><g clip-path="url(#clip0_5_1053)"><path fill="#fff" d="M-50-20h600v240H-50V-20z"/><path fill="#fff" d="M-50-20h600v240H-50V-20z"/><path fill="#FFE478" d="M-50-20h600v240H-50V-20z"/><path fill="#3754DB" d="M429.615 193.339c-5.917 15.562 15.296 35.401 28.968 40.281 21.719 9.552 43.802-.599 56.907-16.12 23.02-26.771 2.463-82.083-39.844-77.708-19.729 1.255-46.448 25.265-44.958 46.359"/><path fill="#05BAD1" d="M409.141 175.438c-.328-2.224-3.792-1.719-3.464.505.328 2.229 3.792 1.724 3.464-.505zM416.167 163.453c-.328-2.224-3.792-1.719-3.464.505.333 2.224 3.792 1.719 3.464-.505zM419.964 170.568c-.329-2.224-3.787-1.719-3.459.505.328 2.224 3.787 1.719 3.459-.505zM411.042 169.682c-.328-2.224-3.792-1.718-3.464.506.328 2.229 3.787 1.718 3.464-.506zM428.682 177.505c-.328-2.224-3.786-1.719-3.463.511.333 2.224 3.791 1.713 3.463-.511zM435.792 166.052c-.328-2.219-3.792-1.713-3.464.51.328 2.224 3.792 1.719 3.464-.51zM430.016 164.161c-.334-2.223-3.792-1.718-3.464.506.328 2.224 3.792 1.718 3.464-.506zM423.839 159.589c-.323-2.23-3.787-1.719-3.459.505.328 2.224 3.792 1.719 3.459-.505zM422.042 151.083c-.334-2.224-3.792-1.713-3.464.511.328 2.224 3.787 1.718 3.464-.511zM432.594 155.562c-.328-2.223-3.792-1.713-3.464.511.328 2.224 3.792 1.719 3.464-.511zM441.438 155.911c-.323-2.223-3.787-1.718-3.459.511.328 2.219 3.792 1.713 3.459-.511zM443.953 169.24c-.323-2.224-3.786-1.714-3.458.51.328 2.224 3.791 1.719 3.458-.51zM441.943 185.422c-.323-2.224-3.787-1.719-3.459.51.328 2.224 3.787 1.719 3.459-.51zM430.266 188.229c-.329-2.224-3.792-1.719-3.459.511.328 2.224 3.787 1.718 3.459-.511zM421.339 187.349c-.329-2.224-3.787-1.719-3.459.505.328 2.224 3.787 1.719 3.459-.505zM420.234 179.839c-.328-2.224-3.791-1.719-3.463.51.328 2.224 3.791 1.714 3.463-.51zM411.417 187.156c-.328-2.224-3.792-1.719-3.464.505.333 2.23 3.792 1.719 3.464-.505zM417.224 196.719c-.328-2.229-3.786-1.719-3.458.505.328 2.224 3.786 1.719 3.458-.505zM405.703 163.344c-.328-2.229-3.786-1.724-3.458.505.328 2.224 3.786 1.713 3.458-.505zM406.198 151.76c-.328-2.218-3.792-1.718-3.464.511.328 2.224 3.792 1.719 3.464-.511zM412.625 143.151c-.333-2.224-3.792-1.719-3.464.505.329 2.224 3.792 1.719 3.464-.505zM414.365 154.948c-.329-2.224-3.792-1.714-3.464.51.328 2.224 3.792 1.714 3.464-.51zM420.964 132.615c-.329-2.224-3.792-1.719-3.464.51.328 2.224 3.792 1.714 3.464-.51zM418.682 139.521c-.328-2.224-3.791-1.719-3.458.51.328 2.224 3.786 1.719 3.458-.51zM426.313 142.786c-.329-2.224-3.792-1.713-3.464.511.328 2.224 3.792 1.719 3.464-.511zM439.307 141.432c-.328-2.224-3.791-1.718-3.463.506.328 2.229 3.786 1.718 3.463-.506zM440.651 131.922c-.328-2.224-3.792-1.719-3.463.505.328 2.224 3.791 1.719 3.463-.505zM448.74 134.573c-.329-2.229-3.792-1.719-3.464.505.328 2.224 3.792 1.719 3.464-.505zM451.87 148.359c-.328-2.224-3.792-1.718-3.464.511.334 2.219 3.792 1.713 3.464-.511zM461.177 148.089c-.328-2.224-3.786-1.719-3.463.505.328 2.229 3.791 1.724 3.463-.505zM474.615 160.917c-.334-2.23-3.792-1.719-3.464.505.328 2.224 3.792 1.719 3.464-.505zM479.12 154.229c-.323-2.224-3.787-1.719-3.459.505.329 2.224 3.792 1.719 3.459-.505zM485.516 156.578c-.328-2.224-3.787-1.719-3.464.505.328 2.224 3.792 1.719 3.464-.505zM490.484 167.901c-.328-2.224-3.791-1.719-3.463.505.333 2.229 3.791 1.724 3.463-.505zM484.755 177.51c-.328-2.229-3.786-1.718-3.458.506.323 2.224 3.786 1.718 3.458-.506zM485.406 167.005c-.328-2.229-3.791-1.719-3.463.505.328 2.224 3.791 1.719 3.463-.505zM477.542 180.755c-.334-2.219-3.792-1.713-3.464.511.328 2.224 3.787 1.713 3.464-.511zM470.052 174.729c-.328-2.224-3.792-1.719-3.458.511.323 2.224 3.786 1.713 3.458-.511zM462.708 165.943c-.323-2.219-3.786-1.714-3.458.51.328 2.224 3.786 1.719 3.458-.51zM455.807 189.969c-.328-2.229-3.786-1.719-3.458.505.328 2.224 3.786 1.719 3.458-.505zM464.828 195.219c-.328-2.224-3.786-1.719-3.458.51.328 2.224 3.786 1.714 3.458-.51zM433.604 195.958c-.328-2.224-3.786-1.713-3.458.511.328 2.224 3.786 1.713 3.458-.511zM427.781 201.198c-.328-2.224-3.786-1.719-3.463.505.328 2.224 3.791 1.719 3.463-.505zM453.057 156.401c-.328-2.224-3.791-1.719-3.458.51.323 2.224 3.786 1.714 3.458-.51zM456.969 171.719c-.334-2.224-3.792-1.714-3.464.505.323 2.229 3.787 1.719 3.464-.505zM452.755 176.719c-.328-2.224-3.786-1.719-3.463.51.328 2.219 3.791 1.714 3.463-.51zM461.078 180.974c-.328-2.224-3.792-1.719-3.463.51.333 2.224 3.791 1.719 3.463-.51zM442.927 180.896c-.328-2.224-3.792-1.714-3.458.51.328 2.224 3.786 1.714 3.458-.51zM449.526 195.818c-.328-2.224-3.786-1.719-3.464.505.329 2.224 3.792 1.719 3.464-.505zM473.203 192.349c-.328-2.224-3.792-1.719-3.463.51.328 2.224 3.791 1.719 3.463-.51zM470.641 148.896c-.328-2.224-3.787-1.719-3.464.505.328 2.229 3.792 1.719 3.464-.505zM471.13 137.318c-.328-2.224-3.791-1.719-3.458.505.328 2.224 3.786 1.719 3.458-.505zM463.599 138.422c-.328-2.224-3.792-1.719-3.464.505.329 2.229 3.792 1.719 3.464-.505zM462.094 128.229c-.328-2.224-3.792-1.713-3.459.511.323 2.224 3.787 1.718 3.459-.511zM476.021 129.479c-.328-2.224-3.792-1.719-3.464.505.334 2.224 3.792 1.719 3.464-.505zM481.812 135.203c-.328-2.224-3.786-1.719-3.458.511.328 2.223 3.787 1.713 3.458-.511zM486.943 147.604c-.328-2.224-3.792-1.719-3.464.505.328 2.224 3.792 1.719 3.464-.505zM475.167 146.042c-.328-2.224-3.792-1.719-3.459.505.323 2.224 3.787 1.719 3.459-.505zM426.948 128.448c-.328-2.224-3.792-1.714-3.464.51.328 2.224 3.792 1.719 3.464-.51zM447.693 123.766c-.328-2.224-3.787-1.714-3.464.51.334 2.224 3.792 1.714 3.464-.51zM441.297 195.927c-.328-2.224-3.792-1.713-3.458.505.322 2.229 3.786 1.724 3.458-.505zM433.448 139.005c-.328-2.229-3.792-1.719-3.458.505.322 2.224 3.786 1.719 3.458-.505zM462.443 156.672c-.328-2.224-3.787-1.719-3.464.505.328 2.224 3.792 1.719 3.464-.505zM449.953 168.911c-.328-2.224-3.786-1.718-3.458.506.328 2.224 3.786 1.718 3.458-.506zM438.323 127.333c-.328-2.229-3.792-1.718-3.458.506.328 2.224 3.786 1.718 3.458-.506zM454.703 126.578c-.328-2.229-3.792-1.719-3.458.505.323 2.224 3.786 1.714 3.458-.505zM444.177 148.391c-.328-2.224-3.786-1.719-3.458.505.323 2.224 3.786 1.719 3.458-.505zM477.375 171.469c-.245-1.672-2.844-1.292-2.594.375.245 1.672 2.839 1.291 2.594-.375zM480.443 188.547c-.245-1.667-2.839-1.287-2.594.385.245 1.667 2.844 1.287 2.594-.385zM469.667 186.292c-.245-1.667-2.839-1.287-2.594.38.245 1.667 2.838 1.292 2.594-.38zM434.854 173.865c-.25-1.672-2.844-1.292-2.599.38.245 1.666 2.844 1.286 2.599-.38zM435.833 150.708c-.25-1.666-2.843-1.291-2.599.381.245 1.666 2.844 1.286 2.599-.381zM429.536 134.099c-.25-1.667-2.843-1.292-2.599.38.25 1.667 2.844 1.287 2.599-.38zM458.146 134.286c-.245-1.666-2.844-1.286-2.594.386.245 1.667 2.844 1.286 2.594-.386zM469.25 127.547c-.25-1.667-2.844-1.292-2.599.38.245 1.667 2.844 1.287 2.599-.38zM446.182 161.245c-.244-1.667-2.843-1.287-2.599.38.25 1.672 2.849 1.286 2.599-.38zM454.109 162.823c-.244-1.667-2.838-1.287-2.593.38.244 1.667 2.843 1.287 2.593-.38zM449.281 185.995c-.245-1.672-2.838-1.292-2.594.375.245 1.672 2.844 1.286 2.594-.375zM456.104 198.693c-.245-1.672-2.844-1.292-2.594.375.245 1.672 2.844 1.291 2.594-.375z"/><path fill="#3754DB" d="M55.911 1.234C54.375-18.38 21.745-28.938 4.703-27.28c-27.974.698-46.4 22.656-52.552 45.849-11.047 40.208 38.77 89.041 81.677 63.088C54.234 70.401 70.62 31.281 58.396 9.47"/><path fill="#05BAD1" d="M86.77 10.094c1.475 2.213 4.912-.068 3.438-2.281-1.474-2.22-4.911.062-3.437 2.28zM85.323 26.448c1.474 2.213 4.906-.068 3.437-2.287-1.474-2.208-4.906.073-3.437 2.287zM77.688 20.745c1.468 2.218 4.906-.068 3.432-2.282-1.469-2.213-4.907.068-3.433 2.282zM87.651 17.208c1.469 2.214 4.906-.073 3.432-2.286-1.468-2.214-4.906.068-3.432 2.286zM64.89 17.708c1.47 2.214 4.907-.067 3.433-2.286-1.474-2.214-4.906.073-3.432 2.286zM63.083 33.531c1.47 2.214 4.912-.067 3.438-2.286-1.474-2.214-4.906.067-3.438 2.286zM70.198 32.651c1.474 2.214 4.906-.068 3.437-2.281-1.474-2.214-4.906.067-3.437 2.281zM79.088 34.443c1.475 2.213 4.907-.068 3.438-2.287-1.474-2.213-4.911.068-3.438 2.287zM85.297 42.63c1.474 2.214 4.911-.068 3.437-2.286-1.474-2.214-4.906.067-3.437 2.286zM71.787 43.146c1.468 2.213 4.9-.073 3.432-2.287-1.474-2.218-4.906.068-3.432 2.287zM62.177 47.219c1.469 2.213 4.906-.068 3.432-2.282-1.468-2.213-4.906.068-3.432 2.282zM52.77 34.224c1.47 2.219 4.907-.068 3.433-2.281-1.469-2.214-4.906.067-3.432 2.281zM46.755 15.906c1.469 2.214 4.901-.068 3.432-2.281-1.473-2.219-4.906.063-3.432 2.281zM57.792 7.031c1.468 2.214 4.906-.067 3.437-2.281-1.474-2.219-4.911.068-3.437 2.281zM67.755 3.484c1.474 2.22 4.907-.067 3.438-2.276-1.474-2.218-4.906.068-3.438 2.276zM72.724 10.963c1.474 2.214 4.906-.067 3.432-2.286-1.469-2.213-4.906.068-3.432 2.287zM96.537 21.307c1.468 2.214 4.906-.067 3.432-2.286-1.469-2.209-4.906.073-3.432 2.286zM101.849 33.943c1.474 2.208 4.911-.073 3.437-2.287-1.474-2.213-4.906.068-3.437 2.287zM99.338 46.38c1.475 2.214 4.912-.068 3.438-2.281-1.469-2.214-4.906.068-3.438 2.281zM91.537 34.635c1.468 2.214 4.9-.067 3.432-2.28-1.469-2.214-4.906.067-3.432 2.28zM95.76 61.844c1.47 2.218 4.907-.068 3.433-2.282-1.469-2.213-4.907.068-3.433 2.282zM94.708 53.307c1.47 2.219 4.907-.062 3.433-2.281-1.47-2.214-4.907.068-3.433 2.281zM84.927 53.651c1.469 2.214 4.906-.068 3.438-2.281-1.474-2.214-4.912.068-3.438 2.281zM71.755 61.635c1.469 2.214 4.907-.067 3.438-2.286-1.474-2.214-4.906.073-3.438 2.286zM75.115 72.484c1.468 2.214 4.906-.067 3.437-2.28-1.474-2.214-4.911.067-3.437 2.28zM65.156 73.713c1.469 2.22 4.906-.067 3.438-2.28-1.474-2.214-4.912.067-3.438 2.28zM54.86 60.542c1.473 2.213 4.91-.068 3.437-2.282-1.474-2.213-4.906.068-3.438 2.282zM45.073 65.51c1.474 2.214 4.906-.067 3.437-2.28-1.474-2.22-4.911.062-3.437 2.28zM24.276 58.547c1.474 2.213 4.912-.068 3.438-2.287-1.474-2.213-4.907.073-3.438 2.287zM22.844 67.963c1.468 2.22 4.906-.062 3.432-2.275-1.469-2.22-4.906.067-3.432 2.275zM14.838 68.667c1.47 2.213 4.907-.068 3.438-2.282-1.474-2.218-4.906.068-3.438 2.282zM3.828 59.047c1.474 2.219 4.912-.063 3.438-2.281-1.474-2.214-4.907.067-3.438 2.28zM5.094 45.896c1.468 2.213 4.906-.068 3.432-2.287-1.469-2.213-4.906.073-3.432 2.287zM9.698 57.458c1.474 2.214 4.911-.067 3.437-2.28-1.473-2.22-4.906.067-3.437 2.28zM11.151 38.792c1.469 2.213 4.906-.068 3.432-2.287-1.468-2.213-4.9.073-3.432 2.287zM22.172 41.474c1.474 2.214 4.911-.068 3.437-2.281-1.474-2.219-4.906.067-3.437 2.281zM34.432 47.182c1.469 2.214 4.907-.073 3.438-2.286-1.474-2.214-4.906.068-3.438 2.286zM29.677 18.016c1.474 2.213 4.906-.068 3.438-2.282-1.474-2.218-4.907.068-3.438 2.282zM17.412 16.932c1.473 2.214 4.906-.067 3.432-2.286-1.469-2.214-4.907.067-3.433 2.286zM25.62-.839c1.474 2.214 4.906-.062 3.432-2.28-1.469-2.214-4.906.067-3.432 2.28zM50.333.443c1.474 2.213 4.907-.068 3.433-2.287-1.47-2.208-4.907.073-3.433 2.287zM49.542 52.536c1.468 2.214 4.906-.067 3.432-2.28-1.469-2.22-4.906.062-3.432 2.28zM37.646 38.12c1.474 2.213 4.906-.073 3.437-2.287-1.468-2.213-4.906.068-3.437 2.287zM39.615 30.651c1.468 2.214 4.906-.068 3.437-2.286-1.474-2.209-4.911.073-3.437 2.286zM28.594 30.281c1.468 2.214 4.906-.067 3.432-2.281-1.469-2.213-4.906.068-3.432 2.281zM47.99 21.24c1.468 2.213 4.906-.068 3.432-2.282-1.474-2.213-4.906.068-3.432 2.282zM33.427 8.599c1.474 2.213 4.906-.068 3.438-2.281-1.474-2.219-4.907.067-3.438 2.281zM9.927 24.208c1.474 2.22 4.912-.067 3.438-2.28-1.474-2.215-4.907.067-3.438 2.28zM34.573 69.406c1.474 2.214 4.906-.068 3.437-2.286-1.474-2.214-4.906.067-3.437 2.286zM39.89 82.037c1.475 2.213 4.912-.068 3.438-2.282-1.474-2.213-4.911.068-3.437 2.282zM47.365 77.068c1.474 2.213 4.911-.068 3.437-2.281-1.469-2.22-4.906.067-3.437 2.28zM54.11 87.213c1.473 2.214 4.906-.067 3.437-2.28-1.474-2.22-4.912.067-3.438 2.28zM38.63 92.88c1.469 2.214 4.906-.067 3.432-2.281-1.468-2.214-4.906.068-3.432 2.281zM29.568 89.672c1.468 2.213 4.9-.068 3.432-2.287-1.474-2.213-4.906.068-3.432 2.287zM17.844 78.984c1.474 2.214 4.906-.067 3.437-2.28-1.474-2.22-4.906.067-3.437 2.28zM31.188 74.734c1.473 2.214 4.906-.067 3.437-2.28-1.474-2.22-4.906.067-3.438 2.28zM91.48 69.307c1.473 2.219 4.905-.067 3.437-2.281-1.474-2.219-4.912.068-3.438 2.281zM71.719 84.75c1.469 2.213 4.906-.068 3.432-2.287-1.469-2.213-4.906.074-3.432 2.287zM16.354 8.396c1.474 2.213 4.906-.068 3.438-2.281-1.474-2.214-4.912.067-3.438 2.28zM42.146 4.339c1.474 2.218 4.906-.068 3.437-2.277-1.474-2.218-4.911.063-3.437 2.277zM79.224 61.286c1.474 2.22 4.906-.067 3.432-2.28-1.469-2.214-4.906.067-3.432 2.28zM39.396 56.964c1.474 2.218 4.906-.063 3.437-2.276-1.474-2.22-4.906.067-3.437 2.276zM46.542 37.594c1.468 2.218 4.906-.068 3.432-2.282-1.469-2.213-4.906.068-3.432 2.282zM79.912 76.224c1.473 2.213 4.906-.068 3.432-2.281-1.469-2.214-4.906.067-3.432 2.281zM62.828 85.266c1.469 2.218 4.906-.068 3.432-2.282-1.468-2.213-4.906.073-3.432 2.282zM63.047 56.646c1.474 2.213 4.906-.068 3.437-2.287-1.468-2.213-4.906.068-3.437 2.287zM16.01 48.646c1.105 1.661 3.683-.052 2.578-1.709-1.104-1.661-3.682.047-2.578 1.709zM4.125 31.917c1.099 1.661 3.677-.052 2.573-1.714-1.104-1.661-3.677.052-2.573 1.714zM16.75 28.912c1.11 1.66 3.682-.053 2.578-1.709-1.104-1.661-3.677.047-2.578 1.709zM60.146 24.703c1.104 1.662 3.682-.047 2.578-1.708-1.104-1.662-3.677.047-2.578 1.708zM70.781 49.969c1.104 1.661 3.677-.052 2.573-1.714-1.099-1.661-3.682.052-2.573 1.714zM85.87 64.568c1.104 1.661 3.682-.047 2.578-1.714-1.104-1.661-3.682.052-2.578 1.714zM55.266 78.75c1.099 1.662 3.682-.052 2.573-1.713-1.105-1.662-3.683.051-2.573 1.713zM46.828 91.542c1.104 1.661 3.677-.047 2.578-1.709-1.104-1.661-3.682.047-2.578 1.709zM54.427 43.901c1.104 1.661 3.682-.052 2.578-1.719-1.104-1.661-3.682.058-2.578 1.719zM45.177 46.198c1.104 1.661 3.682-.052 2.578-1.708-1.104-1.662-3.682.046-2.578 1.708zM38.64 18.984c1.105 1.667 3.683-.052 2.579-1.708-1.104-1.661-3.683.052-2.578 1.708zM24.963 8.833c1.105 1.662 3.683-.052 2.579-1.713-1.105-1.662-3.683.052-2.579 1.713z"/><path fill="#3754DB" d="M500.542 32.776c16.776-7.52 15.682-39.604 8.797-54.104-9.521-24.443-34.714-33.781-57.084-31.912-38.906 2.907-66.021 62.178-29.521 91.839 16.407 14.448 56.047 16.589 71.355-1.042"/><path fill="#05BAD1" d="M487.719 66.63c-1.485 1.995 1.62 4.308 3.104 2.313 1.474-1.995-1.625-4.302-3.104-2.313zM490.302 58.104c-1.479 1.995 1.625 4.307 3.104 2.313 1.479-1.995-1.625-4.302-3.104-2.313zM496.589 65.776c-1.48 1.995 1.625 4.307 3.104 2.313 1.484-1.995-1.62-4.308-3.104-2.313zM488.901 45.87c-1.479 1.995 1.625 4.307 3.109 2.312 1.48-2-1.625-4.302-3.109-2.312zM474.406 49.255c-1.484 1.99 1.62 4.307 3.099 2.313 1.485-2-1.62-4.308-3.099-2.313zM477.443 55.25c-1.479 1.995 1.625 4.302 3.104 2.313 1.479-1.995-1.625-4.308-3.104-2.313zM478.698 63.651c-1.484 1.995 1.62 4.302 3.104 2.307 1.479-1.994-1.625-4.302-3.104-2.307zM473.469 71.698c-1.485 1.995 1.619 4.307 3.104 2.312 1.479-2-1.625-4.307-3.104-2.312zM468.714 59.948c-1.485 1.99 1.619 4.302 3.104 2.307 1.479-1.995-1.625-4.302-3.104-2.307zM462.068 52.755c-1.479 1.995 1.619 4.307 3.099 2.313 1.484-1.995-1.62-4.308-3.099-2.313zM470.51 40.38c-1.484 1.995 1.62 4.302 3.099 2.313 1.485-1.995-1.619-4.308-3.099-2.313zM484.719 29.318c-1.485 1.994 1.62 4.302 3.099 2.307 1.479-1.995-1.62-4.302-3.099-2.307zM496.042 36.255c-1.485 1.995 1.619 4.307 3.104 2.313 1.479-1.995-1.625-4.308-3.104-2.313zM497.333 50.656c-1.479 1.995 1.62 4.302 3.105 2.308 1.479-1.995-1.62-4.303-3.105-2.308zM495.812 74.896c-1.484 1.995 1.62 4.307 3.099 2.312 1.485-1.995-1.619-4.302-3.099-2.312zM486.385 83.557c-1.479 1.99 1.62 4.302 3.099 2.308 1.485-1.99-1.619-4.302-3.099-2.308zM474.635 85.255c-1.479 1.995 1.625 4.308 3.105 2.313 1.479-1.995-1.625-4.308-3.105-2.313zM482.484 74.682c-1.479 1.99 1.625 4.302 3.105 2.313 1.484-1.995-1.62-4.308-3.105-2.313zM459.885 86.958c-1.479 1.995 1.625 4.308 3.105 2.313 1.479-1.99-1.625-4.302-3.105-2.313zM467.062 83.349c-1.479 1.995 1.62 4.307 3.105 2.313 1.479-1.995-1.625-4.308-3.105-2.313zM463.646 74.833c-1.479 1.995 1.625 4.308 3.104 2.313 1.479-1.995-1.62-4.302-3.104-2.313zM452.427 65.734c-1.479 1.99 1.625 4.303 3.104 2.313 1.479-1.995-1.62-4.307-3.104-2.313zM443.948 72.11c-1.479 1.989 1.625 4.302 3.104 2.312 1.479-1.995-1.62-4.307-3.104-2.313zM439.698 63.714c-1.484 1.994 1.62 4.307 3.099 2.312 1.484-1.995-1.62-4.307-3.099-2.312zM448.01 50.5c-1.479 1.995 1.625 4.307 3.105 2.307 1.479-1.99-1.625-4.302-3.105-2.307zM440.526 43.432c-1.479 1.995 1.62 4.302 3.099 2.313 1.484-1.995-1.62-4.307-3.099-2.313zM440.031 22.912c-1.479 1.994 1.625 4.302 3.104 2.312 1.485-1.995-1.619-4.307-3.104-2.313zM431.286 24.61c-1.484 1.989 1.62 4.302 3.099 2.307 1.485-1.99-1.619-4.302-3.099-2.308zM428.12 17.77c-1.479 1.996 1.625 4.303 3.104 2.313 1.484-1.994-1.62-4.302-3.104-2.312zM433.078 5.042c-1.484 2 1.62 4.307 3.104 2.317 1.479-2-1.62-4.307-3.104-2.317zM445.062 2.02c-1.484 1.996 1.62 4.308 3.099 2.313 1.485-1.994-1.619-4.302-3.099-2.312zM436.349 9.719c-1.479 1.995 1.625 4.302 3.104 2.307 1.479-1.99-1.625-4.302-3.104-2.307zM453.24 5.125c-1.48 1.995 1.625 4.307 3.104 2.313 1.484-1.99-1.625-4.303-3.104-2.313zM454.385 15.688c-1.479 1.994 1.625 4.307 3.105 2.312 1.484-1.995-1.62-4.307-3.105-2.313zM453.271 28.292c-1.485 1.99 1.62 4.302 3.099 2.312 1.484-2-1.62-4.307-3.099-2.312zM477.422 14.927c-1.479 1.995 1.625 4.307 3.104 2.313 1.479-1.995-1.62-4.302-3.104-2.313zM474.474 3.77c-1.484 1.996 1.62 4.308 3.099 2.313 1.484-1.994-1.62-4.302-3.099-2.312zM492.724 5.422c-1.479 1.995 1.62 4.307 3.104 2.307 1.479-1.99-1.625-4.302-3.104-2.307zM496.599 11.297c-1.479 1.99 1.625 4.302 3.104 2.307 1.479-1.995-1.62-4.302-3.104-2.307zM499.469 27.61c-1.485 1.994 1.62 4.307 3.099 2.312 1.479-1.995-1.625-4.302-3.099-2.313zM453.365 43.292c-1.48 1.994 1.625 4.302 3.104 2.307 1.479-1.995-1.625-4.302-3.104-2.307zM462.271 28.276c-1.485 1.995 1.62 4.302 3.099 2.307 1.484-1.99-1.62-4.302-3.099-2.307zM469.464 27.662c-1.48 1.994 1.625 4.302 3.109 2.312 1.474-1.995-1.63-4.307-3.109-2.313zM466.281 17.828c-1.479 1.995 1.625 4.307 3.104 2.313 1.48-1.995-1.625-4.308-3.104-2.313zM480.417 32.083c-1.485 1.995 1.619 4.302 3.099 2.308 1.479-1.99-1.62-4.302-3.099-2.308zM486.906 15.27c-1.479 1.996 1.62 4.303 3.099 2.313 1.485-1.994-1.62-4.302-3.099-2.312zM465.682-.536c-1.479 2 1.625 4.307 3.104 2.312 1.48-1.995-1.619-4.302-3.104-2.312zM433.755 35.401c-1.484 1.995 1.62 4.307 3.104 2.313 1.48-1.995-1.625-4.303-3.104-2.313zM424.328 44.063c-1.479 1.994 1.625 4.302 3.104 2.307 1.479-1.995-1.62-4.302-3.104-2.307zM431.083 49.089c-1.479 1.994 1.62 4.302 3.105 2.312 1.479-1.995-1.626-4.307-3.105-2.313zM424.302 58.224c-1.484 1.995 1.62 4.302 3.099 2.307 1.484-1.99-1.62-4.302-3.099-2.307zM414.385 46.36c-1.484 1.994 1.62 4.301 3.099 2.307 1.48-1.99-1.619-4.302-3.099-2.308zM414.323 37.36c-1.479 1.994 1.62 4.301 3.104 2.307 1.479-1.995-1.62-4.302-3.104-2.308zM420 23.667c-1.484 1.994 1.62 4.302 3.099 2.312 1.479-1.995-1.62-4.307-3.099-2.312zM427.984 34.094c-1.479 1.995 1.625 4.302 3.105 2.307 1.479-1.99-1.625-4.302-3.105-2.307zM451.953 85.537c-1.479 1.989 1.625 4.301 3.104 2.307 1.485-1.995-1.619-4.302-3.104-2.307zM432.078 72.969c-1.484 1.995 1.62 4.302 3.099 2.312 1.479-1.995-1.625-4.307-3.099-2.312zM481.646.156c-1.479 2 1.625 4.308 3.104 2.318 1.479-1.995-1.62-4.307-3.104-2.318zM493.427 21.62c-1.479 1.995 1.625 4.307 3.099 2.312 1.484-1.994-1.62-4.307-3.099-2.312zM455.115 72.208c-1.485 1.995 1.619 4.308 3.099 2.313 1.479-1.995-1.62-4.308-3.099-2.313zM446.234 35.74c-1.479 1.994 1.625 4.307 3.105 2.312 1.479-1.995-1.62-4.302-3.105-2.312zM465.557 35.948c-1.479 1.995 1.625 4.307 3.104 2.312 1.48-1.994-1.619-4.307-3.104-2.312zM442.182 77.51c-1.479 1.995 1.625 4.308 3.104 2.313 1.48-1.995-1.619-4.307-3.104-2.313zM428.786 65.292c-1.479 1.995 1.625 4.307 3.105 2.312 1.479-1.99-1.625-4.302-3.105-2.312zM454.047 56.49c-1.474 1.994 1.625 4.302 3.109 2.312 1.479-1.995-1.625-4.307-3.109-2.312zM446.115 12.51c-1.115 1.495 1.218 3.23 2.323 1.735 1.109-1.495-1.214-3.23-2.323-1.735zM463.719 6.958c-1.11 1.5 1.213 3.23 2.323 1.735 1.114-1.495-1.214-3.23-2.323-1.735zM481.234 43.89c-1.109 1.495 1.219 3.23 2.328 1.735 1.11-1.495-1.213-3.23-2.328-1.734zM462.385 61.208c-1.109 1.495 1.219 3.23 2.329 1.73 1.114-1.495-1.214-3.23-2.329-1.73zM454.344 79.099c-1.11 1.495 1.213 3.23 2.328 1.734 1.104-1.495-1.224-3.229-2.328-1.734zM432.115 56.578c-1.11 1.495 1.218 3.23 2.328 1.734 1.109-1.494-1.214-3.229-2.328-1.734zM418.172 53.161c-1.11 1.495 1.213 3.23 2.328 1.735 1.109-1.495-1.219-3.224-2.328-1.735zM462.521 44.885c-1.109 1.495 1.219 3.224 2.333 1.73 1.11-1.495-1.224-3.23-2.333-1.73zM457.552 37.453c-1.109 1.495 1.219 3.23 2.328 1.734 1.11-1.494-1.213-3.229-2.328-1.734zM479.422 23.135c-1.115 1.495 1.219 3.23 2.328 1.735 1.109-1.5-1.219-3.23-2.328-1.735zM484.005 7.885c-1.109 1.495 1.214 3.23 2.323 1.735 1.115-1.495-1.213-3.23-2.323-1.735z"/><path fill="#0056D5" d="M134.024 174.942c-1.625.531-3.573.948-5.833 1.25-2.266.307-4.094.427-5.479.354a69.367 69.367 0 0 0-.813 4.521c-.182 1.291-.625 2.057-1.333 2.291-.698.24-1.558.261-2.584.063a6.402 6.402 0 0 1-1.958-.667 12.224 12.224 0 0 1-1.771-1.208c-.458-.386-.771-.938-.937-1.646a6.936 6.936 0 0 1-.271-1.687c-.016-.594 0-1.167.042-1.709.067-1.51.364-3.437.895-5.771a92.688 92.688 0 0 1 1.98-7.208 91.328 91.328 0 0 1 2.583-7.083c.943-2.261 1.864-4.084 2.771-5.459.427-.708.963-1.416 1.604-2.125.651-.708 1.417-1.156 2.292-1.354.875-.167 2.026-.135 3.458.084 1.443.223 2.521.635 3.229 1.229 1.25.682 2.547 2.203 3.896 4.562 1.359 2.365 2.609 4.959 3.75 7.792a95.483 95.483 0 0 1 2.958 8.292c.818 2.708 1.323 4.744 1.521 6.104.177 1.333.208 2.458.083 3.375-.14.765-.427 1.333-.854 1.708a8.655 8.655 0 0 1-1.666 1.292 7.365 7.365 0 0 1-1.875.75c-1.016.281-1.886.333-2.605.166-.708-.177-1.198-.901-1.458-2.166a121.535 121.535 0 0 0-1.625-5.75zm-11-3.5c3.219.057 6.589-.344 10.104-1.209a106.625 106.625 0 0 0-5.479-12.145c-1.766 4.114-3.307 8.562-4.625 13.354zM154.04 159.775c2.485-3.776 4.318-6.401 5.5-7.875 1.177-1.469 2.49-2.693 3.938-3.667.593-.401 1.26-.781 2-1.146.75-.375 1.463-.505 2.146-.395.776.14 1.885.843 3.333 2.104 1.443 1.265 1.651 2.427.625 3.479-.25.292-.557.552-.917.771-.349.224-.682.437-1 .646-1.89 1.239-3.5 2.578-4.833 4.02a109.113 109.113 0 0 0-3.938 4.521c.917.667 2.136 1.615 3.667 2.834a765.435 765.435 0 0 1 4.667 3.77 165.907 165.907 0 0 1 4.375 3.667c1.333 1.141 2.229 1.958 2.687 2.458 1.068 1.24.792 2.636-.833 4.188-1.625 1.542-2.849 2.391-3.667 2.542-.807.156-1.792-.219-2.958-1.125a72.224 72.224 0 0 1-3.5-2.938 64.865 64.865 0 0 1-3.542-3.417 64.22 64.22 0 0 0-3.896-3.729c-1.281-1.041-2.218-1.635-2.812-1.791.885 4.073 1.818 7.244 2.792 9.52.151.391.322.803.52 1.23.193.416.313.833.355 1.25.083.765-.24 1.349-.959 1.75-.708.39-1.562.661-2.562.812-1 .156-1.802.198-2.396.125-.584-.068-1.084-.198-1.5-.396-.792-.317-1.427-.875-1.896-1.666-.458-.792-.823-1.552-1.083-2.292-.599-1.427-1.12-3.276-1.563-5.542a87.88 87.88 0 0 1-1.083-7.062 89.275 89.275 0 0 1-.5-7.042c-.073-2.276 0-4.13.208-5.562.208-1.292.485-2.334.833-3.125.303-.61.709-1.052 1.209-1.334.594-.317 1.13-.521 1.604-.604a10.536 10.536 0 0 1 1.75-.125c1 .016 1.792.198 2.375.542.583.349.859 1.14.833 2.375-.125 1.64-.119 4.385.021 8.229z"/><path fill="#0056D5" d="M197.935 164.754l2.354 1.625c.068.042.13.078.187.104 1.886 1.141 3.198 2.495 3.938 4.063.734 1.573.739 3.333.021 5.291-.75 1.959-2.099 3.615-4.042 4.959-1.266.89-2.807 1.531-4.625 1.916a22.796 22.796 0 0 1-5.625.438l-.021.021v.021c-2.432-.136-3.594-.302-3.479-.5a20.482 20.482 0 0 1-2.229-.563l-4.375-2a10.294 10.294 0 0 1-2.229-1.854.306.306 0 0 0-.084-.083c-.031-.011-.041-.047-.041-.105-.032 0-.058-.02-.084-.062-.031-.042-.041-.068-.041-.083-.349-.386-.532-.813-.563-1.271v-.188a60.91 60.91 0 0 1 .104-2.104c.042-.818.172-1.489.396-2.021.235-.593.589-.781 1.063-.562.484.208.885.453 1.208.729.026.073.063.115.104.125a.228.228 0 0 1 .104.083 12.395 12.395 0 0 0 2.75 1.792c2.292 1.099 5.073 1.62 8.355 1.562.109-.052.276-.145.5-.27.718-.417.885-.985.5-1.709-.042-.026-.073-.052-.084-.083a1.954 1.954 0 0 0-.062-.146c-.209-.234-2.162-1.38-5.854-3.437-3.532-2.427-5.553-4.047-6.063-4.855-1.25-1.859-1.625-3.729-1.125-5.604s1.609-3.505 3.333-4.896c3-2.458 7.813-3.354 14.438-2.687.802.25 1.526.495 2.167.729.218.099.562.261 1.02.479.427.25.943.516 1.542.792.734.323 1.031.661.896 1.021.042.057.088.125.146.208.385.516.692 1.224.916 2.125.235.891.052 1.599-.541 2.125a.53.53 0 0 1-.125.104c-.516.407-1.245.495-2.188.271a34.669 34.669 0 0 0-2.979-.708l-1.625-.417c-2.099-.26-3.635-.396-4.604-.396-1.958.657-1.5 1.912 1.375 3.771.25.24 2.005.99 5.271 2.25zM205.855 178.588c.011-1.178.615-1.771 1.813-1.771.151 0 .52.015 1.104.041.583.032.979.042 1.187.042-.083-1.344-.156-3.417-.208-6.208 0-1.344.042-3.021.125-5.021.109-1.75.25-3.417.417-5 .375-3.177.75-5.313 1.125-6.396-.823-.068-1.313-.109-1.48-.125a57.548 57.548 0 0 0-1.937-.167c-.125 0-.313-.02-.563-.062-.057 0-.203-.026-.437-.083-.583-.11-.99-.485-1.208-1.125-.209-.527-.146-1.209.187-2.042.344-.833.646-1.422.896-1.771.401-.443 1.24-.755 2.521-.937 1.219-.152 2.594-.198 4.125-.146 1.51.057 2.943.166 4.291.333 1.219.167 2.214.328 2.98.479.135.016.343.094.625.229.151.073.343.183.583.334 0 0 .187.14.562.416.094.073.271.219.521.438.125.125.407 1.042.854 2.75-.041 1.015-.416 1.573-1.125 1.667-.708.083-1.416.119-2.125.104-.375 0-1.031-.021-1.958-.063-.323 2.932-.536 5.099-.646 6.5a105.392 105.392 0 0 0-.312 4.834 52.429 52.429 0 0 0 0 4.791c.094 2.875.219 4.995.375 6.354.844.141 1.422.224 1.729.25.208.032.417.052.625.063.219.015.417.021.583.021.276.041.61.083 1 .125.151.015.282.036.396.062.11.031.214.042.313.042.552.125.963.51 1.229 1.146l-.292 2.458c-.224.708-.448 1.198-.667 1.458-.375.448-1.218.766-2.52.959a13.15 13.15 0 0 1-1.959.166c-.708 0-1.427-.005-2.146-.02a39.764 39.764 0 0 1-4.312-.334 37.193 37.193 0 0 1-3-.458c-.281-.094-.474-.177-.583-.25-.115-.042-.323-.151-.625-.333a43.226 43.226 0 0 0-.563-.417c.026.015-.14-.13-.5-.438-.114-.067-.312-.51-.604-1.333-.292-.818-.427-1.339-.396-1.562zM225.364 153.775c.61-.776 1.151-1.339 1.625-1.688a46.249 46.249 0 0 1 2.042-1.395c.943-.334 1.901-.105 2.875.687 1.401 1.141 2.573 2.766 3.521 4.875.958 2.099 2.083 3.787 3.375 5.063.401.432.838.515 1.312.25a6.401 6.401 0 0 0 1.209-.896c.927-.875 1.838-2.104 2.729-3.688a1743.65 1743.65 0 0 0 2.25-4.062c.375-.693.781-1.193 1.229-1.5.443-.318 1.109-.318 2 0 .818.333 1.505.76 2.063 1.271a15.624 15.624 0 0 1 1.645 1.812c.594.766.75 1.787.459 3.063-.391 1.614-1.073 3.218-2.042 4.812a112.955 112.955 0 0 1-2.854 4.417 55.555 55.555 0 0 1-3 4.041 151.975 151.975 0 0 1-3.229 3.834 891.23 891.23 0 0 1-3 3.354 24.208 24.208 0 0 1-3.313 3.021c-1.281.958-2.448 1.578-3.5 1.854-.833.198-1.802.057-2.896-.417-1.083-.468-1.843-.979-2.27-1.521a53.507 53.507 0 0 1-1.313-1.75c-.432-.625-.411-1.213.063-1.77.375-.459.921-.907 1.645-1.355.735-.458 1.355-.958 1.855-1.5.442-.468.88-.859 1.312-1.166.443-.302 1.042-.969 1.792-2 1.458-1.61 1.427-3.255-.084-4.938-.599-.833-1.448-1.854-2.541-3.062a154.528 154.528 0 0 1-2.604-2.959 40.878 40.878 0 0 1-1.396-1.687 10.14 10.14 0 0 1-1.167-1.854c-.307-.583-.469-1.104-.479-1.563-.016-.458.213-.984.687-1.583zM275.412 174.942c-1.625.531-3.573.948-5.833 1.25-2.266.307-4.094.427-5.48.354a69.995 69.995 0 0 0-.812 4.521c-.182 1.291-.625 2.057-1.333 2.291-.698.24-1.558.261-2.584.063a6.402 6.402 0 0 1-1.958-.667 12.224 12.224 0 0 1-1.771-1.208c-.458-.386-.771-.938-.937-1.646a6.936 6.936 0 0 1-.271-1.687c-.016-.594 0-1.167.041-1.709.068-1.51.365-3.437.896-5.771a91.743 91.743 0 0 1 4.563-14.291c.943-2.261 1.864-4.084 2.771-5.459.427-.708.963-1.416 1.604-2.125.651-.708 1.416-1.156 2.291-1.354.875-.167 2.027-.135 3.459.084 1.443.223 2.521.635 3.229 1.229 1.25.682 2.547 2.203 3.896 4.562 1.359 2.365 2.609 4.959 3.75 7.792a95.483 95.483 0 0 1 2.958 8.292c.818 2.708 1.323 4.744 1.521 6.104.177 1.333.208 2.458.083 3.375-.14.765-.427 1.333-.854 1.708a8.63 8.63 0 0 1-1.667 1.292 7.336 7.336 0 0 1-1.875.75c-1.015.281-1.885.333-2.604.166-.708-.177-1.198-.901-1.458-2.166a121.535 121.535 0 0 0-1.625-5.75zm-11-3.5c3.219.057 6.589-.344 10.104-1.209a106.625 106.625 0 0 0-5.479-12.145c-1.766 4.114-3.307 8.562-4.625 13.354zM291.18 181.483c-.641-.109-1.125-.234-1.459-.375-.541-.218-.979-.625-1.312-1.208-.459-.734-.828-1.714-1.104-2.938-.334-1.359-.579-3.145-.73-5.354a83.291 83.291 0 0 1-.187-6.916c.042-2.386.172-4.709.396-6.959.234-2.25.567-4.093 1-5.541.177-.75.463-1.521.854-2.313.385-.792.943-1.396 1.667-1.812.385-.209.901-.381 1.541-.521.636-.136 1.438-.177 2.396-.125.969.041 1.833.229 2.583.562.75.323 1.11.854 1.084 1.604a4.764 4.764 0 0 1-.229 1.25c-.141.433-.266.834-.375 1.209-.974 3.14-1.599 6.698-1.875 10.666-.266 3.974-.245 8.344.062 13.105 2.25.281 4.573.369 6.979.27a33.602 33.602 0 0 0 7.209-1.125 21.48 21.48 0 0 0 1.062-.291c.375-.11.75-.167 1.125-.167 1.318 0 1.906.823 1.771 2.458-.141 1.641-.417 2.808-.833 3.5-.375.615-.917 1.073-1.625 1.375-.709.292-1.391.521-2.042.688-2.557.599-5.479.786-8.771.562-3.292-.234-6.125-.697-8.5-1.395-.125-.042-.245-.073-.354-.105a2.381 2.381 0 0 1-.333-.104zM335.567 174.942c-1.625.531-3.573.948-5.834 1.25-2.265.307-4.093.427-5.479.354a68.647 68.647 0 0 0-.812 4.521c-.183 1.291-.625 2.057-1.334 2.291-.698.24-1.557.261-2.583.063a6.393 6.393 0 0 1-1.958-.667 12.224 12.224 0 0 1-1.771-1.208c-.458-.386-.771-.938-.938-1.646a6.985 6.985 0 0 1-.27-1.687c-.016-.594 0-1.167.041-1.709.068-1.51.365-3.437.896-5.771a93.117 93.117 0 0 1 1.979-7.208 91.328 91.328 0 0 1 2.584-7.083c.942-2.261 1.864-4.084 2.77-5.459.427-.708.964-1.416 1.605-2.125.651-.708 1.416-1.156 2.291-1.354.875-.167 2.026-.135 3.459.084 1.442.223 2.52.635 3.229 1.229 1.25.682 2.547 2.203 3.896 4.562 1.359 2.365 2.609 4.959 3.75 7.792a95.483 95.483 0 0 1 2.958 8.292c.818 2.708 1.323 4.744 1.521 6.104.177 1.333.208 2.458.083 3.375-.141.765-.427 1.333-.854 1.708a8.66 8.66 0 0 1-1.667 1.292 7.336 7.336 0 0 1-1.875.75c-1.015.281-1.885.333-2.604.166-.708-.177-1.198-.901-1.458-2.166a122.745 122.745 0 0 0-1.625-5.75zm-11-3.5c3.218.057 6.588-.344 10.104-1.209a106.975 106.975 0 0 0-5.479-12.145c-1.766 4.114-3.308 8.562-4.625 13.354zM347.188 156.962c.084-1.192.229-1.984.438-2.375.219-.401.958-.968 2.208-1.708 3.344-1.917 7.214-3 11.604-3.25 4.401-.26 8.177.99 11.334 3.75 1.458 1.292 2.609 2.953 3.458 4.979.844 2.032.802 3.969-.125 5.813a5.121 5.121 0 0 1-1.563 1.916 9.253 9.253 0 0 0-1.75 1.709c-.432.599-.624 1.239-.583 1.917.011.489.104.947.271 1.374.135.407.323.792.562 1.167.219.391.485.74.792 1.042.334.349.667.656 1 .917.292.223.672.5 1.146.833.26.182.677.437 1.25.771.177.125.375.244.583.354.219.114.438.239.646.375.542.292.938.515 1.188.667.802.5.937 1.135.395 1.895-.432.641-1.036 1.313-1.812 2.021-.781.708-1.51 1.271-2.188 1.688-.875.557-1.854.614-2.937.166-1.073-.734-2.495-2.109-4.271-4.125a362.123 362.123 0 0 0-4.229-4.75c-.625-.593-1.417-.989-2.375-1.187-.948-.193-1.792.052-2.542.729-.791.75-1.114 2.104-.958 4.063.151 1.947.323 3.406.521 4.375.094.598.026.989-.209 1.166-.239.167-.604.281-1.104.334a8.044 8.044 0 0 1-1.729.062 8.29 8.29 0 0 0-1.542.021 9.939 9.939 0 0 1-1.27-.167 1.82 1.82 0 0 1-1.063-.646c-.614-.651-1.292-2.229-2.042-4.729-.739-2.51-1.203-4.25-1.395-5.208l-.125-.5c-.032-.177-.063-.365-.105-.563a95.414 95.414 0 0 1-1.27-7.312c-.349-2.625-.417-5.151-.209-7.584zm18.021-.125c-2.198-.635-4.479-.541-6.854.292-1.141.432-1.927 1.203-2.354 2.313-.24.656-.271 1.661-.104 3.02.177 1.365.484 2.292.916 2.792.917 1.031 2.198 1.479 3.854 1.354a27.534 27.534 0 0 0 2.48-.375 10.339 10.339 0 0 0 2.395-.812c1.25-.568 2.152-1.542 2.709-2.917.552-1.385.375-2.708-.542-3.958-.698-.86-1.531-1.427-2.5-1.709zM396.76 180.546c0 1.031-.604 1.849-1.812 2.458-1.057.542-2.349.813-3.875.813-1.792 0-3.219-.344-4.271-1.042-.958-.609-1.437-1.344-1.437-2.208 0-.927.531-1.714 1.604-2.355 1.026-.651 2.385-.979 4.083-.979 1.75 0 3.167.37 4.25 1.104.969.657 1.458 1.391 1.458 2.209zm-1.708-7.792c.094.25.172.511.229.771.052.24.042.437-.041.604-.073.198-.219.349-.438.458-.224.167-.542.287-.958.355-.823.182-1.75.265-2.792.25a17.845 17.845 0 0 1-2.896-.25c-.948-.125-1.76-.615-2.437-1.48a8.238 8.238 0 0 1-1.146-1.708c-.281-.469-.563-1.068-.854-1.792-.198-.5-.407-1.125-.625-1.875l-.292-.895a23.645 23.645 0 0 1-.229-.896 16.262 16.262 0 0 1-.396-1.771 6.542 6.542 0 0 1-.208-.833 68.095 68.095 0 0 1-.167-.896 29.536 29.536 0 0 1-.208-1.729 17.188 17.188 0 0 1-.209-1.75 78.862 78.862 0 0 1-.312-3.125c-.073-1.052 0-2.089.208-3.105.177-1.052.563-1.895 1.146-2.52.333-.427 1.089-.776 2.271-1.042 1-.208 2.125-.281 3.375-.229 1.234.057 2.276.219 3.125.479.927.307 1.427.688 1.5 1.146v.666c-.042.141-.104.407-.188.792-.406 1.583-.494 3.391-.27 5.417.234 2.031.442 3.89.625 5.583.151 1.573.395 3.141.729 4.708a26.334 26.334 0 0 0 1.458 4.667zM276.766 63.11v65.025a3.09 3.09 0 0 1-1.396 2.605 3.072 3.072 0 0 1-1.776.541 3.96 3.96 0 0 1-1.188-.208l-42.62-16.906-6.687-2.646-3.047-1.214-.552-.208c-1.182-.505-1.984-1.641-1.984-2.938V84.083c0-1.296.802-2.432 1.984-2.932l.552-.213 52.354-20.766a3.264 3.264 0 0 1 2.964.333 3.095 3.095 0 0 1 1.396 2.604z"/><path fill="#0056D5" d="M232.328 136.193c.083.88-.213 1.76-.807 2.432-.589.672-1.479 1.047-2.37 1.047h-12.698c-1.562 0-2.917-1.13-3.13-2.682l-3.849-26.683h10.578l3.047 1.214 6.687 2.646 2.542 22.026z"/><path fill="#05BAD1" d="M284.172 87.234a3.192 3.192 0 0 1-2.479-1.182 3.138 3.138 0 0 1 .495-4.427l10.583-8.39a3.206 3.206 0 0 1 4.463.494 3.132 3.132 0 0 1-.494 4.422l-10.584 8.39a3.194 3.194 0 0 1-1.984.693zM294.755 122.891a3.186 3.186 0 0 1-1.984-.688l-10.583-8.391a3.137 3.137 0 0 1-.495-4.427 3.21 3.21 0 0 1 4.463-.489l10.584 8.39a3.14 3.14 0 0 1 .494 4.428 3.195 3.195 0 0 1-2.479 1.177zM294.755 100.87h-10.583c-1.75 0-3.172-1.412-3.172-3.151 0-1.735 1.422-3.146 3.172-3.146h10.583c1.75 0 3.172 1.411 3.172 3.146 0 1.74-1.422 3.151-3.172 3.151zM205.875 80.938c-5.25 0-9.526 4.24-9.526 9.442v11.537c0 4.948 3.896 8.39 9.526 8.39h14.177v-29.37h-14.177z"/><path fill="#0056D5" d="M173.033 42.254c-1.625.53-3.573.948-5.833 1.25-2.266.307-4.094.427-5.479.354a69.473 69.473 0 0 0-.813 4.52c-.182 1.292-.625 2.058-1.333 2.292-.698.24-1.557.26-2.583.063a6.401 6.401 0 0 1-1.959-.667 12.252 12.252 0 0 1-1.77-1.208c-.459-.386-.771-.938-.938-1.646a6.981 6.981 0 0 1-.271-1.688c-.015-.593 0-1.166.042-1.708.068-1.51.364-3.437.896-5.77a91.781 91.781 0 0 1 4.562-14.292c.943-2.26 1.865-4.084 2.771-5.459.427-.708.964-1.416 1.604-2.125.651-.708 1.417-1.156 2.292-1.354.875-.167 2.026-.135 3.458.083 1.443.225 2.521.636 3.229 1.23 1.25.682 2.547 2.203 3.896 4.562 1.36 2.365 2.61 4.959 3.75 7.792a95.565 95.565 0 0 1 2.959 8.292c.817 2.708 1.322 4.744 1.52 6.104.177 1.333.209 2.458.084 3.375-.141.765-.427 1.333-.854 1.708a8.626 8.626 0 0 1-1.667 1.292 7.343 7.343 0 0 1-1.875.75c-1.016.28-1.886.333-2.604.166-.709-.177-1.198-.9-1.459-2.166a121.737 121.737 0 0 0-1.625-5.75zm-11-3.5c3.219.057 6.589-.344 10.105-1.209a106.896 106.896 0 0 0-5.48-12.146c-1.765 4.115-3.307 8.563-4.625 13.355zM193.051 27.087c2.484-3.776 4.318-6.401 5.5-7.875 1.177-1.469 2.489-2.693 3.937-3.667a17.082 17.082 0 0 1 2-1.146c.75-.374 1.464-.505 2.146-.395.776.14 1.886.843 3.333 2.104 1.443 1.265 1.652 2.427.625 3.479-.25.292-.557.552-.916.77-.349.225-.682.438-1 .647-1.891 1.24-3.5 2.578-4.834 4.02a109.317 109.317 0 0 0-3.937 4.521c.917.667 2.135 1.615 3.667 2.834a709.563 709.563 0 0 1 4.666 3.77 163.551 163.551 0 0 1 4.375 3.667c1.334 1.14 2.229 1.959 2.688 2.459 1.068 1.24.791 2.635-.834 4.187-1.625 1.542-2.848 2.39-3.666 2.542-.807.156-1.792-.22-2.959-1.125a73.243 73.243 0 0 1-3.5-2.938 65.25 65.25 0 0 1-3.541-3.416 64.099 64.099 0 0 0-3.896-3.73c-1.281-1.041-2.219-1.635-2.813-1.791.886 4.073 1.818 7.245 2.792 9.52.151.391.323.803.521 1.23.193.416.312.833.354 1.25.083.765-.239 1.349-.958 1.75-.709.39-1.563.661-2.563.812-1 .156-1.802.198-2.396.125-.583-.068-1.083-.198-1.5-.396-.791-.317-1.427-.875-1.895-1.666a13.68 13.68 0 0 1-1.084-2.292c-.599-1.427-1.119-3.276-1.562-5.542a88.318 88.318 0 0 1-1.084-7.062 89.763 89.763 0 0 1-.5-7.042c-.072-2.276 0-4.13.209-5.562.208-1.292.484-2.334.833-3.125.302-.61.708-1.052 1.208-1.334.594-.317 1.131-.52 1.605-.604a10.485 10.485 0 0 1 1.75-.125c1 .016 1.791.198 2.375.542.583.349.859 1.14.833 2.375-.125 1.64-.12 4.385.021 8.229zM246.319 51.795c-2.781-.057-10.302-.224-22.562-.5-.698.042-1.24.021-1.625-.062-.391-.083-.896-.26-1.521-.542a3.039 3.039 0 0 1-1.271-1.291c-.432-.844-.771-1.875-1.021-3.084-.281-1.416-.448-3.255-.5-5.52a85.828 85.828 0 0 1 .125-7.084c.151-2.458.385-4.823.708-7.104.318-2.276.73-4.146 1.23-5.604.25-.76.583-1.547 1-2.355.416-.817 1.005-1.4 1.77-1.75.427-.234.964-.416 1.605-.541.635-.125 1.458-.136 2.458-.042 1.01.084 1.896.313 2.646.688.76.364 1.114.927 1.062 1.687a5.542 5.542 0 0 1-.333 1.25 43.56 43.56 0 0 0-.438 1.271c-.656 1.75-1.166 8.89-1.541 21.417 1.333.416 3.291.698 5.875.833 2.583.125 4.63.073 6.146-.167.208-13.067.552-20.448 1.041-22.146.333-1.208.75-2.208 1.25-3 .375-.583.839-.963 1.396-1.145.635-.235 1.214-.344 1.729-.334a13 13 0 0 1 1.771.146c1 .125 1.76.412 2.292.854.526.433.687 1.25.479 2.459-.792 4.125-1.208 8.703-1.25 13.729-.042 3.417.172 6.573.646 9.458 1.135-.125 2.192-.125 3.166 0 .677.14.959.688.834 1.646-.474 4.167-.427 7.854.146 11.063-.115.359-.37.546-.771.562-2.698.125-4.459-.099-5.292-.667-.599-.375-.906-.745-.917-1.104-.114-1-.224-2.01-.333-3.02zM266.47 48.733c-1.375 1.224-2.557 1.906-3.542 2.042-.989.14-1.781.078-2.375-.188-.515-.193-.958-.589-1.333-1.188-.5-.802-.912-1.833-1.229-3.083-.417-1.458-.771-3.354-1.063-5.687a111.947 111.947 0 0 1-.625-7.334c-.125-2.541-.161-5-.104-7.375.052-2.375.229-4.338.521-5.896.135-.776.359-1.593.667-2.458.302-.875.796-1.541 1.479-2 .718-.51 1.979-.838 3.771-.979 1.791-.135 2.718.604 2.791 2.23.026.447-.015.89-.125 1.332-.114.448-.208.886-.291 1.313-.584 2.865-.917 6.042-1 9.542-.084 3.5.031 6.968.354 10.396 3.458-4.276 6.01-7.86 7.666-10.75 1.651-2.886 3.068-5.678 4.25-8.375 1.177-2.709 2.084-4.26 2.709-4.667.375-.26 1.005-.5 1.896-.709a11.584 11.584 0 0 1 2.75-.291c.927.015 1.755.182 2.479.5.734.307 1.109.864 1.125 1.666 0 .417-.058.85-.167 1.292a19.53 19.53 0 0 0-.25 1.354c-.849 4.032-1.182 8.641-1 13.834.177 5.182.688 9.927 1.521 14.229.25 1.25.13 2.104-.354 2.562-.49.448-1.188.73-2.104.855-.615.099-1.073.145-1.375.145-.308-.01-.771-.145-1.396-.395-.5-.22-.938-.625-1.313-1.209-.474-.791-.89-1.812-1.25-3.062-.292-1.026-.557-2.271-.791-3.73-.224-1.458-.245-5.53-.063-12.229-4.083 7.834-7.245 13.078-9.479 15.73-.458.49-1.375 1.349-2.75 2.583zM300.536 48.733c-1.375 1.224-2.557 1.906-3.541 2.042-.99.14-1.781.078-2.375-.188-.516-.193-.959-.589-1.334-1.188-.5-.802-.911-1.833-1.229-3.083-.416-1.458-.77-3.354-1.062-5.687a111.26 111.26 0 0 1-.625-7.334c-.125-2.541-.162-5-.104-7.375.052-2.375.229-4.338.52-5.896.136-.776.36-1.593.667-2.458.302-.875.797-1.541 1.479-2 .719-.51 1.979-.838 3.771-.979 1.792-.135 2.719.604 2.792 2.23.026.447-.016.89-.125 1.332-.115.448-.209.886-.292 1.313-.583 2.865-.917 6.042-1 9.542-.083 3.5.031 6.968.354 10.396 3.459-4.276 6.011-7.86 7.667-10.75 1.651-2.886 3.068-5.678 4.25-8.375 1.177-2.709 2.083-4.26 2.708-4.667.375-.26 1.006-.5 1.896-.709a11.59 11.59 0 0 1 2.75-.291c.927.015 1.755.182 2.479.5.735.307 1.11.864 1.125 1.666 0 .417-.057.85-.166 1.292-.099.448-.183.896-.25 1.354-.849 4.032-1.183 8.641-1 13.834.177 5.182.687 9.927 1.52 14.229.25 1.25.131 2.104-.354 2.562-.489.448-1.187.73-2.104.855-.614.099-1.073.145-1.375.145-.307-.01-.771-.145-1.396-.395-.5-.22-.937-.625-1.312-1.209-.474-.791-.891-1.812-1.25-3.062-.292-1.026-.557-2.271-.792-3.73-.224-1.458-.245-5.53-.062-12.229-4.084 7.834-7.245 13.078-9.48 15.73-.458.49-1.375 1.349-2.75 2.583zM338.832 47.858c0 1.031-.604 1.849-1.812 2.458-1.057.542-2.349.813-3.875.813-1.792 0-3.219-.344-4.271-1.042-.958-.61-1.438-1.344-1.438-2.208 0-.927.532-1.714 1.605-2.354 1.026-.651 2.385-.98 4.083-.98 1.75 0 3.167.37 4.25 1.105.969.656 1.458 1.39 1.458 2.208zm-1.708-7.792c.094.25.172.51.229.771.052.24.042.438-.042.604-.072.198-.218.35-.437.459-.224.166-.542.286-.958.354-.823.182-1.75.265-2.792.25a17.755 17.755 0 0 1-2.896-.25c-.948-.125-1.76-.615-2.437-1.48a8.273 8.273 0 0 1-1.146-1.708c-.281-.469-.563-1.068-.854-1.791-.198-.5-.407-1.125-.625-1.875l-.292-.896a23.836 23.836 0 0 1-.229-.896 16.258 16.258 0 0 1-.396-1.771 6.538 6.538 0 0 1-.208-.833 69.333 69.333 0 0 1-.167-.896 29.588 29.588 0 0 1-.208-1.73 17.18 17.18 0 0 1-.209-1.75 78.693 78.693 0 0 1-.312-3.124c-.073-1.052 0-2.089.208-3.105.177-1.052.563-1.895 1.146-2.52.333-.427 1.089-.776 2.271-1.042 1-.208 2.125-.281 3.375-.23 1.234.058 2.276.22 3.125.48.927.307 1.427.688 1.5 1.146v.666c-.042.141-.104.407-.188.792-.406 1.584-.494 3.39-.271 5.417.235 2.031.443 3.89.625 5.583.152 1.573.396 3.14.73 4.709a26.326 26.326 0 0 0 1.458 4.666z"/></g><defs><clipPath id="clip0_5_1053"><path fill="#fff" d="M0 0h500v200H0z"/></clipPath></defs></svg>