<svg xmlns="http://www.w3.org/2000/svg" fill="none" viewBox="0 0 100 100"><path fill="#4C6FFF" d="M100 50c0 27.614-22.386 50-50 50S0 77.614 0 50 22.386 0 50 0s50 22.386 50 50zM2.304 50c0 26.342 21.354 47.696 47.696 47.696S97.696 76.342 97.696 50 76.342 2.304 50 2.304 2.304 23.658 2.304 50z"/><path fill="#4C6FFF" d="M52.634 69.436c.694-2.03 3.353-6.45 8.43-7.886 6.347-1.795 9.36-3.621 11.86-9.07 2.916-5.482 3.237-6.86 3.429-7.47.192-.608.766-1.847.962-3.685.195-1.839-.952-.753-1.38-.083a82.598 82.598 0 0 1-9.34 12.095c-.562.607-1.63 1.228-2.122 1.375-.49.147-1.374.292-.848-.97.525-1.263 4.284-4.413 4.972-6.246.303-.808.545-1.495-1.435-.748-1.981.748-8.873 4.932-11.521 9.54-2.648 4.609-3.828 9.24-3.007 13.148zM48.037 69.436c-.695-2.03-3.353-6.45-8.43-7.886-6.347-1.795-9.36-3.621-11.86-9.07-2.916-5.482-3.237-6.86-3.43-7.47-.192-.608-.765-1.847-.961-3.685-.196-1.839.952-.753 1.38-.083a82.599 82.599 0 0 0 9.339 12.095c.563.607 1.631 1.228 2.122 1.375.49.147 1.375.292.85-.97-.526-1.263-4.286-4.413-4.973-6.246-.303-.808-.546-1.495 1.435-.748 1.98.748 8.873 4.932 11.52 9.54 2.648 4.609 3.829 9.24 3.008 13.148zM35.371 30.625v-10h5.625V25l9.375-10 21.875 22.5h-7.5L50.371 23.125 36.621 37.5h-8.125l6.875-6.875z"/><path fill="#4C6FFF" d="M59.746 41.25c-.624 4.99-6.641 8.32-9.358 9.99-2.716-1.67-8.734-5-9.358-9.99-.623-4.985 7.451-8.727 9.358-1.317 1.907-7.41 9.981-3.668 9.358 1.317zM17.926 81.315a.3.3 0 0 1-.202-.08.3.3 0 0 1-.079-.202v-2.418l-2.61-4.815a.622.622 0 0 1-.034-.124c0-.06.023-.113.068-.158a.248.248 0 0 1 .18-.078h1.406c.15 0 .281.078.394.236l1.608 2.902 1.62-2.902a.43.43 0 0 1 .394-.236h1.407c.067 0 .123.026.168.078a.216.216 0 0 1 .068.158.394.394 0 0 1-.023.124l-2.61 4.815v2.418c0 .083-.03.15-.09.203a.274.274 0 0 1-.202.079h-1.463zM23.8 81.427c-.398 0-.762-.075-1.092-.225a1.992 1.992 0 0 1-.765-.63c-.18-.27-.27-.566-.27-.889 0-.517.21-.933.63-1.248.427-.315 1.012-.533 1.755-.653l1.406-.214v-.157c0-.285-.06-.495-.18-.63s-.322-.203-.607-.203a.903.903 0 0 0-.428.09c-.112.06-.229.143-.349.248a1.78 1.78 0 0 1-.236.18c-.022.06-.064.09-.124.09h-1.226a.284.284 0 0 1-.191-.068.227.227 0 0 1-.056-.18c.007-.202.105-.427.292-.675.195-.247.488-.46.878-.64.397-.18.885-.27 1.462-.27.923 0 1.605.205 2.048.618.442.405.663.952.663 1.642v3.42a.3.3 0 0 1-.078.203.274.274 0 0 1-.203.079h-1.305a.3.3 0 0 1-.202-.08.3.3 0 0 1-.08-.202v-.393a1.844 1.844 0 0 1-.697.573c-.292.143-.64.214-1.046.214zm.528-1.282c.345 0 .622-.113.832-.338.218-.225.327-.555.327-.99v-.157l-.957.168c-.675.12-1.012.357-1.012.71 0 .187.079.337.236.45.158.104.349.157.574.157zM32.797 83.452a.3.3 0 0 1-.202-.079.274.274 0 0 1-.079-.202v-2.498c-.36.503-.907.754-1.642.754-.728 0-1.302-.232-1.722-.697-.42-.473-.645-1.114-.675-1.924l-.01-.416.01-.417c.038-.832.263-1.477.675-1.935.413-.457.987-.686 1.722-.686.757 0 1.338.266 1.743.799v-.405c0-.083.027-.15.08-.203a.3.3 0 0 1 .202-.078h1.27c.083 0 .15.026.203.078.053.053.08.12.08.203v7.425c0 .082-.027.15-.08.202a.274.274 0 0 1-.202.08h-1.373zm-1.316-3.532c.33 0 .581-.102.754-.304.172-.203.266-.458.281-.765.015-.195.023-.338.023-.428 0-.082-.008-.22-.023-.416-.015-.33-.105-.604-.27-.821-.165-.218-.42-.326-.765-.326-.352 0-.607.105-.765.315-.15.21-.236.498-.259.866a3.876 3.876 0 0 0-.01.349c0 .157.003.273.01.348.023.368.11.657.26.867.157.21.412.315.764.315zM36.047 74.62a.274.274 0 0 1-.203-.078.274.274 0 0 1-.078-.202v-1.013c0-.082.026-.15.078-.202a.274.274 0 0 1 .203-.08h1.35c.083 0 .15.027.203.08.052.052.078.12.078.202v1.013c0 .082-.026.15-.078.202a.274.274 0 0 1-.203.079h-1.35zm.011 6.695a.274.274 0 0 1-.202-.08.274.274 0 0 1-.079-.202v-5.287c0-.083.026-.15.079-.203a.274.274 0 0 1 .202-.078h1.328c.082 0 .15.026.202.078.053.053.079.12.079.203v5.287a.3.3 0 0 1-.079.203.274.274 0 0 1-.202.079h-1.328zM39.277 81.315a.274.274 0 0 1-.202-.08.274.274 0 0 1-.079-.202v-5.287c0-.083.026-.15.079-.203a.274.274 0 0 1 .202-.078h1.294c.083 0 .15.026.203.078.06.053.09.12.09.203v.427c.202-.247.46-.446.776-.596.322-.15.686-.225 1.091-.225.66 0 1.196.225 1.609.675.412.443.618 1.065.618 1.868v3.138a.3.3 0 0 1-.078.203.274.274 0 0 1-.203.079H43.26a.3.3 0 0 1-.203-.08.3.3 0 0 1-.079-.202v-3.07c0-.353-.086-.623-.258-.81-.173-.196-.42-.293-.743-.293-.315 0-.562.097-.742.292-.18.188-.27.458-.27.81v3.071a.3.3 0 0 1-.079.203.274.274 0 0 1-.203.079h-1.406zM49.025 81.315a.3.3 0 0 1-.203-.08.3.3 0 0 1-.078-.202v-7.312c0-.083.026-.15.078-.203a.3.3 0 0 1 .203-.078h2.925c1.102 0 1.957.262 2.565.787.608.525.926 1.286.956 2.284.008.217.012.506.012.866s-.004.645-.012.855c-.037 1.043-.348 1.819-.933 2.329-.578.502-1.422.754-2.532.754h-2.981zm2.925-1.62c.495 0 .859-.117 1.091-.35.233-.24.357-.618.372-1.135.015-.218.022-.5.022-.844 0-.345-.008-.623-.023-.833-.014-.502-.15-.873-.404-1.113-.248-.24-.62-.36-1.114-.36h-1.125v4.635h1.181zM59.44 81.427c-.93 0-1.646-.221-2.148-.664-.503-.442-.776-1.065-.822-1.867a7.653 7.653 0 0 1-.01-.506c0-.24.003-.41.01-.507.046-.795.327-1.413.844-1.856.518-.45 1.227-.675 2.127-.675.907 0 1.62.225 2.137.675.517.443.799 1.061.844 1.856.007.098.011.267.011.507s-.004.408-.011.506c-.045.802-.319 1.425-.822 1.867-.502.443-1.222.664-2.16.664zm0-1.372c.33 0 .574-.098.732-.293.157-.202.247-.51.27-.922.007-.075.011-.225.011-.45s-.004-.375-.011-.45c-.023-.405-.117-.71-.282-.912-.157-.202-.397-.303-.72-.303-.622 0-.952.405-.99 1.215l-.01.45.01.45c.015.412.102.72.26.922.164.195.408.293.73.293zM66.24 81.427c-.848 0-1.535-.225-2.06-.675-.525-.457-.806-1.091-.843-1.901l-.012-.45.012-.461c.03-.81.307-1.444.832-1.902.533-.457 1.223-.686 2.07-.686.638 0 1.174.116 1.609.349.442.225.769.499.979.821.217.315.333.604.348.866a.243.243 0 0 1-.078.203.274.274 0 0 1-.203.079h-1.429a.29.29 0 0 1-.19-.057.518.518 0 0 1-.125-.168c-.09-.233-.206-.398-.348-.495-.135-.098-.312-.147-.53-.147-.614 0-.933.398-.955 1.193l-.012.427.012.372c.015.405.1.705.258.9.165.187.398.28.698.28.232 0 .416-.048.551-.145.135-.098.244-.263.326-.495a.518.518 0 0 1 .124-.17.29.29 0 0 1 .191-.055h1.43a.26.26 0 0 1 .19.078c.06.045.09.105.09.18 0 .24-.105.522-.315.844-.202.323-.525.608-.967.855-.443.24-.994.36-1.654.36zM73.179 81.315c-1.553 0-2.33-.74-2.33-2.217v-2.16h-.877a.314.314 0 0 1-.213-.078.274.274 0 0 1-.08-.203v-.911c0-.083.027-.15.08-.203a.314.314 0 0 1 .213-.078h.878v-1.857c0-.082.026-.15.079-.202a.3.3 0 0 1 .202-.079h1.305c.083 0 .15.026.203.079.052.052.078.12.078.202v1.857h1.407c.082 0 .15.026.202.078.06.053.09.12.09.203v.911c0 .083-.03.15-.09.203a.274.274 0 0 1-.202.078h-1.407v2.003c0 .555.214.832.642.832h.866c.082 0 .15.027.202.08.053.052.08.12.08.202v.978a.3.3 0 0 1-.08.203.274.274 0 0 1-.202.079h-1.046zM78.205 81.427c-.93 0-1.646-.221-2.149-.664-.502-.442-.776-1.065-.82-1.867a7.673 7.673 0 0 1-.012-.506c0-.24.004-.41.011-.507.045-.795.326-1.413.844-1.856.517-.45 1.226-.675 2.126-.675.908 0 1.62.225 2.138.675.517.443.798 1.061.843 1.856.008.098.012.267.012.507s-.004.408-.012.506c-.045.802-.318 1.425-.82 1.867-.503.443-1.223.664-2.16.664zm0-1.372c.33 0 .574-.098.731-.293.158-.202.248-.51.27-.922.008-.075.012-.225.012-.45s-.004-.375-.012-.45c-.022-.405-.116-.71-.28-.912-.158-.202-.398-.303-.72-.303-.623 0-.953.405-.99 1.215l-.012.45.011.45c.015.412.101.72.259.922.165.195.409.293.731.293zM82.596 81.315a.274.274 0 0 1-.202-.08.274.274 0 0 1-.079-.202v-5.287c0-.083.026-.15.079-.203a.274.274 0 0 1 .202-.078h1.294c.083 0 .15.03.203.09.06.052.09.116.09.19v.45c.412-.487.967-.73 1.665-.73h.495c.082 0 .15.026.202.078.053.053.079.12.079.203v1.159a.3.3 0 0 1-.079.202.274.274 0 0 1-.202.079H85.25c-.307 0-.547.086-.72.259-.165.165-.247.4-.247.708v2.88c0 .083-.03.15-.09.203a.274.274 0 0 1-.203.079h-1.395z"/></svg>