<svg xmlns="http://www.w3.org/2000/svg" fill="none" viewBox="0 0 80 80"><path fill="#fff" d="M80 40c0 22.091-17.909 40-40 40S0 62.091 0 40 17.909 0 40 0s40 17.909 40 40zM1.843 40c0 21.073 17.084 38.157 38.157 38.157 21.073 0 38.157-17.084 38.157-38.157C78.157 18.927 61.073 1.843 40 1.843 18.927 1.843 1.843 18.927 1.843 40z"/><path fill="#fff" d="M42.106 55.548c.556-1.623 2.683-5.159 6.744-6.308 5.078-1.436 7.488-2.897 9.488-7.257 2.334-4.385 2.59-5.487 2.744-5.974.154-.488.612-1.479.769-2.95.157-1.47-.762-.602-1.103-.066a66.088 66.088 0 0 1-7.472 9.677c-.45.486-1.305.982-1.698 1.1-.393.117-1.1.233-.679-.777.42-1.01 3.428-3.53 3.978-4.996.242-.647.436-1.197-1.148-.598-1.585.598-7.099 3.945-9.217 7.632-2.118 3.686-3.063 7.392-2.406 10.517zM38.429 55.548c-.556-1.623-2.683-5.159-6.744-6.308-5.078-1.436-7.488-2.897-9.488-7.257-2.333-4.385-2.59-5.487-2.744-5.974-.153-.488-.612-1.479-.769-2.95-.157-1.47.762-.602 1.103-.066a66.088 66.088 0 0 0 7.472 9.677c.45.486 1.305.982 1.698 1.1.393.117 1.1.233.68-.777-.421-1.01-3.429-3.53-3.979-4.996-.242-.647-.436-1.197 1.149-.598 1.584.598 7.098 3.945 9.216 7.632 2.118 3.686 3.063 7.392 2.406 10.517zM28.297 24.5v-8h4.5V20l7.5-8 17.5 18h-6l-11.5-11.5-11 11.5h-6.5l5.5-5.5z"/><path fill="#fff" d="M47.797 33c-.5 3.992-5.313 6.656-7.486 7.992-2.174-1.336-6.988-4-7.487-7.992-.498-3.988 5.961-6.982 7.487-1.054 1.525-5.928 7.984-2.934 7.486 1.054zM14.34 65.052a.24.24 0 0 1-.162-.063.24.24 0 0 1-.063-.162v-1.935l-2.088-3.852a.496.496 0 0 1-.027-.1c0-.047.018-.09.054-.125a.198.198 0 0 1 .144-.063h1.125c.12 0 .225.063.315.189l1.287 2.322 1.296-2.322a.343.343 0 0 1 .315-.19h1.125a.17.17 0 0 1 .135.064.173.173 0 0 1 .054.126c0 .03-.006.063-.018.099l-2.088 3.852v1.935c0 .066-.024.12-.072.162a.22.22 0 0 1-.162.063h-1.17zM19.038 65.142c-.318 0-.609-.06-.873-.18a1.593 1.593 0 0 1-.612-.504 1.255 1.255 0 0 1-.216-.711c0-.414.168-.747.504-1 .342-.251.81-.425 1.404-.521l1.125-.171v-.126c0-.228-.048-.396-.144-.504-.096-.108-.258-.162-.486-.162a.722.722 0 0 0-.342.072c-.09.048-.183.114-.279.198-.084.072-.147.12-.189.144-.018.048-.05.072-.099.072h-.98a.227.227 0 0 1-.154-.054.182.182 0 0 1-.045-.144c.006-.162.084-.342.234-.54.156-.198.39-.37.702-.513.318-.144.708-.216 1.17-.216.738 0 1.284.165 1.638.495.354.324.531.762.531 1.314v2.736a.24.24 0 0 1-.063.162.22.22 0 0 1-.162.063h-1.044a.24.24 0 0 1-.162-.063.24.24 0 0 1-.063-.162v-.315a1.475 1.475 0 0 1-.558.459 1.894 1.894 0 0 1-.837.17zm.423-1.026c.276 0 .498-.09.666-.27.174-.18.261-.444.261-.792v-.126l-.765.135c-.54.096-.81.285-.81.567 0 .15.063.27.19.36a.809.809 0 0 0 .458.126zM26.237 66.762a.24.24 0 0 1-.162-.063.22.22 0 0 1-.063-.162v-1.998c-.288.402-.726.603-1.314.603-.582 0-1.041-.186-1.377-.558-.336-.378-.516-.891-.54-1.54l-.01-.332.01-.333c.03-.666.21-1.182.54-1.548.33-.366.789-.55 1.377-.55.606 0 1.07.214 1.395.64v-.324a.22.22 0 0 1 .063-.162.24.24 0 0 1 .162-.063h1.017a.22.22 0 0 1 .162.063.22.22 0 0 1 .063.162v5.94a.22.22 0 0 1-.063.162.22.22 0 0 1-.162.063h-1.098zm-1.053-2.826c.264 0 .465-.081.603-.243a.989.989 0 0 0 .225-.612 4.99 4.99 0 0 0 .018-.342c0-.066-.006-.177-.018-.333a1.146 1.146 0 0 0-.216-.657c-.132-.174-.336-.261-.612-.261-.282 0-.486.084-.612.252-.12.168-.19.399-.207.693-.006.06-.01.153-.01.279 0 .126.004.219.01.279.018.294.087.525.207.693.126.168.33.252.612.252zM28.837 59.697a.22.22 0 0 1-.162-.063.22.22 0 0 1-.063-.162v-.81a.22.22 0 0 1 .063-.162.22.22 0 0 1 .162-.063h1.08a.22.22 0 0 1 .162.063.22.22 0 0 1 .063.162v.81a.22.22 0 0 1-.063.162.22.22 0 0 1-.162.063h-1.08zm.009 5.355a.22.22 0 0 1-.162-.063.22.22 0 0 1-.063-.162v-4.23a.22.22 0 0 1 .063-.162.22.22 0 0 1 .162-.063h1.062a.22.22 0 0 1 .162.063.22.22 0 0 1 .063.162v4.23a.24.24 0 0 1-.063.162.22.22 0 0 1-.162.063h-1.062zM31.42 65.052a.22.22 0 0 1-.161-.063.22.22 0 0 1-.063-.162v-4.23a.22.22 0 0 1 .063-.162.22.22 0 0 1 .162-.063h1.035a.22.22 0 0 1 .162.063.205.205 0 0 1 .072.162v.342c.162-.198.369-.357.62-.477.259-.12.55-.18.874-.18.528 0 .957.18 1.287.54.33.354.495.852.495 1.494v2.51a.24.24 0 0 1-.063.163.22.22 0 0 1-.162.063h-1.134a.24.24 0 0 1-.162-.063.24.24 0 0 1-.063-.162V62.37c0-.282-.07-.498-.207-.648-.138-.156-.336-.234-.594-.234-.252 0-.45.078-.594.234-.144.15-.216.366-.216.648v2.457a.24.24 0 0 1-.063.162.22.22 0 0 1-.162.063H31.42zM39.219 65.052a.24.24 0 0 1-.162-.063.24.24 0 0 1-.063-.162v-5.85a.22.22 0 0 1 .063-.162.24.24 0 0 1 .162-.063h2.34c.882 0 1.566.21 2.052.63.486.42.741 1.029.765 1.827.006.174.009.405.009.693 0 .288-.003.516-.009.684-.03.834-.279 1.455-.747 1.863-.462.402-1.137.603-2.025.603h-2.385zm2.34-1.296c.396 0 .687-.093.873-.28.186-.191.285-.494.297-.908a10.2 10.2 0 0 0 .018-.675c0-.276-.006-.498-.018-.666-.012-.402-.12-.7-.324-.891-.198-.192-.495-.288-.891-.288h-.9v3.708h.945zM47.551 65.142c-.744 0-1.317-.177-1.719-.531-.402-.354-.62-.852-.657-1.494a6.129 6.129 0 0 1-.009-.405c0-.192.003-.327.01-.405.035-.636.26-1.131.674-1.485.414-.36.981-.54 1.701-.54.726 0 1.296.18 1.71.54.414.354.64.849.675 1.485.006.078.01.213.01.405 0 .192-.004.327-.01.405-.036.642-.255 1.14-.657 1.494-.402.354-.978.53-1.728.53zm0-1.098c.264 0 .46-.078.585-.234.126-.162.198-.408.216-.738.006-.06.01-.18.01-.36s-.004-.3-.01-.36c-.018-.324-.093-.567-.225-.73-.126-.161-.318-.242-.576-.242-.498 0-.762.324-.792.972l-.009.36.01.36c.011.33.08.576.206.738.132.156.327.234.585.234zM52.99 65.142c-.678 0-1.227-.18-1.647-.54-.42-.366-.645-.873-.675-1.521l-.009-.36.01-.37c.023-.647.245-1.154.665-1.52.426-.366.978-.55 1.656-.55.51 0 .94.094 1.287.28.354.18.615.399.783.657.174.252.267.483.28.693a.194.194 0 0 1-.064.162.22.22 0 0 1-.162.063h-1.143a.233.233 0 0 1-.153-.045.415.415 0 0 1-.099-.135c-.072-.186-.165-.318-.279-.396a.706.706 0 0 0-.423-.117c-.492 0-.747.318-.765.954l-.009.342.01.297c.011.324.08.564.206.72.132.15.318.225.558.225.186 0 .333-.04.441-.117.108-.078.195-.21.261-.396a.415.415 0 0 1 .1-.135.233.233 0 0 1 .152-.045h1.143c.06 0 .111.02.153.063a.171.171 0 0 1 .072.144c0 .192-.084.417-.252.675-.162.258-.42.486-.774.684-.354.192-.795.288-1.323.288zM58.542 65.052c-1.242 0-1.863-.591-1.863-1.773V61.55h-.702a.251.251 0 0 1-.171-.063.22.22 0 0 1-.063-.162v-.73a.22.22 0 0 1 .063-.161.251.251 0 0 1 .171-.063h.702v-1.485a.22.22 0 0 1 .063-.162.24.24 0 0 1 .162-.063h1.044a.22.22 0 0 1 .162.063.22.22 0 0 1 .063.162v1.485h1.125a.22.22 0 0 1 .162.063.205.205 0 0 1 .072.162v.729c0 .066-.024.12-.072.162a.22.22 0 0 1-.162.063h-1.125v1.602c0 .444.171.666.513.666h.693a.22.22 0 0 1 .162.063.22.22 0 0 1 .063.162v.783a.24.24 0 0 1-.063.162.22.22 0 0 1-.162.063h-.837zM62.563 65.142c-.744 0-1.317-.177-1.719-.531-.402-.354-.62-.852-.657-1.494a6.129 6.129 0 0 1-.009-.405c0-.192.003-.327.01-.405.035-.636.26-1.131.674-1.485.414-.36.981-.54 1.701-.54.726 0 1.296.18 1.71.54.414.354.64.849.675 1.485.006.078.01.213.01.405 0 .192-.004.327-.01.405-.036.642-.255 1.14-.657 1.494-.402.354-.978.53-1.728.53zm0-1.098c.264 0 .46-.078.585-.234.126-.162.198-.408.216-.738.006-.06.01-.18.01-.36s-.004-.3-.01-.36c-.018-.324-.093-.567-.225-.73-.126-.161-.318-.242-.576-.242-.498 0-.762.324-.792.972l-.009.36.01.36c.011.33.08.576.206.738.132.156.327.234.585.234zM66.076 65.052a.22.22 0 0 1-.162-.063.22.22 0 0 1-.063-.162v-4.23a.22.22 0 0 1 .063-.162.22.22 0 0 1 .162-.063h1.035c.066 0 .12.024.162.072a.196.196 0 0 1 .072.153v.36c.33-.39.774-.585 1.332-.585h.396a.22.22 0 0 1 .162.063.22.22 0 0 1 .063.162v.927a.24.24 0 0 1-.063.162.22.22 0 0 1-.162.063H68.2c-.246 0-.438.069-.576.207-.132.132-.198.32-.198.567v2.304c0 .066-.024.12-.072.162a.22.22 0 0 1-.162.063h-1.116z"/></svg>