<svg xmlns="http://www.w3.org/2000/svg" fill="none" viewBox="0 0 24 24"><g clip-path="url(#clip0_652_84488)"><path fill="#E3FCFD" d="M7.5 9.75a3 3 0 1 0 0-6 3 3 0 0 0 0 6zM2.625 14.719H14.25v1.875c0 .621-.504 1.125-1.125 1.125H3.75a1.125 1.125 0 0 1-1.125-1.125v-1.875z"/><path fill="#05BAD1" d="M21.117 1.293l1.591 1.59c.44.44.44 1.152 0 1.592l-5.134 5.134c-.44.44-1.151.44-1.59 0l-1.592-1.591a1.125 1.125 0 0 1 0-1.592l5.134-5.133c.44-.44 1.152-.44 1.591 0z"/><path fill="#4C6FFF" d="M22.984 2.078l.795-.8a.75.75 0 0 0 0-1.057.75.75 0 0 0-1.058 0l-.798.795L21.66.75a1.875 1.875 0 0 0-2.651 0l-5.134 5.134a1.875 1.875 0 0 0 0 2.651l1.59 1.59c.732.732 1.92.732 2.651 0l2.014-2.017A8.998 8.998 0 0 1 21 12a.75.75 0 1 0 1.5 0 10.435 10.435 0 0 0-1.267-4.991L23.25 4.99a1.875 1.875 0 0 0 0-2.65l-.266-.263zm-.795 1.852l-5.134 5.138a.375.375 0 0 1-.53.002l-.002-.002-1.59-1.594a.375.375 0 0 1 0-.529l5.137-5.134a.375.375 0 0 1 .529 0l1.59 1.59a.375.375 0 0 1 0 .53z"/><path fill="#05BAD1" d="M21.004 23.993a.75.75 0 1 0 0-1.5.75.75 0 0 0 0 1.5z"/><path fill="#4C6FFF" d="M4.875 23.25c0 .414.336.75.75.75H18a.75.75 0 1 0 0-1.5H5.625a.75.75 0 0 0-.75.75zM3 7.5h.829c.095.47.281.917.547 1.316l-.401.398a.75.75 0 0 0 1.061 1.061l.405-.405c.397.266.841.452 1.309.548v1.207a.75.75 0 1 0 1.5 0v-1.2a3.69 3.69 0 0 0 1.316-.547l.409.397a.75.75 0 0 0 1.061-1.061l-.405-.405c.266-.397.452-.841.548-1.309h.071a.75.75 0 1 0 0-1.5h-.075a3.67 3.67 0 0 0-.548-1.312l.852-.852a.75.75 0 0 0-1.061-1.061l-.848.844a3.682 3.682 0 0 0-1.32-.548V1.875a.75.75 0 1 0-1.5 0v1.196c-.47.095-.915.281-1.312.548l-.03-.03A.75.75 0 0 0 4.35 4.65l.03.03c-.267.4-.453.848-.547 1.32H3a.75.75 0 1 0 0 1.5zm4.5-1.875a.75.75 0 0 0 .75-.75v-.244a2.25 2.25 0 0 1 1.279 3.09l-.154-.18A.75.75 0 0 0 8.318 8.6l.172.172c-.308.152-.647.23-.99.229a2.25 2.25 0 0 1-.75-4.369v.244c0 .414.336.75.75.75z"/><path fill="#05BAD1" d="M6.754 7.493a.75.75 0 1 0 0-1.5.75.75 0 0 0 0 1.5z"/><path fill="#4C6FFF" d="M21.51 14.28a.75.75 0 0 0-.948.477v.003a9.045 9.045 0 0 1-8.34 6.24 8.862 8.862 0 0 1-4.126-.896.375.375 0 0 1-.21-.338v-1.391h5.239c1.035 0 1.875-.84 1.875-1.875v-1.125h1.125a.75.75 0 1 0 0-1.5H.75a.75.75 0 1 0 0 1.5h1.125V16.5c0 1.035.84 1.875 1.875 1.875h2.625v1.391c0 .718.408 1.374 1.054 1.688A10.336 10.336 0 0 0 12 22.5h.255a10.549 10.549 0 0 0 9.75-7.264.75.75 0 0 0-.473-.949l-.022-.007zM3.375 16.5v-1.125H13.5V16.5a.375.375 0 0 1-.375.375H3.75a.375.375 0 0 1-.375-.375z"/></g><defs><clipPath id="clip0_652_84488"><path fill="#fff" d="M0 0h24v24H0z"/></clipPath></defs></svg>