<svg xmlns="http://www.w3.org/2000/svg" fill="none" viewBox="0 0 24 24"><g clip-path="url(#clip0_652_84532)"><path fill="#00E1F0" d="M10 13a2 2 0 1 0 0-4 2 2 0 0 0 0 4zM14 14c-1.103 0-2 .897-2 2a1 1 0 1 0 2.001 0 1 1 0 0 0-.002-2z"/><path fill="#4C6FFF" d="M23 16c-.188 0-.365-.041-.532-.104.329-.184.63-.419.873-.722l.438-.547a1 1 0 1 0-1.561-1.25l-.44.549c-.181.228-.438.39-.745.351a.93.93 0 0 1-.735-.375.976.976 0 0 0-.381-.294c.048-.363.08-.73.08-1.107 0-1.131-.226-2.21-.628-3.196a3.356 3.356 0 0 0 1.578-1.52l.074-.033a.72.72 0 0 1 .618.01.723.723 0 0 1 .39.48 1.001 1.001 0 0 0 1.94-.484 2.719 2.719 0 0 0-2.686-2.062 3.41 3.41 0 0 0-.426-1.21 1 1 0 0 0-1.716 1.028c.218.362.26.795.119 1.193a1.396 1.396 0 0 1-.833.846l-.01.003.018.05a8.504 8.504 0 0 0-5.98-3.55 4.458 4.458 0 0 0-.253-1.141l.104-.125a2.193 2.193 0 0 1 1.692-.792A.997.997 0 0 0 15 1.001a1 1 0 0 0-1-1c-1.12 0-2.164.46-2.948 1.241A4.417 4.417 0 0 0 8.672.086L8.14.01a1 1 0 1 0-.283 1.98l.53.075A2.473 2.473 0 0 1 10.46 4.07 8.458 8.458 0 0 0 6.195 5.87a2.852 2.852 0 0 0-3.471-1.83 1 1 0 1 0 .55 1.923.847.847 0 0 1 1.04.568l.226.758c.023.076.063.142.102.21a8.434 8.434 0 0 0-1.561 3.886 1.435 1.435 0 0 1-1.082-1.383A1 1 0 1 0 0 10.001a3.447 3.447 0 0 0 2.764 3.372l.29.058a8.479 8.479 0 0 0 2.467 5.103l-.22.736c-.15.503-.636.816-1.158.741a1.001 1.001 0 0 0-.284 1.98 3.03 3.03 0 0 0 1.888-.336l.002.021a.574.574 0 0 1-.277.476 1.001 1.001 0 0 0 1.059 1.696 2.582 2.582 0 0 0 .62-3.838c.02-.056.047-.107.065-.164l.005-.013A8.44 8.44 0 0 0 11.5 21a8.46 8.46 0 0 0 1.44-.132l.21.418c.103.204.229.389.364.563A.983.983 0 0 1 13 22a.999.999 0 1 0 0 2c.855 0 1.653-.378 2.207-.989.309.092.63.143.955.143.396 0 .797-.07 1.188-.216.516-.195.779-.771.585-1.287a1.001 1.001 0 0 0-1.288-.585 1.369 1.369 0 0 1-1.709-.672l-.05-.1a8.541 8.541 0 0 0 4.472-4.57c.152.108.31.204.479.281A3.534 3.534 0 0 0 22.999 18a1 1 0 1 0 0-2zm-11.5 3A6.507 6.507 0 0 1 5 12.501c0-3.583 2.915-6.5 6.5-6.5S18 8.915 18 12.498C18 16.084 15.084 19 11.5 19z"/></g><defs><clipPath id="clip0_652_84532"><path fill="#fff" d="M0 0h24v24H0z"/></clipPath></defs></svg>