<svg xmlns="http://www.w3.org/2000/svg" fill="none" viewBox="0 0 24 24"><g clip-path="url(#clip0_652_84537)"><path fill="#4C6FFF" d="M23.314.807l-.087-.09a2.359 2.359 0 0 0-3.105-.249l-1.815 1.364a7.308 7.308 0 0 1-5.013 1.449C7.96 2.819 3.096 6.534 1.968 11.916l-1.915 9.15a2.45 2.45 0 0 0 .633 2.209c.465.48 1.078.723 1.693.723.569 0 1.137-.207 1.593-.624l.687-.63c1.51-1.384 3.531-2.09 5.537-1.927l.566.045c5.3.41 10.137-3.294 11.258-8.642l1.927-9.203a2.447 2.447 0 0 0-.633-2.21zm-3.252 11c-.913 4.366-4.85 7.4-9.14 7.058l-.567-.045a9.37 9.37 0 0 0-7.047 2.448l-.687.63a.347.347 0 0 1-.497-.015.455.455 0 0 1-.112-.408l1.915-9.15c.869-4.148 4.445-7.082 8.481-7.082.237 0 .477.01.717.031a9.29 9.29 0 0 0 6.385-1.842l1.817-1.363a.346.346 0 0 1 .468.04l.087.09c.1.104.142.26.112.407l-1.932 9.202z"/><path fill="#00E1F0" d="M17.853 6.414a1.001 1.001 0 0 0-1.202.745l-1.01 4.306c-.424 1.8-2.273 3.057-4.304 2.904a1 1 0 0 0-.141 1.995c.153.01.305.017.456.017 2.819 0 5.325-1.853 5.937-4.458l1.01-4.306a1.004 1.004 0 0 0-.746-1.203zM13.491 8.35a1 1 0 0 0-.92-1.074c-3.028-.23-5.77 1.673-6.417 4.427l-1.002 4.266a1 1 0 0 0 1.947.457L8.1 12.16c.422-1.803 2.273-3.05 4.316-2.889a.997.997 0 0 0 1.074-.92z"/></g><defs><clipPath id="clip0_652_84537"><path fill="#fff" d="M0 0h24v24H0z"/></clipPath></defs></svg>