<svg xmlns="http://www.w3.org/2000/svg" fill="none" viewBox="0 0 24 24"><g clip-path="url(#clip0_652_84543)"><path fill="#4C6FFF" d="M1.125 6.75h21.75v4.5H1.125v-4.5z"/><path fill="#E3FCFD" d="M2.25 11.625h19.5v10.5a1.125 1.125 0 0 1-1.125 1.125H3.375a1.125 1.125 0 0 1-1.125-1.125v-10.5zM14.625 1.125h-4.5a1.5 1.5 0 0 0 0 3h4.5a1.5 1.5 0 0 0 0-3z"/><path fill="#4C6FFF" d="M22.125 6h-3V3.375A1.875 1.875 0 0 0 17.25 1.5h-.881A2.25 2.25 0 0 0 14.25 0h-4.5a2.25 2.25 0 0 0-2.119 1.5H6.75a1.875 1.875 0 0 0-1.875 1.875V6h-3A1.875 1.875 0 0 0 0 7.875v2.25a1.875 1.875 0 0 0 1.5 1.838v2.662a.75.75 0 0 0 1.5 0V12h18v10.125c0 .199-.244.375-.521.375H3.52c-.277 0-.521-.176-.521-.375v-4.5a.75.75 0 0 0-1.5 0v4.5A1.954 1.954 0 0 0 3.521 24H20.48a1.954 1.954 0 0 0 2.021-1.875V11.963a1.875 1.875 0 0 0 1.5-1.838v-2.25A1.875 1.875 0 0 0 22.125 6zM9.75 1.5h4.5a.75.75 0 0 1 0 1.5h-4.5a.75.75 0 0 1 0-1.5zM6.375 3.375A.375.375 0 0 1 6.75 3h.881A2.25 2.25 0 0 0 9.75 4.5h4.5A2.25 2.25 0 0 0 16.369 3h.881a.375.375 0 0 1 .375.375V6H6.375V3.375zm16.125 6.75a.375.375 0 0 1-.375.375H1.875a.375.375 0 0 1-.375-.375v-2.25a.375.375 0 0 1 .375-.375h20.25a.375.375 0 0 1 .375.375v2.25z"/><path fill="#4C6FFF" d="M12 13.5a.75.75 0 0 0-.75.75v1.125h-1.125a.75.75 0 0 0 0 1.5h1.125V18a.75.75 0 0 0 1.5 0v-1.125h1.125a.75.75 0 1 0 0-1.5H12.75V14.25a.75.75 0 0 0-.75-.75zM18.75 21a.75.75 0 1 0 0-1.5.75.75 0 0 0 0 1.5zM13.5 20.25a.75.75 0 0 0 .75.75h1.5a.75.75 0 1 0 0-1.5h-1.5a.75.75 0 0 0-.75.75z"/></g><defs><clipPath id="clip0_652_84543"><path fill="#fff" d="M0 0h24v24H0z"/></clipPath></defs></svg>