<svg xmlns="http://www.w3.org/2000/svg" fill="none" viewBox="0 0 24 24"><g clip-path="url(#clip0_652_84489)"><path fill="#E3FCFD" d="M14.22 13.748l-2.595-4.58 2.655-4.492 5.25.087 2.595 4.578-2.655 4.493-5.25-.086zM14.22 23.164l-2.595-4.58 2.655-4.492 5.25.087 2.595 4.578-2.655 4.493-5.25-.086z"/><path fill="#00E1F0" d="M21.938 9.75c.517 0 .937-.504.937-1.125s-.42-1.125-.938-1.125c-.517 0-.937.504-.937 1.125s.42 1.125.938 1.125zM5.25 8.625a3 3 0 1 0 0-6 3 3 0 0 0 0 6z"/><path fill="#4C6FFF" d="M7.316 8.753l.405.4A.75.75 0 0 0 8.78 8.097l-.401-.405c.264-.4.45-.847.547-1.316H9a.75.75 0 0 0 0-1.5h-.075a3.75 3.75 0 0 0-.547-1.316l.847-.852A.75.75 0 0 0 8.168 1.65l-.852.848c-.4-.265-.847-.45-1.316-.548V.75a.75.75 0 0 0-1.5 0v1.2c-.47.097-.916.283-1.316.548l-.03-.027A.75.75 0 0 0 2.096 3.53l.026.03c-.264.4-.45.846-.547 1.316H.75a.75.75 0 0 0 0 1.5h.825c.097.47.283.916.548 1.316l-.402.405A.75.75 0 0 0 2.78 9.154l.405-.401c.4.264.847.45 1.316.547v1.2a.75.75 0 1 0 1.5 0V9.3c.47-.097.916-.283 1.316-.547zM5.25 4.5A.75.75 0 0 0 6 3.75v-.244a2.25 2.25 0 0 1 1.279 3.087l-.154-.173a.764.764 0 1 0-1.08 1.08l.173.173A2.253 2.253 0 1 1 4.5 3.506v.244a.75.75 0 0 0 .75.75z"/><path fill="#4C6FFF" d="M4.5 6.375a.75.75 0 1 0 0-1.5.75.75 0 0 0 0 1.5zM20.625 12.113a.751.751 0 0 0-1.024.28l-.416.75h-4.459l-2.25-3.937 2.25-3.937h4.455l.042.071a.752.752 0 1 0 1.305-.75l-.26-.465a.75.75 0 0 0-.648-.375h-4.68L13.028.375a.753.753 0 0 0-1.305.75l1.81 3.188-2.56 4.5a.75.75 0 0 0 0 .75l2.452 4.312-.214.375a.752.752 0 1 0 1.305.75l.21-.375h4.875a.75.75 0 0 0 .65-.375l.633-1.125a.75.75 0 0 0-.259-1.012zM15.075 19.313a.75.75 0 0 0 .652-.375l.96-1.688a.756.756 0 1 0-1.312-.75l-.96 1.688a.75.75 0 0 0 .652 1.125h.008z"/><path fill="#4C6FFF" d="M14.704 8.535a.75.75 0 0 0-.281 1.024l.952 1.691a.75.75 0 0 0 .653.375.75.75 0 0 0 .599-.289.752.752 0 0 0 .06-.836l-.96-1.688a.75.75 0 0 0-1.023-.277zM19.5 22.5h-4.774l-2.25-3.938.548-.937a.753.753 0 0 0-1.305-.75L11.08 18H7.5a.75.75 0 1 0 0 1.5h3.791l2.348 4.125a.75.75 0 0 0 .652.375H19.5a.75.75 0 0 0 0-1.5zM5.404 17.224a.75.75 0 0 0-1.058 0l-.532.529-.53-.53a.75.75 0 0 0-1.06 1.062l.528.529-.528.532a.75.75 0 0 0 1.06 1.058l.53-.529.532.529a.75.75 0 1 0 1.058-1.058l-.529-.532.529-.529a.75.75 0 0 0 0-1.061zM21.938 6.375a2.066 2.066 0 0 0-2.063 2.063v.374a2.062 2.062 0 1 0 4.125 0v-.374a2.066 2.066 0 0 0-2.063-2.063zm.562 2.438a.563.563 0 0 1-1.125 0v-.376a.562.562 0 0 1 1.125 0v.376z"/><path fill="#00E1F0" d="M22.5 24a.75.75 0 1 0 0-1.5.75.75 0 0 0 0 1.5z"/></g><defs><clipPath id="clip0_652_84489"><path fill="#fff" d="M0 0h24v24H0z"/></clipPath></defs></svg>