<svg xmlns="http://www.w3.org/2000/svg" fill="none" viewBox="0 0 24 24"><g clip-path="url(#clip0_652_84490)"><path fill="#4C6FFF" d="M21.591 2.391A8.108 8.108 0 0 0 15.826 0H15.8c-4.588.015-7.585 3.597-8.077 6.962a.894.894 0 0 1-.76.76C3.587 8.212.002 11.22 0 15.823a8.108 8.108 0 0 0 2.409 5.786A8.108 8.108 0 0 0 8.174 24H8.2c4.588-.015 7.585-3.597 8.077-6.96a.893.893 0 0 1 .76-.76C20.412 15.786 24 12.78 24 8.175a8.11 8.11 0 0 0-2.409-5.785zM8.196 22.001h-.021a6.126 6.126 0 0 1-4.353-1.808 6.132 6.132 0 0 1-1.821-4.368c.002-3.481 2.706-5.754 5.25-6.124.282-.041.547-.128.795-.24l6.495 6.495c-.114.248-.2.512-.242.794-.37 2.537-2.635 5.238-6.103 5.25zm8.554-7.702c-.282.041-.547.128-.794.24L9.46 8.044c.114-.247.199-.513.241-.795.37-2.536 2.636-5.237 6.105-5.25h.021c1.638 0 3.183.641 4.353 1.808a6.132 6.132 0 0 1 1.821 4.368c-.003 3.481-2.707 5.754-5.252 6.124z"/><path fill="#00E1F0" d="M7.75 19a2.75 2.75 0 1 0 0-5.5 2.75 2.75 0 0 0 0 5.5zM16.25 10.5a2.75 2.75 0 1 0 0-5.499 2.75 2.75 0 0 0 0 5.5z"/></g><defs><clipPath id="clip0_652_84490"><path fill="#fff" d="M0 0h24v24H0z"/></clipPath></defs></svg>