<svg xmlns="http://www.w3.org/2000/svg" fill="none" viewBox="0 0 24 24"><g clip-path="url(#clip0_652_84497)"><path fill="#4C6FFF" d="M23 22.002c-.427 0-.8-.19-1.072-.477.272-.075.534-.185.777-.34a2.822 2.822 0 0 0 1.289-2.072 1 1 0 1 0-1.988-.22.818.818 0 0 1-.769.733c-1.147-2.802-2.842-3.318-4.22-3.738-1.372-.415-2.454-.745-3.322-3.448l-.045.015A6.468 6.468 0 0 0 15 8.503a6.469 6.469 0 0 0-1.642-4.305l.648-.454a1.144 1.144 0 0 1 1.365.046 1 1 0 1 0 1.258-1.555 3.123 3.123 0 0 0-2.256-.681 2.408 2.408 0 0 0-.665-1.26 1.001 1.001 0 0 0-1.415 1.414.413.413 0 0 1 0 .585l-.57.57a6.454 6.454 0 0 0-6.952.323l-.415-.696a.461.461 0 0 1 .159-.632A1 1 0 0 0 3.485.142c-.544.33-.917.839-1.087 1.406a2.631 2.631 0 0 0-2.104.748 1.001 1.001 0 0 0 1.414 1.415.602.602 0 0 1 .89.043l.706.861a6.456 6.456 0 0 0-.477 7.051l-.07.048a2.064 2.064 0 0 1-1.56.309 1 1 0 1 0-.393 1.962 4.12 4.12 0 0 0 1.149.066c-.032.38-.01.765.066 1.149a1 1 0 1 0 1.96-.393 2.055 2.055 0 0 1 .237-1.427 6.486 6.486 0 0 0 4.285 1.622 6.455 6.455 0 0 0 3.605-1.095c1.192 2.932 2.918 3.465 4.33 3.894 1.312.397 2.266.702 3.066 2.888 0 .654-.188 1.154-.816 1.362a1 1 0 1 0 .633 1.897 3.165 3.165 0 0 0 1.327-.862 3.47 3.47 0 0 0 2.355.914.997.997 0 0 0 .999-1 .998.998 0 0 0-1-.998zm-14.499-9c-2.43 0-4.403-1.939-4.484-4.35a3.4 3.4 0 0 0 1.228.199 3.503 3.503 0 0 0 2.51-1.188 1.001 1.001 0 0 0-1.506-1.317 1.468 1.468 0 0 1-1.068.507c-.28.001-.54-.068-.771-.195a4.5 4.5 0 0 1 4.093-2.653c2.47 0 4.477 2 4.497 4.466a3.229 3.229 0 0 0-3.444-.361 1 1 0 0 0 .895 1.79 1.24 1.24 0 0 1 1.658.551l.207.416c-.797 1.276-2.202 2.135-3.815 2.135z"/></g><defs><clipPath id="clip0_652_84497"><path fill="#fff" d="M0 0h24v24H0z"/></clipPath></defs></svg>