<svg xmlns="http://www.w3.org/2000/svg" fill="none" viewBox="0 0 24 24"><g clip-path="url(#clip0_652_84499)"><path fill="#4C6FFF" d="M22.988 24h-.015a1.002 1.002 0 0 1-.985-1.015c.076-5.139-.263-8.985-1.037-11.758-.333-1.193-1.1-2.285-2.158-3.077L16.22 6.23c-.993-.662-1.486-1.938-1.183-3.146l.65-2.35a1 1 0 1 1 1.928.533l-.643 2.326a.95.95 0 0 0 .403 1.003l2.615 1.952C21.4 7.6 22.427 9.07 22.879 10.688c.838 3.002 1.19 6.918 1.11 12.326a1.002 1.002 0 0 1-1 .987zM1.01 24a.999.999 0 0 1-.999-.985c-.075-5.072.228-8.8.956-11.735A7.993 7.993 0 0 1 4.42 6.455l2.276-1.46a.557.557 0 0 0 .26-.445.554.554 0 0 0-.21-.471 1.984 1.984 0 0 1-.748-1.557V1.001a1 1 0 1 1 2.001 0v1.521c.64.516.998 1.315.953 2.136a2.573 2.573 0 0 1-1.176 2.02L5.5 8.138a6 6 0 0 0-2.593 3.624c-.677 2.725-.97 6.396-.897 11.223A1.001 1.001 0 0 1 1.025 24H1.01z"/><path fill="#00E1F0" d="M11.999 24.001c-.552 0-1-.448-1-1s-.449-1-1.001-1h-.5a2.504 2.504 0 0 1-2.5-2.501c0-1.379 1.122-2.5 2.5-2.5h5a.5.5 0 0 0 .002-.997h-5A2.504 2.504 0 0 1 7 13.5c0-1.378 1.122-2.5 2.5-2.5H11c.552 0 1-.449 1-1V6.254c0-.905-.312-1.793-.876-2.5l-.905-1.129a1 1 0 1 1 1.561-1.25l.905 1.132A6.023 6.023 0 0 1 14 6.256v3.746c0 1.654-1.345 3-3 3H9.5a.5.5 0 1 0-.001.999h4.999c1.379 0 2.5 1.122 2.5 2.5 0 1.379-1.122 2.5-2.5 2.5h-5a.5.5 0 1 0 0 1h.5c1.655 0 3 1.345 3 3a.998.998 0 0 1-.999 1z"/></g><defs><clipPath id="clip0_652_84499"><path fill="#fff" d="M0 0h24v24H0z"/></clipPath></defs></svg>