<svg xmlns="http://www.w3.org/2000/svg" fill="none" viewBox="0 0 24 24"><g clip-path="url(#clip0_652_84504)"><path fill="#E3FCFD" d="M10.125 3.375h3v3h-3v-3zM.75 13.875V11.25a4.875 4.875 0 0 1 4.875-4.875h14.25A3.375 3.375 0 0 1 23.25 9.75v7.875a1.125 1.125 0 0 1-1.125 1.125H1.875A1.125 1.125 0 0 1 .75 17.625v-.75"/><path fill="#4C6FFF" d="M4.901 6h2.974v5.625h-6.75V9.776A3.776 3.776 0 0 1 4.901 6z"/><path fill="#E3FCFD" d="M7.125 21.75a2.25 2.25 0 1 0 0-4.5 2.25 2.25 0 0 0 0 4.5zM17.625 21.75a2.25 2.25 0 1 0 0-4.5 2.25 2.25 0 0 0 0 4.5z"/><path fill="#4C6FFF" d="M19.875 5.34h-6v-.75a2.25 2.25 0 0 0-4.5 0v.75h-3.75A5.625 5.625 0 0 0 0 10.965v2.625a.75.75 0 0 0 1.5 0v-1.125h6.375a.75.75 0 0 0 .75-.75V6.84h11.25A2.625 2.625 0 0 1 22.5 9.465v7.875a.375.375 0 0 1-.375.375h-2.096a3 3 0 0 0-5.558 0H9.53a3 3 0 0 0-5.558 0H1.875a.375.375 0 0 1-.375-.375v-.75a.75.75 0 0 0-1.5 0v.75a1.875 1.875 0 0 0 1.875 1.875h1.901a3 3 0 0 0 5.948 0h4.552a3 3 0 0 0 5.948 0h1.901A1.875 1.875 0 0 0 24 17.34V9.465a4.125 4.125 0 0 0-4.125-4.125zm-12.75 5.625H1.5A4.125 4.125 0 0 1 5.625 6.84h1.5v4.125zm5.25-5.625h-1.5v-.75a.75.75 0 1 1 1.5 0v.75zm-5.625 15a1.5 1.5 0 1 1 0-2.999 1.5 1.5 0 0 1 0 3zm10.5 0a1.5 1.5 0 1 1 0-2.999 1.5 1.5 0 0 1 0 3z"/><path fill="#4C6FFF" d="M13.125 9.09a.75.75 0 0 0-.75.75v1.125H11.25a.75.75 0 1 0 0 1.5h1.125v1.125a.75.75 0 1 0 1.5 0v-1.125H15a.75.75 0 1 0 0-1.5h-1.125V9.84a.75.75 0 0 0-.75-.75zM22.5 23.34a.75.75 0 1 0 0-1.5.75.75 0 0 0 0 1.5zM4.875 21.84a.75.75 0 1 0 0 1.5H19.5a.75.75 0 1 0 0-1.5H4.875zM8.178 2.205A.75.75 0 0 0 9.24 1.144L8.973.878a.75.75 0 1 0-1.06 1.06l.265.267zM15.071 2.205l.266-.266a.75.75 0 1 0-1.06-1.061l-.267.266a.75.75 0 0 0 1.061 1.061z"/></g><defs><clipPath id="clip0_652_84504"><path fill="#fff" d="M0 0h24v24H0z"/></clipPath></defs></svg>