<svg xmlns="http://www.w3.org/2000/svg" fill="none" viewBox="0 0 24 24"><g fill="#4C6FFF" clip-path="url(#clip0_652_84517)"><path d="M16.131 6.482c-.273 0-.546-.037-.814-.112-2.797-.786-3.854-.788-6.642-.008a3.01 3.01 0 0 1-2.75-.594c-2.228-1.867-3.297-3.3-3.462-4.642A1 1 0 0 1 4.447.88c.066.53.598 1.542 2.763 3.355.253.213.609.291.925.201 3.137-.877 4.578-.873 7.722.007.316.089.673.012.928-.202 2.163-1.82 2.697-2.833 2.763-3.364a.988.988 0 0 1 1.117-.867 1 1 0 0 1 .867 1.116c-.168 1.34-1.236 2.773-3.46 4.645a3 3 0 0 1-1.94.712zM10 24a1 1 0 0 1-1-1v-.822a5.873 5.873 0 0 0-2.068-4.477.999.999 0 1 1 1.296-1.522 7.87 7.87 0 0 1 2.771 6V23a1 1 0 0 1-.998 1zM13.998 24.002c-.551 0-1-.449-1-1v-.823c0-2.313 1.01-4.5 2.772-6a1.002 1.002 0 0 1 1.41.113c.357.42.306 1.052-.114 1.41a5.88 5.88 0 0 0-2.067 4.477v.822a1 1 0 0 1-1 1z"/><path d="M23.317 3.834a.995.995 0 0 0-1.266.627c-.13.387-.53.855-1.12 1.321-.855.67-1.21 1.797-.923 2.939.053.207.078.423.078.64 0 .717-.11 1.417-.31 2.09h-.823A4.583 4.583 0 0 1 16.1 10.45a6.527 6.527 0 0 0-8.2 0c-.807.645-1.82 1-2.853 1H4.23a7.218 7.218 0 0 1-.316-2.1c0-.21.027-.424.078-.63.285-1.144-.069-2.27-.924-2.94-.592-.464-.99-.932-1.12-1.32A.997.997 0 0 0 .68 3.832 1.001 1.001 0 0 0 .052 5.1c.261.774.861 1.531 1.78 2.254.27.212.29.594.218.882-.091.365-.136.74-.136 1.125 0 5.316 4.525 9.641 10.086 9.641 2.69 0 5.219-.997 7.117-2.806 1.916-1.824 2.97-4.252 2.97-6.833 0-.383-.046-.76-.138-1.127-.072-.286-.052-.669.218-.88.922-.723 1.52-1.482 1.782-2.255a1.003 1.003 0 0 0-.632-1.267z"/></g><defs><clipPath id="clip0_652_84517"><path fill="#fff" d="M0 0h24v24H0z"/></clipPath></defs></svg>