<svg xmlns="http://www.w3.org/2000/svg" fill="none" viewBox="0 0 24 24"><path fill="#00E1F0" d="M20 6.998c-2.638 0-2.947.947-4.59 2.316a1.821 1.821 0 0 1-1.394.414 1.822 1.822 0 0 1-1.26-.724 3.847 3.847 0 0 0-4.219-1.362l-2.083.65c-.526.166-.82.727-.657 1.253.165.528.729.82 1.252.657l2.084-.651a1.844 1.844 0 0 1 2.023.652 3.81 3.81 0 0 0 2.627 1.51 3.797 3.797 0 0 0 2.856-.83c.7.68 1.917 1.114 3.361 1.114 2.28 0 4-1.074 4-2.5s-1.72-2.499-4-2.499z"/><path fill="#4C6FFF" d="M16.001 18.997c-1.673 0-2.288.625-3.406 1.74a.783.783 0 0 1-.643.23.783.783 0 0 1-.585-.35c-.718-1.079-2.07-1.521-3.284-1.079l-1.424.517a1 1 0 0 0 .683 1.88l1.423-.518a.795.795 0 0 1 .936.308 2.79 2.79 0 0 0 2.051 1.232c.76.072 1.454-.16 2.013-.608.542.398 1.323.646 2.232.646 1.71 0 3-.86 3-2C19 19.857 17.71 18.998 16 18.998zM7.769 16.35c.541.398 1.323.646 2.231.646 1.71 0 3-.86 3-2 0-1.14-1.29-1.999-3-1.999-1.673 0-2.288.626-3.406 1.742a.783.783 0 0 1-.643.23.783.783 0 0 1-.585-.352c-.718-1.078-2.071-1.52-3.284-1.078l-1.424.517a1 1 0 0 0 .683 1.88l1.423-.518c.346-.126.73 0 .936.308a2.79 2.79 0 0 0 2.052 1.232 2.758 2.758 0 0 0 2.017-.609zM4.344 3.938l1.424-.517a.795.795 0 0 1 .935.307 2.79 2.79 0 0 0 2.052 1.233c.76.072 1.453-.16 2.013-.609.541.4 1.323.647 2.231.647 1.71 0 3-.86 3-2 0-1.14-1.29-1.999-3-1.999-1.76 0-2.405.741-3.406 1.741a.783.783 0 0 1-.643.23.783.783 0 0 1-.585-.351 2.79 2.79 0 0 0-3.284-1.078l-1.424.517a1 1 0 0 0-.598 1.28c.193.52.766.785 1.285.6z"/></svg>