<svg xmlns="http://www.w3.org/2000/svg" fill="none" viewBox="0 0 24 24"><g clip-path="url(#clip0_652_84531)"><path fill="#E3FCFD" d="M9.585 2.06L.753 16.162c-.439.726-.178 1.654.582 2.073.24.133.513.203.79.204l16.785-.065c.878-.004 1.586-.687 1.582-1.525a1.46 1.46 0 0 0-.19-.713l-7.95-14.02c-.416-.737-1.38-1.014-2.154-.617-.254.13-.466.324-.613.56z"/><path fill="#4C6FFF" d="M19.499 19.125a3 3 0 1 0 0-6 3 3 0 0 0 0 6zM6.303 7.451a.75.75 0 0 0 1.032-.247l2.853-4.661a.75.75 0 0 1 1.28 0l4.77 7.792a.75.75 0 1 0 1.29-.764l-.012-.02-4.766-7.788a2.25 2.25 0 0 0-3.837 0L6.056 6.42a.75.75 0 0 0 .247 1.031zM13.124 17.689H2.25a.75.75 0 0 1-.637-1.144l3.9-6.375a.751.751 0 0 0-1.275-.795L.333 15.75a2.216 2.216 0 0 0-.041 2.288 2.22 2.22 0 0 0 1.957 1.15h10.875a.75.75 0 1 0 0-1.5z"/><path fill="#4C6FFF" d="M11.624 6.439a.75.75 0 1 0-1.5 0v4.5a.75.75 0 1 0 1.5 0v-4.5zM10.874 13.564a.75.75 0 0 0-.75.75v.75a.75.75 0 1 0 1.5 0v-.75a.75.75 0 0 0-.75-.75zM23.249 15.439h-.075a3.746 3.746 0 0 0-.547-1.316l.847-.852a.75.75 0 0 0-1.058-1.061l-.85.851c-.4-.264-.848-.45-1.317-.547v-1.2a.75.75 0 1 0-1.5 0v1.2c-.47.097-.916.283-1.316.547l-.03-.03a.75.75 0 0 0-1.058 1.061l.027.03c-.266.4-.451.847-.548 1.317h-.825a.75.75 0 1 0 0 1.5h.825c.098.47.283.916.548 1.316l-.402.401a.75.75 0 1 0 1.058 1.062l.405-.402c.4.268.846.458 1.316.559v1.2a.75.75 0 1 0 1.5 0v-1.2c.47-.098.916-.283 1.316-.547l.405.4a.75.75 0 1 0 1.058-1.06l-.401-.402c.264-.4.45-.846.547-1.316h.075a.75.75 0 1 0 0-1.5v-.011zm-1.875 1.545a.75.75 0 0 0-1.061 1.061l.172.172a2.25 2.25 0 1 1-1.736-4.147v.244a.75.75 0 1 0 1.5 0v-.244a2.25 2.25 0 0 1 1.28 3.086l-.155-.172z"/><path fill="#4C6FFF" d="M18.749 16.939a.75.75 0 1 0 0-1.5.75.75 0 0 0 0 1.5zM14.999 22.564c0 .414.336.75.75.75h4.5a.75.75 0 1 0 0-1.5h-4.5a.75.75 0 0 0-.75.75zM23.249 23.314a.75.75 0 1 0 0-1.5.75.75 0 0 0 0 1.5z"/></g><defs><clipPath id="clip0_652_84531"><path fill="#fff" d="M0 0h24v24H0z"/></clipPath></defs></svg>