<svg xmlns="http://www.w3.org/2000/svg" fill="none" viewBox="0 0 32 32"><path fill="#fff" d="M25.107 12.587A1.333 1.333 0 0 0 24 12h-4V9.333h2.934A1.333 1.333 0 0 0 24.267 8V2.667a1.333 1.333 0 0 0-1.333-1.334h-4.267a7.733 7.733 0 0 0-7.733 7.734V12H8a1.334 1.334 0 0 0-1.333 1.333v5.334A1.333 1.333 0 0 0 8 20h2.934v9.333a1.333 1.333 0 0 0 1.333 1.334h6.4A1.333 1.333 0 0 0 20 29.333V20h1.867a1.334 1.334 0 0 0 1.24-.84l2.133-5.333a1.333 1.333 0 0 0-.133-1.24zm-4.147 4.746h-2.293a1.333 1.333 0 0 0-1.333 1.334V28H13.6v-9.333a1.333 1.333 0 0 0-1.333-1.334H9.334v-2.666h2.933a1.333 1.333 0 0 0 1.333-1.334V9.067A5.08 5.08 0 0 1 18.667 4H21.6v2.667h-1.066a3.334 3.334 0 0 0-2.56.693 2.32 2.32 0 0 0-.64 1.707v4.266a1.333 1.333 0 0 0 1.333 1.334h3.36l-1.067 2.666z"/></svg>