<svg xmlns="http://www.w3.org/2000/svg" fill="none" viewBox="0 0 32 32"><path fill="#fff" d="M16 9.333a6.667 6.667 0 1 0 0 13.334 6.667 6.667 0 0 0 0-13.334zM16 20a4 4 0 1 1 0-8 4 4 0 0 1 0 8zm6.667-12a1.334 1.334 0 1 0 0 2.667 1.334 1.334 0 0 0 0-2.667zm6.587 2.987a10.015 10.015 0 0 0-.64-3.334 7.414 7.414 0 0 0-4.267-4.266 10.013 10.013 0 0 0-3.333-.64c-1.294-.08-1.72-.08-5.014-.08-3.293 0-3.72 0-5.013.08-1.14.022-2.267.238-3.333.64a7.413 7.413 0 0 0-4.267 4.266 10.013 10.013 0 0 0-.64 3.334c-.08 1.306-.08 1.733-.08 5.013s0 3.707.08 5.013c.022 1.14.239 2.267.64 3.334a7.413 7.413 0 0 0 4.267 4.266c1.066.402 2.194.618 3.333.64 1.333 0 1.72.08 5.013.08 3.294 0 3.72 0 5.014-.08a10.013 10.013 0 0 0 3.333-.64 7.413 7.413 0 0 0 4.267-4.266c.401-1.067.618-2.194.64-3.334 0-1.333.08-1.733.08-5.013s0-3.707-.08-5.013zm-2.667 9.906a8 8 0 0 1-.467 2.48c-.236.63-.61 1.2-1.093 1.667a4.347 4.347 0 0 1-1.667 1.08 7.665 7.665 0 0 1-2.493.48c-1.253 0-1.64.067-4.88.067H11.12a8 8 0 0 1-2.493-.467c-.63-.236-1.2-.61-1.667-1.093a4.346 4.346 0 0 1-1.08-1.667 7.654 7.654 0 0 1-.48-2.48v-4.893-4.894a7.813 7.813 0 0 1 .48-2.493 4.4 4.4 0 0 1 1.08-1.653 4.347 4.347 0 0 1 1.667-1.08 7.667 7.667 0 0 1 2.493-.48c1.254-.134 1.64-.134 4.88-.134h4.88a7.827 7.827 0 0 1 2.507.48 4.4 4.4 0 0 1 1.653 1.08 4.346 4.346 0 0 1 1.08 1.667c.327.811.512 1.673.547 2.547 0 1.333.067 1.666.067 4.893s-.067 3.613-.067 4.893h-.08z"/></svg>