<svg xmlns="http://www.w3.org/2000/svg" fill="none" viewBox="0 0 32 32"><path fill="#fff" d="M29.686 3.237a2.731 2.731 0 0 0-2.77-.432L3.02 12.452a2.724 2.724 0 0 0 .139 5.091l4.833 1.681 2.694 8.909c.037.119.09.232.158.336.01.016.025.028.036.044a1.317 1.317 0 0 0 .375.354c.127.084.267.145.414.181l.016.002.009.003c.089.018.179.028.27.028.008 0 .016-.004.025-.005.136-.002.272-.026.401-.07.03-.01.056-.027.085-.04a1.33 1.33 0 0 0 .273-.152l.202-.17 3.603-3.979 5.374 4.163a2.698 2.698 0 0 0 1.655.57 2.739 2.739 0 0 0 2.677-2.178l4.35-21.355a2.706 2.706 0 0 0-.924-2.628zM12.493 19.648a1.325 1.325 0 0 0-.363.675l-.413 2.005-1.045-3.457 5.42-2.823-3.599 3.6zm11.07 7.072l-6.351-4.92a1.335 1.335 0 0 0-1.805.16l-1.154 1.273.408-1.982 9.444-9.444a1.333 1.333 0 0 0-1.558-2.125L8.993 16.74l-4.966-1.817 23.971-9.59-4.436 21.388z"/></svg>