<svg xmlns="http://www.w3.org/2000/svg" fill="none" viewBox="0 0 32 32"><path fill="#fff" d="M20.534 14.88L14 10.667a1.333 1.333 0 0 0-2 1.12v8.426a1.334 1.334 0 0 0 .694 1.16c.194.114.415.174.64.174.236-.017.465-.09.666-.214l6.534-4.213a1.333 1.333 0 0 0 0-2.24zm-5.867 2.88v-3.52L17.334 16l-2.667 1.76zM25.84 6.013l-2.066-.266a63.414 63.414 0 0 0-15.414 0l-2.066.266a4.067 4.067 0 0 0-3.627 4.027v11.92a4.067 4.067 0 0 0 3.56 4l2.067.253c2.557.311 5.13.462 7.706.454 2.577 0 5.15-.16 7.707-.48l2.067-.254a4.066 4.066 0 0 0 3.56-4V10.04a4.067 4.067 0 0 0-3.56-4.027h.066zm.894 16a1.334 1.334 0 0 1-1.227 1.334l-2.067.253c-4.896.613-9.85.613-14.746 0l-2.067-.253A1.334 1.334 0 0 1 5.4 22.013V10.04a1.413 1.413 0 0 1 1.227-1.333l2-.307a60.186 60.186 0 0 1 14.747 0l2.066.253a1.413 1.413 0 0 1 1.227 1.334l.067 12.026z"/></svg>