<svg xmlns="http://www.w3.org/2000/svg" fill="none" viewBox="0 0 38 38"><path fill="#4C6FFF" fill-rule="evenodd" d="M16.625 33.25s-2.375 0-2.375-2.375 2.375-9.5 11.875-9.5S38 28.5 38 30.875s-2.375 2.375-2.375 2.375h-19zM26.125 19a7.125 7.125 0 1 0 0-14.25 7.125 7.125 0 0 0 0 14.25zM12.389 33.25c-.334-.675-.514-1.474-.514-2.375 0-3.22 1.613-6.53 4.598-8.835-1.306-.418-2.828-.665-4.598-.665C2.375 21.375 0 28.5 0 30.875s2.375 2.375 2.375 2.375h10.014zM10.688 19a5.937 5.937 0 1 0 0-11.875 5.937 5.937 0 0 0 0 11.875z" clip-rule="evenodd"/></svg>