<svg xmlns="http://www.w3.org/2000/svg" fill="none" viewBox="0 0 38 38"><path fill="#0083F7" fill-rule="evenodd" d="M3.167 6.333C3.167 2.836 10.256 0 19 0c8.745 0 15.833 2.836 15.833 6.333v3.171C34.827 13 27.741 15.834 19 15.834c-8.744 0-15.833-2.836-15.833-6.334V6.333zm0 8.711v7.123c0 3.497 7.089 6.333 15.833 6.333 8.74 0 15.827-2.833 15.833-6.329v-7.127c-1.02.757-2.211 1.375-3.461 1.875C28.048 18.248 23.672 19 19 19s-9.047-.752-12.372-2.081c-1.25-.5-2.44-1.118-3.461-1.875zm31.666 12.667c-1.02.757-2.211 1.374-3.461 1.874-3.324 1.33-7.7 2.082-12.372 2.082s-9.047-.752-12.372-2.082c-1.25-.5-2.44-1.117-3.461-1.874v3.956C3.167 35.164 10.256 38 19 38c8.745 0 15.833-2.836 15.833-6.333V27.71z" clip-rule="evenodd"/></svg>