<svg xmlns="http://www.w3.org/2000/svg" fill="none" viewBox="0 0 40 40"><path fill="#4C6FFF" fill-rule="evenodd" d="M18.333 11.667a6.667 6.667 0 1 1-13.333 0 6.667 6.667 0 0 1 13.333 0zm-3.333 0a3.333 3.333 0 1 1-6.667 0 3.333 3.333 0 0 1 6.667 0zm13.333 6.666a6.667 6.667 0 1 0 0-13.333 6.667 6.667 0 0 0 0 13.333zm0-3.333a3.333 3.333 0 1 0 0-6.667 3.333 3.333 0 0 0 0 6.667zm5 8.333c.92 0 1.667.747 1.667 1.667v10h3.333V25a5 5 0 0 0-5-5H25l1.666 3.333h6.667zm-16.666 0c.92 0 1.666.747 1.666 1.667v10h3.334V25a5 5 0 0 0-5-5h-10a5 5 0 0 0-5 5v10H5V25c0-.92.746-1.667 1.667-1.667h10z" clip-rule="evenodd"/></svg>