<svg xmlns="http://www.w3.org/2000/svg" fill="none" viewBox="0 0 40 40"><path fill="#4C6FFF" d="M36.26 34.344l-5.73-5.6-.134-.205a1.343 1.343 0 0 0-.947-.389c-.357 0-.698.14-.948.389-4.868 4.467-12.37 4.71-17.53.567-5.161-4.142-6.378-11.384-2.845-16.922 3.534-5.539 10.72-7.656 16.796-4.947 6.074 2.709 9.151 9.403 7.19 15.643-.141.45-.026.94.303 1.285.328.345.82.493 1.29.387.47-.106.847-.449.988-.9 2.345-7.404-1.197-15.373-8.333-18.75-7.136-3.378-15.725-1.15-20.211 5.24-4.487 6.392-3.524 15.028 2.266 20.324 5.79 5.296 14.668 5.66 20.892.859l5.073 4.96c.523.51 1.37.51 1.894 0a1.306 1.306 0 0 0 0-1.868l-.015-.073z"/></svg>